<svg width="200" height="200" viewBox="0 0 200 200" fill="none" xmlns="http://www.w3.org/2000/svg">
<circle cx="100" cy="99.9997" r="82.8125" fill="white" stroke="#05081B" stroke-width="1.04167"/>
<circle cx="100" cy="100" r="71.875" stroke="#FF0E00" stroke-width="12.5"/>
<path fill-rule="evenodd" clip-rule="evenodd" d="M51.6356 79.4851L46.9191 92.5918H45.2777C43.2834 92.5918 41.6666 94.2255 41.6666 96.2409V109.013C41.6666 111.028 43.2834 112.662 45.2777 112.662H46.1805V119.048C46.1805 121.063 47.7973 122.697 49.7916 122.697H52.4999C54.4943 122.697 56.1111 121.063 56.1111 119.048V112.662H81.3888V119.048C81.3888 121.063 83.0056 122.697 85 122.697H87.7083C89.7027 122.697 91.3194 121.063 91.3194 119.048V112.662H92.2222C94.2165 112.662 95.8333 111.028 95.8333 109.013V96.2409C95.8333 94.2255 94.2165 92.5918 92.2222 92.5918H90.5808L85.8643 79.4851C85.3454 78.043 83.9891 77.083 82.4706 77.083H55.0293C53.5108 77.083 52.1545 78.043 51.6356 79.4851ZM55.6616 81.6444L51.7222 92.5918H85.7777L81.8383 81.6444H55.6616Z" fill="#FF0E00"/>
<path fill-rule="evenodd" clip-rule="evenodd" d="M114.136 79.4851L109.419 92.5918H107.778C105.783 92.5918 104.167 94.2255 104.167 96.2409V109.013C104.167 111.028 105.783 112.662 107.778 112.662H108.681V119.048C108.681 121.063 110.297 122.697 112.292 122.697H115C116.994 122.697 118.611 121.063 118.611 119.048V112.662H143.889V119.048C143.889 121.063 145.506 122.697 147.5 122.697H150.208C152.203 122.697 153.82 121.063 153.82 119.048V112.662H154.722C156.717 112.662 158.333 111.028 158.333 109.013V96.2409C158.333 94.2255 156.717 92.5918 154.722 92.5918H153.081L148.364 79.4851C147.846 78.043 146.489 77.083 144.971 77.083H117.529C116.011 77.083 114.655 78.043 114.136 79.4851ZM118.162 81.6444L114.222 92.5918H148.278L144.338 81.6444H118.162Z" fill="black"/>
</svg>
