<svg width="200" height="200" viewBox="0 0 200 200" fill="none" xmlns="http://www.w3.org/2000/svg">
<rect width="66.6667" height="166.667" transform="matrix(-1 0 0 1 133.333 16.6667)" fill="#FF0E00"/>
<path d="M84.844 16.6667H99.5581L66.6667 43.8747V31.7031L84.844 16.6667Z" fill="#FFE600"/>
<path d="M66.6667 61.465L120.823 16.6667H133.333V18.4895L66.6667 73.6366V61.465Z" fill="#FFE600"/>
<path d="M66.6667 91.227L133.333 36.0799V48.2514L66.6667 103.398V91.227Z" fill="#FFE600"/>
<path d="M66.6667 120.989L133.333 65.8418V78.0133L66.6667 133.16V120.989Z" fill="#FFE600"/>
<path d="M66.6667 150.751L133.333 95.6037V107.775L66.6667 162.922V150.751Z" fill="#FFE600"/>
<path d="M66.6667 180.513L133.333 125.366V137.537L77.9707 183.333H66.6667V180.513Z" fill="#FFE600"/>
<path d="M99.2355 183.333L133.333 155.128V167.299L113.95 183.333H99.2355Z" fill="#FFE600"/>
<rect x="-0.520833" y="0.520833" width="65.625" height="165.625" transform="matrix(-1 0 0 1 132.292 16.6667)" stroke="#05081B" stroke-width="1.04167"/>
</svg>
