<svg width="200" height="201" viewBox="0 0 200 201" fill="none" xmlns="http://www.w3.org/2000/svg">
<rect x="1.56254" y="146.688" width="92.7084" height="196.875" rx="8.85417" transform="rotate(-90 1.56254 146.688)" fill="white" stroke="#13141A" stroke-width="1.04167"/>
<rect x="6.77083" y="141.479" width="82.2917" height="186.458" rx="3.64583" transform="rotate(-90 6.77083 141.479)" stroke="black" stroke-width="1.04167"/>
<path d="M23.7922 120.979C22.2967 120.425 21.2059 119.666 20.5199 118.701C19.8476 117.725 19.5115 116.659 19.5115 115.501C19.5115 113.525 20.2935 111.892 21.8577 110.602C23.4355 109.312 25.6719 108.667 28.5669 108.667C31.4344 108.667 33.6571 109.312 35.235 110.602C36.8265 111.892 37.6223 113.525 37.6223 115.501C37.6223 116.731 37.2587 117.828 36.5316 118.792C35.8044 119.744 34.7822 120.473 33.4651 120.979C35.1389 121.57 36.4081 122.432 37.2725 123.565C38.1506 124.698 38.5896 126.006 38.5896 127.488C38.5896 129.935 37.6978 131.924 35.9141 133.454C34.1442 134.985 31.7843 135.75 28.8344 135.75C26.0904 135.75 23.8059 135.118 21.9811 133.852C19.827 132.357 18.75 130.308 18.75 127.705C18.75 126.271 19.1547 124.957 19.9642 123.764C20.7737 122.558 22.0497 121.63 23.7922 120.979ZM24.9859 115.863C24.9859 116.875 25.3083 117.665 25.9532 118.231C26.6118 118.798 27.483 119.081 28.5669 119.081C29.6645 119.081 30.5426 118.798 31.2012 118.231C31.8598 117.653 32.1891 116.857 32.1891 115.845C32.1891 114.893 31.8598 114.133 31.2012 113.567C30.5563 112.988 29.6988 112.699 28.6286 112.699C27.5173 112.699 26.6323 112.988 25.9738 113.567C25.3152 114.145 24.9859 114.911 24.9859 115.863ZM24.4508 127.217C24.4508 128.615 24.8555 129.706 25.665 130.489C26.4883 131.273 27.5104 131.664 28.7315 131.664C29.9252 131.664 30.9131 131.291 31.6951 130.543C32.4772 129.784 32.8682 128.693 32.8682 127.271C32.8682 126.03 32.4703 125.035 31.6746 124.288C30.8788 123.529 29.8703 123.149 28.6492 123.149C27.236 123.149 26.1796 123.577 25.4798 124.433C24.7938 125.288 24.4508 126.216 24.4508 127.217Z" fill="black"/>
<path d="M42.7726 135.28V131.47H47.1099V135.28H42.7726Z" fill="black"/>
<path d="M57.9764 115.321C60.1683 115.321 61.8816 116.008 63.1164 117.382C64.5879 119.009 65.3237 121.707 65.3237 125.477C65.3237 129.237 64.5828 131.94 63.101 133.585C61.8764 134.941 60.1683 135.619 57.9764 135.619C55.7743 135.619 53.9993 134.878 52.6512 133.395C51.3032 131.904 50.6292 129.251 50.6292 125.436C50.6292 121.694 51.3701 119 52.8519 117.355C54.0764 115.999 55.7846 115.321 57.9764 115.321ZM57.9764 118.48C57.4516 118.48 56.9834 118.629 56.5718 118.927C56.1602 119.217 55.8412 119.741 55.6148 120.5C55.3164 121.486 55.1672 123.144 55.1672 125.477C55.1672 127.809 55.301 129.414 55.5685 130.29C55.8361 131.158 56.1705 131.737 56.5718 132.026C56.9834 132.315 57.4516 132.46 57.9764 132.46C58.5012 132.46 58.9694 132.315 59.3811 132.026C59.7927 131.728 60.1117 131.199 60.338 130.44C60.6365 129.463 60.7857 127.809 60.7857 125.477C60.7857 123.144 60.6519 121.544 60.3843 120.677C60.1168 119.8 59.7772 119.217 59.3656 118.927C58.9643 118.629 58.5012 118.48 57.9764 118.48Z" fill="black"/>
<path d="M75.5728 115.321C77.7646 115.321 79.4779 116.008 80.7127 117.382C82.1842 119.009 82.92 121.707 82.92 125.477C82.92 129.237 82.1791 131.94 80.6973 133.585C79.4728 134.941 77.7646 135.619 75.5728 135.619C73.3706 135.619 71.5956 134.878 70.2476 133.395C68.8995 131.904 68.2255 129.251 68.2255 125.436C68.2255 121.694 68.9664 119 70.4482 117.355C71.6728 115.999 73.3809 115.321 75.5728 115.321ZM75.5728 118.48C75.048 118.48 74.5798 118.629 74.1681 118.927C73.7565 119.217 73.4375 119.741 73.2112 120.5C72.9127 121.486 72.7635 123.144 72.7635 125.477C72.7635 127.809 72.8973 129.414 73.1648 130.29C73.4324 131.158 73.7668 131.737 74.1681 132.026C74.5798 132.315 75.048 132.46 75.5728 132.46C76.0976 132.46 76.5658 132.315 76.9774 132.026C77.389 131.728 77.708 131.199 77.9344 130.44C78.2328 129.463 78.382 127.809 78.382 125.477C78.382 123.144 78.2482 121.544 77.9807 120.677C77.7131 119.8 77.3736 119.217 76.9619 118.927C76.5606 118.629 76.0976 118.48 75.5728 118.48Z" fill="black"/>
<path d="M88.5417 127.492V123.682H97.2425V127.492H88.5417Z" fill="black"/>
<path d="M114.062 135.28H108.279V116.134C106.166 117.869 103.676 119.153 100.808 119.985V115.374C102.317 114.941 103.957 114.121 105.727 112.916C107.497 111.698 108.711 110.282 109.37 108.667H114.062V135.28Z" fill="black"/>
<path d="M120.675 113.856V109.137H140.453V112.825C138.82 114.235 137.16 116.26 135.472 118.9C133.785 121.54 132.495 124.348 131.603 127.325C130.725 130.29 130.293 132.942 130.306 135.28H124.729C124.825 131.616 125.683 127.879 127.302 124.071C128.934 120.262 131.109 116.857 133.826 113.856H120.675Z" fill="black"/>
<path d="M141.103 135.28V131.47H145.44V135.28H141.103Z" fill="black"/>
<path d="M156.306 115.32C158.498 115.32 160.212 116.007 161.446 117.381C162.918 119.008 163.654 121.707 163.654 125.476C163.654 129.237 162.913 131.94 161.431 133.585C160.206 134.941 158.498 135.619 156.306 135.619C154.104 135.619 152.329 134.878 150.981 133.395C149.633 131.904 148.959 129.25 148.959 125.436C148.959 121.693 149.7 118.999 151.182 117.354C152.406 115.998 154.115 115.32 156.306 115.32ZM156.306 118.48C155.782 118.48 155.313 118.629 154.902 118.927C154.49 119.216 154.171 119.741 153.945 120.5C153.646 121.485 153.497 123.144 153.497 125.476C153.497 127.809 153.631 129.413 153.899 130.29C154.166 131.158 154.501 131.736 154.902 132.026C155.313 132.315 155.782 132.459 156.306 132.459C156.831 132.459 157.299 132.315 157.711 132.026C158.123 131.727 158.442 131.198 158.668 130.439C158.966 129.463 159.116 127.809 159.116 125.476C159.116 123.144 158.982 121.544 158.714 120.676C158.447 119.799 158.107 119.216 157.696 118.927C157.294 118.629 156.831 118.48 156.306 118.48Z" fill="black"/>
<path d="M173.903 115.32C176.095 115.32 177.808 116.007 179.043 117.381C180.514 119.008 181.25 121.707 181.25 125.476C181.25 129.237 180.509 131.94 179.027 133.585C177.803 134.941 176.095 135.619 173.903 135.619C171.701 135.619 169.926 134.878 168.578 133.395C167.23 131.904 166.556 129.25 166.556 125.436C166.556 121.693 167.296 118.999 168.778 117.354C170.003 115.998 171.711 115.32 173.903 115.32ZM173.903 118.48C173.378 118.48 172.91 118.629 172.498 118.927C172.087 119.216 171.768 119.741 171.541 120.5C171.243 121.485 171.094 123.144 171.094 125.476C171.094 127.809 171.227 129.413 171.495 130.29C171.762 131.158 172.097 131.736 172.498 132.026C172.91 132.315 173.378 132.459 173.903 132.459C174.428 132.459 174.896 132.315 175.307 132.026C175.719 131.727 176.038 131.198 176.264 130.439C176.563 129.463 176.712 127.809 176.712 125.476C176.712 123.144 176.578 121.544 176.311 120.676C176.043 119.799 175.704 119.216 175.292 118.927C174.891 118.629 174.428 118.48 173.903 118.48Z" fill="black"/>
<path d="M60.2223 78.9792L63.7897 80.1243C63.2428 82.1376 62.3313 83.635 61.0551 84.6165C59.7873 85.5896 58.1755 86.0762 56.2199 86.0762C53.8002 86.0762 51.8114 85.2415 50.2535 83.5721C48.6956 81.8944 47.9166 79.6042 47.9166 76.7017C47.9166 73.6314 48.6997 71.2489 50.2659 69.5544C51.8321 67.8515 53.8913 67 56.4436 67C58.6727 67 60.4834 67.6669 61.8755 69.0007C62.7042 69.7893 63.3257 70.9218 63.74 72.3982L60.098 73.279C59.8826 72.3227 59.431 71.5677 58.7432 71.0141C58.0637 70.4604 57.235 70.1836 56.2572 70.1836C54.9064 70.1836 53.8084 70.6743 52.9632 71.6558C52.1263 72.6373 51.7078 74.227 51.7078 76.4248C51.7078 78.7569 52.1221 80.4179 52.9508 81.4078C53.7794 82.3977 54.8567 82.8926 56.1826 82.8926C57.1604 82.8926 58.0015 82.5781 58.7059 81.9489C59.4102 81.3197 59.9157 80.3298 60.2223 78.9792Z" fill="black"/>
<path d="M66.9594 85.7616V67.3146H80.4708V70.4352H70.6387V74.5248H79.7871V77.6328H70.6387V82.6536H80.8188V85.7616H66.9594Z" fill="black"/>
<path d="M83.9388 85.7616V67.3146H89.843C92.0804 67.3146 93.5389 67.4069 94.2184 67.5914C95.2625 67.8682 96.1367 68.4722 96.8411 69.4034C97.5455 70.3262 97.8977 71.5216 97.8977 72.9896C97.8977 74.1221 97.6946 75.0742 97.2886 75.846C96.8825 76.6178 96.3646 77.226 95.7348 77.6706C95.1133 78.1068 94.4794 78.3962 93.833 78.5388C92.9547 78.715 91.6827 78.8031 90.017 78.8031H87.618V85.7616H83.9388ZM87.618 70.4352V75.6699H89.6317C91.0819 75.6699 92.0514 75.5734 92.5403 75.3804C93.0292 75.1875 93.4104 74.8855 93.6839 74.4744C93.9656 74.0634 94.1065 73.5852 94.1065 73.04C94.1065 72.3689 93.9118 71.8152 93.5223 71.379C93.1328 70.9427 92.6398 70.6701 92.0431 70.5611C91.6039 70.4772 90.7214 70.4352 89.3955 70.4352H87.618Z" fill="black"/>
<path d="M100.918 85.7616V67.3146H114.43V70.4352H104.597V74.5248H113.746V77.6328H104.597V82.6536H114.778V85.7616H100.918Z" fill="black"/>
<path d="M119.364 67.3146H131.956V82.6661H133.559V89.7883H130.502V85.7616H119.029V89.7883H115.971V82.6661H117.512C118.266 81.089 118.763 79.2603 119.004 77.1798C119.244 75.091 119.364 72.4527 119.364 69.265V67.3146ZM122.87 70.4101C122.87 76.0138 122.368 80.0992 121.365 82.6661H128.289V70.4101H122.87Z" fill="black"/>
<path d="M152.478 85.7616H148.475L146.884 81.5714H139.6L138.096 85.7616H134.193L141.291 67.3146H145.181L152.478 85.7616ZM145.703 78.4633L143.193 71.6181L140.731 78.4633H145.703Z" fill="black"/>
</svg>
