<svg width="200" height="201" viewBox="0 0 200 201" fill="none" xmlns="http://www.w3.org/2000/svg">
<rect x="36.9792" y="12.3132" width="126.042" height="176.042" rx="8.85417" fill="white" stroke="#13141A" stroke-width="1.04167"/>
<rect x="41.6667" y="17.0005" width="116.667" height="166.667" rx="4.16667" fill="#1071AF"/>
<rect x="50" y="33.667" width="100" height="100" rx="4.16667" fill="white"/>
<path fill-rule="evenodd" clip-rule="evenodd" d="M77.1739 52.6887C72.6716 52.6887 69.0217 56.3386 69.0217 60.8409C69.0217 65.3432 72.6716 68.9931 77.1739 68.9931H85.3261V60.8409C85.3261 56.3386 81.6762 52.6887 77.1739 52.6887ZM91.8478 68.9931V60.8409C91.8478 52.7367 85.2781 46.167 77.1739 46.167C69.0697 46.167 62.5 52.7367 62.5 60.8409C62.5 68.9451 69.0697 75.5148 77.1739 75.5148H85.3261V91.8192H77.1739C69.0697 91.8192 62.5 98.3889 62.5 106.493C62.5 114.597 69.0697 121.167 77.1739 121.167C85.2781 121.167 91.8478 114.597 91.8478 106.493V98.3409H108.152V106.493C108.152 114.597 114.722 121.167 122.826 121.167C130.93 121.167 137.5 114.597 137.5 106.493C137.5 98.3889 130.93 91.8192 122.826 91.8192H114.674V75.5148H122.826C130.93 75.5148 137.5 68.9451 137.5 60.8409C137.5 52.7367 130.93 46.167 122.826 46.167C114.722 46.167 108.152 52.7367 108.152 60.8409V68.9931H91.8478ZM91.8478 75.5148V91.8192H108.152V75.5148H91.8478ZM114.674 68.9931H122.826C127.328 68.9931 130.978 65.3432 130.978 60.8409C130.978 56.3386 127.328 52.6887 122.826 52.6887C118.324 52.6887 114.674 56.3386 114.674 60.8409V68.9931ZM114.674 98.3409V106.493C114.674 110.995 118.324 114.645 122.826 114.645C127.328 114.645 130.978 110.995 130.978 106.493C130.978 101.991 127.328 98.3409 122.826 98.3409H114.674ZM85.3261 98.3409H77.1739C72.6716 98.3409 69.0217 101.991 69.0217 106.493C69.0217 110.995 72.6716 114.645 77.1739 114.645C81.6762 114.645 85.3261 110.995 85.3261 106.493V98.3409Z" fill="black"/>
</svg>
