<svg width="200" height="200" viewBox="0 0 200 200" fill="none" xmlns="http://www.w3.org/2000/svg">
<rect x="1.56254" y="146.353" width="92.7084" height="196.875" rx="8.85417" transform="rotate(-90 1.56254 146.353)" fill="white" stroke="#13141A" stroke-width="1.04167"/>
<rect x="6.77083" y="141.146" width="82.2917" height="186.458" rx="3.64583" transform="rotate(-90 6.77083 141.146)" stroke="black" stroke-width="1.04167"/>
<path d="M31.25 111.172L40.3348 110.07C40.6243 112.385 41.4036 114.156 42.6728 115.38C43.942 116.605 45.4785 117.217 47.2821 117.217C49.2193 117.217 50.8447 116.482 52.1585 115.013C53.4945 113.543 54.1625 111.562 54.1625 109.068C54.1625 106.707 53.5279 104.837 52.2587 103.456C50.9895 102.076 49.4419 101.386 47.6161 101.386C46.4137 101.386 44.9775 101.619 43.3074 102.087L44.3428 94.4384C46.8813 94.5052 48.8185 93.9597 50.1545 92.8018C51.4905 91.6216 52.1585 90.063 52.1585 88.1258C52.1585 86.478 51.6686 85.1643 50.6889 84.1845C49.7091 83.2048 48.4065 82.7149 46.7811 82.7149C45.1779 82.7149 43.8084 83.2716 42.6728 84.3849C41.5372 85.4983 40.847 87.1238 40.602 89.2614L31.9514 87.7918C32.5526 84.8303 33.4544 82.47 34.6568 80.7109C35.8815 78.9296 37.5738 77.5379 39.7336 76.5359C41.9158 75.5116 44.354 74.9995 47.0483 74.9995C51.6575 74.9995 55.3538 76.4691 58.1371 79.4083C60.4306 81.8131 61.5773 84.5297 61.5773 87.558C61.5773 91.8554 59.2282 95.2845 54.5299 97.8452C57.3355 98.4464 59.5733 99.7935 61.2433 101.887C62.9356 103.98 63.7817 106.507 63.7817 109.468C63.7817 113.766 62.2119 117.429 59.0723 120.457C55.9327 123.485 52.0249 125 47.3489 125C42.9178 125 39.2438 123.73 36.3268 121.192C33.4099 118.631 31.7176 115.291 31.25 111.172Z" fill="black"/>
<path d="M85.5252 74.9995C90.268 74.9995 93.9754 76.6918 96.6474 80.0763C99.8316 84.0843 101.424 90.731 101.424 100.016C101.424 109.279 99.8205 115.937 96.6141 119.989C93.9643 123.33 90.268 125 85.5252 125C80.7601 125 76.9191 123.174 74.0022 119.522C71.0852 115.848 69.6267 109.313 69.6267 99.916C69.6267 90.6976 71.2299 84.0621 74.4364 80.0095C77.0861 76.6695 80.7824 74.9995 85.5252 74.9995ZM85.5252 82.7817C84.3896 82.7817 83.3765 83.1491 82.4858 83.8839C81.5951 84.5965 80.9049 85.888 80.415 87.7584C79.7692 90.1854 79.4464 94.2714 79.4464 100.016C79.4464 105.761 79.7359 109.713 80.3148 111.873C80.8937 114.011 81.6174 115.436 82.4858 116.148C83.3765 116.861 84.3896 117.217 85.5252 117.217C86.6608 117.217 87.6739 116.861 88.5646 116.148C89.4553 115.414 90.1456 114.111 90.6354 112.241C91.2812 109.836 91.604 105.761 91.604 100.016C91.604 94.2714 91.3146 90.3302 90.7356 88.1926C90.1567 86.0327 89.4219 84.5965 88.5312 83.8839C87.6628 83.1491 86.6608 82.7817 85.5252 82.7817Z" fill="black"/>
<path d="M105.164 124.165L115.825 108.94L105.61 94.6054H115.157L120.389 102.733L125.9 94.6054H135.085L125.065 108.606L136.004 124.165H126.401L120.389 115.007L114.322 124.165H105.164Z" fill="black"/>
<path d="M140.736 94.6054H157.853C161.36 94.6054 163.986 95.2456 165.73 96.5259C167.474 97.8062 168.346 99.736 168.346 102.315C168.346 103.967 167.864 105.405 166.899 106.629C165.953 107.854 164.756 108.671 163.309 109.079C165.35 109.58 166.871 110.517 167.873 111.89C168.875 113.263 169.376 114.766 169.376 116.399C169.376 118.7 168.532 120.574 166.843 122.021C165.155 123.45 162.659 124.165 159.356 124.165H140.736V94.6054ZM148.612 106.88H153.65C156.081 106.88 157.835 106.574 158.911 105.961C160.006 105.349 160.553 104.384 160.553 103.067C160.553 101.824 160.043 100.942 159.022 100.423C158.02 99.8845 156.23 99.6154 153.65 99.6154H148.612V106.88ZM148.612 119.154H154.792C157.018 119.154 158.642 118.885 159.662 118.347C160.683 117.809 161.193 116.844 161.193 115.453C161.193 114.005 160.609 113.013 159.44 112.474C158.271 111.918 155.998 111.639 152.62 111.639H148.612V119.154Z" fill="black"/>
</svg>
