<svg width="200" height="200" viewBox="0 0 200 200" fill="none" xmlns="http://www.w3.org/2000/svg">
<rect x="0.520833" y="-0.520833" width="138.542" height="138.542" rx="8.85417" transform="matrix(-1 0 0 1 169.792 31.25)" fill="white" stroke="#13141A" stroke-width="1.04167"/>
<rect x="-1.04167" y="1.04167" width="127.083" height="127.083" rx="3.125" transform="matrix(-1 0 0 1 162.5 35.417)" fill="white" stroke="#13141A" stroke-width="2.08333"/>
<path d="M50 78.5308L55.3549 77.9156C55.6772 80.0396 56.3279 81.5997 57.3072 82.5959C58.2988 83.592 59.6313 84.09 61.3047 84.09C63.0773 84.09 64.4098 83.6506 65.3023 82.7716C66.2072 81.8781 66.6596 80.838 66.6596 79.6515C66.6596 78.8897 66.4675 78.2452 66.0832 77.7178C65.7113 77.1758 65.0544 76.707 64.1123 76.3115C63.4677 76.0478 61.9989 75.5791 59.7057 74.9052C56.7556 74.041 54.6855 72.9789 53.4955 71.7191C51.8221 69.9466 50.9854 67.7859 50.9854 65.237C50.9854 63.5964 51.3759 62.0656 52.1568 60.6446C52.9501 59.2091 54.0843 58.1177 55.5594 57.3706C57.0469 56.6235 58.838 56.25 60.9329 56.25C64.354 56.25 66.9261 57.1363 68.6491 58.9088C70.3845 60.6813 71.2955 63.047 71.3823 66.0061L65.8787 66.2917C65.6432 64.6364 65.1349 63.4499 64.354 62.7321C63.5855 61.9997 62.4265 61.6334 60.8771 61.6334C59.2781 61.6334 58.0261 62.0216 57.1212 62.798C56.5386 63.2961 56.2473 63.9626 56.2473 64.7976C56.2473 65.5593 56.52 66.2112 57.0655 66.7532C57.7596 67.4417 59.4454 68.1595 62.1228 68.9066C64.8003 69.6536 66.7774 70.43 68.0541 71.2357C69.3432 72.0268 70.3473 73.1181 71.0662 74.5097C71.7975 75.8867 72.1632 77.5933 72.1632 79.6295C72.1632 81.4752 71.7294 83.2038 70.8617 84.8151C69.994 86.4265 68.7668 87.6277 67.1802 88.4188C65.5936 89.1951 63.6165 89.5833 61.2489 89.5833C57.803 89.5833 55.1565 88.6458 53.3096 86.7708C51.4627 84.8811 50.3595 82.1344 50 78.5308Z" fill="black"/>
<path d="M82.9677 89.012V62.2487H74.8796V56.7993H96.5408V62.2487H88.4713V89.012H82.9677Z" fill="black"/>
<path d="M98.3275 73.1034C98.3275 69.8221 98.7427 67.0681 99.5732 64.8415C100.193 63.2009 101.036 61.7286 102.102 60.4249C103.18 59.1212 104.358 58.1543 105.635 57.5244C107.333 56.6748 109.291 56.25 111.51 56.25C115.526 56.25 118.737 57.7222 121.141 60.6666C123.559 63.611 124.767 67.7054 124.767 72.9496C124.767 78.1499 123.571 82.2223 121.179 85.1667C118.786 88.0965 115.588 89.5614 111.585 89.5614C107.531 89.5614 104.308 88.1038 101.916 85.1887C99.5237 82.2589 98.3275 78.2305 98.3275 73.1034ZM103.998 72.8837C103.998 76.5313 104.711 79.2999 106.137 81.1896C107.562 83.0646 109.372 84.0021 111.566 84.0021C113.76 84.0021 115.557 83.0719 116.958 81.2115C118.371 79.3365 119.078 76.5313 119.078 72.7958C119.078 69.1043 118.39 66.3503 117.014 64.5339C115.65 62.7174 113.834 61.8092 111.566 61.8092C109.298 61.8092 107.469 62.7321 106.081 64.5778C104.693 66.4089 103.998 69.1776 103.998 72.8837Z" fill="black"/>
<path d="M129.12 89.012V56.7993H137.952C141.298 56.7993 143.48 56.9605 144.496 57.2827C146.058 57.7662 147.366 58.8209 148.42 60.4469C149.473 62.0582 150 64.1457 150 66.7092C150 68.6868 149.696 70.3495 149.089 71.6972C148.482 73.0448 147.707 74.1069 146.765 74.8833C145.835 75.645 144.887 76.1504 143.92 76.3994C142.606 76.707 140.703 76.8609 138.212 76.8609H134.623V89.012H129.12ZM134.623 62.2487V71.3895H137.635C139.805 71.3895 141.255 71.2211 141.986 70.8841C142.718 70.5472 143.288 70.0199 143.697 69.3021C144.118 68.5843 144.329 67.7493 144.329 66.7971C144.329 65.6252 144.038 64.6584 143.455 63.8967C142.873 63.1349 142.135 62.6588 141.243 62.4684C140.586 62.3219 139.265 62.2487 137.282 62.2487H134.623Z" fill="black"/>
<path d="M73.3578 138.178V143.264H54.1666C54.3744 141.341 54.9979 139.523 56.037 137.808C57.0761 136.081 59.1284 133.795 62.1938 130.95C64.6617 128.651 66.1749 127.092 66.7334 126.274C67.4868 125.144 67.8635 124.027 67.8635 122.923C67.8635 121.702 67.5322 120.767 66.8698 120.117C66.2204 119.455 65.3176 119.124 64.1616 119.124C63.0186 119.124 62.1094 119.468 61.4339 120.156C60.7585 120.845 60.3688 121.988 60.2649 123.585L54.8096 123.04C55.1343 120.026 56.1539 117.864 57.8685 116.552C59.583 115.24 61.7262 114.584 64.298 114.584C67.1166 114.584 69.3312 115.344 70.9418 116.864C72.5525 118.383 73.3578 120.273 73.3578 122.533C73.3578 123.819 73.124 125.047 72.6564 126.216C72.2018 127.372 71.4744 128.586 70.4742 129.859C69.8118 130.703 68.6168 131.918 66.8893 133.502C65.1618 135.087 64.0642 136.139 63.5966 136.659C63.142 137.178 62.7718 137.685 62.486 138.178H73.3578Z" fill="black"/>
<path d="M77.157 135.918L82.6124 135.353C82.7683 136.587 83.2294 137.568 83.9957 138.295C84.7621 139.01 85.6453 139.367 86.6455 139.367C87.7885 139.367 88.7562 138.906 89.5485 137.984C90.3408 137.048 90.737 135.646 90.737 133.775C90.737 132.022 90.3408 130.71 89.5485 129.839C88.7692 128.956 87.7495 128.515 86.4896 128.515C84.9179 128.515 83.5086 129.21 82.2617 130.599L77.8195 129.956L80.6251 115.091H95.1013V120.215H84.7751L83.9178 125.066C85.1388 124.456 86.3857 124.15 87.6586 124.15C90.0875 124.15 92.1463 125.034 93.8348 126.8C95.5234 128.567 96.3677 130.859 96.3677 133.678C96.3677 136.029 95.6858 138.126 94.3219 139.971C92.4645 142.491 89.8862 143.751 86.587 143.751C83.9503 143.751 81.8006 143.043 80.138 141.627C78.4754 140.211 77.4818 138.308 77.157 135.918Z" fill="black"/>
<path d="M108.545 114.584C111.311 114.584 113.474 115.571 115.033 117.545C116.89 119.883 117.819 123.761 117.819 129.177C117.819 134.58 116.884 138.464 115.013 140.828C113.468 142.776 111.311 143.751 108.545 143.751C105.765 143.751 103.525 142.686 101.823 140.555C100.121 138.412 99.2707 134.6 99.2707 129.119C99.2707 123.741 100.206 119.87 102.076 117.506C103.622 115.558 105.778 114.584 108.545 114.584ZM108.545 119.124C107.882 119.124 107.291 119.338 106.772 119.767C106.252 120.182 105.85 120.936 105.564 122.027C105.187 123.442 104.999 125.826 104.999 129.177C104.999 132.528 105.168 134.834 105.505 136.094C105.843 137.341 106.265 138.172 106.772 138.588C107.291 139.003 107.882 139.211 108.545 139.211C109.207 139.211 109.798 139.003 110.318 138.588C110.837 138.159 111.24 137.399 111.526 136.308C111.902 134.905 112.091 132.528 112.091 129.177C112.091 125.826 111.922 123.527 111.584 122.28C111.247 121.02 110.818 120.182 110.298 119.767C109.792 119.338 109.207 119.124 108.545 119.124Z" fill="black"/>
<path d="M122.826 122.572H129.606L134.75 136.99L139.933 122.572H146.693V143.264H142.037V129.645L136.991 143.264H132.315L127.502 129.645V143.264H122.826V122.572Z" fill="black"/>
</svg>
