<svg width="200" height="201" viewBox="0 0 200 201" fill="none" xmlns="http://www.w3.org/2000/svg">
<circle cx="100" cy="100.335" r="82.8125" fill="white" stroke="#05081B" stroke-width="1.04167"/>
<circle cx="100" cy="100.335" r="71.875" stroke="#FF0E00" stroke-width="12.5"/>
<path d="M27.0834 100.338H171.875" stroke="#FF0E00" stroke-width="8.33333" stroke-linecap="square"/>
<path fill-rule="evenodd" clip-rule="evenodd" d="M109.202 139.419L115.859 139.924C116.666 140.025 117.271 139.52 117.271 138.713C117.372 137.907 116.868 137.402 116.061 137.302L108.799 136.796C108.698 135.589 109.2 134.407 109.728 133.162C110.259 131.911 110.816 130.597 110.816 129.131C110.917 125.5 107.589 122.575 104.865 122.777C95.8881 123.684 90.0888 123.987 84.743 122.978L82.4235 118.892V114.958C82.4235 113.849 81.5155 112.942 80.4067 112.942C79.2974 112.942 78.3888 113.849 78.3888 114.958V115.463L77.1792 114.354C74.8586 112.437 69.4152 110.038 68.4003 110.952C68.6531 111.41 68.7828 111.7 68.8875 111.934C69.1166 112.447 69.2251 112.69 70.2419 113.832C69.603 115.615 68.0707 117.834 66.7482 119.75C65.9136 120.959 65.1626 122.046 64.7724 122.827C63.9658 124.643 65.9376 125.533 66.9915 125.753C67.4348 125.845 68.1681 125.319 68.9862 124.733C70.1231 123.918 71.4238 122.986 72.3373 123.432C74.5278 124.502 74.7865 129.742 74.9221 132.488C74.9717 133.492 75.0048 134.163 75.1097 134.176L72.5885 133.872C71.7813 133.872 71.1759 134.277 71.1759 135.083C71.0745 135.89 71.579 136.496 72.3856 136.496L73.4954 136.597L70.9742 138.915C69.6631 140.026 69.2589 141.438 70.57 143.355L75.8155 150.717C77.1266 152.633 79.8496 149.81 78.6394 147.792L75.2101 141.741L79.043 137.403C79.043 137.505 79.1434 137.505 79.1434 137.505L83.0772 150.717C83.4802 151.726 84.3883 152.231 85.5984 151.928V151.826C86.6069 151.524 87.2128 150.716 86.9095 149.406L83.4802 138.008C88.826 138.613 94.3736 138.915 100.123 138.915L97.8029 149.104C97.6017 150.313 98.207 151.322 99.2154 151.524H99.4172C100.426 151.726 101.435 151.12 101.636 150.112L104.259 139.016L104.864 139.117L107.084 150.212C107.386 152.23 111.32 151.524 111.017 149.608L109.202 139.419ZM122.415 128.724C120.599 128.724 119.188 130.136 119.188 131.952V137.197C120.096 136.793 121.104 136.692 122.113 136.692C126.248 136.692 129.376 139.618 129.577 143.753H135.417V128.724H122.415ZM115.558 144.361C115.558 140.73 118.282 138.007 121.912 138.007C125.544 138.007 128.267 140.73 128.267 144.361C128.267 147.992 125.544 150.715 121.912 150.715C118.282 150.715 115.558 147.992 115.558 144.361ZM118.887 144.361C118.887 146.076 120.198 147.387 121.912 147.387C123.627 147.387 124.938 146.076 124.938 144.361C124.938 142.647 123.627 141.335 121.912 141.335C120.198 141.335 118.887 142.647 118.887 144.361Z" fill="black"/>
<path d="M115.859 139.924L115.861 139.907L115.86 139.907L115.859 139.924ZM109.202 139.419L109.204 139.402L109.181 139.4L109.185 139.422L109.202 139.419ZM117.271 138.713L117.254 138.711V138.713H117.271ZM116.061 137.302L116.063 137.284L116.062 137.284L116.061 137.302ZM108.799 136.796L108.781 136.798L108.783 136.812L108.798 136.814L108.799 136.796ZM109.728 133.162L109.744 133.169L109.728 133.162ZM110.816 129.131L110.799 129.13V129.131H110.816ZM104.865 122.777L104.864 122.759L104.863 122.759L104.865 122.777ZM84.743 122.978L84.7279 122.987L84.7319 122.994L84.7398 122.996L84.743 122.978ZM82.4235 118.892H82.4035L82.4084 118.901L82.4235 118.892ZM78.3888 115.463L78.3771 115.476L78.4062 115.502V115.463H78.3888ZM77.1792 114.354L77.1909 114.341L77.1903 114.34L77.1792 114.354ZM68.4003 110.952L68.3886 110.939L68.3784 110.948L68.385 110.96L68.4003 110.952ZM68.8875 111.934L68.8716 111.941L68.8875 111.934ZM70.2419 113.832L70.2582 113.838L70.2617 113.828L70.2548 113.82L70.2419 113.832ZM66.7482 119.75L66.7339 119.74L66.7482 119.75ZM64.7724 122.827L64.7568 122.819L64.7565 122.82L64.7724 122.827ZM66.9915 125.753L66.988 125.77H66.988L66.9915 125.753ZM68.9862 124.733L68.9963 124.747L68.9862 124.733ZM72.3373 123.432L72.345 123.416H72.3449L72.3373 123.432ZM74.9221 132.488L74.9047 132.489L74.9221 132.488ZM75.1097 134.176L75.1077 134.193L75.1118 134.158L75.1097 134.176ZM72.5885 133.872L72.5906 133.855H72.5885V133.872ZM71.1759 135.083L71.1933 135.085V135.083H71.1759ZM72.3856 136.496L72.3872 136.478H72.3856V136.496ZM73.4954 136.597L73.5072 136.609L73.5361 136.583L73.497 136.579L73.4954 136.597ZM70.9742 138.915L70.9854 138.929L70.9859 138.928L70.9742 138.915ZM70.57 143.355L70.5557 143.365L70.5559 143.365L70.57 143.355ZM75.8155 150.717L75.8298 150.707L75.8296 150.707L75.8155 150.717ZM78.6394 147.792L78.6243 147.801L78.6245 147.801L78.6394 147.792ZM75.2101 141.741L75.1971 141.729L75.1888 141.738L75.195 141.749L75.2101 141.741ZM79.043 137.403H79.0604V137.357L79.03 137.392L79.043 137.403ZM79.1434 137.505L79.16 137.5L79.1563 137.487L79.1434 137.487V137.505ZM83.0772 150.717L83.0604 150.722L83.061 150.723L83.0772 150.717ZM85.5984 151.928L85.6027 151.945L85.6158 151.941V151.928H85.5984ZM85.5984 151.826L85.5934 151.81L85.5811 151.813V151.826H85.5984ZM86.9095 149.406L86.9265 149.402L86.9262 149.401L86.9095 149.406ZM83.4802 138.008L83.4822 137.991L83.4559 137.988L83.4635 138.013L83.4802 138.008ZM100.123 138.915L100.14 138.919L100.145 138.898H100.123V138.915ZM97.8029 149.104L97.7859 149.1L97.7857 149.101L97.8029 149.104ZM99.2154 151.524L99.212 151.541H99.2154V151.524ZM99.4172 151.524L99.4207 151.506H99.4172V151.524ZM101.636 150.112L101.619 150.108L101.619 150.108L101.636 150.112ZM104.259 139.016L104.262 138.999L104.246 138.997L104.242 139.012L104.259 139.016ZM104.864 139.117L104.882 139.114L104.879 139.102L104.867 139.1L104.864 139.117ZM107.084 150.212L107.101 150.209L107.101 150.208L107.084 150.212ZM111.017 149.608L111.034 149.605L111.034 149.605L111.017 149.608ZM119.188 137.197H119.17V137.223L119.195 137.212L119.188 137.197ZM129.577 143.753L129.56 143.753L129.561 143.77H129.577V143.753ZM135.417 143.753V143.77H135.434V143.753H135.417ZM135.417 128.724H135.434V128.707H135.417V128.724ZM128.267 144.361H128.285V144.361L128.267 144.361ZM115.86 139.907L109.204 139.402L109.201 139.437L115.857 139.941L115.86 139.907ZM117.254 138.713C117.254 139.112 117.104 139.435 116.856 139.646C116.608 139.857 116.26 139.957 115.861 139.907L115.857 139.941C116.264 139.992 116.622 139.89 116.879 139.672C117.135 139.454 117.289 139.121 117.289 138.713H117.254ZM116.059 137.319C116.459 137.369 116.783 137.519 116.993 137.754C117.204 137.989 117.304 138.312 117.254 138.711L117.288 138.715C117.339 138.308 117.238 137.975 117.019 137.731C116.802 137.488 116.469 137.335 116.063 137.284L116.059 137.319ZM108.798 136.814L116.06 137.319L116.062 137.284L108.8 136.779L108.798 136.814ZM109.712 133.156C109.184 134.399 108.68 135.586 108.781 136.798L108.816 136.795C108.716 135.593 109.215 134.415 109.744 133.169L109.712 133.156ZM110.799 129.131C110.799 130.593 110.243 131.904 109.712 133.156L109.744 133.169C110.274 131.919 110.834 130.601 110.834 129.131H110.799ZM104.866 122.794C106.222 122.694 107.73 123.372 108.887 124.529C110.045 125.686 110.849 127.321 110.799 129.13L110.834 129.131C110.884 127.311 110.075 125.667 108.912 124.504C107.75 123.342 106.232 122.658 104.864 122.759L104.866 122.794ZM84.7398 122.996C90.0883 124.004 95.8899 123.701 104.867 122.794L104.863 122.759C95.8862 123.667 90.0893 123.969 84.7462 122.961L84.7398 122.996ZM82.4084 118.901L84.7279 122.987L84.7581 122.97L82.4387 118.884L82.4084 118.901ZM82.4061 114.958V118.892H82.4409V114.958H82.4061ZM80.4067 112.959C81.5059 112.959 82.4061 113.859 82.4061 114.958H82.4409C82.4409 113.84 81.5251 112.924 80.4067 112.924V112.959ZM78.4062 114.958C78.4062 113.859 79.307 112.959 80.4067 112.959V112.924C79.2878 112.924 78.3714 113.84 78.3714 114.958H78.4062ZM78.4062 115.463V114.958H78.3714V115.463H78.4062ZM77.1674 114.366L78.3771 115.476L78.4006 115.45L77.1909 114.341L77.1674 114.366ZM68.4119 110.965C68.5346 110.854 68.7261 110.792 68.9749 110.774C69.2234 110.756 69.5268 110.782 69.8707 110.845C70.5583 110.972 71.4052 111.245 72.2935 111.607C74.0703 112.332 76.0096 113.41 77.1681 114.367L77.1903 114.34C76.0282 113.381 74.0855 112.301 72.3067 111.575C71.4172 111.212 70.5679 110.938 69.8769 110.811C69.5315 110.748 69.225 110.721 68.9724 110.74C68.7202 110.758 68.5196 110.821 68.3886 110.939L68.4119 110.965ZM68.9033 111.927C68.7986 111.693 68.6686 111.402 68.4155 110.944L68.385 110.96C68.6375 111.418 68.767 111.707 68.8716 111.941L68.9033 111.927ZM70.2548 113.82C69.7466 113.249 69.4659 112.904 69.2837 112.637C69.1018 112.371 69.0179 112.183 68.9033 111.927L68.8716 111.941C68.9862 112.198 69.0712 112.388 69.255 112.657C69.4385 112.925 69.7204 113.272 70.2289 113.843L70.2548 113.82ZM66.7626 119.76C68.0845 117.845 69.6184 115.623 70.2582 113.838L70.2255 113.826C69.5876 115.606 68.0569 117.824 66.7339 119.74L66.7626 119.76ZM64.7879 122.835C65.1774 122.056 65.9276 120.969 66.7626 119.76L66.7339 119.74C65.8996 120.948 65.1477 122.037 64.7568 122.819L64.7879 122.835ZM66.9951 125.736C66.4698 125.626 65.7167 125.35 65.196 124.875C64.9358 124.639 64.7343 124.353 64.6475 124.015C64.5607 123.677 64.588 123.285 64.7883 122.834L64.7565 122.82C64.5535 123.277 64.5248 123.677 64.6138 124.024C64.7027 124.37 64.9088 124.661 65.1725 124.901C65.6995 125.381 66.4593 125.659 66.988 125.77L66.9951 125.736ZM68.9761 124.719C68.5668 125.012 68.1798 125.29 67.8398 125.482C67.6698 125.578 67.5122 125.653 67.3699 125.698C67.2276 125.743 67.1019 125.758 66.9951 125.736L66.988 125.77C67.1029 125.794 67.2351 125.777 67.3804 125.731C67.5259 125.685 67.6859 125.609 67.8569 125.512C68.1989 125.319 68.5875 125.04 68.9963 124.747L68.9761 124.719ZM72.3449 123.416C71.8806 123.19 71.3205 123.314 70.738 123.594C70.1549 123.874 69.5442 124.312 68.9761 124.719L68.9963 124.747C69.5651 124.339 70.1732 123.904 70.753 123.625C71.3335 123.347 71.8805 123.228 72.3297 123.448L72.3449 123.416ZM74.9395 132.487C74.8717 131.114 74.7731 129.116 74.4174 127.328C74.2395 126.434 73.9972 125.591 73.6619 124.904C73.3266 124.218 72.8975 123.686 72.345 123.416L72.3297 123.448C72.8724 123.713 73.297 124.237 73.6306 124.92C73.9641 125.602 74.2057 126.442 74.3832 127.335C74.7384 129.12 74.8369 131.116 74.9047 132.489L74.9395 132.487ZM75.1118 134.158C75.108 134.158 75.0997 134.153 75.0891 134.133C75.079 134.113 75.0693 134.084 75.0601 134.044C75.0417 133.965 75.0263 133.849 75.0125 133.702C74.9849 133.408 74.9643 132.99 74.9395 132.487L74.9047 132.489C74.9295 132.991 74.9502 133.41 74.9778 133.705C74.9916 133.853 75.0073 133.97 75.0262 134.052C75.0356 134.092 75.0461 134.125 75.0581 134.149C75.0695 134.171 75.0852 134.19 75.1077 134.193L75.1118 134.158ZM72.5864 133.89L75.1077 134.193L75.1118 134.158L72.5905 133.855L72.5864 133.89ZM71.1933 135.083C71.1933 134.685 71.3426 134.387 71.5904 134.189C71.8387 133.99 72.1875 133.89 72.5885 133.89V133.855C72.1822 133.855 71.8249 133.957 71.5687 134.162C71.3119 134.367 71.1585 134.675 71.1585 135.083H71.1933ZM72.3856 136.478C71.9868 136.478 71.6641 136.329 71.4535 136.081C71.2428 135.833 71.143 135.485 71.1932 135.085L71.1587 135.081C71.1074 135.489 71.2091 135.847 71.427 136.103C71.6449 136.36 71.9778 136.513 72.3856 136.513V136.478ZM73.497 136.579L72.3872 136.478L72.384 136.513L73.4939 136.614L73.497 136.579ZM70.9859 138.928L73.5072 136.609L73.4837 136.584L70.9624 138.903L70.9859 138.928ZM70.5844 143.345C69.9304 142.389 69.7058 141.561 69.806 140.835C69.9063 140.109 70.3319 139.482 70.9854 138.929L70.9629 138.902C70.3054 139.459 69.8734 140.093 69.7715 140.83C69.6697 141.567 69.8986 142.404 70.5557 143.365L70.5844 143.345ZM75.8296 150.707L70.5842 143.345L70.5559 143.365L75.8013 150.727L75.8296 150.707ZM78.6245 147.801C79.2243 148.801 78.8502 150.003 78.1604 150.718C77.8157 151.075 77.3941 151.308 76.9789 151.335C76.5649 151.361 76.1545 151.182 75.8298 150.707L75.8011 150.727C76.132 151.21 76.5536 151.397 76.9811 151.37C77.4075 151.342 77.8368 151.103 78.1855 150.742C78.8824 150.02 79.2647 148.801 78.6544 147.783L78.6245 147.801ZM75.195 141.749L78.6243 147.801L78.6546 147.783L75.2252 141.732L75.195 141.749ZM79.03 137.392L75.1971 141.729L75.2231 141.752L79.056 137.415L79.03 137.392ZM79.1434 137.505C79.1434 137.487 79.1434 137.487 79.1434 137.487C79.1434 137.487 79.1434 137.487 79.1434 137.487C79.1434 137.487 79.1434 137.487 79.1434 137.487C79.1434 137.487 79.1434 137.487 79.1434 137.487C79.1434 137.487 79.1434 137.487 79.1434 137.487C79.1433 137.487 79.1431 137.487 79.1428 137.487C79.1423 137.487 79.1414 137.487 79.1403 137.487C79.138 137.487 79.1347 137.487 79.1306 137.486C79.1223 137.484 79.1116 137.482 79.101 137.476C79.0906 137.471 79.0806 137.463 79.0732 137.452C79.0659 137.441 79.0604 137.426 79.0604 137.403H79.0256C79.0256 137.432 79.0327 137.454 79.0442 137.471C79.0556 137.489 79.0707 137.5 79.0853 137.507C79.0999 137.515 79.1142 137.518 79.1248 137.52C79.1301 137.521 79.1346 137.522 79.1378 137.522C79.1394 137.522 79.1407 137.522 79.1417 137.522C79.1421 137.522 79.1425 137.522 79.1428 137.522C79.1429 137.522 79.1431 137.522 79.1432 137.522C79.1432 137.522 79.1432 137.522 79.1433 137.522C79.1433 137.522 79.1433 137.522 79.1433 137.522C79.1433 137.522 79.1433 137.522 79.1433 137.522C79.1434 137.522 79.1434 137.522 79.1434 137.505ZM83.0938 150.712L79.16 137.5L79.1267 137.51L83.0605 150.722L83.0938 150.712ZM85.5942 151.911C84.9924 152.062 84.4672 152.011 84.0429 151.799C83.6186 151.587 83.2935 151.212 83.0933 150.71L83.061 150.723C83.2639 151.231 83.5943 151.614 84.0273 151.83C84.4604 152.047 84.9943 152.097 85.6027 151.945L85.5942 151.911ZM85.5811 151.826V151.928H85.6158V151.826H85.5811ZM86.8926 149.41C87.0434 150.062 86.9677 150.586 86.7309 150.985C86.494 151.384 86.0945 151.659 85.5934 151.81L85.6035 151.843C86.1108 151.691 86.5185 151.411 86.7608 151.003C87.0032 150.595 87.0789 150.06 86.9265 149.402L86.8926 149.41ZM83.4635 138.013L86.8929 149.411L86.9262 149.401L83.4969 138.003L83.4635 138.013ZM100.123 138.898C94.3742 138.898 88.8273 138.595 83.4822 137.991L83.4783 138.025C88.8247 138.63 94.373 138.932 100.123 138.932V138.898ZM97.8199 149.108L100.14 138.919L100.107 138.911L97.7859 149.1L97.8199 149.108ZM99.2188 151.506C98.2218 151.307 97.62 150.309 97.8201 149.107L97.7857 149.101C97.5834 150.317 98.1922 151.337 99.212 151.541L99.2188 151.506ZM99.4172 151.506H99.2154V151.541H99.4172V151.506ZM101.619 150.108C101.42 151.107 100.421 151.707 99.4206 151.506L99.4138 151.541C100.431 151.745 101.45 151.134 101.653 150.115L101.619 150.108ZM104.242 139.012L101.619 150.108L101.653 150.116L104.276 139.02L104.242 139.012ZM104.867 139.1L104.262 138.999L104.256 139.034L104.862 139.134L104.867 139.1ZM107.101 150.208L104.882 139.114L104.847 139.121L107.067 150.215L107.101 150.208ZM111 149.61C111.074 150.082 110.888 150.48 110.561 150.781C110.233 151.083 109.764 151.286 109.275 151.368C108.785 151.449 108.278 151.408 107.876 151.223C107.474 151.037 107.175 150.707 107.101 150.209L107.066 150.214C107.143 150.726 107.45 151.064 107.861 151.254C108.272 151.444 108.786 151.485 109.28 151.402C109.775 151.32 110.251 151.114 110.585 150.807C110.919 150.5 111.111 150.091 111.034 149.605L111 149.61ZM109.185 139.422L111 149.611L111.034 149.605L109.22 139.416L109.185 139.422ZM119.205 131.952C119.205 130.146 120.609 128.742 122.415 128.742V128.707C120.59 128.707 119.17 130.127 119.17 131.952H119.205ZM119.205 137.197V131.952H119.17V137.197H119.205ZM122.113 136.675C121.103 136.675 120.092 136.776 119.181 137.181L119.195 137.212C120.1 136.81 121.105 136.71 122.113 136.71V136.675ZM129.595 143.752C129.393 139.607 126.257 136.675 122.113 136.675V136.71C126.239 136.71 129.359 139.628 129.56 143.753L129.595 143.752ZM135.417 143.735H129.577V143.77H135.417V143.735ZM135.399 128.724V143.753H135.434V128.724H135.399ZM122.415 128.742H135.417V128.707H122.415V128.742ZM121.912 137.989C118.272 137.989 115.541 140.721 115.541 144.361H115.575C115.575 140.74 118.291 138.024 121.912 138.024V137.989ZM128.285 144.361C128.284 140.72 125.553 137.989 121.912 137.989V138.024C125.534 138.024 128.249 140.739 128.25 144.361L128.285 144.361ZM121.912 150.733C125.553 150.733 128.285 148.002 128.285 144.361H128.25C128.25 147.982 125.534 150.698 121.912 150.698V150.733ZM115.541 144.361C115.541 148.002 118.272 150.733 121.912 150.733V150.698C118.291 150.698 115.575 147.982 115.575 144.361H115.541ZM121.912 147.37C120.208 147.37 118.904 146.066 118.904 144.361H118.869C118.869 146.085 120.188 147.405 121.912 147.405V147.37ZM124.921 144.361C124.921 146.066 123.618 147.37 121.912 147.37V147.405C123.637 147.405 124.956 146.085 124.956 144.361H124.921ZM121.912 141.352C123.618 141.352 124.921 142.656 124.921 144.361H124.956C124.956 142.637 123.637 141.317 121.912 141.317V141.352ZM118.904 144.361C118.904 142.656 120.208 141.352 121.912 141.352V141.317C120.188 141.317 118.869 142.637 118.869 144.361H118.904Z" fill="black"/>
<path d="M75.5001 63.7928C75.5001 62.5501 76.5074 61.5428 77.7501 61.5428H121.083C122.326 61.5428 123.333 62.5501 123.333 63.7928V79.2793H75.5001V63.7928Z" fill="black"/>
<path d="M77.8335 89.301C82.0172 89.301 85.396 85.8657 85.396 81.6439C85.396 77.4222 82.0172 73.9868 77.8335 73.9868C73.6497 73.9868 70.271 77.4222 70.271 81.6439C70.271 85.8657 73.6497 89.301 77.8335 89.301Z" fill="black" stroke="white" stroke-width="1.125"/>
<ellipse cx="77.8335" cy="81.6428" rx="3.5" ry="3.5473" fill="white"/>
<path d="M87.1667 50.8849C87.1667 50.2406 87.689 49.7183 88.3333 49.7183C88.9777 49.7183 89.5 50.2406 89.5 50.8849V61.5426H87.1667V50.8849Z" fill="black"/>
<path d="M119.455 48.4182C119.455 48.1076 119.203 47.8557 118.892 47.8557H106.671C105.88 47.8557 105.161 48.3167 104.831 49.0358L97.9649 63.9909H119.455V48.4182Z" stroke="black" stroke-width="3.375"/>
<path d="M118.667 90.4834C124.784 90.4834 129.729 85.4599 129.729 79.279C129.729 73.0981 124.784 68.0746 118.667 68.0746C112.55 68.0746 107.604 73.0981 107.604 79.279C107.604 85.4599 112.55 90.4834 118.667 90.4834Z" fill="black" stroke="white" stroke-width="1.125"/>
<ellipse cx="118.667" cy="79.2795" rx="5.83333" ry="5.91217" fill="white"/>
</svg>
