<svg width="200" height="200" viewBox="0 0 200 200" fill="none" xmlns="http://www.w3.org/2000/svg">
<rect width="66.6667" height="166.667" transform="matrix(-1 0 0 1 133.333 16.6675)" fill="#05081B"/>
<path d="M66.6666 38.2879V50.4594L99.9996 22.8862L133.333 50.46V38.2884L107.195 16.6667H92.8042L66.6666 38.2879Z" fill="white"/>
<path d="M133.333 68.0503L99.9993 40.4763L99.9953 40.4801L66.6666 68.0498V80.2214L99.9996 52.6481L133.333 80.2219V68.0503Z" fill="white"/>
<path d="M133.333 97.8123L99.9993 70.2382L99.9953 70.242L66.6666 97.8117V109.983L99.9996 82.41L133.333 109.984V97.8123Z" fill="white"/>
<path d="M133.333 127.574L99.9993 100L99.9953 100.004L66.6666 127.574V139.745L99.9996 112.172L133.333 139.746V127.574Z" fill="white"/>
<path d="M133.333 157.336L99.9993 129.762L99.9953 129.766L66.6666 157.336V169.507L99.9996 141.934L133.333 169.508V157.336Z" fill="white"/>
<path d="M128.782 183.333L99.9993 159.524L99.9953 159.528L71.2169 183.333H85.9309L99.9996 171.696L114.068 183.333H128.782Z" fill="white"/>
<rect x="-0.520833" y="0.520833" width="65.625" height="165.625" transform="matrix(-1 0 0 1 132.292 16.6675)" stroke="#05081B" stroke-width="1.04167"/>
</svg>
