<svg width="200" height="201" viewBox="0 0 200 201" fill="none" xmlns="http://www.w3.org/2000/svg">
<rect x="1.56254" y="147.02" width="92.7084" height="196.875" rx="8.85417" transform="rotate(-90 1.56254 147.02)" fill="white" stroke="#13141A" stroke-width="1.04167"/>
<rect x="6.77083" y="141.811" width="82.2917" height="186.458" rx="3.64583" transform="rotate(-90 6.77083 141.811)" stroke="black" stroke-width="1.04167"/>
<path d="M16.6666 125.804H183.113V131.917H16.6666V125.804Z" fill="#1F1A17"/>
<path fill-rule="evenodd" clip-rule="evenodd" d="M100.28 116.301C100.28 112.039 96.9043 108.663 92.6422 108.663C88.3807 108.663 85.0052 112.039 85.0052 116.301C85.0052 120.562 88.3807 123.938 92.6422 123.938C96.9043 123.938 100.28 120.562 100.28 116.301ZM97.0145 116.301C97.0145 118.735 95.0774 120.673 92.6422 120.673C90.2071 120.673 88.2703 118.735 88.2703 116.301C88.2703 113.865 90.2071 111.928 92.6422 111.928C95.0774 111.928 97.0145 113.865 97.0145 116.301Z" fill="#1F1A17"/>
<path fill-rule="evenodd" clip-rule="evenodd" d="M27.5027 100.69L39.291 86.9099C39.3437 86.8573 39.405 86.7947 39.4736 86.7244C40.1267 86.0558 41.4551 84.696 42.5565 84.696H69.731C71.8892 84.696 73.3838 85.9142 74.1034 86.9099L81.5754 97.2597C82.2392 98.1443 83.6231 98.7536 84.7293 98.8647L104.653 102.13C105.429 102.24 107.089 103.403 106.812 105.395L105.761 111.925C105.595 113.143 104.156 114.139 103.547 114.139H101.057C100.116 110.32 96.6844 107.553 92.5889 107.553C87.7182 107.553 83.9551 111.427 83.9551 116.298H51.1908C51.1908 111.427 47.3162 107.553 42.4461 107.553C38.2946 107.553 34.9185 110.321 34.0338 114.139H31.6535C30.8237 114.139 29.5504 112.423 29.44 111.925L27.226 104.897C26.7276 103.845 26.8384 101.354 27.5027 100.69ZM45.4345 99.9711H74.1591C76.4835 99.9711 76.926 97.1484 75.9298 95.5987L72.7203 90.7284C71.7239 89.1794 70.1186 87.9621 68.2924 87.9621H46.4309C46.2504 87.9621 46.0835 87.9589 45.9279 87.9558C44.5094 87.9282 44.0413 87.9191 42.9445 90.5629L41.4503 94.2156C40.2877 96.9273 41.0621 99.9711 45.4345 99.9711Z" fill="#1F1A17"/>
<path fill-rule="evenodd" clip-rule="evenodd" d="M50.1358 116.301C50.1358 112.039 46.7605 108.663 42.498 108.663C38.2367 108.663 34.8606 112.039 34.8606 116.301C34.8606 120.562 38.2367 123.938 42.498 123.938C46.7605 123.938 50.1358 120.562 50.1358 116.301ZM46.8703 116.301C46.8703 118.735 44.9339 120.673 42.498 120.673C40.0638 120.673 38.1256 118.735 38.1256 116.301C38.1256 113.865 40.0638 111.928 42.498 111.928C44.9339 111.928 46.8703 113.865 46.8703 116.301Z" fill="#1F1A17"/>
<path fill-rule="evenodd" clip-rule="evenodd" d="M152.579 88.522C154.172 88.522 155.522 89.6919 155.75 91.2682C155.971 92.805 155.058 94.2794 153.584 94.7665L151.789 95.3594L156.213 103.032C157.598 102.411 159.136 102.066 160.755 102.066C166.849 102.066 171.789 106.962 171.789 113.002C171.789 119.042 166.849 123.939 160.755 123.939C154.661 123.939 149.721 119.042 149.721 113.002C149.721 109.307 151.57 106.04 154.401 104.06L153.239 102.046L140.193 113.757C140.116 113.829 140.027 113.891 139.927 113.939C139.764 114.017 139.59 114.049 139.42 114.039H133.387C132.86 119.593 128.143 123.938 122.402 123.938C116.309 123.938 111.369 119.042 111.369 113.002C111.369 106.962 116.309 102.065 122.402 102.065C124.292 102.065 126.071 102.536 127.626 103.366L131.343 97.8394V94.7713L128.183 94.7713C127.608 94.7713 127.142 94.3049 127.142 93.7296C127.142 93.1542 127.608 92.6878 128.183 92.6878L137.115 92.6878C137.691 92.6878 138.157 93.1542 138.157 93.7296C138.157 94.3049 137.691 94.7713 137.115 94.7713L133.427 94.7713V97.1131H150.396L149.346 95.2919C149.189 95.0205 149.163 94.6931 149.275 94.4003C149.386 94.1076 149.624 93.8807 149.921 93.7824L152.93 92.7882C153.446 92.6179 153.765 92.1026 153.687 91.5654C153.608 91.0144 153.136 90.6054 152.579 90.6054H147.358C146.783 90.6054 146.317 90.139 146.317 89.5637C146.317 88.9884 146.783 88.522 147.358 88.522H152.579ZM129.364 104.516L132.232 100.252L137.825 111.956H133.386C133.099 108.959 131.593 106.315 129.364 104.516ZM131.291 111.956C131.019 109.682 129.876 107.666 128.195 106.253L124.36 111.956H131.291ZM131.292 114.039H122.404C122.019 114.039 121.665 113.827 121.484 113.487C121.303 113.147 121.325 112.735 121.54 112.416L126.456 105.106C125.24 104.494 123.864 104.149 122.402 104.149C117.442 104.149 113.452 108.13 113.452 113.002C113.452 117.874 117.442 121.855 122.402 121.855C127.006 121.855 130.773 118.427 131.292 114.039ZM160.755 104.149C159.513 104.149 158.333 104.398 157.26 104.849L161.659 112.479C161.946 112.977 161.775 113.614 161.277 113.902C160.778 114.189 160.141 114.018 159.854 113.519L155.446 105.874C153.234 107.489 151.805 110.086 151.805 113.002C151.805 117.874 155.795 121.855 160.755 121.855C165.716 121.855 169.705 117.874 169.705 113.002C169.705 108.13 165.716 104.149 160.755 104.149ZM151.597 99.1966L152.175 100.201L139.818 111.294L134.037 99.1966H151.597Z" fill="black"/>
<path d="M105.496 77.7493H107.647V96.2579H105.496V77.7493Z" fill="#1F1A17"/>
<path d="M91.3329 82.2121L89.5834 83.5258L99.8503 98.5769L101.6 97.2632L91.3329 82.2121Z" fill="#1F1A17"/>
<path d="M112.65 98.5827L110.9 97.269L121.167 82.2177L122.917 83.5314L112.65 98.5827Z" fill="#1F1A17"/>
</svg>
