<svg width="200" height="201" viewBox="0 0 200 201" fill="none" xmlns="http://www.w3.org/2000/svg">
<rect x="1.56254" y="146.688" width="92.7084" height="196.875" rx="8.85417" transform="rotate(-90 1.56254 146.688)" fill="white" stroke="#13141A" stroke-width="1.04167"/>
<rect x="6.77083" y="141.478" width="82.2917" height="186.458" rx="3.64583" transform="rotate(-90 6.77083 141.478)" stroke="black" stroke-width="1.04167"/>
<path fill-rule="evenodd" clip-rule="evenodd" d="M85.3577 64.9166C83.1173 64.9166 81.2172 66.5683 80.8976 68.7936C80.586 70.9632 81.8699 73.0447 83.944 73.7324L86.4688 74.5695L80.2458 85.4018C78.297 84.5251 76.1336 84.037 73.8557 84.037C65.283 84.037 58.3334 90.9496 58.3334 99.4768C58.3334 108.004 65.283 114.917 73.8557 114.917C82.4285 114.917 89.378 108.004 89.378 99.4768C89.378 94.2604 86.7773 89.6482 82.7953 86.8531L84.4293 84.0087L102.783 100.543C102.891 100.644 103.016 100.731 103.157 100.799C103.387 100.909 103.632 100.954 103.87 100.941H112.358C113.099 108.781 119.735 114.916 127.811 114.916C136.384 114.916 143.333 108.004 143.333 99.4765C143.333 90.9494 136.384 84.0367 127.811 84.0367C125.152 84.0367 122.65 84.7016 120.462 85.8733L115.233 78.0706V73.7392L119.678 73.7392C120.488 73.7392 121.144 73.0807 121.144 72.2685C121.144 71.4563 120.488 70.7979 119.678 70.7979L107.113 70.7979C106.303 70.7979 105.647 71.4563 105.647 72.2685C105.647 73.0807 106.303 73.7392 107.113 73.7392L112.302 73.7392V77.0453H88.4297L89.9068 74.4741C90.1269 74.091 90.1635 73.6287 90.0064 73.2155C89.8494 72.8023 89.5154 72.4819 89.0969 72.3432L84.8636 70.9396C84.1385 70.6992 83.6897 69.9716 83.7987 69.2132C83.9104 68.4353 84.5746 67.858 85.3577 67.858H92.7025C93.5119 67.858 94.168 67.1995 94.168 66.3873C94.168 65.5751 93.5119 64.9166 92.7025 64.9166H85.3577ZM118.018 87.4967L113.983 81.476L106.114 97.9994H112.359C112.763 93.769 114.882 90.036 118.018 87.4967ZM115.307 97.9994C115.688 94.7894 117.297 91.9439 119.661 89.9486L125.057 97.9994H115.307ZM115.305 100.941H127.809C128.351 100.941 128.848 100.641 129.102 100.161C129.357 99.6816 129.327 99.1002 129.025 98.6493L122.108 88.3295C123.818 87.4657 125.755 86.9781 127.811 86.9781C134.789 86.9781 140.402 92.5983 140.402 99.4765C140.402 106.355 134.789 111.975 127.811 111.975C121.335 111.975 116.035 107.135 115.305 100.941ZM73.8557 86.9783C75.6024 86.9783 77.2636 87.3304 78.7726 87.9662L72.5843 98.7381C72.1801 99.4418 72.4208 100.341 73.122 100.747C73.8232 101.152 74.7194 100.911 75.1236 100.207L81.3246 89.413C84.4359 91.6931 86.447 95.3596 86.447 99.4768C86.447 106.355 80.8342 111.975 73.8557 111.975C66.8773 111.975 61.2644 106.355 61.2644 99.4768C61.2644 92.5985 66.8773 86.9783 73.8557 86.9783ZM86.7399 79.9866L85.9257 81.404L103.31 97.065L111.443 79.9866H86.7399Z" fill="black"/>
<path d="M49.542 127.882L54.1971 123.249L58.6832 123.249L54.028 127.882L156.25 127.882L156.25 131.007L53.9176 131.007L58.6832 135.749L54.1971 135.749L47.9166 129.499L49.4868 127.937L49.4868 127.882L49.542 127.882Z" fill="black"/>
</svg>
