<svg width="200" height="201" viewBox="0 0 200 201" fill="none" xmlns="http://www.w3.org/2000/svg">
<rect x="36.9786" y="12.6584" width="126.04" height="176.039" rx="8.85404" fill="white" stroke="#13141A" stroke-width="1.04165"/>
<rect x="41.6661" y="17.3457" width="116.665" height="166.664" rx="4.16661" fill="#1071AF"/>
<rect x="49.9993" y="34.0127" width="99.9985" height="99.9985" rx="4.16661" fill="white"/>
<path fill-rule="evenodd" clip-rule="evenodd" d="M102.429 48.5952V51.8097L116.724 63.9851L109.359 71.4418H92.5848L85.2202 63.9851L99.5128 51.8109V48.5952H102.429ZM89.5017 64.1695L93.8036 68.5252H108.14L112.442 64.1695L100.972 54.3994L89.5017 64.1695ZM130.766 73.8703H69.2313C67.3785 73.8703 65.6358 74.7506 64.5363 76.2418L57.3874 85.9375C56.648 86.9403 56.2491 88.1534 56.2491 89.3993V103.037C56.2491 105.184 57.9902 106.925 60.138 106.925H64.0268L67.3384 100.986C67.699 100.445 68.3061 100.12 68.9563 100.12H131.041C131.691 100.12 132.298 100.445 132.659 100.986L135.97 106.925H139.859C142.007 106.925 143.748 105.184 143.748 103.037V89.3993C143.748 88.1534 143.349 86.9403 142.61 85.9375L135.461 76.2418C134.361 74.7506 132.619 73.8703 130.766 73.8703ZM139.317 87.8884L132.663 78.5734C132.298 78.0624 131.709 77.7592 131.081 77.7592H130.137C129.063 77.7592 128.193 78.6297 128.193 79.7036V87.4813C128.193 88.5551 129.063 89.4257 130.137 89.4257H138.525C139.316 89.4257 139.776 88.5318 139.317 87.8884ZM68.9163 77.7592C68.2883 77.7592 67.699 78.0624 67.334 78.5734L60.6805 87.8884C60.2209 88.5318 60.6808 89.4257 61.4716 89.4257H69.8601C70.9339 89.4257 71.8045 88.5551 71.8045 87.4813V79.7036C71.8045 78.6297 70.9339 77.7592 69.8601 77.7592H68.9163ZM106.804 79.7036C106.804 78.6297 105.933 77.7592 104.86 77.7592H95.1375C94.0636 77.7592 93.193 78.6297 93.193 79.7036V87.4813C93.193 88.5551 94.0636 89.4257 95.1375 89.4257H104.86C105.933 89.4257 106.804 88.5551 106.804 87.4813V79.7036ZM110.693 79.7036C110.693 78.6297 111.563 77.7592 112.637 77.7592H122.359C123.433 77.7592 124.304 78.6297 124.304 79.7036V87.4813C124.304 88.5551 123.433 89.4257 122.359 89.4257H112.637C111.563 89.4257 110.693 88.5551 110.693 87.4813V79.7036ZM89.3042 79.7036C89.3042 78.6297 88.4337 77.7592 87.3598 77.7592H77.6377C76.5639 77.7592 75.6933 78.6297 75.6933 79.7036V87.4813C75.6933 88.5551 76.5638 89.4257 77.6377 89.4257H87.3598C88.4337 89.4257 89.3042 88.5551 89.3042 87.4813V79.7036ZM77.6338 107.901C77.6338 110.586 75.4575 112.762 72.7728 112.762C70.0881 112.762 67.9118 110.586 67.9118 107.901C67.9118 105.217 70.0881 103.04 72.7728 103.04C75.4575 103.04 77.6338 105.217 77.6338 107.901ZM120.416 107.901C120.416 110.586 118.24 112.762 115.555 112.762C112.87 112.762 110.694 110.586 110.694 107.901C110.694 105.217 112.87 103.04 115.555 103.04C118.24 103.04 120.416 105.217 120.416 107.901ZM84.4437 112.762C87.1284 112.762 89.3047 110.586 89.3047 107.901C89.3047 105.217 87.1284 103.04 84.4437 103.04C81.759 103.04 79.5827 105.217 79.5827 107.901C79.5827 110.586 81.759 112.762 84.4437 112.762ZM132.079 107.901C132.079 110.586 129.902 112.762 127.218 112.762C124.533 112.762 122.357 110.586 122.357 107.901C122.357 105.217 124.533 103.04 127.218 103.04C129.902 103.04 132.079 105.217 132.079 107.901ZM91.2453 103.04H108.746L107.377 105.778C107.024 106.484 106.303 106.929 105.514 106.929H94.4774C93.6883 106.929 92.9669 106.484 92.614 105.778L91.2453 103.04Z" fill="black"/>
</svg>
