<svg width="200" height="200" viewBox="0 0 200 200" fill="none" xmlns="http://www.w3.org/2000/svg">
<rect x="198.438" y="72.3962" width="55.2083" height="196.875" rx="8.85417" transform="rotate(90 198.438 72.3962)" fill="white" stroke="#13141A" stroke-width="1.04167"/>
<rect x="193.75" y="77.084" width="45.8333" height="187.5" rx="4.16667" transform="rotate(90 193.75 77.084)" fill="#1071AF"/>
<path fill-rule="evenodd" clip-rule="evenodd" d="M136.39 88.1024C136.112 88.7984 135.973 89.6592 135.973 90.6848C135.973 92.2874 136.373 93.5466 137.174 94.4623C137.975 95.3735 139.054 95.8291 140.41 95.8291C141.751 95.8291 142.821 95.3712 143.622 94.4555C144.423 93.5351 144.823 92.2622 144.823 90.6368C144.823 88.9976 144.419 87.7178 143.609 86.7975C142.804 85.8772 141.73 85.417 140.385 85.417C139.643 85.417 138.987 85.5498 138.419 85.8153C137.991 86.0122 137.597 86.3144 137.236 86.7219C136.879 87.1294 136.597 87.5896 136.39 88.1024ZM138.587 93.2123C138.11 92.6217 137.871 91.7563 137.871 90.6162C137.871 89.4577 138.103 88.5924 138.568 88.02C139.033 87.4431 139.645 87.1546 140.404 87.1546C141.163 87.1546 141.771 87.4385 142.228 88.0063C142.688 88.574 142.919 89.4348 142.919 90.5887C142.919 91.7563 142.682 92.6331 142.209 93.2192C141.74 93.8007 141.139 94.0914 140.404 94.0914C139.67 94.0914 139.064 93.7984 138.587 93.2123Z" fill="white"/>
<path d="M78.0903 85.5887H70.8333V95.6574H72.6755V87.2783H76.2481V95.6574H78.0903V85.5887Z" fill="white"/>
<path d="M87.0154 85.5887H80.6235V91.3373L80.6297 93.0681C80.6297 93.5168 80.5633 93.7984 80.4305 93.9129C80.2977 94.0273 80.0384 94.0846 79.6525 94.0846L79.2418 94.0777V95.6505C79.8102 95.6963 80.2023 95.7192 80.4181 95.7192C81.0322 95.7192 81.4824 95.5841 81.7687 95.314C82.0591 95.0392 82.2417 94.6592 82.3164 94.1739C82.391 93.6839 82.4284 92.8231 82.4284 91.5914V87.292H85.1731V95.6574H87.0154V85.5887Z" fill="white"/>
<path fill-rule="evenodd" clip-rule="evenodd" d="M97.1479 95.6574H95.1438L94.3472 93.3703H90.7L89.9469 95.6574H87.9926L91.5464 85.5887H93.4945L97.1479 95.6574ZM93.7559 91.6739L92.4987 87.9376L91.2663 91.6739H93.7559Z" fill="white"/>
<path d="M99.5504 87.292V95.6574H101.393V87.292H104.094V85.5887H96.843V87.292H99.5504Z" fill="white"/>
<path d="M105.295 95.6574V85.5887H107.137V89.5516H110.747V85.5887H112.589V95.6574H110.747V91.2549H107.137V95.6574H105.295Z" fill="white"/>
<path fill-rule="evenodd" clip-rule="evenodd" d="M120.724 95.6574H122.728L119.075 85.5887H117.127L113.573 95.6574H115.527L116.28 93.3703H119.927L120.724 95.6574ZM118.079 87.9376L119.336 91.6739H116.847L118.079 87.9376Z" fill="white"/>
<path fill-rule="evenodd" clip-rule="evenodd" d="M127.994 85.5887H134.298V93.9678H135.101V97.8552H133.57V95.6574H127.826V97.8552H126.294V93.9678H127.066C127.444 93.107 127.693 92.1088 127.813 90.9733C127.933 89.8332 127.994 88.3932 127.994 86.6533V85.5887ZM129.749 87.2783C129.749 90.3369 129.498 92.5667 128.996 93.9678H132.462V87.2783H129.749Z" fill="white"/>
<path fill-rule="evenodd" clip-rule="evenodd" d="M146.267 95.6574V85.5887H149.223C150.344 85.5887 151.074 85.6391 151.414 85.7398C151.937 85.8909 152.375 86.2206 152.727 86.7288C153.08 87.2325 153.256 87.8849 153.256 88.6862C153.256 89.3044 153.155 89.824 152.951 90.2453C152.748 90.6665 152.489 90.9985 152.174 91.2412C151.862 91.4793 151.545 91.6372 151.221 91.7151C150.781 91.8112 150.145 91.8593 149.311 91.8593H148.109V95.6574H146.267ZM148.109 87.292V90.1491H149.118C149.844 90.1491 150.329 90.0965 150.574 89.9912C150.819 89.8859 151.01 89.721 151.147 89.4967C151.288 89.2723 151.358 89.0113 151.358 88.7137C151.358 88.3474 151.261 88.0452 151.066 87.8071C150.871 87.569 150.624 87.4202 150.325 87.3607C150.105 87.3149 149.663 87.292 148.999 87.292H148.109Z" fill="white"/>
<path fill-rule="evenodd" clip-rule="evenodd" d="M154.638 88.1024C154.36 88.7984 154.221 89.6592 154.221 90.6848C154.221 92.2874 154.622 93.5466 155.422 94.4623C156.223 95.3735 157.302 95.8291 158.659 95.8291C159.999 95.8291 161.07 95.3712 161.87 94.4555C162.671 93.5351 163.072 92.2622 163.072 90.6368C163.072 88.9976 162.667 87.7178 161.858 86.7975C161.053 85.8772 159.978 85.417 158.634 85.417C157.891 85.417 157.236 85.5498 156.667 85.8153C156.24 86.0122 155.846 86.3144 155.485 86.7219C155.128 87.1294 154.846 87.5896 154.638 88.1024ZM156.835 93.2123C156.358 92.6217 156.119 91.7563 156.119 90.6162C156.119 89.4577 156.352 88.5924 156.817 88.02C157.281 87.4431 157.893 87.1546 158.653 87.1546C159.412 87.1546 160.02 87.4385 160.476 88.0063C160.937 88.574 161.167 89.4348 161.167 90.5887C161.167 91.7563 160.931 92.6331 160.458 93.2192C159.989 93.8007 159.387 94.0914 158.653 94.0914C157.918 94.0914 157.312 93.7984 156.835 93.2123Z" fill="white"/>
<path d="M164.609 85.5887H170.789V87.2783H166.451V95.6574H164.609V85.5887Z" fill="white"/>
<path fill-rule="evenodd" clip-rule="evenodd" d="M177.162 95.6574H179.167L175.513 85.5887H173.565L170.011 95.6574H171.966L172.719 93.3703H176.366L177.162 95.6574ZM174.517 87.9376L175.775 91.6739H173.285L174.517 87.9376Z" fill="white"/>
<path fill-rule="evenodd" clip-rule="evenodd" d="M96.7455 106.857C96.4675 107.553 96.3285 108.414 96.3285 109.439C96.3285 111.042 96.7289 112.301 97.5297 113.217C98.3305 114.128 99.4093 114.584 100.766 114.584C102.106 114.584 103.177 114.126 103.978 113.21C104.778 112.29 105.179 111.017 105.179 109.391C105.179 107.752 104.774 106.472 103.965 105.552C103.16 104.632 102.086 104.172 100.741 104.172C99.9985 104.172 99.3429 104.304 98.7744 104.57C98.3471 104.767 97.9529 105.069 97.5919 105.477C97.2351 105.884 96.9529 106.344 96.7455 106.857ZM98.9425 111.967C98.4653 111.376 98.2267 110.511 98.2267 109.371C98.2267 108.212 98.4591 107.347 98.9238 106.775C99.3885 106.198 100.001 105.909 100.76 105.909C101.519 105.909 102.127 106.193 102.583 106.761C103.044 107.329 103.274 108.189 103.274 109.343C103.274 110.511 103.038 111.388 102.565 111.974C102.096 112.555 101.494 112.846 100.76 112.846C100.025 112.846 99.4197 112.553 98.9425 111.967Z" fill="white"/>
<path d="M91.2 106.047V114.412H93.0422V106.047H95.7434V104.343H88.4926V106.047H91.2Z" fill="white"/>
<path d="M106.673 114.412V104.426H108.515V112.716H113.096V114.412H106.673Z" fill="white"/>
<path d="M114.465 104.426V114.412H120.888V112.716H116.307V104.426H114.465Z" fill="white"/>
<path fill-rule="evenodd" clip-rule="evenodd" d="M125.525 114.412V104.343H129.402C130.377 104.343 131.085 104.435 131.525 104.618C131.969 104.797 132.323 105.117 132.589 105.58C132.854 106.042 132.987 106.571 132.987 107.166C132.987 107.922 132.786 108.547 132.384 109.041C131.981 109.531 131.379 109.84 130.579 109.968C130.977 110.225 131.305 110.506 131.562 110.813C131.823 111.12 132.174 111.665 132.614 112.448L133.728 114.412H131.525L130.193 112.221C129.72 111.438 129.396 110.946 129.222 110.744C129.048 110.538 128.863 110.399 128.668 110.325C128.473 110.248 128.164 110.209 127.741 110.209H127.367V114.412H125.525ZM127.367 108.602H128.73C129.614 108.602 130.166 108.56 130.386 108.478C130.606 108.395 130.778 108.254 130.902 108.052C131.027 107.851 131.089 107.599 131.089 107.297C131.089 106.958 131.006 106.685 130.84 106.479C130.678 106.269 130.448 106.136 130.149 106.081C130 106.058 129.552 106.047 128.805 106.047H127.367V108.602Z" fill="white"/>
<path fill-rule="evenodd" clip-rule="evenodd" d="M134.774 106.857C134.496 107.553 134.357 108.414 134.357 109.439C134.357 111.042 134.757 112.301 135.558 113.217C136.359 114.128 137.437 114.584 138.794 114.584C140.134 114.584 141.205 114.126 142.006 113.21C142.807 112.29 143.207 111.017 143.207 109.391C143.207 107.752 142.802 106.472 141.993 105.552C141.188 104.632 140.114 104.172 138.769 104.172C138.027 104.172 137.371 104.304 136.803 104.57C136.375 104.767 135.981 105.069 135.62 105.477C135.263 105.884 134.981 106.344 134.774 106.857ZM136.971 111.967C136.493 111.376 136.255 110.511 136.255 109.371C136.255 108.212 136.487 107.347 136.952 106.775C137.417 106.198 138.029 105.909 138.788 105.909C139.547 105.909 140.155 106.193 140.612 106.761C141.072 107.329 141.302 108.189 141.302 109.343C141.302 110.511 141.066 111.388 140.593 111.974C140.124 112.555 139.522 112.846 138.788 112.846C138.054 112.846 137.448 112.553 136.971 111.967Z" fill="white"/>
<path fill-rule="evenodd" clip-rule="evenodd" d="M152.879 114.412H150.875L150.078 112.125H146.431L145.678 114.412H143.724L147.277 104.343H149.225L152.879 114.412ZM149.487 110.428L148.23 106.692L146.997 110.428H149.487Z" fill="white"/>
<path fill-rule="evenodd" clip-rule="evenodd" d="M157.223 104.343H153.856V114.412H157.323C158.003 114.412 158.547 114.341 158.953 114.199C159.497 114.007 159.928 113.739 160.248 113.395C160.671 112.942 160.997 112.349 161.225 111.617C161.412 111.017 161.505 110.303 161.505 109.474C161.505 108.531 161.406 107.738 161.206 107.097C161.007 106.452 160.717 105.907 160.335 105.463C159.953 105.019 159.495 104.71 158.96 104.536C158.561 104.407 157.982 104.343 157.223 104.343ZM155.698 112.716V106.047H156.526C157.277 106.047 157.781 106.079 158.038 106.143C158.383 106.225 158.667 106.383 158.891 106.617C159.115 106.85 159.289 107.175 159.414 107.592C159.538 108.009 159.601 108.606 159.601 109.384C159.601 110.163 159.538 110.779 159.414 111.232C159.289 111.681 159.128 112.004 158.929 112.2C158.733 112.397 158.487 112.537 158.188 112.619C157.96 112.683 157.588 112.716 157.074 112.716H155.698Z" fill="white"/>
<rect x="18.75" y="81.25" width="37.5" height="37.5" rx="2.08333" fill="white"/>
<path d="M26.3888 83.333H48.611L54.1666 116.666H20.8333L26.3888 83.333Z" fill="black"/>
<path d="M36.6862 83.333H38.3219L38.4427 89.6461H36.5641L36.6862 83.333Z" fill="white"/>
<path d="M36.5151 92.175H38.4911L38.6806 102.079H36.3235L36.5151 92.175Z" fill="white"/>
<path d="M36.2551 105.616L36.0413 116.666H38.9597L38.7483 105.616H36.2551Z" fill="white"/>
<circle cx="29.1453" cy="110.017" r="4.9469" fill="white"/>
<circle cx="45.462" cy="105.619" r="4.9469" fill="white"/>
<path d="M27.4679 111.153L28.4212 111.055C28.4485 111.27 28.529 111.442 28.663 111.569C28.7969 111.694 28.9512 111.756 29.126 111.756C29.3257 111.756 29.4948 111.675 29.6333 111.514C29.7718 111.351 29.841 111.106 29.841 110.779C29.841 110.472 29.7718 110.243 29.6333 110.091C29.4971 109.937 29.3189 109.86 29.0988 109.86C28.8241 109.86 28.5778 109.981 28.3599 110.224L27.5837 110.111L28.0739 107.514H30.6037V108.409H28.7991L28.6493 109.257C28.8627 109.15 29.0806 109.097 29.303 109.097C29.7275 109.097 30.0873 109.251 30.3823 109.56C30.6774 109.869 30.825 110.269 30.825 110.762C30.825 111.173 30.7058 111.539 30.4675 111.862C30.1429 112.302 29.6923 112.522 29.1158 112.522C28.655 112.522 28.2794 112.398 27.9888 112.151C27.6983 111.904 27.5246 111.571 27.4679 111.153Z" fill="black"/>
<path d="M44.433 108.082H43.4763V104.476C43.1267 104.803 42.7147 105.045 42.2404 105.202V104.333C42.49 104.252 42.7613 104.097 43.0541 103.87C43.3469 103.641 43.5478 103.374 43.6567 103.07H44.433V108.082Z" fill="black"/>
<path d="M47.0653 103.07C47.5487 103.07 47.9267 103.243 48.1991 103.588C48.5236 103.996 48.6859 104.674 48.6859 105.62C48.6859 106.565 48.5225 107.243 48.1956 107.656C47.9255 107.997 47.5487 108.167 47.0653 108.167C46.5795 108.167 46.188 107.981 45.8906 107.609C45.5933 107.234 45.4446 106.568 45.4446 105.61C45.4446 104.671 45.608 103.994 45.9349 103.581C46.205 103.241 46.5818 103.07 47.0653 103.07ZM47.0653 103.864C46.9495 103.864 46.8462 103.901 46.7554 103.976C46.6646 104.049 46.5943 104.18 46.5443 104.371C46.4785 104.618 46.4456 105.035 46.4456 105.62C46.4456 106.206 46.4751 106.609 46.5341 106.829C46.5932 107.047 46.6669 107.192 46.7554 107.265C46.8462 107.338 46.9495 107.374 47.0653 107.374C47.181 107.374 47.2843 107.338 47.3751 107.265C47.4659 107.19 47.5363 107.057 47.5862 106.867C47.652 106.621 47.6849 106.206 47.6849 105.62C47.6849 105.035 47.6554 104.633 47.5964 104.415C47.5374 104.195 47.4625 104.049 47.3717 103.976C47.2832 103.901 47.181 103.864 47.0653 103.864Z" fill="black"/>
<path fill-rule="evenodd" clip-rule="evenodd" d="M193.544 80.3257L19.3056 122.917H10.3136C8.32998 122.917 6.67012 121.531 6.24976 119.675L180.485 77.084L189.48 77.084C191.464 77.084 193.123 78.4697 193.544 80.3257Z" fill="#FF0E00"/>
</svg>
