<svg width="200" height="201" viewBox="0 0 200 201" fill="none" xmlns="http://www.w3.org/2000/svg">
<path d="M25.6863 169.937H174.314C181.678 169.937 186.263 161.964 182.525 155.635L108.211 29.8226C104.527 23.586 95.4727 23.586 91.7889 29.8226L17.4753 155.635C13.7367 161.964 18.3214 169.937 25.6863 169.937Z" fill="#FF0E00" stroke="black" stroke-width="1.04167"/>
<path d="M174.314 167.333H25.6863C20.3188 167.333 17.0139 161.537 19.7175 156.959L94.0312 31.147C96.707 26.6168 103.293 26.6168 105.969 31.147L180.282 156.959C182.986 161.537 179.681 167.333 174.314 167.333Z" fill="#FF0E00" stroke="white" stroke-width="4.16667"/>
<path fill-rule="evenodd" clip-rule="evenodd" d="M164.062 154.835L99.9999 46.0977L35.9374 154.835H164.062Z" fill="white"/>
<path fill-rule="evenodd" clip-rule="evenodd" d="M89.5835 151.707L89.5832 114.207H63.7546L41.6674 151.707H89.5835Z" fill="#05081B"/>
<path d="M119.086 113.751C116.376 113.751 114.102 115.957 114.102 118.667C114.102 121.376 116.374 123.584 119.086 123.584C121.795 123.584 124.003 121.376 124.003 118.667C124.003 115.957 121.795 113.751 119.086 113.751ZM119.086 115.943C120.595 115.943 121.743 117.16 121.743 118.667C121.743 120.173 120.593 121.39 119.086 121.39C117.579 121.39 116.363 120.173 116.363 118.667C116.363 117.16 117.577 115.943 119.086 115.943Z" fill="black"/>
<path d="M92.4661 90.2646C91.7456 90.3711 90.9806 90.8282 90.6494 91.111L87.5621 93.1098L80.9053 97.5896C80.2758 97.8414 79.7509 99.5594 79.8768 100.313L79.9989 104.975C79.9989 105.352 80.5876 106.604 81.0273 106.729L82.4799 107.274C83.4774 105.494 85.3967 104.246 87.564 104.246C89.7313 104.246 91.552 105.494 92.5281 107.274C93.3319 108.622 93.1595 110.012 93.0123 111.511C93.0007 111.55 93.0239 111.593 93.0123 111.632L104.633 114.961L113.409 117.322C114.073 114.864 116.38 113.024 119.037 113.024C122.198 113.024 124.728 115.614 124.728 118.773C124.728 118.939 124.741 119.094 124.728 119.257H125.696C126.136 119.383 127.141 119.04 127.391 118.348L129.024 114.111C129.653 112.854 128.803 111.941 128.235 111.69L119.095 107.15L117.159 106.121C116.593 105.744 115.59 105.05 115.464 104.547L112.499 97.2836C112.247 96.4663 111.583 95.3545 110.2 95.1047L104.631 93.592L93.1324 90.3227C92.9271 90.2607 92.7063 90.2297 92.4661 90.2646ZM93.9788 92.8076C94.4727 92.7592 94.955 92.9529 95.5515 93.1098L104.631 95.7128L108.747 96.8013C109.878 97.179 110.546 98.2133 110.986 99.2824L112.136 103.096C112.514 104.103 111.767 105.775 110.32 105.335L104.629 103.822L92.224 100.311C89.4563 99.6833 89.5783 97.4579 90.7114 96.075L92.3461 94.0181C92.9736 93.1679 93.4849 92.8541 93.9788 92.8076Z" fill="black"/>
<path d="M87.4751 104.888C84.7655 104.888 82.4917 107.094 82.4917 109.803C82.4917 112.513 84.7636 114.721 87.4751 114.721C90.1867 114.721 92.3927 112.513 92.3927 109.803C92.3927 107.094 90.1847 104.888 87.4751 104.888ZM87.4751 107.08C88.982 107.08 90.1324 108.296 90.1324 109.803C90.1324 111.312 88.982 112.527 87.4751 112.527C85.9683 112.527 84.752 111.31 84.752 109.803C84.752 108.296 85.9683 107.08 87.4751 107.08Z" fill="black"/>
<path d="M89.2938 147.808C90.1262 147.63 91.0408 147.539 92.1717 147.539C94.6888 147.539 96.61 148.369 98.5523 149.207C98.5888 149.223 98.6253 149.239 98.6618 149.255C100.786 150.182 102.858 151.04 105.716 151.04C108.441 151.04 110.489 150.149 112.526 149.262C113.503 148.837 114.477 148.412 115.523 148.088C116.696 147.803 117.87 147.539 119.261 147.539C121.983 147.539 124.072 148.42 126.154 149.299C128.221 150.171 130.282 151.04 132.948 151.04C135.677 151.04 137.754 150.153 139.817 149.272C141.852 148.402 143.873 147.539 146.492 147.539C149.228 147.539 151.283 148.436 153.342 149.336C154.867 150.002 156.394 150.668 158.202 150.972L155.732 146.718C154.912 146.438 154.132 146.105 153.348 145.771C151.33 144.911 149.288 144.04 146.49 144.04C143.869 144.04 141.848 144.903 139.813 145.772C137.751 146.653 135.675 147.539 132.945 147.539C130.28 147.539 128.219 146.67 126.151 145.799C124.069 144.921 121.98 144.04 119.259 144.04C117.866 144.04 116.692 144.304 115.52 144.589C114.473 144.913 113.497 145.338 112.518 145.764C110.483 146.65 108.436 147.541 105.714 147.541C102.856 147.541 100.786 146.685 98.6596 145.756C98.623 145.74 98.5865 145.724 98.55 145.708C96.6078 144.87 94.6866 144.04 92.1694 144.04C91.0395 144.04 90.1256 144.13 89.2938 144.307V147.808Z" fill="black"/>
<path d="M89.2938 140.767C90.1256 140.584 91.0395 140.469 92.1694 140.469C94.5599 140.469 96.4129 141.276 98.2568 142.079C98.3911 142.138 98.5252 142.196 98.6596 142.254C100.784 143.181 102.856 144.04 105.714 144.04C108.439 144.04 110.487 143.148 112.524 142.262C113.501 141.836 114.475 141.412 115.52 141.088C116.694 140.732 117.868 140.471 119.259 140.471C121.98 140.471 124.069 141.369 126.151 142.265C128.219 143.154 130.28 144.04 132.945 144.04C135.675 144.04 137.752 143.135 139.815 142.237C141.849 141.351 143.87 140.471 146.49 140.471C149.127 140.471 151.075 141.261 152.98 142.118L150.37 137.589C149.124 137.161 147.883 136.901 146.49 136.901C143.869 136.901 141.848 137.782 139.813 138.668C137.751 139.566 135.675 140.471 132.945 140.471C130.28 140.471 128.219 139.585 126.151 138.695C124.069 137.8 121.98 136.901 119.259 136.901C117.866 136.901 116.692 137.163 115.52 137.519C114.473 137.843 113.497 138.267 112.518 138.694C110.483 139.58 108.436 140.471 105.714 140.471C102.856 140.471 100.786 139.614 98.6596 138.685C98.5282 138.628 98.3969 138.571 98.2657 138.514C96.4188 137.709 94.5637 136.901 92.1694 136.901C91.0395 136.901 90.1256 137.041 89.2938 137.229V140.767Z" fill="black"/>
<path d="M89.2938 133.716C90.1256 133.494 91.0395 133.33 92.1694 133.33C94.5599 133.33 96.4129 134.137 98.2569 134.941C98.3911 134.999 98.5252 135.058 98.6596 135.116C100.784 136.043 102.856 136.901 105.714 136.901C108.436 136.901 110.483 136.01 112.518 135.124C113.497 134.698 114.473 134.273 115.52 133.949C116.694 133.591 117.868 133.332 119.259 133.332C121.98 133.332 124.069 134.231 126.151 135.126C128.219 136.015 130.28 136.901 132.945 136.901C135.675 136.901 137.752 135.997 139.815 135.098C141.849 134.212 143.87 133.332 146.49 133.332C146.805 133.332 147.041 133.372 147.26 133.409C147.45 133.441 147.627 133.47 147.831 133.47L145.786 129.969C143.434 130.072 141.584 130.848 139.723 131.628C137.697 132.477 135.658 133.332 132.945 133.332C130.28 133.332 128.219 132.463 126.151 131.592C124.069 130.714 121.98 129.833 119.259 129.833C117.866 129.833 116.692 130.097 115.52 130.382C114.473 130.706 113.497 131.131 112.518 131.557C110.483 132.443 108.436 133.334 105.714 133.334C102.856 133.334 100.786 132.478 98.6596 131.551C98.6304 131.538 98.6012 131.525 98.5721 131.513C96.6223 130.669 94.6961 129.835 92.1694 129.835C91.0395 129.835 90.1256 129.974 89.2938 130.177V133.716Z" fill="black"/>
</svg>
