<svg width="200" height="201" viewBox="0 0 200 201" fill="none" xmlns="http://www.w3.org/2000/svg">
<rect x="0.520826" y="-0.520826" width="126.04" height="176.039" rx="8.85404" transform="matrix(-1 0 0 1 163.539 13.4297)" fill="white" stroke="#13141A" stroke-width="1.04165"/>
<rect x="-1.04165" y="1.04165" width="114.582" height="164.581" rx="3.12495" transform="matrix(-1 0 0 1 156.248 17.5967)" fill="white" stroke="#13141A" stroke-width="2.0833"/>
<path d="M59.121 38.2723L54.5762 36.9832C55.5546 32.3916 58.3372 30.0957 62.9241 30.0957C65.6384 30.0957 67.6846 30.8268 69.0628 32.2889C70.4515 33.7383 71.1458 35.4441 71.1458 37.4065C71.1458 38.7532 70.8302 39.9717 70.199 41.0619C69.5677 42.1393 68.6209 43.0884 67.3585 43.9093C68.8944 44.5506 70.0464 45.4612 70.8144 46.6412C71.5824 47.8084 71.9664 49.2513 71.9664 50.97C71.9664 53.4454 71.2195 55.4462 69.7256 56.9725C68.2422 58.4988 66.0171 59.2619 63.0504 59.2619C60.6307 59.2619 58.7212 58.7746 57.322 57.7998C55.9228 56.8122 54.8708 54.9717 54.1659 52.2782L58.4424 50.5659C58.8843 52.259 59.4682 53.3556 60.1941 53.8558C60.9305 54.356 61.8353 54.6061 62.9083 54.6061C64.3812 54.6061 65.4543 54.2213 66.1276 53.4518C66.8009 52.6694 67.1375 51.778 67.1375 50.7776C67.1375 49.6232 66.7535 48.6933 65.9856 47.9879C65.2281 47.2825 64.0814 46.9298 62.5454 46.9298H61.4881V42.678H62.0246C63.4554 42.678 64.5495 42.2868 65.307 41.5044C66.0645 40.722 66.4432 39.6831 66.4432 38.3877C66.4432 37.3616 66.1328 36.4959 65.5121 35.7904C64.902 35.085 64.0235 34.7323 62.8768 34.7323C60.92 34.7323 59.6681 35.9123 59.121 38.2723Z" fill="black"/>
<path d="M74.9686 44.852C74.9686 41.979 75.321 39.5677 76.0259 37.6181C76.5519 36.1816 77.2673 34.8926 78.1721 33.7511C79.0873 32.6096 80.0868 31.7631 81.1704 31.2116C82.6117 30.4677 84.2739 30.0957 86.157 30.0957C89.5656 30.0957 92.2904 31.3847 94.3314 33.9627C96.3829 36.5407 97.4086 40.1256 97.4086 44.7173C97.4086 49.2705 96.3934 52.8361 94.3629 55.4142C92.3325 57.9793 89.6182 59.2619 86.2202 59.2619C82.78 59.2619 80.0447 57.9858 78.0143 55.4334C75.9838 52.8682 74.9686 49.3411 74.9686 44.852ZM79.7817 44.6596C79.7817 47.8532 80.3866 50.2774 81.5964 51.9319C82.8063 53.5736 84.3423 54.3945 86.2044 54.3945C88.0665 54.3945 89.5919 53.58 90.7808 51.9511C91.9801 50.3094 92.5797 47.8532 92.5797 44.5826C92.5797 41.3505 91.9959 38.9392 90.8281 37.3488C89.6708 35.7584 88.1296 34.9632 86.2044 34.9632C84.2791 34.9632 82.7274 35.7712 81.5491 37.3873C80.3708 38.9905 79.7817 41.4146 79.7817 44.6596Z" fill="black"/>
<path d="M101.358 58.781V30.5767H106.029V41.6775H115.181V30.5767H119.852V58.781H115.181V46.4488H106.029V58.781H101.358Z" fill="black"/>
<path d="M145.831 58.781H140.75L138.73 52.3744H129.483L127.573 58.781H122.618L131.629 30.5767H136.568L145.831 58.781ZM137.231 47.6224L134.043 37.1564L130.919 47.6224H137.231Z" fill="black"/>
<rect x="54.1659" y="71.7617" width="91.6653" height="91.6653" rx="4.16661" fill="#8F8F8F"/>
<path d="M77.8215 85.0674H103.99C107.403 85.0674 110.421 85.6998 113.044 86.9647C115.667 88.2296 117.864 89.8876 119.634 91.9387C121.435 93.9557 122.794 96.229 123.71 98.7588C124.659 101.289 125.133 103.835 125.133 106.399C125.133 109.1 124.659 111.749 123.71 114.347C122.794 116.911 121.435 119.202 119.634 121.219C117.832 123.202 115.62 124.808 112.997 126.039C110.374 127.235 107.371 127.834 103.99 127.834H89.0093V150.12H77.8215V85.0674ZM89.0093 117.681H101.619C103.926 117.681 105.854 117.39 107.403 116.809C108.983 116.193 110.247 115.373 111.195 114.347C112.175 113.322 112.87 112.125 113.281 110.758C113.724 109.356 113.945 107.852 113.945 106.245C113.945 104.673 113.676 103.22 113.139 101.887C112.602 100.519 111.812 99.357 110.769 98.3998C109.726 97.4084 108.43 96.6393 106.881 96.0923C105.364 95.5453 103.61 95.2718 101.619 95.2718H89.0093V117.681Z" fill="white"/>
<path d="M156.248 19.6803H157.034L44.205 183.22H43.7494V182.178H42.7077V181.721L155.222 18.6387H156.248V19.6803Z" fill="black"/>
<path d="M56.86 183.22L157.289 37.654V33.9854L54.329 183.22H56.86Z" fill="black"/>
<path d="M157.289 28.4826L50.5325 183.22H48.0015L157.289 24.814V28.4826Z" fill="black"/>
<path d="M142.567 18.6387L42.7077 163.378V167.047L145.098 18.6387H142.567Z" fill="black"/>
<path d="M42.7077 172.55L148.894 18.6387H151.425L42.7077 176.218V172.55Z" fill="black"/>
</svg>
