<svg width="200" height="201" viewBox="0 0 200 201" fill="none" xmlns="http://www.w3.org/2000/svg">
<rect x="0.520833" y="-0.520833" width="196.875" height="51.0417" rx="8.85417" transform="matrix(-1 0 0 1 198.958 109.001)" fill="white" stroke="#13141A" stroke-width="1.04167"/>
<rect width="187.5" height="41.6667" rx="4.16667" transform="matrix(-1 0 0 1 193.75 113.168)" fill="#1071AF"/>
<rect x="147.917" y="113.168" width="4.16667" height="41.6667" fill="white"/>
<path fill-rule="evenodd" clip-rule="evenodd" d="M186.806 134.001L176.45 144.418L170.278 144.418L178.252 136.397L158.334 136.397L158.334 131.605L178.252 131.605L170.278 123.585L176.45 123.585L186.806 134.001Z" fill="white"/>
<path d="M26.0145 146.083V125.743H18.75V121.601H38.2056V125.743H30.9577V146.083H26.0145Z" fill="white"/>
<path d="M38.9404 139.554V134.861H48.1588V139.554H38.9404Z" fill="white"/>
<path d="M65.7106 141.725V146.083H49.261C49.4392 144.436 49.9736 142.877 50.8642 141.407C51.7549 139.927 53.514 137.967 56.1414 135.529C58.2568 133.558 59.5538 132.222 60.0326 131.521C60.6783 130.552 61.0012 129.595 61.0012 128.649C61.0012 127.602 60.7173 126.8 60.1495 126.244C59.5928 125.676 58.819 125.392 57.8282 125.392C56.8484 125.392 56.0691 125.687 55.4901 126.277C54.9112 126.867 54.5772 127.847 54.4881 129.216L49.8121 128.749C50.0905 126.166 50.9644 124.312 52.434 123.188C53.9036 122.063 55.7406 121.501 57.9451 121.501C60.361 121.501 62.2592 122.152 63.6398 123.455C65.0203 124.757 65.7106 126.377 65.7106 128.315C65.7106 129.417 65.5102 130.469 65.1094 131.471C64.7197 132.462 64.0962 133.503 63.239 134.594C62.6712 135.317 61.6469 136.358 60.1662 137.717C58.6854 139.075 57.7447 139.977 57.3439 140.422C56.9542 140.867 56.6369 141.302 56.3919 141.725H65.7106Z" fill="white"/>
<path d="M68.9671 139.788L73.6431 139.303C73.7767 140.361 74.172 141.201 74.8288 141.825C75.4857 142.437 76.2428 142.743 77.1 142.743C78.0798 142.743 78.9092 142.348 79.5883 141.558C80.2675 140.756 80.607 139.554 80.607 137.951C80.607 136.448 80.2675 135.323 79.5883 134.577C78.9203 133.82 78.0464 133.442 76.9664 133.442C75.6193 133.442 74.4113 134.037 73.3425 135.228L69.5349 134.677L71.9397 121.935H84.3479V126.327H75.4968L74.762 130.486C75.8086 129.962 76.8774 129.701 77.9684 129.701C80.0504 129.701 81.815 130.458 83.2624 131.972C84.7097 133.486 85.4334 135.451 85.4334 137.867C85.4334 139.882 84.8489 141.68 83.6799 143.261C82.0878 145.421 79.8778 146.501 77.0499 146.501C74.7899 146.501 72.9473 145.894 71.5222 144.681C70.0971 143.467 69.2454 141.836 68.9671 139.788Z" fill="white"/>
<path d="M88.406 139.554V134.861H97.6244V139.554H88.406Z" fill="white"/>
<path d="M107.26 121.501C109.632 121.501 111.485 122.347 112.821 124.039C114.414 126.043 115.21 129.367 115.21 134.009C115.21 138.641 114.408 141.97 112.805 143.996C111.48 145.666 109.632 146.501 107.26 146.501C104.878 146.501 102.957 145.588 101.499 143.762C100.04 141.925 99.3111 138.658 99.3111 133.959C99.3111 129.35 100.113 126.032 101.716 124.006C103.041 122.336 104.889 121.501 107.26 121.501ZM107.26 125.392C106.693 125.392 106.186 125.576 105.741 125.943C105.295 126.299 104.95 126.945 104.705 127.88C104.382 129.094 104.221 131.137 104.221 134.009C104.221 136.882 104.366 138.858 104.655 139.938C104.945 141.007 105.306 141.719 105.741 142.075C106.186 142.432 106.693 142.61 107.26 142.61C107.828 142.61 108.335 142.432 108.78 142.075C109.225 141.708 109.571 141.057 109.815 140.122C110.138 138.919 110.3 136.882 110.3 134.009C110.3 131.137 110.155 129.166 109.866 128.098C109.576 127.018 109.209 126.299 108.763 125.943C108.329 125.576 107.828 125.392 107.26 125.392Z" fill="white"/>
<path d="M130.373 146.083H125.681V128.398C123.966 130.001 121.945 131.187 119.618 131.955V127.697C120.843 127.296 122.174 126.539 123.61 125.425C125.046 124.301 126.031 122.993 126.566 121.501H130.373V146.083Z" fill="white"/>
<rect x="0.520833" y="-0.520833" width="153.125" height="51.0417" rx="8.85417" transform="matrix(-1 0 0 1 178.125 42.334)" fill="white" stroke="#13141A" stroke-width="1.04167"/>
<rect width="143.75" height="41.6667" rx="4.16667" transform="matrix(-1 0 0 1 172.917 46.501)" fill="#269E48"/>
<rect x="127.083" y="46.501" width="4.16667" height="41.6667" fill="white"/>
<path fill-rule="evenodd" clip-rule="evenodd" d="M161.803 57.2691L161.846 71.9574L157.482 76.3219L157.449 65.013L143.365 79.0968L139.977 75.7086L154.062 61.6237L142.751 61.5905L147.115 57.226L161.803 57.2691Z" fill="white"/>
<path d="M43.75 79.4165V54.9342H61.903V59.0758H48.6932V64.5033H60.9845V68.6282H48.6932V75.2916H62.3706V79.4165H43.75Z" fill="white"/>
<path d="M84.2477 79.4165V74.49H74.2276V70.3817L84.8489 54.834H88.7901V70.365H91.8295V74.49H88.7901V79.4165H84.2477ZM84.2477 70.365V61.9983L78.6197 70.365H84.2477Z" fill="white"/>
<path d="M102.017 54.834C104.388 54.834 106.242 55.6801 107.578 57.3724C109.17 59.3764 109.966 62.6997 109.966 67.3423C109.966 71.9738 109.164 75.3027 107.561 77.329C106.236 78.999 104.388 79.834 102.017 79.834C99.634 79.834 97.7135 78.921 96.255 77.0952C94.7965 75.2582 94.0673 71.9905 94.0673 67.2922C94.0673 62.683 94.8689 59.3653 96.4721 57.339C97.797 55.669 99.6451 54.834 102.017 54.834ZM102.017 58.7251C101.449 58.7251 100.942 58.9088 100.497 59.2762C100.051 59.6325 99.7064 60.2782 99.4614 61.2134C99.1386 62.4269 98.9771 64.4699 98.9771 67.3423C98.9771 70.2147 99.1219 72.1909 99.4113 73.2709C99.7008 74.3397 100.063 75.0522 100.497 75.4085C100.942 75.7647 101.449 75.9429 102.017 75.9429C102.584 75.9429 103.091 75.7647 103.536 75.4085C103.982 75.0411 104.327 74.3898 104.572 73.4546C104.895 72.2522 105.056 70.2147 105.056 67.3423C105.056 64.4699 104.911 62.4993 104.622 61.4305C104.332 60.3506 103.965 59.6325 103.52 59.2762C103.085 58.9088 102.584 58.7251 102.017 58.7251Z" fill="white"/>
</svg>
