<svg width="200" height="201" viewBox="0 0 200 201" fill="none" xmlns="http://www.w3.org/2000/svg">
<rect x="1.56254" y="147.02" width="92.7084" height="196.875" rx="8.85417" transform="rotate(-90 1.56254 147.02)" fill="white" stroke="#13141A" stroke-width="1.04167"/>
<rect x="6.77083" y="141.812" width="82.2917" height="186.458" rx="3.64583" transform="rotate(-90 6.77083 141.812)" stroke="black" stroke-width="1.04167"/>
<path d="M49.6765 131.916V79.9885H31.25V69.4155H80.5992V79.9885H62.215V131.916H49.6765Z" fill="black"/>
<path d="M88.3511 131.916V69.4155H100.89V131.916H88.3511Z" fill="black"/>
<path d="M112.92 131.916V69.4155H139.31C145.946 69.4155 150.761 69.984 153.755 71.1208C156.776 72.2293 159.191 74.2188 160.998 77.0895C162.806 79.9601 163.709 83.2428 163.709 86.9377C163.709 91.6273 162.34 95.5069 159.6 98.5765C156.861 101.618 152.766 103.536 147.316 104.332C150.027 105.924 152.258 107.672 154.009 109.576C155.788 111.48 158.174 114.862 161.168 119.722L168.75 131.916H153.755L144.69 118.316C141.47 113.455 139.268 110.4 138.081 109.149C136.895 107.871 135.639 107.004 134.311 106.549C132.984 106.066 130.88 105.824 128 105.824H125.458V131.916H112.92ZM125.458 95.848H134.735C140.75 95.848 144.506 95.5922 146.003 95.0806C147.499 94.569 148.671 93.6879 149.519 92.4374C150.366 91.1868 150.789 89.6236 150.789 87.7477C150.789 85.6445 150.225 83.9534 149.095 82.6744C147.994 81.367 146.426 80.5427 144.393 80.2017C143.376 80.0596 140.327 79.9885 135.243 79.9885H125.458V95.848Z" fill="black"/>
</svg>
