<svg width="200" height="200" viewBox="0 0 200 200" fill="none" xmlns="http://www.w3.org/2000/svg">
<rect y="16.6663" width="200" height="166.667" fill="#68696C"/>
<path fill-rule="evenodd" clip-rule="evenodd" d="M89.7253 86.8867C88.9049 90.5073 88.4947 94.9855 88.4947 100.321C88.4947 108.658 89.6764 115.209 92.0396 119.973C94.4029 124.713 97.5866 127.083 101.591 127.083C105.546 127.083 108.705 124.701 111.068 119.937C113.432 115.149 114.613 108.527 114.613 100.071C114.613 91.5435 113.419 84.8858 111.032 80.098C108.656 75.3102 105.485 72.9163 101.517 72.9163C99.3254 72.9163 97.3907 73.607 95.7131 74.9886C94.4519 76.0129 93.2886 77.585 92.2233 79.705C91.1702 81.8249 90.3376 84.2188 89.7253 86.8867ZM96.209 113.47C94.8009 110.397 94.0968 105.895 94.0968 99.9639C94.0968 93.9374 94.7825 89.4354 96.1539 86.4579C97.5254 83.4566 99.3315 81.9559 101.572 81.9559C103.813 81.9559 105.607 83.4328 106.954 86.3865C108.313 89.3401 108.993 93.8183 108.993 99.8209C108.993 105.895 108.295 110.457 106.899 113.506C105.515 116.531 103.74 118.043 101.572 118.043C99.405 118.043 97.6172 116.519 96.209 113.47Z" fill="white"/>
<path d="M65.8239 73.8084H71.2607V92.8666L79.6546 73.8062H85.47L76.2049 94.8467L87.0332 126.182H81.2178L73.0413 102.029L71.2607 106.075V126.189H65.8239V73.8084Z" fill="white"/>
<path d="M27.0834 73.8084H32.5201V117.399H40.3079V73.8084H45.7263V117.399H53.7712V73.8084H59.1896L59.2264 126.224L27.0834 126.189V73.8084Z" fill="white"/>
<path d="M143.478 126.19H137.564L129.758 86.0292L122.227 126.19H116.46L126.948 73.8095H132.697L143.478 126.19Z" fill="white"/>
<path fill-rule="evenodd" clip-rule="evenodd" d="M167.002 126.19H172.917L162.135 73.8095H156.386L145.898 126.19H151.666L153.888 114.292H164.651L167.002 126.19ZM159.196 86.0292L162.906 105.466H155.559L159.196 86.0292Z" fill="white"/>
</svg>
