<svg width="200" height="201" viewBox="0 0 200 201" fill="none" xmlns="http://www.w3.org/2000/svg">
<rect x="1.56254" y="147.02" width="92.7084" height="196.875" rx="8.85417" transform="rotate(-90 1.56254 147.02)" fill="white" stroke="#13141A" stroke-width="1.04167"/>
<rect x="6.77083" y="141.811" width="82.2917" height="186.458" rx="3.64583" transform="rotate(-90 6.77083 141.811)" stroke="black" stroke-width="1.04167"/>
<path d="M16.6666 125.804H183.113V131.917H16.6666V125.804Z" fill="#1F1A17"/>
<path fill-rule="evenodd" clip-rule="evenodd" d="M117.895 113.57L108.351 123.062C107.301 124.107 105.705 124.383 104.358 123.752L78.1371 111.483C76.7896 110.853 75.9785 109.451 76.1076 107.975L77.2805 94.5655L76.7523 94.3183C74.9825 93.4902 74.2157 91.3915 75.0396 89.6307L80.261 78.4718C81.0551 76.7748 83.0368 76.011 84.7637 76.6992L126.804 96.3705C128.439 97.2554 129.123 99.2663 128.328 100.963L123.107 112.122C122.283 113.883 120.181 114.639 118.411 113.811L117.895 113.57ZM113.633 111.575L105.661 119.504L80.563 107.76L81.5427 96.5598L113.633 111.575Z" fill="black"/>
<path d="M125.67 93.9714L128.343 88.2586C129.167 86.4978 128.4 84.3991 126.63 83.571L125.887 83.2234C124.118 82.3953 122.015 83.1514 121.191 84.9122L118.518 90.6249L125.67 93.9714Z" fill="black"/>
<path d="M94.4843 79.3792L97.1574 73.6665C97.9813 71.9057 97.2145 69.8069 95.4447 68.9788L94.7019 68.6312C92.9321 67.8031 90.8295 68.5592 90.0055 70.32L87.3325 76.0328L94.4843 79.3792Z" fill="black"/>
</svg>
