<svg width="200" height="200" viewBox="0 0 200 200" fill="none" xmlns="http://www.w3.org/2000/svg">
<rect x="30.7292" y="30.7292" width="138.542" height="138.542" rx="8.85417" fill="white" stroke="#13141A" stroke-width="1.04167"/>
<rect x="35.4166" y="35.417" width="129.167" height="129.167" rx="4.16667" fill="#1071AF"/>
<path fill-rule="evenodd" clip-rule="evenodd" d="M122.396 104.167H134.896L114.062 70.834L93.2291 104.167H105.729L105.729 164.584H122.396L122.396 104.167Z" fill="white"/>
<mask id="path-4-outside-1_0_4070" maskUnits="userSpaceOnUse" x="62.6666" y="32.416" width="41" height="67" fill="black">
<rect fill="white" x="62.6666" y="32.416" width="41" height="67"/>
<path fill-rule="evenodd" clip-rule="evenodd" d="M89.0624 35.416V68.7493H98.9593L82.813 94.5835L66.6666 68.7493H76.5624V35.416L89.0624 35.416Z"/>
</mask>
<path fill-rule="evenodd" clip-rule="evenodd" d="M89.0624 35.416V68.7493H98.9593L82.813 94.5835L66.6666 68.7493H76.5624V35.416L89.0624 35.416Z" fill="#FF0E00"/>
<path d="M89.0624 68.7493H86.9791V70.8327H89.0624V68.7493ZM89.0624 35.416H91.1458V33.3327L89.0624 33.3327V35.416ZM98.9593 68.7493L100.726 69.8535L102.718 66.666H98.9593V68.7493ZM82.813 94.5835L81.0463 95.6877L82.813 98.5143L84.5796 95.6877L82.813 94.5835ZM66.6666 68.7493V66.666H62.9078L64.9 69.8535L66.6666 68.7493ZM76.5624 68.7493V70.8327H78.6458V68.7493H76.5624ZM76.5624 35.416V33.3327H74.4791V35.416H76.5624ZM91.1458 68.7493V35.416L86.9791 35.416V68.7493H91.1458ZM98.9593 66.666H89.0624V70.8327H98.9593V66.666ZM84.5796 95.6877L100.726 69.8535L97.1926 67.6452L81.0463 93.4793L84.5796 95.6877ZM64.9 69.8535L81.0463 95.6877L84.5796 93.4793L68.4333 67.6452L64.9 69.8535ZM76.5624 66.666H66.6666V70.8327H76.5624V66.666ZM74.4791 35.416V68.7493H78.6458V35.416H74.4791ZM89.0624 33.3327H76.5624V37.4993H89.0624V33.3327Z" fill="white" mask="url(#path-4-outside-1_0_4070)"/>
</svg>
