<svg width="200" height="200" viewBox="0 0 200 200" fill="none" xmlns="http://www.w3.org/2000/svg">
<path d="M174.314 30.7292L25.6863 30.7292C18.3215 30.7292 13.7367 38.7017 17.4753 45.0311L91.789 170.843C95.4727 177.08 104.527 177.08 108.211 170.843L182.525 45.0311C186.263 38.7017 181.679 30.7292 174.314 30.7292Z" fill="#FF0E00" stroke="black" stroke-width="1.04167"/>
<path d="M25.6863 33.3333L174.314 33.3333C179.681 33.3333 182.986 39.1295 180.282 43.7067L105.969 169.519C103.293 174.049 96.7071 174.049 94.0312 169.519L19.7175 43.7067C17.0139 39.1295 20.3188 33.3333 25.6863 33.3333Z" fill="#FF0E00" stroke="white" stroke-width="4.16667"/>
<path fill-rule="evenodd" clip-rule="evenodd" d="M35.9375 45.8321L100 154.569L164.063 45.8321L35.9375 45.8321Z" fill="white"/>
</svg>
