<svg width="96" height="47" viewBox="0 0 96 47" fill="none" xmlns="http://www.w3.org/2000/svg">
<path d="M0 6.35848C0 3.04478 2.68629 0.35849 6 0.35849H45.913V46.2715H5.99999C2.68629 46.2715 0 43.5852 0 40.2715V6.35848Z" fill="#05081B"/>
<path d="M96 6.35848C96 3.04478 93.3137 0.35849 90 0.35849H50.087V46.2715H90C93.3137 46.2715 96 43.5852 96 40.2715V6.35848Z" fill="#05081B"/>
<path fill-rule="evenodd" clip-rule="evenodd" d="M35.1073 38.2945C35.8884 39.0755 37.1547 39.0755 37.9358 38.2945C38.7168 37.5134 38.7168 36.2471 37.9358 35.466L31.1532 28.6834L27.7619 25.2921C26.9808 24.5111 25.7145 24.5111 24.9334 25.2921C24.1524 26.0732 24.1524 27.3395 24.9334 28.1205L28.3247 31.5119L35.1073 38.2945ZM18.1508 21.3379C18.9319 22.119 20.1982 22.119 20.9793 21.3379C21.7603 20.5569 21.7603 19.2906 20.9793 18.5095L17.588 15.1182L10.8053 8.3356C10.0243 7.55455 8.75797 7.55455 7.97692 8.3356C7.19587 9.11665 7.19587 10.383 7.97692 11.164L14.7595 17.9466L18.1508 21.3379ZM37.9358 11.164C38.7168 10.383 38.7168 9.11665 37.9358 8.33561C37.1547 7.55456 35.8884 7.55456 35.1073 8.33561L28.3247 15.1182L24.9334 18.5095C24.1524 19.2906 24.1524 20.5569 24.9334 21.3379C25.7145 22.119 26.9808 22.119 27.7618 21.3379L31.1532 17.9466L37.9358 11.164ZM20.9792 28.1206C21.7603 27.3395 21.7603 26.0732 20.9792 25.2921C20.1982 24.5111 18.9319 24.5111 18.1508 25.2921L14.7595 28.6834L7.9769 35.466C7.19585 36.2471 7.19585 37.5134 7.9769 38.2945C8.75795 39.0755 10.0243 39.0755 10.8053 38.2945L17.5879 31.5119L20.9792 28.1206Z" fill="#FF2222"/>
<path fill-rule="evenodd" clip-rule="evenodd" d="M75.0432 8.70627C75.0432 7.6017 74.1478 6.70627 73.0432 6.70627C71.9386 6.70627 71.0432 7.6017 71.0432 8.70627V25.4019C71.0432 26.5065 71.9386 27.4019 73.0432 27.4019C74.1478 27.4019 75.0432 26.5065 75.0432 25.4019L75.0432 8.70627ZM88.025 24.7785C88.8028 23.9942 88.8028 22.7227 88.025 21.9385C87.2471 21.1542 85.986 21.1542 85.2081 21.9385L73.0432 34.2034L60.8782 21.9385C60.1004 21.1542 58.8393 21.1542 58.0614 21.9385C57.2836 22.7227 57.2836 23.9942 58.0614 24.7785L71.6348 38.4634L73.0432 39.8834L74.4516 38.4634L88.025 24.7785Z" fill="#00AC5A"/>
</svg>
