<svg width="200" height="200" viewBox="0 0 200 200" fill="none" xmlns="http://www.w3.org/2000/svg">
<rect x="1.56254" y="146.355" width="92.7084" height="196.875" rx="8.85417" transform="rotate(-90 1.56254 146.355)" fill="white" stroke="#13141A" stroke-width="1.04167"/>
<rect x="6.77083" y="141.146" width="82.2917" height="186.458" rx="3.64583" transform="rotate(-90 6.77083 141.146)" stroke="black" stroke-width="1.04167"/>
<path fill-rule="evenodd" clip-rule="evenodd" d="M52.0519 66.667H147.951C150.839 66.667 153.554 68.0388 155.268 70.3629L166.409 85.4732C167.562 87.036 168.183 88.9266 168.183 90.8683V115.152C168.183 118.499 165.47 121.212 162.123 121.212H153.18C153.225 120.713 153.248 120.208 153.248 119.697C153.248 110.493 145.786 103.031 136.582 103.031C127.377 103.031 119.915 110.493 119.915 119.697C119.915 120.208 119.938 120.713 119.983 121.212H73.9595C74.0045 120.713 74.0275 120.208 74.0275 119.697C74.0275 110.493 66.5656 103.031 57.3608 103.031C48.1561 103.031 40.6942 110.493 40.6942 119.697C40.6942 120.208 40.7171 120.713 40.7621 121.212H37.8803C34.5331 121.212 31.8197 118.499 31.8197 115.152V90.8683C31.8197 88.9266 32.4414 87.036 33.5936 85.4732L44.7349 70.3629C46.4485 68.0388 49.1643 66.667 52.0519 66.667ZM38.7245 88.5136L49.3771 73.6C49.7681 73.0525 50.3995 72.7276 51.0723 72.7276H63.0684C64.219 72.7276 65.1517 73.6603 65.1517 74.8109V88.8261C65.1517 89.9767 64.219 90.9094 63.0684 90.9094H39.9574C38.725 90.9094 38.0082 89.5164 38.7245 88.5136ZM158.246 88.5136L147.593 73.6C147.202 73.0525 146.571 72.7276 145.898 72.7276H133.902C132.751 72.7276 131.818 73.6603 131.818 74.8109V88.8261C131.818 89.9767 132.751 90.9094 133.902 90.9094H157.013C158.245 90.9094 158.962 89.5164 158.246 88.5136ZM101.515 74.8109C101.515 73.6603 102.448 72.7276 103.599 72.7276H123.674C124.825 72.7276 125.758 73.6603 125.758 74.8109V88.8261C125.758 89.9767 124.825 90.9094 123.674 90.9094H103.599C102.448 90.9094 101.515 89.9767 101.515 88.8261V74.8109ZM95.4548 74.8109C95.4548 73.6603 94.522 72.7276 93.3714 72.7276H73.2957C72.1451 72.7276 71.2123 73.6603 71.2123 74.8109V88.8261C71.2123 89.9767 72.1451 90.9094 73.2957 90.9094H93.3714C94.522 90.9094 95.4548 89.9767 95.4548 88.8261V74.8109Z" fill="black"/>
<path fill-rule="evenodd" clip-rule="evenodd" d="M57.3608 133.334C64.892 133.334 70.9972 127.228 70.9972 119.697C70.9972 112.166 64.892 106.061 57.3608 106.061C49.8297 106.061 43.7245 112.166 43.7245 119.697C43.7245 127.228 49.8297 133.334 57.3608 133.334ZM57.3608 127.273C61.5448 127.273 64.9366 123.881 64.9366 119.697C64.9366 115.513 61.5448 112.122 57.3608 112.122C53.1768 112.122 49.7851 115.513 49.7851 119.697C49.7851 123.881 53.1768 127.273 57.3608 127.273Z" fill="black"/>
<path fill-rule="evenodd" clip-rule="evenodd" d="M136.582 133.334C144.113 133.334 150.218 127.228 150.218 119.697C150.218 112.166 144.113 106.061 136.582 106.061C129.05 106.061 122.945 112.166 122.945 119.697C122.945 127.228 129.05 133.334 136.582 133.334ZM136.582 127.273C140.766 127.273 144.157 123.881 144.157 119.697C144.157 115.513 140.766 112.122 136.582 112.122C132.398 112.122 129.006 115.513 129.006 119.697C129.006 123.881 132.398 127.273 136.582 127.273Z" fill="black"/>
</svg>
