<svg width="200" height="201" viewBox="0 0 200 201" fill="none" xmlns="http://www.w3.org/2000/svg">
<rect x="1.56254" y="147.02" width="92.7084" height="196.875" rx="8.85417" transform="rotate(-90 1.56254 147.02)" fill="white" stroke="#13141A" stroke-width="1.04167"/>
<rect x="6.77083" y="141.812" width="82.2917" height="186.458" rx="3.64583" transform="rotate(-90 6.77083 141.812)" stroke="black" stroke-width="1.04167"/>
<path d="M16.6666 114.632L28.3028 113.254C28.6739 116.149 29.6717 118.362 31.2974 119.893C32.923 121.424 34.8905 122.191 37.2012 122.191C39.6823 122.191 41.7642 121.274 43.447 119.435C45.1578 117.598 46.0133 115.121 46.0133 112.003C46.0133 109.055 45.2004 106.715 43.5748 104.989C41.9492 103.265 39.967 102.401 37.6283 102.401C36.0879 102.401 34.2493 102.693 32.1102 103.276L33.4365 93.7156C36.6877 93.7987 39.1688 93.117 40.8796 91.6693C42.5904 90.1943 43.4458 88.2455 43.4458 85.8239C43.4458 83.7646 42.818 82.1222 41.5634 80.8978C40.3089 79.6733 38.6407 79.0605 36.5588 79.0605C34.5048 79.0605 32.7514 79.7565 31.2974 81.1483C29.8433 82.5402 28.9587 84.5722 28.6447 87.2443L17.5658 85.4071C18.3361 81.7053 19.4908 78.7541 21.0313 76.5559C22.5997 74.3291 24.7668 72.5893 27.5338 71.3364C30.3288 70.0561 33.4511 69.416 36.9019 69.416C42.8058 69.416 47.5391 71.2532 51.1043 74.9277C54.0417 77.9335 55.5103 81.3301 55.5103 85.1149C55.5103 90.4865 52.5012 94.7737 46.4842 97.9743C50.0773 98.7261 52.9441 100.41 55.082 103.025C57.2491 105.641 58.3333 108.801 58.3333 112.502C58.3333 117.874 56.3231 122.453 52.3016 126.238C48.2801 130.023 43.2755 131.916 37.2864 131.916C31.6113 131.916 26.9059 130.329 23.1692 127.155C19.4324 123.956 17.2653 119.781 16.6666 114.632Z" fill="black"/>
<path d="M68.75 99.001C76.6411 115.258 85.6595 121.5 97.5723 121.5C122.86 121.5 128.497 79.833 153.357 79.833C165.698 79.833 175.843 88.6891 181.25 109.044" stroke="black" stroke-width="6.25" stroke-linecap="round"/>
</svg>
