<svg width="200" height="201" viewBox="0 0 200 201" fill="none" xmlns="http://www.w3.org/2000/svg">
<rect x="1.56254" y="146.687" width="92.7084" height="196.875" rx="8.85417" transform="rotate(-90 1.56254 146.687)" fill="white" stroke="#13141A" stroke-width="1.04167"/>
<rect x="6.77083" y="141.479" width="82.2917" height="186.458" rx="3.64583" transform="rotate(-90 6.77083 141.479)" stroke="black" stroke-width="1.04167"/>
<path d="M6.25 123.249L45.8333 100.332H154.167L193.75 123.249V131.582L154.167 108.665H152.083V141.999H143.75V108.665H56.25V141.999H47.9167V108.665H45.8333L6.25 131.582V123.249Z" fill="black"/>
<path fill-rule="evenodd" clip-rule="evenodd" d="M122.113 65.0894C123.032 65.5045 123.88 66.4098 124.216 66.9164L127.582 70.7782L134.777 79.3346C135.521 79.9116 135.582 82.4297 135.136 83.4L133.245 89.6511C133.105 90.1612 131.858 91.6297 131.227 91.6343L129.093 91.8227C128.426 89.0431 126.335 86.6359 123.451 85.8202C120.568 85.0046 117.684 86.0042 115.726 88.041C114.213 89.5052 113.893 91.3646 113.549 93.361L113.511 93.5829C113.511 93.6112 113.5 93.6376 113.489 93.664C113.477 93.6904 113.466 93.7167 113.466 93.7451L96.7732 93.8686L84.224 93.7549C84.2513 90.185 81.8647 86.8315 78.3297 85.8314C74.1248 84.6418 69.8 87.1876 68.6292 91.4545C68.6084 91.5302 68.5861 91.6035 68.564 91.6761C68.5204 91.8191 68.4777 91.9594 68.4497 92.1085L67.1614 91.7441C66.5299 91.7486 65.3198 90.9073 65.2437 89.8793L64.6425 83.5407C64.271 81.6059 65.7402 80.6937 66.5885 80.5672L80.4298 77.8748L83.3875 77.2146C84.2798 76.9173 85.8714 76.3583 86.2255 75.7255L92.8623 67.0309C93.5002 66.0217 94.7959 64.77 96.7282 64.953L104.696 65.0055L121.205 64.9171C121.501 64.9107 121.806 64.9519 122.113 65.0894ZM119.158 67.9551C118.66 67.7595 118.118 67.7647 117.5 67.7707C117.324 67.7724 117.142 67.7741 116.954 67.7713L103.91 67.8702L98.0317 67.7915C96.387 67.8759 95.1147 69.0214 94.1336 70.3001L91.1896 75.0183C90.3139 76.2365 90.689 78.7756 92.7766 78.7263L100.907 78.8247L118.711 78.7504C122.625 78.9444 123.288 75.8926 122.293 73.5982L120.881 70.2047C120.362 68.82 119.798 68.2038 119.158 67.9551Z" fill="black"/>
<path fill-rule="evenodd" clip-rule="evenodd" d="M77.9949 86.7956C81.5994 87.8153 83.8066 91.6509 82.8022 95.3109C81.7979 98.9708 77.9573 101.098 74.3502 100.078C70.7456 99.0579 68.6268 95.2445 69.6311 91.5846C70.6355 87.9246 74.3904 85.7758 77.9949 86.7956ZM77.1822 89.757C75.1752 89.1892 73.1964 90.3999 72.6379 92.4352C72.0794 94.4706 73.159 96.5465 75.1635 97.1136C77.1681 97.6807 79.2369 96.4955 79.7954 94.4602C80.3539 92.4248 79.1894 90.3249 77.1822 89.757Z" fill="black"/>
<path fill-rule="evenodd" clip-rule="evenodd" d="M128.137 95.2359C129.142 91.576 126.935 87.7404 123.33 86.7207C119.725 85.7009 115.971 87.8497 114.966 91.5096C113.962 95.1696 116.078 98.9823 119.685 100.003C123.292 101.023 127.133 98.8959 128.137 95.2359ZM117.973 92.3603C118.532 90.325 120.513 89.115 122.517 89.6821C124.522 90.2492 125.689 92.3499 125.131 94.3853C124.572 96.4206 122.503 97.6058 120.499 97.0387C118.494 96.4716 117.414 94.3983 117.973 92.3603Z" fill="black"/>
</svg>
