<svg width="200" height="201" viewBox="0 0 200 201" fill="none" xmlns="http://www.w3.org/2000/svg">
<rect x="36.9792" y="12.3122" width="126.042" height="176.042" rx="8.85417" fill="white" stroke="#13141A" stroke-width="1.04167"/>
<rect x="41.6667" y="17" width="116.667" height="166.667" rx="4.16667" fill="#1071AF"/>
<rect x="50" y="33.667" width="100" height="100" rx="4.16667" fill="white"/>
<path fill-rule="evenodd" clip-rule="evenodd" d="M99.933 42C94.2787 42 89.7314 46.6015 89.7314 52.2327C89.7314 56.769 92.6824 60.6371 96.7857 61.9698V76.2342H86.0714V82.6532H96.7857V114.932C82.2201 113.413 72.407 99.4204 72.407 99.4204L78.2166 95.6842L62.5 89.0721L62.723 105.144L67.6232 102.588C67.6232 103.345 81.1602 121.167 99.7521 121.167C118.345 121.167 131.283 102.494 131.283 102.494L137.412 105.54L137.5 89.1372L121.104 95.7693L125.86 99.4672C125.86 99.4672 117.48 112.632 103.214 114.773V82.6532H113.929V76.2342H103.214V61.9252C107.248 60.5525 110.134 56.7195 110.134 52.2327C110.134 46.6015 105.587 42 99.933 42ZM96.16 52.2327C96.16 50.1063 97.8693 48.4189 99.933 48.4189C101.997 48.4189 103.706 50.1063 103.706 52.2327C103.706 54.3591 101.997 56.0465 99.933 56.0465C97.8693 56.0465 96.16 54.3591 96.16 52.2327Z" fill="black"/>
</svg>
