<svg width="200" height="200" viewBox="0 0 200 200" fill="none" xmlns="http://www.w3.org/2000/svg">
<rect x="0.520833" y="-0.520833" width="138.542" height="138.542" rx="8.85417" transform="matrix(-1 0 0 1 169.792 31.25)" fill="white" stroke="#13141A" stroke-width="1.04167"/>
<rect x="-1.04167" y="1.04167" width="127.083" height="127.083" rx="3.125" transform="matrix(-1 0 0 1 162.5 35.417)" fill="white" stroke="#13141A" stroke-width="2.08333"/>
<path d="M62.838 139.758L58.7063 138.745C59.5957 135.137 62.1254 133.333 66.2954 133.333C68.7629 133.333 70.6232 133.907 71.8761 135.056C73.1385 136.195 73.7698 137.535 73.7698 139.077C73.7698 140.135 73.4828 141.093 72.909 141.949C72.3351 142.796 71.4744 143.542 70.3267 144.187C71.723 144.691 72.7703 145.406 73.4685 146.333C74.1667 147.25 74.5158 148.384 74.5158 149.734C74.5158 151.679 73.8367 153.252 72.4786 154.451C71.1301 155.65 69.1072 156.25 66.4102 156.25C64.2104 156.25 62.4745 155.867 61.2025 155.101C59.9305 154.325 58.974 152.879 58.3333 150.762L62.2211 149.417C62.6228 150.747 63.1536 151.609 63.8135 152.002C64.483 152.395 65.3055 152.591 66.281 152.591C67.62 152.591 68.5956 152.289 69.2077 151.684C69.8198 151.07 70.1258 150.369 70.1258 149.583C70.1258 148.676 69.7767 147.946 69.0786 147.391C68.3899 146.837 67.3474 146.56 65.9511 146.56H64.9899V143.219H65.4777C66.7784 143.219 67.7731 142.912 68.4617 142.297C69.1503 141.682 69.4946 140.866 69.4946 139.848C69.4946 139.042 69.2125 138.362 68.6482 137.808C68.0935 137.253 67.2948 136.976 66.2524 136.976C64.4734 136.976 63.3353 137.903 62.838 139.758Z" fill="black"/>
<path d="M77.2451 144.927C77.2451 142.67 77.5655 140.775 78.2063 139.244C78.6845 138.115 79.3348 137.102 80.1574 136.205C80.9894 135.308 81.898 134.643 82.8831 134.21C84.1934 133.625 85.7046 133.333 87.4165 133.333C90.5153 133.333 92.9924 134.346 94.8479 136.371C96.7129 138.397 97.6454 141.214 97.6454 144.822C97.6454 148.399 96.7224 151.201 94.8766 153.226C93.0307 155.242 90.5631 156.25 87.4739 156.25C84.3464 156.25 81.8598 155.247 80.0139 153.241C78.168 151.226 77.2451 148.455 77.2451 144.927ZM81.6207 144.776C81.6207 147.286 82.1706 149.19 83.2705 150.49C84.3704 151.78 85.7667 152.425 87.4596 152.425C89.1524 152.425 90.5392 151.785 91.62 150.505C92.7103 149.215 93.2554 147.286 93.2554 144.716C93.2554 142.176 92.7246 140.282 91.663 139.032C90.611 137.782 89.2098 137.157 87.4596 137.157C85.7093 137.157 84.2986 137.792 83.2274 139.062C82.1563 140.322 81.6207 142.227 81.6207 144.776Z" fill="black"/>
<path d="M101.235 155.872V133.711H105.482V142.433H113.803V133.711H118.049V155.872H113.803V146.182H105.482V155.872H101.235Z" fill="black"/>
<path d="M141.667 155.872H137.047L135.211 150.838H126.804L125.068 155.872H120.563L128.755 133.711H133.245L141.667 155.872ZM133.848 147.104L130.95 138.881L128.109 147.104H133.848Z" fill="black"/>
<circle cx="99.9999" cy="85.4167" r="41.6667" fill="#1071AF"/>
<path d="M98.1793 52.5083C98.1793 54.2081 96.8511 55.586 95.2128 55.586C93.5745 55.586 92.2463 54.2081 92.2463 52.5083C92.2463 50.8086 93.5745 49.4307 95.2128 49.4307C96.8511 49.4307 98.1793 50.8086 98.1793 52.5083Z" fill="white"/>
<path d="M92.7847 82.4452L95.2574 72.0553L97.7301 82.4452C97.9602 83.4119 98.9124 83.9923 99.8383 83.7303C100.719 83.4811 101.256 82.5571 101.056 81.6326L97.5564 65.4345L98.1497 61.7413L100.486 68.2474C100.748 68.9761 101.546 69.327 102.232 69.0153C102.858 68.7314 103.167 67.9956 102.941 67.3272L99.3966 56.8198C99.2716 56.4495 98.9348 56.2015 98.5566 56.2015H91.9582C91.5801 56.2015 91.2432 56.4495 91.1183 56.8198L87.5735 67.3272C87.348 67.9956 87.657 68.7314 88.2824 69.0153C88.9691 69.327 89.7672 68.9761 90.0288 68.2474L92.3651 61.7413L92.9584 65.4345L89.4589 81.6326C89.2592 82.5571 89.7955 83.4811 90.6765 83.7303C91.6024 83.9923 92.5546 83.4119 92.7847 82.4452Z" fill="white"/>
<path d="M110.961 68.4909C110.852 68.3125 110.663 68.2043 110.46 68.2043L107.155 68.2043C106.852 68.2043 106.552 68.2578 106.266 68.3625L101.656 70.0519C101.182 70.2249 100.916 70.7483 101.047 71.2523C101.184 71.7802 101.705 72.0953 102.215 71.9588L106.698 70.7592V74.9813L104.461 82.3371C104.271 82.9604 104.613 83.6204 105.236 83.8333C105.869 84.0495 106.561 83.7261 106.792 83.1059L108.71 77.9693L110.628 83.1059C110.859 83.7261 111.551 84.0495 112.184 83.8333C112.807 83.6204 113.149 82.9604 112.959 82.3371L110.722 74.9813V72.1294L112.873 75.2804C113.182 75.7331 113.791 75.8285 114.215 75.4906C114.601 75.1828 114.698 74.6204 114.437 74.1934L110.961 68.4909Z" fill="white"/>
<path d="M108.859 67.5888C110.169 67.5888 111.232 66.4865 111.232 65.1267C111.232 63.7669 110.169 62.6646 108.859 62.6646C107.548 62.6646 106.485 63.7669 106.485 65.1267C106.485 66.4865 107.548 67.5888 108.859 67.5888Z" fill="white"/>
<path fill-rule="evenodd" clip-rule="evenodd" d="M91.6704 88.7363C90.3765 88.7363 89.2795 89.6878 89.0965 90.9687C88.9188 92.2126 89.6561 93.4056 90.8482 93.803L92.0317 94.1975L88.7581 99.9264C87.7442 99.4902 86.6269 99.2486 85.4532 99.2486C80.8306 99.2486 77.0833 102.996 77.0833 107.619C77.0833 112.241 80.8306 115.989 85.4532 115.989C90.0758 115.989 93.8232 112.241 93.8232 107.619C93.8232 104.845 92.4744 102.387 90.397 100.864L91.1937 99.4697L100.961 108.315C101.071 108.416 101.203 108.487 101.345 108.526C101.436 108.551 101.529 108.562 101.621 108.56H106.229C106.697 112.739 110.242 115.989 114.547 115.989C119.169 115.989 122.917 112.241 122.917 107.619C122.917 102.996 119.169 99.2486 114.547 99.2486C113.168 99.2486 111.867 99.5819 110.72 100.172L107.92 95.972V93.8126H110.163C110.685 93.8126 111.107 93.3899 111.107 92.8685C111.107 92.3471 110.685 91.9245 110.163 91.9245L103.388 91.9245C102.866 91.9245 102.444 92.3471 102.444 92.8685C102.444 93.3899 102.866 93.8126 103.388 93.8126H106.032V95.3122H93.5694L94.2424 94.1344C94.3827 93.8889 94.4055 93.5933 94.3046 93.3291C94.2036 93.0649 93.9896 92.8599 93.7213 92.7705L91.4453 92.0118C91.1188 91.903 90.9169 91.5763 90.9656 91.2357C91.0157 90.8849 91.3161 90.6244 91.6704 90.6244H95.6148C96.1362 90.6244 96.5589 90.2018 96.5589 89.6804C96.5589 89.159 96.1362 88.7363 95.6148 88.7363H91.6704ZM109.15 101.221L107.115 98.1682L103.087 106.671H106.23C106.475 104.491 107.558 102.564 109.15 101.221ZM108.133 106.671C108.357 105.145 109.113 103.791 110.206 102.805L112.784 106.671H108.133ZM108.133 108.56H114.548C114.896 108.56 115.216 108.368 115.38 108.061C115.544 107.754 115.526 107.381 115.333 107.092L111.777 101.757C112.617 101.359 113.556 101.137 114.547 101.137C118.126 101.137 121.028 104.039 121.028 107.619C121.028 111.198 118.126 114.1 114.547 114.1C111.286 114.1 108.588 111.693 108.133 108.56ZM85.4532 101.137C86.2859 101.137 87.0819 101.294 87.8133 101.58L84.6317 107.148C84.373 107.6 84.5303 108.177 84.983 108.436C85.4356 108.694 86.0123 108.537 86.271 108.084L89.4523 102.517C90.964 103.704 91.9351 105.548 91.9351 107.619C91.9351 111.198 89.033 114.1 85.4532 114.1C81.8734 114.1 78.9713 111.198 78.9713 107.619C78.9713 104.039 81.8734 101.137 85.4532 101.137ZM92.4905 97.2003L92.1529 97.7911L101.286 106.063L105.484 97.2003H92.4905Z" fill="white"/>
</svg>
