<svg width="200" height="201" viewBox="0 0 200 201" fill="none" xmlns="http://www.w3.org/2000/svg">
<rect x="36.9792" y="12.6466" width="126.042" height="176.042" rx="8.85417" fill="white" stroke="#13141A" stroke-width="1.04167"/>
<rect x="41.6667" y="17.3325" width="116.667" height="166.667" rx="4.16667" fill="#1071AF"/>
<rect x="50" y="34" width="100" height="100" rx="4.16667" fill="white"/>
<path d="M104.835 40.2529C104.368 40.2841 103.932 40.536 103.683 40.9592L99.9072 47.3731L96.1318 40.9592C95.638 40.2529 94.9716 40.1516 94.1432 40.4476C93.2937 40.928 93.06 41.7928 93.4583 42.4705L98.1363 50.3827L96.8513 52.5431L78.9622 82.857H74.3532C72.8823 82.857 72.9168 83.662 72.9168 84.4514C72.9168 85.2252 72.9195 85.864 74.3532 85.864H125.631C127.083 85.864 127.083 85.1785 127.083 84.3943C127.067 83.4802 127.089 82.857 125.631 82.857H120.855L102.966 52.5431L101.681 50.3827L106.359 42.4705C106.757 41.7928 106.523 40.928 105.674 40.4476C105.408 40.3022 105.114 40.2347 104.835 40.2529ZM99.9072 64.4854L110.747 82.857H89.067L99.9072 64.4854Z" fill="black"/>
<path fill-rule="evenodd" clip-rule="evenodd" d="M72.9167 106.574C72.9167 102.793 74.4186 99.1677 77.0918 96.4945L79.0559 94.5304C81.1945 92.3918 84.095 91.1904 87.1194 91.1904H112.881C115.905 91.1904 118.806 92.3918 120.944 94.5304L122.908 96.4945C125.582 99.1677 127.083 102.793 127.083 106.574V113.855C127.083 117.672 124.083 120.788 120.312 120.973V125.045H127.083V127.753H72.9167V125.045H79.6871V120.983H82.3954V125.045H96.4178C95.2928 124.052 94.5832 122.6 94.5832 120.982C94.5832 117.99 97.0083 115.565 99.9998 115.565C102.991 115.565 105.416 117.99 105.416 120.982C105.416 122.6 104.707 124.052 103.582 125.045H117.604V120.982L108.125 120.982C108.125 116.494 104.487 112.857 100 112.857C97.1736 112.857 94.6842 114.3 93.2286 116.49V99.315C93.2286 97.8192 92.0161 96.6067 90.5203 96.6067H83.7495C82.2537 96.6067 81.0411 97.8192 81.0411 99.315V120.981L80.0439 120.982C76.1077 120.982 72.9167 117.791 72.9167 113.855V106.574ZM102.78 99.3134C101.993 99.3134 101.355 99.9516 101.355 100.739V104.659C101.355 105.446 101.993 106.084 102.78 106.084H116.179C116.967 106.084 117.605 105.446 117.605 104.659V100.739C117.605 99.9516 116.967 99.3134 116.179 99.3134H102.78Z" fill="black"/>
<path fill-rule="evenodd" clip-rule="evenodd" d="M91.8745 120.982L82.3954 120.983L82.3953 99.315C82.3953 98.5671 83.0016 97.9608 83.7495 97.9608H90.5203C91.2682 97.9608 91.8745 98.5671 91.8745 99.315V120.982ZM85.1761 99.3134C84.3888 99.3134 83.7506 99.9516 83.7506 100.739V104.659C83.7506 105.446 84.3888 106.084 85.1761 106.084H89.096C89.8833 106.084 90.5215 105.446 90.5215 104.659V100.739C90.5215 99.9516 89.8833 99.3134 89.096 99.3134H85.1761Z" fill="black"/>
</svg>
