<svg width="200" height="201" viewBox="0 0 200 201" fill="none" xmlns="http://www.w3.org/2000/svg">
<rect x="0.520826" y="-0.520826" width="138.54" height="138.54" rx="8.85404" transform="matrix(-1 0 0 1 169.789 31.6866)" fill="white" stroke="#13141A" stroke-width="1.04165"/>
<rect width="129.165" height="129.165" rx="4.16661" transform="matrix(-1 0 0 1 164.581 35.8549)" fill="#1071AF"/>
<rect width="27.0829" height="8.33321" transform="matrix(-1 0 0 1 62.4991 123.353)" fill="white"/>
<rect width="33.3328" height="8.33321" transform="matrix(-1 0 0 1 87.4987 131.688)" fill="white"/>
<rect width="33.3328" height="8.33321" transform="matrix(-1 0 0 1 112.498 140.021)" fill="white"/>
<rect width="33.3328" height="8.33321" transform="matrix(-1 0 0 1 137.498 148.351)" fill="white"/>
<rect width="33.3328" height="8.33321" transform="matrix(-1 0 0 1 164.581 156.688)" fill="white"/>
<path fill-rule="evenodd" clip-rule="evenodd" d="M97.2266 58.1753C101.025 54.8725 101.594 50.1049 99.0334 47.1041C96.4727 44.1032 91.1888 42.8053 87.3901 46.1081C83.5914 49.4108 83.1515 55.7214 85.7121 58.7223C88.2728 61.7228 93.4282 61.478 97.2266 58.1753ZM102.102 92.871V72.0385L113.351 78.0691L115.053 93.4021C115.211 94.7627 116.284 95.8303 117.634 95.9711C119.419 96.1575 120.941 94.6786 120.825 92.871L119.779 75.8483C119.708 74.7367 119.128 73.7217 118.211 73.1015L101.123 61.5428C100.266 60.6694 98.8577 60.5301 97.8376 61.3222L92.0963 65.1191C90.1537 66.6275 89.0155 68.9611 89.0155 71.4348V91.0081L73.4737 100.76C71.7485 101.842 70.6987 103.734 70.6928 105.77L70.635 125.804C70.6289 127.888 72.3172 129.581 74.4019 129.581C76.4127 129.581 78.069 128.002 78.1647 125.994L78.9475 109.553C79.0018 108.413 79.6681 107.391 80.6895 106.881L99.9042 97.2902C101.988 96.2486 102.102 94.311 102.102 92.871ZM85.6607 86.8737V78.1506L73.2973 86.2407C71.868 87.176 71.4328 89.0733 72.3116 90.5381C73.1814 91.9878 75.0335 92.5035 76.5274 91.7121L85.6607 86.8737ZM91.472 105.469L100.393 101.069L103.612 133.468C103.849 135.861 101.971 137.935 99.5666 137.935C97.54 137.935 95.823 136.443 95.5411 134.436L91.472 105.469Z" fill="white"/>
</svg>
