<svg width="200" height="201" viewBox="0 0 200 201" fill="none" xmlns="http://www.w3.org/2000/svg">
<path d="M25.6863 169.272H174.314C181.678 169.272 186.263 161.3 182.525 154.97L108.211 29.158C104.527 22.9215 95.4727 22.9215 91.7889 29.158L17.4753 154.97C13.7367 161.3 18.3214 169.272 25.6863 169.272Z" fill="#FF0E00" stroke="black" stroke-width="1.04167"/>
<path d="M174.314 166.668H25.6863C20.3188 166.668 17.0139 160.872 19.7175 156.295L94.0312 30.4825C96.707 25.9522 103.293 25.9522 105.969 30.4825L180.282 156.295C182.986 160.872 179.681 166.668 174.314 166.668Z" fill="#FF0E00" stroke="white" stroke-width="4.16667"/>
<path fill-rule="evenodd" clip-rule="evenodd" d="M164.062 154.167L99.9999 45.4302L35.9374 154.167H164.062Z" fill="white"/>
<path d="M101.309 87.5606C101.595 87.5302 101.923 87.4959 102.203 87.5016C104.158 87.5378 105.888 88.4285 106.972 89.9416C108.766 92.7223 107.746 96.7021 104.526 98.8034C103.474 99.5437 102.423 99.9263 101.309 100.111C99.0181 100.419 96.8247 99.4657 95.5869 97.6119C93.7902 94.8921 94.6904 90.9104 97.91 88.8092C98.9628 88.1297 100.193 87.6843 101.309 87.5606Z" fill="black"/>
<path d="M106.673 98.5656C107.137 97.6844 107.501 97.2866 108.401 97.1971C108.701 97.1686 109.1 97.1667 109.54 97.1952L120.448 98.8016C121.882 98.9543 122.482 99.9776 122.892 100.676C122.977 100.822 123.055 100.954 123.13 101.061V101.24L128.972 112.779C129.592 113.891 128.777 115.855 127.603 116.289C126.363 116.66 124.593 116.521 123.727 115.1L123.13 113.971L118.779 104.989C118.594 104.681 117.599 103.92 117.229 103.92L114.188 103.682L120.446 115.339C121.747 117.996 121.459 120.716 119.849 121.704L108.047 129.673C107.303 130.044 106.914 131.658 106.914 132.648V143.651C106.914 145.257 105.546 147.155 103.874 147.278C103.006 147.402 102.052 147.063 101.31 146.445C100.629 145.826 100.236 144.93 100.236 144.066V139.663L97.196 141.388C95.9581 141.944 93.0742 141.869 91.7124 140.139L90.5794 138.712L86.7648 133.657L90.5794 131.277L91.5942 130.684L94.6935 135.086C95.4374 136.013 96.2118 135.878 97.0777 135.383L99.6411 133.896C99.6673 133.896 99.7327 133.876 99.8092 133.851C99.9165 133.817 100.046 133.777 100.118 133.777L99.9997 130.09C99.9997 128.607 100.505 126.917 101.31 125.866C101.619 125.495 101.955 125.162 102.264 124.915L109.773 120.157C110.517 119.477 110.496 118.278 110.311 117.599L104.171 104.989C104.144 104.814 104.106 104.624 104.066 104.426C103.922 103.716 103.76 102.915 104.051 102.431L106.673 98.5656Z" fill="black"/>
<path d="M116.984 125.567L122.706 121.881L123.122 122.655L126.58 127.296C127.322 128.344 128.327 128.207 129.441 127.651L132.54 125.927C135.079 124.814 136.815 125.817 137.25 127.176C137.931 128.535 137.198 130.95 135.342 131.814L129.561 134.907C128.014 135.771 124.921 135.689 123.124 133.835C123.063 133.774 123.006 133.662 122.945 133.538L116.984 125.567Z" fill="black"/>
<path d="M103.216 108.319L101.308 111.115L99.4009 114.147L93.9765 111.709C92.3648 111.338 91.2604 111.799 90.5776 112.6C90.3926 112.787 90.2248 113.007 90.1008 113.255C89.2959 114.368 89.6487 115.841 90.5776 116.644L90.5941 116.657C90.8353 116.838 91.0498 117 91.352 117.061L98.5045 119.855C99.4963 120.226 100.501 120.049 101.306 119.617C102.111 119.246 102.846 118.74 103.094 118.369L105.895 113.968L103.216 108.319Z" fill="black"/>
<path d="M91.352 128.921C87.8003 131.584 83.9092 133.833 80.1542 136.216C79.4103 136.526 78.6111 137.617 78.4261 138.298L75.6243 145.791C75.5003 146.224 75.2771 146.61 74.9681 146.981C74.3482 147.721 73.2821 148.121 72.1663 147.813C70.3696 147.196 70.0644 145.306 70.4974 143.947L73.7742 135.025C74.0221 134.347 74.5333 133.677 74.9662 133.182C75.1594 132.989 75.3287 132.81 75.4668 132.664C75.6818 132.437 75.8217 132.29 75.8589 132.29L82.0577 128.304C82.7386 127.935 82.6585 126.78 82.5345 126.163L78.4814 117.777C78.1705 117.221 77.9302 116.433 78.3021 115.754L88.6723 99.3378C89.1071 98.7193 89.8987 98.2758 90.5796 98.0284C90.8428 97.9522 91.0908 97.9294 91.354 97.9104C92.1417 97.8552 92.8569 98.076 93.328 98.4471C94.688 99.374 94.461 102.197 94.2207 102.551L90.5853 107.905L86.3549 114.149L90.5853 122.059V122.073L91.737 124.068C92.5301 125.773 91.9252 128.069 91.352 128.921Z" fill="black"/>
<path d="M67.3351 118.194C66.7629 118.179 66.1926 118.33 65.6662 118.67C64.8613 119.597 63.818 121.588 65.4278 123.073L69.3016 127.058C70.7874 128.788 73.1448 128.506 74.0108 127.951L74.9644 127.296L79.4352 123.965L77.1102 119.268L74.9644 120.754L72.401 122.479L69.0022 118.792C68.4776 118.387 67.9073 118.21 67.3351 118.194Z" fill="black"/>
<path d="M74.9645 101.717C75.5825 101.502 76.1985 101.39 76.8108 101.361C78.6514 101.277 80.3794 102.006 81.4017 103.441C83.0115 106.037 82.1055 109.439 79.256 111.292C77.8941 112.28 76.3893 112.608 74.9645 112.423C73.5397 112.238 72.2523 111.515 71.4474 110.341C69.7117 107.807 70.6883 104.408 73.4138 102.431C73.9097 102.122 74.4686 101.903 74.9645 101.717Z" fill="black"/>
</svg>
