<svg width="200" height="201" viewBox="0 0 200 201" fill="none" xmlns="http://www.w3.org/2000/svg">
<rect x="30.7287" y="31.5881" width="138.54" height="138.54" rx="8.85404" fill="white" stroke="#13141A" stroke-width="1.04165"/>
<rect x="35.4161" y="36.2773" width="129.165" height="129.165" rx="4.16661" fill="#1071AF"/>
<path fill-rule="evenodd" clip-rule="evenodd" d="M156.769 145.014C158.381 145.014 159.382 143.262 158.564 141.873L101.793 45.513C100.988 44.1452 99.0094 44.1452 98.2036 45.513L41.4332 141.873C40.615 143.262 41.6162 145.014 43.2281 145.014H156.769Z" fill="white"/>
<path fill-rule="evenodd" clip-rule="evenodd" d="M104.859 68.6163C106.773 70.8585 106.348 74.4209 103.509 76.8888C100.671 79.3567 96.8189 79.5395 94.9055 77.2975C92.9922 75.0553 93.3209 70.3399 96.1593 67.872C98.9977 65.4042 102.946 66.374 104.859 68.6163ZM107.152 87.2476V103.896C107.152 104.972 106.672 105.99 105.845 106.668L91.3187 118.06C90.4578 118.766 89.8113 119.704 89.4541 120.764L83.7683 137.638C83.141 139.499 81.1269 140.483 79.2917 139.824C77.471 139.17 76.522 137.149 77.174 135.313L83.9077 116.353C84.2294 115.447 84.7639 114.633 85.4655 113.981L97.3739 102.269V86.7965C97.3739 84.9481 98.2243 83.2044 99.6759 82.0773L103.966 79.2402C104.728 78.6483 105.78 78.7524 106.421 79.4051L119.189 88.0419C119.874 88.5053 120.307 89.2637 120.361 90.0943L121.142 102.814C121.229 104.165 120.092 105.27 118.758 105.13C117.749 105.025 116.948 104.227 116.829 103.211L115.557 91.7537L107.152 87.2476ZM100.624 113.981L107.152 108.951L121.053 134.785C122.024 136.345 121.575 138.404 120.044 139.406C118.539 140.391 116.532 140 115.499 138.52L100.624 113.981ZM94.8671 98.6028V90.8629L83.6315 101.422C82.7422 102.258 82.6668 103.654 83.4612 104.583C84.2375 105.49 85.5773 105.636 86.5274 104.917L94.8671 98.6028ZM68.1864 141.083L72.1423 127.662H63.1786L54.8102 141.083H68.1864ZM133.777 141.083L129.821 127.662H138.785L147.153 141.083H133.777ZM95.2528 127.662H104.746L106.876 141.083H93.1227L95.2528 127.662Z" fill="#05081B"/>
</svg>
