<svg width="200" height="201" viewBox="0 0 200 201" fill="none" xmlns="http://www.w3.org/2000/svg">
<circle cx="100" cy="100.335" r="82.8125" fill="white" stroke="#05081B" stroke-width="1.04167"/>
<circle cx="100" cy="100.334" r="71.875" stroke="#FF0E00" stroke-width="12.5"/>
<path d="M124.86 65.498C128.24 62.5589 128.746 58.3163 126.467 55.6458C124.189 52.9754 119.487 51.8204 116.106 54.7595C112.726 57.6986 112.334 63.3144 114.613 65.9848C116.892 68.6549 121.479 68.4372 124.86 65.498Z" fill="#05081B"/>
<path d="M132.074 96.5044L128.88 71.3374C128.736 70.2032 128.148 69.1164 127.067 68.7442C126.287 68.4757 125.355 68.3609 124.602 68.8729L120.294 71.6773C118.565 73.0197 117.553 75.0963 117.553 77.2976L119.636 95.7252L109.418 108.744C108.606 109.674 108.063 110.758 107.701 112.047L104.196 133.069C103.689 135.258 104.685 137.383 106.728 137.986C109.056 138.673 111.185 136.944 111.828 134.792L115.644 115.506C116.167 113.743 116.942 112.814 117.918 111.889L130.517 99.8063C131.502 98.9986 132.074 97.7857 132.074 96.5044Z" fill="#05081B"/>
<path d="M123.811 109.761L131.218 103.151L140.439 132.036C141.41 134.206 140.912 136.611 139.237 137.539C137.445 138.713 134.81 138.037 133.715 135.815L123.811 109.761Z" fill="#05081B"/>
<path d="M115.644 81.7045L116.65 91.3585L106.718 98.8779C105.587 99.7344 103.991 99.5606 103.066 98.48C102.12 97.3742 102.21 95.7113 103.269 94.7159L115.644 81.7045Z" fill="#05081B"/>
<path d="M66.9703 116.896C61.106 116.896 56.3487 121.654 56.3487 127.518C56.3487 133.382 61.106 138.14 66.9703 138.14C72.8345 138.14 77.5919 133.382 77.5919 127.518C77.5919 121.654 72.8345 116.896 66.9703 116.896ZM66.0971 120.146V124.443C64.9734 124.758 64.1248 125.64 63.8609 126.785H59.5989C59.9343 123.318 62.6501 120.545 66.0971 120.146ZM68.2281 120.215C71.4895 120.771 74.0186 123.448 74.3428 126.784H70.0808C69.8471 125.772 69.1662 124.943 68.2292 124.547V120.215H68.2281ZM59.7029 128.916H64.07C64.4569 129.717 65.1624 130.33 66.0266 130.592V134.855C62.839 134.452 60.2977 132.04 59.7029 128.916ZM69.8705 128.916H74.2377C73.6585 131.959 71.2312 134.327 68.1588 134.82V130.522C68.9112 130.225 69.5206 129.64 69.8705 128.916Z" fill="black"/>
<path d="M104.644 100.354L52.0154 121.804" stroke="black" stroke-width="4.16667" stroke-linecap="round"/>
</svg>
