<svg width="200" height="201" viewBox="0 0 200 201" fill="none" xmlns="http://www.w3.org/2000/svg">
<rect x="36.9792" y="12.6462" width="126.042" height="176.042" rx="8.85417" fill="white" stroke="#13141A" stroke-width="1.04167"/>
<rect x="41.6667" y="17.333" width="116.667" height="166.667" rx="4.16667" fill="#1071AF"/>
<rect x="50" y="34" width="100" height="100" rx="4.16667" fill="white"/>
<path fill-rule="evenodd" clip-rule="evenodd" d="M95.8332 48.5846C95.8332 46.2834 97.6987 44.418 99.9999 44.418H133.333C135.634 44.418 137.5 46.2834 137.5 48.5846V115.251C137.5 117.552 135.634 119.418 133.333 119.418H99.9999C97.6987 119.418 95.8332 117.552 95.8332 115.251L95.8332 84.002L91.6665 84.002V111.085C91.6665 120.29 84.2046 127.752 74.9999 127.752H73.9582C64.1782 127.752 56.2499 119.824 56.2499 110.044V109.464C56.2499 104.614 58.1766 99.9623 61.6063 96.5326L83.3332 74.8057V56.9186C83.3332 54.6174 85.1987 52.752 87.4999 52.752H95.8332L95.8332 48.5846ZM95.8332 56.9186H87.4999V75.6686V76.5316L86.8897 77.1418L64.5525 99.4789C61.9043 102.127 60.4165 105.719 60.4165 109.464V110.044C60.4165 117.522 66.4794 123.585 73.9582 123.585H74.9999C81.9034 123.585 87.4999 117.989 87.4999 111.085V84.002C87.4999 81.7008 89.3654 79.8353 91.6665 79.8353H95.8332V56.9186ZM104.167 52.75H129.167V73.5833H104.167V52.75Z" fill="black"/>
<path d="M70.0746 158.054C69.064 157.627 68.3272 157.043 67.8634 156.302C67.4092 155.55 67.1822 154.731 67.1822 153.841C67.1822 152.321 67.7098 151.065 68.7668 150.072C69.8327 149.081 71.3447 148.585 73.3005 148.585C75.2386 148.585 76.7397 149.081 77.8058 150.072C78.8818 151.064 79.4193 152.321 79.4193 153.841C79.4193 154.787 79.174 155.63 78.682 156.372C78.1904 157.104 77.4998 157.665 76.6099 158.054C77.7409 158.509 78.5986 159.172 79.1826 160.043C79.7761 160.914 80.0733 161.919 80.0733 163.061C80.0733 164.943 79.4706 166.472 78.2654 167.65C77.0698 168.827 75.4742 169.416 73.4808 169.416C71.6265 169.416 70.0829 168.93 68.8501 167.957C67.3945 166.806 66.6667 165.23 66.6667 163.228C66.6667 162.124 66.9403 161.114 67.4874 160.196C68.035 159.268 68.8974 158.554 70.0746 158.054ZM70.8809 154.118C70.8809 154.897 71.0992 155.504 71.5349 155.94C71.98 156.376 72.5683 156.594 73.3012 156.594C74.0424 156.594 74.6367 156.376 75.0811 155.94C75.5261 155.494 75.7485 154.883 75.7485 154.104C75.7485 153.373 75.5261 152.788 75.0811 152.353C74.645 151.908 74.0658 151.685 73.3428 151.685C72.5917 151.685 71.9943 151.908 71.5487 152.353C71.1038 152.797 70.8809 153.385 70.8809 154.118ZM70.5196 162.852C70.5196 163.928 70.7937 164.766 71.3403 165.368C71.8972 165.971 72.5873 166.272 73.4118 166.272C74.2181 166.272 74.8864 165.985 75.4145 165.41C75.9432 164.826 76.2076 163.987 76.2076 162.893C76.2076 161.938 75.9385 161.173 75.4013 160.598C74.8638 160.014 74.1823 159.722 73.3573 159.722C72.4017 159.722 71.6878 160.052 71.2157 160.71C70.7511 161.369 70.5196 162.082 70.5196 162.852ZM89.1821 148.583C91.157 148.583 92.7007 149.288 93.8133 150.697C95.1387 152.366 95.8017 155.133 95.8017 158.999C95.8017 162.856 95.1348 165.628 93.7993 167.315C92.696 168.706 91.157 169.401 89.1821 169.401C87.1982 169.401 85.5991 168.641 84.3845 167.12C83.1699 165.591 82.5626 162.87 82.5626 158.958C82.5626 155.12 83.2299 152.356 84.5654 150.669C85.6684 149.279 87.2076 148.583 89.1821 148.583ZM89.1821 151.824C88.7095 151.824 88.2877 151.977 87.9169 152.283C87.5458 152.58 87.2585 153.118 87.0547 153.897C86.7859 154.907 86.6512 156.608 86.6512 159C86.6512 161.392 86.7719 163.038 87.0129 163.937C87.2546 164.827 87.5559 165.42 87.9169 165.716C88.2877 166.013 88.7095 166.162 89.1821 166.162C89.6552 166.162 90.0769 166.013 90.4478 165.716C90.8189 165.41 91.1059 164.868 91.3099 164.089C91.5788 163.088 91.7132 161.391 91.7132 158.999C91.7132 156.608 91.5925 154.967 91.3517 154.076C91.1098 153.177 90.8046 152.579 90.4337 152.282C90.0725 151.977 89.6552 151.824 89.1821 151.824ZM105.036 148.583C107.01 148.583 108.554 149.288 109.667 150.697C110.992 152.366 111.655 155.133 111.655 158.999C111.655 162.856 110.988 165.628 109.653 167.315C108.549 168.706 107.01 169.401 105.036 169.401C103.052 169.401 101.452 168.641 100.238 167.12C99.0235 165.591 98.4162 162.87 98.4162 158.958C98.4162 155.12 99.0832 152.356 100.419 150.669C101.522 149.279 103.06 148.583 105.036 148.583ZM105.036 151.824C104.563 151.824 104.141 151.977 103.77 152.283C103.399 152.58 103.112 153.118 102.908 153.897C102.639 154.907 102.504 156.608 102.504 159C102.504 161.392 102.625 163.038 102.866 163.937C103.108 164.827 103.409 165.42 103.77 165.716C104.141 166.013 104.563 166.162 105.036 166.162C105.508 166.162 105.93 166.013 106.301 165.716C106.672 165.41 106.959 164.868 107.163 164.089C107.432 163.088 107.567 161.391 107.567 158.999C107.567 156.608 107.446 154.967 107.205 154.076C106.964 153.177 106.658 152.579 106.287 152.282C105.926 151.977 105.508 151.824 105.036 151.824ZM115.229 154.285H120.068L123.74 164.576L127.439 154.285H132.264V169.054H128.941V159.333L125.338 169.054H122.002L118.567 159.333V169.054H115.23L115.229 154.285Z" fill="white"/>
</svg>
