<svg width="200" height="201" viewBox="0 0 200 201" fill="none" xmlns="http://www.w3.org/2000/svg">
<rect x="36.9792" y="12.3128" width="126.042" height="176.042" rx="8.85417" fill="white" stroke="#13141A" stroke-width="1.04167"/>
<rect x="41.6667" y="17" width="116.667" height="166.667" rx="4.16667" fill="#1071AF"/>
<rect x="50" y="33.6663" width="100" height="100" rx="4.16667" fill="white"/>
<path d="M71.3775 103.803H77.0893L83.7646 74.9178H83.9023L90.5776 103.803H96.2895L105.167 63.5314H99.0192L93.2615 93.9232H93.1468L86.5174 63.5314H81.1496L74.5201 93.9232H74.4054L68.6477 63.5314H62.5L71.3775 103.803Z" fill="black"/>
<path d="M123.369 104.5C130.985 104.5 136.605 98.7792 137.454 90.5184L137.5 90.2393H131.696L131.628 90.5184C130.549 95.4861 127.59 98.249 123.369 98.249C117.612 98.249 113.896 92.6115 113.896 83.6531V83.6251C113.896 74.6946 117.589 69.0851 123.369 69.0851C127.682 69.0851 130.595 71.9596 131.559 76.5644L131.673 77.0947H137.477L137.454 76.8156C136.582 68.6106 130.985 62.8337 123.369 62.8337C113.873 62.8337 107.84 70.7596 107.84 83.6251V83.6531C107.84 96.5187 113.85 104.5 123.369 104.5Z" fill="black"/>
</svg>
