<svg width="200" height="200" viewBox="0 0 200 200" fill="none" xmlns="http://www.w3.org/2000/svg">
<circle cx="100" cy="100.001" r="82.8125" fill="white" stroke="#05081B" stroke-width="1.04167"/>
<circle cx="100" cy="100" r="71.875" stroke="#FF0E00" stroke-width="12.5"/>
<path fill-rule="evenodd" clip-rule="evenodd" d="M74.9867 70.1777L68.0934 89.3337H65.6944C62.7796 89.3337 60.4167 91.7215 60.4167 94.667V113.334C60.4167 116.279 62.7796 118.667 65.6944 118.667H67.0139V128C67.0139 130.946 69.3768 133.334 72.2917 133.334H76.25C79.1648 133.334 81.5278 130.946 81.5278 128V118.667H118.472V128C118.472 130.946 120.835 133.334 123.75 133.334H127.708C130.623 133.334 132.986 130.946 132.986 128V118.667H134.306C137.22 118.667 139.583 116.279 139.583 113.334V94.667C139.583 91.7215 137.22 89.3337 134.306 89.3337H131.907L125.013 70.1777C124.255 68.07 122.273 66.667 120.053 66.667H79.9467C77.7274 66.667 75.7451 68.07 74.9867 70.1777ZM80.8709 73.3337L75.1133 89.3337H124.887L119.129 73.3337H80.8709ZM81.5278 104C81.5278 106.946 79.1648 109.334 76.25 109.334C73.3352 109.334 70.9722 106.946 70.9722 104C70.9722 101.055 73.3352 98.667 76.25 98.667C79.1648 98.667 81.5278 101.055 81.5278 104ZM123.75 109.334C126.665 109.334 129.028 106.946 129.028 104C129.028 101.055 126.665 98.667 123.75 98.667C120.835 98.667 118.472 101.055 118.472 104C118.472 106.946 120.835 109.334 123.75 109.334Z" fill="black"/>
</svg>
