<svg width="204" height="201" viewBox="0 0 204 201" fill="none" xmlns="http://www.w3.org/2000/svg">
<rect x="202.518" y="41.3991" width="117.707" height="201.039" rx="8.85404" transform="rotate(90 202.518 41.3991)" fill="white" stroke="#13141A" stroke-width="1.04165"/>
<rect x="197.31" y="46.6077" width="107.29" height="190.622" rx="3.64578" transform="rotate(90 197.31 46.6077)" stroke="black" stroke-width="1.04165"/>
<path d="M33.158 78.8013C33.158 75.4594 33.6578 72.6545 34.6574 70.3868C35.4034 68.7158 36.4179 67.2164 37.701 65.8885C38.999 64.5607 40.4163 63.576 41.953 62.9345C43.997 62.0691 46.3543 61.6365 49.0249 61.6365C53.8588 61.6365 57.7229 63.1359 60.6173 66.1347C63.5266 69.1335 64.9813 73.3035 64.9813 78.6447C64.9813 83.9411 63.5415 88.0887 60.6621 91.0875C57.7826 94.0714 53.9334 95.5634 49.1144 95.5634C44.2357 95.5634 40.3567 94.0789 37.4772 91.1099C34.5977 88.126 33.158 84.0232 33.158 78.8013ZM39.9837 78.5776C39.9837 82.2925 40.8415 85.1123 42.5573 87.0369C44.273 88.9466 46.4513 89.9014 49.092 89.9014C51.7328 89.9014 53.8961 88.9541 55.582 87.0593C57.2828 85.1496 58.1332 82.2925 58.1332 78.488C58.1332 74.7283 57.3052 71.9235 55.6491 70.0734C54.008 68.2234 51.8223 67.2984 49.092 67.2984C46.3618 67.2984 44.1611 68.2383 42.4901 70.1182C40.8192 71.9831 39.9837 74.8029 39.9837 78.5776ZM88.6137 95.0039H70.6208V101.27H65.5184V89.8567H68.092C69.1662 88.6631 70.0539 86.7982 70.7551 84.2619C71.4563 81.7256 71.8741 77.384 72.0084 71.2372H91.1874V89.8567H93.7386V101.27H88.6137V95.0039ZM84.9659 89.8567L84.9883 76.4068H77.3794C77.1257 82.9713 76.0814 87.4546 74.2463 89.8567H84.9659ZM111.821 87.4397L118.087 88.4916C117.282 90.7892 116.006 92.5422 114.26 93.7507C112.53 94.9442 110.359 95.541 107.748 95.541C103.615 95.541 100.557 94.1908 98.5725 91.4904C97.006 89.327 96.2227 86.5968 96.2227 83.2996C96.2227 79.3608 97.2521 76.28 99.311 74.0569C101.37 71.819 103.973 70.7001 107.121 70.7001C110.657 70.7001 113.447 71.8712 115.491 74.2136C117.535 76.541 118.512 80.1143 118.423 84.9333H102.668C102.713 86.7982 103.22 88.2528 104.19 89.2972C105.159 90.3266 106.368 90.8414 107.815 90.8414C108.8 90.8414 109.628 90.5728 110.299 90.0357C110.971 89.4986 111.478 88.6333 111.821 87.4397ZM112.179 81.084C112.134 79.2638 111.664 77.8838 110.769 76.9439C109.874 75.989 108.785 75.5116 107.502 75.5116C106.129 75.5116 104.995 76.0114 104.1 77.011C103.205 78.0106 102.765 79.3683 102.78 81.084H112.179ZM143.667 78.2642L137.468 79.3832C137.259 78.1449 136.781 77.2124 136.035 76.5858C135.304 75.9592 134.349 75.6459 133.171 75.6459C131.604 75.6459 130.351 76.1904 129.411 77.2796C128.486 78.3538 128.024 80.159 128.024 82.6953C128.024 85.5151 128.494 87.5069 129.433 88.6706C130.388 89.8343 131.664 90.4162 133.26 90.4162C134.454 90.4162 135.431 90.0805 136.192 89.4091C136.953 88.7228 137.49 87.5516 137.803 85.8956L143.98 86.9474C143.338 89.7821 142.108 91.923 140.287 93.3702C138.467 94.8174 136.028 95.541 132.969 95.541C129.493 95.541 126.718 94.4444 124.644 92.2513C122.585 90.0581 121.556 87.022 121.556 83.1429C121.556 79.2191 122.593 76.1681 124.667 73.9898C126.74 71.7966 129.545 70.7001 133.081 70.7001C135.976 70.7001 138.273 71.3267 139.974 72.5799C141.69 73.8182 142.921 75.713 143.667 78.2642ZM153.737 78.488L148.031 77.4586C148.672 75.161 149.776 73.4602 151.343 72.3561C152.909 71.2521 155.237 70.7001 158.325 70.7001C161.13 70.7001 163.219 71.0358 164.591 71.7071C165.964 72.3636 166.926 73.2065 167.478 74.236C168.045 75.2505 168.329 77.1229 168.329 79.8532L168.261 87.1936C168.261 89.2823 168.358 90.8265 168.552 91.8261C168.761 92.8107 169.142 93.87 169.694 95.0039H163.472C163.308 94.5862 163.107 93.967 162.868 93.1464C162.764 92.7734 162.689 92.5273 162.644 92.4079C161.57 93.4523 160.421 94.2356 159.198 94.7577C157.974 95.2799 156.669 95.541 155.281 95.541C152.835 95.541 150.903 94.8771 149.485 93.5493C148.083 92.2214 147.382 90.543 147.382 88.5139C147.382 87.1712 147.702 85.9776 148.344 84.9333C148.985 83.874 149.881 83.0683 151.029 82.5163C152.193 81.9494 153.864 81.457 156.042 81.0393C158.981 80.4872 161.018 79.9725 162.152 79.4951V78.8685C162.152 77.66 161.853 76.8021 161.257 76.2949C160.66 75.7727 159.534 75.5116 157.877 75.5116C156.758 75.5116 155.886 75.7354 155.259 76.183C154.632 76.6156 154.125 77.384 153.737 78.488ZM162.152 83.5905C161.346 83.8591 160.071 84.1798 158.325 84.5528C156.579 84.9258 155.438 85.2913 154.901 85.6494C154.08 86.2312 153.67 86.9698 153.67 87.8649C153.67 88.7452 153.998 89.5061 154.655 90.1476C155.311 90.7892 156.147 91.1099 157.161 91.1099C158.295 91.1099 159.377 90.7369 160.406 89.991C161.167 89.424 161.667 88.7303 161.906 87.9097C162.07 87.3726 162.152 86.3506 162.152 84.8437V83.5905Z" fill="black"/>
<path d="M36.6908 124.789C36.6908 122.51 37.0316 120.598 37.7132 119.052C38.2218 117.912 38.9135 116.89 39.7883 115.985C40.6733 115.079 41.6397 114.408 42.6875 113.97C44.0811 113.38 45.6883 113.085 47.5092 113.085C50.805 113.085 53.4397 114.108 55.4131 116.152C57.3967 118.197 58.3885 121.04 58.3885 124.682C58.3885 128.293 57.4069 131.121 55.4436 133.166C53.4803 135.2 50.8559 136.217 47.5702 136.217C44.2438 136.217 41.599 135.205 39.6357 133.181C37.6725 131.146 36.6908 128.349 36.6908 124.789ZM41.3447 124.636C41.3447 127.169 41.9296 129.092 43.0994 130.404C44.2693 131.706 45.7544 132.357 47.5549 132.357C49.3554 132.357 50.8304 131.711 51.9799 130.419C53.1396 129.117 53.7194 127.169 53.7194 124.575C53.7194 122.012 53.1548 120.099 52.0257 118.838C50.9067 117.577 49.4165 116.946 47.5549 116.946C45.6934 116.946 44.193 117.587 43.0537 118.868C41.9144 120.14 41.3447 122.063 41.3447 124.636ZM76.7598 135.836H72.7773V133.456C72.1161 134.381 71.3329 135.073 70.4275 135.531C69.5324 135.978 68.627 136.202 67.7115 136.202C65.85 136.202 64.2529 135.454 62.9203 133.959C61.5979 132.454 60.9367 130.358 60.9367 127.673C60.9367 124.926 61.5826 122.841 62.8745 121.417C64.1664 119.982 65.7991 119.265 67.7725 119.265C69.5832 119.265 71.1498 120.018 72.4722 121.523V113.467H76.7598V135.836ZM65.3159 127.383C65.3159 129.112 65.555 130.363 66.0331 131.136C66.7248 132.255 67.6912 132.815 68.9322 132.815C69.9189 132.815 70.7581 132.398 71.4498 131.564C72.1416 130.719 72.4874 129.463 72.4874 127.795C72.4874 125.933 72.1517 124.595 71.4804 123.782C70.809 122.958 69.9494 122.546 68.9017 122.546C67.8844 122.546 67.0299 122.953 66.3382 123.766C65.6567 124.57 65.3159 125.775 65.3159 127.383ZM90.3857 130.679L94.6581 131.396C94.1088 132.962 93.2391 134.157 92.0489 134.981C90.8689 135.795 89.3888 136.202 87.6087 136.202C84.7909 136.202 82.7056 135.282 81.3527 133.44C80.2846 131.965 79.7505 130.104 79.7505 127.856C79.7505 125.17 80.4524 123.07 81.8562 121.554C83.26 120.028 85.0351 119.265 87.1814 119.265C89.5923 119.265 91.4945 120.064 92.8881 121.661C94.2817 123.248 94.948 125.684 94.887 128.97H84.145C84.1755 130.241 84.5213 131.233 85.1826 131.945C85.8438 132.647 86.6677 132.998 87.6544 132.998C88.3258 132.998 88.8904 132.815 89.3481 132.449C89.8059 132.082 90.1518 131.492 90.3857 130.679ZM90.6299 126.345C90.5993 125.104 90.2789 124.163 89.6686 123.522C89.0582 122.871 88.3156 122.546 87.4408 122.546C86.505 122.546 85.7319 122.887 85.1215 123.568C84.5112 124.25 84.2111 125.175 84.2213 126.345H90.6299ZM96.8859 131.213L101.189 130.556C101.372 131.391 101.743 132.026 102.303 132.464C102.862 132.891 103.645 133.105 104.652 133.105C105.761 133.105 106.595 132.901 107.155 132.494C107.531 132.209 107.719 131.828 107.719 131.35C107.719 131.024 107.618 130.755 107.414 130.541C107.201 130.338 106.723 130.15 105.98 129.977C102.521 129.214 100.329 128.517 99.4035 127.886C98.1218 127.011 97.481 125.796 97.481 124.239C97.481 122.836 98.0354 121.656 99.1441 120.699C100.253 119.743 101.972 119.265 104.302 119.265C106.519 119.265 108.167 119.626 109.245 120.348C110.324 121.071 111.066 122.139 111.473 123.553L107.43 124.3C107.257 123.67 106.926 123.187 106.438 122.851C105.96 122.515 105.273 122.347 104.378 122.347C103.249 122.347 102.44 122.505 101.952 122.82C101.626 123.044 101.463 123.334 101.463 123.69C101.463 123.995 101.606 124.255 101.891 124.468C102.277 124.753 103.61 125.155 105.888 125.674C108.177 126.193 109.774 126.828 110.68 127.581C111.575 128.344 112.022 129.407 112.022 130.77C112.022 132.255 111.402 133.532 110.161 134.6C108.92 135.668 107.084 136.202 104.652 136.202C102.445 136.202 100.695 135.755 99.4035 134.859C98.1218 133.964 97.2826 132.749 96.8859 131.213ZM118.996 124.575L115.105 123.873C115.542 122.307 116.295 121.147 117.363 120.394C118.431 119.642 120.018 119.265 122.124 119.265C124.036 119.265 125.46 119.494 126.396 119.952C127.332 120.399 127.988 120.974 128.364 121.676C128.751 122.368 128.944 123.644 128.944 125.506L128.898 130.511C128.898 131.935 128.964 132.988 129.097 133.669C129.239 134.341 129.499 135.063 129.875 135.836H125.633C125.521 135.551 125.384 135.129 125.221 134.569C125.15 134.315 125.099 134.147 125.068 134.066C124.336 134.778 123.553 135.312 122.719 135.668C121.884 136.024 120.994 136.202 120.048 136.202C118.38 136.202 117.063 135.749 116.096 134.844C115.14 133.939 114.662 132.794 114.662 131.411C114.662 130.495 114.881 129.682 115.318 128.97C115.756 128.247 116.366 127.698 117.149 127.322C117.943 126.935 119.082 126.599 120.567 126.315C122.571 125.938 123.96 125.587 124.733 125.262V124.835C124.733 124.011 124.529 123.426 124.122 123.08C123.716 122.724 122.948 122.546 121.818 122.546C121.055 122.546 120.46 122.698 120.033 123.003C119.606 123.298 119.26 123.822 118.996 124.575ZM124.733 128.054C124.183 128.237 123.314 128.456 122.124 128.71C120.933 128.964 120.155 129.214 119.789 129.458C119.229 129.855 118.95 130.358 118.95 130.968C118.95 131.569 119.174 132.087 119.621 132.525C120.069 132.962 120.638 133.181 121.33 133.181C122.103 133.181 122.841 132.927 123.543 132.418C124.061 132.031 124.402 131.558 124.565 130.999C124.677 130.633 124.733 129.936 124.733 128.909V128.054Z" fill="black"/>
</svg>
