<svg width="200" height="201" viewBox="0 0 200 201" fill="none" xmlns="http://www.w3.org/2000/svg">
<path d="M20.4651 67.1732L20.3125 67.3258V67.5415V133.126V133.342L20.4651 133.494L66.8396 179.869L66.9921 180.021H67.2079H132.792H133.008L133.16 179.869L179.535 133.494L179.688 133.342V133.126V67.5415V67.3258L179.535 67.1732L133.16 20.7987L133.008 20.6462H132.792H67.2079H66.9921L66.8396 20.7987L20.4651 67.1732Z" fill="#FF0E00" stroke="black" stroke-width="1.04167"/>
<path d="M22.9167 132.263V68.4044L68.0708 23.2503H131.929L177.083 68.4045V132.263L131.929 177.417H68.0708L22.9167 132.263Z" fill="#FF0E00" stroke="white" stroke-width="4.16667"/>
<path d="M49.9353 121.167C58.8498 121.167 64.2715 116.5 64.2715 109.15V109.122C64.2715 102.89 60.935 99.5089 53.1674 97.7484L49.049 96.8262C44.3572 95.7363 42.2198 93.8919 42.2198 90.8738V90.8459C42.2198 87.3247 45.1913 84.9494 49.8571 84.9214C54.3143 84.9214 57.338 87.185 57.8593 90.9297L57.8853 91.3209H63.5677L63.5416 90.8459C63.1506 84.0831 57.7811 79.5 49.9353 79.5C41.9852 79.5 36.3289 84.2228 36.3029 91.0974V91.1253C36.3029 97.1056 39.8739 100.739 47.2505 102.415L51.3428 103.337C56.3214 104.511 58.3806 106.272 58.3806 109.513V109.541C58.3806 113.314 55.2006 115.745 50.1699 115.745C45.1392 115.745 41.6724 113.426 41.1511 109.709L41.099 109.346H35.4166L35.4427 109.765C35.9119 116.863 41.49 121.167 49.9353 121.167Z" fill="white"/>
<path d="M78.142 120.496H83.9808V85.5642H95.4758V80.1707H66.6209V85.5642H78.142V120.496Z" fill="white"/>
<path d="M114.586 121.167C125.455 121.167 132.206 113.146 132.206 100.347V100.291C132.206 87.5203 125.429 79.5 114.586 79.5C103.768 79.5 96.9651 87.4924 96.9651 100.291V100.347C96.9651 113.174 103.742 121.167 114.586 121.167ZM114.586 115.633C107.444 115.633 102.908 109.737 102.908 100.347V100.291C102.908 90.9017 107.47 85.0332 114.586 85.0332C121.728 85.0332 126.237 90.9297 126.237 100.291V100.347C126.237 109.653 121.806 115.633 114.586 115.633Z" fill="white"/>
<path d="M138.1 120.496H143.939V106.719H152.098C159.474 106.719 164.583 101.325 164.583 93.4448V93.3889C164.583 85.4803 159.474 80.1707 152.098 80.1707H138.1V120.496ZM150.638 85.4524C155.721 85.4524 158.64 88.3867 158.64 93.4168V93.4727C158.64 98.5309 155.721 101.465 150.638 101.465H143.939V85.4524H150.638Z" fill="white"/>
</svg>
