<svg width="200" height="200" viewBox="0 0 200 200" fill="none" xmlns="http://www.w3.org/2000/svg">
<rect x="66.6666" y="16.6666" width="66.6667" height="166.667" fill="#05081B"/>
<path d="M115.156 16.6666H100.442L133.333 43.8745V31.703L115.156 16.6666Z" fill="white"/>
<path d="M133.333 61.4649L79.1771 16.6666H66.6666V18.4894L133.333 73.6365V61.4649Z" fill="white"/>
<path d="M133.333 91.2268L66.6666 36.0798V48.2513L133.333 103.398V91.2268Z" fill="white"/>
<path d="M133.333 120.989L66.6666 65.8417V78.0132L133.333 133.16V120.989Z" fill="white"/>
<path d="M133.333 150.751L66.6666 95.6036V107.775L133.333 162.922V150.751Z" fill="white"/>
<path d="M133.333 180.513L66.6666 125.365V137.537L122.029 183.333H133.333V180.513Z" fill="white"/>
<path d="M100.764 183.333L66.6666 155.127V167.299L86.0504 183.333H100.764Z" fill="white"/>
<rect x="67.1875" y="17.1875" width="65.625" height="165.625" stroke="#13141A" stroke-width="1.04167"/>
</svg>
