<svg width="200" height="201" viewBox="0 0 200 201" fill="none" xmlns="http://www.w3.org/2000/svg">
<rect x="30.7287" y="30.9128" width="138.54" height="138.54" rx="8.85404" fill="white" stroke="#13141A" stroke-width="1.04165"/>
<rect x="35.4161" y="35.6001" width="129.165" height="129.165" rx="4.16661" fill="#1071AF"/>
<path d="M79.1655 83.5186H106.82C110.428 83.5186 113.617 84.1667 116.389 85.4629C119.162 86.7591 121.483 88.4583 123.353 90.5603C125.257 92.6272 126.693 94.9569 127.662 97.5494C128.664 100.142 129.165 102.752 129.165 105.379C129.165 108.147 128.664 110.862 127.662 113.525C126.693 116.152 125.257 118.499 123.353 120.566C121.449 122.598 119.112 124.245 116.339 125.506C113.567 126.732 110.394 127.345 106.82 127.345H90.989V150.184H79.1655V83.5186ZM90.989 116.94H104.315C106.754 116.94 108.791 116.643 110.428 116.047C112.098 115.416 113.434 114.576 114.436 113.525C115.471 112.474 116.206 111.247 116.64 109.846C117.108 108.41 117.341 106.868 117.341 105.222C117.341 103.61 117.057 102.121 116.49 100.755C115.922 99.3536 115.087 98.1625 113.985 97.1815C112.882 96.1656 111.513 95.3773 109.876 94.8168C108.273 94.2563 106.42 93.976 104.315 93.976H90.989V116.94Z" fill="white"/>
<path d="M54.1658 66.8486L99.9985 50.1821L145.831 66.8486V75.1818L99.9985 58.5153L54.1658 75.1818V66.8486Z" fill="white"/>
</svg>
