<svg width="200" height="200" viewBox="0 0 200 200" fill="none" xmlns="http://www.w3.org/2000/svg">
<rect y="16.6664" width="200" height="166.667" fill="#68696C"/>
<path fill-rule="evenodd" clip-rule="evenodd" d="M77.2864 62.1156C74.0021 62.1156 71.2177 64.5306 70.7532 67.7818C70.3021 70.9392 72.1737 73.9673 75.1994 74.9759L78.9955 76.2413L69.7961 92.3404C66.9113 91.0233 63.7044 90.2893 60.3261 90.2893C47.7196 90.2893 37.5 100.509 37.5 113.115C37.5 125.722 47.7196 135.942 60.3261 135.942C72.9326 135.942 83.1522 125.722 83.1522 113.115C83.1522 105.377 79.3016 98.5384 73.4121 94.4105L75.8611 90.1247L102.949 114.657C103.332 115.004 103.83 115.196 104.347 115.196H116.941C117.992 126.827 127.769 135.942 139.674 135.942C152.28 135.942 162.5 125.722 162.5 113.115C162.5 100.509 152.28 90.2893 139.674 90.2893C135.736 90.2893 132.03 91.2866 128.797 93.0424L121.104 81.5029V74.9751L127.716 74.9751C128.867 74.9751 129.8 74.0424 129.8 72.8918C129.8 71.7412 128.867 70.8085 127.716 70.8085H119.023L119.021 70.8085L119.018 70.8085L109.238 70.8085C108.087 70.8085 107.155 71.7412 107.155 72.8918C107.155 74.0424 108.087 74.9751 109.238 74.9751L116.937 74.9751V80.051L81.6175 80.051L83.874 76.1021C84.1837 75.5602 84.2341 74.908 84.0113 74.3249C83.7885 73.7419 83.3161 73.2894 82.724 73.0921L76.517 71.0231C75.4016 70.6513 74.7117 69.535 74.878 68.371C75.0492 67.1725 76.0757 66.2823 77.2864 66.2823L88.0434 66.2823C89.194 66.2823 90.1268 65.3495 90.1268 64.1989C90.1268 63.0483 89.194 62.1156 88.0434 62.1156H77.2864ZM125.332 95.3565L119.327 86.3498L107.637 111.029H116.942C117.514 104.708 120.664 99.1308 125.332 95.3565ZM121.13 111.029C121.672 106.152 124.094 101.843 127.655 98.8415L135.78 111.029H121.13ZM121.129 115.196H139.673C140.442 115.196 141.147 114.773 141.51 114.096C141.873 113.418 141.833 112.596 141.407 111.957L131.12 96.5275C133.683 95.2037 136.591 94.456 139.674 94.456C149.979 94.456 158.333 102.81 158.333 113.115C158.333 123.421 149.979 131.775 139.674 131.775C130.072 131.775 122.164 124.522 121.129 115.196ZM60.3261 94.456C62.952 94.456 65.4512 94.9984 67.7178 95.9773L58.5172 112.078C57.9464 113.077 58.2934 114.35 59.2924 114.921C60.2914 115.492 61.564 115.145 62.1349 114.146L71.3339 98.0473C75.9727 101.442 78.9855 106.927 78.9855 113.115C78.9855 123.421 70.6314 131.775 60.3261 131.775C50.0208 131.775 41.6667 123.421 41.6667 113.115C41.6667 102.81 50.0208 94.456 60.3261 94.456ZM79.2366 84.2176L77.9779 86.4203L103.664 109.683L115.727 84.2176L79.2366 84.2176Z" fill="white"/>
</svg>
