<svg width="200" height="200" viewBox="0 0 200 200" fill="none" xmlns="http://www.w3.org/2000/svg">
<rect width="66.6667" height="166.667" transform="matrix(-1 0 0 1 133.333 16.6665)" fill="#05081B"/>
<path d="M84.844 16.6665H99.5581L66.6667 43.8744V31.7029L84.844 16.6665Z" fill="white"/>
<path d="M66.6667 61.4648L120.823 16.6665H133.333V18.4893L66.6667 73.6363V61.4648Z" fill="white"/>
<path d="M66.6667 91.2267L133.333 36.0796V48.2512L66.6667 103.398V91.2267Z" fill="white"/>
<path d="M66.6667 120.989L133.333 65.8415V78.0131L66.6667 133.16V120.989Z" fill="white"/>
<path d="M66.6667 150.751L133.333 95.6035V107.775L66.6667 162.922V150.751Z" fill="white"/>
<path d="M66.6667 180.512L133.333 125.365V137.537L77.9707 183.333H66.6667V180.512Z" fill="white"/>
<path d="M99.2355 183.333L133.333 155.127V167.299L113.95 183.333H99.2355Z" fill="white"/>
<rect x="-0.520833" y="0.520833" width="65.625" height="165.625" transform="matrix(-1 0 0 1 132.292 16.6665)" stroke="#13141A" stroke-width="1.04167"/>
</svg>
