<svg width="200" height="201" viewBox="0 0 200 201" fill="none" xmlns="http://www.w3.org/2000/svg">
<rect x="36.9786" y="12.7265" width="126.04" height="176.039" rx="8.85404" fill="white" stroke="#13141A" stroke-width="1.04165"/>
<rect x="41.6661" y="17.4138" width="116.665" height="166.664" rx="4.16661" fill="#1071AF"/>
<path fill-rule="evenodd" clip-rule="evenodd" d="M79.9639 78.4633L74.658 93.279H72.8114C70.5678 93.279 68.749 95.1258 68.749 97.404V111.841C68.749 114.119 70.5678 115.966 72.8114 115.966H73.827V123.185C73.827 125.463 75.6458 127.31 77.8895 127.31H80.9363C83.1799 127.31 84.9987 125.463 84.9987 123.185V115.966H113.436V123.185C113.436 125.463 115.255 127.31 117.498 127.31H120.545C122.789 127.31 124.608 125.463 124.608 123.185V115.966H125.623C127.867 115.966 129.686 114.119 129.686 111.841V97.404C129.686 95.1258 127.867 93.279 125.623 93.279H123.777L118.471 78.4633C117.887 76.8332 116.361 75.748 114.653 75.748H83.7817C82.0734 75.748 80.5477 76.8332 79.9639 78.4633ZM84.4931 80.9042L80.0613 93.279H118.373L113.941 80.9042H84.4931ZM84.9987 104.623C84.9987 106.901 83.1799 108.748 80.9363 108.748C78.6927 108.748 76.8738 106.901 76.8738 104.623C76.8738 102.344 78.6927 100.498 80.9363 100.498C83.1799 100.498 84.9987 102.344 84.9987 104.623ZM117.498 108.748C119.742 108.748 121.561 106.901 121.561 104.623C121.561 102.344 119.742 100.498 117.498 100.498C115.255 100.498 113.436 102.344 113.436 104.623C113.436 106.901 115.255 108.748 117.498 108.748Z" fill="white"/>
<path fill-rule="evenodd" clip-rule="evenodd" d="M158.331 24.6769L46.7503 184.078H45.8327C43.5315 184.078 41.6661 182.213 41.6661 179.911V175.807L152.541 17.4138H154.164C156.466 17.4138 158.331 19.2793 158.331 21.5804V24.6769Z" fill="#FF0E00"/>
</svg>
