<svg width="200" height="200" viewBox="0 0 200 200" fill="none" xmlns="http://www.w3.org/2000/svg">
<rect y="16.666" width="200" height="166.667" fill="#68696C"/>
<path d="M81.7571 41.666C87.836 41.666 92.7538 46.4588 92.7538 52.3784C92.7538 56.6862 90.13 60.3949 86.3592 62.0924L87.5492 83.4887H109.242C111.507 83.4887 113.328 85.3145 113.328 87.554V88.8947C113.328 91.1484 111.493 92.96 109.242 92.96H88.0799L88.4813 100.178H120.382C121.988 100.178 123.45 101.119 124.11 102.574L137.644 132.429L143.694 129.733C145.759 128.821 148.182 129.733 149.1 131.787L149.644 133.014C150.562 135.068 149.644 137.479 147.58 138.392L136.583 143.284C134.519 144.197 132.11 143.284 131.178 141.245L117.945 112.045C117.285 110.591 115.823 109.649 114.217 109.649H83.3342C81.1691 109.649 79.377 107.966 79.2481 105.798L76.8107 61.9069C73.2264 60.1382 70.7604 56.5293 70.7604 52.3499C70.7604 46.4588 75.6781 41.666 81.7571 41.666ZM66.5595 89.7507C67.8786 88.852 69.6707 89.7221 69.7567 91.3197L70.0722 96.8685C70.1439 98.0952 69.6564 99.279 68.7388 100.092C62.9895 105.313 59.4195 112.845 59.5342 121.203C59.7493 136.209 71.6636 148.319 86.7321 148.847C98.7755 149.261 109.227 142.115 113.658 131.83C114.36 130.204 116.669 130.204 117.4 131.816L119.808 137.122C120.368 138.363 120.282 139.818 119.536 140.973C112.826 151.4 101.084 158.333 87.7216 158.333C66.9324 158.333 49.9714 141.415 50 120.732C50.0142 107.866 56.5807 96.4976 66.5595 89.7507Z" fill="white"/>
</svg>
