<svg width="200" height="201" viewBox="0 0 200 201" fill="none" xmlns="http://www.w3.org/2000/svg">
<rect x="0.520833" y="-0.520833" width="138.542" height="138.542" rx="8.85417" transform="matrix(-1 0 0 1 169.792 31.583)" fill="white" stroke="#13141A" stroke-width="1.04167"/>
<rect x="-1.04167" y="1.04167" width="127.083" height="127.083" rx="3.125" transform="matrix(-1 0 0 1 162.5 35.75)" fill="white" stroke="#13141A" stroke-width="2.08333"/>
<path d="M62.838 140.091L58.7063 139.078C59.5957 135.47 62.1254 133.666 66.2954 133.666C68.7629 133.666 70.6232 134.24 71.8761 135.389C73.1385 136.528 73.7698 137.868 73.7698 139.41C73.7698 140.468 73.4828 141.426 72.909 142.282C72.3351 143.129 71.4744 143.875 70.3267 144.52C71.723 145.024 72.7703 145.739 73.4685 146.666C74.1667 147.583 74.5158 148.717 74.5158 150.067C74.5158 152.012 73.8367 153.585 72.4786 154.784C71.1301 155.983 69.1072 156.583 66.4102 156.583C64.2104 156.583 62.4745 156.2 61.2025 155.434C59.9305 154.658 58.974 153.212 58.3333 151.095L62.2211 149.75C62.6228 151.08 63.1536 151.942 63.8135 152.335C64.483 152.728 65.3055 152.924 66.281 152.924C67.62 152.924 68.5956 152.622 69.2077 152.017C69.8198 151.403 70.1258 150.702 70.1258 149.916C70.1258 149.009 69.7767 148.279 69.0786 147.724C68.3899 147.17 67.3474 146.893 65.9511 146.893H64.9899V143.552H65.4777C66.7784 143.552 67.7731 143.245 68.4617 142.63C69.1503 142.015 69.4946 141.199 69.4946 140.181C69.4946 139.375 69.2125 138.695 68.6482 138.141C68.0935 137.586 67.2948 137.309 66.2524 137.309C64.4734 137.309 63.3353 138.236 62.838 140.091Z" fill="black"/>
<path d="M77.2451 145.26C77.2451 143.003 77.5655 141.108 78.2063 139.577C78.6845 138.448 79.3348 137.435 80.1574 136.538C80.9894 135.641 81.898 134.976 82.8831 134.543C84.1934 133.958 85.7046 133.666 87.4165 133.666C90.5153 133.666 92.9924 134.679 94.8479 136.704C96.7129 138.73 97.6454 141.547 97.6454 145.155C97.6454 148.732 96.7224 151.534 94.8766 153.559C93.0307 155.575 90.5631 156.583 87.4739 156.583C84.3464 156.583 81.8598 155.58 80.0139 153.574C78.168 151.559 77.2451 148.788 77.2451 145.26ZM81.6207 145.109C81.6207 147.619 82.1706 149.523 83.2705 150.823C84.3704 152.113 85.7667 152.758 87.4596 152.758C89.1524 152.758 90.5392 152.118 91.62 150.838C92.7103 149.548 93.2554 147.619 93.2554 145.049C93.2554 142.509 92.7246 140.615 91.663 139.365C90.611 138.115 89.2098 137.49 87.4596 137.49C85.7093 137.49 84.2986 138.125 83.2274 139.395C82.1563 140.655 81.6207 142.56 81.6207 145.109Z" fill="black"/>
<path d="M101.235 156.205V134.044H105.482V142.766H113.803V134.044H118.049V156.205H113.803V146.515H105.482V156.205H101.235Z" fill="black"/>
<path d="M141.667 156.205H137.047L135.211 151.171H126.804L125.068 156.205H120.563L128.755 134.044H133.245L141.667 156.205ZM133.848 147.437L130.95 139.214L128.109 147.437H133.848Z" fill="black"/>
<circle cx="99.9999" cy="85.7497" r="41.6667" fill="#8F8F8F"/>
<path d="M98.1793 52.8433C98.1793 54.543 96.8511 55.9209 95.2128 55.9209C93.5745 55.9209 92.2463 54.543 92.2463 52.8433C92.2463 51.1435 93.5745 49.7656 95.2128 49.7656C96.8511 49.7656 98.1793 51.1435 98.1793 52.8433Z" fill="white"/>
<path d="M92.7847 82.7802L95.2574 72.3902L97.7301 82.7802C97.9602 83.7468 98.9124 84.3273 99.8383 84.0653C100.719 83.816 101.256 82.8921 101.056 81.9676L97.5564 65.7694L98.1497 62.0762L100.486 68.5823C100.748 69.311 101.546 69.6619 102.232 69.3503C102.858 69.0664 103.167 68.3306 102.941 67.6621L99.3966 57.1547C99.2716 56.7844 98.9348 56.5365 98.5566 56.5365H91.9582C91.5801 56.5365 91.2432 56.7844 91.1183 57.1547L87.5735 67.6621C87.348 68.3306 87.657 69.0664 88.2824 69.3503C88.9691 69.6619 89.7672 69.311 90.0288 68.5823L92.3651 62.0762L92.9584 65.7694L89.4589 81.9676C89.2592 82.8921 89.7955 83.816 90.6765 84.0653C91.6024 84.3273 92.5546 83.7468 92.7847 82.7802Z" fill="white"/>
<path d="M110.961 68.8258C110.852 68.6474 110.663 68.5393 110.46 68.5393L107.155 68.5393C106.852 68.5393 106.552 68.5928 106.266 68.6975L101.656 70.3869C101.182 70.5599 100.916 71.0833 101.047 71.5872C101.184 72.1152 101.705 72.4303 102.215 72.2937L106.698 71.0942V75.3162L104.461 82.6721C104.271 83.2954 104.613 83.9554 105.236 84.1682C105.869 84.3845 106.561 84.0611 106.792 83.4408L108.71 78.3042L110.628 83.4408C110.859 84.0611 111.551 84.3845 112.184 84.1682C112.807 83.9554 113.149 83.2954 112.959 82.6721L110.722 75.3162V72.4643L112.873 75.6154C113.182 76.068 113.791 76.1635 114.215 75.8256C114.601 75.5178 114.698 74.9554 114.437 74.5284L110.961 68.8258Z" fill="white"/>
<path d="M108.859 67.9238C110.169 67.9238 111.232 66.8214 111.232 65.4616C111.232 64.1019 110.169 62.9995 108.859 62.9995C107.548 62.9995 106.485 64.1019 106.485 65.4616C106.485 66.8214 107.548 67.9238 108.859 67.9238Z" fill="white"/>
<path fill-rule="evenodd" clip-rule="evenodd" d="M91.6704 89.0723C90.3765 89.0723 89.2795 90.0237 89.0965 91.3046C88.9188 92.5486 89.6561 93.7416 90.8482 94.1389L92.0317 94.5335L88.7581 100.262C87.7442 99.8261 86.6269 99.5845 85.4532 99.5845C80.8306 99.5845 77.0833 103.332 77.0833 107.954C77.0833 112.577 80.8306 116.324 85.4532 116.324C90.0758 116.324 93.8232 112.577 93.8232 107.954C93.8232 105.181 92.4744 102.723 90.397 101.2L91.1937 99.8056L100.961 108.651C101.071 108.751 101.203 108.823 101.345 108.862C101.436 108.887 101.529 108.898 101.621 108.895H106.229C106.697 113.075 110.242 116.324 114.547 116.324C119.169 116.324 122.917 112.577 122.917 107.954C122.917 103.332 119.169 99.5845 114.547 99.5845C113.168 99.5845 111.867 99.9179 110.72 100.508L107.92 96.308V94.1485H110.163C110.685 94.1485 111.107 93.7258 111.107 93.2045C111.107 92.6831 110.685 92.2604 110.163 92.2604L103.388 92.2604C102.866 92.2604 102.444 92.6831 102.444 93.2045C102.444 93.7258 102.866 94.1485 103.388 94.1485H106.032V95.6481H93.5694L94.2424 94.4704C94.3827 94.2248 94.4055 93.9293 94.3046 93.6651C94.2036 93.4009 93.9896 93.1958 93.7213 93.1064L91.4453 92.3477C91.1188 92.2389 90.9169 91.9123 90.9656 91.5716C91.0157 91.2209 91.3161 90.9604 91.6704 90.9604H95.6148C96.1362 90.9604 96.5589 90.5377 96.5589 90.0163C96.5589 89.4949 96.1362 89.0723 95.6148 89.0723H91.6704ZM109.15 101.556L107.115 98.5042L103.087 107.007H106.23C106.475 104.827 107.558 102.9 109.15 101.556ZM108.133 107.007C108.357 105.481 109.113 104.127 110.206 103.141L112.784 107.007H108.133ZM108.133 108.895H114.548C114.896 108.895 115.216 108.704 115.38 108.397C115.544 108.09 115.526 107.717 115.333 107.428L111.777 102.093C112.617 101.695 113.556 101.473 114.547 101.473C118.126 101.473 121.028 104.375 121.028 107.954C121.028 111.534 118.126 114.436 114.547 114.436C111.286 114.436 108.588 112.029 108.133 108.895ZM85.4532 101.473C86.2859 101.473 87.0819 101.63 87.8133 101.916L84.6317 107.484C84.373 107.936 84.5303 108.513 84.983 108.772C85.4356 109.03 86.0123 108.873 86.271 108.42L89.4523 102.853C90.964 104.04 91.9351 105.884 91.9351 107.954C91.9351 111.534 89.033 114.436 85.4532 114.436C81.8734 114.436 78.9713 111.534 78.9713 107.954C78.9713 104.375 81.8734 101.473 85.4532 101.473ZM92.4905 97.5362L92.1529 98.127L101.286 106.399L105.484 97.5362H92.4905Z" fill="white"/>
<path d="M162.5 37.8327H163.542V38.1662L37.4999 163.736V162.833H36.4583V161.833L161.97 36.791H162.5V37.8327Z" fill="black"/>
<path d="M36.4583 154.481V157.422L157.542 36.791H154.591L36.4583 154.481Z" fill="black"/>
<path d="M36.4583 147.13V150.07L150.163 36.791H147.211L36.4583 147.13Z" fill="black"/>
<path d="M49.1687 163.874H52.1205L163.542 52.87V49.9292L49.1687 163.874Z" fill="black"/>
<path d="M41.7892 163.874H44.741L163.542 45.5181V42.5773L41.7892 163.874Z" fill="black"/>
</svg>
