<svg width="200" height="201" viewBox="0 0 200 201" fill="none" xmlns="http://www.w3.org/2000/svg">
<rect x="0.520826" y="-0.520826" width="167.706" height="138.54" rx="8.85404" transform="matrix(-1 0 0 1 184.372 31.6338)" fill="white" stroke="#13141A" stroke-width="1.04165"/>
<rect width="158.331" height="129.165" rx="4.16661" transform="matrix(-1 0 0 1 179.164 35.8003)" fill="#1071AF"/>
<path fill-rule="evenodd" clip-rule="evenodd" d="M97.915 35.8003H102.082V52.7621H97.915V35.8003ZM97.915 58.4145H102.082V75.3762H97.915V58.4145ZM102.082 81.0299H97.915L97.915 97.9916H102.082V81.0299ZM97.915 102.773H102.082V119.735H97.915V102.773ZM97.915 125.384H102.082V142.345H97.915V125.384ZM102.082 148.004H97.915V164.965H102.082V148.004Z" fill="white"/>
<path d="M156.248 73.2987L129.165 73.2987L142.706 50.3823L156.248 73.2987Z" fill="white"/>
<path d="M70.8323 73.2987L43.7493 73.2987L57.2908 50.3823L70.8323 73.2987Z" fill="white"/>
<path d="M142.706 67.0479V164.963" stroke="white" stroke-width="10.4165"/>
<path d="M57.2908 67.0479V164.963" stroke="white" stroke-width="10.4165"/>
<circle cx="57.2908" cy="114.966" r="17.1872" fill="#1071AF" stroke="white" stroke-width="3.12495"/>
<path d="M51.7863 120.752C54.4718 120.752 56.3272 119.084 56.3272 116.626V116.61C56.3272 114.397 54.7159 112.793 52.4861 112.793C51.298 112.793 50.3296 113.274 49.8413 114.063H49.7925L50.0773 110.759H55.6192V108.806H48.1242L47.5871 115.699H49.7274C49.8657 115.455 50.0529 115.227 50.2889 115.048C50.6877 114.73 51.2004 114.551 51.8026 114.551C53.0721 114.551 53.9754 115.422 53.9835 116.659V116.675C53.9835 117.928 53.0802 118.807 51.7944 118.807C50.6633 118.807 49.8413 118.124 49.6704 117.237L49.6542 117.18H47.3837L47.3918 117.302C47.5383 119.263 49.231 120.752 51.7863 120.752ZM62.6663 120.752C65.6448 120.752 67.4514 118.417 67.4514 114.681V114.665C67.4514 110.93 65.6448 108.602 62.6663 108.602C59.6879 108.602 57.8813 110.93 57.8813 114.665V114.681C57.8813 118.417 59.6879 120.752 62.6663 120.752ZM62.6663 118.783C61.2015 118.783 60.3633 117.261 60.3633 114.681V114.665C60.3633 112.085 61.2015 110.572 62.6663 110.572C64.1312 110.572 64.9694 112.085 64.9694 114.665V114.681C64.9694 117.261 64.1312 118.783 62.6663 118.783Z" fill="white"/>
</svg>
