<svg width="200" height="201" viewBox="0 0 200 201" fill="none" xmlns="http://www.w3.org/2000/svg">
<rect x="1.56254" y="146.687" width="92.7084" height="196.875" rx="8.85417" transform="rotate(-90 1.56254 146.687)" fill="white" stroke="#13141A" stroke-width="1.04167"/>
<rect x="6.77083" y="141.479" width="82.2917" height="186.458" rx="3.64583" transform="rotate(-90 6.77083 141.479)" stroke="black" stroke-width="1.04167"/>
<path d="M16.6666 125.471H183.113V131.584H16.6666V125.471Z" fill="#1F1A17"/>
<rect x="47.9166" y="69.082" width="4.16667" height="29.1667" fill="black"/>
<path d="M14.5834 100.332L50 75.332L79.1667 107.624H93.75" stroke="black" stroke-width="4.16667"/>
<path fill-rule="evenodd" clip-rule="evenodd" d="M56.25 98.2494H6.25V114.916H33.58C34.0956 110.576 37.7887 107.21 42.268 107.21C46.7473 107.21 50.4404 110.576 50.9561 114.916H56.25V98.2494Z" fill="black"/>
<path fill-rule="evenodd" clip-rule="evenodd" d="M42.2706 123.59C46.4847 123.59 49.9009 120.174 49.9009 115.959C49.9009 111.745 46.4847 108.329 42.2706 108.329C38.0565 108.329 34.6403 111.745 34.6403 115.959C34.6403 120.174 38.0565 123.59 42.2706 123.59ZM42.2693 120.318C44.677 120.318 46.6289 118.366 46.6289 115.958C46.6289 113.55 44.677 111.599 42.2693 111.599C39.8616 111.599 37.9097 113.55 37.9097 115.958C37.9097 118.366 39.8616 120.318 42.2693 120.318Z" fill="black"/>
<path fill-rule="evenodd" clip-rule="evenodd" d="M80.4687 95.8491C81.9383 91.8484 86.2704 89.844 90.2711 91.3136C94.2712 92.783 96.2759 97.1153 94.8064 101.116C93.337 105.116 89.0044 107.121 85.0043 105.652C81.0035 104.182 78.9993 99.8493 80.4687 95.8491ZM83.5336 96.9749C82.694 99.2604 83.8442 101.747 86.1301 102.587C88.4159 103.426 90.902 102.275 91.7416 99.9899C92.5812 97.7041 91.4311 95.218 89.1453 94.3784C86.8594 93.5387 84.3732 94.689 83.5336 96.9749Z" fill="#1F1A17"/>
<path fill-rule="evenodd" clip-rule="evenodd" d="M154.165 106.29L147.851 89.2899C147.82 89.2223 147.784 89.1424 147.744 89.0527C147.361 88.2 146.583 86.4656 145.549 86.0858L120.041 76.7159C118.015 75.9718 116.192 76.5999 115.174 77.2865L104.591 84.4251C103.663 85.0266 102.154 85.1214 101.077 84.8443L81.2494 81.0391C80.4836 80.8753 78.5244 81.3941 78.0968 83.3598L76.8322 89.8521C76.5682 91.0522 77.5756 92.4833 78.1474 92.6933L80.4844 93.5517C82.6844 90.2921 86.8596 88.8776 90.7039 90.2897C95.276 91.9692 97.4725 96.9032 95.793 101.475L126.548 112.773C128.228 108.2 133.2 105.9 137.772 107.579C141.669 109.011 143.883 112.773 143.397 116.662L145.632 117.482C146.411 117.768 148.197 116.597 148.473 116.168L152.974 110.334C153.805 109.518 154.56 107.142 154.165 106.29ZM137.581 99.4318L110.618 89.5274C108.436 88.726 108.994 85.9238 110.463 84.8126L115.155 81.3477C116.625 80.2372 118.551 79.6481 120.266 80.2778L140.786 87.8157C140.956 87.8779 141.114 87.9324 141.261 87.9832C142.602 88.4464 143.044 88.5992 143.162 91.4591L143.305 95.403C143.462 98.3492 141.685 100.939 137.581 99.4318Z" fill="#1F1A17"/>
<path fill-rule="evenodd" clip-rule="evenodd" d="M127.537 113.139C129.007 109.138 133.339 107.134 137.34 108.604C141.34 110.073 143.345 114.405 141.876 118.406C140.406 122.406 136.073 124.411 132.073 122.942C128.072 121.472 126.068 117.139 127.537 113.139ZM130.603 114.265C129.763 116.55 130.913 119.037 133.199 119.877C135.484 120.716 137.972 119.565 138.811 117.28C139.651 114.994 138.499 112.508 136.214 111.668C133.928 110.828 131.442 111.979 130.603 114.265Z" fill="#1F1A17"/>
</svg>
