<svg width="204" height="200" viewBox="0 0 204 200" fill="none" xmlns="http://www.w3.org/2000/svg">
<rect x="202.521" y="49.4792" width="101.042" height="201.042" rx="8.85417" transform="rotate(90 202.521 49.4792)" fill="white" stroke="#13141A" stroke-width="1.04167"/>
<path d="M18.6667 125.797L32.6712 118.095L46.9533 126.072L46.8144 132.674H50.4196V126.072L61.6507 93.75L73.437 126.072V132.811H76.9035V126.21L82.4494 117.82L95.3446 117.957V114.519H105.051V117.957L117.946 118.095L123.354 125.934L123.492 132.949H127.374L127.236 124.284L140.27 112.318L153.026 124.697V133.087H156.632V107.092L171.052 99.5267L185.195 107.367L185.333 144.778L18.6667 145.19V125.797Z" fill="#1F1A17"/>
<path fill-rule="evenodd" clip-rule="evenodd" d="M189.704 54.1665L193.667 54.1665C195.968 54.1665 197.833 56.032 197.833 58.3332V59.5372C197.733 59.595 197.629 59.6491 197.523 59.6993L14.2923 145.833H10.3333C8.03212 145.833 6.16663 143.968 6.16663 141.667L6.16663 140.461C6.26703 140.403 6.37065 140.349 6.47739 140.299L189.704 54.1665Z" fill="#FF0E00"/>
<rect x="197.312" y="54.6873" width="90.625" height="190.625" rx="3.64583" transform="rotate(90 197.312 54.6873)" stroke="black" stroke-width="1.04167"/>
</svg>
