<svg width="200" height="201" viewBox="0 0 200 201" fill="none" xmlns="http://www.w3.org/2000/svg">
<rect x="0.520833" y="-0.520833" width="196.875" height="109.375" rx="8.85417" transform="matrix(-1 0 0 1 198.958 46.167)" fill="white" stroke="#13141A" stroke-width="1.04167"/>
<path d="M193.75 54.4997C193.75 52.1985 191.885 50.333 189.583 50.333H10.4167C8.11549 50.333 6.25 52.1985 6.25 54.4997V146.166C6.25 148.468 8.11549 150.333 10.4167 150.333H189.583C191.885 150.333 193.75 148.468 193.75 146.166V54.4997Z" fill="#1071AF"/>
<path d="M6.25 94.083H193.75" stroke="white" stroke-width="1.04167"/>
<path d="M162.818 135.75L181.25 123.25L162.818 110.75L162.818 117.893L6.25 117.893L6.25 128.607L162.818 128.607L162.818 135.75Z" fill="white"/>
<path fill-rule="evenodd" clip-rule="evenodd" d="M108.888 59.8573C109.071 58.5764 110.168 57.625 111.462 57.625H115.407C115.928 57.625 116.351 58.0477 116.351 58.569C116.351 59.0904 115.928 59.5131 115.407 59.5131H111.462C111.108 59.5131 110.807 59.7736 110.757 60.1244C110.709 60.465 110.911 60.7917 111.237 60.9005L113.513 61.6591C113.781 61.7486 113.995 61.9536 114.096 62.2178C114.197 62.482 114.174 62.7775 114.034 63.0231L113.361 64.2009H125.824V62.7012H123.179C122.658 62.7012 122.235 62.2786 122.235 61.7572C122.235 61.2358 122.658 60.8132 123.179 60.8132L129.955 60.8132C130.476 60.8132 130.899 61.2358 130.899 61.7572C130.899 62.2786 130.476 62.7012 129.955 62.7012H127.712V64.8607L130.512 69.0611C131.659 68.4706 132.96 68.1373 134.338 68.1373C138.961 68.1373 142.708 71.8846 142.708 76.5072C142.708 81.1298 138.961 84.8772 134.338 84.8772C130.034 84.8772 126.488 81.6278 126.021 77.4482H121.412C121.321 77.4507 121.228 77.4399 121.137 77.4147C120.995 77.3759 120.863 77.3042 120.752 77.2039L110.985 68.3583L110.189 69.7526C112.266 71.2756 113.615 73.7339 113.615 76.5072C113.615 81.1298 109.867 84.8772 105.245 84.8772C100.622 84.8772 96.8749 81.1298 96.8749 76.5072C96.8749 71.8846 100.622 68.1373 105.245 68.1373C106.419 68.1373 107.536 68.3789 108.55 68.815L111.823 63.0862L110.64 62.6917C109.448 62.2943 108.71 61.1013 108.888 59.8573ZM126.907 67.0569L128.942 70.1092C127.35 71.4529 126.267 73.3797 126.021 75.5601H122.879L126.907 67.0569ZM129.998 71.6933C128.904 72.6798 128.149 74.0335 127.925 75.5601H132.576L129.998 71.6933ZM134.34 77.4482H127.924C128.38 80.5821 131.078 82.9891 134.338 82.9891C137.918 82.9891 140.82 80.0871 140.82 76.5072C140.82 72.9274 137.918 70.0254 134.338 70.0254C133.347 70.0254 132.408 70.2478 131.568 70.6454L135.125 75.9805C135.318 76.2702 135.336 76.6426 135.172 76.9496C135.008 77.2565 134.688 77.4482 134.34 77.4482ZM107.605 70.4684C106.874 70.1824 106.078 70.0254 105.245 70.0254C101.665 70.0254 98.763 72.9274 98.763 76.5072C98.763 80.0871 101.665 82.9891 105.245 82.9891C108.825 82.9891 111.727 80.0871 111.727 76.5072C111.727 74.4364 110.756 72.5924 109.244 71.4057L106.063 76.973C105.804 77.4257 105.227 77.583 104.775 77.3243C104.322 77.0656 104.165 76.489 104.423 76.0363L107.605 70.4684ZM111.945 66.6797L112.282 66.0889H125.276L121.078 74.9515L111.945 66.6797ZM70.2025 59.7077L58.3332 72.2077L70.2025 84.7077H79.1029L70.1333 75.2614L92.7082 75.2614V69.1539L70.1333 69.1539L79.1029 59.7077L70.2025 59.7077Z" fill="white"/>
</svg>
