<svg width="200" height="201" viewBox="0 0 200 201" fill="none" xmlns="http://www.w3.org/2000/svg">
<path d="M25.6863 169.604H174.314C181.678 169.604 186.263 161.631 182.525 155.302L108.211 29.4896C104.527 23.253 95.4727 23.253 91.7889 29.4896L17.4753 155.302C13.7367 161.631 18.3214 169.604 25.6863 169.604Z" fill="#FF0E00" stroke="black" stroke-width="1.04167"/>
<path d="M174.314 167H25.6863C20.3188 167 17.0139 161.204 19.7175 156.626L94.0312 30.814C96.707 26.2838 103.293 26.2838 105.969 30.814L180.282 156.626C182.986 161.204 179.681 167 174.314 167Z" fill="#FF0E00" stroke="white" stroke-width="4.16667"/>
<path fill-rule="evenodd" clip-rule="evenodd" d="M164.062 154.502L99.9999 45.7646L35.9374 154.502H164.062Z" fill="white"/>
<path fill-rule="evenodd" clip-rule="evenodd" d="M80.4888 96.3186C79.6779 96.6848 78.9294 97.4836 78.6331 97.9306L75.663 101.338L69.3145 108.888C68.658 109.397 68.6038 111.619 68.998 112.475L70.6659 117.991C70.7894 118.441 71.8897 119.736 72.4469 119.741L74.3299 119.907C74.9186 117.454 76.7636 115.33 79.3075 114.61C81.8515 113.891 84.3964 114.773 86.1243 116.57C87.4593 117.862 87.7417 119.503 88.0448 121.264L88.0786 121.46C88.0781 121.485 88.0882 121.508 88.0982 121.531C88.1083 121.555 88.1184 121.578 88.1179 121.603L102.847 121.712L113.92 121.612C113.896 118.462 116.002 115.503 119.121 114.62C122.831 113.571 126.647 115.817 127.68 119.582C127.698 119.649 127.718 119.713 127.738 119.777C127.776 119.904 127.814 120.027 127.838 120.159L128.975 119.837C129.532 119.841 130.6 119.099 130.667 118.192L131.198 112.599C131.526 110.892 130.229 110.087 129.481 109.975L117.268 107.6L114.658 107.017C113.871 106.755 112.466 106.262 112.154 105.703L106.298 98.0317C105.735 97.1412 104.592 96.0368 102.887 96.1982L95.8562 96.2445L81.2898 96.1666C81.0285 96.1609 80.7592 96.1973 80.4888 96.3186ZM83.096 98.8471C83.535 98.6745 84.0137 98.6791 84.5589 98.6844C84.7139 98.6859 84.8744 98.6874 85.0408 98.685L96.5498 98.7722L101.737 98.7027C103.188 98.7773 104.31 99.788 105.176 100.916L107.774 105.079C108.546 106.154 108.216 108.395 106.374 108.351L99.1997 108.438L83.4902 108.372C80.0363 108.544 79.4517 105.851 80.3293 103.826L81.5754 100.832C82.0339 99.6103 82.5315 99.0665 83.096 98.8471Z" fill="black"/>
<path fill-rule="evenodd" clip-rule="evenodd" d="M119.416 115.471C116.236 116.371 114.288 119.755 115.174 122.985C116.061 126.214 119.449 128.091 122.632 127.191C125.813 126.291 127.682 122.926 126.796 119.697C125.91 116.467 122.597 114.571 119.416 115.471ZM120.133 118.084C121.904 117.583 123.65 118.651 124.143 120.447C124.636 122.243 123.683 124.075 121.914 124.575C120.146 125.076 118.32 124.03 117.828 122.234C117.335 120.438 118.362 118.585 120.133 118.084Z" fill="black"/>
<path fill-rule="evenodd" clip-rule="evenodd" d="M75.1729 122.918C74.2867 119.689 76.2342 116.305 79.4147 115.405C82.5951 114.505 85.9083 116.401 86.7945 119.631C87.6806 122.86 85.8133 126.224 82.6306 127.125C79.4479 128.025 76.0591 126.148 75.1729 122.918ZM84.1414 120.381C83.6486 118.585 81.9004 117.518 80.1317 118.018C78.363 118.518 77.3331 120.372 77.8259 122.168C78.3187 123.964 80.1442 125.01 81.9129 124.509C83.6816 124.009 84.6348 122.179 84.1414 120.381Z" fill="black"/>
<path fill-rule="evenodd" clip-rule="evenodd" d="M55.7783 127.417L41.6665 151.376L99.9998 151.376L99.9997 127.417H55.7783Z" fill="#05081B"/>
<path d="M98.9585 128.459H143.627L156.511 150.334L98.9583 150.333L98.9585 128.459Z" stroke="black" stroke-width="2.08333"/>
<path d="M92.7083 137.834H99.9999V140.959H92.7083V137.834Z" fill="white"/>
<path d="M67.7083 137.834H82.2916V140.959H67.7083V137.834Z" fill="white"/>
<path d="M52.0706 137.834H57.2917V140.959H50.2395L52.0706 137.834Z" fill="white"/>
<path d="M107.292 137.834H100V140.959H107.292V137.834Z" fill="black"/>
<path d="M132.292 137.834H117.708V140.959H132.292V137.834Z" fill="black"/>
<path d="M150.366 137.834H142.708V140.959H152.197L150.366 137.834Z" fill="black"/>
</svg>
