<svg width="200" height="201" viewBox="0 0 200 201" fill="none" xmlns="http://www.w3.org/2000/svg">
<circle cx="99.9995" cy="100.332" r="82.8125" fill="white" stroke="#05081B" stroke-width="1.04167"/>
<circle cx="99.9993" cy="100.331" r="78.125" fill="#1071AF"/>
<path fill-rule="evenodd" clip-rule="evenodd" d="M72.9165 91.9994V104.5L37.4998 83.6663L72.9165 62.833V75.3327H77.0832C94.3421 75.3327 108.333 89.3238 108.333 106.583L108.333 150.333H91.6665L91.6665 106.583C91.6665 98.5285 85.1373 91.9994 77.0832 91.9994H72.9165Z" fill="white"/>
<path fill-rule="evenodd" clip-rule="evenodd" d="M127.083 91.9994V104.5L162.5 83.6663L127.083 62.833V75.3327H122.917C105.658 75.3327 91.6667 89.3238 91.6667 106.583L91.6667 150.333H108.333L108.333 106.583C108.333 98.5285 114.863 91.9994 122.917 91.9994H127.083Z" fill="white"/>
</svg>
