<svg width="200" height="201" viewBox="0 0 200 201" fill="none" xmlns="http://www.w3.org/2000/svg">
<circle cx="100" cy="100.665" r="82.8125" fill="white" stroke="#05081B" stroke-width="1.04167"/>
<circle cx="99.9993" cy="100.663" r="78.125" fill="#1071AF"/>
<path fill-rule="evenodd" clip-rule="evenodd" d="M78.7998 62.7988C75.6652 62.7988 73.0077 65.1037 72.5644 68.2067C72.134 71.2201 73.9201 74.1102 76.808 75.0728L80.1905 76.2003L71.68 91.0938C69.0215 89.9017 66.0742 89.2387 62.972 89.2387C51.2054 89.2387 41.6667 98.7774 41.6667 110.544C41.6667 122.311 51.2054 131.849 62.972 131.849C74.7386 131.849 84.2773 122.311 84.2773 110.544C84.2773 103.37 80.7313 97.0239 75.2965 93.1631L77.5049 89.2984L102.659 112.08C103.042 112.426 103.541 112.619 104.057 112.619L115.822 112.619C116.865 123.412 125.961 131.85 137.028 131.85C148.795 131.85 158.333 122.311 158.333 110.545C158.333 98.7781 148.795 89.2394 137.028 89.2394C133.404 89.2394 129.991 90.1442 127.004 91.7402L119.838 80.9913V75.0791H125.869C127.019 75.0791 127.952 74.1463 127.952 72.9957C127.952 71.8451 127.019 70.9124 125.869 70.9124L117.757 70.9124L117.754 70.9124L117.752 70.9124L108.622 70.9124C107.471 70.9124 106.539 71.8451 106.539 72.9957C106.539 74.1463 107.471 75.0791 108.622 75.0791H115.671V79.5377L83.0824 79.5377L85.069 76.0612C85.3787 75.5192 85.4291 74.867 85.2063 74.284C84.9835 73.7009 84.5111 73.2485 83.919 73.0511L78.1256 71.12C77.1481 70.7942 76.5435 69.8159 76.6892 68.7959C76.8393 67.7456 77.7388 66.9655 78.7998 66.9655L88.8401 66.9655C89.9907 66.9655 90.9235 66.0328 90.9235 64.8822C90.9235 63.7316 89.9907 62.7988 88.8401 62.7988H78.7998ZM123.538 94.0533L118.061 85.8381L107.349 108.452L115.824 108.452C116.389 102.659 119.274 97.5455 123.538 94.0533ZM120.016 108.452C120.545 104.103 122.704 100.256 125.863 97.5411L133.137 108.452H120.016ZM120.014 112.619L137.03 112.619C137.798 112.619 138.504 112.196 138.867 111.518C139.229 110.841 139.19 110.019 138.763 109.38L129.329 95.2284C131.644 94.0626 134.259 93.4061 137.028 93.4061C146.493 93.4061 154.167 101.079 154.167 110.545C154.167 120.01 146.493 127.683 137.028 127.683C128.265 127.683 121.037 121.106 120.014 112.619ZM62.972 93.4054C65.3217 93.4054 67.561 93.8782 69.5999 94.734L61.1606 109.503C60.5897 110.502 60.9368 111.774 61.9358 112.345C62.9348 112.916 64.2074 112.569 64.7782 111.57L73.2166 96.8029C77.4013 99.9279 80.1106 104.92 80.1106 110.544C80.1106 120.009 72.4374 127.683 62.972 127.683C53.5066 127.683 45.8334 120.009 45.8334 110.544C45.8334 101.079 53.5066 93.4054 62.972 93.4054ZM80.7015 83.7043L79.6216 85.594L103.376 107.107L114.462 83.7043L80.7015 83.7043Z" fill="white"/>
</svg>
