<svg width="200" height="201" viewBox="0 0 200 201" fill="none" xmlns="http://www.w3.org/2000/svg">
<rect x="36.9792" y="12.6462" width="126.042" height="176.042" rx="8.85417" fill="white" stroke="#13141A" stroke-width="1.04167"/>
<rect x="41.6667" y="17.333" width="116.667" height="166.667" rx="4.16667" fill="#1071AF"/>
<rect x="50" y="34" width="100" height="100" rx="4.16667" fill="white"/>
<path d="M113.132 46.5C109.331 46.5 106.25 49.5811 106.25 53.3818V82.9583C106.25 87.125 109.375 88.1667 111.844 88.1667V118.144C111.844 119.995 113.346 121.496 115.195 121.496H116.663C118.512 121.496 120.014 119.995 120.014 118.144V53.3818C120.014 49.5811 116.933 46.5 113.132 46.5Z" fill="black"/>
<path d="M94.981 46.5C96.0115 46.5 96.7622 47.25 96.7622 48.1761V70.7917C96.7622 72.6426 95.2608 74.1433 93.4106 74.1433H92.5725V118.147C92.5725 119.998 91.0718 121.499 89.2209 121.499H87.7548C85.9039 121.499 84.4032 119.998 84.4032 118.147V74.1427H82.5177C80.6668 74.1427 79.1667 72.642 79.1667 70.7911V48.1761C79.1667 47.25 79.9162 46.5 80.8422 46.5C81.8727 46.5 82.6221 47.25 82.6221 48.1761V65.5655H86.2358V48.1761C86.2358 47.25 86.9859 46.5 87.9113 46.5C88.9418 46.5 89.6924 47.25 89.6924 48.1761V65.5655H93.3049V48.1761C93.3043 47.25 94.0556 46.5 94.981 46.5Z" fill="black"/>
</svg>
