<svg width="96" height="96" viewBox="0 0 96 96" fill="none" xmlns="http://www.w3.org/2000/svg">
<path d="M14.75 76.875C14.75 79.2913 16.7088 81.25 19.125 81.25H76.875C79.2913 81.25 81.25 79.2912 81.25 76.875V19.125C81.25 16.7088 79.2912 14.75 76.875 14.75L19.125 14.75C16.7088 14.75 14.75 16.7088 14.75 19.125L14.75 76.875Z" fill="white" stroke="#1A1A2C" stroke-width="0.5"/>
<path d="M19.0667 79C17.9253 79 17 78.0747 17 76.9333L17 19.0667C17 17.9253 17.9253 17 19.0667 17L76.9333 17C78.0747 17 79 17.9253 79 19.0667L79 76.9333C79 78.0747 78.0747 79 76.9333 79L19.0667 79Z" fill="#1071AF"/>
<rect x="17" y="49" width="2" height="62" transform="rotate(-90 17 49)" fill="white"/>
<path d="M63 70L63 57L74 63.5L63 70Z" fill="white"/>
<path d="M55 66L55 61L63 61V66L55 66Z" fill="white"/>
<path d="M59 41V24L74 32.5L59 41Z" fill="white"/>
<path d="M59 35L59 30L17 30V35L59 35Z" fill="white"/>
<path d="M17 54H42.3234C43.2763 54 44.1725 54.4527 44.738 55.2196L48.4146 60.2061C48.7949 60.7218 49 61.3457 49 61.9864V70C49 71.1046 48.1046 72 47 72H17V54Z" fill="white"/>
<circle cx="39.5" cy="71.5" r="5" fill="white" stroke="#1071AF"/>
<circle cx="39.5" cy="71.5" r="2.5" fill="#1071AF"/>
<path d="M43 56L46.721 61.2094C46.9574 61.5403 46.7208 62 46.3141 62L38 62L38 56L43 56Z" fill="#1071AF"/>
<rect x="27" y="56" width="9" height="6" fill="#1071AF"/>
<rect x="18" y="56" width="7" height="6" fill="#1071AF"/>
</svg>
