<svg width="204" height="201" viewBox="0 0 204 201" fill="none" xmlns="http://www.w3.org/2000/svg">
<rect x="202.518" y="41.3171" width="117.707" height="201.039" rx="8.85404" transform="rotate(90 202.518 41.3171)" fill="white" stroke="#13141A" stroke-width="1.04165"/>
<path d="M33.158 78.7183C33.158 75.3764 33.6578 72.5715 34.6574 70.3037C35.4034 68.6328 36.4179 67.1334 37.701 65.8055C38.999 64.4777 40.4163 63.493 41.953 62.8515C43.997 61.9861 46.3543 61.5535 49.0249 61.5535C53.8588 61.5535 57.7229 63.0529 60.6173 66.0517C63.5266 69.0505 64.9813 73.2205 64.9813 78.5617C64.9813 83.8581 63.5415 88.0057 60.6621 91.0045C57.7826 93.9884 53.9334 95.4804 49.1144 95.4804C44.2357 95.4804 40.3567 93.9959 37.4772 91.0269C34.5977 88.043 33.158 83.9402 33.158 78.7183ZM39.9837 78.4945C39.9837 82.2095 40.8415 85.0293 42.5573 86.9539C44.273 88.8636 46.4513 89.8184 49.092 89.8184C51.7328 89.8184 53.8961 88.871 55.582 86.9763C57.2828 85.0666 58.1332 82.2095 58.1332 78.405C58.1332 74.6453 57.3052 71.8405 55.6491 69.9904C54.008 68.1404 51.8223 67.2154 49.092 67.2154C46.3618 67.2154 44.1611 68.1553 42.4901 70.0352C40.8192 71.9001 39.9837 74.7199 39.9837 78.4945ZM88.6137 94.9209H70.6208V101.187H65.5184V89.7737H68.092C69.1662 88.5801 70.0539 86.7152 70.7551 84.1789C71.4563 81.6426 71.8741 77.301 72.0084 71.1542H91.1874V89.7737H93.7386V101.187H88.6137V94.9209ZM84.9659 89.7737L84.9883 76.3238H77.3794C77.1257 82.8883 76.0814 87.3716 74.2463 89.7737H84.9659ZM111.821 87.3567L118.087 88.4085C117.282 90.7061 116.006 92.4592 114.26 93.6677C112.53 94.8612 110.359 95.458 107.748 95.458C103.615 95.458 100.557 94.1078 98.5725 91.4074C97.006 89.244 96.2227 86.5138 96.2227 83.2166C96.2227 79.2778 97.2521 76.1969 99.311 73.9739C101.37 71.736 103.973 70.6171 107.121 70.6171C110.657 70.6171 113.447 71.7882 115.491 74.1306C117.535 76.458 118.512 80.0313 118.423 84.8502H102.668C102.713 86.7152 103.22 88.1698 104.19 89.2142C105.159 90.2436 106.368 90.7584 107.815 90.7584C108.8 90.7584 109.628 90.4898 110.299 89.9527C110.971 89.4156 111.478 88.5503 111.821 87.3567ZM112.179 81.001C112.134 79.1808 111.664 77.8008 110.769 76.8609C109.874 75.906 108.785 75.4286 107.502 75.4286C106.129 75.4286 104.995 75.9284 104.1 76.928C103.205 77.9276 102.765 79.2853 102.78 81.001H112.179ZM143.667 78.1812L137.468 79.3002C137.259 78.0619 136.781 77.1294 136.035 76.5028C135.304 75.8762 134.349 75.5629 133.171 75.5629C131.604 75.5629 130.351 76.1074 129.411 77.1965C128.486 78.2708 128.024 80.076 128.024 82.6123C128.024 85.4321 128.494 87.4239 129.433 88.5876C130.388 89.7513 131.664 90.3332 133.26 90.3332C134.454 90.3332 135.431 89.9975 136.192 89.3261C136.953 88.6398 137.49 87.4686 137.803 85.8126L143.98 86.8644C143.338 89.6991 142.108 91.84 140.287 93.2872C138.467 94.7344 136.028 95.458 132.969 95.458C129.493 95.458 126.718 94.3614 124.644 92.1683C122.585 89.9751 121.556 86.939 121.556 83.0599C121.556 79.1361 122.593 76.085 124.667 73.9068C126.74 71.7136 129.545 70.6171 133.081 70.6171C135.976 70.6171 138.273 71.2437 139.974 72.4969C141.69 73.7352 142.921 75.63 143.667 78.1812ZM153.737 78.405L148.031 77.3756C148.672 75.078 149.776 73.3772 151.343 72.2731C152.909 71.1691 155.237 70.6171 158.325 70.6171C161.13 70.6171 163.219 70.9527 164.591 71.6241C165.964 72.2806 166.926 73.1235 167.478 74.153C168.045 75.1675 168.329 77.0399 168.329 79.7702L168.261 87.1105C168.261 89.1993 168.358 90.7434 168.552 91.743C168.761 92.7277 169.142 93.787 169.694 94.9209H163.472C163.308 94.5032 163.107 93.884 162.868 93.0634C162.764 92.6904 162.689 92.4443 162.644 92.3249C161.57 93.3693 160.421 94.1525 159.198 94.6747C157.974 95.1969 156.669 95.458 155.281 95.458C152.835 95.458 150.903 94.7941 149.485 93.4662C148.083 92.1384 147.382 90.46 147.382 88.4309C147.382 87.0882 147.702 85.8946 148.344 84.8502C148.985 83.791 149.881 82.9853 151.029 82.4333C152.193 81.8663 153.864 81.374 156.042 80.9563C158.981 80.4042 161.018 79.8895 162.152 79.4121V78.7855C162.152 77.577 161.853 76.7191 161.257 76.2119C160.66 75.6897 159.534 75.4286 157.877 75.4286C156.758 75.4286 155.886 75.6524 155.259 76.1C154.632 76.5326 154.125 77.301 153.737 78.405ZM162.152 83.5075C161.346 83.776 160.071 84.0968 158.325 84.4698C156.579 84.8428 155.438 85.2083 154.901 85.5664C154.08 86.1482 153.67 86.8868 153.67 87.7819C153.67 88.6622 153.998 89.4231 154.655 90.0646C155.311 90.7061 156.147 91.0269 157.161 91.0269C158.295 91.0269 159.377 90.6539 160.406 89.908C161.167 89.341 161.667 88.6473 161.906 87.8267C162.07 87.2896 162.152 86.2676 162.152 84.7607V83.5075Z" fill="black"/>
<path d="M36.6908 124.705C36.6908 122.427 37.0316 120.514 37.7132 118.968C38.2218 117.829 38.9135 116.806 39.7883 115.901C40.6733 114.996 41.6397 114.324 42.6875 113.887C44.0811 113.297 45.6883 113.002 47.5092 113.002C50.805 113.002 53.4397 114.024 55.4131 116.069C57.3967 118.114 58.3885 120.957 58.3885 124.598C58.3885 128.21 57.4069 131.038 55.4436 133.082C53.4803 135.117 50.8559 136.134 47.5702 136.134C44.2438 136.134 41.599 135.122 39.6357 133.097C37.6725 131.063 36.6908 128.266 36.6908 124.705ZM41.3447 124.553C41.3447 127.086 41.9296 129.008 43.0994 130.32C44.2693 131.622 45.7544 132.273 47.5549 132.273C49.3554 132.273 50.8304 131.628 51.9799 130.336C53.1396 129.034 53.7194 127.086 53.7194 124.492C53.7194 121.928 53.1548 120.016 52.0257 118.754C50.9067 117.493 49.4165 116.862 47.5549 116.862C45.6934 116.862 44.193 117.503 43.0537 118.785C41.9144 120.056 41.3447 121.979 41.3447 124.553ZM76.7598 135.752H72.7773V133.372C72.1161 134.298 71.3329 134.99 70.4275 135.447C69.5324 135.895 68.627 136.119 67.7115 136.119C65.85 136.119 64.2529 135.371 62.9203 133.876C61.5979 132.37 60.9367 130.275 60.9367 127.589C60.9367 124.843 61.5826 122.757 62.8745 121.333C64.1664 119.899 65.7991 119.182 67.7725 119.182C69.5832 119.182 71.1498 119.934 72.4722 121.44V113.383H76.7598V135.752ZM65.3159 127.299C65.3159 129.029 65.555 130.28 66.0331 131.053C66.7248 132.172 67.6912 132.731 68.9322 132.731C69.9189 132.731 70.7581 132.314 71.4498 131.48C72.1416 130.636 72.4874 129.379 72.4874 127.711C72.4874 125.85 72.1517 124.512 71.4804 123.698C70.809 122.874 69.9494 122.462 68.9017 122.462C67.8844 122.462 67.0299 122.869 66.3382 123.683C65.6567 124.487 65.3159 125.692 65.3159 127.299ZM90.3857 130.595L94.6581 131.312C94.1088 132.879 93.2391 134.074 92.0489 134.898C90.8689 135.712 89.3888 136.119 87.6087 136.119C84.7909 136.119 82.7056 135.198 81.3527 133.357C80.2846 131.882 79.7505 130.02 79.7505 127.772C79.7505 125.087 80.4524 122.986 81.8562 121.47C83.26 119.945 85.0351 119.182 87.1814 119.182C89.5923 119.182 91.4945 119.98 92.8881 121.577C94.2817 123.164 94.948 125.6 94.887 128.886H84.145C84.1755 130.158 84.5213 131.149 85.1826 131.862C85.8438 132.563 86.6677 132.914 87.6544 132.914C88.3258 132.914 88.8904 132.731 89.3481 132.365C89.8059 131.999 90.1518 131.409 90.3857 130.595ZM90.6299 126.262C90.5993 125.021 90.2789 124.08 89.6686 123.439C89.0582 122.788 88.3156 122.462 87.4408 122.462C86.505 122.462 85.7319 122.803 85.1215 123.485C84.5112 124.166 84.2111 125.092 84.2213 126.262H90.6299ZM96.8859 131.129L101.189 130.473C101.372 131.307 101.743 131.943 102.303 132.38C102.862 132.808 103.645 133.021 104.652 133.021C105.761 133.021 106.595 132.818 107.155 132.411C107.531 132.126 107.719 131.745 107.719 131.266C107.719 130.941 107.618 130.671 107.414 130.458C107.201 130.254 106.723 130.066 105.98 129.893C102.521 129.13 100.329 128.433 99.4035 127.803C98.1218 126.928 97.481 125.712 97.481 124.156C97.481 122.752 98.0354 121.572 99.1441 120.616C100.253 119.66 101.972 119.182 104.302 119.182C106.519 119.182 108.167 119.543 109.245 120.265C110.324 120.987 111.066 122.055 111.473 123.469L107.43 124.217C107.257 123.586 106.926 123.103 106.438 122.767C105.96 122.432 105.273 122.264 104.378 122.264C103.249 122.264 102.44 122.422 101.952 122.737C101.626 122.961 101.463 123.251 101.463 123.607C101.463 123.912 101.606 124.171 101.891 124.385C102.277 124.67 103.61 125.071 105.888 125.59C108.177 126.109 109.774 126.745 110.68 127.498C111.575 128.26 112.022 129.323 112.022 130.687C112.022 132.172 111.402 133.448 110.161 134.516C108.92 135.585 107.084 136.119 104.652 136.119C102.445 136.119 100.695 135.671 99.4035 134.776C98.1218 133.881 97.2826 132.665 96.8859 131.129ZM118.996 124.492L115.105 123.79C115.542 122.223 116.295 121.064 117.363 120.311C118.431 119.558 120.018 119.182 122.124 119.182C124.036 119.182 125.46 119.411 126.396 119.868C127.332 120.316 127.988 120.891 128.364 121.592C128.751 122.284 128.944 123.561 128.944 125.422L128.898 130.427C128.898 131.851 128.964 132.904 129.097 133.586C129.239 134.257 129.499 134.979 129.875 135.752H125.633C125.521 135.468 125.384 135.045 125.221 134.486C125.15 134.232 125.099 134.064 125.068 133.982C124.336 134.695 123.553 135.229 122.719 135.585C121.884 135.941 120.994 136.119 120.048 136.119C118.38 136.119 117.063 135.666 116.096 134.761C115.14 133.855 114.662 132.711 114.662 131.327C114.662 130.412 114.881 129.598 115.318 128.886C115.756 128.164 116.366 127.615 117.149 127.238C117.943 126.852 119.082 126.516 120.567 126.231C122.571 125.855 123.96 125.504 124.733 125.178V124.751C124.733 123.927 124.529 123.342 124.122 122.996C123.716 122.64 122.948 122.462 121.818 122.462C121.055 122.462 120.46 122.615 120.033 122.92C119.606 123.215 119.26 123.739 118.996 124.492ZM124.733 127.971C124.183 128.154 123.314 128.372 122.124 128.627C120.933 128.881 120.155 129.13 119.789 129.374C119.229 129.771 118.95 130.275 118.95 130.885C118.95 131.485 119.174 132.004 119.621 132.441C120.069 132.879 120.638 133.097 121.33 133.097C122.103 133.097 122.841 132.843 123.543 132.335C124.061 131.948 124.402 131.475 124.565 130.915C124.677 130.549 124.733 129.852 124.733 128.825V127.971Z" fill="black"/>
<path fill-rule="evenodd" clip-rule="evenodd" d="M190.919 46.0024L193.664 46.0024C195.965 46.0024 197.83 47.8679 197.83 50.169V51.6948C197.811 51.7061 197.791 51.7172 197.771 51.7282L13.0807 154.334H10.3332C8.03202 154.334 6.16656 152.469 6.16656 150.168L6.16657 148.643C6.18665 148.632 6.20686 148.62 6.22721 148.609L190.919 46.0024Z" fill="#FF0E00"/>
<rect x="197.31" y="46.523" width="107.29" height="190.622" rx="3.64578" transform="rotate(90 197.31 46.523)" stroke="black" stroke-width="1.04165"/>
</svg>
