<svg width="200" height="201" viewBox="0 0 200 201" fill="none" xmlns="http://www.w3.org/2000/svg">
<rect x="0.520826" y="-0.520826" width="126.04" height="176.039" rx="8.85404" transform="matrix(-1 0 0 1 163.539 12.6269)" fill="white" stroke="#13141A" stroke-width="1.04165"/>
<rect width="116.665" height="166.664" rx="4.16661" transform="matrix(-1 0 0 1 158.331 16.7952)" fill="#FFE600"/>
<path d="M99.9985 60.5435L99.9985 16.7941" stroke="#05081B" stroke-width="14.5831"/>
<path d="M99.9985 183.46L99.9985 129.294" stroke="#05081B" stroke-width="14.5831"/>
<path d="M106.711 102.15L87.56 82.9993L113.34 76.3702L106.711 102.15Z" fill="#05081B"/>
<path d="M99.9985 89.7096L69.625 122.253C66.3845 125.725 64.5823 130.297 64.5823 135.046V183.458" stroke="#05081B" stroke-width="10.4165"/>
<circle r="16.6664" transform="matrix(-1 0 0 1 68.749 43.8793)" fill="#FF0E00"/>
<rect x="60.4158" y="41.795" width="16.6672" height="4.16679" fill="white"/>
</svg>
