<svg width="200" height="200" viewBox="0 0 200 200" fill="none" xmlns="http://www.w3.org/2000/svg">
<g clip-path="url(#clip0_0_3131)">
<rect width="54.1667" height="83.3334" transform="matrix(-1 0 0 1 127.083 8.3335)" fill="#FF0E00"/>
<path d="M87.6858 8.3335H99.6409L72.9167 30.0998V20.3626L87.6858 8.3335Z" fill="white"/>
<path d="M72.9167 44.1721L116.919 8.3335H127.083V9.79171L72.9167 53.9094V44.1721Z" fill="white"/>
<path d="M72.9167 67.9817L127.083 23.864V33.6012L72.9167 77.7189V67.9817Z" fill="white"/>
<path d="M72.9167 91.7912L127.083 47.6735V57.4108L72.9167 101.528V91.7912Z" fill="white"/>
<path d="M72.9167 115.601L127.083 71.4831V81.2203L72.9167 125.338V115.601Z" fill="white"/>
<path d="M72.9167 139.41L127.083 95.2926V105.03L82.1012 141.667H72.9167V139.41Z" fill="white"/>
<path d="M99.3789 141.667L127.083 119.102V128.839L111.334 141.667H99.3789Z" fill="white"/>
<rect x="-0.520833" y="0.520833" width="53.125" height="82.2917" transform="matrix(-1 0 0 1 126.042 8.3335)" stroke="#05081B" stroke-width="1.04167"/>
</g>
<path fill-rule="evenodd" clip-rule="evenodd" d="M143.647 116.667H152.977V191.667H143.647C130.699 191.667 119.805 182.832 116.608 170.834H51.3883C54.5865 165.324 51.9449 160.827 49.3213 156.36C45.9923 150.692 42.6924 145.074 51.3883 137.501H116.608C119.804 125.502 130.699 116.667 143.647 116.667Z" fill="#FF0E00"/>
<path d="M70.047 170.834V137.5H51.3879C42.692 145.074 45.992 150.692 49.3209 156.36C51.9445 160.827 54.5861 165.324 51.3879 170.834H70.047Z" fill="white"/>
<path fill-rule="evenodd" clip-rule="evenodd" d="M152.976 144.071V155.399L125.206 184.7C123.243 182.971 121.523 180.97 120.103 178.756L152.976 144.071ZM103.622 170.834H114.359L152.976 130.088V118.76L103.622 170.834ZM79.6323 170.834H90.3687L141.639 116.738C129.583 117.597 119.637 126.128 116.608 137.501H111.224L79.6323 170.834ZM55.6424 170.834H66.3788L97.9709 137.501H87.2345L55.6424 170.834ZM133.621 189.809L152.976 169.387V180.715L142.614 191.648C139.455 191.533 136.429 190.892 133.621 189.809Z" fill="white"/>
<mask id="path-7-inside-1_0_3131" fill="white">
<path fill-rule="evenodd" clip-rule="evenodd" d="M143.647 116.667H152.977V191.667H143.647C130.699 191.667 119.805 182.832 116.608 170.834H51.3883C54.5865 165.324 51.9449 160.827 49.3213 156.36C45.9923 150.692 42.6924 145.074 51.3883 137.501H116.608C119.804 125.502 130.699 116.667 143.647 116.667Z"/>
</mask>
<path d="M152.977 116.667V115.625H154.018V116.667H152.977ZM152.977 191.667H154.018V192.708H152.977V191.667ZM116.608 170.834V169.792H117.409L117.615 170.566L116.608 170.834ZM51.3883 170.834V171.876H49.5791L50.4874 170.311L51.3883 170.834ZM49.3213 156.36L50.2195 155.832L49.3213 156.36ZM51.3883 137.501L50.7041 136.715L50.9983 136.459H51.3883V137.501ZM116.608 137.501L117.615 137.769L117.409 138.542H116.608V137.501ZM152.977 117.708H143.647V115.625H152.977V117.708ZM151.935 191.667V116.667H154.018V191.667H151.935ZM143.647 190.625H152.977V192.708H143.647V190.625ZM117.615 170.566C120.694 182.122 131.186 190.625 143.647 190.625V192.708C130.212 192.708 118.916 183.541 115.602 171.102L117.615 170.566ZM51.3883 169.792H116.608V171.876H51.3883V169.792ZM50.2195 155.832C51.5143 158.037 52.9174 160.41 53.5489 162.955C54.1972 165.567 54.0349 168.349 52.2891 171.357L50.4874 170.311C51.9398 167.809 52.0558 165.588 51.5269 163.457C50.9813 161.259 49.7518 159.15 48.4231 156.888L50.2195 155.832ZM52.0724 138.286C47.8757 141.941 46.7529 144.954 46.8858 147.592C47.0247 150.35 48.5234 152.945 50.2195 155.832L48.4231 156.888C46.7902 154.107 44.9744 151.059 44.8051 147.697C44.6297 144.216 46.2049 140.633 50.7041 136.715L52.0724 138.286ZM116.608 138.542H51.3883V136.459H116.608V138.542ZM143.647 117.708C131.186 117.708 120.693 126.212 117.615 137.769L115.601 137.232C118.915 124.792 130.212 115.625 143.647 115.625V117.708Z" fill="#05081B" mask="url(#path-7-inside-1_0_3131)"/>
<defs>
<clipPath id="clip0_0_3131">
<rect width="54.1667" height="83.3334" fill="white" transform="matrix(-1 0 0 1 127.083 8.3335)"/>
</clipPath>
</defs>
</svg>
