<svg width="204" height="201" viewBox="0 0 204 201" fill="none" xmlns="http://www.w3.org/2000/svg">
<rect x="1.47917" y="159.249" width="117.707" height="201.039" rx="8.85404" transform="rotate(-90 1.47917 159.249)" fill="white" stroke="#13141A" stroke-width="1.04165"/>
<rect x="6.16663" y="154.562" width="108.332" height="191.664" rx="4.16661" transform="rotate(-90 6.16663 154.562)" fill="#1071AF"/>
<path d="M115.54 121.228L88.457 121.228L101.999 144.144L115.54 121.228Z" fill="white"/>
<path d="M101.999 121.227L101.999 46.2284" stroke="white" stroke-width="10.4165"/>
<path d="M180.122 79.5618L153.04 79.5618L166.581 56.6455L180.122 79.5618Z" fill="white"/>
<path d="M166.581 79.5642L166.581 154.563" stroke="white" stroke-width="10.4165"/>
<path d="M50.9576 121.228L23.8747 121.228L37.4162 144.144L50.9576 121.228Z" fill="white"/>
<path d="M37.4161 121.227L37.4161 46.2284" stroke="white" stroke-width="10.4165"/>
<path fill-rule="evenodd" clip-rule="evenodd" d="M70.7489 154.562L68.6655 154.562L68.6655 142.524L70.7489 142.524L70.7489 154.562ZM68.6656 138.512L70.749 138.512L70.749 126.475L68.6656 126.475L68.6656 138.512ZM70.749 122.46L68.6656 122.46L68.6656 110.423L70.749 110.423L70.749 122.46ZM70.749 106.414L68.6656 106.414L68.6656 94.3767L70.749 94.3767L70.749 106.414ZM68.6656 90.3657L70.749 90.3657L70.749 78.3283L68.6656 78.3283L68.6656 90.3657ZM70.749 74.3174L68.6656 74.3174L68.6656 62.28L70.749 62.28L70.749 74.3174ZM68.6656 58.2652L70.749 58.2652L70.749 46.2278L68.6656 46.2278L68.6656 58.2652Z" fill="white"/>
<rect x="135.331" y="154.562" width="2.0833" height="108.332" transform="rotate(180 135.331 154.562)" fill="white"/>
</svg>
