<svg width="200" height="200" viewBox="0 0 200 200" fill="none" xmlns="http://www.w3.org/2000/svg">
<rect x="198.438" y="78.6462" width="42.7083" height="196.875" rx="8.85417" transform="rotate(90 198.438 78.6462)" fill="white" stroke="#13141A" stroke-width="1.04167"/>
<rect x="193.75" y="83.334" width="33.3333" height="187.5" rx="4.16667" transform="rotate(90 193.75 83.334)" fill="#1071AF"/>
<path d="M25.3875 105.963V93.9585H16.6667V105.963H18.7754V96.0299H23.2789V105.963H25.3875Z" fill="white"/>
<path d="M27.5137 105.963H29.6223V102.178H31.5564C33.686 102.178 35.0964 100.547 35.0964 98.0764V98.0598C35.0964 95.589 33.686 93.9585 31.5564 93.9585H27.5137V105.963ZM31.0467 95.9467C32.2546 95.9467 32.9598 96.7038 32.9598 98.0681V98.0847C32.9598 99.4491 32.2546 100.214 31.0467 100.214H29.6223V95.9467H31.0467Z" fill="white"/>
<path d="M36.7827 105.963H38.612L43.1993 98.0431H43.2203V105.963H45.3219V93.9585H43.4786L38.9053 101.837H38.8843V93.9585H36.7827V105.963Z" fill="white"/>
<path d="M49.5707 105.963V100.838H49.9198L53.4947 105.963H56.113L51.7072 99.6487L55.7848 93.9585H53.4039L49.9198 98.9166H49.5707V93.9585H47.462V105.963H49.5707Z" fill="white"/>
<path d="M61.5767 106.171C64.572 106.171 66.4363 103.783 66.4363 99.9648V99.9482C66.4363 96.1381 64.565 93.7505 61.5767 93.7505C58.5952 93.7505 56.717 96.1297 56.717 99.9482V99.9648C56.717 103.783 58.5883 106.171 61.5767 106.171ZM61.5767 104.041C59.9219 104.041 58.8676 102.477 58.8676 99.9648V99.9482C58.8676 97.4358 59.9288 95.8802 61.5767 95.8802C63.2314 95.8802 64.2857 97.4442 64.2857 99.9482V99.9648C64.2857 102.452 63.2524 104.041 61.5767 104.041Z" fill="white"/>
<path d="M68.2203 105.963H70.3289V102.178H72.263C74.3926 102.178 75.803 100.547 75.803 98.0764V98.0598C75.803 95.589 74.3926 93.9585 72.263 93.9585H68.2203V105.963ZM71.7533 95.9467C72.9612 95.9467 73.6664 96.7038 73.6664 98.0681V98.0847C73.6664 99.4491 72.9612 100.214 71.7533 100.214H70.3289V95.9467H71.7533Z" fill="white"/>
<path d="M78.1386 108.334V105.963H84.7647V108.334H86.6709V103.891H85.4141V93.9585H78.2713L77.9222 100.747C77.8384 102.369 77.6359 103.309 76.9307 103.891H76.2255V108.334H78.1386ZM79.8632 100.93L80.1285 96.0299H83.3055V103.891H79.1929V103.825C79.6398 103.201 79.7864 102.278 79.8632 100.93Z" fill="white"/>
<path d="M92.7071 106.171C95.7024 106.171 97.5667 103.783 97.5667 99.9648V99.9482C97.5667 96.1381 95.6955 93.7505 92.7071 93.7505C89.7257 93.7505 87.8475 96.1297 87.8475 99.9482V99.9648C87.8475 103.783 89.7187 106.171 92.7071 106.171ZM92.7071 104.041C91.0523 104.041 89.998 102.477 89.998 99.9648V99.9482C89.998 97.4358 91.0593 95.8802 92.7071 95.8802C94.3619 95.8802 95.4162 97.4442 95.4162 99.9482V99.9648C95.4162 102.452 94.3828 104.041 92.7071 104.041Z" fill="white"/>
<path d="M99.3507 105.963H101.459V100.905H105.998V105.963H108.106V93.9585H105.998V98.8334H101.459V93.9585H99.3507V105.963Z" fill="white"/>
<path d="M110.212 105.963H112.32V100.905H116.859V105.963H118.967V93.9585H116.859V98.8334H112.32V93.9585H110.212V105.963Z" fill="white"/>
<path d="M120.423 105.963H122.644L123.398 103.051H126.966L127.72 105.963H129.94L126.421 93.9585H123.942L120.423 105.963ZM125.164 96.2878H125.206L126.47 101.171H123.886L125.164 96.2878Z" fill="white"/>
<path d="M139.031 106.171C141.475 106.171 143.241 104.349 143.43 101.795L143.437 101.704H141.384L141.37 101.787C141.105 103.209 140.253 104.041 139.038 104.041C137.425 104.041 136.392 102.477 136.392 99.9482V99.9399C136.392 97.4275 137.418 95.8802 139.031 95.8802C140.288 95.8802 141.112 96.7454 141.349 98.0681L141.377 98.2095H143.43L143.423 98.1346C143.234 95.589 141.482 93.7505 139.031 93.7505C136.091 93.7505 134.234 96.0798 134.234 99.9482V99.9565C134.234 103.825 136.084 106.171 139.031 106.171Z" fill="white"/>
<path d="M145.165 105.963H147.043V97.8435H147.099L149.822 105.963H151.142L153.865 97.8435H153.921V105.963H155.799V93.9585H153.362L150.506 102.585H150.457L147.602 93.9585H145.165V105.963Z" fill="white"/>
<path d="M159.461 106.071C161.256 106.071 162.149 104.965 163.029 102.527L166.115 93.9585H163.895L161.8 100.63H161.716L159.517 93.9585H157.283L160.627 103.101C160.271 103.758 159.817 103.983 159.203 103.983C158.965 103.983 158.728 103.941 158.588 103.908V105.946C158.644 105.98 159.028 106.071 159.461 106.071Z" fill="white"/>
<path d="M169.68 105.963V96.0299H174.064V93.9585H167.571V105.963H169.68Z" fill="white"/>
<path d="M173.817 105.963H176.037L176.791 103.051H180.359L181.113 105.963H183.333L179.814 93.9585H177.336L173.817 105.963ZM178.558 96.2878H178.599L179.863 101.171H177.28L178.558 96.2878Z" fill="white"/>
<path fill-rule="evenodd" clip-rule="evenodd" d="M193.522 86.5279L23.9932 116.666H10.3024C8.3363 116.666 6.68823 115.305 6.25 113.473L175.786 83.333L189.469 83.333C191.436 83.333 193.084 84.6954 193.522 86.5279Z" fill="#FF0E00"/>
</svg>
