<svg width="200" height="201" viewBox="0 0 200 201" fill="none" xmlns="http://www.w3.org/2000/svg">
<path d="M25.6863 169.604H174.314C181.678 169.604 186.263 161.631 182.525 155.302L108.211 29.4896C104.527 23.253 95.4727 23.253 91.7889 29.4896L17.4753 155.302C13.7367 161.631 18.3214 169.604 25.6863 169.604Z" fill="#FF0E00" stroke="black" stroke-width="1.04167"/>
<path d="M174.314 167H25.6863C20.3188 167 17.0139 161.204 19.7175 156.626L94.0312 30.814C96.707 26.2838 103.293 26.2838 105.969 30.814L180.282 156.626C182.986 161.204 179.681 167 174.314 167Z" fill="#FF0E00" stroke="white" stroke-width="4.16667"/>
<path fill-rule="evenodd" clip-rule="evenodd" d="M164.062 154.501L99.9999 45.7637L35.9374 154.501H164.062Z" fill="#FFE600"/>
<path fill-rule="evenodd" clip-rule="evenodd" d="M72.2609 133.668C78.238 139.948 88.4307 144.083 99.9999 144.083C111.569 144.083 121.762 139.948 127.739 133.668H147.992L158.333 151.376H41.6666L52.1515 133.668H72.2609Z" fill="black"/>
</svg>
