<svg width="200" height="201" viewBox="0 0 200 201" fill="none" xmlns="http://www.w3.org/2000/svg">
<rect x="30.7287" y="31.4225" width="138.54" height="138.54" rx="8.85404" fill="white" stroke="#13141A" stroke-width="1.04165"/>
<rect x="35.4161" y="36.1094" width="129.165" height="129.165" rx="4.16661" fill="#1071AF"/>
<path d="M101.54 67.4088C104.378 64.9409 104.803 61.3785 102.89 59.1363C100.977 56.894 97.0284 55.9242 94.19 58.392C91.3516 60.8599 91.0228 65.5753 92.9362 67.8176C94.8495 70.0595 98.7017 69.8767 101.54 67.4088Z" fill="white"/>
<path d="M105.183 94.416V77.7676L113.588 82.2737L114.86 93.7308C114.978 94.7474 115.78 95.5451 116.788 95.6503C118.122 95.7896 119.26 94.6846 119.173 93.3339L118.391 80.6143C118.338 79.7838 117.905 79.0253 117.22 78.5619L104.452 69.9251C103.811 69.2724 102.759 69.1684 101.997 69.7603L97.7065 72.5973C96.255 73.7244 95.4045 75.4681 95.4045 77.3165V92.7894L83.4962 104.501C82.7946 105.153 82.2601 105.967 81.9384 106.873L75.2047 125.833C74.5527 127.669 75.5016 129.69 77.3224 130.344C79.1575 131.003 81.1717 130.019 81.799 128.158L87.4847 111.284C87.842 110.224 88.4884 109.286 89.3494 108.58L103.876 97.1885C104.703 96.5103 105.183 95.4919 105.183 94.416Z" fill="white"/>
<path d="M98.6547 104.501L105.183 99.4715L119.083 125.305C120.055 126.865 119.606 128.924 118.074 129.926C116.57 130.911 114.563 130.52 113.529 129.04L98.6547 104.501Z" fill="white"/>
<path d="M92.8977 81.3829V89.1229L84.558 95.4366C83.6079 96.1558 82.2681 96.0099 81.4918 95.1025C80.6975 94.174 80.7728 92.7777 81.6622 91.9419L92.8977 81.3829Z" fill="white"/>
<path d="M52.6199 58.5195L48.4455 62.6906L43.7493 44.4424L62.0122 49.1348L57.8379 53.3058L68.749 64.2282L63.531 69.442L52.6199 58.5195Z" fill="white"/>
<path d="M52.6199 142.863L48.4455 138.692L43.7493 156.94L62.0122 152.248L57.8379 148.077L68.749 137.155L63.531 131.941L52.6199 142.863Z" fill="white"/>
<path d="M147.377 58.5195L151.552 62.6906L156.248 44.4424L137.985 49.1348L142.159 53.3058L131.248 64.2282L136.466 69.442L147.377 58.5195Z" fill="white"/>
<path d="M147.377 142.863L151.552 138.692L156.248 156.94L137.985 152.248L142.159 148.077L131.248 137.155L136.466 131.941L147.377 142.863Z" fill="white"/>
</svg>
