<svg width="200" height="201" viewBox="0 0 200 201" fill="none" xmlns="http://www.w3.org/2000/svg">
<circle cx="100" cy="100.669" r="82.8125" fill="white" stroke="#05081B" stroke-width="1.04167"/>
<circle cx="100" cy="100.668" r="71.875" stroke="#FF0E00" stroke-width="12.5"/>
<path fill-rule="evenodd" clip-rule="evenodd" d="M135.417 102.75C135.417 100.448 137.282 98.583 139.583 98.583H143.75C146.052 98.583 147.917 100.448 147.917 102.75V131.917C147.917 134.219 146.052 136.084 143.75 136.084H139.583C137.282 136.084 135.417 134.219 135.417 131.917V120.462H108.84C107.552 124.102 104.08 126.71 99.9987 126.71C95.9174 126.71 92.4452 124.102 91.1576 120.462H64.5838V131.918C64.5838 134.219 62.7183 136.085 60.4171 136.085H56.25C53.9489 136.085 52.0834 134.219 52.0834 131.918L52.0834 102.75C52.0834 100.449 53.9489 98.5835 56.25 98.5835H60.4171C62.7183 98.5835 64.5838 100.449 64.5838 102.75V114.212H91.1561C92.4426 110.569 95.9159 107.959 99.9987 107.959C104.081 107.959 107.555 110.569 108.841 114.212H135.417V102.75Z" fill="black"/>
<path fill-rule="evenodd" clip-rule="evenodd" d="M76.3651 82.2111L68.75 83.0326C69.2033 86.5071 70.5904 89.2736 72.9111 91.3319C75.2319 93.3902 78.2326 94.4194 81.9132 94.4194C86.5185 94.4194 90.1176 92.5877 92.7103 88.9242C94.6141 86.2428 95.566 83.1931 95.566 79.7751C95.566 75.6774 94.3874 72.3444 92.0304 69.7763C89.6733 67.2081 86.7996 65.924 83.409 65.924C81.6322 65.924 79.8916 66.3678 78.1873 67.2553L79.3839 60.2023H93.7982V52.7527H73.5911L69.6747 74.365L75.8756 75.2997C77.6162 73.2792 79.5834 72.2689 81.7772 72.2689C83.536 72.2689 84.9593 72.9109 86.0471 74.195C87.1531 75.4602 87.7061 77.3675 87.7061 79.9168C87.7061 82.636 87.1531 84.6754 86.0471 86.035C84.9411 87.3758 83.5904 88.0462 81.9948 88.0462C80.5987 88.0462 79.3658 87.5268 78.2961 86.4883C77.2263 85.4308 76.5827 84.0051 76.3651 82.2111ZM131.251 63.6284H105.115V70.0583H114.362V93.71H122.004V70.0583H131.251V63.6284Z" fill="black"/>
</svg>
