<svg width="200" height="201" viewBox="0 0 200 201" fill="none" xmlns="http://www.w3.org/2000/svg">
<path d="M174.314 169.603H25.6864C18.3215 169.603 13.7368 161.631 17.4754 155.301L91.789 29.4891C95.4728 23.2525 104.527 23.2526 108.211 29.4891L182.525 155.301C186.263 161.631 181.679 169.603 174.314 169.603Z" fill="#FF0E00" stroke="black" stroke-width="1.04167"/>
<path d="M25.6864 166.999H174.314C179.681 166.999 182.986 161.203 180.283 156.626L105.969 30.8135C103.293 26.2833 96.7071 26.2833 94.0313 30.8135L19.7176 156.626C17.014 161.203 20.3189 166.999 25.6864 166.999Z" fill="#FF0E00" stroke="white" stroke-width="4.16667"/>
<path fill-rule="evenodd" clip-rule="evenodd" d="M35.9376 154.499L100 45.7622L164.063 154.499H35.9376Z" fill="white"/>
<path d="M89.5834 92.1976L99.9992 83.666L110.416 92.1976L110.417 146.166L99.9992 138.073L89.5842 146.166L89.5834 92.1976Z" fill="black"/>
<rect x="75.0001" y="100.333" width="14.5833" height="12.5" fill="black"/>
<rect x="110.417" y="119.082" width="14.5833" height="12.5" fill="black"/>
</svg>
