<svg width="200" height="201" viewBox="0 0 200 201" fill="none" xmlns="http://www.w3.org/2000/svg">
<path d="M25.6863 169.606H174.314C181.678 169.606 186.263 161.633 182.525 155.304L108.211 29.4913C104.527 23.2547 95.4727 23.2547 91.7889 29.4913L17.4753 155.304C13.7367 161.633 18.3214 169.606 25.6863 169.606Z" fill="#FF0E00" stroke="black" stroke-width="1.04167"/>
<path d="M174.314 167.001H25.6863C20.3188 167.001 17.0139 161.205 19.7175 156.628L94.0312 30.8157C96.707 26.2855 103.293 26.2855 105.969 30.8157L180.282 156.628C182.986 161.205 179.681 167.001 174.314 167.001Z" fill="#FF0E00" stroke="white" stroke-width="4.16667"/>
<path fill-rule="evenodd" clip-rule="evenodd" d="M164.062 154.504L99.9999 45.7666L35.9374 154.504H164.062Z" fill="#FFE600"/>
<path fill-rule="evenodd" clip-rule="evenodd" d="M72.8889 97.4703L75.7098 92.521V92.5181H79.3942C80.7484 92.5181 81.8957 93.0561 82.7207 93.7908C84.2997 95.1157 85.2223 97.1174 86.0473 98.9543L90.4561 110.837C91.358 110.913 92.2362 111.176 92.9133 111.615C94.2646 112.498 95.0807 113.886 95.0807 115.575V130.288C95.0807 132.052 94.1907 133.51 92.9133 134.389C92.1623 134.979 91.219 135.309 90.1663 135.309H82.7207H50.5492L65.1535 110.768H78.4539C81.4611 110.768 81.4374 107.343 80.985 106.241L78.9625 100.652C78.5869 99.6254 77.7087 97.4703 74.4797 97.4703H72.8889ZM82.7207 115.651V115.578C80.1689 115.578 78.4568 117.253 78.4539 119.752C78.4539 121.957 80.1659 123.854 82.7207 123.854C84.9739 123.854 86.8398 121.957 86.8398 119.752C86.8398 117.328 84.9739 115.651 82.7207 115.651ZM76.7211 145.072V136.654H82.7207H88.4335V145.072C88.4335 146.906 86.9846 148.254 85.107 148.254H82.7207H80.0477C78.3178 148.254 76.7211 146.909 76.7211 145.072ZM104.047 112.029C103.851 110.457 105.233 109.019 107.005 108.798C107.451 108.742 107.806 108.798 108.212 108.912C109.375 109.207 110.365 110.086 110.507 111.224C110.649 112.362 109.905 113.457 108.85 114.029C108.482 114.239 108.147 114.329 107.702 114.384C105.927 114.606 104.236 113.547 104.047 112.029ZM127.17 118.31C127.392 115.341 129.023 113.021 130.903 112.594C131.17 112.532 131.427 112.474 131.702 112.494C133.976 112.653 135.515 115.502 135.312 118.833C135.031 122.006 133.13 124.58 130.865 124.477C129.225 124.406 127.989 123.05 127.428 121.246L127.102 118.637C127.124 118.578 127.131 118.524 127.137 118.47C127.144 118.418 127.15 118.366 127.17 118.31ZM106.13 121.791C105.851 119.549 107.198 117.529 109.247 117.213L109.351 117.2C111.347 116.951 113.157 118.601 113.441 120.88C113.725 123.159 112.376 125.207 110.38 125.452C108.167 125.664 106.707 124.461 106.13 121.791ZM122.455 122.301C122.889 121.943 123.324 121.767 123.691 121.776C124.06 121.786 124.383 121.972 124.671 122.235C125.236 122.716 125.572 123.422 125.771 124.113C126.018 124.743 126.086 125.288 125.941 125.471L125.152 126.1L111.55 135.696L103.187 141.67L101.591 142.771C100.292 143.649 98.5952 143.567 99.9717 141.964L102.901 139.372L122.455 122.301ZM102.51 128.393C102.941 127.788 103.347 127.529 103.753 127.496C104.969 127.399 105.921 129.362 105.373 130.053L102.233 133.997L94.3997 144.199C94.1061 144.565 93.8335 144.796 93.5695 144.937C92.278 145.87 91.3618 144.389 91.9464 143.654L93.1855 141.856L101.68 129.557L102.51 128.393ZM136.617 130.711C137.088 130.417 137.535 130.137 137.789 129.822C139.547 128.611 141.417 128.378 142.914 129.851C143.1 131.344 142.519 132.054 140.228 132.97C139.867 133.115 139.507 133.271 139.154 133.425C137.298 134.232 135.631 134.957 134.981 133.407C134.426 132.081 135.578 131.361 136.617 130.711ZM127.907 132.122C128.43 131.782 128.955 131.567 129.564 131.491C131.561 131.242 133.458 132.725 133.728 134.895C133.985 136.956 132.518 138.917 130.52 139.166C129.909 139.242 129.354 139.216 128.766 139.014C128.468 138.884 128.138 138.678 127.827 138.441C127.074 137.819 126.498 136.898 126.363 135.813C126.227 134.728 126.56 133.698 127.131 132.855C127.253 132.733 127.381 132.616 127.509 132.499C127.643 132.376 127.778 132.252 127.907 132.122ZM122.734 136.265C123.047 136.124 123.322 136.038 123.568 136.003C125.298 135.755 125.444 137.814 124.654 138.201L112.614 143.36C109.962 144.37 110.163 142.022 110.585 141.863L112.223 141.075L122.734 136.265Z" fill="black"/>
</svg>
