<svg width="200" height="200" viewBox="0 0 200 200" fill="none" xmlns="http://www.w3.org/2000/svg">
<circle cx="99.9995" cy="99.9996" r="82.8125" fill="white" stroke="#05081B" stroke-width="1.04167"/>
<circle cx="99.9993" cy="99.999" r="78.125" fill="#1071AF"/>
<path fill-rule="evenodd" clip-rule="evenodd" d="M85.614 112.522C83.4979 112.522 81.7038 114.078 81.4046 116.173C81.1139 118.208 82.3198 120.159 84.2694 120.809L86.5897 121.582L80.8023 131.71C78.9931 130.896 76.9862 130.442 74.8734 130.442C66.8891 130.442 60.4166 136.915 60.4166 144.899C60.4166 152.883 66.8891 159.356 74.8734 159.356C82.8576 159.356 89.3301 152.883 89.3301 144.899C89.3301 140.023 86.9163 135.711 83.2185 133.093L84.73 130.448L101.783 145.892C101.89 145.996 102.016 146.084 102.158 146.152C102.372 146.253 102.599 146.295 102.821 146.284H110.733C111.43 153.619 117.607 159.357 125.125 159.357C133.109 159.357 139.581 152.884 139.581 144.9C139.581 136.916 133.109 130.443 125.125 130.443C122.658 130.443 120.336 131.061 118.305 132.15L113.439 124.851V120.814H117.554C118.323 120.814 118.946 120.191 118.946 119.422C118.946 118.654 118.323 118.03 117.554 118.03L112.049 118.03L112.047 118.03L112.046 118.03L105.851 118.03C105.083 118.03 104.459 118.654 104.459 119.422C104.459 120.191 105.083 120.814 105.851 120.814L110.656 120.814V123.88L88.4829 123.88L89.8491 121.489C90.056 121.127 90.0897 120.691 89.9409 120.302C89.792 119.912 89.4764 119.61 89.0808 119.478L85.1497 118.168C84.4764 117.943 84.06 117.27 84.1604 116.567C84.2637 115.844 84.8833 115.306 85.614 115.306H92.4269C93.1956 115.306 93.8188 114.683 93.8188 113.914C93.8188 113.146 93.1956 112.522 92.4269 112.522H85.614ZM115.989 133.695L112.253 128.091L104.954 143.501H110.735C111.114 139.553 113.081 136.069 115.989 133.695ZM113.535 143.501C113.891 140.517 115.372 137.88 117.542 136.024L122.527 143.501H113.535ZM113.533 146.284H125.127C125.641 146.284 126.112 146.002 126.355 145.549C126.597 145.097 126.57 144.547 126.285 144.12L119.858 134.48C121.441 133.678 123.23 133.227 125.125 133.227C131.571 133.227 136.797 138.453 136.797 144.9C136.797 151.347 131.571 156.573 125.125 156.573C119.146 156.573 114.218 152.079 113.533 146.284ZM74.8734 133.226C76.4835 133.226 78.0174 133.552 79.4128 134.142L73.6638 144.202C73.2824 144.87 73.5143 145.72 74.1817 146.102C74.8492 146.483 75.6994 146.251 76.0808 145.584L81.8292 135.524C84.6916 137.651 86.5463 141.059 86.5463 144.899C86.5463 151.346 81.3201 156.572 74.8734 156.572C68.4266 156.572 63.2004 151.346 63.2004 144.899C63.2004 138.452 68.4266 133.226 74.8734 133.226ZM86.8921 126.664L86.1443 127.973L102.299 142.603L109.849 126.664H86.8921Z" fill="white"/>
<path fill-rule="evenodd" clip-rule="evenodd" d="M132.519 48.1703C133.87 48.7807 135.118 50.112 135.611 50.857L140.561 56.5361L151.142 69.1191C152.236 69.9677 152.327 73.6707 151.67 75.0976L148.89 84.2904C148.684 85.0406 146.85 87.2001 145.922 87.2068L142.783 87.4839C141.802 83.3963 138.727 79.8563 134.487 78.6568C130.247 77.4573 126.006 78.9273 123.126 81.9226C120.901 84.0759 120.43 86.8103 119.925 89.7461L119.869 90.0724C119.87 90.1141 119.853 90.1529 119.836 90.1917C119.819 90.2305 119.803 90.2693 119.803 90.311L95.2547 90.4926L76.8 90.3254C76.8401 85.0756 73.3303 80.144 68.1318 78.6732C61.9482 76.9238 55.5882 80.6676 53.8664 86.9425C53.8358 87.0538 53.803 87.1616 53.7705 87.2683C53.7065 87.4786 53.6436 87.685 53.6024 87.9043L51.7079 87.3683C50.7792 87.375 48.9996 86.1377 48.8877 84.626L48.0036 75.3045C47.4573 72.4593 49.618 71.1178 50.8654 70.9317L71.2202 66.9723L75.5697 66.0014C76.882 65.5642 79.2226 64.7422 79.7434 63.8115L89.5033 51.0255C90.4414 49.5413 92.3469 47.7006 95.1884 47.9697L106.906 48.0469L131.184 47.917C131.619 47.9075 132.068 47.9681 132.519 48.1703ZM128.173 52.3845C127.442 52.0968 126.644 52.1045 125.735 52.1133C125.477 52.1158 125.209 52.1184 124.932 52.1143L105.75 52.2597L97.1053 52.1439C94.6867 52.2681 92.8157 53.9527 91.3729 55.833L87.0435 62.7716C85.7557 64.5631 86.3073 68.2971 89.3773 68.2245L101.334 68.3692L127.516 68.26C133.273 68.5453 134.247 64.0573 132.784 60.6833L130.708 55.6927C129.943 53.6565 129.114 52.7502 128.173 52.3845Z" fill="white"/>
<path fill-rule="evenodd" clip-rule="evenodd" d="M67.6395 80.0911C72.9403 81.5908 76.1861 87.2313 74.7091 92.6136C73.2322 97.9959 67.5842 101.124 62.2796 99.6236C56.9788 98.124 53.8629 92.516 55.3399 87.1337C56.8168 81.7514 62.3387 78.5914 67.6395 80.0911ZM66.4444 84.4462C63.4928 83.6111 60.5829 85.3915 59.7616 88.3847C58.9402 91.3779 60.5279 94.4307 63.4757 95.2647C66.4236 96.0987 69.466 94.3558 70.2873 91.3626C71.1087 88.3694 69.396 85.2812 66.4444 84.4462Z" fill="white"/>
<path fill-rule="evenodd" clip-rule="evenodd" d="M141.378 92.5034C142.855 87.1211 139.61 81.4806 134.309 79.9809C129.008 78.4813 123.486 81.6413 122.009 87.0236C120.532 92.4059 123.644 98.0127 128.949 99.5135C134.253 101.014 139.901 97.8857 141.378 92.5034ZM126.431 88.2746C127.252 85.2814 130.166 83.5021 133.114 84.336C136.061 85.17 137.778 88.2593 136.957 91.2525C136.135 94.2456 133.093 95.9885 130.145 95.1545C127.197 94.3206 125.608 91.2716 126.431 88.2746Z" fill="white"/>
</svg>
