<svg width="200" height="200" viewBox="0 0 200 200" fill="none" xmlns="http://www.w3.org/2000/svg">
<rect x="66.6666" y="16.6665" width="66.6667" height="166.667" fill="#FF0E00"/>
<path d="M115.156 16.6665H100.442L133.333 43.8744V31.7029L115.156 16.6665Z" fill="#FFE600"/>
<path d="M133.333 61.4648L79.1771 16.6665H66.6666V18.4893L133.333 73.6363V61.4648Z" fill="#FFE600"/>
<path d="M133.333 91.2267L66.6666 36.0796V48.2512L133.333 103.398V91.2267Z" fill="#FFE600"/>
<path d="M133.333 120.989L66.6666 65.8415V78.0131L133.333 133.16V120.989Z" fill="#FFE600"/>
<path d="M133.333 150.751L66.6666 95.6035V107.775L133.333 162.922V150.751Z" fill="#FFE600"/>
<path d="M133.333 180.512L66.6666 125.365V137.537L122.029 183.333H133.333V180.512Z" fill="#FFE600"/>
<path d="M100.764 183.333L66.6666 155.127V167.299L86.0504 183.333H100.764Z" fill="#FFE600"/>
<rect x="67.1875" y="17.1873" width="65.625" height="165.625" stroke="#05081B" stroke-width="1.04167"/>
</svg>
