<svg width="200" height="200" viewBox="0 0 200 200" fill="none" xmlns="http://www.w3.org/2000/svg">
<rect x="0.520833" y="-0.520833" width="126.042" height="176.042" rx="8.85417" transform="matrix(-1 0 0 1 163.542 12.5)" fill="white" stroke="#13141A" stroke-width="1.04167"/>
<rect x="-1.04167" y="1.04167" width="114.583" height="164.583" rx="3.125" transform="matrix(-1 0 0 1 156.25 16.667)" fill="white" stroke="#13141A" stroke-width="2.08333"/>
<path d="M59.1218 37.3437L54.5769 36.0546C55.5553 31.4629 58.338 29.167 62.925 29.167C65.6393 29.167 67.6855 29.8981 69.0637 31.3603C70.4524 32.8096 71.1468 34.5155 71.1468 36.4779C71.1468 37.8246 70.8312 39.0431 70.1999 40.1334C69.5687 41.2107 68.6219 42.1599 67.3594 42.9808C68.8954 43.6221 70.0474 44.5327 70.8154 45.7127C71.5834 46.8799 71.9674 48.3228 71.9674 50.0416C71.9674 52.517 71.2204 54.5179 69.7265 56.0442C68.2431 57.5705 66.018 58.3337 63.0512 58.3337C60.6315 58.3337 58.722 57.8463 57.3228 56.8715C55.9236 55.8839 54.8715 54.0433 54.1666 51.3498L58.4432 49.6375C58.8851 51.3306 59.469 52.4272 60.1949 52.9274C60.9313 53.4277 61.8361 53.6778 62.9092 53.6778C64.3821 53.6778 65.4552 53.293 66.1285 52.5234C66.8018 51.741 67.1385 50.8496 67.1385 49.8492C67.1385 48.6948 66.7545 47.7649 65.9865 47.0595C65.229 46.354 64.0822 46.0013 62.5462 46.0013H61.4889V41.7494H62.0255C63.4563 41.7494 64.5504 41.3582 65.3079 40.5759C66.0654 39.7935 66.4441 38.7545 66.4441 37.4591C66.4441 36.433 66.1337 35.5672 65.513 34.8618C64.9028 34.1564 64.0244 33.8036 62.8776 33.8036C60.9208 33.8036 59.6689 34.9837 59.1218 37.3437Z" fill="black"/>
<path d="M74.9696 43.9235C74.9696 41.0504 75.3221 38.6391 76.027 36.6895C76.553 35.253 77.2684 33.964 78.1731 32.8224C79.0884 31.6809 80.0879 30.8344 81.1715 30.2829C82.6128 29.539 84.2751 29.167 86.1582 29.167C89.5669 29.167 92.2917 30.456 94.3327 33.0341C96.3842 35.6121 97.41 39.197 97.41 43.7888C97.41 48.3421 96.3947 51.9078 94.3643 54.4858C92.3338 57.051 89.6195 58.3337 86.2214 58.3337C82.7811 58.3337 80.0458 57.0575 78.0153 54.5051C75.9849 51.9398 74.9696 48.4126 74.9696 43.9235ZM79.7828 43.7311C79.7828 46.9248 80.3877 49.3489 81.5976 51.0035C82.8074 52.6453 84.3434 53.4661 86.2056 53.4661C88.0677 53.4661 89.5932 52.6517 90.782 51.0228C91.9814 49.381 92.581 46.9248 92.581 43.6541C92.581 40.4219 91.9971 38.0106 90.8294 36.4202C89.6721 34.8297 88.1308 34.0345 86.2056 34.0345C84.2803 34.0345 82.7285 34.8426 81.5502 36.4587C80.3719 38.0619 79.7828 40.4861 79.7828 43.7311Z" fill="black"/>
<path d="M101.359 57.8527V29.648H106.03V40.749H115.183V29.648H119.854V57.8527H115.183V45.5203H106.03V57.8527H101.359Z" fill="black"/>
<path d="M145.833 57.8527H140.752L138.732 51.446H129.484L127.575 57.8527H122.62L131.631 29.648H136.57L145.833 57.8527ZM137.233 46.6939L134.045 36.2278L130.92 46.6939H137.233Z" fill="black"/>
<rect x="54.1666" y="70.834" width="91.6667" height="91.6667" rx="4.16667" fill="#1071AF"/>
<path d="M99.5833 109.455C99.5833 108.836 100.085 108.334 100.704 108.334L138.463 108.334C139.081 108.334 139.583 108.836 139.583 109.454V125.649L99.5833 125.65V109.455Z" fill="white"/>
<path fill-rule="evenodd" clip-rule="evenodd" d="M122.803 132.372C122.787 132.187 122.778 132 122.778 131.811C122.778 130.322 123.307 128.955 124.187 127.89L96.9355 127.891V112.205H87.6822C86.476 112.205 85.3623 112.851 84.7638 113.898L81.6929 119.272C81.4027 119.78 81.25 120.355 81.25 120.94V130.131C81.25 131.369 82.2532 132.372 83.4908 132.372H83.6003C83.5835 132.187 83.5748 132 83.5748 131.811C83.5748 128.455 86.2956 125.734 89.6519 125.734C93.0082 125.734 95.729 128.455 95.729 131.811C95.729 132 95.7204 132.187 95.7035 132.372L122.803 132.372ZM83.4881 120.33C83.2747 120.703 83.5444 121.168 83.9745 121.168H94.6933V114.446H86.8505L83.4881 120.33Z" fill="white"/>
<path d="M135.075 132.372H139.583V127.89H133.691C134.571 128.955 135.1 130.322 135.1 131.811C135.1 132 135.091 132.187 135.075 132.372Z" fill="white"/>
<path fill-rule="evenodd" clip-rule="evenodd" d="M123.897 131.811C123.897 134.595 126.155 136.853 128.939 136.853C131.724 136.853 133.981 134.595 133.981 131.811C133.981 129.026 131.724 126.769 128.939 126.769C126.155 126.769 123.897 129.026 123.897 131.811ZM126.139 131.811C126.139 133.358 127.393 134.612 128.94 134.612C130.487 134.612 131.741 133.358 131.741 131.811C131.741 130.264 130.487 129.01 128.94 129.01C127.393 129.01 126.139 130.264 126.139 131.811Z" fill="white"/>
<path fill-rule="evenodd" clip-rule="evenodd" d="M84.61 131.811C84.61 134.596 86.8673 136.853 89.6518 136.853C92.4363 136.853 94.6936 134.596 94.6936 131.811C94.6936 129.027 92.4363 126.77 89.6518 126.77C86.8673 126.77 84.61 129.027 84.61 131.811ZM86.8516 131.812C86.8516 133.359 88.1056 134.613 89.6526 134.613C91.1995 134.613 92.4536 133.359 92.4536 131.812C92.4536 130.265 91.1995 129.011 89.6526 129.011C88.1056 129.011 86.8516 130.265 86.8516 131.812Z" fill="white"/>
<path d="M137.5 138.544H70.8329V118.368" stroke="white" stroke-width="2.08333"/>
<circle cx="70.8333" cy="106.251" r="11.4583" stroke="white" stroke-width="2.08333"/>
<path d="M71.875 106.251L66.6666 108.334" stroke="white" stroke-width="2.08333"/>
</svg>
