<svg width="200" height="201" viewBox="0 0 200 201" fill="none" xmlns="http://www.w3.org/2000/svg">
<rect x="198.438" y="50.1452" width="101.042" height="196.875" rx="8.85417" transform="rotate(90 198.438 50.1452)" fill="white" stroke="#13141A" stroke-width="1.04167"/>
<rect x="193.229" y="55.3538" width="90.625" height="186.458" rx="3.64583" transform="rotate(90 193.229 55.3538)" stroke="black" stroke-width="1.04167"/>
<path d="M50.1953 107.649L55.9319 106.96C56.1146 108.407 56.6068 109.514 57.4082 110.279C58.2096 111.044 59.1798 111.427 60.3186 111.427C61.5419 111.427 62.5683 110.968 63.3978 110.049C64.2414 109.131 64.6632 107.892 64.6632 106.334C64.6632 104.858 64.2625 103.689 63.4611 102.827C62.6597 101.964 61.6825 101.532 60.5295 101.532C59.7703 101.532 58.8634 101.678 57.8089 101.971L58.4627 97.1903C60.0656 97.2321 61.2888 96.8911 62.1324 96.1674C62.976 95.4298 63.3978 94.4557 63.3978 93.2449C63.3978 92.2151 63.0885 91.394 62.4699 90.7817C61.8512 90.1693 61.0287 89.8632 60.0023 89.8632C58.99 89.8632 58.1253 90.2111 57.4082 90.9069C56.6911 91.6028 56.2553 92.6187 56.1006 93.9547L50.6382 93.0362C51.0178 91.1852 51.5873 89.7101 52.3465 88.6107C53.1198 87.4973 54.1884 86.6275 55.5522 86.0013C56.9301 85.3611 58.4697 85.041 60.171 85.041C63.0815 85.041 65.4155 85.9595 67.173 87.7965C68.6212 89.2995 69.3453 90.9974 69.3453 92.89C69.3453 95.576 67.8619 97.7191 64.8952 99.3196C66.6668 99.6953 68.0799 100.537 69.1344 101.845C70.203 103.154 70.7372 104.733 70.7372 106.584C70.7372 109.27 69.746 111.559 67.7635 113.452C65.781 115.345 63.3135 116.291 60.3608 116.291C57.5628 116.291 55.2429 115.498 53.401 113.911C51.5592 112.311 50.4906 110.223 50.1953 107.649Z" fill="black"/>
<path d="M84.467 85.041C87.4618 85.041 89.8028 86.0987 91.4901 88.214C93.5007 90.719 94.506 94.8732 94.506 100.676C94.506 106.466 93.4937 110.627 91.469 113.16C89.7958 115.247 87.4618 116.291 84.467 116.291C81.4581 116.291 79.0328 115.15 77.1909 112.868C75.349 110.571 74.428 106.487 74.428 100.614C74.428 94.8523 75.4404 90.7051 77.465 88.1723C79.1382 86.0848 81.4722 85.041 84.467 85.041ZM84.467 89.9049C83.7499 89.9049 83.1102 90.1345 82.5478 90.5938C81.9854 91.0391 81.5495 91.8463 81.2402 93.0153C80.8325 94.5322 80.6286 97.0859 80.6286 100.676C80.6286 104.267 80.8114 106.737 81.1769 108.087C81.5425 109.423 81.9995 110.314 82.5478 110.759C83.1102 111.204 83.7499 111.427 84.467 111.427C85.1841 111.427 85.8238 111.204 86.3862 110.759C86.9486 110.3 87.3845 109.486 87.6938 108.317C88.1016 106.814 88.3054 104.267 88.3054 100.676C88.3054 97.0859 88.1227 94.6227 87.7571 93.2867C87.3915 91.9368 86.9275 91.0391 86.3651 90.5938C85.8168 90.1345 85.1841 89.9049 84.467 89.9049Z" fill="black"/>
<path d="M108.51 85.041C111.505 85.041 113.846 86.0987 115.533 88.214C117.544 90.719 118.549 94.8732 118.549 100.676C118.549 106.466 117.537 110.627 115.512 113.16C113.839 115.247 111.505 116.291 108.51 116.291C105.501 116.291 103.076 115.15 101.234 112.868C99.3919 110.571 98.471 106.487 98.471 100.614C98.471 94.8523 99.4833 90.7051 101.508 88.1723C103.181 86.0848 105.515 85.041 108.51 85.041ZM108.51 89.9049C107.793 89.9049 107.153 90.1345 106.591 90.5938C106.028 91.0391 105.592 91.8463 105.283 93.0153C104.875 94.5322 104.671 97.0859 104.671 100.676C104.671 104.267 104.854 106.737 105.22 108.087C105.585 109.423 106.042 110.314 106.591 110.759C107.153 111.204 107.793 111.427 108.51 111.427C109.227 111.427 109.867 111.204 110.429 110.759C110.992 110.3 111.427 109.486 111.737 108.317C112.144 106.814 112.348 104.267 112.348 100.676C112.348 97.0859 112.166 94.6227 111.8 93.2867C111.434 91.9368 110.97 91.0391 110.408 90.5938C109.86 90.1345 109.227 89.9049 108.51 89.9049Z" fill="black"/>
<path d="M123.969 93.5998H131.309L136.876 109.047L142.486 93.5998H149.805V115.769H144.764V101.177L139.302 115.769H134.24L129.031 101.177V115.769H123.969V93.5998Z" fill="black"/>
<path fill-rule="evenodd" clip-rule="evenodd" d="M32.4422 95.4588L39.5834 95.4588L27.0834 75.666L14.5834 95.4588L21.7339 95.4588L21.7339 121.505L32.4422 121.505L32.4422 95.4588Z" fill="black"/>
<path fill-rule="evenodd" clip-rule="evenodd" d="M178.276 95.4588L185.417 95.4588L172.917 75.666L160.417 95.4588L167.567 95.4588L167.567 121.505L178.276 121.505L178.276 95.4588Z" fill="black"/>
</svg>
