<svg width="200" height="201" viewBox="0 0 200 201" fill="none" xmlns="http://www.w3.org/2000/svg">
<path d="M174.314 169.937H25.6864C18.3215 169.937 13.7368 161.964 17.4754 155.635L91.789 29.8226C95.4728 23.586 104.527 23.586 108.211 29.8226L182.525 155.635C186.263 161.964 181.679 169.937 174.314 169.937Z" fill="#FF0E00" stroke="black" stroke-width="1.04167"/>
<path d="M25.6864 167.333H174.314C179.681 167.333 182.986 161.537 180.283 156.959L105.969 31.147C103.293 26.6168 96.7071 26.6168 94.0313 31.147L19.7176 156.959C17.014 161.537 20.3189 167.333 25.6864 167.333Z" fill="#FF0E00" stroke="white" stroke-width="4.16667"/>
<path fill-rule="evenodd" clip-rule="evenodd" d="M35.9376 154.834L100 46.0967L164.063 154.834H35.9376Z" fill="white"/>
<path fill-rule="evenodd" clip-rule="evenodd" d="M102.084 90.25V93.0053L114.337 103.442L108.024 109.833H93.6459L87.3333 103.442L99.5843 93.0063V90.25H102.084ZM91.0032 103.6L94.6906 107.333H106.979L110.667 103.6L100.835 95.2251L91.0032 103.6ZM126.372 111.913H73.6278C72.0397 111.913 70.546 112.668 69.6035 113.946L63.4758 122.257C62.842 123.116 62.5001 124.156 62.5001 125.224V136.913C62.5001 138.754 63.9925 140.247 65.8335 140.247H69.1668L72.0053 135.155C72.3145 134.692 72.8348 134.413 73.3921 134.413H126.608C127.165 134.413 127.686 134.692 127.995 135.155L130.833 140.247H134.167C136.008 140.247 137.5 138.754 137.5 136.913V125.224C137.5 124.156 137.158 123.116 136.524 122.257L130.397 113.946C129.454 112.668 127.961 111.913 126.372 111.913ZM133.702 123.929L127.999 115.944C127.686 115.506 127.181 115.247 126.642 115.247H125.833C124.913 115.247 124.167 115.993 124.167 116.913V123.58C124.167 124.5 124.913 125.247 125.833 125.247H133.024C133.701 125.247 134.096 124.48 133.702 123.929ZM73.3578 115.247C72.8196 115.247 72.3144 115.506 72.0016 115.944L66.2985 123.929C65.9045 124.48 66.2988 125.247 66.9766 125.247H74.1668C75.0873 125.247 75.8335 124.5 75.8335 123.58V116.913C75.8335 115.993 75.0873 115.247 74.1668 115.247H73.3578ZM105.833 116.913C105.833 115.993 105.087 115.247 104.167 115.247H95.8335C94.913 115.247 94.1668 115.993 94.1668 116.913V123.58C94.1668 124.5 94.913 125.247 95.8335 125.247H104.167C105.087 125.247 105.833 124.5 105.833 123.58V116.913ZM109.167 116.913C109.167 115.993 109.913 115.247 110.833 115.247H119.167C120.087 115.247 120.833 115.993 120.833 116.913V123.58C120.833 124.5 120.087 125.247 119.167 125.247H110.833C109.913 125.247 109.167 124.5 109.167 123.58V116.913ZM90.8335 116.913C90.8335 115.993 90.0873 115.247 89.1668 115.247H80.8335C79.913 115.247 79.1668 115.993 79.1668 116.913V123.58C79.1668 124.5 79.913 125.247 80.8335 125.247H89.1668C90.0873 125.247 90.8335 124.5 90.8335 123.58V116.913ZM80.83 141.086C80.83 143.387 78.9645 145.253 76.6633 145.253C74.3621 145.253 72.4967 143.387 72.4967 141.086C72.4967 138.785 74.3621 136.919 76.6633 136.919C78.9645 136.919 80.83 138.785 80.83 141.086ZM117.502 141.086C117.502 143.387 115.637 145.253 113.336 145.253C111.035 145.253 109.169 143.387 109.169 141.086C109.169 138.785 111.035 136.919 113.336 136.919C115.637 136.919 117.502 138.785 117.502 141.086ZM86.6678 145.253C88.9689 145.253 90.8344 143.387 90.8344 141.086C90.8344 138.785 88.9689 136.919 86.6678 136.919C84.3666 136.919 82.5011 138.785 82.5011 141.086C82.5011 143.387 84.3666 145.253 86.6678 145.253ZM127.495 141.086C127.495 143.387 125.63 145.253 123.329 145.253C121.027 145.253 119.162 143.387 119.162 141.086C119.162 138.785 121.027 136.919 123.329 136.919C125.63 136.919 127.495 138.785 127.495 141.086ZM92.4938 136.919H107.494L106.403 139.101C106.05 139.807 105.329 140.253 104.54 140.253H95.4481C94.6589 140.253 93.9376 139.807 93.5847 139.101L92.4938 136.919Z" fill="black"/>
</svg>
