<svg width="200" height="201" viewBox="0 0 200 201" fill="none" xmlns="http://www.w3.org/2000/svg">
<rect x="1.56254" y="146.687" width="92.7084" height="196.875" rx="8.85417" transform="rotate(-90 1.56254 146.687)" fill="white" stroke="#13141A" stroke-width="1.04167"/>
<rect x="6.77083" y="141.479" width="82.2917" height="186.458" rx="3.64583" transform="rotate(-90 6.77083 141.479)" stroke="black" stroke-width="1.04167"/>
<path fill-rule="evenodd" clip-rule="evenodd" d="M85.3577 64.9165C83.1173 64.9165 81.2172 66.5682 80.8976 68.7935C80.586 70.9631 81.8699 73.0446 83.944 73.7323L86.4688 74.5694L80.2458 85.4017C78.297 84.5249 76.1336 84.0369 73.8557 84.0369C65.283 84.0369 58.3334 90.9495 58.3334 99.4767C58.3334 108.004 65.283 114.917 73.8557 114.917C82.4285 114.917 89.378 108.004 89.378 99.4767C89.378 94.2603 86.7773 89.6481 82.7953 86.8529L84.4293 84.0086L102.783 100.542C102.891 100.644 103.016 100.731 103.157 100.799C103.387 100.909 103.632 100.954 103.87 100.941H112.358C113.099 108.781 119.735 114.916 127.811 114.916C136.384 114.916 143.333 108.004 143.333 99.4764C143.333 90.9492 136.384 84.0366 127.811 84.0366C125.152 84.0366 122.65 84.7015 120.462 85.8732L115.233 78.0705V73.7391L119.678 73.7391C120.488 73.7391 121.144 73.0806 121.144 72.2684C121.144 71.4562 120.488 70.7977 119.678 70.7977L107.113 70.7977C106.303 70.7977 105.647 71.4562 105.647 72.2684C105.647 73.0806 106.303 73.7391 107.113 73.7391L112.302 73.7391V77.0452H88.4297L89.9068 74.474C90.1269 74.0908 90.1635 73.6286 90.0064 73.2154C89.8494 72.8022 89.5154 72.4818 89.0969 72.343L84.8636 70.9394C84.1385 70.699 83.6897 69.9715 83.7987 69.213C83.9104 68.4352 84.5746 67.8578 85.3577 67.8578H92.7025C93.5119 67.8578 94.168 67.1994 94.168 66.3872C94.168 65.5749 93.5119 64.9165 92.7025 64.9165H85.3577ZM118.018 87.4966L113.983 81.4759L106.114 97.9992H112.359C112.763 93.7688 114.882 90.0359 118.018 87.4966ZM115.307 97.9992C115.688 94.7893 117.297 91.9438 119.661 89.9484L125.057 97.9992H115.307ZM115.305 100.941H127.809C128.351 100.941 128.848 100.641 129.102 100.161C129.357 99.6815 129.327 99.1001 129.025 98.6491L122.108 88.3293C123.818 87.4656 125.755 86.9779 127.811 86.9779C134.789 86.9779 140.402 92.5982 140.402 99.4764C140.402 106.355 134.789 111.975 127.811 111.975C121.335 111.975 116.035 107.135 115.305 100.941ZM73.8557 86.9782C75.6024 86.9782 77.2636 87.3303 78.7726 87.9661L72.5843 98.738C72.1801 99.4417 72.4208 100.341 73.122 100.747C73.8232 101.152 74.7194 100.911 75.1236 100.207L81.3246 89.4129C84.4359 91.693 86.447 95.3595 86.447 99.4767C86.447 106.355 80.8342 111.975 73.8557 111.975C66.8773 111.975 61.2644 106.355 61.2644 99.4767C61.2644 92.5984 66.8773 86.9782 73.8557 86.9782ZM86.7399 79.9865L85.9257 81.4039L103.31 97.0649L111.443 79.9865H86.7399Z" fill="black"/>
<path d="M49.542 129.965L54.1971 125.332L58.6832 125.332L54.028 129.965L156.25 129.965L156.25 133.09L53.9176 133.09L58.6832 137.832L54.1971 137.832L47.9166 131.582L49.4868 130.02L49.4868 129.965L49.542 129.965Z" fill="black"/>
<path d="M154.625 119.549L149.969 114.917L145.483 114.917L150.139 119.549L47.9167 119.549L47.9167 122.674L150.249 122.674L145.483 127.417L149.969 127.417L156.25 121.167L154.68 119.604L154.68 119.549L154.625 119.549Z" fill="black"/>
</svg>
