<svg width="200" height="200" viewBox="0 0 200 200" fill="none" xmlns="http://www.w3.org/2000/svg">
<rect x="1.56254" y="146.355" width="92.7084" height="196.875" rx="8.85417" transform="rotate(-90 1.56254 146.355)" fill="white" stroke="#13141A" stroke-width="1.04167"/>
<path d="M95.0041 77.5593C98.5873 77.5593 101.492 74.6549 101.492 71.0716C101.492 67.4884 98.5873 64.584 95.0041 64.584C91.4208 64.584 88.5164 67.4884 88.5164 71.0716C88.5164 74.6549 91.4208 77.5593 95.0041 77.5593Z" fill="black"/>
<path fill-rule="evenodd" clip-rule="evenodd" d="M95.72 78.7467C92.3712 79.1242 90.0433 82.0277 90.4207 85.3774L91.3575 93.6951C90.7257 93.706 90.0985 93.7512 89.4767 93.8191C79.8521 94.8663 71.8792 102.584 70.927 112.581C69.8427 124.004 78.2998 134.237 89.7229 135.324C101.146 136.409 111.382 127.952 112.469 116.528C112.74 113.669 112.437 110.895 111.595 108.26L114.023 107.986L118.463 122.875C118.9 124.342 120.44 125.179 121.909 124.749L129.524 122.518C129.827 122.43 130.087 122.264 130.288 122.049C130.687 121.62 130.854 120.995 130.67 120.393C130.454 119.691 129.812 119.207 129.077 119.193L125.516 119.132L120.907 103.137C120.281 100.966 118.181 99.5628 115.935 99.8153L104.925 101.056L102.999 83.9591C102.621 80.6103 99.706 78.2978 96.3572 78.6752L95.72 78.7467ZM78.3225 113.293C78.9406 106.791 84.0109 101.857 90.2497 101.195C90.885 101.127 91.5394 101.095 92.1947 101.119L92.8174 106.647C93.0464 108.681 94.8819 110.145 96.9165 109.916L104.054 109.111C105.014 111.177 105.341 113.283 105.1 115.814C104.396 123.244 97.8687 128.666 90.4388 127.958C83.009 127.251 77.6174 120.723 78.3225 113.293Z" fill="black"/>
<path d="M118.293 85.7928C118.076 83.8686 117.424 82.3644 114.878 82.6504L104.172 83.8568L104.954 90.7934L115.66 89.5869C118.205 89.3 118.509 87.717 118.293 85.7928Z" fill="black"/>
<path fill-rule="evenodd" clip-rule="evenodd" d="M193.75 65.8753L23.2179 141.667H10.4167C8.11548 141.667 6.25 139.802 6.25 137.501V134.125L176.779 58.334H189.583C191.885 58.334 193.75 60.1995 193.75 62.5007V65.8753Z" fill="#FF0E00"/>
<rect x="6.77083" y="141.146" width="82.2917" height="186.458" rx="3.64583" transform="rotate(-90 6.77083 141.146)" stroke="black" stroke-width="1.04167"/>
</svg>
