<svg width="200" height="201" viewBox="0 0 200 201" fill="none" xmlns="http://www.w3.org/2000/svg">
<rect x="0.520833" y="-0.520833" width="196.875" height="151.042" rx="8.85417" transform="matrix(-1 0 0 1 198.958 25.6664)" fill="white" stroke="#13141A" stroke-width="1.04167"/>
<rect width="187.5" height="141.667" rx="4.16667" transform="matrix(-1 0 0 1 193.75 29.8336)" fill="#1071AF"/>
<path d="M29.6346 82.9207V89.2684C30.1364 89.2277 30.5162 89.0412 30.7739 88.7089C31.0316 88.3766 31.3877 87.617 31.842 86.4302C32.4388 84.8772 33.0492 83.8871 33.6731 83.4598C34.2902 83.0394 35.3177 82.8291 36.7554 82.8291C36.8232 82.8291 36.969 82.8257 37.1928 82.819V85.0468L36.7554 85.0366C36.145 85.0366 35.6974 85.1146 35.4126 85.2705C35.1278 85.4197 34.8972 85.6503 34.7209 85.9623C34.5445 86.2742 34.2834 86.9151 33.9376 87.8849C33.7545 88.4003 33.5544 88.8309 33.3374 89.1768C33.1272 89.5227 32.7508 89.8482 32.2083 90.1534C32.8796 90.35 33.4323 90.7366 33.8664 91.313C34.3072 91.8827 34.7887 92.6931 35.3109 93.7443L37.3454 97.8336H33.8053L32.015 93.9782C31.9946 93.924 31.937 93.8189 31.842 93.6629C31.7878 93.5612 31.6657 93.3272 31.4758 92.961C31.0961 92.2489 30.7841 91.7945 30.54 91.5979C30.2958 91.4012 29.994 91.3029 29.6346 91.3029V97.8336H26.6947V91.3029C26.3489 91.3029 26.0505 91.3978 25.7996 91.5877C25.5486 91.7776 25.2367 92.2353 24.8637 92.961C24.6535 93.3679 24.528 93.6018 24.4873 93.6629C24.4263 93.7646 24.3686 93.8697 24.3144 93.9782L22.524 97.8336H18.984L21.0185 93.7443C21.5203 92.7338 21.9916 91.9336 22.4325 91.3435C22.88 90.7468 23.4463 90.35 24.1313 90.1534C23.5887 89.8482 23.209 89.5261 22.9919 89.187C22.7817 88.8411 22.5817 88.4071 22.3918 87.8849C22.0527 86.9355 21.795 86.3014 21.6187 85.9826C21.4491 85.6639 21.2185 85.4265 20.9269 85.2705C20.6421 85.1146 20.1742 85.0366 19.5231 85.0366C19.4417 85.0366 19.3129 85.04 19.1366 85.0468V82.819C19.3604 82.8257 19.5062 82.8291 19.574 82.8291C21.032 82.8291 22.0696 83.0428 22.6868 83.47C23.2971 83.904 23.8973 84.8908 24.4873 86.4302C24.9485 87.6238 25.3045 88.3867 25.5554 88.719C25.8131 89.0446 26.1929 89.2277 26.6947 89.2684V82.9207H29.6346ZM39.0137 87.0304H41.7603V93.8155L46.1548 87.0304H48.9624V97.8336H46.2158V90.9265L41.7603 97.8336H39.0137V87.0304ZM50.6205 87.0304H60.3963V89.3396H56.9377V97.8336H54.0792V89.3396H50.6205V87.0304ZM61.1694 92.2794C61.1694 91.33 61.4034 90.4111 61.8713 89.5227C62.3393 88.6343 63.0005 87.9561 63.855 87.4882C64.7163 87.0202 65.6759 86.7863 66.7338 86.7863C68.3682 86.7863 69.7076 87.3186 70.752 88.3833C71.7963 89.4413 72.3185 90.7807 72.3185 92.4015C72.3185 94.0359 71.7896 95.3922 70.7316 96.4705C69.6805 97.542 68.3546 98.0778 66.7542 98.0778C65.764 98.0778 64.818 97.854 63.916 97.4064C63.0208 96.9588 62.3393 96.3043 61.8713 95.4431C61.4034 94.575 61.1694 93.5205 61.1694 92.2794ZM64.0991 92.432C64.0991 93.5035 64.3534 94.3241 64.8621 94.8938C65.3707 95.4634 65.998 95.7483 66.744 95.7483C67.49 95.7483 68.1139 95.4634 68.6157 94.8938C69.1244 94.3241 69.3787 93.4967 69.3787 92.4117C69.3787 91.3537 69.1244 90.5399 68.6157 89.9703C68.1139 89.4006 67.49 89.1158 66.744 89.1158C65.998 89.1158 65.3707 89.4006 64.8621 89.9703C64.3534 90.5399 64.0991 91.3605 64.0991 92.432ZM74.3632 87.0304H77.9032L80.5888 94.5581L83.2947 87.0304H86.8246V97.8336H84.3933V90.723L81.7586 97.8336H79.3172L76.8046 90.723V97.8336H74.3632V87.0304ZM89.6322 87.0304H92.3788V93.8155L96.7733 87.0304H99.5809V97.8336H96.8343V90.9265L92.3788 97.8336H89.6322V87.0304ZM102.439 87.0304H105.105V88.6173C105.45 88.0748 105.918 87.634 106.508 87.2949C107.098 86.9558 107.753 86.7863 108.472 86.7863C109.726 86.7863 110.791 87.2779 111.666 88.2613C112.541 89.2446 112.978 90.6145 112.978 92.371C112.978 94.1749 112.537 95.5787 111.656 96.5824C110.774 97.5793 109.706 98.0778 108.451 98.0778C107.855 98.0778 107.312 97.9591 106.824 97.7217C106.342 97.4844 105.834 97.0775 105.298 96.501V101.943H102.439V87.0304ZM105.267 92.2489C105.267 93.4628 105.508 94.3614 105.99 94.9446C106.471 95.5211 107.058 95.8093 107.749 95.8093C108.414 95.8093 108.967 95.5448 109.408 95.0158C109.848 94.4801 110.069 93.6052 110.069 92.3913C110.069 91.2588 109.842 90.4178 109.387 89.8685C108.933 89.3192 108.37 89.0446 107.699 89.0446C107 89.0446 106.42 89.3158 105.959 89.8584C105.498 90.3941 105.267 91.191 105.267 92.2489Z" fill="white"/>
<path d="M166.256 97.8336H163.397V87.0609C162.353 88.0375 161.122 88.7597 159.705 89.2277V86.6337C160.451 86.3895 161.261 85.9284 162.136 85.2502C163.011 84.5653 163.611 83.7684 163.936 82.8597H166.256V97.8336ZM180.192 95.1786V97.8336H170.172C170.281 96.8299 170.606 95.8805 171.149 94.9853C171.691 94.0833 172.763 92.8898 174.363 91.4046C175.652 90.2042 176.442 89.3904 176.733 88.9632C177.127 88.3732 177.323 87.7899 177.323 87.2135C177.323 86.576 177.15 86.0877 176.805 85.7487C176.466 85.4028 175.994 85.2299 175.391 85.2299C174.794 85.2299 174.319 85.4096 173.966 85.769C173.614 86.1284 173.41 86.7252 173.356 87.5594L170.508 87.2745C170.677 85.7012 171.21 84.572 172.105 83.8871C173 83.2021 174.119 82.8597 175.462 82.8597C176.933 82.8597 178.09 83.2564 178.931 84.0498C179.772 84.8433 180.192 85.83 180.192 87.01C180.192 87.6814 180.07 88.3223 179.826 88.9327C179.588 89.5362 179.209 90.1703 178.687 90.8349C178.341 91.2757 177.717 91.9098 176.815 92.7372C175.913 93.5645 175.34 94.1139 175.096 94.3851C174.858 94.6564 174.665 94.9209 174.516 95.1786H180.192Z" fill="white"/>
<path d="M156.999 124.345V127H146.979C147.087 125.996 147.413 125.047 147.955 124.152C148.498 123.25 149.569 122.056 151.17 120.571C152.458 119.371 153.248 118.557 153.54 118.13C153.933 117.54 154.13 116.956 154.13 116.38C154.13 115.742 153.957 115.254 153.611 114.915C153.272 114.569 152.801 114.396 152.197 114.396C151.6 114.396 151.126 114.576 150.773 114.935C150.42 115.295 150.217 115.892 150.163 116.726L147.314 116.441C147.484 114.868 148.016 113.738 148.911 113.053C149.807 112.369 150.926 112.026 152.268 112.026C153.74 112.026 154.896 112.423 155.737 113.216C156.578 114.01 156.999 114.996 156.999 116.176C156.999 116.848 156.877 117.489 156.632 118.099C156.395 118.703 156.015 119.337 155.493 120.001C155.147 120.442 154.523 121.076 153.621 121.904C152.719 122.731 152.146 123.28 151.902 123.552C151.665 123.823 151.472 124.087 151.322 124.345H156.999ZM163.774 112.026C165.218 112.026 166.347 112.541 167.161 113.572C168.131 114.793 168.616 116.817 168.616 119.645C168.616 122.466 168.127 124.494 167.151 125.728C166.344 126.746 165.218 127.254 163.774 127.254C162.322 127.254 161.152 126.698 160.264 125.586C159.376 124.467 158.931 122.477 158.931 119.615C158.931 116.807 159.42 114.786 160.396 113.552C161.203 112.535 162.329 112.026 163.774 112.026ZM163.774 114.396C163.428 114.396 163.119 114.508 162.848 114.732C162.577 114.949 162.366 115.342 162.217 115.912C162.02 116.651 161.922 117.896 161.922 119.645C161.922 121.395 162.01 122.599 162.187 123.257C162.363 123.908 162.583 124.342 162.848 124.559C163.119 124.776 163.428 124.884 163.774 124.884C164.119 124.884 164.428 124.776 164.699 124.559C164.97 124.335 165.181 123.938 165.33 123.368C165.527 122.636 165.625 121.395 165.625 119.645C165.625 117.896 165.537 116.695 165.36 116.044C165.184 115.386 164.96 114.949 164.689 114.732C164.425 114.508 164.119 114.396 163.774 114.396ZM180.192 124.345V127H170.172C170.281 125.996 170.606 125.047 171.149 124.152C171.691 123.25 172.763 122.056 174.363 120.571C175.652 119.371 176.442 118.557 176.733 118.13C177.127 117.54 177.323 116.956 177.323 116.38C177.323 115.742 177.15 115.254 176.805 114.915C176.465 114.569 175.994 114.396 175.391 114.396C174.794 114.396 174.319 114.576 173.966 114.935C173.614 115.295 173.41 115.892 173.356 116.726L170.508 116.441C170.677 114.868 171.21 113.738 172.105 113.053C173 112.369 174.119 112.026 175.462 112.026C176.933 112.026 178.09 112.423 178.931 113.216C179.772 114.01 180.192 114.996 180.192 116.176C180.192 116.848 180.07 117.489 179.826 118.099C179.588 118.703 179.209 119.337 178.686 120.001C178.341 120.442 177.717 121.076 176.815 121.904C175.913 122.731 175.34 123.28 175.096 123.552C174.858 123.823 174.665 124.087 174.516 124.345H180.192Z" fill="white"/>
<path d="M147.345 144.112V141.457H157.121V143.532C156.314 144.326 155.493 145.465 154.659 146.95C153.825 148.435 153.187 150.015 152.746 151.69C152.312 153.359 152.099 154.851 152.106 156.166H149.349C149.396 154.105 149.82 152.002 150.62 149.859C151.427 147.716 152.502 145.801 153.845 144.112H147.345ZM163.774 141.192C165.218 141.192 166.347 141.708 167.161 142.739C168.131 143.959 168.616 145.984 168.616 148.812C168.616 151.633 168.127 153.661 167.151 154.895C166.344 155.912 165.218 156.421 163.774 156.421C162.322 156.421 161.152 155.865 160.264 154.752C159.376 153.633 158.931 151.643 158.931 148.781C158.931 145.974 159.42 143.953 160.396 142.718C161.203 141.701 162.329 141.192 163.774 141.192ZM163.774 143.563C163.428 143.563 163.119 143.675 162.848 143.898C162.577 144.115 162.366 144.509 162.217 145.078C162.02 145.818 161.922 147.062 161.922 148.812C161.922 150.561 162.01 151.765 162.187 152.423C162.363 153.074 162.583 153.508 162.848 153.725C163.119 153.942 163.428 154.05 163.774 154.05C164.119 154.05 164.428 153.942 164.699 153.725C164.97 153.501 165.181 153.104 165.33 152.535C165.527 151.802 165.625 150.561 165.625 148.812C165.625 147.062 165.537 145.862 165.36 145.211C165.184 144.553 164.96 144.115 164.689 143.898C164.425 143.675 164.119 143.563 163.774 143.563ZM170.599 152.718L173.366 152.413C173.434 152.976 173.61 153.393 173.895 153.664C174.18 153.935 174.556 154.071 175.024 154.071C175.614 154.071 176.116 153.8 176.53 153.257C176.944 152.715 177.208 151.589 177.323 149.88C176.604 150.714 175.706 151.131 174.628 151.131C173.454 151.131 172.441 150.68 171.586 149.778C170.738 148.869 170.314 147.689 170.314 146.238C170.314 144.726 170.762 143.508 171.657 142.586C172.559 141.657 173.705 141.192 175.096 141.192C176.608 141.192 177.849 141.779 178.819 142.952C179.788 144.119 180.273 146.041 180.273 148.72C180.273 151.446 179.768 153.413 178.758 154.62C177.747 155.827 176.432 156.431 174.811 156.431C173.644 156.431 172.702 156.122 171.983 155.505C171.264 154.881 170.803 153.952 170.599 152.718ZM177.069 146.472C177.069 145.55 176.855 144.834 176.428 144.326C176.008 143.817 175.519 143.563 174.963 143.563C174.434 143.563 173.994 143.773 173.641 144.193C173.295 144.607 173.122 145.289 173.122 146.238C173.122 147.201 173.312 147.91 173.692 148.364C174.072 148.812 174.546 149.035 175.116 149.035C175.665 149.035 176.126 148.818 176.499 148.384C176.879 147.95 177.069 147.313 177.069 146.472Z" fill="white"/>
<path d="M20.2657 127V112.087H25.0977C26.9287 112.087 28.1223 112.162 28.6784 112.311C29.5329 112.535 30.2483 113.023 30.8248 113.776C31.4012 114.522 31.6895 115.488 31.6895 116.675C31.6895 117.59 31.5233 118.36 31.191 118.984C30.8587 119.608 30.4348 120.1 29.9194 120.459C29.4108 120.812 28.892 121.046 28.363 121.161C27.6442 121.303 26.6032 121.375 25.2401 121.375H23.2768V127H20.2657ZM23.2768 114.61V118.842H24.9247C26.1115 118.842 26.905 118.764 27.3051 118.608C27.7052 118.452 28.0172 118.208 28.241 117.875C28.4715 117.543 28.5868 117.156 28.5868 116.716C28.5868 116.173 28.4275 115.725 28.1087 115.373C27.79 115.02 27.3865 114.8 26.8982 114.712C26.5388 114.644 25.8165 114.61 24.7314 114.61H23.2768ZM34.141 114.732V112.087H36.9995V114.732H34.141ZM34.141 127V116.197H36.9995V127H34.141ZM39.9699 116.197H46.226C47.5077 116.197 48.4673 116.431 49.1048 116.899C49.7423 117.367 50.061 118.072 50.061 119.015C50.061 119.618 49.8847 120.144 49.5321 120.591C49.1862 121.039 48.7488 121.337 48.2198 121.486C48.9658 121.67 49.5219 122.012 49.8881 122.514C50.2543 123.016 50.4374 123.565 50.4374 124.162C50.4374 125.003 50.1289 125.688 49.5117 126.217C48.8946 126.739 47.9825 127 46.7753 127H39.9699V116.197ZM42.8487 120.683H44.6899C45.5783 120.683 46.2192 120.571 46.6126 120.347C47.0127 120.123 47.2127 119.771 47.2127 119.289C47.2127 118.835 47.0262 118.513 46.6532 118.323C46.287 118.126 45.6326 118.028 44.6899 118.028H42.8487V120.683ZM42.8487 125.169H45.107C45.9208 125.169 46.5142 125.071 46.8872 124.874C47.2602 124.677 47.4467 124.325 47.4467 123.816C47.4467 123.287 47.2331 122.924 46.8058 122.728C46.3786 122.524 45.5478 122.422 44.3136 122.422H42.8487V125.169ZM52.6449 116.197H55.5033V120.154H59.5927V116.197H62.4614V127H59.5927V122.463H55.5033V127H52.6449V116.197ZM71.6065 123.562L74.4548 124.04C74.0885 125.084 73.5087 125.881 72.7153 126.43C71.9286 126.973 70.9418 127.244 69.7551 127.244C67.8765 127.244 66.4863 126.63 65.5843 125.403C64.8722 124.42 64.5162 123.179 64.5162 121.68C64.5162 119.889 64.9841 118.489 65.92 117.479C66.8559 116.461 68.0393 115.953 69.4702 115.953C71.0775 115.953 72.3457 116.485 73.2747 117.55C74.2038 118.608 74.648 120.232 74.6073 122.422H67.4459C67.4662 123.27 67.6968 123.931 68.1376 124.406C68.5784 124.874 69.1277 125.108 69.7856 125.108C70.2332 125.108 70.6095 124.986 70.9147 124.742C71.2199 124.498 71.4505 124.104 71.6065 123.562ZM71.7692 120.673C71.7489 119.845 71.5352 119.218 71.1283 118.791C70.7214 118.357 70.2264 118.14 69.6432 118.14C69.0192 118.14 68.5038 118.367 68.0969 118.821C67.69 119.276 67.49 119.893 67.4967 120.673H71.7692Z" fill="white"/>
<path d="M20.0216 141.253H23.0326V144.814C23.0326 145.967 23.0733 146.733 23.1547 147.113C23.2429 147.486 23.4972 147.811 23.9176 148.089C24.3381 148.367 24.9552 148.506 25.769 148.506C26.4133 148.506 26.9864 148.439 27.4882 148.303C27.99 148.161 28.4241 147.954 28.7903 147.682V141.253H31.8014V156.166H28.7903V150.165C28.1799 150.436 27.5798 150.643 26.9897 150.785C26.3997 150.921 25.8199 150.989 25.2502 150.989C23.7651 150.989 22.5206 150.639 21.5169 149.941C20.52 149.235 20.0216 148.018 20.0216 146.289V141.253ZM34.2326 150.612C34.2326 149.663 34.4666 148.744 34.9345 147.855C35.4024 146.967 36.0636 146.289 36.9181 145.821C37.7794 145.353 38.739 145.119 39.797 145.119C41.4313 145.119 42.7707 145.651 43.8151 146.716C44.8595 147.774 45.3817 149.113 45.3817 150.734C45.3817 152.369 44.8527 153.725 43.7948 154.803C42.7436 155.875 41.4178 156.411 39.8173 156.411C38.8272 156.411 37.8811 156.187 36.9792 155.739C36.084 155.292 35.4024 154.637 34.9345 153.776C34.4666 152.908 34.2326 151.853 34.2326 150.612ZM37.1623 150.765C37.1623 151.836 37.4166 152.657 37.9252 153.227C38.4338 153.796 39.0611 154.081 39.8071 154.081C40.5531 154.081 41.177 153.796 41.6789 153.227C42.1875 152.657 42.4418 151.829 42.4418 150.744C42.4418 149.686 42.1875 148.873 41.6789 148.303C41.177 147.733 40.5531 147.449 39.8071 147.449C39.0611 147.449 38.4338 147.733 37.9252 148.303C37.4166 148.873 37.1623 149.693 37.1623 150.765ZM47.5179 145.363H57.1106V156.166H54.2521V147.672H50.3764V156.166H47.5179V145.363Z" fill="white"/>
<path d="M48.5112 45.0611C48.5112 43.5543 49.7327 42.3329 51.2394 42.3329H96.5271C98.0338 42.3329 99.2553 43.5543 99.2553 45.0611V61.9757C99.2553 63.7838 97.7895 65.2496 95.9815 65.2496H51.785C49.977 65.2496 48.5112 63.7838 48.5112 61.9757V45.0611Z" fill="#FF0E00" stroke="white" stroke-width="1.04167"/>
<path d="M56.1652 59.5748V47.8575H59.7059L61.832 55.8502L63.9341 47.8575H67.4828V59.5748H65.2848V50.3512L62.959 59.5748H60.681L58.3632 50.3512V59.5748H56.1652Z" fill="white"/>
<path d="M69.5609 56.4497V54.2037H73.9729V56.4497H69.5609Z" fill="white"/>
<path d="M78.5847 47.8096C79.7196 47.8096 80.6068 48.2145 81.2462 49.0245C82.0082 49.9836 82.3892 51.5741 82.3892 53.7961C82.3892 56.0127 82.0056 57.606 81.2383 58.5757C80.6042 59.375 79.7196 59.7746 78.5847 59.7746C77.4444 59.7746 76.5252 59.3377 75.8272 58.4638C75.1292 57.5846 74.7802 56.0207 74.7802 53.7721C74.7802 51.5661 75.1638 49.9783 75.9311 49.0085C76.5652 48.2092 77.4497 47.8096 78.5847 47.8096ZM78.5847 49.6719C78.3129 49.6719 78.0705 49.7598 77.8573 49.9356C77.6442 50.1061 77.479 50.4152 77.3618 50.8628C77.2073 51.4436 77.13 52.4214 77.13 53.7961C77.13 55.1708 77.1993 56.1166 77.3378 56.6335C77.4764 57.145 77.6495 57.4861 77.8573 57.6566C78.0705 57.8271 78.3129 57.9123 78.5847 57.9123C78.8564 57.9123 79.0989 57.8271 79.312 57.6566C79.5252 57.4807 79.6903 57.169 79.8076 56.7214C79.9621 56.146 80.0394 55.1708 80.0394 53.7961C80.0394 52.4214 79.9701 51.4782 79.8315 50.9667C79.693 50.4498 79.5172 50.1061 79.304 49.9356C79.0962 49.7598 78.8564 49.6719 78.5847 49.6719Z" fill="white"/>
<path d="M83.8199 56.4657L85.9939 56.2019C86.0632 56.7561 86.2497 57.1797 86.5534 57.4727C86.8571 57.7658 87.2248 57.9123 87.6564 57.9123C88.12 57.9123 88.5089 57.7365 88.8233 57.3848C89.143 57.0331 89.3029 56.5589 89.3029 55.9621C89.3029 55.3973 89.151 54.9497 88.8473 54.6193C88.5436 54.289 88.1733 54.1238 87.7363 54.1238C87.4486 54.1238 87.1049 54.1798 86.7053 54.2916L86.953 52.4613C87.5605 52.4773 88.0241 52.3468 88.3438 52.0697C88.6635 51.7873 88.8233 51.4143 88.8233 50.9507C88.8233 50.5564 88.7061 50.242 88.4716 50.0076C88.2372 49.7731 87.9255 49.6559 87.5365 49.6559C87.1529 49.6559 86.8252 49.7891 86.5534 50.0555C86.2816 50.3219 86.1165 50.7109 86.0579 51.2225L83.9877 50.8708C84.1316 50.1621 84.3474 49.5973 84.6352 49.1763C84.9282 48.75 85.3332 48.417 85.85 48.1772C86.3722 47.9321 86.9557 47.8096 87.6004 47.8096C88.7034 47.8096 89.588 48.1612 90.254 48.8646C90.8029 49.4401 91.0773 50.0902 91.0773 50.8148C91.0773 51.8432 90.5151 52.6638 89.3908 53.2766C90.0622 53.4204 90.5977 53.7428 90.9973 54.2437C91.4023 54.7446 91.6048 55.3493 91.6048 56.058C91.6048 57.0864 91.2291 57.963 90.4778 58.6876C89.7265 59.4123 88.7914 59.7746 87.6724 59.7746C86.612 59.7746 85.7328 59.4709 85.0348 58.8635C84.3368 58.2507 83.9318 57.4514 83.8199 56.4657Z" fill="white"/>
<path d="M103.422 45.6071C103.422 43.799 104.888 42.3333 106.696 42.3333H150.893C152.701 42.3333 154.167 43.799 154.167 45.6071V62.5217C154.167 64.0285 152.945 65.2499 151.438 65.2499H106.151C104.644 65.2499 103.422 64.0285 103.422 62.5217V45.6071Z" fill="#00AC5A" stroke="white" stroke-width="1.04167"/>
<path d="M112.95 59.5752V47.8579H121.638V49.8401H115.316V52.4377H121.199V54.4119H115.316V57.601H121.862V59.5752H112.95Z" fill="white"/>
<path d="M132.332 59.5752V57.2173H127.537V55.2511L132.62 47.8099H134.506V55.2431H135.961V57.2173H134.506V59.5752H132.332ZM132.332 55.2431V51.2388L129.639 55.2431H132.332Z" fill="white"/>
<path d="M140.837 47.8099C141.972 47.8099 142.859 48.2149 143.498 49.0248C144.26 49.984 144.641 51.5745 144.641 53.7965C144.641 56.0131 144.257 57.6063 143.49 58.5761C142.856 59.3754 141.972 59.775 140.837 59.775C139.696 59.775 138.777 59.3381 138.079 58.4642C137.381 57.585 137.032 56.0211 137.032 53.7725C137.032 51.5665 137.416 49.9786 138.183 49.0088C138.817 48.2096 139.702 47.8099 140.837 47.8099ZM140.837 49.6722C140.565 49.6722 140.322 49.7602 140.109 49.936C139.896 50.1065 139.731 50.4156 139.614 50.8631C139.459 51.444 139.382 52.4217 139.382 53.7965C139.382 55.1712 139.451 56.117 139.59 56.6339C139.728 57.1454 139.901 57.4864 140.109 57.6569C140.322 57.8275 140.565 57.9127 140.837 57.9127C141.108 57.9127 141.351 57.8275 141.564 57.6569C141.777 57.4811 141.942 57.1694 142.059 56.7218C142.214 56.1463 142.291 55.1712 142.291 53.7965C142.291 52.4217 142.222 51.4786 142.083 50.9671C141.945 50.4502 141.769 50.1065 141.556 49.936C141.348 49.7602 141.108 49.6722 140.837 49.6722Z" fill="white"/>
</svg>
