<svg width="204" height="201" viewBox="0 0 204 201" fill="none" xmlns="http://www.w3.org/2000/svg">
<rect x="202.518" y="41.6108" width="117.707" height="201.039" rx="8.85404" transform="rotate(90 202.518 41.6108)" fill="white" stroke="#13141A" stroke-width="1.04165"/>
<rect x="197.83" y="46.2999" width="108.332" height="191.664" rx="4.16661" transform="rotate(90 197.83 46.2999)" fill="#1071AF"/>
<path d="M88.4571 79.6301L115.54 79.6301L101.999 56.7137L88.4571 79.6301Z" fill="white"/>
<path d="M23.8747 79.6301L50.9576 79.6301L37.4162 56.7137L23.8747 79.6301Z" fill="white"/>
<path d="M101.998 79.6323V154.631" stroke="white" stroke-width="10.4165"/>
<path d="M37.4161 79.6323V154.631" stroke="white" stroke-width="10.4165"/>
<path d="M153.039 79.6301L180.122 79.6301L166.581 56.7137L153.039 79.6301Z" fill="white"/>
<path d="M166.581 79.6323V107.475C166.581 108.942 165.809 110.301 164.549 111.052L101.998 148.381" stroke="white" stroke-width="10.4165"/>
<path fill-rule="evenodd" clip-rule="evenodd" d="M135.331 46.2999H133.248V58.3373H135.331V46.2999ZM133.248 62.3473H135.331V74.3847H133.248V62.3473ZM133.248 78.3976H135.331V90.435H133.248V78.3976Z" fill="white"/>
<path fill-rule="evenodd" clip-rule="evenodd" d="M68.6657 46.2999H70.7491V58.3373H68.6657V46.2999ZM70.7491 62.3473H68.6657V74.3847H70.7491V62.3473ZM68.6657 78.3976H70.7491V90.435H68.6657V78.3976ZM68.6657 94.4459H70.7491V106.483H68.6657V94.4459ZM70.7491 110.494H68.6657V122.532H70.7491V110.494ZM68.6657 126.543H70.7491V138.58H68.6657V126.543ZM70.7491 142.593H68.6657V154.63H70.7491V142.593Z" fill="white"/>
<circle cx="101.999" cy="112.964" r="17.1872" fill="#1071AF" stroke="white" stroke-width="3.12495"/>
<path d="M96.494 118.751C99.1795 118.751 101.035 117.083 101.035 114.625V114.609C101.035 112.395 99.4236 110.792 97.1939 110.792C96.0057 110.792 95.0373 111.272 94.549 112.061H94.5002L94.785 108.757H100.327V106.804H92.8319L92.2948 113.697H94.4351C94.5734 113.453 94.7606 113.225 94.9966 113.046C95.3954 112.729 95.9081 112.55 96.5103 112.55C97.7798 112.55 98.6831 113.42 98.6912 114.657V114.674C98.6912 115.927 97.7879 116.806 96.5021 116.806C95.371 116.806 94.549 116.122 94.3781 115.235L94.3619 115.178H92.0914L92.0995 115.3C92.246 117.262 93.9387 118.751 96.494 118.751ZM107.374 118.751C110.353 118.751 112.159 116.415 112.159 112.68V112.664C112.159 108.928 110.353 106.601 107.374 106.601C104.396 106.601 102.589 108.928 102.589 112.664V112.68C102.589 116.415 104.396 118.751 107.374 118.751ZM107.374 116.781C105.909 116.781 105.071 115.26 105.071 112.68V112.664C105.071 110.084 105.909 108.57 107.374 108.57C108.839 108.57 109.677 110.084 109.677 112.664V112.68C109.677 115.26 108.839 116.781 107.374 116.781Z" fill="white"/>
<circle cx="37.4162" cy="112.964" r="17.1872" fill="#1071AF" stroke="white" stroke-width="3.12495"/>
<path d="M31.6513 106.601C29.039 106.601 27.1266 108.302 27.1266 110.702V110.719C27.1266 112.924 28.681 114.527 30.9514 114.527C32.5383 114.527 33.6939 113.73 34.1578 112.639H34.1985C34.2066 112.769 34.1985 112.932 34.1903 113.087C34.1008 115.162 33.3521 116.798 31.635 116.798C30.6748 116.798 30.0237 116.318 29.7308 115.61L29.7063 115.544H27.2813L27.2975 115.618C27.6475 117.432 29.3564 118.751 31.6269 118.751C34.6867 118.751 36.5503 116.432 36.5503 112.582V112.566C36.5503 108.587 34.4833 106.601 31.6513 106.601ZM31.6594 112.712C30.4388 112.712 29.5192 111.858 29.5192 110.637V110.621C29.5192 109.457 30.4876 108.554 31.6839 108.554C32.8883 108.554 33.8323 109.465 33.8323 110.654V110.662C33.8323 111.858 32.8883 112.712 31.6594 112.712ZM43.0196 118.751C45.9981 118.751 47.8047 116.415 47.8047 112.68V112.664C47.8047 108.928 45.9981 106.601 43.0196 106.601C40.0412 106.601 38.2345 108.928 38.2345 112.664V112.68C38.2345 116.415 40.0412 118.751 43.0196 118.751ZM43.0196 116.781C41.5548 116.781 40.7166 115.26 40.7166 112.68V112.664C40.7166 110.084 41.5548 108.57 43.0196 108.57C44.4844 108.57 45.3227 110.084 45.3227 112.664V112.68C45.3227 115.26 44.4844 116.781 43.0196 116.781Z" fill="white"/>
</svg>
