<svg width="204" height="201" viewBox="0 0 204 201" fill="none" xmlns="http://www.w3.org/2000/svg">
<rect x="202.518" y="41.2879" width="117.707" height="201.039" rx="8.85404" transform="rotate(90 202.518 41.2879)" fill="white" stroke="#13141A" stroke-width="1.04165"/>
<rect x="197.83" y="45.975" width="108.332" height="191.664" rx="4.16661" transform="rotate(90 197.83 45.975)" fill="#1071AF"/>
<path d="M88.4571 79.309L115.54 79.309L101.999 56.3927L88.4571 79.309Z" fill="white"/>
<path d="M101.998 79.3075V154.306" stroke="white" stroke-width="10.4165"/>
<path d="M23.8747 120.975L50.9576 120.975L37.4162 143.891L23.8747 120.975Z" fill="white"/>
<path d="M37.4161 120.974V45.9756" stroke="white" stroke-width="10.4165"/>
<path d="M153.039 79.309L180.122 79.309L166.581 56.3927L153.039 79.309Z" fill="white"/>
<path d="M166.581 79.3075V154.306" stroke="white" stroke-width="10.4165"/>
<path fill-rule="evenodd" clip-rule="evenodd" d="M133.248 45.975H135.331V58.0124H133.248V45.975ZM135.331 62.0265H133.248V74.0639H135.331V62.0265ZM133.248 78.0739H135.331V90.1113H133.248V78.0739ZM133.248 94.1223H135.331V106.16H133.248V94.1223ZM135.331 110.171H133.248V122.208H135.331V110.171ZM133.248 126.221H135.331V138.258H133.248V126.221ZM135.331 142.271H133.248V154.309H135.331V142.271Z" fill="white"/>
<rect x="68.6657" y="45.975" width="2.0833" height="108.332" fill="white"/>
<circle cx="101.999" cy="112.639" r="17.1872" fill="white" stroke="#FF0E00" stroke-width="3.12495"/>
<path fill-rule="evenodd" clip-rule="evenodd" d="M99.2761 106.907C99.2761 106.483 99.6195 106.14 100.043 106.14H111.097C111.521 106.14 111.864 106.483 111.864 106.907V113.198C111.864 113.621 111.521 113.965 111.097 113.965H100.043C99.6195 113.965 99.2761 113.621 99.2761 113.198V106.907ZM109.909 115.027C109.909 114.816 110.08 114.644 110.292 114.644H112.162C112.374 114.644 112.546 114.816 112.546 115.027V116.302C112.546 116.514 112.374 116.686 112.162 116.686H110.292C110.08 116.686 109.909 116.514 109.909 116.302V115.027ZM106.421 116.856C106.421 116.386 106.802 116.005 107.272 116.005C107.742 116.005 108.123 116.386 108.123 116.856C108.123 117.326 107.742 117.707 107.272 117.707C106.802 117.707 106.421 117.326 106.421 116.856ZM107.272 114.644C106.05 114.644 105.06 115.634 105.06 116.856C105.06 118.078 106.05 119.068 107.272 119.068C108.494 119.068 109.484 118.078 109.484 116.856C109.484 115.634 108.494 114.644 107.272 114.644ZM95.0226 116.006C94.5527 116.006 94.1718 116.387 94.1718 116.857C94.1718 117.327 94.5527 117.708 95.0226 117.708C95.4924 117.708 95.8733 117.327 95.8733 116.857C95.8733 116.387 95.4924 116.006 95.0226 116.006ZM92.8105 116.857C92.8105 115.635 93.8009 114.645 95.0226 114.645C96.2442 114.645 97.2346 115.635 97.2346 116.857C97.2346 118.078 96.2442 119.069 95.0226 119.069C93.8009 119.069 92.8105 118.078 92.8105 116.857ZM97.4893 108.52C97.9129 108.52 98.2563 108.864 98.2563 109.288V114.645H104.252C104.464 114.645 104.636 114.816 104.636 115.028V116.302C104.636 116.514 104.464 116.686 104.252 116.686H97.5731C97.4854 115.356 96.3786 114.304 95.0262 114.304C93.6738 114.304 92.5671 115.356 92.4794 116.686H92.2188C91.7952 116.686 91.4518 116.343 91.4518 115.919V112.404C91.4518 112.2 91.505 112 91.6062 111.823L93.1557 109.111C93.3644 108.746 93.7527 108.52 94.1732 108.52H97.4893ZM96.8948 109.542H94.4981C94.329 109.542 94.1729 109.632 94.089 109.779L92.8732 111.907L92.8703 111.912L92.8639 111.924H96.8948V109.542Z" fill="#05081B"/>
</svg>
