<svg width="200" height="201" viewBox="0 0 200 201" fill="none" xmlns="http://www.w3.org/2000/svg">
<path d="M25.6863 169.604H174.314C181.678 169.604 186.263 161.631 182.525 155.302L108.211 29.4896C104.527 23.253 95.4727 23.253 91.7889 29.4896L17.4753 155.302C13.7367 161.631 18.3214 169.604 25.6863 169.604Z" fill="#FF0E00" stroke="black" stroke-width="1.04167"/>
<path d="M174.314 167H25.6863C20.3188 167 17.0139 161.204 19.7175 156.626L94.0312 30.814C96.707 26.2838 103.293 26.2838 105.969 30.814L180.282 156.626C182.986 161.204 179.681 167 174.314 167Z" fill="#FF0E00" stroke="white" stroke-width="4.16667"/>
<path fill-rule="evenodd" clip-rule="evenodd" d="M164.062 154.501L99.9999 45.7637L35.9374 154.501H164.062Z" fill="white"/>
<path fill-rule="evenodd" clip-rule="evenodd" d="M84.4665 89.2991C85.511 87.6234 86.5465 85.9813 88.3192 85.7664C88.5717 85.7351 88.8046 85.753 89.0917 85.7841L99.0824 87.0347L109.369 88.2677L112.719 88.6833C114.957 88.9957 115.762 91.422 116.23 93.2498L118.05 100.64C119.677 101.047 120.842 102.633 120.616 104.188L119.322 113.348C119.287 115.016 117.704 116.296 115.906 116.144L110.822 115.524L100.533 114.231L83.1255 112.069L79.059 111.573C77.322 111.418 76.2832 109.82 76.4433 108.205L77.6127 98.9337C77.7738 97.3203 79.286 95.9186 81.091 96.1934L82.1622 93.9972L84.4665 89.2991ZM91.655 89.2718C91.2658 89.2007 90.919 89.204 90.5853 89.2699C89.586 89.4677 88.8392 90.2006 88.4129 90.871L86.4608 94.3622C85.9558 95.315 86.2237 96.8591 88.149 97.0651L99.6952 98.5299L109.984 99.8235L110.642 99.9071C112.508 100.178 112.741 98.0405 112.702 97.3022L111.805 93.8434C111.786 93.7893 111.767 93.7338 111.748 93.6773C111.47 92.8464 111.116 91.7927 109.545 91.5874C109.509 91.5542 109.458 91.543 109.397 91.5297C109.35 91.5195 109.298 91.508 109.243 91.484L99.2561 90.293L91.655 89.2718ZM79.5113 117.848L80.1879 112.702L83.1784 113.078L87.1203 113.462L86.5034 118.606C86.3193 119.788 85.5318 120.746 84.3499 120.563L83.5732 120.484L81.1751 120.077C79.9932 119.893 79.3281 119.031 79.5113 117.848ZM107.207 121.303L107.818 116.041L110.868 116.414L114.81 116.798L114.137 122.004C113.953 123.186 113.092 123.966 112.039 123.898L111.263 123.82L108.865 123.414C107.627 123.355 107.024 122.485 107.207 121.303ZM70.834 129.008C70.834 124.692 75.6228 123.386 79.2599 122.955C77.1639 124.187 74.455 126.506 77.5977 128.296C79.2002 129.221 81.0842 130.046 83.0564 130.847C83.3459 130.965 83.6372 131.083 83.9298 131.202C90.6768 133.934 98.0733 136.93 98.9595 144.198C99.0833 145.493 97.4674 150.329 94.5091 151.378H83.0573H79.2599C79.8862 150.83 80.7271 150.274 81.5888 149.704C82.0837 149.377 82.5854 149.046 83.0573 148.708C84.968 147.413 86.6765 146.047 86.6765 144.198C86.6765 141.548 85.1542 139.856 83.0573 138.561C81.6602 137.63 79.9909 136.884 78.3417 136.147C74.5345 134.446 70.834 132.793 70.834 129.008ZM101.512 132.626C101.512 128.928 104.695 127.368 109.996 126.752C109.765 126.831 109.527 126.909 109.289 126.987C106.35 127.95 103.263 128.961 109.88 132.211C110.048 132.324 110.248 132.424 110.47 132.535C110.49 132.546 110.511 132.556 110.532 132.566C113.618 133.922 117.302 135.008 120.988 136.094C129.372 138.564 137.761 141.037 139.132 146.689C139.132 146.689 140.312 149.897 138.894 151.377H122.042C122.371 151.223 122.665 151.09 122.929 150.97C124.992 150.033 125.187 149.945 125.187 147.758C125.187 143.794 118.676 141.629 112.455 139.561C111.808 139.346 111.164 139.132 110.531 138.917C105.723 137.19 101.512 135.462 101.512 132.626Z" fill="black"/>
</svg>
