<svg width="200" height="201" viewBox="0 0 200 201" fill="none" xmlns="http://www.w3.org/2000/svg">
<rect x="1.56254" y="147.02" width="92.7084" height="196.875" rx="8.85417" transform="rotate(-90 1.56254 147.02)" fill="white" stroke="#13141A" stroke-width="1.04167"/>
<rect x="6.77083" y="141.811" width="82.2917" height="186.458" rx="3.64583" transform="rotate(-90 6.77083 141.811)" stroke="black" stroke-width="1.04167"/>
<path d="M16.6666 125.804H183.113V131.917H16.6666V125.804Z" fill="#1F1A17"/>
<path fill-rule="evenodd" clip-rule="evenodd" d="M142.538 79.5004C144.008 77.8437 144.465 75.2666 142.836 74.2208C141.207 73.1751 137.515 73.2441 136.64 75.713C135.763 78.1819 135.9 80.0406 137.153 81.3989C138.407 82.7569 141.069 81.1569 142.538 79.5004ZM141.717 81.7314L137.798 84.9579C137.632 85.095 137.548 85.1636 137.508 85.2513C137.468 85.338 137.469 85.4437 137.472 85.6539L137.654 99.3256C137.654 99.3256 129.716 106.201 129.31 106.858C128.903 107.514 124.591 120.108 124.591 120.108C123.338 123.207 128.086 124.931 129.027 122.272C129.482 120.988 130.344 118.501 131.199 116.037L131.202 116.029C132.343 112.738 133.471 109.488 133.591 109.202C133.841 108.608 143.967 100.514 143.967 100.514C144.175 100.306 144.28 99.9934 144.28 99.5763L143.967 87.3256L149.399 91.8952C149.442 91.932 149.482 91.9648 149.518 91.9946C149.817 92.2404 149.873 92.2865 149.875 92.7533L149.905 99.4514C149.913 101.304 153.592 101.478 153.561 99.5763C153.529 97.5487 153.496 95.5212 153.463 93.4937L153.413 90.4085C153.406 89.9386 153.405 89.9194 153.026 89.6036L143.592 81.7314C142.967 81.3333 142.342 81.3333 141.717 81.7314ZM145.224 101.355L141.599 104.48C141.599 104.48 151.619 119.939 153.104 122.137C154.229 123.801 157.942 121.251 156.569 119.231C153.923 115.342 151.445 111.344 148.966 107.345L148.966 107.345L148.966 107.345L148.966 107.344L148.966 107.344L148.966 107.344L148.966 107.344L148.965 107.344C147.725 105.343 146.485 103.342 145.224 101.355ZM136.537 96.0456L136.6 91.4512L128.538 97.4834C126.922 98.6905 129.112 101.673 130.756 100.546C130.807 100.51 136.537 96.0456 136.537 96.0456ZM55.5071 86.9101L43.7187 100.69C43.0545 101.354 42.9436 103.845 43.4421 104.897L45.656 111.925C45.7665 112.423 47.0398 114.139 47.8695 114.139H50.2499C51.1345 110.321 54.5107 107.553 58.6622 107.553C63.5323 107.553 67.4068 111.427 67.4068 116.298H100.171C100.171 111.427 103.934 107.553 108.805 107.553C112.9 107.553 116.332 110.321 117.273 114.139H119.763C120.372 114.139 121.811 113.143 121.977 111.925L123.028 105.395C123.305 103.403 121.645 102.24 120.869 102.13L100.945 98.8649C99.8392 98.7538 98.4552 98.1445 97.7915 97.2599L90.3194 86.9101C89.5999 85.9144 88.1053 84.6962 85.9471 84.6962H58.7726C57.6711 84.6962 56.3428 86.056 55.6897 86.7245L55.6894 86.7248C55.6208 86.795 55.5597 86.8575 55.5071 86.9101ZM90.3752 99.9713H61.6505C57.2782 99.9713 56.5038 96.9274 57.6664 94.2158L59.1606 90.563C60.2574 87.9193 60.7255 87.9284 62.144 87.956C62.2995 87.959 62.4665 87.9623 62.647 87.9623H84.5085C86.3346 87.9623 87.9399 89.1796 88.9364 90.7286L92.1458 95.5988C93.142 97.1485 92.6996 99.9713 90.3752 99.9713ZM108.858 108.664C113.12 108.664 116.496 112.039 116.496 116.301C116.496 120.562 113.12 123.938 108.858 123.938C104.597 123.938 101.221 120.562 101.221 116.301C101.221 112.039 104.597 108.664 108.858 108.664ZM108.858 120.673C111.294 120.673 113.231 118.736 113.231 116.301C113.231 113.866 111.294 111.929 108.858 111.929C106.423 111.929 104.486 113.866 104.486 116.301C104.486 118.736 106.423 120.673 108.858 120.673ZM66.3519 116.301C66.3519 112.039 62.9766 108.664 58.714 108.664C54.4528 108.664 51.0766 112.039 51.0766 116.301C51.0766 120.562 54.4528 123.938 58.714 123.938C62.9766 123.938 66.3519 120.562 66.3519 116.301ZM63.0864 116.301C63.0864 118.736 61.15 120.673 58.714 120.673C56.2799 120.673 54.3417 118.736 54.3417 116.301C54.3417 113.866 56.2799 111.929 58.714 111.929C61.15 111.929 63.0864 113.866 63.0864 116.301ZM128.805 74.5614L130.917 75.1305L126.981 92.9197L124.869 92.3505L128.805 74.5614ZM113.998 75.6834L112 76.4832L118.881 93.6654L120.878 92.8655L113.998 75.6834ZM116.237 95.8132L115.101 97.6831L99.9749 87.5271L101.111 85.6572L116.237 95.8132Z" fill="#1F1A17"/>
</svg>
