<svg width="200" height="201" viewBox="0 0 200 201" fill="none" xmlns="http://www.w3.org/2000/svg">
<rect x="1.56254" y="146.688" width="92.7084" height="196.875" rx="8.85417" transform="rotate(-90 1.56254 146.688)" fill="white" stroke="#13141A" stroke-width="1.04167"/>
<rect x="6.77083" y="141.479" width="82.2917" height="186.458" rx="3.64583" transform="rotate(-90 6.77083 141.479)" stroke="black" stroke-width="1.04167"/>
<path fill-rule="evenodd" clip-rule="evenodd" d="M85.3577 75.334C83.1173 75.334 81.2172 76.9857 80.8976 79.2109C80.586 81.3806 81.8699 83.4621 83.944 84.1498L86.4688 84.9869L80.2458 95.8192C78.297 94.9424 76.1336 94.4543 73.8557 94.4543C65.283 94.4543 58.3334 101.367 58.3334 109.894C58.3334 118.421 65.283 125.334 73.8557 125.334C82.4285 125.334 89.378 118.421 89.378 109.894C89.378 104.678 86.7773 100.066 82.7953 97.2704L84.4293 94.426L102.783 110.96C102.891 111.062 103.016 111.149 103.157 111.216C103.387 111.327 103.632 111.372 103.87 111.358H112.358C113.099 119.199 119.735 125.334 127.811 125.334C136.384 125.334 143.333 118.421 143.333 109.894C143.333 101.367 136.384 94.4541 127.811 94.4541C125.152 94.4541 122.65 95.119 120.462 96.2907L115.233 88.488V84.1565L119.678 84.1565C120.488 84.1565 121.144 83.4981 121.144 82.6859C121.144 81.8737 120.488 81.2152 119.678 81.2152L107.113 81.2152C106.303 81.2152 105.647 81.8737 105.647 82.6859C105.647 83.4981 106.303 84.1565 107.113 84.1565L112.302 84.1565V87.4627H88.4297L89.9068 84.8915C90.1269 84.5083 90.1635 84.0461 90.0064 83.6329C89.8494 83.2196 89.5154 82.8993 89.0969 82.7605L84.8636 81.3569C84.1385 81.1165 83.6897 80.3889 83.7987 79.6305C83.9104 78.8527 84.5746 78.2753 85.3577 78.2753H92.7025C93.5119 78.2753 94.168 77.6169 94.168 76.8047C94.168 75.9924 93.5119 75.334 92.7025 75.334H85.3577ZM118.018 97.9141L113.983 91.8934L106.114 108.417H112.359C112.763 104.186 114.882 100.453 118.018 97.9141ZM115.307 108.417C115.688 105.207 117.297 102.361 119.661 100.366L125.057 108.417H115.307ZM115.305 111.358H127.809C128.351 111.358 128.848 111.058 129.102 110.579C129.357 110.099 129.327 109.518 129.025 109.067L122.108 98.7468C123.818 97.883 125.755 97.3954 127.811 97.3954C134.789 97.3954 140.402 103.016 140.402 109.894C140.402 116.772 134.789 122.392 127.811 122.392C121.335 122.392 116.035 117.552 115.305 111.358ZM73.8557 97.3957C75.6024 97.3957 77.2636 97.7478 78.7726 98.3836L72.5843 109.155C72.1801 109.859 72.4208 110.758 73.122 111.164C73.8232 111.57 74.7194 111.328 75.1236 110.625L81.3246 99.8304C84.4359 102.11 86.447 105.777 86.447 109.894C86.447 116.772 80.8342 122.393 73.8557 122.393C66.8773 122.393 61.2644 116.772 61.2644 109.894C61.2644 103.016 66.8773 97.3957 73.8557 97.3957ZM86.7399 90.404L85.9257 91.8214L103.31 107.482L111.443 90.404H86.7399Z" fill="black"/>
<path d="M165.515 70.3023L156.25 79.7604L156.25 88.875L165.515 79.4168V133.667H171.765V79.1925L181.25 88.875V79.7604L168.75 67L165.625 70.1901H165.515V70.3023Z" fill="black"/>
<path d="M28.0151 130.365L18.75 120.907L18.75 111.792L28.0151 121.25V67.0003H34.2651V121.474L43.75 111.792V120.907L31.25 133.667L28.125 130.477H28.0151V130.365Z" fill="black"/>
<path fill-rule="evenodd" clip-rule="evenodd" d="M168.748 109.528L157.113 121.164L154.167 118.218L165.801 106.582L154.168 94.9471L157.115 92.001L168.748 103.635L180.381 92.001L183.327 94.9471L171.694 106.582L183.329 118.218L180.382 121.164L168.748 109.528Z" fill="#FF0E00"/>
</svg>
