<svg width="200" height="201" viewBox="0 0 200 201" fill="none" xmlns="http://www.w3.org/2000/svg">
<rect x="0.520826" y="-0.520826" width="138.54" height="138.54" rx="8.85404" transform="matrix(-1 0 0 1 169.789 31.9707)" fill="white" stroke="#13141A" stroke-width="1.04165"/>
<rect width="129.165" height="129.165" rx="4.16661" transform="matrix(-1 0 0 1 164.581 36.1367)" fill="#1071AF"/>
<path fill-rule="evenodd" clip-rule="evenodd" d="M102.082 111.134H97.915V125.907H102.082V111.134ZM102.082 130.833H97.915V145.606H102.082V130.833ZM97.915 150.526H102.082V165.3H97.915V150.526Z" fill="white"/>
<path d="M141.665 73.6351L114.582 73.6351L128.123 50.7188L141.665 73.6351Z" fill="white"/>
<path d="M94.1802 75.6892L75.0297 56.5386L100.809 49.9096L94.1802 75.6892Z" fill="white"/>
<path d="M128.123 67.3862V165.301" stroke="white" stroke-width="10.4165"/>
<path d="M86.4571 64.2622L76.9166 74.4842C73.6762 77.9561 71.874 82.5283 71.874 87.2774V165.302" stroke="white" stroke-width="10.4165"/>
</svg>
