<svg width="200" height="201" viewBox="0 0 200 201" fill="none" xmlns="http://www.w3.org/2000/svg">
<circle cx="100" cy="100.669" r="82.8125" fill="white" stroke="#05081B" stroke-width="1.04167"/>
<circle cx="100" cy="100.668" r="71.875" stroke="#FF0E00" stroke-width="12.5"/>
<path d="M116.667 40.251L100 54.8343L83.3333 40.251L116.667 40.251Z" fill="black"/>
<path d="M116.667 161.083L100 146.5L83.3333 161.083L116.667 161.083Z" fill="black"/>
<path fill-rule="evenodd" clip-rule="evenodd" d="M72.7867 96.8658L64.5834 97.8594C65.0056 101.573 66.5337 104.584 69.1676 106.892C71.8015 109.18 75.119 110.325 79.12 110.325C83.3423 110.325 86.8709 108.96 89.7059 106.23C92.5408 103.5 93.9583 100.198 93.9583 96.3238C93.9583 93.6541 93.1943 91.3758 91.6662 89.489C90.1582 87.6021 88.1376 86.3877 85.6042 85.8458C89.8466 83.5374 91.9678 80.4462 91.9678 76.5721C91.9678 73.8422 90.9323 71.3933 88.8614 69.2254C86.3482 66.5758 83.0106 65.251 78.8486 65.251C76.4158 65.251 74.2142 65.7127 72.2438 66.636C70.2935 67.5393 68.7655 68.7938 67.6596 70.3997C66.5739 71.9854 65.7596 74.1132 65.2167 76.7828L73.0279 78.1077C73.2491 76.1807 73.8724 74.7153 74.8978 73.7117C75.9232 72.7081 77.1597 72.2062 78.6073 72.2062C80.0751 72.2062 81.2513 72.6478 82.136 73.531C83.0206 74.4142 83.4629 75.5985 83.4629 77.0839C83.4629 78.8303 82.8598 80.2354 81.6534 81.2992C80.447 82.343 78.6978 82.8348 76.4057 82.7746L75.4708 89.6696C76.9788 89.2481 78.2756 89.0373 79.3613 89.0373C81.01 89.0373 82.4074 89.6596 83.5534 90.9041C84.6995 92.1486 85.2725 93.8348 85.2725 95.9625C85.2725 98.2107 84.6693 99.9971 83.4629 101.322C82.2767 102.647 80.809 103.309 79.0597 103.309C77.4311 103.309 76.0438 102.757 74.8978 101.653C73.7517 100.549 73.048 98.9534 72.7867 96.8658ZM109.658 101.111H101.183V109.572H105.285C105.245 111.278 104.863 112.623 104.139 113.607C103.415 114.59 102.199 115.363 100.49 115.925L102.149 119.418C103.958 118.775 105.446 117.892 106.612 116.768C107.798 115.644 108.603 114.369 109.025 112.944C109.447 111.539 109.658 109.612 109.658 107.163V101.111ZM119.62 100.503L113.354 101.151C113.727 103.891 114.869 106.073 116.778 107.697C118.687 109.32 121.156 110.132 124.184 110.132C127.974 110.132 130.935 108.687 133.068 105.798C134.634 103.683 135.417 101.278 135.417 98.5822C135.417 95.3504 134.448 92.7219 132.508 90.6965C130.569 88.671 128.205 87.6583 125.415 87.6583C123.953 87.6583 122.521 88.0083 121.119 88.7083L122.104 83.1458H133.963V77.2706H117.337L114.115 94.3154L119.217 95.0526C120.649 93.4591 122.268 92.6623 124.073 92.6623C125.52 92.6623 126.691 93.1687 127.586 94.1814C128.496 95.1792 128.951 96.6834 128.951 98.6939C128.951 100.838 128.496 102.447 127.586 103.519C126.676 104.577 125.564 105.105 124.252 105.105C123.103 105.105 122.089 104.696 121.208 103.877C120.328 103.043 119.799 101.918 119.62 100.503Z" fill="black"/>
<path d="M91.0714 123.584H97.1589L99.9912 132.677L102.859 123.584H108.929L112.5 146.501H106.534L104.748 131.417L102.003 139.626H97.8046L95.2697 131.417L93.4839 146.501H87.5L91.0714 123.584Z" fill="black"/>
</svg>
