<svg width="200" height="201" viewBox="0 0 200 201" fill="none" xmlns="http://www.w3.org/2000/svg">
<rect x="0.520833" y="-0.520833" width="196.875" height="96.875" rx="8.85417" transform="matrix(-1 0 0 1 198.958 52.75)" fill="white" stroke="#13141A" stroke-width="1.04167"/>
<path d="M193.75 61.0837C193.75 58.7825 191.885 56.917 189.583 56.917H10.4167C8.11549 56.917 6.25 58.7825 6.25 61.0837V140.25C6.25 142.552 8.11549 144.417 10.4167 144.417H189.583C191.885 144.417 193.75 142.552 193.75 140.25V61.0837Z" fill="#FFE600"/>
<path fill-rule="evenodd" clip-rule="evenodd" d="M35.4166 95.4593L35.4166 86.083L14.5833 100.666L35.4166 115.25L35.4166 105.876L56.25 105.876L56.25 95.4593L35.4166 95.4593Z" fill="#05081B"/>
<path d="M67.981 84.8199C67.981 81.0188 69.0376 78.2034 71.1508 76.3737C72.9161 74.8532 75.0679 74.093 77.6063 74.093C80.4281 74.093 82.7346 75.0208 84.5256 76.8762C86.3167 78.7188 87.2122 81.2701 87.2122 84.53C87.2122 87.1715 86.8128 89.2525 86.0139 90.7729C85.2279 92.2805 84.0747 93.453 82.5542 94.2906C81.0466 95.1281 79.3973 95.5469 77.6063 95.5469C74.7329 95.5469 72.4071 94.6256 70.6289 92.783C68.8637 90.9404 67.981 88.2861 67.981 84.8199ZM71.5567 84.8199C71.5567 87.4485 72.1301 89.42 73.2769 90.7343C74.4236 92.0357 75.8668 92.6864 77.6063 92.6864C79.3329 92.6864 80.7696 92.0292 81.9164 90.7149C83.0632 89.4006 83.6366 87.397 83.6366 84.704C83.6366 82.1656 83.0567 80.2457 81.8971 78.9443C80.7503 77.63 79.32 76.9729 77.6063 76.9729C75.8668 76.9729 74.4236 77.6236 73.2769 78.925C72.1301 80.2264 71.5567 82.1914 71.5567 84.8199ZM106.347 66.072L109.42 66.1106C109.278 67.4894 108.969 68.4493 108.492 68.9905C108.028 69.5317 107.423 69.8796 106.675 70.0342C105.941 70.1888 104.491 70.2661 102.327 70.2661C99.4531 70.2661 97.4946 70.5431 96.4509 71.0972C95.4072 71.6513 94.6534 72.5403 94.1895 73.7644C93.7386 74.9757 93.4873 76.5412 93.4358 78.4611C94.3119 77.1597 95.3363 76.1869 96.5089 75.5426C97.6814 74.8855 99.0022 74.5569 100.471 74.5569C103.164 74.5569 105.393 75.4846 107.158 77.3401C108.924 79.1827 109.806 81.6824 109.806 84.8393C109.806 87.2359 109.362 89.2009 108.473 90.7343C107.584 92.2676 106.527 93.453 105.303 94.2906C104.092 95.1281 102.436 95.5469 100.336 95.5469C97.9005 95.5469 96.0064 94.9928 94.6534 93.8847C93.3005 92.7637 92.2632 91.3334 91.5416 89.5939C90.8201 87.8544 90.4593 84.8264 90.4593 80.5098C90.4593 75.0852 91.3741 71.4322 93.2038 69.551C95.0464 67.6697 97.8747 66.7291 101.689 66.7291C104.06 66.7291 105.406 66.6905 105.728 66.6132C106.05 66.5358 106.257 66.3555 106.347 66.072ZM106.173 84.7426C106.173 82.6037 105.664 80.8513 104.646 79.4855C103.641 78.1196 102.217 77.4367 100.374 77.4367C98.4545 77.4367 96.9727 78.1583 95.929 79.6014C94.8853 81.0446 94.3635 82.9709 94.3635 85.3805C94.3635 87.7642 94.9369 89.5875 96.0837 90.8502C97.2433 92.113 98.6671 92.7443 100.355 92.7443C102.082 92.7443 103.48 92.0163 104.549 90.5603C105.632 89.0914 106.173 87.1522 106.173 84.7426ZM113.788 70.498V66.4585H117.518V69.6476C117.518 71.3742 117.318 72.6177 116.919 73.3779C116.365 74.4216 115.502 75.2076 114.329 75.7359L113.479 74.3636C114.174 74.0801 114.69 73.6356 115.025 73.03C115.373 72.4115 115.566 71.5675 115.605 70.498H113.788ZM124.032 95.083V74.5569H127.511V95.083H124.032ZM120.379 70.5367V66.5745H124.012V70.5367H120.379ZM127.588 70.5367V66.5745H131.222V70.5367H127.588ZM138.373 85.8057V83.0804C139.842 83.0676 140.84 83.0096 141.369 82.9065C141.91 82.8034 142.419 82.4942 142.896 81.9788C143.372 81.4634 143.611 80.8191 143.611 80.046C143.611 79.1054 143.295 78.358 142.664 77.804C142.045 77.237 141.24 76.9535 140.248 76.9535C138.289 76.9535 136.917 78.1068 136.131 80.4132L132.826 79.872C133.857 76.0194 136.343 74.093 140.286 74.093C142.477 74.093 144.191 74.6922 145.428 75.8905C146.677 77.0888 147.302 78.5191 147.302 80.1813C147.302 81.8563 146.491 83.19 144.867 84.1821C145.898 84.7362 146.671 85.4449 147.186 86.3082C147.702 87.1586 147.959 88.1701 147.959 89.3427C147.959 91.1852 147.289 92.6799 145.949 93.8267C144.609 94.9735 142.735 95.5469 140.325 95.5469C135.648 95.5469 132.935 93.4659 132.188 89.304L135.454 88.6082C135.751 89.9225 136.35 90.9404 137.252 91.662C138.167 92.3836 139.21 92.7443 140.383 92.7443C141.556 92.7443 142.528 92.4158 143.301 91.7586C144.087 91.0886 144.48 90.2382 144.48 89.2074C144.48 88.4085 144.236 87.7127 143.746 87.12C143.256 86.5272 142.735 86.16 142.18 86.0183C141.626 85.8636 140.621 85.7863 139.165 85.7863C139.049 85.7863 138.785 85.7928 138.373 85.8057ZM153.854 74.5569H168.157V92.2225H170.38V100.901H167.519V95.083H151.361V100.901H148.501V92.2225H150.337C152.785 88.8981 153.958 83.0096 153.854 74.5569ZM156.754 77.4367C156.496 84.0984 155.465 89.027 153.661 92.2225H164.697V77.4367H156.754Z" fill="black"/>
<path d="M82.5929 134.667V132.077C81.2915 134.113 79.378 135.131 76.8525 135.131C75.2161 135.131 73.7085 134.68 72.3298 133.778C70.964 132.876 69.9009 131.62 69.1407 130.009C68.3934 128.385 68.0197 126.524 68.0197 124.423C68.0197 122.375 68.3612 120.519 69.0441 118.857C69.727 117.182 70.7514 115.9 72.1172 115.011C73.483 114.122 75.0099 113.677 76.6979 113.677C77.9349 113.677 79.0365 113.941 80.0029 114.469C80.9693 114.985 81.7553 115.661 82.3609 116.499V106.332H85.8206V134.667H82.5929ZM71.5953 124.423C71.5953 127.052 72.1494 129.017 73.2575 130.318C74.3657 131.62 75.6735 132.27 77.1811 132.27C78.7015 132.27 79.99 131.652 81.0466 130.415C82.1161 129.165 82.6508 127.264 82.6508 124.713C82.6508 121.904 82.1097 119.843 81.0273 118.528C79.9449 117.214 78.6113 116.557 77.0264 116.557C75.4802 116.557 74.1853 117.188 73.1416 118.451C72.1107 119.714 71.5953 121.704 71.5953 124.423ZM105.361 128.057L108.956 128.501C108.389 130.602 107.339 132.232 105.806 133.391C104.272 134.551 102.314 135.131 99.9299 135.131C96.9276 135.131 94.5439 134.21 92.7786 132.367C91.0262 130.512 90.15 127.915 90.15 124.578C90.15 121.125 91.0391 118.445 92.8173 116.538C94.5954 114.631 96.9019 113.677 99.7366 113.677C102.481 113.677 104.723 114.611 106.463 116.48C108.202 118.348 109.072 120.976 109.072 124.365C109.072 124.571 109.066 124.881 109.053 125.293H93.745C93.8738 127.548 94.5117 129.275 95.6584 130.473C96.8052 131.671 98.2355 132.27 99.9492 132.27C101.225 132.27 102.314 131.935 103.216 131.265C104.118 130.595 104.833 129.526 105.361 128.057ZM93.9383 122.432H105.4C105.245 120.706 104.807 119.411 104.085 118.548C102.977 117.208 101.541 116.538 99.7753 116.538C98.1775 116.538 96.831 117.072 95.7358 118.142C94.6534 119.211 94.0542 120.641 93.9383 122.432ZM120.939 131.555L121.442 134.628C120.462 134.834 119.586 134.938 118.813 134.938C117.55 134.938 116.571 134.738 115.875 134.338C115.18 133.939 114.69 133.417 114.406 132.773C114.123 132.116 113.981 130.743 113.981 128.656V116.847H111.43V114.141H113.981V109.058L117.441 106.97V114.141H120.939V116.847H117.441V128.849C117.441 129.841 117.499 130.479 117.615 130.763C117.744 131.046 117.943 131.272 118.214 131.439C118.497 131.607 118.897 131.691 119.412 131.691C119.799 131.691 120.308 131.645 120.939 131.555ZM123.065 124.404C123.065 120.603 124.122 117.787 126.235 115.958C128 114.437 130.152 113.677 132.691 113.677C135.512 113.677 137.819 114.605 139.61 116.46C141.401 118.303 142.296 120.854 142.296 124.114C142.296 126.755 141.897 128.836 141.098 130.357C140.312 131.864 139.159 133.037 137.638 133.875C136.131 134.712 134.482 135.131 132.691 135.131C129.817 135.131 127.491 134.21 125.713 132.367C123.948 130.524 123.065 127.87 123.065 124.404ZM126.641 124.404C126.641 127.033 127.214 129.004 128.361 130.318C129.508 131.62 130.951 132.27 132.691 132.27C134.417 132.27 135.854 131.613 137.001 130.299C138.147 128.985 138.721 126.981 138.721 124.288C138.721 121.75 138.141 119.83 136.981 118.528C135.835 117.214 134.404 116.557 132.691 116.557C130.951 116.557 129.508 117.208 128.361 118.509C127.214 119.81 126.641 121.775 126.641 124.404ZM159.846 134.667V131.652C158.248 133.971 156.077 135.131 153.333 135.131C152.121 135.131 150.988 134.899 149.931 134.435C148.887 133.971 148.108 133.391 147.592 132.696C147.09 131.987 146.735 131.124 146.529 130.106C146.387 129.423 146.317 128.34 146.317 126.859V114.141H149.796V125.525C149.796 127.342 149.866 128.566 150.008 129.197C150.227 130.112 150.691 130.834 151.4 131.362C152.109 131.877 152.985 132.135 154.028 132.135C155.072 132.135 156.051 131.871 156.966 131.343C157.881 130.801 158.525 130.073 158.899 129.159C159.286 128.231 159.479 126.891 159.479 125.138V114.141H162.958V134.667H159.846ZM168.389 134.667V114.141H171.52V117.253C172.319 115.797 173.053 114.837 173.723 114.373C174.406 113.909 175.154 113.677 175.965 113.677C177.138 113.677 178.33 114.051 179.541 114.798L178.343 118.026C177.492 117.523 176.642 117.272 175.792 117.272C175.031 117.272 174.348 117.504 173.743 117.968C173.137 118.419 172.706 119.05 172.448 119.862C172.061 121.099 171.868 122.452 171.868 123.921V134.667H168.389Z" fill="black"/>
</svg>
