<svg width="200" height="200" viewBox="0 0 200 200" fill="none" xmlns="http://www.w3.org/2000/svg">
<rect x="198.438" y="49.4784" width="101.042" height="196.875" rx="8.85417" transform="rotate(90 198.438 49.4784)" fill="white" stroke="#13141A" stroke-width="1.04167"/>
<rect x="193.229" y="54.6876" width="90.625" height="186.458" rx="3.64583" transform="rotate(90 193.229 54.6876)" stroke="black" stroke-width="1.04167"/>
<path fill-rule="evenodd" clip-rule="evenodd" d="M161.458 92.8582V83.332L187.5 99.9987L161.458 116.665V107.144H135.417V92.8582H161.458Z" fill="black"/>
<path d="M31.0064 116.109H24.7495V92.5282C22.4634 94.6658 19.7691 96.2467 16.6666 97.271V91.593C18.2995 91.0586 20.0734 90.0492 21.9884 88.5647C23.9033 87.0654 25.2171 85.3212 25.9296 83.332H31.0064V116.109Z" fill="black"/>
<path d="M50.9574 83.332C54.1193 83.332 56.5909 84.4602 58.3723 86.7166C60.495 89.3886 61.5564 93.8197 61.5564 100.01C61.5564 106.185 60.4876 110.624 58.35 113.325C56.5835 115.552 54.1193 116.665 50.9574 116.665C47.7807 116.665 45.22 115.448 43.2754 113.014C41.3308 110.564 40.3584 106.207 40.3584 99.943C40.3584 93.7974 41.4273 89.3737 43.5649 86.672C45.3314 84.4454 47.7955 83.332 50.9574 83.332ZM50.9574 88.5202C50.2004 88.5202 49.5249 88.7651 48.9312 89.255C48.3374 89.73 47.8772 90.591 47.5506 91.8379C47.1201 93.456 46.9049 96.1799 46.9049 100.01C46.9049 103.84 47.0979 106.475 47.4838 107.915C47.8698 109.34 48.3522 110.29 48.9312 110.765C49.5249 111.24 50.2004 111.477 50.9574 111.477C51.7145 111.477 52.3899 111.24 52.9837 110.765C53.5775 110.275 54.0377 109.406 54.3642 108.159C54.7947 106.556 55.01 103.84 55.01 100.01C55.01 96.1799 54.817 93.5525 54.431 92.1274C54.0451 90.6875 53.5552 89.73 52.9614 89.255C52.3825 88.7651 51.7145 88.5202 50.9574 88.5202Z" fill="black"/>
<path d="M76.3415 83.332C79.5034 83.332 81.975 84.4602 83.7563 86.7166C85.8791 89.3886 86.9405 93.8197 86.9405 100.01C86.9405 106.185 85.8717 110.624 83.7341 113.325C81.9676 115.552 79.5034 116.665 76.3415 116.665C73.1648 116.665 70.6041 115.448 68.6595 113.014C66.7149 110.564 65.7425 106.207 65.7425 99.943C65.7425 93.7974 66.8114 89.3737 68.949 86.672C70.7155 84.4454 73.1796 83.332 76.3415 83.332ZM76.3415 88.5202C75.5845 88.5202 74.909 88.7651 74.3153 89.255C73.7215 89.73 73.2613 90.591 72.9347 91.8379C72.5042 93.456 72.289 96.1799 72.289 100.01C72.289 103.84 72.482 106.475 72.8679 107.915C73.2539 109.34 73.7363 110.29 74.3153 110.765C74.909 111.24 75.5845 111.477 76.3415 111.477C77.0986 111.477 77.774 111.24 78.3678 110.765C78.9616 110.275 79.4218 109.406 79.7483 108.159C80.1788 106.556 80.3941 103.84 80.3941 100.01C80.3941 96.1799 80.2011 93.5525 79.8151 92.1274C79.4292 90.6875 78.9393 89.73 78.3455 89.255C77.7666 88.7651 77.0986 88.5202 76.3415 88.5202Z" fill="black"/>
<path d="M92.663 92.4614H100.412L106.29 108.939L112.213 92.4614H119.94V116.109H114.618V100.544L108.851 116.109H103.507L98.0071 100.544V116.109H92.663V92.4614Z" fill="black"/>
</svg>
