<svg width="200" height="201" viewBox="0 0 200 201" fill="none" xmlns="http://www.w3.org/2000/svg">
<rect x="1.56254" y="147.02" width="92.7084" height="196.875" rx="8.85417" transform="rotate(-90 1.56254 147.02)" fill="white" stroke="#13141A" stroke-width="1.04167"/>
<rect x="6.77083" y="141.811" width="82.2917" height="186.458" rx="3.64583" transform="rotate(-90 6.77083 141.811)" stroke="black" stroke-width="1.04167"/>
<path d="M66.3477 113.366H66.3449C62.8831 113.366 59.5724 111.889 57.2617 109.313C53.9436 105.615 53.2266 100.027 55.4349 95.0798C57.5437 90.3562 61.7669 87.4206 66.4564 87.4206C71.0197 87.4206 73.959 89.6189 75.9765 91.9599C76.501 86.1533 78.2955 81.4601 81.1988 78.4499C83.7307 75.8249 86.9907 74.494 90.8903 74.494C95.7559 74.494 100.29 77.0139 103.244 81.0979C106.039 71.4349 114.195 65.2495 124.812 65.2495L125.119 65.2514C135.788 65.373 144.682 74.5862 145.805 86.6814C147.033 99.9334 138.348 111.848 126.445 113.24L126.246 113.252L66.3477 113.366ZM66.4555 90.9092C62.519 90.9092 59.8277 93.7987 58.6203 96.5011C56.9723 100.193 57.459 104.308 59.8581 106.983C61.507 108.821 63.8702 109.877 66.3412 109.877L126.136 109.762C136.123 108.534 143.381 98.3472 142.33 87.0031C141.372 76.6922 133.955 68.8404 125.077 68.739L124.81 68.7381C114.32 68.7381 106.671 75.9005 105.776 86.5626L105.074 94.9103L102.385 86.9773C100.561 81.5974 95.9411 77.9835 90.8885 77.9835C87.9732 77.9835 85.5574 78.9559 83.7085 80.873C80.6191 84.0768 79.0651 89.876 79.3315 97.2043L79.5508 103.234L76.148 98.2514C75.9314 97.9343 75.7056 97.585 75.4659 97.2126C73.653 94.4033 71.3985 90.9092 66.4555 90.9092ZM70.7183 117.534H65.5532L56.9124 131.014H62.0775L70.7183 117.534ZM81.6633 122.603H76.4982L67.8574 136.083H73.0225L81.6633 122.603ZM108.277 122.603H103.112L94.4711 136.083H99.6362L108.277 122.603ZM97.332 117.534H92.1668L83.5261 131.014H88.6912L97.332 117.534ZM123.254 117.534H118.089L109.448 131.014H114.614L123.254 117.534Z" fill="black"/>
</svg>
