<svg width="200" height="201" viewBox="0 0 200 201" fill="none" xmlns="http://www.w3.org/2000/svg">
<rect x="0.520833" y="-0.520833" width="196.875" height="109.375" rx="8.85417" transform="matrix(-1 0 0 1 198.958 46.167)" fill="white" stroke="#13141A" stroke-width="1.04167"/>
<rect x="0.520833" y="-0.520833" width="188.542" height="101.042" rx="4.6875" transform="matrix(-1 0 0 1 194.792 50.333)" fill="white" stroke="#13141A" stroke-width="1.04167"/>
<path d="M193.75 54.4997C193.75 52.1985 191.885 50.333 189.583 50.333H10.4167C8.11549 50.333 6.25 52.1985 6.25 54.4997V117H193.75V54.4997Z" fill="#1071AF"/>
<path d="M6.25 83.667H193.75" stroke="white" stroke-width="1.04167"/>
<path d="M6.25 117H193.75" stroke="white" stroke-width="1.04167"/>
<path fill-rule="evenodd" clip-rule="evenodd" d="M14.5833 100.332L21.0123 94.082H25.8332L21.5472 98.2487H33.3333V102.415H21.5472L25.8332 106.582H21.0123L14.5833 100.332ZM19.4047 100.333L19.4042 100.332L19.4047 100.332V100.333Z" fill="white"/>
<path fill-rule="evenodd" clip-rule="evenodd" d="M14.5833 133.668L21.0123 127.418H25.8332L21.5472 131.585H33.3333V135.751H21.5472L25.8332 139.918H21.0123L14.5833 133.668ZM19.4047 133.668L19.4042 133.668L19.4047 133.667V133.668Z" fill="#05081B"/>
<path fill-rule="evenodd" clip-rule="evenodd" d="M23.9583 57.458L30.2083 63.887L30.2083 68.7079L26.0416 64.4219L26.0416 76.208L21.8749 76.208L21.8749 64.4219L17.7083 68.7079L17.7083 63.887L23.9583 57.458ZM23.9577 62.2794L23.9583 62.2789L23.9588 62.2794L23.9577 62.2794Z" fill="white"/>
<path d="M41.6667 55.7575C41.6667 54.9702 42.305 54.332 43.0922 54.332H67.3246C68.1119 54.332 68.7501 54.9702 68.7501 55.7575V66.832H41.6667V55.7575Z" fill="#FF0E00" stroke="white" stroke-width="1.04167"/>
<path d="M41.6667 66.832H68.7501V77.9066C68.7501 78.6938 68.1119 79.332 67.3246 79.332H43.0922C42.305 79.332 41.6667 78.6938 41.6667 77.9066V66.832Z" fill="#00AC5A" stroke="white" stroke-width="1.04167"/>
<path d="M45.9493 63.6005V57.4782H47.7994L48.9102 61.6544L50.0086 57.4782H51.8628V63.6005H50.7144V58.7811L49.4991 63.6005H48.3089L47.0978 58.7811V63.6005H45.9493Z" fill="white"/>
<path d="M52.9486 61.9676V60.7941H55.2539V61.9676H52.9486Z" fill="white"/>
<path d="M57.6635 57.4531C58.2565 57.4531 58.7201 57.6647 59.0542 58.0879C59.4523 58.589 59.6514 59.4201 59.6514 60.5811C59.6514 61.7393 59.4509 62.5717 59.05 63.0784C58.7187 63.4961 58.2565 63.7049 57.6635 63.7049C57.0677 63.7049 56.5875 63.4766 56.2227 63.02C55.858 62.5606 55.6757 61.7434 55.6757 60.5686C55.6757 59.4159 55.8761 58.5863 56.277 58.0796C56.6083 57.6619 57.0705 57.4531 57.6635 57.4531ZM57.6635 58.4262C57.5215 58.4262 57.3948 58.4721 57.2835 58.564C57.1721 58.6531 57.0858 58.8146 57.0246 59.0484C56.9438 59.3519 56.9034 59.8628 56.9034 60.5811C56.9034 61.2994 56.9396 61.7936 57.012 62.0636C57.0844 62.3309 57.1749 62.5091 57.2835 62.5982C57.3948 62.6873 57.5215 62.7318 57.6635 62.7318C57.8055 62.7318 57.9322 62.6873 58.0435 62.5982C58.1549 62.5063 58.2412 62.3434 58.3025 62.1096C58.3832 61.8089 58.4236 61.2994 58.4236 60.5811C58.4236 59.8628 58.3874 59.37 58.315 59.1027C58.2426 58.8327 58.1507 58.6531 58.0394 58.564C57.9308 58.4721 57.8055 58.4262 57.6635 58.4262Z" fill="white"/>
<path d="M60.3989 61.9759L61.5348 61.8381C61.571 62.1277 61.6685 62.349 61.8272 62.5021C61.9859 62.6552 62.178 62.7318 62.4035 62.7318C62.6457 62.7318 62.8489 62.6399 63.0132 62.4562C63.1802 62.2724 63.2638 62.0246 63.2638 61.7128C63.2638 61.4177 63.1844 61.1838 63.0257 61.0112C62.867 60.8386 62.6735 60.7523 62.4452 60.7523C62.2949 60.7523 62.1153 60.7815 61.9065 60.84L62.036 59.8837C62.3534 59.892 62.5956 59.8238 62.7626 59.679C62.9297 59.5315 63.0132 59.3366 63.0132 59.0944C63.0132 58.8883 62.9519 58.7241 62.8294 58.6016C62.7069 58.4791 62.5441 58.4178 62.3408 58.4178C62.1404 58.4178 61.9691 58.4874 61.8272 58.6266C61.6852 58.7658 61.5989 58.9691 61.5682 59.2364L60.4866 59.0526C60.5618 58.6823 60.6745 58.3872 60.8249 58.1673C60.978 57.9445 61.1896 57.7705 61.4597 57.6452C61.7325 57.5172 62.0374 57.4531 62.3742 57.4531C62.9506 57.4531 63.4127 57.6369 63.7607 58.0044C64.0475 58.3051 64.1909 58.6447 64.1909 59.0234C64.1909 59.5607 63.8971 59.9895 63.3097 60.3096C63.6605 60.3848 63.9403 60.5532 64.1491 60.8149C64.3607 61.0767 64.4665 61.3927 64.4665 61.7629C64.4665 62.3003 64.2702 62.7583 63.8777 63.1369C63.4851 63.5155 62.9965 63.7049 62.4118 63.7049C61.8578 63.7049 61.3984 63.5462 61.0337 63.2288C60.669 62.9086 60.4574 62.491 60.3989 61.9759Z" fill="white"/>
<path d="M46.9279 76.1044V69.9821H51.4674V71.0178H48.164V72.375H51.2377V73.4066H48.164V75.0728H51.5843V76.1044H46.9279Z" fill="white"/>
<path d="M57.0551 76.1044V74.8724H54.5494V73.8451L57.2054 69.957H58.191V73.8409H58.9511V74.8724H58.191V76.1044H57.0551ZM57.0551 73.8409V71.7486L55.6477 73.8409H57.0551Z" fill="white"/>
<path d="M61.4985 69.957C62.0915 69.957 62.5551 70.1686 62.8892 70.5918C63.2873 71.093 63.4864 71.924 63.4864 73.085C63.4864 74.2432 63.2859 75.0756 62.885 75.5823C62.5537 76 62.0915 76.2088 61.4985 76.2088C60.9027 76.2088 60.4225 75.9805 60.0578 75.5239C59.693 75.0645 59.5107 74.2474 59.5107 73.0725C59.5107 71.9198 59.7111 71.0902 60.112 70.5835C60.4434 70.1658 60.9055 69.957 61.4985 69.957ZM61.4985 70.9301C61.3565 70.9301 61.2299 70.976 61.1185 71.0679C61.0071 71.157 60.9208 71.3185 60.8596 71.5523C60.7788 71.8558 60.7385 72.3667 60.7385 73.085C60.7385 73.8033 60.7747 74.2975 60.847 74.5675C60.9194 74.8348 61.0099 75.013 61.1185 75.1021C61.2299 75.1912 61.3565 75.2357 61.4985 75.2357C61.6405 75.2357 61.7672 75.1912 61.8786 75.1021C61.9899 75.0102 62.0762 74.8473 62.1375 74.6135C62.2182 74.3128 62.2586 73.8033 62.2586 73.085C62.2586 72.3667 62.2224 71.8739 62.15 71.6066C62.0776 71.3366 61.9858 71.157 61.8744 71.0679C61.7658 70.976 61.6405 70.9301 61.4985 70.9301Z" fill="white"/>
<path d="M41.6667 95.8191C41.6667 94.8603 42.444 94.083 43.4029 94.083H77.4306C78.3895 94.083 79.1667 94.8603 79.1667 95.8191V104.5C79.1667 105.65 78.234 106.583 77.0834 106.583H43.7501C42.5995 106.583 41.6667 105.65 41.6667 104.5V95.8191Z" stroke="white" stroke-width="1.04167"/>
<path d="M47.6654 103.35V98.2678H45.8333V97.233H50.74V98.2678H48.9121V103.35H47.6654Z" fill="white"/>
<path d="M50.9253 101.718V100.546H53.2502V101.718H50.9253Z" fill="white"/>
<path d="M56.7081 103.35H55.5246V98.9311C55.0922 99.3317 54.5826 99.6279 53.9957 99.8198V98.7559C54.3046 98.6558 54.6401 98.4666 55.0023 98.1885C55.3645 97.9076 55.613 97.5807 55.7478 97.208H56.7081V103.35Z" fill="white"/>
<path d="M60.802 103.35V102.119H58.2749V101.092L60.9536 97.208H61.9476V101.088H62.7141V102.119H61.9476V103.35H60.802ZM60.802 101.088V98.9979L59.3826 101.088H60.802Z" fill="white"/>
<path d="M63.4006 101.718V100.546H65.7256V101.718H63.4006Z" fill="white"/>
<path d="M69.1834 103.35H67.9999V98.9311C67.5675 99.3317 67.0579 99.6279 66.471 99.8198V98.7559C66.7799 98.6558 67.1154 98.4666 67.4777 98.1885C67.8399 97.9076 68.0884 97.5807 68.2231 97.208H69.1834V103.35Z" fill="white"/>
<path d="M71.9716 100.049C71.6656 99.9213 71.4424 99.7461 71.302 99.5236C71.1644 99.2983 71.0956 99.0521 71.0956 98.7851C71.0956 98.3289 71.2556 97.9521 71.5757 97.6544C71.8986 97.3568 72.3563 97.208 72.9488 97.208C73.5356 97.208 73.9905 97.3568 74.3134 97.6544C74.6391 97.9521 74.802 98.3289 74.802 98.7851C74.802 99.0688 74.7276 99.3219 74.5787 99.5445C74.4299 99.7642 74.2207 99.9325 73.9512 100.049C74.2937 100.186 74.5535 100.384 74.7304 100.646C74.9101 100.907 74.9999 101.209 74.9999 101.551C74.9999 102.116 74.8174 102.575 74.4524 102.928C74.0902 103.281 73.6072 103.458 73.0035 103.458C72.442 103.458 71.9744 103.312 71.601 103.02C71.1602 102.675 70.9398 102.202 70.9398 101.601C70.9398 101.27 71.0226 100.967 71.1882 100.692C71.3539 100.414 71.615 100.199 71.9716 100.049ZM72.2159 98.8686C72.2159 99.1022 72.2819 99.2844 72.4139 99.4151C72.5487 99.5458 72.727 99.6112 72.9488 99.6112C73.1734 99.6112 73.3531 99.5458 73.4879 99.4151C73.6227 99.2816 73.6901 99.098 73.6901 98.8644C73.6901 98.6446 73.6227 98.4694 73.4879 98.3387C73.3559 98.2052 73.1804 98.1384 72.9614 98.1384C72.734 98.1384 72.5529 98.2052 72.4181 98.3387C72.2833 98.4722 72.2159 98.6488 72.2159 98.8686ZM72.1064 101.489C72.1064 101.811 72.1892 102.063 72.3549 102.244C72.5234 102.425 72.7326 102.515 72.9825 102.515C73.2268 102.515 73.4289 102.429 73.589 102.256C73.749 102.081 73.829 101.829 73.829 101.501C73.829 101.215 73.7476 100.985 73.5848 100.813C73.4219 100.638 73.2155 100.55 72.9656 100.55C72.6764 100.55 72.4602 100.649 72.317 100.846C72.1766 101.044 72.1064 101.258 72.1064 101.489Z" fill="white"/>
<path d="M44.5043 121.045H64.9459C66.3172 121.045 67.3486 122.04 67.3486 123.193V144.142C67.3486 145.296 66.3171 146.291 64.9459 146.291H44.5043C43.1333 146.291 42.102 145.296 42.102 144.142V123.193C42.102 122.04 43.1337 121.045 44.5043 121.045Z" fill="white" stroke="black" stroke-width="0.87057"/>
<path fill-rule="evenodd" clip-rule="evenodd" d="M64.8292 123.387L44.7751 123.403C44.306 123.514 44.3584 124.84 44.8275 124.96C44.9104 124.982 50.7857 125.722 56.6535 126.462L56.6547 126.462L56.6567 126.462C59.5784 126.83 62.4981 127.198 64.6996 127.477C64.7252 127.48 64.7484 127.483 64.7696 127.485L64.7697 127.485L64.7699 127.485L64.77 127.485L64.77 127.485H64.77C64.8744 127.498 64.9285 127.505 64.9566 127.481C64.9869 127.455 64.9868 127.394 64.9867 127.266C64.9867 127.235 64.9867 127.201 64.9871 127.162L64.9893 126.528C64.9906 126.149 64.9919 125.77 64.9938 125.392L64.9955 124.864C64.9968 124.449 64.9981 124.035 64.9999 123.621C64.9995 123.587 64.9998 123.557 65.0001 123.532C65.0009 123.462 65.0013 123.425 64.9831 123.406C64.9632 123.386 64.9209 123.386 64.8322 123.387L64.8292 123.387ZM47.37 132.56C48.9836 132.56 50.2916 131.255 50.2916 129.645C50.2916 128.035 48.9836 126.729 47.37 126.729C45.7565 126.729 44.4484 128.035 44.4484 129.645C44.4484 131.255 45.7565 132.56 47.37 132.56ZM47.371 131.849C48.5884 131.849 49.5754 130.864 49.5754 129.649C49.5754 128.434 48.5884 127.45 47.371 127.45C46.1535 127.45 45.1666 128.434 45.1666 129.649C45.1666 130.864 46.1535 131.849 47.371 131.849ZM47.202 128.083L47.2039 129.396L46.3159 128.749C46.2075 128.671 46.0341 128.876 46.1189 128.957C46.2515 129.083 46.385 129.208 46.5186 129.334L46.5188 129.334L46.5189 129.334L46.5191 129.334L46.5192 129.334L46.5195 129.335C46.7847 129.583 47.05 129.832 47.3079 130.088C47.3901 130.17 47.6836 130.043 47.6735 129.88C47.6494 129.48 47.6499 129.08 47.6505 128.679C47.6507 128.481 47.651 128.283 47.6483 128.086C47.6412 127.872 47.202 127.877 47.202 128.083ZM44.4484 143.381H56.1534C55.8477 143.094 55.6565 142.686 55.6565 142.232L55.6567 142.208L54.8099 142.206L54.3388 143.041L47.803 143.014C47.775 142.986 48.246 142.373 48.246 142.373C48.246 142.373 45.4766 140.703 45.7537 139.7C46.0303 138.698 49.9634 133.965 50.7388 133.965H57.4409L53.9789 131.681L57.9121 129.454L59.2409 129.482L55.2805 131.709L58.9083 133.993L64.8351 133.965L64.8629 142.234L63.2241 142.229L63.2241 142.232C63.2241 142.686 63.0329 143.094 62.7272 143.381H65.0001V143.938H44.4484V143.381ZM60.0978 142.221L58.7827 142.217L58.7828 142.232C58.7828 142.686 58.5916 143.094 58.2859 143.381H60.5947C60.2889 143.094 60.0978 142.686 60.0978 142.232L60.0978 142.221ZM48.1402 137.758C48.7945 137.763 49.4483 137.767 50.1022 137.771L50.1031 137.771C50.1186 137.772 50.1207 137.772 50.1349 137.764C50.2869 137.673 51.6768 136.825 51.7484 136.032C51.8241 135.194 51.3347 134.612 51.3347 134.612C51.3347 134.612 51.2862 134.418 50.8865 134.431C50.4867 134.445 49.2183 135.727 49.2183 135.727L47.9291 137.273C47.9291 137.273 47.8395 137.418 47.8881 137.522C47.921 137.594 47.9971 137.678 48.0408 137.724C48.0742 137.759 48.0821 137.759 48.1194 137.758L48.1399 137.758H48.1402ZM63.8428 136.379C63.8428 136.948 63.3841 137.409 62.8183 137.409C62.2524 137.409 61.7937 136.948 61.7937 136.379C61.7937 135.811 62.2524 135.349 62.8183 135.349C63.3841 135.349 63.8428 135.811 63.8428 136.379ZM60.4766 137.409C61.0424 137.409 61.5011 136.948 61.5011 136.379C61.5011 135.811 61.0424 135.349 60.4766 135.349C59.9108 135.349 59.4521 135.811 59.4521 136.379C59.4521 136.948 59.9108 137.409 60.4766 137.409ZM58.1308 137.409C58.6966 137.409 59.1553 136.948 59.1553 136.379C59.1553 135.811 58.6966 135.349 58.1308 135.349C57.5649 135.349 57.1062 135.811 57.1062 136.379C57.1062 136.948 57.5649 137.409 58.1308 137.409Z" fill="#1F1A17"/>
<path d="M91.1703 57.1138H97.4386V66.0615H95.632V58.6274H92.9403V62.4482C92.9403 63.5428 92.9037 64.3078 92.8304 64.7432C92.7572 65.1745 92.5782 65.5122 92.2933 65.7563C92.0126 65.9964 91.5711 66.1165 90.9689 66.1165C90.7573 66.1165 90.3728 66.0961 89.8153 66.0554V64.6577L90.2181 64.6638C90.5966 64.6638 90.8509 64.613 90.9811 64.5112C91.1113 64.4095 91.1764 64.1593 91.1764 63.7605L91.1703 62.2224V57.1138ZM99.3307 59.5796H101.046V62.2712H102.767C103.442 62.2712 103.961 62.3201 104.323 62.4177C104.686 62.5154 104.987 62.727 105.227 63.0525C105.467 63.3739 105.587 63.7483 105.587 64.1755C105.587 64.8022 105.371 65.2742 104.94 65.5916C104.513 65.9049 103.87 66.0615 103.011 66.0615H99.3307V59.5796ZM101.046 64.9751H102.645C103.145 64.9751 103.465 64.8937 103.603 64.731C103.746 64.5682 103.817 64.3749 103.817 64.1511C103.817 63.8378 103.695 63.6222 103.451 63.5042C103.21 63.3861 102.781 63.3271 102.163 63.3271H101.046V64.9751ZM107.003 59.5796H110.756C111.526 59.5796 112.101 59.72 112.484 60.0007C112.866 60.2815 113.057 60.7047 113.057 61.2703C113.057 61.6324 112.952 61.9478 112.74 62.2163C112.533 62.4849 112.27 62.6639 111.953 62.7534C112.4 62.8633 112.734 63.0688 112.954 63.3699C113.173 63.671 113.283 64.0006 113.283 64.3586C113.283 64.8632 113.098 65.2742 112.728 65.5916C112.358 65.9049 111.81 66.0615 111.086 66.0615H107.003V59.5796ZM108.73 62.2712H109.835C110.368 62.2712 110.752 62.2041 110.988 62.0698C111.228 61.9355 111.349 61.724 111.349 61.4351C111.349 61.1624 111.237 60.9692 111.013 60.8552C110.793 60.7372 110.4 60.6782 109.835 60.6782H108.73V62.2712ZM108.73 64.9629H110.085C110.573 64.9629 110.929 64.9039 111.153 64.7859C111.377 64.6679 111.489 64.4563 111.489 64.1511C111.489 63.8337 111.361 63.616 111.104 63.498C110.848 63.376 110.35 63.3149 109.609 63.3149H108.73V64.9629ZM114.675 58.7007V57.1138H116.39V58.7007H114.675ZM114.675 66.0615V59.5796H116.39V66.0615H114.675ZM118.172 59.5796H121.926C122.695 59.5796 123.271 59.72 123.653 60.0007C124.036 60.2815 124.227 60.7047 124.227 61.2703C124.227 61.6324 124.121 61.9478 123.91 62.2163C123.702 62.4849 123.44 62.6639 123.122 62.7534C123.57 62.8633 123.903 63.0688 124.123 63.3699C124.343 63.671 124.453 64.0006 124.453 64.3586C124.453 64.8632 124.268 65.2742 123.897 65.5916C123.527 65.9049 122.98 66.0615 122.255 66.0615H118.172V59.5796ZM119.9 62.2712H121.004C121.537 62.2712 121.922 62.2041 122.158 62.0698C122.398 61.9355 122.518 61.724 122.518 61.4351C122.518 61.1624 122.406 60.9692 122.182 60.8552C121.963 60.7372 121.57 60.6782 121.004 60.6782H119.9V62.2712ZM119.9 64.9629H121.255C121.743 64.9629 122.099 64.9039 122.323 64.7859C122.546 64.6679 122.658 64.4563 122.658 64.1511C122.658 63.8337 122.53 63.616 122.274 63.498C122.017 63.376 121.519 63.3149 120.778 63.3149H119.9V64.9629Z" fill="white"/>
<path d="M96.1691 133.852L94.4784 134.157C94.4214 133.819 94.2912 133.565 94.0878 133.394C93.8884 133.223 93.628 133.137 93.3065 133.137C92.8793 133.137 92.5375 133.286 92.2811 133.583C92.0288 133.876 91.9027 134.368 91.9027 135.06C91.9027 135.829 92.0309 136.372 92.2872 136.69C92.5476 137.007 92.8955 137.166 93.3309 137.166C93.6565 137.166 93.923 137.074 94.1305 136.891C94.338 136.704 94.4845 136.385 94.5699 135.933L96.2545 136.22C96.0795 136.993 95.7439 137.577 95.2474 137.971C94.751 138.366 94.0857 138.563 93.2516 138.563C92.3035 138.563 91.5467 138.264 90.9811 137.666C90.4196 137.068 90.1388 136.24 90.1388 135.182C90.1388 134.112 90.4216 133.28 90.9872 132.686C91.5528 132.088 92.3177 131.789 93.2821 131.789C94.0715 131.789 94.6981 131.959 95.162 132.301C95.6299 132.639 95.9656 133.156 96.1691 133.852ZM96.7062 131.935H102.572V133.321H100.496V138.417H98.7814V133.321H96.7062V131.935ZM102.505 138.417V136.702H104.22V138.417H102.505ZM115.2 135.127L116.952 135.683C116.683 136.659 116.235 137.385 115.609 137.862C114.986 138.334 114.195 138.57 113.234 138.57C112.046 138.57 111.07 138.165 110.305 137.355C109.54 136.541 109.157 135.43 109.157 134.022C109.157 132.533 109.542 131.378 110.311 130.556C111.08 129.73 112.091 129.317 113.344 129.317C114.439 129.317 115.328 129.64 116.012 130.287C116.418 130.67 116.724 131.219 116.927 131.935L115.139 132.362C115.033 131.898 114.811 131.532 114.474 131.264C114.14 130.995 113.733 130.861 113.253 130.861C112.59 130.861 112.05 131.099 111.635 131.575C111.224 132.051 111.019 132.822 111.019 133.888C111.019 135.019 111.222 135.825 111.629 136.305C112.036 136.785 112.565 137.025 113.216 137.025C113.696 137.025 114.109 136.873 114.455 136.568C114.801 136.262 115.049 135.782 115.2 135.127ZM117.727 131.935H123.592V133.321H121.517V138.417H119.802V133.321H117.727V131.935ZM124.575 131.935H126.174V132.887C126.381 132.562 126.662 132.297 127.016 132.094C127.37 131.89 127.763 131.789 128.194 131.789C128.947 131.789 129.586 132.084 130.111 132.674C130.636 133.264 130.898 134.086 130.898 135.139C130.898 136.222 130.634 137.064 130.105 137.666C129.576 138.264 128.935 138.563 128.182 138.563C127.824 138.563 127.498 138.492 127.205 138.35C126.917 138.207 126.611 137.963 126.29 137.617V140.883H124.575V131.935ZM126.272 135.066C126.272 135.795 126.416 136.334 126.705 136.684C126.994 137.029 127.346 137.202 127.761 137.202C128.16 137.202 128.491 137.044 128.756 136.726C129.02 136.405 129.152 135.88 129.152 135.152C129.152 134.472 129.016 133.968 128.744 133.638C128.471 133.308 128.133 133.144 127.73 133.144C127.311 133.144 126.963 133.306 126.687 133.632C126.41 133.953 126.272 134.431 126.272 135.066ZM132.223 131.935H133.87V136.006L136.507 131.935H138.192V138.417H136.544V134.273L133.87 138.417H132.223V131.935ZM139.913 131.935H141.561V136.006L144.198 131.935H145.882V138.417H144.234V134.273L141.561 138.417H139.913V131.935ZM144.021 129.304H144.857C144.808 129.858 144.613 130.293 144.271 130.611C143.933 130.924 143.494 131.081 142.953 131.081C142.411 131.081 141.97 130.924 141.628 130.611C141.29 130.293 141.097 129.858 141.048 129.304H141.884C141.913 129.593 142.015 129.813 142.19 129.964C142.365 130.11 142.619 130.183 142.953 130.183C143.286 130.183 143.54 130.11 143.715 129.964C143.89 129.813 143.992 129.593 144.021 129.304Z" fill="#05081B"/>
<path d="M186.818 136.824V138.417H180.806C180.872 137.815 181.067 137.245 181.392 136.708C181.718 136.167 182.361 135.451 183.321 134.56C184.094 133.839 184.568 133.351 184.743 133.095C184.979 132.741 185.097 132.391 185.097 132.045C185.097 131.662 184.993 131.369 184.786 131.166C184.583 130.958 184.3 130.855 183.938 130.855C183.58 130.855 183.295 130.963 183.083 131.178C182.872 131.394 182.749 131.752 182.717 132.252L181.008 132.082C181.11 131.138 181.429 130.46 181.966 130.049C182.503 129.638 183.175 129.433 183.98 129.433C184.863 129.433 185.557 129.671 186.062 130.147C186.566 130.623 186.818 131.215 186.818 131.923C186.818 132.326 186.745 132.71 186.599 133.076C186.456 133.439 186.228 133.819 185.915 134.218C185.708 134.482 185.333 134.863 184.792 135.359C184.251 135.856 183.907 136.185 183.761 136.348C183.618 136.511 183.502 136.669 183.413 136.824H186.818Z" fill="#05081B"/>
<path d="M177.431 105.083V103.282H173.769V101.781L177.651 96.0986H179.091V101.775H180.202V103.282H179.091V105.083H177.431ZM177.431 101.775V98.717L175.374 101.775H177.431ZM183.925 96.0986C184.792 96.0986 185.47 96.4079 185.958 97.0264C186.54 97.7588 186.831 98.9734 186.831 100.67C186.831 102.363 186.538 103.58 185.952 104.32C185.468 104.93 184.792 105.236 183.925 105.236C183.055 105.236 182.353 104.902 181.82 104.235C181.287 103.563 181.02 102.369 181.02 100.652C181.02 98.9673 181.313 97.7547 181.899 97.0142C182.383 96.4038 183.059 96.0986 183.925 96.0986ZM183.925 97.5208C183.718 97.5208 183.533 97.5879 183.37 97.7222C183.207 97.8524 183.081 98.0884 182.992 98.4302C182.874 98.8737 182.815 99.6204 182.815 100.67C182.815 101.72 182.867 102.442 182.973 102.837C183.079 103.228 183.211 103.488 183.37 103.618C183.533 103.748 183.718 103.813 183.925 103.813C184.133 103.813 184.318 103.748 184.481 103.618C184.644 103.484 184.77 103.246 184.859 102.904C184.977 102.465 185.036 101.72 185.036 100.67C185.036 99.6204 184.983 98.9001 184.878 98.5095C184.772 98.1148 184.637 97.8524 184.475 97.7222C184.316 97.5879 184.133 97.5208 183.925 97.5208Z" fill="white"/>
<path d="M174.068 64.3503V62.7573H179.934V64.0024C179.449 64.4785 178.957 65.1621 178.457 66.0532C177.956 66.9443 177.574 67.8924 177.309 68.8975C177.049 69.8984 176.921 70.7936 176.925 71.583H175.271C175.299 70.346 175.553 69.0846 176.034 67.7988C176.518 66.513 177.163 65.3635 177.968 64.3503H174.068ZM180.965 69.2087L182.625 69.0073C182.678 69.4305 182.821 69.754 183.053 69.9778C183.285 70.2016 183.565 70.3135 183.895 70.3135C184.249 70.3135 184.546 70.1792 184.786 69.9106C185.03 69.6421 185.152 69.2799 185.152 68.8242C185.152 68.3929 185.036 68.0511 184.804 67.7988C184.572 67.5465 184.29 67.4204 183.956 67.4204C183.736 67.4204 183.474 67.4631 183.169 67.5486L183.358 66.1509C183.822 66.1631 184.176 66.0634 184.42 65.8518C184.664 65.6361 184.786 65.3513 184.786 64.9973C184.786 64.6962 184.696 64.4561 184.517 64.2771C184.338 64.0981 184.1 64.0085 183.803 64.0085C183.51 64.0085 183.26 64.1103 183.053 64.3137C182.845 64.5172 182.719 64.8142 182.674 65.2048L181.093 64.9363C181.203 64.3951 181.368 63.9638 181.588 63.6423C181.812 63.3168 182.121 63.0625 182.515 62.8794C182.914 62.6922 183.36 62.5986 183.852 62.5986C184.694 62.5986 185.37 62.8672 185.878 63.4043C186.298 63.8438 186.507 64.3402 186.507 64.8936C186.507 65.6789 186.078 66.3055 185.219 66.7734C185.732 66.8833 186.141 67.1295 186.446 67.512C186.755 67.8944 186.91 68.3563 186.91 68.8975C186.91 69.6828 186.623 70.3521 186.049 70.9055C185.476 71.4589 184.762 71.7356 183.907 71.7356C183.097 71.7356 182.426 71.5037 181.893 71.0398C181.36 70.5719 181.051 69.9615 180.965 69.2087Z" fill="white"/>
<path d="M90.2588 76.6445V70.7282H91.4633V75.6395H94.458V76.6445H90.2588ZM96.5007 76.6445L94.7592 72.3232H95.9595L96.7733 74.5286L97.0093 75.2651C97.0717 75.078 97.111 74.9545 97.1273 74.8949C97.1653 74.7728 97.206 74.6507 97.2494 74.5286L98.0713 72.3232H99.2473L97.5302 76.6445H96.5007ZM99.9512 71.7373V70.6794H101.095V71.7373H99.9512ZM99.9512 76.6445V72.3232H101.095V76.6445H99.9512ZM103.459 76.6445L101.717 72.3232H102.918L103.731 74.5286L103.967 75.2651C104.03 75.078 104.069 74.9545 104.085 74.8949C104.123 74.7728 104.164 74.6507 104.207 74.5286L105.029 72.3232H106.205L104.488 76.6445H103.459Z" fill="white"/>
<path d="M91.2496 90.5894H97.4325V98.0356H98.2198V101.49H96.7184V99.5371H91.0848V101.49H89.5834V98.0356H90.3402C90.7105 97.2707 90.9546 96.3836 91.0726 95.3745C91.1906 94.3613 91.2496 93.0816 91.2496 91.5354V90.5894ZM92.9708 92.0908C92.9708 94.8089 92.7247 96.7905 92.2323 98.0356H95.632V92.0908H92.9708ZM99.3795 93.0552H100.979V94.0073C101.186 93.6818 101.467 93.4173 101.821 93.2139C102.175 93.0104 102.568 92.9087 102.999 92.9087C103.752 92.9087 104.391 93.2037 104.915 93.7937C105.44 94.3837 105.703 95.2056 105.703 96.2595C105.703 97.3419 105.438 98.1842 104.909 98.7864C104.38 99.3845 103.739 99.6836 102.987 99.6836C102.629 99.6836 102.303 99.6124 102.01 99.47C101.721 99.3276 101.416 99.0834 101.095 98.7375V102.003H99.3795V93.0552ZM101.076 96.1863C101.076 96.9146 101.221 97.4538 101.51 97.8037C101.799 98.1496 102.151 98.3225 102.566 98.3225C102.964 98.3225 103.296 98.1638 103.56 97.8464C103.825 97.525 103.957 97.0001 103.957 96.2717C103.957 95.5922 103.821 95.0876 103.548 94.7581C103.276 94.4285 102.938 94.2637 102.535 94.2637C102.116 94.2637 101.768 94.4264 101.491 94.752C101.215 95.0734 101.076 95.5515 101.076 96.1863ZM106.673 96.2046C106.673 95.6349 106.814 95.0836 107.094 94.5505C107.375 94.0175 107.772 93.6106 108.285 93.3298C108.801 93.0491 109.377 92.9087 110.012 92.9087C110.992 92.9087 111.796 93.2281 112.423 93.8669C113.049 94.5017 113.363 95.3053 113.363 96.2778C113.363 97.2585 113.045 98.0723 112.411 98.7192C111.78 99.3621 110.984 99.6836 110.024 99.6836C109.43 99.6836 108.862 99.5493 108.321 99.2808C107.784 99.0122 107.375 98.6195 107.094 98.1028C106.814 97.5819 106.673 96.9492 106.673 96.2046ZM108.431 96.2961C108.431 96.939 108.584 97.4314 108.889 97.7732C109.194 98.115 109.57 98.2859 110.018 98.2859C110.466 98.2859 110.84 98.115 111.141 97.7732C111.446 97.4314 111.599 96.935 111.599 96.2839C111.599 95.6492 111.446 95.1609 111.141 94.8191C110.84 94.4773 110.466 94.3064 110.018 94.3064C109.57 94.3064 109.194 94.4773 108.889 94.8191C108.584 95.1609 108.431 95.6532 108.431 96.2961ZM114.644 93.0552H119.021V94.4407H116.359V99.5371H114.644V93.0552ZM119.356 96.2046C119.356 95.6349 119.497 95.0836 119.777 94.5505C120.058 94.0175 120.455 93.6106 120.968 93.3298C121.484 93.0491 122.06 92.9087 122.695 92.9087C123.676 92.9087 124.479 93.2281 125.106 93.8669C125.732 94.5017 126.046 95.3053 126.046 96.2778C126.046 97.2585 125.728 98.0723 125.094 98.7192C124.463 99.3621 123.667 99.6836 122.707 99.6836C122.113 99.6836 121.545 99.5493 121.004 99.2808C120.467 99.0122 120.058 98.6195 119.777 98.1028C119.497 97.5819 119.356 96.9492 119.356 96.2046ZM121.114 96.2961C121.114 96.939 121.267 97.4314 121.572 97.7732C121.877 98.115 122.253 98.2859 122.701 98.2859C123.149 98.2859 123.523 98.115 123.824 97.7732C124.129 97.4314 124.282 96.935 124.282 96.2839C124.282 95.6492 124.129 95.1609 123.824 94.8191C123.523 94.4773 123.149 94.3064 122.701 94.3064C122.253 94.3064 121.877 94.4773 121.572 94.8191C121.267 95.1609 121.114 95.6532 121.114 96.2961ZM132.259 90.3818H133.425C133.388 90.8986 133.252 91.2913 133.016 91.5598C132.784 91.8243 132.208 91.9565 131.289 91.9565C131.179 91.9565 131.069 91.9545 130.959 91.9504H130.739C130.194 91.9504 129.751 92.0115 129.409 92.1335C129.067 92.2515 128.786 92.4835 128.567 92.8293C128.351 93.1752 128.239 93.7327 128.231 94.5017C128.483 94.0256 128.809 93.6696 129.207 93.4336C129.61 93.1976 130.088 93.0796 130.642 93.0796C131.492 93.0796 132.212 93.4112 132.802 94.0745C133.392 94.7336 133.687 95.4986 133.687 96.3694C133.687 97.2768 133.376 98.056 132.754 98.707C132.135 99.3581 131.325 99.6836 130.324 99.6836C129.637 99.6836 129.032 99.5188 128.512 99.1892C127.991 98.8596 127.618 98.41 127.395 97.8403C127.171 97.2666 127.059 96.3185 127.059 94.9961C127.059 93.4417 127.344 92.3248 127.913 91.6453C128.487 90.9657 129.486 90.626 130.91 90.626H131.777C132.017 90.626 132.178 90.5446 132.259 90.3818ZM128.805 96.345C128.805 96.935 128.951 97.4029 129.244 97.7488C129.541 98.0906 129.903 98.2615 130.33 98.2615C130.79 98.2615 131.167 98.0845 131.46 97.7305C131.757 97.3724 131.905 96.9126 131.905 96.3511C131.905 95.7773 131.755 95.3155 131.453 94.9656C131.156 94.6116 130.788 94.4346 130.349 94.4346C129.922 94.4346 129.557 94.6075 129.256 94.9534C128.955 95.2992 128.805 95.7631 128.805 96.345ZM135.079 93.0552H136.727V97.1262L139.364 93.0552H141.048V99.5371H139.4V95.3928L136.727 99.5371H135.079V93.0552ZM142.611 93.0552H144.344V94.6055C144.344 94.9595 144.375 95.224 144.436 95.3989C144.501 95.5698 144.635 95.7183 144.839 95.8445C145.046 95.9666 145.306 96.0276 145.62 96.0276C145.925 96.0276 146.267 95.9584 146.645 95.8201V93.0552H148.36V99.5371H146.645V96.9492C145.978 97.1283 145.469 97.2178 145.119 97.2178C144.594 97.2178 144.122 97.1059 143.703 96.8821C143.284 96.6542 142.997 96.3653 142.843 96.0154C142.688 95.6614 142.611 95.1914 142.611 94.6055V93.0552Z" fill="white"/>
<path d="M90.2222 104.155H92.4235C92.92 104.155 93.2984 104.193 93.5588 104.269C93.9087 104.372 94.2085 104.555 94.458 104.818C94.7076 105.081 94.8975 105.404 95.0277 105.787C95.1579 106.166 95.223 106.636 95.223 107.194C95.223 107.685 95.162 108.109 95.0399 108.464C94.8907 108.898 94.6778 109.249 94.4011 109.518C94.1922 109.721 93.9101 109.88 93.5547 109.994C93.2889 110.078 92.9335 110.12 92.4886 110.12H90.2222V104.155ZM91.4266 105.164V109.115H92.3259C92.6623 109.115 92.905 109.096 93.0542 109.058C93.2496 109.009 93.411 108.927 93.5385 108.81C93.6687 108.693 93.7745 108.502 93.8558 108.236C93.9372 107.968 93.9779 107.603 93.9779 107.142C93.9779 106.68 93.9372 106.326 93.8558 106.08C93.7745 105.833 93.6605 105.64 93.514 105.502C93.3676 105.363 93.1817 105.27 92.9566 105.221C92.7884 105.183 92.4588 105.164 91.9678 105.164H91.4266ZM97.3348 110.12H96.1914V105.799H97.2535V106.413C97.4352 106.123 97.598 105.932 97.7417 105.84C97.8882 105.747 98.0537 105.701 98.2382 105.701C98.4986 105.701 98.7495 105.773 98.9909 105.917L98.6369 106.914C98.4443 106.789 98.2653 106.727 98.0998 106.727C97.9398 106.727 97.8041 106.771 97.6929 106.861C97.5817 106.948 97.4935 107.106 97.4284 107.337C97.366 107.567 97.3348 108.05 97.3348 108.785V110.12ZM99.2229 107.898C99.2229 107.519 99.3164 107.151 99.5036 106.796C99.6908 106.44 99.9553 106.169 100.297 105.982C100.642 105.795 101.025 105.701 101.449 105.701C102.102 105.701 102.638 105.914 103.056 106.34C103.474 106.763 103.682 107.299 103.682 107.947C103.682 108.601 103.471 109.144 103.048 109.575C102.627 110.003 102.097 110.218 101.457 110.218C101.061 110.218 100.682 110.128 100.321 109.949C99.9634 109.77 99.6908 109.508 99.5036 109.164C99.3164 108.817 99.2229 108.395 99.2229 107.898ZM100.395 107.959C100.395 108.388 100.496 108.716 100.7 108.944C100.903 109.172 101.154 109.286 101.453 109.286C101.751 109.286 102.001 109.172 102.201 108.944C102.405 108.716 102.507 108.385 102.507 107.951C102.507 107.528 102.405 107.203 102.201 106.975C102.001 106.747 101.751 106.633 101.453 106.633C101.154 106.633 100.903 106.747 100.7 106.975C100.496 107.203 100.395 107.531 100.395 107.959ZM104.476 110.405L105.782 110.564C105.804 110.716 105.854 110.82 105.933 110.877C106.041 110.958 106.212 110.999 106.445 110.999C106.744 110.999 106.968 110.954 107.117 110.865C107.217 110.805 107.293 110.709 107.345 110.576C107.38 110.481 107.398 110.306 107.398 110.051V109.42C107.056 109.887 106.624 110.12 106.104 110.12C105.523 110.12 105.063 109.875 104.724 109.384C104.458 108.996 104.325 108.513 104.325 107.935C104.325 107.211 104.499 106.657 104.846 106.275C105.196 105.892 105.63 105.701 106.148 105.701C106.683 105.701 107.124 105.936 107.471 106.405V105.799H108.541V109.677C108.541 110.187 108.499 110.568 108.415 110.82C108.331 111.072 108.213 111.27 108.061 111.414C107.909 111.558 107.705 111.67 107.45 111.752C107.198 111.833 106.878 111.874 106.49 111.874C105.758 111.874 105.238 111.748 104.932 111.495C104.625 111.246 104.472 110.928 104.472 110.543C104.472 110.505 104.473 110.459 104.476 110.405ZM105.497 107.87C105.497 108.328 105.585 108.665 105.762 108.879C105.941 109.091 106.161 109.196 106.421 109.196C106.7 109.196 106.936 109.088 107.129 108.871C107.322 108.651 107.418 108.327 107.418 107.898C107.418 107.451 107.326 107.119 107.141 106.902C106.957 106.685 106.723 106.576 106.441 106.576C106.167 106.576 105.941 106.683 105.762 106.897C105.585 107.109 105.497 107.433 105.497 107.87ZM109.412 107.898C109.412 107.519 109.505 107.151 109.692 106.796C109.88 106.44 110.144 106.169 110.486 105.982C110.83 105.795 111.214 105.701 111.637 105.701C112.291 105.701 112.827 105.914 113.245 106.34C113.662 106.763 113.871 107.299 113.871 107.947C113.871 108.601 113.66 109.144 113.237 109.575C112.816 110.003 112.286 110.218 111.646 110.218C111.25 110.218 110.871 110.128 110.51 109.949C110.152 109.77 109.88 109.508 109.692 109.164C109.505 108.817 109.412 108.395 109.412 107.898ZM110.584 107.959C110.584 108.388 110.685 108.716 110.889 108.944C111.092 109.172 111.343 109.286 111.641 109.286C111.94 109.286 112.189 109.172 112.39 108.944C112.594 108.716 112.695 108.385 112.695 107.951C112.695 107.528 112.594 107.203 112.39 106.975C112.189 106.747 111.94 106.633 111.641 106.633C111.343 106.633 111.092 106.747 110.889 106.975C110.685 107.203 110.584 107.531 110.584 107.959ZM114.722 110.12V104.155H115.865V106.303C116.218 105.902 116.636 105.701 117.118 105.701C117.645 105.701 118.08 105.892 118.425 106.275C118.769 106.655 118.941 107.201 118.941 107.915C118.941 108.653 118.765 109.221 118.412 109.62C118.062 110.018 117.636 110.218 117.135 110.218C116.888 110.218 116.644 110.157 116.402 110.035C116.164 109.91 115.957 109.727 115.784 109.485V110.12H114.722ZM115.857 107.866C115.857 108.313 115.928 108.644 116.069 108.859C116.267 109.163 116.53 109.314 116.858 109.314C117.11 109.314 117.325 109.207 117.501 108.993C117.68 108.776 117.769 108.436 117.769 107.972C117.769 107.478 117.68 107.123 117.501 106.906C117.322 106.686 117.093 106.576 116.813 106.576C116.539 106.576 116.311 106.683 116.13 106.897C115.948 107.109 115.857 107.432 115.857 107.866ZM119.324 105.799H120.54L121.574 108.867L122.583 105.799H123.767L122.241 109.957L121.969 110.71C121.868 110.962 121.772 111.155 121.68 111.288C121.59 111.421 121.486 111.528 121.366 111.609C121.25 111.693 121.105 111.759 120.931 111.805C120.76 111.851 120.566 111.874 120.349 111.874C120.129 111.874 119.914 111.851 119.702 111.805L119.6 110.91C119.78 110.945 119.941 110.962 120.085 110.962C120.351 110.962 120.547 110.884 120.675 110.726C120.802 110.572 120.9 110.374 120.968 110.132L119.324 105.799ZM128.272 107.076L127.144 107.28C127.106 107.055 127.02 106.885 126.884 106.771C126.751 106.657 126.577 106.6 126.363 106.6C126.078 106.6 125.85 106.699 125.68 106.897C125.511 107.093 125.427 107.421 125.427 107.882C125.427 108.395 125.513 108.757 125.684 108.969C125.857 109.18 126.089 109.286 126.379 109.286C126.596 109.286 126.774 109.225 126.912 109.103C127.051 108.978 127.148 108.765 127.205 108.464L128.328 108.655C128.212 109.171 127.988 109.56 127.657 109.823C127.326 110.086 126.883 110.218 126.327 110.218C125.694 110.218 125.19 110.018 124.813 109.62C124.439 109.221 124.251 108.669 124.251 107.964C124.251 107.25 124.44 106.695 124.817 106.299C125.194 105.901 125.704 105.701 126.347 105.701C126.873 105.701 127.291 105.815 127.6 106.043C127.912 106.268 128.136 106.613 128.272 107.076ZM130.282 104.155V106.348C130.651 105.917 131.091 105.701 131.604 105.701C131.867 105.701 132.105 105.75 132.316 105.848C132.528 105.945 132.686 106.07 132.792 106.222C132.901 106.374 132.974 106.542 133.012 106.727C133.053 106.911 133.073 107.197 133.073 107.585V110.12H131.93V107.837C131.93 107.384 131.908 107.097 131.864 106.975C131.821 106.853 131.744 106.756 131.633 106.686C131.524 106.613 131.387 106.576 131.222 106.576C131.032 106.576 130.862 106.622 130.713 106.714C130.564 106.807 130.454 106.946 130.383 107.133C130.316 107.318 130.282 107.592 130.282 107.955V110.12H129.138V104.155H130.282Z" fill="white"/>
</svg>
