<svg width="200" height="201" viewBox="0 0 200 201" fill="none" xmlns="http://www.w3.org/2000/svg">
<path d="M25.6863 170.27H174.314C181.678 170.27 186.263 162.298 182.525 155.968L108.211 30.1558C104.527 23.9193 95.4727 23.9193 91.7889 30.1558L17.4753 155.968C13.7367 162.298 18.3214 170.27 25.6863 170.27Z" fill="#FF0E00" stroke="black" stroke-width="1.04167"/>
<path d="M174.314 167.666H25.6863C20.3188 167.666 17.0139 161.87 19.7175 157.293L94.0312 31.4803C96.707 26.95 103.293 26.95 105.969 31.4803L180.282 157.293C182.986 161.87 179.681 167.666 174.314 167.666Z" fill="#FF0E00" stroke="white" stroke-width="4.16667"/>
<path fill-rule="evenodd" clip-rule="evenodd" d="M164.062 155.169L99.9999 46.4316L35.9374 155.169H164.062Z" fill="white"/>
<path fill-rule="evenodd" clip-rule="evenodd" d="M90.6821 86.3965C90.0727 80.8477 94.4178 75.9993 100 75.9993C105.582 75.9993 109.927 80.8477 109.318 86.3965L104.936 126.292C103.401 125.703 101.735 125.381 99.9959 125.381C98.2593 125.381 96.5968 125.702 95.0633 126.289L90.6821 86.3965ZM99.9983 148.312C104.812 148.312 108.715 144.364 108.715 139.493C108.715 134.623 104.812 130.675 99.9983 130.675C95.1843 130.675 91.2818 134.623 91.2818 139.493C91.2818 144.364 95.1843 148.312 99.9983 148.312Z" fill="#05081B"/>
</svg>
