<svg width="200" height="201" viewBox="0 0 200 201" fill="none" xmlns="http://www.w3.org/2000/svg">
<rect x="36.9792" y="12.6452" width="126.042" height="176.042" rx="8.85417" fill="white" stroke="#13141A" stroke-width="1.04167"/>
<rect x="41.6667" y="17.333" width="116.667" height="166.667" rx="4.16667" fill="#1071AF"/>
<rect x="50" y="33.9995" width="100" height="100" rx="4.16667" fill="white"/>
<path d="M107.066 52.7538C106.383 52.7993 105.747 53.1674 105.382 53.7861L99.8643 63.1602L94.3465 53.7861C93.6247 52.7538 92.6508 52.6057 91.4401 53.0384C90.1984 53.7405 89.8569 55.0043 90.439 55.9949L97.2761 67.5588L95.3981 70.7164L69.2524 115.021H62.5161C60.3664 115.021 60.4168 116.198 60.4168 117.352C60.4168 118.483 60.4207 119.416 62.5161 119.416H137.461C139.583 119.416 139.583 118.414 139.583 117.268C139.56 115.932 139.591 115.021 137.461 115.021H130.48L104.334 70.7164L102.456 67.5588L109.294 55.9949C109.876 55.0043 109.534 53.7405 108.292 53.0384C107.904 52.8258 107.474 52.7272 107.066 52.7538ZM99.8643 88.1704L115.708 115.021H84.0209L99.8643 88.1704Z" fill="black"/>
</svg>
