<svg width="200" height="201" viewBox="0 0 200 201" fill="none" xmlns="http://www.w3.org/2000/svg">
<circle cx="99.9995" cy="100.663" r="82.8125" fill="white" stroke="#05081B" stroke-width="1.04167"/>
<circle cx="99.9999" cy="100.665" r="78.125" fill="#1071AF"/>
<path d="M49.9999 117.059L63.4849 115.687C63.8701 118.684 65.0099 121.065 66.9043 122.832C68.7986 124.567 70.9818 125.434 73.4541 125.434C76.2795 125.434 78.6715 124.314 80.63 122.075C82.5885 119.803 83.5678 116.397 83.5678 111.854C83.5678 107.596 82.5885 104.41 80.63 102.296C78.7036 100.151 76.1832 99.0786 73.0688 99.0786C69.1838 99.0786 65.7002 100.766 62.618 104.142L51.6374 102.58L58.5725 66.4773H94.3557V78.9216H68.8307L66.7116 90.7035C69.7297 89.2209 72.8119 88.4796 75.9584 88.4796C81.9624 88.4796 87.0514 90.6247 91.2253 94.9147C95.3992 99.2048 97.4861 104.772 97.4861 111.618C97.4861 117.327 95.8005 122.422 92.4293 126.901C87.838 133.021 81.4648 136.08 73.3096 136.08C66.7919 136.08 61.4782 134.361 57.3685 130.923C53.2588 127.484 50.8026 122.863 49.9999 117.059Z" fill="white"/>
<path d="M127.076 65.2471C133.914 65.2471 139.26 67.6445 143.113 72.4392C147.704 78.1173 150 87.5333 150 100.687C150 113.81 147.688 123.242 143.065 128.983C139.244 133.715 133.914 136.08 127.076 136.08C120.205 136.08 114.666 133.494 110.46 128.32C106.254 123.116 104.151 113.857 104.151 100.545C104.151 87.486 106.463 78.0857 111.086 72.3446C114.907 67.6129 120.237 65.2471 127.076 65.2471ZM127.076 76.2719C125.438 76.2719 123.977 76.7924 122.693 77.8334C121.409 78.8428 120.413 80.6724 119.707 83.3221C118.776 86.7605 118.31 92.5489 118.31 100.687C118.31 108.826 118.728 114.425 119.563 117.485C120.397 120.513 121.441 122.532 122.693 123.541C123.977 124.551 125.438 125.056 127.076 125.056C128.713 125.056 130.174 124.551 131.458 123.541C132.742 122.5 133.738 120.655 134.444 118.005C135.375 114.599 135.841 108.826 135.841 100.687C135.841 92.5489 135.423 86.9655 134.589 83.9372C133.754 80.8774 132.694 78.8428 131.41 77.8334C130.158 76.7924 128.713 76.2719 127.076 76.2719Z" fill="white"/>
</svg>
