<svg width="200" height="200" viewBox="0 0 200 200" fill="none" xmlns="http://www.w3.org/2000/svg">
<circle cx="100" cy="99.9997" r="82.8125" fill="white" stroke="#05081B" stroke-width="1.04167"/>
<circle cx="100" cy="100.001" r="71.875" stroke="#FF0E00" stroke-width="12.5"/>
<mask id="path-3-inside-1_0_3817" fill="white">
<path fill-rule="evenodd" clip-rule="evenodd" d="M150.613 141.776C159.991 130.427 165.625 115.872 165.625 100C165.625 63.7563 136.244 34.375 100 34.375C84.1284 34.375 69.5728 40.0094 58.2243 49.387L150.613 141.776ZM141.774 150.614C130.426 159.991 115.871 165.625 100 165.625C63.7563 165.625 34.375 136.244 34.375 100C34.375 84.1292 40.0088 69.5743 49.3856 58.226L141.774 150.614Z"/>
</mask>
<path fill-rule="evenodd" clip-rule="evenodd" d="M150.613 141.776C159.991 130.427 165.625 115.872 165.625 100C165.625 63.7563 136.244 34.375 100 34.375C84.1284 34.375 69.5728 40.0094 58.2243 49.387L150.613 141.776ZM141.774 150.614C130.426 159.991 115.871 165.625 100 165.625C63.7563 165.625 34.375 136.244 34.375 100C34.375 84.1292 40.0088 69.5743 49.3856 58.226L141.774 150.614Z" fill="#1071AF"/>
<path d="M150.613 141.776L147.667 144.722L150.906 147.962L153.825 144.43L150.613 141.776ZM58.2243 49.387L55.5702 46.1751L52.0383 49.0936L55.278 52.3333L58.2243 49.387ZM141.774 150.614L144.428 153.826L147.96 150.908L144.72 147.668L141.774 150.614ZM49.3856 58.226L52.3319 55.2798L49.0921 52.0399L46.1736 55.572L49.3856 58.226ZM161.458 100C161.458 114.868 156.184 128.492 147.401 139.122L153.825 144.43C163.797 132.362 169.792 116.876 169.792 100L161.458 100ZM100 38.5417C133.942 38.5417 161.458 66.0575 161.458 100L169.792 100C169.792 61.4551 138.545 30.2083 100 30.2083V38.5417ZM60.8785 52.599C71.5078 43.8156 85.1325 38.5417 100 38.5417V30.2083C83.1244 30.2083 67.6379 36.2031 55.5702 46.1751L60.8785 52.599ZM55.278 52.3333L147.667 144.722L153.559 138.829L61.1706 46.4408L55.278 52.3333ZM139.12 147.402C128.491 156.185 114.867 161.458 100 161.458L100 169.792C116.875 169.792 132.361 163.798 144.428 153.826L139.12 147.402ZM100 161.458C66.0575 161.458 38.5416 133.943 38.5416 100H30.2083C30.2083 138.545 61.4551 169.792 100 169.792L100 161.458ZM38.5416 100C38.5416 85.1332 43.8151 71.5092 52.5977 60.8801L46.1736 55.572C36.2025 67.6395 30.2083 83.1253 30.2083 100H38.5416ZM144.72 147.668L52.3319 55.2798L46.4393 61.1723L138.828 153.561L144.72 147.668Z" fill="white" mask="url(#path-3-inside-1_0_3817)"/>
<path fill-rule="evenodd" clip-rule="evenodd" d="M120.833 50.001H104.167L104.167 150.001H120.833L120.833 50.001ZM95.8334 50.0021H79.1667L79.1667 150.002H95.8334L95.8334 50.0021Z" fill="white"/>
<path d="M52.0834 52.083L149.311 149.31" stroke="#FF0E00" stroke-width="12.5" stroke-linecap="square"/>
</svg>
