<svg width="200" height="201" viewBox="0 0 200 201" fill="none" xmlns="http://www.w3.org/2000/svg">
<rect x="1.56254" y="147.02" width="92.7084" height="196.875" rx="8.85417" transform="rotate(-90 1.56254 147.02)" fill="white" stroke="#13141A" stroke-width="1.04167"/>
<rect x="6.77083" y="141.812" width="82.2917" height="186.458" rx="3.64583" transform="rotate(-90 6.77083 141.812)" stroke="black" stroke-width="1.04167"/>
<path fill-rule="evenodd" clip-rule="evenodd" d="M39.1676 79.9103C38.6124 81.1854 38.3348 82.7625 38.3348 84.6416C38.3348 87.5777 39.1345 89.8846 40.7338 91.5624C42.3331 93.2317 44.4877 94.0664 47.1974 94.0664C49.874 94.0664 52.012 93.2275 53.6113 91.5498C55.2106 89.8636 56.0103 87.5315 56.0103 84.5535C56.0103 81.5503 55.2023 79.2056 53.5864 77.5195C51.9788 75.8333 49.8326 74.9902 47.1477 74.9902C45.6644 74.9902 44.3551 75.2335 43.2198 75.7201C42.3663 76.0808 41.579 76.6344 40.8581 77.3811C40.1455 78.1277 39.582 78.9707 39.1676 79.9103ZM43.5554 89.2722C42.6024 88.1901 42.126 86.6046 42.126 84.5157C42.126 82.3934 42.59 80.8079 43.5181 79.7593C44.4462 78.7023 45.6685 78.1738 47.185 78.1738C48.7014 78.1738 49.9154 78.6939 50.827 79.7341C51.7468 80.7743 52.2067 82.3514 52.2067 84.4654C52.2067 86.6046 51.7344 88.211 50.7897 89.2848C49.8533 90.3502 48.6517 90.8829 47.185 90.8829C45.7182 90.8829 44.5084 90.346 43.5554 89.2722ZM35.3268 75.3048H20.8334V93.7518H24.5127V78.4003H31.6475V93.7518H35.3268V75.3048ZM58.9065 93.7518V75.3048H62.5857V82.5653H69.7951V75.3048H73.4744V93.7518H69.7951V85.686H62.5857V93.7518H58.9065ZM77.2904 75.3048V93.7518H91.1499V90.6438H80.9697V85.6231H90.1182V82.515H80.9697V78.4255H90.8018V75.3048H77.2904ZM95.7365 75.3048H108.328V90.6564H109.932V97.7785H106.874V93.7518H95.4009V97.7785H92.3432V90.6564H93.8845C94.6386 89.0793 95.1358 87.2505 95.3761 85.1701C95.6164 83.0813 95.7365 80.443 95.7365 77.2552V75.3048ZM99.2418 78.4003C99.2418 84.004 98.7405 88.0894 97.7378 90.6564H104.661V78.4003H99.2418ZM112.306 75.3048V93.7518H115.985V75.3048H112.306ZM120.808 75.3048H133.573V93.7518H129.894V78.4255H124.413V86.3026C124.413 88.5592 124.338 90.1363 124.189 91.0339C124.04 91.9231 123.675 92.6194 123.095 93.1227C122.523 93.6176 121.624 93.8651 120.398 93.8651C119.967 93.8651 119.184 93.8232 118.048 93.7393V90.8577L118.869 90.8703C119.639 90.8703 120.157 90.7654 120.423 90.5557C120.688 90.346 120.82 89.8301 120.82 89.008L120.808 85.837V75.3048ZM137.464 79.9103C136.909 81.1854 136.631 82.7625 136.631 84.6416C136.631 87.5777 137.431 89.8846 139.03 91.5624C140.63 93.2317 142.784 94.0664 145.494 94.0664C148.17 94.0664 150.308 93.2275 151.908 91.5498C153.507 89.8636 154.307 87.5315 154.307 84.5535C154.307 81.5503 153.499 79.2056 151.883 77.5195C150.275 75.8333 148.129 74.9902 145.444 74.9902C143.961 74.9902 142.652 75.2335 141.516 75.7201C140.663 76.0808 139.875 76.6344 139.155 77.3811C138.442 78.1277 137.878 78.9707 137.464 79.9103ZM141.852 89.2722C140.899 88.1901 140.422 86.6046 140.422 84.5157C140.422 82.3934 140.886 80.8079 141.815 79.7593C142.743 78.7023 143.965 78.1738 145.481 78.1738C146.998 78.1738 148.212 78.6939 149.123 79.7341C150.043 80.7743 150.503 82.3514 150.503 84.4654C150.503 86.6046 150.031 88.211 149.086 89.2848C148.15 90.3502 146.948 90.8829 145.481 90.8829C144.015 90.8829 142.805 90.346 141.852 89.2722ZM157.253 75.3048H160.932V83.1568C161.752 83.0729 162.307 82.859 162.598 82.515C162.888 82.1711 163.335 81.2147 163.94 79.646C164.702 77.6495 165.469 76.4079 166.24 75.9214C167.002 75.4348 168.232 75.1916 169.931 75.1916C170.014 75.1916 170.192 75.1874 170.466 75.179V77.9347L169.944 77.9221C169.19 77.9221 168.639 78.0186 168.29 78.2115C167.942 78.3961 167.661 78.6813 167.445 79.0672C167.23 79.4531 166.911 80.2458 166.488 81.4454C166.264 82.083 166.02 82.6157 165.755 83.0435C165.498 83.4713 165.038 83.874 164.375 84.2515C165.195 84.4864 165.871 84.9604 166.401 85.6734C166.94 86.3865 167.528 87.3931 168.166 88.6934L170.652 93.7518H166.327L164.151 88.9828C164.118 88.9157 164.048 88.7857 163.94 88.5927C163.899 88.5256 163.745 88.2362 163.48 87.7245C163.008 86.8185 162.618 86.2522 162.312 86.0257C162.013 85.7992 161.553 85.6818 160.932 85.6734V93.7518H157.253V75.3048ZM173.385 82.515V86.0509H180.246V82.515H173.385ZM64.152 118.348L67.7194 119.493C67.1724 121.507 66.2609 123.004 64.9848 123.986C63.7169 124.959 62.1051 125.445 60.1495 125.445C57.7298 125.445 55.741 124.611 54.1831 122.941C52.6252 121.263 51.8462 118.973 51.8462 116.071C51.8462 113 52.6293 110.618 54.1955 108.923C55.7617 107.22 57.8209 106.369 60.3732 106.369C62.6023 106.369 64.413 107.036 65.8051 108.37C66.6338 109.158 67.2553 110.291 67.6696 111.767L64.0277 112.648C63.8122 111.692 63.3606 110.937 62.6728 110.383C61.9933 109.829 61.1646 109.553 60.1868 109.553C58.8361 109.553 57.7381 110.043 56.8928 111.025C56.0559 112.006 55.6374 113.596 55.6374 115.794C55.6374 118.126 56.0517 119.787 56.8804 120.777C57.7091 121.767 58.7863 122.262 60.1122 122.262C61.09 122.262 61.9311 121.947 62.6355 121.318C63.3399 120.689 63.8454 119.699 64.152 118.348ZM41.7125 118.043V114.508H48.5738V118.043H41.7125ZM70.889 106.684V125.131H84.7485V122.023H74.5683V117.002H83.7168V113.894H74.5683V109.804H84.4004V106.684H70.889ZM87.8684 125.131V106.684H93.7726C96.01 106.684 97.4685 106.776 98.148 106.96C99.1921 107.237 100.066 107.841 100.771 108.772C101.475 109.695 101.827 110.891 101.827 112.359C101.827 113.491 101.624 114.443 101.218 115.215C100.812 115.987 100.294 116.595 99.6644 117.04C99.0429 117.476 98.409 117.765 97.7627 117.908C96.8843 118.084 95.6123 118.172 93.9466 118.172H91.5477V125.131H87.8684ZM91.5477 109.804V115.039H93.5613C95.0115 115.039 95.981 114.942 96.4699 114.749C96.9589 114.557 97.34 114.255 97.6135 113.843C97.8952 113.432 98.0361 112.954 98.0361 112.409C98.0361 111.738 97.8414 111.184 97.4519 110.748C97.0624 110.312 96.5694 110.039 95.9727 109.93C95.5335 109.846 94.651 109.804 93.3251 109.804H91.5477ZM104.848 106.684V125.131H118.707V122.023H108.527V117.002H117.676V113.894H108.527V109.804H118.359V106.684H104.848ZM123.294 106.684H135.885V122.035H137.489V129.157H134.431V125.131H122.958V129.157H119.9V122.035H121.442C122.196 120.458 122.693 118.629 122.933 116.549C123.174 114.46 123.294 111.822 123.294 108.634V106.684ZM126.799 109.779C126.799 115.383 126.298 119.468 125.295 122.035H132.219V109.779H126.799ZM152.405 125.131H156.407L149.111 106.684H145.22L138.123 125.131H142.026L143.53 120.94H150.814L152.405 125.131ZM147.122 110.987L149.633 117.832H144.661L147.122 110.987Z" fill="black"/>
</svg>
