<svg width="200" height="201" viewBox="0 0 200 201" fill="none" xmlns="http://www.w3.org/2000/svg">
<path d="M25.6863 169.603H174.314C181.678 169.603 186.263 161.631 182.525 155.301L108.211 29.4889C104.527 23.2523 95.4727 23.2523 91.7889 29.4889L17.4753 155.301C13.7367 161.631 18.3214 169.603 25.6863 169.603Z" fill="#FF0E00" stroke="black" stroke-width="1.04167"/>
<path d="M174.314 166.999H25.6863C20.3188 166.999 17.0139 161.203 19.7175 156.626L94.0312 30.8133C96.707 26.2831 103.293 26.2831 105.969 30.8133L180.282 156.626C182.986 161.203 179.681 166.999 174.314 166.999Z" fill="#FF0E00" stroke="white" stroke-width="4.16667"/>
<path fill-rule="evenodd" clip-rule="evenodd" d="M164.062 154.501L99.9999 45.7637L35.9374 154.501H164.062Z" fill="white"/>
<path fill-rule="evenodd" clip-rule="evenodd" d="M76.4488 94.0833C75.8779 94.0833 75.4151 94.5461 75.4151 95.117V97.7886H75.3493C74.0141 97.8748 73.4326 98.6501 73.1742 99.49C72.9621 100.179 72.8726 101.148 72.9373 101.751C73.013 102.458 73.8644 103.121 74.8609 103.898C75.4568 104.362 76.1046 104.867 76.6694 105.446C76.9265 105.709 77.0637 106.063 77.0877 106.43L77.4815 112.455C77.783 116.052 79.6136 117.279 83.4471 117.279C87.2806 117.279 89.1112 116.052 89.4127 112.455L89.8064 106.43C89.8305 106.063 89.9676 105.709 90.2247 105.446C90.7896 104.867 91.4373 104.362 92.0332 103.898C93.0297 103.121 93.8811 102.458 93.9569 101.751C94.0215 101.148 93.932 100.179 93.72 99.49C93.4615 98.6501 92.88 97.8748 91.5448 97.7886H91.4379V95.1175C91.4379 94.5466 90.9751 94.0837 90.4041 94.0837H89.0258C88.4549 94.0837 87.992 94.5466 87.992 95.1175V97.7886H78.8609V95.117C78.8609 94.5461 78.3981 94.0833 77.8272 94.0833H76.4488ZM95.9599 134.721V148.701C95.9599 149.462 96.577 150.079 97.3383 150.079H100.353C101.115 150.079 101.732 149.462 101.732 148.701V134.721H101.811C102.86 134.721 103.891 134.447 104.803 133.927L111.612 130.036C112.067 129.776 112.583 129.639 113.107 129.639H115.039C115.916 129.639 116.749 130.02 117.322 130.684L118.945 132.564C120.008 133.797 121.556 134.506 123.184 134.506H125.078C127.319 134.673 129.356 135.533 129.645 136.967V148.701C129.645 149.462 130.262 150.079 131.023 150.079H134.038C134.8 150.079 135.417 149.462 135.417 148.701V132.893C135.417 132.81 135.409 132.729 135.395 132.651C135.269 130.803 134.55 129.04 133.337 127.627L132.015 126.087C131.502 125.49 131.121 124.79 130.897 124.036L129.847 120.504C129.669 119.906 129.579 119.286 129.579 118.663V110.923C129.579 107.117 126.493 104.032 122.687 104.032H94.9488C94.8882 104.098 94.8296 104.159 94.7747 104.215C94.3342 104.661 93.7828 105.09 93.3268 105.446L93.2724 105.488C92.7216 105.917 92.2311 106.303 91.8081 106.714L91.4231 112.605L91.4215 112.623C91.2455 114.723 90.5819 116.573 88.9904 117.808C87.4788 118.982 85.5042 119.295 83.4469 119.295C82.6789 119.295 81.9224 119.252 81.1973 119.136L82.4355 130.131C82.73 132.745 84.941 134.721 87.5718 134.721H95.9599ZM86.5297 136.776C86.8252 136.074 87.6334 135.745 88.335 136.041L91.1137 137.211C91.8152 137.507 92.1444 138.315 91.8489 139.016L87.5589 149.202C87.2635 149.904 86.4552 150.233 85.7537 149.937L82.975 148.767C82.2734 148.471 81.9442 147.663 82.2397 146.962L86.5297 136.776ZM117.972 134.397C117.27 134.101 116.462 134.43 116.167 135.132L111.184 146.962C110.889 147.663 111.218 148.472 111.919 148.767L114.698 149.937C115.4 150.233 116.208 149.904 116.503 149.202L121.486 137.372C121.781 136.671 121.452 135.863 120.751 135.567L117.972 134.397Z" fill="black"/>
</svg>
