<svg width="200" height="201" viewBox="0 0 200 201" fill="none" xmlns="http://www.w3.org/2000/svg">
<rect x="1.56254" y="147.02" width="92.7084" height="196.875" rx="8.85417" transform="rotate(-90 1.56254 147.02)" fill="white" stroke="#13141A" stroke-width="1.04167"/>
<rect x="6.77083" y="141.812" width="82.2917" height="186.458" rx="3.64583" transform="rotate(-90 6.77083 141.812)" stroke="black" stroke-width="1.04167"/>
<path d="M23.7922 99.437C22.2967 98.8826 21.2059 98.1232 20.5199 97.159C19.8476 96.1827 19.5115 95.116 19.5115 93.9589C19.5115 91.9823 20.2935 90.3491 21.8577 89.0594C23.4355 87.7698 25.6719 87.1249 28.5669 87.1249C31.4344 87.1249 33.6571 87.7698 35.235 89.0594C36.8265 90.3491 37.6223 91.9823 37.6223 93.9589C37.6223 95.1883 37.2587 96.2852 36.5316 97.2494C35.8044 98.2016 34.7822 98.9308 33.4651 99.437C35.1389 100.028 36.4081 100.889 37.2725 102.022C38.1506 103.155 38.5896 104.463 38.5896 105.946C38.5896 108.392 37.6978 110.381 35.9141 111.912C34.1442 113.442 31.7843 114.208 28.8344 114.208C26.0904 114.208 23.8059 113.575 21.9811 112.31C19.827 110.815 18.75 108.766 18.75 106.163C18.75 104.728 19.1547 103.414 19.9642 102.221C20.7737 101.016 22.0497 100.088 23.7922 99.437ZM24.9859 94.3205C24.9859 95.333 25.3083 96.1224 25.9532 96.6889C26.6118 97.2554 27.483 97.5387 28.5669 97.5387C29.6645 97.5387 30.5426 97.2554 31.2012 96.6889C31.8598 96.1104 32.1891 95.3149 32.1891 94.3024C32.1891 93.3503 31.8598 92.5909 31.2012 92.0244C30.5563 91.4459 29.6988 91.1566 28.6286 91.1566C27.5173 91.1566 26.6323 91.4459 25.9738 92.0244C25.3152 92.603 24.9859 93.3683 24.9859 94.3205ZM24.4508 105.674C24.4508 107.073 24.8555 108.163 25.665 108.947C26.4883 109.73 27.5104 110.122 28.7315 110.122C29.9252 110.122 30.9131 109.748 31.6951 109.001C32.4772 108.242 32.8682 107.151 32.8682 105.729C32.8682 104.487 32.4703 103.493 31.6746 102.746C30.8788 101.986 29.8703 101.607 28.6492 101.607C27.236 101.607 26.1796 102.034 25.4798 102.89C24.7938 103.746 24.4508 104.674 24.4508 105.674Z" fill="black"/>
<path d="M42.7726 113.738V109.928H47.1099V113.738H42.7726Z" fill="black"/>
<path d="M57.9764 93.7781C60.1683 93.7781 61.8816 94.4652 63.1164 95.8392C64.5879 97.4663 65.3237 100.165 65.3237 103.934C65.3237 107.695 64.5828 110.398 63.101 112.043C61.8764 113.399 60.1683 114.077 57.9764 114.077C55.7743 114.077 53.9993 113.336 52.6512 111.853C51.3032 110.361 50.6292 107.708 50.6292 103.894C50.6292 100.151 51.3701 97.4573 52.8519 95.8121C54.0764 94.4561 55.7846 93.7781 57.9764 93.7781ZM57.9764 96.9375C57.4516 96.9375 56.9834 97.0867 56.5718 97.385C56.1602 97.6743 55.8412 98.1986 55.6148 98.9579C55.3164 99.9432 55.1672 101.602 55.1672 103.934C55.1672 106.266 55.301 107.871 55.5685 108.748C55.8361 109.616 56.1705 110.194 56.5718 110.483C56.9834 110.773 57.4516 110.917 57.9764 110.917C58.5012 110.917 58.9694 110.773 59.3811 110.483C59.7927 110.185 60.1117 109.656 60.338 108.897C60.6365 107.921 60.7857 106.266 60.7857 103.934C60.7857 101.602 60.6519 100.002 60.3843 99.1342C60.1168 98.2573 59.7772 97.6743 59.3656 97.385C58.9643 97.0867 58.5012 96.9375 57.9764 96.9375Z" fill="black"/>
<path d="M75.5728 93.7781C77.7646 93.7781 79.4779 94.4652 80.7127 95.8392C82.1842 97.4663 82.92 100.165 82.92 103.934C82.92 107.695 82.1791 110.398 80.6973 112.043C79.4728 113.399 77.7646 114.077 75.5728 114.077C73.3706 114.077 71.5956 113.336 70.2476 111.853C68.8995 110.361 68.2255 107.708 68.2255 103.894C68.2255 100.151 68.9664 97.4573 70.4482 95.8121C71.6728 94.4561 73.3809 93.7781 75.5728 93.7781ZM75.5728 96.9375C75.048 96.9375 74.5798 97.0867 74.1681 97.385C73.7565 97.6743 73.4375 98.1986 73.2112 98.9579C72.9127 99.9432 72.7635 101.602 72.7635 103.934C72.7635 106.266 72.8973 107.871 73.1648 108.748C73.4324 109.616 73.7668 110.194 74.1681 110.483C74.5798 110.773 75.048 110.917 75.5728 110.917C76.0976 110.917 76.5658 110.773 76.9774 110.483C77.389 110.185 77.708 109.656 77.9344 108.897C78.2328 107.921 78.382 106.266 78.382 103.934C78.382 101.602 78.2482 100.002 77.9807 99.1342C77.7131 98.2573 77.3736 97.6743 76.9619 97.385C76.5606 97.0867 76.0976 96.9375 75.5728 96.9375Z" fill="black"/>
<path d="M88.5417 105.95V102.14H97.2425V105.95H88.5417Z" fill="black"/>
<path d="M114.062 113.737H108.279V94.5913C106.166 96.3269 103.676 97.6106 100.808 98.4422V93.832C102.317 93.3981 103.957 92.5785 105.727 91.3732C107.497 90.1558 108.711 88.7396 109.37 87.1245H114.062V113.737Z" fill="black"/>
<path d="M120.675 92.3133V87.5946H140.453V91.2828C138.82 92.693 137.16 94.7179 135.472 97.3574C133.785 99.997 132.495 102.805 131.603 105.782C130.725 108.747 130.293 111.399 130.306 113.737H124.729C124.825 110.073 125.683 106.337 127.302 102.528C128.934 98.7194 131.109 95.3145 133.826 92.3133H120.675Z" fill="black"/>
<path d="M141.103 113.737V109.927H145.44V113.737H141.103Z" fill="black"/>
<path d="M156.306 93.7777C158.498 93.7777 160.212 94.4647 161.446 95.8388C162.918 97.4659 163.654 100.164 163.654 103.934C163.654 107.694 162.913 110.397 161.431 112.042C160.206 113.398 158.498 114.076 156.306 114.076C154.104 114.076 152.329 113.335 150.981 111.853C149.633 110.361 148.959 107.708 148.959 103.893C148.959 100.151 149.7 97.4569 151.182 95.8117C152.406 94.4557 154.115 93.7777 156.306 93.7777ZM156.306 96.9371C155.782 96.9371 155.313 97.0862 154.902 97.3846C154.49 97.6738 154.171 98.1981 153.945 98.9575C153.646 99.9428 153.497 101.602 153.497 103.934C153.497 106.266 153.631 107.871 153.899 108.747C154.166 109.615 154.501 110.194 154.902 110.483C155.313 110.772 155.782 110.917 156.306 110.917C156.831 110.917 157.299 110.772 157.711 110.483C158.123 110.185 158.442 109.656 158.668 108.897C158.966 107.92 159.116 106.266 159.116 103.934C159.116 101.602 158.982 100.002 158.714 99.1337C158.447 98.2569 158.107 97.6738 157.696 97.3846C157.294 97.0862 156.831 96.9371 156.306 96.9371Z" fill="black"/>
<path d="M173.903 93.7777C176.095 93.7777 177.808 94.4647 179.043 95.8388C180.514 97.4659 181.25 100.164 181.25 103.934C181.25 107.694 180.509 110.397 179.027 112.042C177.803 113.398 176.095 114.076 173.903 114.076C171.701 114.076 169.926 113.335 168.578 111.853C167.23 110.361 166.556 107.708 166.556 103.893C166.556 100.151 167.296 97.4569 168.778 95.8117C170.003 94.4557 171.711 93.7777 173.903 93.7777ZM173.903 96.9371C173.378 96.9371 172.91 97.0862 172.498 97.3846C172.087 97.6738 171.768 98.1981 171.541 98.9575C171.243 99.9428 171.094 101.602 171.094 103.934C171.094 106.266 171.227 107.871 171.495 108.747C171.762 109.615 172.097 110.194 172.498 110.483C172.91 110.772 173.378 110.917 173.903 110.917C174.428 110.917 174.896 110.772 175.307 110.483C175.719 110.185 176.038 109.656 176.264 108.897C176.563 107.92 176.712 106.266 176.712 103.934C176.712 101.602 176.578 100.002 176.311 99.1337C176.043 98.2569 175.704 97.6738 175.292 97.3846C174.891 97.0862 174.428 96.9371 173.903 96.9371Z" fill="black"/>
</svg>
