<svg width="200" height="201" viewBox="0 0 200 201" fill="none" xmlns="http://www.w3.org/2000/svg">
<path d="M174.314 169.936H25.6864C18.3215 169.936 13.7368 161.963 17.4754 155.634L91.789 29.8213C95.4728 23.5847 104.527 23.5847 108.211 29.8213L182.525 155.634C186.263 161.963 181.679 169.936 174.314 169.936Z" fill="#FF0E00" stroke="black" stroke-width="1.04167"/>
<path d="M25.6864 167.331H174.314C179.681 167.331 182.986 161.535 180.283 156.958L105.969 31.1457C103.293 26.6154 96.7071 26.6155 94.0313 31.1457L19.7176 156.958C17.014 161.535 20.3189 167.331 25.6864 167.331Z" fill="#FF0E00" stroke="white" stroke-width="4.16667"/>
<path fill-rule="evenodd" clip-rule="evenodd" d="M35.9376 154.834L100 46.0963L164.063 154.834H35.9376Z" fill="white"/>
<circle cx="100" cy="90.2517" r="10.4167" fill="#FF0E00"/>
<circle cx="100" cy="115.25" r="10.4167" fill="#FFE600"/>
<circle cx="100" cy="140.251" r="10.4167" fill="#00AC5A"/>
</svg>
