<svg width="200" height="201" viewBox="0 0 200 201" fill="none" xmlns="http://www.w3.org/2000/svg">
<rect x="0.520826" y="-0.520826" width="126.04" height="176.039" rx="8.85404" transform="matrix(-1 0 0 1 163.539 12.5176)" fill="white" stroke="#13141A" stroke-width="1.04165"/>
<rect x="-1.04165" y="1.04165" width="114.582" height="164.581" rx="3.12495" transform="matrix(-1 0 0 1 156.248 16.6821)" fill="white" stroke="#13141A" stroke-width="2.0833"/>
<path d="M59.121 37.3597L54.5762 36.0706C55.5546 31.479 58.3372 29.1831 62.9241 29.1831C65.6384 29.1831 67.6846 29.9142 69.0628 31.3763C70.4515 32.8257 71.1458 34.5315 71.1458 36.4939C71.1458 37.8406 70.8302 39.0591 70.199 40.1493C69.5677 41.2267 68.6209 42.1758 67.3585 42.9967C68.8944 43.638 70.0464 44.5486 70.8144 45.7286C71.5824 46.8958 71.9664 48.3387 71.9664 50.0574C71.9664 52.5328 71.2195 54.5336 69.7256 56.0599C68.2422 57.5862 66.0171 58.3493 63.0504 58.3493C60.6307 58.3493 58.7212 57.862 57.322 56.8872C55.9228 55.8996 54.8708 54.0591 54.1659 51.3656L58.4424 49.6533C58.8843 51.3464 59.4682 52.443 60.1941 52.9432C60.9305 53.4434 61.8353 53.6935 62.9083 53.6935C64.3812 53.6935 65.4543 53.3087 66.1276 52.5392C66.8009 51.7568 67.1375 50.8654 67.1375 49.865C67.1375 48.7106 66.7535 47.7808 65.9856 47.0753C65.2281 46.3699 64.0814 46.0172 62.5454 46.0172H61.4881V41.7654H62.0246C63.4554 41.7654 64.5495 41.3742 65.307 40.5918C66.0645 39.8094 66.4432 38.7705 66.4432 37.4751C66.4432 36.449 66.1328 35.5833 65.5121 34.8778C64.902 34.1724 64.0235 33.8197 62.8768 33.8197C60.92 33.8197 59.6681 34.9997 59.121 37.3597Z" fill="black"/>
<path d="M74.9686 43.9394C74.9686 41.0664 75.321 38.6551 76.0259 36.7055C76.5519 35.269 77.2673 33.98 78.1721 32.8385C79.0873 31.697 80.0868 30.8505 81.1704 30.299C82.6117 29.5551 84.2739 29.1831 86.157 29.1831C89.5656 29.1831 92.2904 30.4721 94.3314 33.0501C96.3829 35.6282 97.4086 39.213 97.4086 43.8047C97.4086 48.3579 96.3934 51.9235 94.3629 54.5016C92.3325 57.0667 89.6182 58.3493 86.2202 58.3493C82.78 58.3493 80.0447 57.0732 78.0143 54.5208C75.9838 51.9556 74.9686 48.4285 74.9686 43.9394ZM79.7817 43.747C79.7817 46.9407 80.3866 49.3648 81.5964 51.0193C82.8063 52.661 84.3423 53.4819 86.2044 53.4819C88.0665 53.4819 89.5919 52.6674 90.7808 51.0385C91.9801 49.3968 92.5797 46.9407 92.5797 43.67C92.5797 40.4379 91.9959 38.0266 90.8281 36.4362C89.6708 34.8458 88.1296 34.0506 86.2044 34.0506C84.2791 34.0506 82.7274 34.8586 81.5491 36.4747C80.3708 38.0779 79.7817 40.502 79.7817 43.747Z" fill="black"/>
<path d="M101.358 57.8684V29.6641H106.029V40.7649H115.181V29.6641H119.852V57.8684H115.181V45.5362H106.029V57.8684H101.358Z" fill="black"/>
<path d="M145.831 57.8684H140.75L138.73 51.4618H129.483L127.573 57.8684H122.618L131.629 29.6641H136.568L145.831 57.8684ZM137.231 46.7098L134.043 36.2438L130.919 46.7098H137.231Z" fill="black"/>
<rect x="54.1659" y="70.8501" width="91.6653" height="91.6653" rx="4.16661" fill="#1071AF"/>
<path d="M77.8215 84.1538H103.99C107.403 84.1538 110.421 84.7862 113.044 86.0511C115.667 87.316 117.864 88.974 119.634 91.0251C121.435 93.0421 122.794 95.3154 123.71 97.8452C124.659 100.375 125.133 102.922 125.133 105.486C125.133 108.186 124.659 110.836 123.71 113.434C122.794 115.998 121.435 118.288 119.634 120.305C117.832 122.288 115.62 123.895 112.997 125.125C110.374 126.322 107.371 126.92 103.99 126.92H89.0093V149.207H77.8215V84.1538ZM89.0093 116.767H101.619C103.926 116.767 105.854 116.476 107.403 115.895C108.983 115.28 110.247 114.459 111.195 113.434C112.175 112.408 112.87 111.212 113.281 109.844C113.724 108.443 113.945 106.939 113.945 105.332C113.945 103.759 113.676 102.306 113.139 100.973C112.602 99.6058 111.812 98.4434 110.769 97.4862C109.726 96.4949 108.43 95.7257 106.881 95.1787C105.364 94.6317 103.61 94.3582 101.619 94.3582H89.0093V116.767Z" fill="white"/>
</svg>
