<svg width="200" height="200" viewBox="0 0 200 200" fill="none" xmlns="http://www.w3.org/2000/svg">
<rect x="1.56254" y="146.353" width="92.7084" height="196.875" rx="8.85417" transform="rotate(-90 1.56254 146.353)" fill="white" stroke="#13141A" stroke-width="1.04167"/>
<rect x="6.77083" y="141.146" width="82.2917" height="186.458" rx="3.64583" transform="rotate(-90 6.77083 141.146)" stroke="black" stroke-width="1.04167"/>
<path fill-rule="evenodd" clip-rule="evenodd" d="M78.0002 64.5815C74.8153 64.5815 72.1142 66.9213 71.6599 70.0736C71.2169 73.1471 73.0421 76.0957 75.9906 77.0699L79.5796 78.2557L70.7325 93.6019C67.9624 92.3601 64.8873 91.6688 61.6493 91.6688C49.4626 91.6688 39.5833 101.461 39.5833 113.541C39.5833 125.62 49.4626 135.413 61.6493 135.413C73.8361 135.413 83.7154 125.62 83.7154 113.541C83.7154 106.151 80.018 99.6171 74.3569 95.6576L76.6811 91.626L102.71 114.992C102.877 115.162 103.075 115.307 103.302 115.415C103.652 115.583 104.026 115.644 104.386 115.611L116.382 115.611C117.437 126.718 126.87 135.409 138.351 135.409C150.537 135.409 160.417 125.616 160.417 113.537C160.417 101.457 150.537 91.6649 138.351 91.6649C134.571 91.6649 131.013 92.6068 127.904 94.2666L120.469 83.2136V77.0829L126.789 77.0829C127.94 77.0829 128.873 76.1501 128.873 74.9995C128.873 73.8489 127.94 72.9162 126.789 72.9162H118.389L118.386 72.9162L118.384 72.9162L108.926 72.9162C107.776 72.9162 106.843 73.8489 106.843 74.9995C106.843 76.1501 107.776 77.0829 108.926 77.0829L116.303 77.0829V81.7612L82.3682 81.7612L84.467 78.1206C84.7799 77.5778 84.8319 76.923 84.6087 76.3377C84.3854 75.7523 83.9106 75.2985 83.3157 75.1019L77.2977 73.1136C76.2671 72.773 75.6291 71.7423 75.7839 70.668C75.9427 69.5661 76.8869 68.7482 78.0002 68.7482L88.4413 68.7482C89.5919 68.7482 90.5247 67.8155 90.5247 66.6649C90.5247 65.5143 89.5919 64.5815 88.4413 64.5815L78.0002 64.5815ZM124.429 96.5664L118.694 88.0398L107.509 111.445H116.384C116.958 105.452 119.971 100.164 124.429 96.5664ZM120.575 111.445C121.117 106.897 123.405 102.866 126.765 100.04L134.436 111.445H120.575ZM120.573 115.611H138.348C139.117 115.611 139.825 115.187 140.186 114.507C140.548 113.828 140.506 113.004 140.076 112.365L130.244 97.746C132.675 96.5223 135.428 95.8315 138.351 95.8315C148.271 95.8315 156.25 103.793 156.25 113.537C156.25 123.281 148.271 131.242 138.351 131.242C129.144 131.242 121.61 124.386 120.573 115.611ZM61.6493 95.8355C64.1321 95.8355 66.4933 96.3341 68.6383 97.2346L59.8419 112.493C59.2673 113.49 59.6095 114.763 60.6063 115.338C61.6031 115.913 62.877 115.571 63.4517 114.574L72.2663 99.284C76.6895 102.514 79.5487 107.708 79.5487 113.541C79.5487 123.284 71.5697 131.246 61.6493 131.246C51.729 131.246 43.7499 123.284 43.7499 113.541C43.7499 103.797 51.729 95.8355 61.6493 95.8355ZM79.9661 85.9279L78.8083 87.9363L103.523 110.122L115.085 85.9279L79.9661 85.9279Z" fill="black"/>
</svg>
