<svg width="200" height="201" viewBox="0 0 200 201" fill="none" xmlns="http://www.w3.org/2000/svg">
<rect x="0.520826" y="-0.520826" width="138.54" height="138.54" rx="8.85404" transform="matrix(-1 0 0 1 169.789 31.2798)" fill="white" stroke="#13141A" stroke-width="1.04165"/>
<rect x="-1.04165" y="1.04165" width="127.081" height="127.081" rx="3.12495" transform="matrix(-1 0 0 1 162.498 35.4482)" fill="white" stroke="#13141A" stroke-width="2.0833"/>
<path d="M62.8371 139.787L58.7055 138.774C59.5949 135.166 62.1246 133.362 66.2945 133.362C68.762 133.362 70.6222 133.937 71.8751 135.086C73.1375 136.224 73.7687 137.565 73.7687 139.107C73.7687 140.165 73.4818 141.122 72.908 141.979C72.3341 142.825 71.4734 143.571 70.3257 144.216C71.722 144.72 72.7693 145.435 73.4675 146.362C74.1657 147.279 74.5147 148.413 74.5147 149.764C74.5147 151.708 73.8357 153.281 72.4776 154.48C71.1291 155.679 69.1063 156.279 66.4093 156.279C64.2095 156.279 62.4737 155.896 61.2017 155.13C59.9296 154.354 58.9732 152.908 58.3325 150.791L62.2202 149.446C62.6219 150.776 63.1527 151.638 63.8126 152.031C64.4821 152.424 65.3046 152.62 66.2801 152.62C67.6191 152.62 68.5946 152.318 69.2067 151.714C69.8188 151.099 70.1249 150.398 70.1249 149.612C70.1249 148.705 69.7758 147.975 69.0776 147.42C68.389 146.866 67.3465 146.589 65.9502 146.589H64.989V143.248H65.4768C66.7775 143.248 67.7721 142.941 68.4607 142.326C69.1493 141.712 69.4936 140.895 69.4936 139.877C69.4936 139.071 69.2115 138.391 68.6472 137.837C68.0925 137.282 67.2939 137.005 66.2514 137.005C64.4725 137.005 63.3344 137.932 62.8371 139.787Z" fill="black"/>
<path d="M77.244 144.957C77.244 142.699 77.5644 140.805 78.2052 139.273C78.6834 138.144 79.3337 137.131 80.1562 136.234C80.9883 135.338 81.8969 134.672 82.882 134.239C84.1922 133.655 85.7034 133.362 87.4153 133.362C90.514 133.362 92.9911 134.375 94.8465 136.401C96.7115 138.426 97.644 141.243 97.644 144.851C97.644 148.428 96.7211 151.23 94.8752 153.255C93.0294 155.271 90.5619 156.279 87.4727 156.279C84.3453 156.279 81.8586 155.276 80.0128 153.27C78.1669 151.255 77.244 148.484 77.244 144.957ZM81.6195 144.805C81.6195 147.315 82.1695 149.219 83.2693 150.519C84.3692 151.809 85.7655 152.454 87.4584 152.454C89.1512 152.454 90.538 151.814 91.6187 150.534C92.709 149.245 93.2541 147.315 93.2541 144.745C93.2541 142.205 92.7233 140.311 91.6617 139.061C90.6097 137.812 89.2086 137.187 87.4584 137.187C85.7081 137.187 84.2975 137.822 83.2263 139.091C82.1551 140.351 81.6195 142.256 81.6195 144.805Z" fill="black"/>
<path d="M101.234 155.901V133.74H105.48V142.462H113.801V133.74H118.048V155.901H113.801V146.211H105.48V155.901H101.234Z" fill="black"/>
<path d="M141.665 155.901H137.045L135.209 150.867H126.802L125.066 155.901H120.562L128.753 133.74H133.243L141.665 155.901ZM133.846 147.133L130.948 138.91L128.108 147.133H133.846Z" fill="black"/>
<circle cx="99.9985" cy="85.4468" r="41.6661" fill="#1071AF"/>
<path d="M95.4983 61.116C95.4983 63.787 93.467 65.9523 90.9614 65.9523C88.4558 65.9523 86.4245 63.787 86.4245 61.116C86.4245 58.445 88.4558 56.2798 90.9614 56.2798C93.467 56.2798 95.4983 58.445 95.4983 61.116Z" fill="white"/>
<path d="M87.2479 108.159L91.0296 91.8322L94.8114 108.159C95.1633 109.678 96.6195 110.59 98.0356 110.178C99.383 109.787 100.203 108.335 99.8977 106.882L94.5457 81.4282L95.4531 75.6247L99.0261 85.8484C99.4263 86.9935 100.647 87.545 101.697 87.0552C102.654 86.6091 103.126 85.4528 102.781 84.4025L97.36 67.8911C97.1689 67.3092 96.6537 66.9195 96.0753 66.9195H85.9839C85.4055 66.9195 84.8903 67.3092 84.6993 67.8911L79.278 84.4025C78.9331 85.4528 79.4057 86.6091 80.3621 87.0552C81.4124 87.545 82.6329 86.9935 83.0331 85.8484L86.6062 75.6247L87.5136 81.4282L82.1615 106.882C81.8561 108.335 82.6763 109.787 84.0237 110.178C85.4397 110.59 86.896 109.678 87.2479 108.159Z" fill="white"/>
<path d="M115.047 86.2311C114.88 85.9508 114.591 85.7808 114.28 85.7808L109.226 85.7808C108.763 85.7808 108.303 85.8649 107.866 86.0294L100.816 88.6842C100.09 88.956 99.6835 89.7784 99.8835 90.5704C100.093 91.4 100.89 91.8952 101.671 91.6806L108.526 89.7956V96.4301L105.105 107.989C104.815 108.969 105.339 110.006 106.291 110.34C107.259 110.68 108.317 110.172 108.671 109.197L111.604 101.126L114.537 109.197C114.891 110.172 115.949 110.68 116.916 110.34C117.869 110.006 118.392 108.969 118.103 107.989L114.682 96.4301V91.9487L117.97 96.9002C118.443 97.6115 119.375 97.7616 120.024 97.2306C120.614 96.7469 120.761 95.8631 120.363 95.1922L115.047 86.2311Z" fill="white"/>
<path d="M111.831 84.8136C113.836 84.8136 115.461 83.0814 115.461 80.9446C115.461 78.8078 113.836 77.0756 111.831 77.0756C109.827 77.0756 108.202 78.8078 108.202 80.9446C108.202 83.0814 109.827 84.8136 111.831 84.8136Z" fill="white"/>
</svg>
