<svg width="200" height="201" viewBox="0 0 200 201" fill="none" xmlns="http://www.w3.org/2000/svg">
<circle cx="99.9995" cy="100.331" r="82.8125" fill="white" stroke="#05081B" stroke-width="1.04167"/>
<circle cx="99.9999" cy="100.332" r="78.125" fill="#1071AF"/>
<path d="M91.1926 53.7551C91.1926 59.0972 87.106 63.4278 82.065 63.4278C77.024 63.4278 72.9374 59.0972 72.9374 53.7551C72.9374 48.4131 77.024 44.0825 82.065 44.0825C87.106 44.0825 91.1926 48.4131 91.1926 53.7551Z" fill="white"/>
<path d="M74.5939 147.842L82.2023 115.188L89.8107 147.842C90.5186 150.881 93.4484 152.705 96.2973 151.881C99.0081 151.098 100.658 148.194 100.044 145.289L89.2761 94.3801L91.1017 82.773L98.2902 103.221C99.0953 105.511 101.551 106.614 103.664 105.634C105.588 104.742 106.539 102.429 105.845 100.329L94.9381 67.3055C94.5537 66.1416 93.5172 65.3623 92.3536 65.3623H72.051C70.8874 65.3623 69.8508 66.1416 69.4664 67.3055L58.5596 100.329C57.8658 102.429 58.8165 104.742 60.7407 105.634C62.8536 106.614 65.3092 105.511 66.1144 103.221L73.3029 82.773L75.1284 94.3801L64.3608 145.289C63.7463 148.194 65.3965 151.098 68.1072 151.881C70.9562 152.705 73.886 150.881 74.5939 147.842Z" fill="white"/>
<path d="M130.522 103.986C130.187 103.425 129.605 103.086 128.979 103.086L118.811 103.085C117.879 103.085 116.954 103.254 116.075 103.583L101.891 108.892C100.431 109.436 99.6127 111.081 100.015 112.665C100.437 114.324 102.04 115.314 103.61 114.885L117.403 111.115V124.384L110.52 147.503C109.937 149.462 110.99 151.536 112.907 152.205C114.854 152.885 116.982 151.868 117.695 149.919L123.595 133.775L129.495 149.919C130.207 151.868 132.336 152.885 134.283 152.205C136.2 151.536 137.252 149.462 136.669 147.503L129.787 124.384V115.421L136.403 125.325C137.354 126.747 139.23 127.047 140.534 125.985C141.722 125.018 142.019 123.25 141.218 121.908L130.522 103.986Z" fill="white"/>
<path d="M124.052 101.151C128.085 101.151 131.354 97.6865 131.354 93.4129C131.354 89.1392 128.085 85.6748 124.052 85.6748C120.019 85.6748 116.75 89.1392 116.75 93.4129C116.75 97.6865 120.019 101.151 124.052 101.151Z" fill="white"/>
</svg>
