<svg width="200" height="200" viewBox="0 0 200 200" fill="none" xmlns="http://www.w3.org/2000/svg">
<rect x="1.56254" y="146.355" width="92.7084" height="196.875" rx="8.85417" transform="rotate(-90 1.56254 146.355)" fill="white" stroke="#13141A" stroke-width="1.04167"/>
<rect x="6.77083" y="141.146" width="82.2917" height="186.458" rx="3.64583" transform="rotate(-90 6.77083 141.146)" stroke="black" stroke-width="1.04167"/>
<path fill-rule="evenodd" clip-rule="evenodd" d="M135.715 68.5254V90.2106C136.839 90.2783 137.837 90.8173 138.513 91.6333C139.077 92.3146 139.415 93.1902 139.415 94.1448V101.697C137.002 100.642 134.335 100.057 131.533 100.057C120.647 100.057 111.825 108.879 111.825 119.764H75.7731C74.0776 114.069 68.8025 109.916 62.5554 109.916C61.1871 109.916 59.8649 110.116 58.6159 110.488V94.1448C58.6159 91.9682 60.3807 90.2034 62.5574 90.2034H78.3231V72.4669C78.3231 71.3785 79.2054 70.4961 80.2938 70.4961C81.3822 70.4961 82.2646 71.3785 82.2646 72.4669V90.2034H95.3277L105.499 68.3437C106.566 66.0505 108.866 64.584 111.395 64.584H131.773C133.95 64.584 135.715 66.3486 135.715 68.5254ZM129.802 70.4961V90.2034H101.849L110.859 70.8379C110.956 70.6295 111.166 70.4961 111.395 70.4961H129.802Z" fill="black"/>
<path fill-rule="evenodd" clip-rule="evenodd" d="M149.269 119.764C149.269 129.56 141.328 137.501 131.533 137.501C121.737 137.501 113.796 129.56 113.796 119.764C113.796 109.969 121.737 102.028 131.533 102.028C141.328 102.028 149.269 109.969 149.269 119.764ZM141.386 119.764C141.386 125.206 136.975 129.618 131.533 129.618C126.091 129.618 121.679 125.206 121.679 119.764C121.679 114.322 126.091 109.911 131.533 109.911C136.975 109.911 141.386 114.322 141.386 119.764Z" fill="black"/>
<path fill-rule="evenodd" clip-rule="evenodd" d="M74.3817 123.706C74.3817 130.236 69.0877 135.53 62.5574 135.53C56.027 135.53 50.733 130.236 50.733 123.706C50.733 117.175 56.027 111.881 62.5574 111.881C69.0877 111.881 74.3817 117.175 74.3817 123.706ZM68.4695 123.706C68.4695 126.971 65.8226 129.618 62.5574 129.618C59.2922 129.618 56.6452 126.971 56.6452 123.706C56.6452 120.44 59.2922 117.793 62.5574 117.793C65.8226 117.793 68.4695 120.44 68.4695 123.706Z" fill="black"/>
</svg>
