<svg width="200" height="200" viewBox="0 0 200 200" fill="none" xmlns="http://www.w3.org/2000/svg">
<rect y="16.667" width="200" height="166.667" fill="#68696C"/>
<path fill-rule="evenodd" clip-rule="evenodd" d="M148.175 62.0115L145.965 59.8018L143.756 62.0115L131.586 74.1806L136.006 78.6L142.84 71.7655V141.662H149.09V108.221H168.539L161.703 115.057L166.123 119.476L178.292 107.307L180.502 105.097L178.292 102.887L166.123 90.7184L161.703 95.1378L168.537 101.971H149.09V71.7657L155.925 78.6L160.344 74.1806L148.175 62.0115ZM35.9128 59.8058L38.1225 62.0155L50.2916 74.1846L45.8722 78.6041L39.0389 71.7707L39.0389 141.654H32.7889L32.7889 71.7685L25.9534 78.6041L21.5339 74.1846L33.7031 62.0155L35.9128 59.8058ZM101.378 69.3684L77.5213 83.0293L75.9491 83.9295V85.7411L75.9492 141.672L82.1992 141.672L82.1991 87.5528L104.541 74.7593L102.032 84.1251L108.069 85.7427L112.523 69.1194L113.332 66.1009L110.313 65.2921L93.6899 60.8379L92.0723 66.8749L101.378 69.3684Z" fill="white"/>
</svg>
