<svg width="200" height="201" viewBox="0 0 200 201" fill="none" xmlns="http://www.w3.org/2000/svg">
<rect x="36.9792" y="12.3128" width="126.042" height="176.042" rx="8.85417" fill="white" stroke="#13141A" stroke-width="1.04167"/>
<rect x="41.6667" y="17" width="116.667" height="166.667" rx="4.16667" fill="#1071AF"/>
<rect x="50" y="33.6663" width="100" height="100" rx="4.16667" fill="white"/>
<path fill-rule="evenodd" clip-rule="evenodd" d="M127.047 116.896C134.574 114.584 140.179 100.206 140.179 83.1873C140.179 67.6235 135.401 54.5182 128.916 50.3861C128.819 50.3251 126.652 50.3277 124.505 50.3382C131.165 54.219 136.073 67.5113 136.073 83.3179C136.073 100.101 130.539 114.045 123.251 116.903C123.672 116.907 124.094 116.912 124.495 116.917C125.794 116.934 126.88 116.948 127.047 116.896ZM117.452 50.3782C118.394 50.3717 122.396 50.4012 122.486 50.4524C129.17 54.2964 134.074 67.6294 134.072 83.4518C134.072 99.9155 128.718 113.59 121.662 116.868C121.646 116.875 121.63 116.884 121.614 116.892C121.595 116.902 121.576 116.912 121.557 116.921C121.396 116.992 119.586 117.01 117.952 116.993C117.781 116.932 117.609 116.866 117.439 116.792C117.929 116.539 118.409 116.235 118.881 115.883C125.017 111.297 129.432 98.574 129.432 83.5818C129.432 69.0464 125.282 56.6427 119.437 51.7204C118.795 51.1802 118.133 50.7307 117.452 50.3782ZM114.732 50.4071C115.593 50.8475 116.624 51.5786 117.611 52.5644C124.392 59.3468 126.636 73.6865 126.633 83.5805C126.633 92.7951 124.425 107.853 117.768 114.51C116.63 115.649 115.435 116.452 114.378 116.93C114.183 117.02 109.618 116.958 108.812 116.947C108.753 116.946 108.714 116.946 108.699 116.945C110.055 116.406 111.309 115.53 112.459 114.381C118.349 108.491 121.493 95.4013 121.493 83.3704C121.493 73.3078 119.144 59.0796 112.371 52.3143C111.63 51.5714 110.857 50.9538 110.058 50.4714C110.099 50.4481 110.141 50.4276 110.183 50.4071C110.212 50.393 110.241 50.3788 110.27 50.3638C112.128 50.3507 114.269 50.3467 114.668 50.3946C114.699 50.3992 114.723 50.4032 114.732 50.4071ZM108.434 51.5714C111.407 53.4353 113.536 57.1862 114.876 60.3719C117.397 66.3713 118.956 74.5988 118.959 83.6782C118.959 93.9817 116.956 103.188 113.811 109.286C113.28 110.317 112.717 111.26 112.123 112.104C112.082 112.162 112.04 112.217 111.998 112.273C111.972 112.308 111.946 112.342 111.919 112.378C110.88 113.802 109.757 114.924 108.571 115.697C108.119 115.992 107.658 116.234 107.19 116.424C106.398 116.744 105.585 116.921 104.753 116.921C103.353 116.921 102.002 116.441 100.724 115.557C98.0375 113.481 95.6873 109.843 93.9054 105.133C93.8966 105.109 93.8878 105.085 93.8789 105.062C93.8666 105.029 93.8542 104.996 93.8424 104.962C93.8272 104.923 93.8128 104.882 93.7984 104.841C93.7884 104.813 93.7784 104.784 93.7682 104.756C93.1867 103.099 92.6728 101.306 92.2351 99.4035C92.493 98.7708 93.1021 97.6977 94.4705 96.7914C95.8349 95.8876 96.8667 95.9145 97.3871 96.0681C97.498 96.1016 97.586 96.137 97.649 96.1744C98.453 98.4656 99.4676 100.335 100.623 101.626C101.754 102.89 103.02 103.599 104.357 103.599C104.997 103.599 105.618 103.425 106.218 103.115L103.545 100.937L107.896 95.5969L110.465 97.6912C112.051 94.0119 113.04 88.9235 113.04 83.2845C113.04 78.3949 112.301 73.9103 111.071 70.405C110.051 67.4968 107.341 62.9696 104.358 62.9696C103.118 62.9696 101.94 63.5826 100.875 64.6773C99.6363 65.948 98.5501 67.8716 97.6949 70.2659C97.1207 71.8732 96.6521 73.6911 96.3108 75.6634C95.9032 78.0182 95.6768 80.5896 95.6768 83.2858C95.6768 85.4365 95.8205 87.5065 96.085 89.4512C96.0338 89.4466 95.9806 89.442 95.9235 89.4374C95.1393 89.3718 93.7846 89.3022 92.8251 89.5011C92.0992 89.6514 91.376 90.057 90.8384 90.4192C90.6468 88.2422 90.5457 85.9891 90.5457 83.6796C90.5457 65.3205 96.906 50.4373 104.752 50.4373C105.525 50.4373 106.283 50.587 107.023 50.8652C107.502 51.0457 107.972 51.2833 108.434 51.5714ZM73.8427 52.3218C81.5878 52.3218 87.8655 58.8173 87.8655 66.8289C87.8655 72.2481 84.9908 76.9703 80.7346 79.4616V97.4026H66.9521V79.4616C62.6959 76.9716 59.8206 72.2488 59.8206 66.8289C59.8206 58.8167 66.0982 52.3218 73.8427 52.3218ZM62.4826 66.8283C62.4826 73.3186 67.569 78.5802 73.8427 78.5802C80.117 78.5802 85.2035 73.3186 85.2035 66.8283C85.2035 60.338 80.117 55.077 73.8427 55.077C67.569 55.077 62.4826 60.338 62.4826 66.8283ZM67.6517 58.5394L74.0999 65.367C75.2616 65.4957 76.1687 66.4703 76.1693 67.6661C76.1693 68.9505 75.1277 69.9914 73.8433 69.9914C72.6285 69.9914 71.6421 69.0575 71.5384 67.8683L71.5292 67.8742L67.059 60.5149L67.6517 58.5394ZM71.8931 99.5411L75.5382 99.5529C75.5581 100.17 75.5431 100.834 75.5277 101.513C75.4498 104.956 75.3628 108.797 79.7761 109.062C83.0529 109.258 84.6994 105.304 86.4882 101.01C88.5143 96.1456 90.7229 90.8432 95.6897 90.6362C98.8177 90.5056 102.16 93.1315 105.986 96.3022L103.818 98.9143C103.365 98.5505 102.883 98.1143 102.375 97.6558L102.375 97.6557C100.498 95.9596 98.283 93.9574 95.985 94.1842C93.0087 94.4771 91.3275 98.2497 89.5262 102.292C87.3637 107.145 85.028 112.386 80.0707 112.461C71.9961 112.584 71.3011 105.651 71.8931 99.5411Z" fill="black"/>
</svg>
