<svg width="200" height="201" viewBox="0 0 200 201" fill="none" xmlns="http://www.w3.org/2000/svg">
<rect x="30.7287" y="31.7135" width="138.54" height="138.54" rx="8.85404" fill="white" stroke="#13141A" stroke-width="1.04165"/>
<rect x="35.4161" y="36.4033" width="129.165" height="129.165" rx="4.16661" fill="#1071AF"/>
<rect x="77.0822" y="98.9014" width="45.8327" height="45.8327" rx="2.0833" fill="white"/>
<rect x="81.2504" y="103.069" width="37.4994" height="18.7497" fill="#1071AF"/>
<path d="M79.1655 146.818H85.4156V150.985C85.4156 152.136 84.4829 153.069 83.3323 153.069H81.2488C80.0982 153.069 79.1655 152.136 79.1655 150.985V146.818Z" fill="white"/>
<path d="M114.582 146.818H120.832V150.985C120.832 152.136 119.899 153.069 118.748 153.069H116.665C115.514 153.069 114.582 152.136 114.582 150.985V146.818Z" fill="white"/>
<circle cx="85.4156" cy="134.318" r="4.16661" fill="#1071AF"/>
<circle cx="114.582" cy="134.318" r="4.16661" fill="#1071AF"/>
<path d="M85.4154 73.902L114.582 73.902L99.9985 48.9023L85.4154 73.902Z" fill="white"/>
<rect width="12.5004" height="18.7505" transform="matrix(1 0 0 -1 93.7487 90.5684)" fill="white"/>
</svg>
