<svg width="200" height="201" viewBox="0 0 200 201" fill="none" xmlns="http://www.w3.org/2000/svg">
<path d="M174.314 170.27H25.6864C18.3215 170.27 13.7368 162.297 17.4754 155.968L91.789 30.1556C95.4728 23.919 104.527 23.9191 108.211 30.1556L182.525 155.968C186.263 162.297 181.679 170.27 174.314 170.27Z" fill="#FF0E00" stroke="black" stroke-width="1.04167"/>
<path d="M25.6864 167.666H174.314C179.681 167.666 182.986 161.87 180.283 157.292L105.969 31.48C103.293 26.9498 96.7071 26.9498 94.0313 31.48L19.7176 157.292C17.014 161.87 20.3189 167.666 25.6864 167.666Z" fill="#FF0E00" stroke="white" stroke-width="4.16667"/>
<path fill-rule="evenodd" clip-rule="evenodd" d="M35.9376 155.168L100 46.4312L164.063 155.168H35.9376Z" fill="white"/>
<path fill-rule="evenodd" clip-rule="evenodd" d="M41.6667 152.04L135.417 113.499L158.333 152.04H41.6667Z" fill="#05081B"/>
<path d="M82.38 129.048L85.4159 127.807L77.7987 109.168L74.7526 110.413L72.3325 115.306L73.7472 118.768L76.1641 114.012L76.225 113.987L82.38 129.048Z" fill="black"/>
<path d="M95.0873 124.232C98.8035 122.713 99.5426 118.085 97.1196 112.156L97.1091 112.13C94.6861 106.201 90.9223 103.428 87.2061 104.947C83.4899 106.465 82.7455 111.081 85.1685 117.01L85.179 117.036C87.602 122.964 91.3711 125.75 95.0873 124.232ZM93.8098 121.106C91.9822 121.853 89.9492 119.865 88.2759 115.77L88.2653 115.744C86.5919 111.649 86.6559 108.82 88.4836 108.073C90.3112 107.326 92.3389 109.301 94.0122 113.396L94.0228 113.421C95.6961 117.516 95.6375 120.359 93.8098 121.106Z" fill="black"/>
<path d="M102.8 110.151C104.902 109.292 105.426 106.892 104.196 103.883L104.19 103.87C102.966 100.873 100.911 99.5269 98.8091 100.386C96.6971 101.249 96.1731 103.649 97.3977 106.646L97.403 106.659C98.6329 109.668 100.688 111.014 102.8 110.151ZM108.008 118.575L109.64 96.1554L107.386 97.0766L105.744 119.5L108.008 118.575ZM101.924 108.007C101.101 108.343 100.248 107.561 99.5251 105.791L99.5198 105.778C98.8019 104.022 98.8629 102.866 99.6853 102.53C100.498 102.198 101.34 102.984 102.058 104.741L102.063 104.754C102.787 106.524 102.736 107.675 101.924 108.007ZM116.585 115.265C118.687 114.407 119.211 112.007 117.981 108.997L117.976 108.984C116.751 105.987 114.696 104.641 112.594 105.5C110.482 106.363 109.958 108.763 111.183 111.76L111.188 111.773C112.418 114.783 114.473 116.129 116.585 115.265ZM115.709 113.121C114.886 113.457 114.034 112.675 113.31 110.906L113.305 110.893C112.587 109.136 112.648 107.981 113.471 107.644C114.283 107.312 115.126 108.099 115.844 109.855L115.849 109.868C116.572 111.638 116.521 112.789 115.709 113.121Z" fill="black"/>
</svg>
