<svg width="200" height="201" viewBox="0 0 200 201" fill="none" xmlns="http://www.w3.org/2000/svg">
<rect x="30.7287" y="12.404" width="138.54" height="101.04" rx="8.85404" fill="white" stroke="#13141A" stroke-width="1.04165"/>
<rect x="30.7287" y="120.736" width="138.54" height="67.7073" rx="8.85404" fill="white" stroke="#13141A" stroke-width="1.04165"/>
<path fill-rule="evenodd" clip-rule="evenodd" d="M63.3708 46.2596H136.626C138.832 46.2596 140.906 47.3075 142.215 49.0829L150.726 60.6253C151.606 61.8191 152.081 63.2633 152.081 64.7465V83.2961C152.081 85.853 150.008 87.9257 147.451 87.9257H140.621C140.655 87.5445 140.672 87.1585 140.672 86.7683C140.672 79.737 134.972 74.037 127.941 74.037C120.91 74.037 115.21 79.737 115.21 86.7683C115.21 87.1585 115.227 87.5445 115.262 87.9257H80.1056C80.1399 87.5445 80.1575 87.1585 80.1575 86.7683C80.1575 79.737 74.4575 74.037 67.4262 74.037C60.3949 74.037 54.6949 79.737 54.6949 86.7683C54.6949 87.1585 54.7124 87.5445 54.7468 87.9257H52.5455C49.9886 87.9257 47.9159 85.853 47.9159 83.2961V64.7465C47.9159 63.2633 48.3908 61.8191 49.2709 60.6253L57.7815 49.0829C59.0905 47.3075 61.1651 46.2596 63.3708 46.2596ZM53.1903 62.9478L61.1804 51.7616C61.5715 51.2141 62.2029 50.8892 62.8757 50.8892H71.2942C72.4448 50.8892 73.3775 51.8219 73.3775 52.9725V62.6946C73.3775 63.8452 72.4448 64.7779 71.2942 64.7779H54.1321C53.1907 64.7779 52.6431 63.7138 53.1903 62.9478ZM144.49 62.9478L136.5 51.7616C136.109 51.2141 135.477 50.8892 134.804 50.8892H126.386C125.235 50.8892 124.303 51.8219 124.303 52.9725V62.6946C124.303 63.8452 125.235 64.7779 126.386 64.7779H143.548C144.489 64.7779 145.037 63.7138 144.49 62.9478ZM101.155 52.9725C101.155 51.8219 102.088 50.8892 103.238 50.8892H117.59C118.74 50.8892 119.673 51.8219 119.673 52.9725V62.6946C119.673 63.8452 118.74 64.7779 117.59 64.7779H103.238C102.088 64.7779 101.155 63.8452 101.155 62.6946V52.9725ZM96.5253 52.9725C96.5253 51.8219 95.5926 50.8892 94.442 50.8892H80.0904C78.9398 50.8892 78.0071 51.8219 78.0071 52.9725V62.6946C78.0071 63.8452 78.9398 64.7779 80.0904 64.7779H94.442C95.5926 64.7779 96.5253 63.8452 96.5253 62.6946V52.9725Z" fill="black"/>
<path fill-rule="evenodd" clip-rule="evenodd" d="M67.4262 97.1848C73.1791 97.1848 77.8427 92.5212 77.8427 86.7683C77.8427 81.0154 73.1791 76.3518 67.4262 76.3518C61.6733 76.3518 57.0097 81.0154 57.0097 86.7683C57.0097 92.5212 61.6733 97.1848 67.4262 97.1848ZM67.4262 92.5553C70.6222 92.5553 73.2131 89.9644 73.2131 86.7683C73.2131 83.5723 70.6222 80.9814 67.4262 80.9814C64.2301 80.9814 61.6392 83.5723 61.6392 86.7683C61.6392 89.9644 64.2301 92.5553 67.4262 92.5553Z" fill="black"/>
<path fill-rule="evenodd" clip-rule="evenodd" d="M127.941 97.1848C133.694 97.1848 138.358 92.5212 138.358 86.7683C138.358 81.0154 133.694 76.3518 127.941 76.3518C122.188 76.3518 117.525 81.0154 117.525 86.7683C117.525 92.5212 122.188 97.1848 127.941 97.1848ZM127.941 92.5553C131.137 92.5553 133.728 89.9644 133.728 86.7683C133.728 83.5723 131.137 80.9814 127.941 80.9814C124.745 80.9814 122.154 83.5723 122.154 86.7683C122.154 89.9644 124.745 92.5553 127.941 92.5553Z" fill="black"/>
<path d="M59.0445 151.756V136.844H63.8764C65.7074 136.844 66.901 136.918 67.4571 137.067C68.3115 137.291 69.027 137.779 69.6034 138.532C70.1799 139.278 70.4681 140.244 70.4681 141.431C70.4681 142.347 70.3019 143.116 69.9696 143.74C69.6373 144.364 69.2135 144.856 68.6981 145.215C68.1895 145.568 67.6707 145.802 67.1417 145.917C66.4229 146.06 65.3819 146.131 64.0188 146.131H62.0555V151.756H59.0445ZM62.0555 139.366V143.598H63.7035C64.8902 143.598 65.6837 143.52 66.0838 143.364C66.4839 143.208 66.7959 142.964 67.0196 142.632C67.2502 142.299 67.3655 141.913 67.3655 141.472C67.3655 140.929 67.2061 140.482 66.8874 140.129C66.5687 139.777 66.1652 139.556 65.6769 139.468C65.3175 139.4 64.5952 139.366 63.5102 139.366H62.0555ZM71.7295 146.202C71.7295 145.253 71.9634 144.334 72.4314 143.445C72.8993 142.557 73.5605 141.879 74.415 141.411C75.2762 140.943 76.2358 140.709 77.2937 140.709C78.9281 140.709 80.2675 141.241 81.3118 142.306C82.3562 143.364 82.8784 144.703 82.8784 146.324C82.8784 147.959 82.3494 149.315 81.2915 150.393C80.2403 151.465 78.9145 152 77.3141 152C76.324 152 75.378 151.777 74.476 151.329C73.5808 150.881 72.8993 150.227 72.4314 149.366C71.9634 148.498 71.7295 147.443 71.7295 146.202ZM74.6591 146.355C74.6591 147.426 74.9134 148.247 75.422 148.816C75.9306 149.386 76.5579 149.671 77.3039 149.671C78.0499 149.671 78.6738 149.386 79.1756 148.816C79.6843 148.247 79.9386 147.419 79.9386 146.334C79.9386 145.276 79.6843 144.463 79.1756 143.893C78.6738 143.323 78.0499 143.038 77.3039 143.038C76.5579 143.038 75.9306 143.323 75.422 143.893C74.9134 144.463 74.6591 145.283 74.6591 146.355ZM87.751 147.321V145.46C88.246 145.46 88.6054 145.429 88.8292 145.368C89.053 145.3 89.2632 145.144 89.4599 144.9C89.6634 144.649 89.7651 144.364 89.7651 144.046C89.7651 143.706 89.6396 143.395 89.3887 143.11C89.1446 142.818 88.775 142.672 88.2799 142.672C87.9001 142.672 87.5611 142.754 87.2627 142.916C86.9643 143.079 86.693 143.466 86.4489 144.076L84.0279 143.557C84.272 142.608 84.7942 141.896 85.5944 141.421C86.3946 140.946 87.3068 140.709 88.3308 140.709C89.6328 140.709 90.6399 141.007 91.352 141.604C92.0708 142.201 92.4302 142.95 92.4302 143.852C92.4302 144.415 92.2743 144.883 91.9623 145.256C91.6571 145.622 91.1723 145.965 90.5077 146.283C91.3079 146.5 91.9047 146.829 92.298 147.27C92.6981 147.711 92.8982 148.26 92.8982 148.918C92.8982 149.759 92.5048 150.485 91.7182 151.095C90.9315 151.699 89.799 152 88.3206 152C85.7436 152 84.1669 150.993 83.5904 148.979L86.2047 148.501C86.6252 149.559 87.3203 150.088 88.2901 150.088C88.8258 150.088 89.2531 149.949 89.5718 149.671C89.8973 149.386 90.0601 149.054 90.0601 148.674C90.0601 148.254 89.8905 147.925 89.5515 147.687C89.2192 147.443 88.7818 147.321 88.2392 147.321H87.751ZM95.0852 140.953H97.9335V145.368C98.4082 145.314 98.7439 145.168 98.9406 144.931C99.1372 144.693 99.3746 144.174 99.6526 143.374C100.019 142.309 100.419 141.628 100.853 141.33C101.287 141.031 101.857 140.882 102.562 140.882C102.779 140.882 103.155 140.899 103.691 140.933L103.701 142.825C102.948 142.825 102.467 142.896 102.257 143.038C102.047 143.188 101.819 143.632 101.575 144.371C101.243 145.368 100.765 145.982 100.141 146.212C101.043 146.463 101.806 147.246 102.43 148.562C102.464 148.63 102.501 148.701 102.542 148.776L104.139 151.756H101.067L99.6425 148.633C99.3508 148.003 99.0965 147.599 98.8795 147.423C98.6693 147.24 98.354 147.148 97.9335 147.148V151.756H95.0852V140.953ZM106.672 140.953H116.244V151.756H113.396V143.272H109.499V148.125C109.499 149.359 109.357 150.227 109.072 150.729C108.787 151.224 108.472 151.549 108.126 151.705C107.78 151.861 107.224 151.939 106.458 151.939C106.004 151.939 105.403 151.878 104.657 151.756V149.651C104.718 149.651 104.878 149.657 105.136 149.671C105.434 149.691 105.665 149.701 105.827 149.701C106.214 149.701 106.451 149.576 106.539 149.325C106.627 149.067 106.672 148.359 106.672 147.199V140.953ZM121.279 144.249L118.685 143.781C118.977 142.737 119.479 141.964 120.191 141.462C120.903 140.96 121.961 140.709 123.364 140.709C124.639 140.709 125.589 140.862 126.213 141.167C126.837 141.465 127.274 141.848 127.525 142.316C127.783 142.777 127.911 143.628 127.911 144.87L127.881 148.206C127.881 149.155 127.925 149.857 128.013 150.312C128.108 150.759 128.281 151.241 128.532 151.756H125.704C125.629 151.566 125.538 151.285 125.429 150.912C125.382 150.742 125.348 150.63 125.328 150.576C124.839 151.051 124.317 151.407 123.761 151.644C123.205 151.882 122.612 152 121.981 152C120.869 152 119.991 151.699 119.346 151.095C118.709 150.491 118.39 149.729 118.39 148.806C118.39 148.196 118.536 147.653 118.828 147.179C119.119 146.697 119.526 146.331 120.048 146.08C120.577 145.822 121.337 145.599 122.327 145.409C123.663 145.158 124.589 144.924 125.104 144.707V144.422C125.104 143.873 124.968 143.483 124.697 143.252C124.426 143.015 123.914 142.896 123.161 142.896C122.652 142.896 122.256 142.998 121.971 143.201C121.686 143.398 121.455 143.747 121.279 144.249ZM125.104 146.568C124.738 146.69 124.158 146.836 123.364 147.006C122.571 147.175 122.052 147.341 121.808 147.504C121.435 147.769 121.249 148.104 121.249 148.511C121.249 148.911 121.398 149.257 121.696 149.549C121.995 149.84 122.374 149.986 122.835 149.986C123.351 149.986 123.843 149.817 124.31 149.478C124.656 149.22 124.884 148.905 124.992 148.532C125.067 148.287 125.104 147.823 125.104 147.138V146.568ZM139.671 151.756H131.492V154.604H129.173V149.417H130.343C130.831 148.874 131.234 148.026 131.553 146.873C131.872 145.721 132.062 143.747 132.123 140.953H140.841V149.417H142V154.604H139.671V151.756ZM138.013 149.417L138.023 143.303H134.564C134.449 146.287 133.974 148.325 133.14 149.417H138.013ZM77.5277 160.953H80.1929V162.54C80.5387 161.998 81.0067 161.557 81.5967 161.218C82.1867 160.879 82.8411 160.709 83.5599 160.709C84.8145 160.709 85.8792 161.201 86.7541 162.184C87.6289 163.167 88.0663 164.537 88.0663 166.294C88.0663 168.098 87.6255 169.501 86.7439 170.505C85.8623 171.502 84.7942 172 83.5396 172C82.9428 172 82.4003 171.882 81.912 171.644C81.4305 171.407 80.9219 171 80.3862 170.424V175.866H77.5277V160.953ZM80.3556 166.172C80.3556 167.385 80.5964 168.284 81.0779 168.867C81.5594 169.444 82.146 169.732 82.8377 169.732C83.5023 169.732 84.055 169.467 84.4958 168.938C84.9366 168.403 85.157 167.528 85.157 166.314C85.157 165.181 84.9298 164.341 84.4754 163.791C84.0211 163.242 83.4582 162.967 82.7868 162.967C82.0883 162.967 81.5085 163.239 81.0474 163.781C80.5862 164.317 80.3556 165.114 80.3556 166.172ZM88.7072 160.953H91.7487L94.3325 168.623L96.8552 160.953H99.8154L96.0008 171.349L95.3192 173.231C95.0683 173.862 94.8275 174.343 94.597 174.676C94.3732 175.008 94.1121 175.276 93.8137 175.479C93.5221 175.69 93.1593 175.852 92.7252 175.968C92.298 176.083 91.8131 176.141 91.2706 176.141C90.7213 176.141 90.1822 176.083 89.6532 175.968L89.3989 173.73C89.8465 173.818 90.25 173.862 90.6094 173.862C91.274 173.862 91.7657 173.665 92.0844 173.272C92.4031 172.885 92.6473 172.39 92.8168 171.787L88.7072 160.953ZM100.548 171.756L104.444 166.192L100.711 160.953H104.2L106.112 163.923L108.126 160.953H111.483L107.821 166.07L111.819 171.756H108.309L106.112 168.41L103.895 171.756H100.548ZM112.429 160.953H115.471L118.054 168.623L120.577 160.953H123.537L119.723 171.349L119.041 173.231C118.79 173.862 118.55 174.343 118.319 174.676C118.095 175.008 117.834 175.276 117.536 175.479C117.244 175.69 116.881 175.852 116.447 175.968C116.02 176.083 115.535 176.141 114.993 176.141C114.443 176.141 113.904 176.083 113.375 175.968L113.121 173.73C113.568 173.818 113.972 173.862 114.331 173.862C114.996 173.862 115.488 173.665 115.806 173.272C116.125 172.885 116.369 172.39 116.539 171.787L112.429 160.953Z" fill="black"/>
<path d="M70.8323 48.3429L102.08 25.4248" stroke="black" stroke-width="3.12495" stroke-linecap="round"/>
</svg>
