<svg width="200" height="201" viewBox="0 0 200 201" fill="none" xmlns="http://www.w3.org/2000/svg">
<rect x="0.520833" y="-0.520833" width="184.375" height="180.208" rx="8.85417" transform="matrix(-1 0 0 1 192.708 10.75)" fill="white" stroke="#13141A" stroke-width="1.04167"/>
<rect width="175" height="170.833" rx="4.16667" transform="matrix(-1 0 0 1 187.5 14.9163)" fill="#1071AF"/>
<path d="M98.3853 28.3371V34.6847C98.8872 34.644 99.267 34.4575 99.5247 34.1252C99.7824 33.7929 100.138 33.0334 100.593 31.8466C101.19 30.2936 101.8 29.3035 102.424 28.8762C103.041 28.4558 104.068 28.2455 105.506 28.2455C105.574 28.2455 105.72 28.2421 105.944 28.2353V30.4631L105.506 30.453C104.896 30.453 104.448 30.531 104.163 30.6869C103.879 30.8361 103.648 31.0667 103.472 31.3787C103.295 31.6906 103.034 32.3315 102.688 33.3013C102.505 33.8167 102.305 34.2473 102.088 34.5932C101.878 34.939 101.502 35.2646 100.959 35.5697C101.63 35.7664 102.183 36.153 102.617 36.7294C103.058 37.2991 103.539 38.1095 104.062 39.1606L106.096 43.25H102.556L100.766 39.3946C100.745 39.3404 100.688 39.2352 100.593 39.0793C100.539 38.9775 100.416 38.7436 100.227 38.3774C99.8468 37.6653 99.5348 37.2109 99.2907 37.0142C99.0466 36.8176 98.7448 36.7192 98.3853 36.7192V43.25H95.4455V36.7192C95.0996 36.7192 94.8012 36.8142 94.5503 37.0041C94.2994 37.194 93.9874 37.6517 93.6144 38.3774C93.4042 38.7843 93.2787 39.0182 93.238 39.0793C93.177 39.181 93.1194 39.2861 93.0651 39.3946L91.2747 43.25H87.7347L89.7692 39.1606C90.2711 38.1502 90.7424 37.3499 91.1832 36.7599C91.6308 36.1631 92.197 35.7664 92.882 35.5697C92.3395 35.2646 91.9597 34.9424 91.7427 34.6034C91.5324 34.2575 91.3324 33.8235 91.1425 33.3013C90.8034 32.3518 90.5457 31.7177 90.3694 31.399C90.1998 31.0803 89.9693 30.8429 89.6777 30.6869C89.3928 30.531 88.9249 30.453 88.2738 30.453C88.1925 30.453 88.0636 30.4564 87.8873 30.4631V28.2353C88.1111 28.2421 88.2569 28.2455 88.3247 28.2455C89.7828 28.2455 90.8204 28.4591 91.4375 28.8864C92.0479 29.3204 92.648 30.3072 93.238 31.8466C93.6992 33.0402 94.0552 33.8031 94.3062 34.1354C94.5639 34.4609 94.9436 34.644 95.4455 34.6847V28.3371H98.3853ZM110.236 35.7427L107.642 35.2747C107.934 34.2304 108.436 33.4572 109.148 32.9554C109.86 32.4536 110.918 32.2026 112.322 32.2026C113.597 32.2026 114.546 32.3552 115.17 32.6604C115.794 32.9588 116.231 33.342 116.482 33.8099C116.74 34.271 116.869 35.1222 116.869 36.3632L116.838 39.6998C116.838 40.6492 116.882 41.3511 116.971 41.8055C117.065 42.2531 117.238 42.7346 117.489 43.25H114.661C114.587 43.0601 114.495 42.7787 114.387 42.4057C114.339 42.2361 114.305 42.1242 114.285 42.07C113.797 42.5447 113.275 42.9007 112.718 43.1381C112.162 43.3755 111.569 43.4941 110.938 43.4941C109.826 43.4941 108.948 43.1924 108.304 42.5888C107.666 41.9852 107.347 41.2223 107.347 40.3C107.347 39.6896 107.493 39.1471 107.785 38.6724C108.076 38.1909 108.483 37.8247 109.005 37.5737C109.534 37.316 110.294 37.0922 111.284 36.9023C112.62 36.6514 113.546 36.4175 114.061 36.2004V35.9156C114.061 35.3663 113.926 34.9763 113.654 34.7458C113.383 34.5084 112.871 34.3897 112.118 34.3897C111.61 34.3897 111.213 34.4915 110.928 34.6949C110.643 34.8916 110.413 35.2408 110.236 35.7427ZM114.061 38.062C113.695 38.1841 113.115 38.3299 112.322 38.4994C111.528 38.669 111.009 38.8351 110.765 38.9979C110.392 39.2624 110.206 39.5981 110.206 40.005C110.206 40.4051 110.355 40.7509 110.653 41.0426C110.952 41.3342 111.332 41.48 111.793 41.48C112.308 41.48 112.8 41.3104 113.268 40.9714C113.614 40.7136 113.841 40.3983 113.949 40.0253C114.024 39.7812 114.061 39.3166 114.061 38.6317V38.062ZM119.626 32.4468H122.25V40.9408H125.566V32.4468H128.201V40.9408H131.507V32.4468H134.142V43.25H119.626V32.4468ZM136.96 32.4468H139.808V36.8617C140.283 36.8074 140.618 36.6616 140.815 36.4242C141.012 36.1869 141.249 35.6681 141.527 34.8678C141.893 33.8031 142.293 33.1216 142.727 32.8232C143.161 32.5248 143.731 32.3756 144.436 32.3756C144.653 32.3756 145.03 32.3925 145.566 32.4264L145.576 34.3185C144.823 34.3185 144.341 34.3897 144.131 34.5321C143.921 34.6813 143.694 35.1255 143.45 35.8647C143.117 36.8617 142.639 37.4754 142.015 37.706C142.917 37.9569 143.68 38.7402 144.304 40.0558C144.338 40.1236 144.375 40.1949 144.416 40.2694L146.013 43.25H142.941L141.517 40.127C141.225 39.4963 140.971 39.0928 140.754 38.9165C140.544 38.7334 140.228 38.6418 139.808 38.6418V43.25H136.96V32.4468ZM147.508 30.9819V28.3371H150.367V30.9819H147.508ZM147.508 43.25V32.4468H150.367V43.25H147.508ZM153.337 32.4468H159.593C160.875 32.4468 161.835 32.6807 162.472 33.1487C163.11 33.6166 163.428 34.3219 163.428 35.2646C163.428 35.8681 163.252 36.3937 162.9 36.8413C162.554 37.2889 162.116 37.5873 161.587 37.7365C162.333 37.9196 162.889 38.2621 163.256 38.7639C163.622 39.2658 163.805 39.8151 163.805 40.4119C163.805 41.2528 163.496 41.9377 162.879 42.4667C162.262 42.9889 161.35 43.25 160.143 43.25H153.337V32.4468ZM156.216 36.9329H158.057C158.946 36.9329 159.587 36.821 159.98 36.5972C160.38 36.3734 160.58 36.0207 160.58 35.5392C160.58 35.0849 160.394 34.7627 160.021 34.5728C159.654 34.3762 159 34.2778 158.057 34.2778H156.216V36.9329ZM156.216 41.4189H158.474C159.288 41.4189 159.882 41.3206 160.255 41.1239C160.628 40.9273 160.814 40.5746 160.814 40.066C160.814 39.537 160.601 39.1742 160.173 38.9775C159.746 38.7741 158.915 38.6724 157.681 38.6724H156.216V41.4189Z" fill="white"/>
<path d="M87.6798 65.3336V63.1608L93.946 55.4215H88.3878V53.4033H97.1199V55.275L90.585 63.3235H97.3722V65.3336H87.6798ZM101.164 53.4033V57.7897C101.902 56.927 102.784 56.4957 103.809 56.4957C104.336 56.4957 104.81 56.5934 105.233 56.7887C105.657 56.984 105.974 57.2336 106.186 57.5374C106.403 57.8412 106.549 58.1776 106.625 58.5465C106.706 58.9154 106.747 59.4878 106.747 60.2636V65.3336H104.46V60.7682C104.46 59.8622 104.417 59.2871 104.33 59.0429C104.243 58.7988 104.089 58.6062 103.866 58.4651C103.649 58.3186 103.375 58.2454 103.044 58.2454C102.665 58.2454 102.325 58.3376 102.027 58.5221C101.729 58.7066 101.509 58.986 101.368 59.3603C101.232 59.7292 101.164 60.2772 101.164 61.0042V65.3336H98.8777V53.4033H101.164ZM110.784 59.3278L108.708 58.9534C108.942 58.1179 109.343 57.4994 109.913 57.0979C110.483 56.6965 111.329 56.4957 112.452 56.4957C113.472 56.4957 114.231 56.6178 114.731 56.8619C115.23 57.1007 115.58 57.4072 115.78 57.7815C115.987 58.1505 116.09 58.8313 116.09 59.8242L116.065 62.4934C116.065 63.253 116.1 63.8145 116.171 64.178C116.247 64.5361 116.385 64.9213 116.586 65.3336H114.324C114.264 65.1817 114.191 64.9566 114.104 64.6582C114.066 64.5225 114.039 64.433 114.023 64.3896C113.632 64.7694 113.214 65.0542 112.769 65.2441C112.324 65.434 111.85 65.5289 111.345 65.5289C110.455 65.5289 109.753 65.2875 109.237 64.8046C108.727 64.3218 108.472 63.7114 108.472 62.9736C108.472 62.4853 108.589 62.0513 108.822 61.6715C109.056 61.2863 109.381 60.9933 109.799 60.7926C110.222 60.5864 110.83 60.4074 111.622 60.2555C112.691 60.0548 113.431 59.8676 113.844 59.694V59.4661C113.844 59.0267 113.735 58.7147 113.518 58.5302C113.301 58.3403 112.891 58.2454 112.289 58.2454C111.882 58.2454 111.565 58.3268 111.337 58.4895C111.109 58.6469 110.925 58.9263 110.784 59.3278ZM113.844 61.1832C113.551 61.2809 113.087 61.3975 112.452 61.5332C111.817 61.6688 111.402 61.8017 111.207 61.9319C110.908 62.1435 110.759 62.4121 110.759 62.7376C110.759 63.0577 110.879 63.3344 111.117 63.5677C111.356 63.801 111.66 63.9176 112.029 63.9176C112.441 63.9176 112.834 63.782 113.209 63.5107C113.485 63.3045 113.667 63.0523 113.754 62.7539C113.814 62.5586 113.844 62.1869 113.844 61.639V61.1832ZM117.546 62.8678L119.841 62.5179C119.939 62.9627 120.137 63.3018 120.435 63.5351C120.734 63.763 121.151 63.8769 121.689 63.8769C122.28 63.8769 122.725 63.7684 123.023 63.5514C123.224 63.3995 123.324 63.196 123.324 62.941C123.324 62.7674 123.27 62.6237 123.162 62.5097C123.048 62.4012 122.793 62.3008 122.397 62.2086C120.552 61.8017 119.383 61.4301 118.889 61.0937C118.205 60.6271 117.864 59.9788 117.864 59.1487C117.864 58.4 118.159 57.7707 118.751 57.2607C119.342 56.7507 120.259 56.4957 121.501 56.4957C122.684 56.4957 123.563 56.6883 124.138 57.0735C124.713 57.4587 125.109 58.0284 125.326 58.7825L123.17 59.1813C123.077 58.8449 122.901 58.5872 122.641 58.4082C122.386 58.2291 122.02 58.1396 121.542 58.1396C120.94 58.1396 120.509 58.2237 120.248 58.3919C120.075 58.5112 119.988 58.6659 119.988 58.8558C119.988 59.0185 120.064 59.1569 120.216 59.2708C120.422 59.4227 121.132 59.637 122.348 59.9137C123.568 60.1904 124.42 60.5295 124.903 60.9309C125.381 61.3378 125.619 61.9048 125.619 62.6318C125.619 63.4239 125.288 64.1048 124.626 64.6744C123.964 65.2441 122.985 65.5289 121.689 65.5289C120.511 65.5289 119.578 65.2902 118.889 64.8128C118.205 64.3354 117.758 63.687 117.546 62.8678ZM129.908 53.4033V57.7897C130.646 56.927 131.527 56.4957 132.553 56.4957C133.079 56.4957 133.554 56.5934 133.977 56.7887C134.4 56.984 134.718 57.2336 134.929 57.5374C135.146 57.8412 135.293 58.1776 135.369 58.5465C135.45 58.9154 135.491 59.4878 135.491 60.2636V65.3336H133.204V60.7682C133.204 59.8622 133.16 59.2871 133.074 59.0429C132.987 58.7988 132.832 58.6062 132.61 58.4651C132.393 58.3186 132.119 58.2454 131.788 58.2454C131.408 58.2454 131.069 58.3376 130.771 58.5221C130.472 58.7066 130.252 58.986 130.111 59.3603C129.976 59.7292 129.908 60.2772 129.908 61.0042V65.3336H127.621V53.4033H129.908ZM137.737 65.3336V53.4033H140.024V59.7347L142.701 56.691H145.517L142.563 59.8486L145.728 65.3336H143.262L141.09 61.4518L140.024 62.5667V65.3336H137.737ZM147.095 55.5192V53.4033H149.382V55.5192H147.095ZM147.095 65.3336V56.691H149.382V65.3336H147.095ZM154.11 65.3336L150.627 56.691H153.028L154.656 61.1018L155.128 62.5748C155.252 62.2005 155.331 61.9536 155.364 61.8343C155.44 61.5901 155.521 61.346 155.608 61.1018L157.252 56.691H159.604L156.169 65.3336H154.11Z" fill="white"/>
<path d="M87.5007 82.5038H90.8678L94.3468 90.2451L97.3172 82.5038H100.461L95.4251 93.836C94.8758 95.0635 94.3163 95.9994 93.7467 96.6436C93.177 97.2811 92.4412 97.5999 91.5392 97.5999C90.6508 97.5999 89.9557 97.5422 89.4539 97.4269V95.189C89.8811 95.2161 90.2677 95.2297 90.6135 95.2297C91.312 95.2297 91.8105 95.1042 92.1089 94.8533C92.4141 94.5956 92.7057 94.0463 92.9837 93.2053L87.5007 82.5038ZM101 86.6135H104.54L107.225 94.1412L109.931 86.6135H113.461V97.4167H111.03V90.3062L108.395 97.4167H105.954L103.441 90.3062V97.4167H101V86.6135ZM118.191 89.9094L115.597 89.4415C115.889 88.3971 116.391 87.624 117.103 87.1222C117.815 86.6203 118.873 86.3694 120.277 86.3694C121.552 86.3694 122.501 86.522 123.125 86.8271C123.749 87.1255 124.186 87.5087 124.437 87.9766C124.695 88.4378 124.824 89.2889 124.824 90.5299L124.793 93.8665C124.793 94.816 124.837 95.5179 124.925 95.9722C125.02 96.4198 125.193 96.9013 125.444 97.4167H122.616C122.542 97.2269 122.45 96.9454 122.342 96.5724C122.294 96.4029 122.26 96.291 122.24 96.2367C121.752 96.7115 121.229 97.0675 120.673 97.3049C120.117 97.5422 119.524 97.6609 118.893 97.6609C117.781 97.6609 116.903 97.3591 116.258 96.7555C115.621 96.152 115.302 95.389 115.302 94.4667C115.302 93.8564 115.448 93.3138 115.74 92.8391C116.031 92.3576 116.438 91.9914 116.96 91.7405C117.489 91.4828 118.249 91.259 119.239 91.0691C120.575 90.8182 121.501 90.5842 122.016 90.3672V90.0824C122.016 89.533 121.88 89.1431 121.609 88.9125C121.338 88.6752 120.826 88.5565 120.073 88.5565C119.565 88.5565 119.168 88.6582 118.883 88.8617C118.598 89.0583 118.368 89.4076 118.191 89.9094ZM122.016 92.2288C121.65 92.3508 121.07 92.4966 120.277 92.6662C119.483 92.8357 118.964 93.0019 118.72 93.1646C118.347 93.4291 118.161 93.7648 118.161 94.1717C118.161 94.5718 118.31 94.9177 118.608 95.2093C118.907 95.5009 119.286 95.6467 119.748 95.6467C120.263 95.6467 120.755 95.4772 121.223 95.1381C121.569 94.8804 121.796 94.565 121.904 94.1921C121.979 93.9479 122.016 93.4834 122.016 92.7984V92.2288ZM127.54 86.6135H130.398V90.5706H134.488V86.6135H137.356V97.4167H134.488V92.8798H130.398V97.4167H127.54V86.6135ZM140.306 86.6135H143.165V91.0996H146.033C147.159 91.0996 148.024 91.181 148.627 91.3437C149.231 91.5065 149.733 91.8592 150.133 92.4017C150.533 92.9374 150.733 93.5614 150.733 94.2734C150.733 95.3178 150.374 96.1045 149.655 96.6335C148.943 97.1557 147.871 97.4167 146.44 97.4167H140.306V86.6135ZM143.165 95.606H145.83C146.664 95.606 147.197 95.4704 147.427 95.1991C147.664 94.9279 147.783 94.6057 147.783 94.2327C147.783 93.7106 147.58 93.3511 147.173 93.1545C146.773 92.9578 146.057 92.8595 145.026 92.8595H143.165V95.606Z" fill="white"/>
<path d="M88.697 107.57H91.1059V114.032C91.1059 115.057 91.1357 115.722 91.1954 116.025C91.2985 116.514 91.5426 116.907 91.9278 117.205C92.3184 117.498 92.8501 117.645 93.5229 117.645C94.2065 117.645 94.7219 117.507 95.0691 117.23C95.4163 116.948 95.6252 116.603 95.6957 116.196C95.7662 115.789 95.8015 115.114 95.8015 114.17V107.57H98.2104V113.836C98.2104 115.269 98.1453 116.28 98.0151 116.872C97.8848 117.463 97.6434 117.962 97.2908 118.369C96.9435 118.776 96.477 119.102 95.891 119.346C95.3051 119.584 94.5401 119.704 93.5961 119.704C92.4568 119.704 91.5914 119.574 91.0001 119.313C90.4141 119.047 89.9503 118.706 89.6085 118.288C89.2667 117.865 89.0415 117.422 88.933 116.961C88.7757 116.278 88.697 115.269 88.697 113.934V107.57ZM100.57 110.858H102.678V112.038C103.432 111.121 104.33 110.662 105.372 110.662C105.925 110.662 106.405 110.776 106.812 111.004C107.219 111.232 107.553 111.577 107.813 112.038C108.193 111.577 108.603 111.232 109.042 111.004C109.482 110.776 109.951 110.662 110.45 110.662C111.085 110.662 111.622 110.793 112.061 111.053C112.501 111.308 112.829 111.685 113.046 112.184C113.203 112.553 113.282 113.15 113.282 113.975V119.5H110.995V114.561C110.995 113.703 110.917 113.15 110.759 112.9C110.548 112.575 110.222 112.412 109.783 112.412C109.463 112.412 109.161 112.51 108.879 112.705C108.597 112.9 108.394 113.188 108.269 113.568C108.144 113.942 108.082 114.536 108.082 115.35V119.5H105.795V114.764C105.795 113.923 105.754 113.381 105.673 113.136C105.592 112.892 105.464 112.711 105.29 112.591C105.122 112.472 104.892 112.412 104.599 112.412C104.246 112.412 103.929 112.507 103.647 112.697C103.364 112.887 103.161 113.161 103.036 113.519C102.917 113.877 102.857 114.471 102.857 115.301V119.5H100.57V110.858ZM117.278 113.495L115.203 113.12C115.436 112.285 115.837 111.666 116.407 111.265C116.977 110.863 117.823 110.662 118.946 110.662C119.966 110.662 120.726 110.785 121.225 111.029C121.724 111.267 122.074 111.574 122.274 111.948C122.481 112.317 122.584 112.998 122.584 113.991L122.559 116.66C122.559 117.42 122.595 117.981 122.665 118.345C122.741 118.703 122.879 119.088 123.08 119.5H120.818C120.758 119.348 120.685 119.123 120.598 118.825C120.56 118.689 120.533 118.6 120.517 118.556C120.126 118.936 119.708 119.221 119.263 119.411C118.819 119.601 118.344 119.696 117.839 119.696C116.95 119.696 116.247 119.454 115.732 118.971C115.222 118.489 114.967 117.878 114.967 117.14C114.967 116.652 115.083 116.218 115.316 115.838C115.55 115.453 115.875 115.16 116.293 114.959C116.716 114.753 117.324 114.574 118.116 114.422C119.185 114.222 119.925 114.034 120.338 113.861V113.633C120.338 113.193 120.229 112.881 120.012 112.697C119.795 112.507 119.385 112.412 118.783 112.412C118.376 112.412 118.059 112.494 117.831 112.656C117.603 112.814 117.419 113.093 117.278 113.495ZM120.338 115.35C120.045 115.448 119.581 115.564 118.946 115.7C118.311 115.836 117.896 115.968 117.701 116.099C117.403 116.31 117.253 116.579 117.253 116.904C117.253 117.224 117.373 117.501 117.611 117.734C117.85 117.968 118.154 118.084 118.523 118.084C118.935 118.084 119.329 117.949 119.703 117.677C119.98 117.471 120.161 117.219 120.248 116.921C120.308 116.725 120.338 116.354 120.338 115.806V115.35ZM132.707 119.5H130.421V115.09C130.421 114.156 130.372 113.554 130.274 113.283C130.177 113.006 130.016 112.792 129.794 112.64C129.577 112.488 129.314 112.412 129.005 112.412C128.609 112.412 128.253 112.521 127.939 112.738C127.624 112.955 127.407 113.242 127.288 113.6C127.174 113.958 127.117 114.62 127.117 115.586V119.5H124.83V110.858H126.954V112.127C127.708 111.151 128.657 110.662 129.802 110.662C130.307 110.662 130.768 110.755 131.186 110.939C131.603 111.118 131.918 111.349 132.13 111.631C132.347 111.913 132.496 112.233 132.577 112.591C132.664 112.949 132.707 113.462 132.707 114.129V119.5Z" fill="white"/>
<path d="M88.4061 144.218C88.4061 142.699 88.6333 141.424 89.0876 140.393C89.4267 139.634 89.8879 138.952 90.4711 138.349C91.0611 137.745 91.7054 137.298 92.4039 137.006C93.333 136.613 94.4045 136.416 95.6184 136.416C97.8157 136.416 99.5721 137.098 100.888 138.461C102.21 139.824 102.871 141.719 102.871 144.147C102.871 146.555 102.217 148.44 100.908 149.803C99.5993 151.159 97.8496 151.838 95.6591 151.838C93.4415 151.838 91.6783 151.163 90.3694 149.813C89.0605 148.457 88.4061 146.592 88.4061 144.218ZM91.5087 144.117C91.5087 145.805 91.8987 147.087 92.6785 147.962C93.4584 148.83 94.4486 149.264 95.6489 149.264C96.8493 149.264 97.8326 148.833 98.599 147.972C99.3721 147.104 99.7586 145.805 99.7586 144.076C99.7586 142.367 99.3822 141.092 98.6295 140.251C97.8835 139.41 96.89 138.99 95.6489 138.99C94.4079 138.99 93.4076 139.417 92.648 140.271C91.8885 141.119 91.5087 142.401 91.5087 144.117ZM113.614 151.583H105.435V154.432H103.116V149.244H104.285C104.774 148.701 105.177 147.853 105.496 146.7C105.815 145.548 106.005 143.574 106.066 140.78H114.783V149.244H115.943V154.432H113.614V151.583ZM111.955 149.244L111.966 143.13H108.507C108.392 146.114 107.917 148.152 107.083 149.244H111.955ZM124.163 148.145L127.011 148.623C126.645 149.667 126.065 150.464 125.271 151.014C124.485 151.556 123.498 151.827 122.311 151.827C120.433 151.827 119.042 151.214 118.14 149.986C117.428 149.003 117.072 147.762 117.072 146.263C117.072 144.473 117.54 143.072 118.476 142.062C119.412 141.045 120.595 140.536 122.026 140.536C123.634 140.536 124.902 141.068 125.831 142.133C126.76 143.191 127.204 144.815 127.163 147.006H120.002C120.022 147.853 120.253 148.515 120.694 148.989C121.134 149.457 121.684 149.691 122.342 149.691C122.789 149.691 123.166 149.569 123.471 149.325C123.776 149.081 124.007 148.687 124.163 148.145ZM124.325 145.256C124.305 144.429 124.091 143.801 123.684 143.374C123.278 142.94 122.782 142.723 122.199 142.723C121.575 142.723 121.06 142.95 120.653 143.405C120.246 143.859 120.046 144.476 120.053 145.256H124.325ZM138.638 143.974L135.82 144.483C135.725 143.92 135.508 143.496 135.169 143.211C134.837 142.926 134.403 142.784 133.867 142.784C133.155 142.784 132.585 143.032 132.158 143.527C131.738 144.015 131.527 144.835 131.527 145.988C131.527 147.27 131.741 148.175 132.168 148.704C132.602 149.233 133.182 149.498 133.908 149.498C134.45 149.498 134.895 149.345 135.24 149.04C135.586 148.728 135.83 148.196 135.973 147.443L138.78 147.921C138.489 149.21 137.929 150.183 137.102 150.841C136.275 151.498 135.166 151.827 133.776 151.827C132.195 151.827 130.934 151.329 129.991 150.332C129.056 149.335 128.588 147.955 128.588 146.192C128.588 144.408 129.059 143.021 130.002 142.031C130.944 141.034 132.219 140.536 133.826 140.536C135.142 140.536 136.186 140.821 136.96 141.39C137.739 141.953 138.299 142.815 138.638 143.974ZM143.216 144.076L140.622 143.608C140.913 142.564 141.415 141.79 142.127 141.289C142.839 140.787 143.897 140.536 145.301 140.536C146.576 140.536 147.525 140.688 148.149 140.994C148.773 141.292 149.211 141.675 149.462 142.143C149.719 142.604 149.848 143.455 149.848 144.696L149.818 148.033C149.818 148.982 149.862 149.684 149.95 150.139C150.045 150.586 150.218 151.068 150.469 151.583H147.641C147.566 151.393 147.475 151.112 147.366 150.739C147.319 150.569 147.285 150.457 147.264 150.403C146.776 150.878 146.254 151.234 145.698 151.471C145.142 151.709 144.548 151.827 143.918 151.827C142.805 151.827 141.927 151.526 141.283 150.922C140.645 150.318 140.327 149.556 140.327 148.633C140.327 148.023 140.472 147.48 140.764 147.006C141.056 146.524 141.463 146.158 141.985 145.907C142.514 145.649 143.273 145.425 144.263 145.236C145.599 144.985 146.525 144.751 147.041 144.534V144.249C147.041 143.7 146.905 143.31 146.634 143.079C146.362 142.842 145.85 142.723 145.098 142.723C144.589 142.723 144.192 142.825 143.907 143.028C143.623 143.225 143.392 143.574 143.216 144.076ZM147.041 146.395C146.674 146.517 146.094 146.663 145.301 146.833C144.508 147.002 143.989 147.168 143.745 147.331C143.372 147.596 143.185 147.931 143.185 148.338C143.185 148.738 143.334 149.084 143.633 149.376C143.931 149.667 144.311 149.813 144.772 149.813C145.287 149.813 145.779 149.644 146.247 149.305C146.593 149.047 146.82 148.732 146.929 148.359C147.003 148.114 147.041 147.65 147.041 146.965V146.395Z" fill="white"/>
<path d="M88.225 167.774C88.225 166.559 88.4068 165.539 88.7703 164.714C89.0415 164.107 89.4105 163.561 89.877 163.078C90.349 162.596 90.8644 162.238 91.4233 162.004C92.1665 161.69 93.0237 161.532 93.9949 161.532C95.7527 161.532 97.1579 162.077 98.2104 163.168C99.2683 164.258 99.7973 165.775 99.7973 167.717C99.7973 169.643 99.2737 171.151 98.2266 172.242C97.1796 173.327 95.7798 173.869 94.0274 173.869C92.2533 173.869 90.8427 173.33 89.7957 172.25C88.7486 171.165 88.225 169.673 88.225 167.774ZM90.7071 167.693C90.7071 169.044 91.0191 170.069 91.643 170.769C92.2669 171.463 93.059 171.811 94.0193 171.811C94.9796 171.811 95.7662 171.466 96.3793 170.777C96.9978 170.083 97.307 169.044 97.307 167.66C97.307 166.293 97.0059 165.273 96.4037 164.6C95.8069 163.928 95.0121 163.591 94.0193 163.591C93.0264 163.591 92.2262 163.933 91.6186 164.617C91.0109 165.295 90.7071 166.32 90.7071 167.693ZM109.595 173.666H107.471V172.396C107.119 172.89 106.701 173.259 106.218 173.503C105.741 173.742 105.258 173.861 104.77 173.861C103.777 173.861 102.925 173.463 102.214 172.665C101.509 171.862 101.156 170.744 101.156 169.312C101.156 167.847 101.501 166.735 102.19 165.976C102.879 165.211 103.75 164.828 104.802 164.828C105.768 164.828 106.603 165.23 107.309 166.033V161.736H109.595V173.666ZM103.492 169.158C103.492 170.08 103.619 170.747 103.874 171.16C104.243 171.756 104.759 172.055 105.421 172.055C105.947 172.055 106.395 171.832 106.763 171.387C107.132 170.937 107.317 170.267 107.317 169.377C107.317 168.384 107.138 167.671 106.78 167.237C106.422 166.798 105.963 166.578 105.404 166.578C104.862 166.578 104.406 166.795 104.037 167.229C103.674 167.657 103.492 168.3 103.492 169.158ZM116.863 170.915L119.141 171.298C118.848 172.133 118.385 172.771 117.75 173.21C117.12 173.644 116.331 173.861 115.382 173.861C113.879 173.861 112.767 173.37 112.045 172.388C111.475 171.602 111.191 170.609 111.191 169.41C111.191 167.978 111.565 166.857 112.314 166.049C113.062 165.235 114.009 164.828 115.154 164.828C116.44 164.828 117.454 165.254 118.197 166.106C118.941 166.952 119.296 168.252 119.263 170.004H113.534C113.551 170.682 113.735 171.211 114.088 171.591C114.44 171.965 114.88 172.152 115.406 172.152C115.764 172.152 116.065 172.055 116.309 171.859C116.553 171.664 116.738 171.349 116.863 170.915ZM116.993 168.604C116.977 167.942 116.806 167.44 116.48 167.099C116.155 166.751 115.759 166.578 115.292 166.578C114.793 166.578 114.381 166.76 114.055 167.123C113.73 167.487 113.57 167.98 113.575 168.604H116.993ZM120.33 171.2L122.624 170.85C122.722 171.295 122.92 171.634 123.219 171.868C123.517 172.095 123.935 172.209 124.472 172.209C125.063 172.209 125.508 172.101 125.806 171.884C126.007 171.732 126.108 171.528 126.108 171.273C126.108 171.1 126.053 170.956 125.945 170.842C125.831 170.734 125.576 170.633 125.18 170.541C123.335 170.134 122.166 169.762 121.672 169.426C120.989 168.96 120.647 168.311 120.647 167.481C120.647 166.732 120.943 166.103 121.534 165.593C122.125 165.083 123.042 164.828 124.285 164.828C125.467 164.828 126.346 165.021 126.921 165.406C127.496 165.791 127.892 166.361 128.109 167.115L125.953 167.514C125.861 167.177 125.684 166.92 125.424 166.741C125.169 166.562 124.803 166.472 124.325 166.472C123.723 166.472 123.292 166.556 123.031 166.724C122.858 166.844 122.771 166.998 122.771 167.188C122.771 167.351 122.847 167.489 122.999 167.603C123.205 167.755 123.916 167.969 125.131 168.246C126.352 168.523 127.203 168.862 127.686 169.263C128.164 169.67 128.402 170.237 128.402 170.964C128.402 171.756 128.071 172.437 127.41 173.007C126.748 173.576 125.768 173.861 124.472 173.861C123.294 173.861 122.361 173.623 121.672 173.145C120.989 172.668 120.541 172.019 120.33 171.2ZM132.122 167.66L130.046 167.286C130.28 166.45 130.681 165.832 131.251 165.43C131.82 165.029 132.667 164.828 133.79 164.828C134.81 164.828 135.569 164.95 136.068 165.194C136.568 165.433 136.918 165.74 137.118 166.114C137.324 166.483 137.427 167.164 137.427 168.157L137.403 170.826C137.403 171.585 137.438 172.147 137.509 172.51C137.585 172.868 137.723 173.254 137.924 173.666H135.662C135.602 173.514 135.529 173.289 135.442 172.991C135.404 172.855 135.377 172.765 135.36 172.722C134.97 173.102 134.552 173.387 134.107 173.576C133.662 173.766 133.188 173.861 132.683 173.861C131.793 173.861 131.091 173.62 130.575 173.137C130.065 172.654 129.81 172.044 129.81 171.306C129.81 170.818 129.927 170.384 130.16 170.004C130.394 169.619 130.719 169.326 131.137 169.125C131.56 168.919 132.168 168.74 132.96 168.588C134.029 168.387 134.769 168.2 135.181 168.026V167.799C135.181 167.359 135.073 167.047 134.856 166.863C134.639 166.673 134.229 166.578 133.627 166.578C133.22 166.578 132.903 166.659 132.675 166.822C132.447 166.979 132.263 167.259 132.122 167.66ZM135.181 169.516C134.888 169.613 134.425 169.73 133.79 169.866C133.155 170.001 132.74 170.134 132.545 170.264C132.246 170.476 132.097 170.744 132.097 171.07C132.097 171.39 132.216 171.667 132.455 171.9C132.694 172.133 132.998 172.25 133.367 172.25C133.779 172.25 134.172 172.114 134.547 171.843C134.823 171.637 135.005 171.385 135.092 171.086C135.152 170.891 135.181 170.519 135.181 169.971V169.516Z" fill="white"/>
<path d="M25 42.3969C25 41.0272 26.1104 39.9167 27.4802 39.9167H68.3531C69.7229 39.9167 70.8333 41.0272 70.8333 42.3969V60.7501H25V42.3969Z" fill="#FF0E00" stroke="white" stroke-width="1.04167"/>
<path d="M31.25 55.5936V44.9413H34.4689L36.4017 52.2075L38.3127 44.9413H41.5389V55.5936H39.5407V47.2084L37.4263 55.5936H35.3554L33.2482 47.2084V55.5936H31.25Z" fill="white"/>
<path d="M43.4282 52.7525V50.7107H47.4391V52.7525H43.4282Z" fill="white"/>
<path d="M51.6317 44.8977C52.6635 44.8977 53.47 45.2659 54.0513 46.0022C54.7441 46.8741 55.0904 48.3201 55.0904 50.3401C55.0904 52.3553 54.7416 53.8036 54.0441 54.6853C53.4676 55.4119 52.6635 55.7752 51.6317 55.7752C50.5951 55.7752 49.7594 55.378 49.1249 54.5836C48.4903 53.7843 48.173 52.3625 48.173 50.3183C48.173 48.3128 48.5218 46.8693 49.2193 45.9876C49.7958 45.261 50.5999 44.8977 51.6317 44.8977ZM51.6317 46.5907C51.3846 46.5907 51.1642 46.6707 50.9705 46.8305C50.7767 46.9855 50.6265 47.2665 50.52 47.6734C50.3795 48.2014 50.3092 49.0903 50.3092 50.3401C50.3092 51.5899 50.3722 52.4497 50.4982 52.9196C50.6241 53.3846 50.7816 53.6947 50.9705 53.8497C51.1642 54.0047 51.3846 54.0822 51.6317 54.0822C51.8787 54.0822 52.0992 54.0047 52.2929 53.8497C52.4867 53.6898 52.6369 53.4064 52.7434 52.9995C52.8839 52.4764 52.9541 51.5899 52.9541 50.3401C52.9541 49.0903 52.8912 48.2329 52.7652 47.7679C52.6393 47.298 52.4794 46.9855 52.2857 46.8305C52.0967 46.6707 51.8787 46.5907 51.6317 46.5907Z" fill="white"/>
<path d="M56.3911 52.767L58.3675 52.5272C58.4304 53.031 58.6 53.4161 58.8761 53.6825C59.1522 53.949 59.4865 54.0822 59.8788 54.0822C60.3003 54.0822 60.6539 53.9223 60.9397 53.6026C61.2304 53.2829 61.3757 52.8518 61.3757 52.3092C61.3757 51.7958 61.2376 51.3888 60.9615 51.0885C60.6854 50.7882 60.3487 50.638 59.9515 50.638C59.6899 50.638 59.3775 50.6889 59.0142 50.7906L59.2394 49.1266C59.7916 49.1412 60.2131 49.0225 60.5037 48.7706C60.7944 48.5139 60.9397 48.1748 60.9397 47.7533C60.9397 47.3949 60.8331 47.1091 60.62 46.8959C60.4068 46.6828 60.1235 46.5762 59.7698 46.5762C59.4211 46.5762 59.1232 46.6973 58.8761 46.9395C58.6291 47.1817 58.4789 47.5353 58.4256 48.0004L56.5437 47.6807C56.6744 47.0364 56.8706 46.5229 57.1322 46.1402C57.3986 45.7527 57.7668 45.4499 58.2367 45.232C58.7114 45.0091 59.2418 44.8977 59.828 44.8977C60.8307 44.8977 61.6348 45.2174 62.2404 45.8568C62.7393 46.38 62.9888 46.971 62.9888 47.6298C62.9888 48.5647 62.4777 49.3107 61.4556 49.8678C62.066 49.9986 62.5528 50.2916 62.9161 50.747C63.2843 51.2023 63.4683 51.7522 63.4683 52.3964C63.4683 53.3313 63.1268 54.1282 62.4438 54.787C61.7608 55.4458 60.9106 55.7752 59.8934 55.7752C58.9294 55.7752 58.1301 55.4991 57.4955 54.9469C56.8609 54.3898 56.4928 53.6632 56.3911 52.767Z" fill="white"/>
<path d="M25 60.7504H70.8333V79.1035C70.8333 80.4733 69.7229 81.5837 68.3531 81.5837H27.4802C26.1104 81.5837 25 80.4733 25 79.1035V60.7504Z" fill="#00AC5A" stroke="white" stroke-width="1.04167"/>
<path d="M33.3333 76.4262V65.7739H41.2316V67.576H35.484V69.9375H40.832V71.7322H35.484V74.6314H41.4351V76.4262H33.3333Z" fill="white"/>
<path d="M50.9538 76.4262V74.2827H46.5941V72.4952L51.2154 65.7303H52.9302V72.4879H54.2526V74.2827H52.9302V76.4262H50.9538ZM50.9538 72.4879V68.8475L48.5051 72.4879H50.9538Z" fill="white"/>
<path d="M58.685 65.7303C59.7168 65.7303 60.5234 66.0985 61.1047 66.8348C61.7974 67.7068 62.1437 69.1527 62.1437 71.1727C62.1437 73.1879 61.795 74.6363 61.0974 75.5179C60.521 76.2445 59.7168 76.6079 58.685 76.6079C57.6484 76.6079 56.8128 76.2106 56.1782 75.4162C55.5436 74.6169 55.2263 73.1952 55.2263 71.1509C55.2263 69.1455 55.5751 67.7019 56.2727 66.8203C56.8491 66.0937 57.6532 65.7303 58.685 65.7303ZM58.685 67.4234C58.438 67.4234 58.2176 67.5033 58.0238 67.6632C57.83 67.8182 57.6799 68.0991 57.5733 68.506C57.4328 69.034 57.3626 69.9229 57.3626 71.1727C57.3626 72.4225 57.4256 73.2824 57.5515 73.7522C57.6775 74.2173 57.8349 74.5273 58.0238 74.6823C58.2176 74.8373 58.438 74.9148 58.685 74.9148C58.9321 74.9148 59.1525 74.8373 59.3463 74.6823C59.54 74.5225 59.6902 74.2391 59.7968 73.8322C59.9372 73.309 60.0075 72.4225 60.0075 71.1727C60.0075 69.9229 59.9445 69.0655 59.8186 68.6005C59.6926 68.1306 59.5328 67.8182 59.339 67.6632C59.1501 67.5033 58.9321 67.4234 58.685 67.4234Z" fill="white"/>
<path fill-rule="evenodd" clip-rule="evenodd" d="M48.9583 108.666L33.3333 125.212V137.619L44.8877 125.383L44.8877 156.585L53.0311 156.585L53.0311 125.386L64.5833 137.619V125.212L48.9583 108.666Z" fill="white"/>
</svg>
