<svg width="200" height="201" viewBox="0 0 200 201" fill="none" xmlns="http://www.w3.org/2000/svg">
<rect x="1.56254" y="146.688" width="92.7084" height="196.875" rx="8.85417" transform="rotate(-90 1.56254 146.688)" fill="white" stroke="#13141A" stroke-width="1.04167"/>
<rect x="6.77083" y="141.479" width="82.2917" height="186.458" rx="3.64583" transform="rotate(-90 6.77083 141.479)" stroke="black" stroke-width="1.04167"/>
<path d="M6.25 129.499H193.75V137.833C193.75 140.134 191.885 141.999 189.583 141.999H10.4167C8.11548 141.999 6.25 140.134 6.25 137.833V129.499Z" fill="black"/>
<path d="M104.167 116.999H193.75V129.499H104.167V116.999Z" fill="black"/>
<path fill-rule="evenodd" clip-rule="evenodd" d="M62.387 89.6319C61.515 90.3458 60.861 91.5685 60.645 92.2125L58.1279 97.3551L52.835 108.673C52.1986 109.511 52.8605 112.248 53.6234 113.166L57.472 119.368C57.7706 119.878 59.5415 121.103 60.2247 120.925L62.5831 120.511C62.4995 117.318 64.0607 114.114 66.9373 112.4C69.814 110.685 73.2168 110.93 75.9201 112.563C77.9769 113.706 78.8602 115.621 79.8085 117.677L79.9139 117.905C79.9216 117.936 79.9415 117.961 79.9614 117.986C79.9814 118.011 80.0013 118.037 80.0089 118.067L98.0662 113.373L111.581 109.621C110.519 105.775 112.126 101.464 115.653 99.3622C119.849 96.8618 125.254 98.3594 127.752 102.627C127.796 102.703 127.841 102.776 127.886 102.848C127.975 102.989 128.061 103.129 128.135 103.281L129.42 102.515C130.103 102.338 131.166 101.079 130.951 99.9476L129.767 92.9307C129.609 90.7345 127.759 90.1747 126.806 90.2834L111.085 91.3797L107.701 91.5224C106.651 91.4595 104.771 91.3163 104.206 90.7355L94.5267 83.2685C93.5462 82.3634 91.7853 81.3869 89.7522 82.1433L81.1652 84.5044L63.3173 89.1834C62.9958 89.2621 62.6782 89.3949 62.387 89.6319ZM66.4058 91.8711C66.8864 91.516 67.4737 91.3647 68.1424 91.1925C68.3326 91.1435 68.5294 91.0928 68.7322 91.0353L82.8423 87.3697L89.1659 85.5846C90.9659 85.2001 92.6707 86.0688 94.0997 87.1655L98.6425 91.4077C99.9402 92.4697 100.27 95.3193 98.0016 95.8698L89.2526 98.3274L70.0103 103.396C65.8404 104.738 64.2425 101.635 64.6528 98.8701L65.196 94.7981C65.3565 93.153 65.7871 92.3246 66.4058 91.8711Z" fill="black"/>
<path fill-rule="evenodd" clip-rule="evenodd" d="M116.293 100.306C112.697 102.45 111.423 107.229 113.566 110.89C115.709 114.55 120.47 115.736 124.069 113.591C127.666 111.448 128.85 106.718 126.708 103.057C124.565 99.3967 119.89 98.1629 116.293 100.306ZM118.027 103.268C120.03 102.075 122.516 102.81 123.708 104.845C124.899 106.881 124.334 109.435 122.334 110.627C120.334 111.819 117.758 111.137 116.566 109.102C115.375 107.066 116.025 104.462 118.027 103.268Z" fill="black"/>
<path fill-rule="evenodd" clip-rule="evenodd" d="M64.6016 123.92C62.4588 120.259 63.7324 115.48 67.3288 113.337C70.9253 111.193 75.6004 112.427 77.7432 116.088C79.8859 119.749 78.7039 124.477 75.1049 126.622C71.5059 128.767 66.7443 127.581 64.6016 123.92ZM74.7431 117.876C73.5515 115.84 71.0626 115.107 69.0626 116.299C67.0626 117.491 66.41 120.096 67.6016 122.132C68.7932 124.168 71.3695 124.849 73.3696 123.657C75.3696 122.465 75.9363 119.914 74.7431 117.876Z" fill="black"/>
</svg>
