<svg width="200" height="200" viewBox="0 0 200 200" fill="none" xmlns="http://www.w3.org/2000/svg">
<rect x="30.7292" y="30.7292" width="138.542" height="138.542" rx="8.85417" fill="white" stroke="#13141A" stroke-width="1.04167"/>
<rect x="35.4167" y="35.417" width="129.167" height="129.167" rx="4.16667" fill="#1071AF"/>
<path fill-rule="evenodd" clip-rule="evenodd" d="M156.771 144.154C158.383 144.154 159.384 142.402 158.566 141.014L101.795 44.6522C100.989 43.2844 99.0107 43.2844 98.2049 44.6522L41.4337 141.014C40.6155 142.402 41.6167 144.154 43.2287 144.154H156.771Z" fill="white"/>
<path d="M115.03 95.0156C114.409 93.622 114.906 92.2839 116.047 91.8416C117.187 91.3994 118.864 91.7805 119.485 93.1741C120.106 94.5677 119.359 96.296 118.218 96.7382C117.078 97.1804 115.65 96.4091 115.03 95.0156Z" fill="#13141A"/>
<path fill-rule="evenodd" clip-rule="evenodd" d="M108.316 103.628L113.14 95.9662C113.478 95.4293 114.253 95.4102 114.617 95.9297L115.709 97.4881C116.042 97.9635 116.058 98.5923 115.749 99.0836L112.451 104.325L115.812 107.797C115.825 107.81 115.837 107.823 115.85 107.837H121.053L120.467 106.811C120.345 106.597 120.325 106.339 120.413 106.109C120.501 105.879 120.687 105.7 120.921 105.622L122.904 104.961C123.188 104.867 123.364 104.582 123.322 104.285C123.278 103.98 123.016 103.753 122.708 103.753L120.512 103.752L118.645 104.872C118.153 105.307 117.394 105.223 117.01 104.691L115.088 101.497L116.588 99.1436L118.344 102.334L120.817 101.342C121.207 101.185 121.655 101.301 121.92 101.627C122.038 101.771 122.106 101.938 122.128 102.107L122.708 102.108C123.835 102.108 124.791 102.937 124.95 104.053C125.105 105.136 124.463 106.176 123.424 106.522L122.393 106.866L125.245 111.857C126.128 111.477 127.102 111.266 128.124 111.266C132.152 111.266 135.417 114.531 135.417 118.559C135.417 122.586 132.152 125.851 128.124 125.851C124.097 125.851 120.832 122.586 120.832 118.559C120.832 116.143 122.007 114.001 123.817 112.674L123.123 111.459L114.614 119.166C114.517 119.253 114.402 119.316 114.278 119.349C114.199 119.371 114.118 119.381 114.038 119.379H110.023C109.616 123.02 106.527 125.851 102.777 125.851C98.7492 125.851 95.4843 122.586 95.4843 118.559C95.4843 114.531 98.7492 111.266 102.777 111.266C103.978 111.266 105.111 111.557 106.11 112.071L108.55 108.412V106.53H106.596C106.141 106.53 105.773 106.162 105.773 105.708C105.773 105.254 106.141 104.885 106.596 104.885H108.339L108.299 104.849C108.111 104.457 108.117 104.009 108.316 103.628ZM110.195 106.596L111.541 107.837H110.195V106.596ZM116.432 109.482H121.993L122.287 109.997L115.377 116.255L116.41 109.684C116.42 109.617 116.428 109.549 116.432 109.482ZM112.71 113.784L113.203 110.007C113.226 109.827 113.205 109.647 113.144 109.482H110.672L112.71 113.784ZM109.251 110.325L107.479 112.984C108.865 114.155 109.809 115.834 110.023 117.734H112.761L109.251 110.325ZM106.558 114.365C107.511 115.224 108.169 116.404 108.364 117.734H104.312L106.558 114.365ZM102.776 119.379H108.365C107.968 122.109 105.617 124.206 102.777 124.206C99.6577 124.206 97.1293 121.678 97.1293 118.559C97.1293 115.44 99.6577 112.911 102.777 112.911C103.64 112.911 104.458 113.105 105.19 113.452L102.091 118.1C101.923 118.352 101.907 118.677 102.05 118.944C102.194 119.212 102.472 119.379 102.776 119.379ZM126.068 113.297C126.705 113.048 127.399 112.911 128.124 112.911C131.243 112.911 133.772 115.44 133.772 118.559C133.772 121.678 131.243 124.206 128.124 124.206C125.005 124.206 122.477 121.678 122.477 118.559C122.477 116.755 123.323 115.148 124.64 114.114L127.412 118.965C127.637 119.359 128.14 119.496 128.534 119.271C128.929 119.045 129.066 118.543 128.84 118.148L126.068 113.297Z" fill="#13141A"/>
<path d="M145.833 139.582H138.145L130.161 130.208H136.208L145.833 139.582Z" fill="#13141A"/>
<path d="M132.999 127.083H127.5L122.917 121.702H127.473L132.999 127.083Z" fill="#13141A"/>
<path d="M119.957 130.208L125 139.582H116.623L113.369 130.208H119.957Z" fill="#13141A"/>
<path d="M112.285 127.083H118.276L115.381 121.702H110.417L112.285 127.083Z" fill="#13141A"/>
<path d="M103.074 130.208L104.167 139.583H95.8332L96.9256 130.208H103.074Z" fill="#13141A"/>
<path d="M97.2897 127.083H102.71L102.083 121.703H97.9166L97.2897 127.083Z" fill="#13141A"/>
<path d="M86.6305 130.208L83.3765 139.582H74.9999L80.0427 130.208H86.6305Z" fill="#13141A"/>
<path d="M81.7239 127.083H87.7152L89.5832 121.702H84.6188L81.7239 127.083Z" fill="#13141A"/>
<path d="M69.8385 130.208L61.8548 139.582H54.1666L63.7922 130.208H69.8385Z" fill="#13141A"/>
<path d="M67.001 127.083H72.5001L77.0832 121.702H72.5267L67.001 127.083Z" fill="#13141A"/>
<path d="M81.6466 97.7399C79.9802 96.2209 79.8101 94.1165 81.0306 92.8443C82.251 91.5721 84.6784 91.0968 86.3447 92.6157C88.0111 94.1347 88.0939 96.9146 86.8735 98.1868C85.6531 99.4588 83.3128 99.2588 81.6466 97.7399Z" fill="#05081B"/>
<path d="M78.7575 113.529L79.1715 103.742L73.9433 106.189L72.8842 112.894C72.7868 113.489 72.2793 113.938 71.6626 113.976C70.8472 114.026 70.1823 113.349 70.2687 112.557L71.0609 105.098C71.114 104.611 71.3963 104.176 71.8248 103.92L79.8116 99.1492C80.2178 98.7809 80.861 98.745 81.3102 99.1113L83.8509 100.882C84.7064 101.58 85.1808 102.625 85.1348 103.712L84.75 112.808L91.7073 119.979C92.1181 120.379 92.4233 120.87 92.5966 121.41L96.2238 132.718C96.575 133.813 95.9471 134.979 94.8226 135.319C93.6892 135.662 92.4876 135.036 92.1521 133.926L89.1108 123.87C88.9197 123.238 88.5496 122.672 88.043 122.236L79.4843 115.19C78.9977 114.772 78.7307 114.162 78.7575 113.529Z" fill="#05081B"/>
<path d="M82.4804 119.615L78.6317 116.501L69.5963 132.312C68.9661 133.206 69.1885 134.427 70.0957 135.053C70.9871 135.668 72.2184 135.486 72.8842 134.641L82.4804 119.615Z" fill="#05081B"/>
<path d="M86.5595 106.162L86.3671 110.712L91.2864 114.624C91.8468 115.07 92.666 115.016 93.1611 114.502C93.6677 113.975 93.6566 113.152 93.136 112.64L86.5595 106.162Z" fill="#05081B"/>
</svg>
