<svg width="200" height="200" viewBox="0 0 200 200" fill="none" xmlns="http://www.w3.org/2000/svg">
<rect y="16.667" width="200" height="166.667" fill="#68696C"/>
<path d="M134.902 134.902C154.178 115.626 154.178 84.3738 134.902 65.0978C119.513 49.7079 96.4789 46.6007 78.0062 55.7955L71.6173 49.4066L71.4526 49.1134C93.6744 36.6325 122.335 39.8382 141.248 58.7519C164.029 81.5326 164.029 118.467 141.248 141.248C118.468 164.029 81.5329 164.029 58.7522 141.248C35.9715 118.467 35.9715 81.5326 58.7522 58.7519L61.9251 55.579L90.4815 84.1354L96.0341 78.5827L100.793 83.3421L104.76 79.376L112.692 87.3083L108.726 91.2745L121.418 103.966L117.451 107.932L104.76 95.2406L95.2409 104.759L107.933 117.451L103.966 121.417L91.2747 108.726L87.3085 112.692L79.3762 104.759L83.3424 100.793L78.583 96.0339L84.1356 90.4812L62.0674 68.413C45.8814 87.8051 46.8916 116.696 65.098 134.902C84.374 154.178 115.627 154.178 134.902 134.902Z" fill="white"/>
</svg>
