<svg width="200" height="201" viewBox="0 0 200 201" fill="none" xmlns="http://www.w3.org/2000/svg">
<rect x="0.520833" y="76.1868" width="198.958" height="44.7917" rx="7.8125" fill="white" stroke="#13141A" stroke-width="1.04167"/>
<rect x="4.16577" y="79.832" width="191.667" height="37.5" rx="4.16667" fill="#FF0E00"/>
<path d="M12.5 79.833H29.4384L47.9167 98.583L29.4384 117.333H12.5L30.9783 98.583L12.5 79.833Z" fill="white"/>
<path d="M156.25 79.833H173.188L191.667 98.583L173.188 117.333H156.25L174.728 98.583L156.25 79.833Z" fill="white"/>
<path d="M108.333 79.833H125.272L143.75 98.583L125.272 117.333H108.333L126.812 98.583L108.333 79.833Z" fill="white"/>
<path d="M60.4166 79.833H77.355L95.8333 98.583L77.355 117.333H60.4166L78.8949 98.583L60.4166 79.833Z" fill="white"/>
</svg>
