<svg width="200" height="201" viewBox="0 0 200 201" fill="none" xmlns="http://www.w3.org/2000/svg">
<circle cx="100" cy="100.334" r="82.8125" fill="white" stroke="#05081B" stroke-width="1.04167"/>
<circle cx="100" cy="100.334" r="71.875" stroke="#FF0E00" stroke-width="12.5"/>
<path fill-rule="evenodd" clip-rule="evenodd" d="M91.0766 88.8752C91.2205 88.8395 91.3639 88.8028 91.5069 88.7652L91.5176 88.8752H120.833C129.547 88.8752 136.791 95.1689 138.267 103.459H144.586C145.667 101.59 147.686 100.333 150 100.333C153.452 100.333 156.25 103.131 156.25 106.583C156.25 110.035 153.452 112.833 150 112.833C147.687 112.833 145.667 111.576 144.586 109.709H138.267C136.791 117.998 129.547 124.292 120.833 124.292H77.1314C71.3785 124.292 66.7147 119.628 66.7147 113.875C66.7147 108.122 71.3784 103.459 77.1314 103.459H124.84C126.566 103.459 127.965 104.858 127.965 106.584C127.965 108.309 126.566 109.709 124.84 109.709H77.1314C74.8302 109.709 72.9647 111.574 72.9647 113.875C72.9647 116.176 74.8302 118.042 77.1314 118.042H120.833C127.162 118.042 132.292 112.912 132.292 106.584C132.292 100.255 127.162 95.1252 120.833 95.1252H91.5179L91.5069 95.2375C91.361 95.199 91.2147 95.1616 91.0679 95.1252H76.147C66.655 97.4766 59.0971 104.207 56.1547 112.835C51.1337 107.953 47.9166 100.435 47.9166 92.0013C47.9166 83.568 51.1337 76.0498 56.1547 71.168C59.0962 79.7929 66.6504 86.5219 76.1382 88.8752H91.0766Z" fill="black"/>
</svg>
