<svg width="200" height="201" viewBox="0 0 200 201" fill="none" xmlns="http://www.w3.org/2000/svg">
<path d="M30.7287 160.227C30.7287 165.261 34.8094 169.342 39.8431 169.342H160.154C165.188 169.342 169.268 165.261 169.268 160.227V39.9164C169.268 34.8826 165.188 30.8019 160.154 30.8019L39.8431 30.8019C34.8094 30.8019 30.7287 34.8826 30.7287 39.9164L30.7287 160.227Z" fill="white" stroke="#13141A" stroke-width="1.04165"/>
<path d="M39.7216 164.654C37.3438 164.654 35.4161 162.726 35.4161 160.348L35.4161 39.7945C35.4161 37.4167 37.3438 35.489 39.7216 35.489L160.275 35.489C162.653 35.489 164.581 37.4167 164.581 39.7945V160.348C164.581 162.726 162.653 164.654 160.275 164.654H39.7216Z" fill="#1071AF"/>
<rect x="35.4161" y="102.156" width="4.1666" height="129.165" transform="rotate(-90 35.4161 102.156)" fill="white"/>
<path d="M131.248 145.904L131.248 118.821L154.164 132.363L131.248 145.904Z" fill="white"/>
<path d="M114.582 137.571L114.582 127.154L131.249 127.154V137.571L114.582 137.571Z" fill="white"/>
<path d="M77.0822 85.4868V50.0707L45.8326 67.7787L77.0822 85.4868Z" fill="white"/>
<path d="M77.0822 72.9885L77.0822 62.572L164.581 62.572V72.9885L77.0822 72.9885Z" fill="white"/>
<path d="M35.4161 112.57H88.1724C90.1576 112.57 92.0247 113.513 93.2028 115.111L100.862 125.499C101.654 126.573 102.082 127.873 102.082 129.208V145.903C102.082 148.204 100.216 150.069 97.9152 150.069H35.4161V112.57Z" fill="white"/>
<circle cx="82.2909" cy="149.03" r="10.4169" fill="white" stroke="#1071AF" stroke-width="2.0833"/>
<circle cx="82.2904" cy="149.027" r="5.20826" fill="#1071AF"/>
<path d="M89.5824 116.738L97.3348 127.591C97.8272 128.281 97.3344 129.238 96.4871 129.238L79.1655 129.238L79.1655 116.738L89.5824 116.738Z" fill="#1071AF"/>
<rect x="56.2492" y="116.738" width="18.7505" height="12.5004" fill="#1071AF"/>
<rect x="37.4995" y="116.738" width="14.5838" height="12.5004" fill="#1071AF"/>
</svg>
