<svg width="200" height="200" viewBox="0 0 200 200" fill="none" xmlns="http://www.w3.org/2000/svg">
<path d="M25.6863 169.271H174.314C181.678 169.271 186.263 161.299 182.525 154.969L108.211 29.1571C104.527 22.9205 95.4727 22.9205 91.7889 29.1571L17.4753 154.969C13.7367 161.299 18.3214 169.271 25.6863 169.271Z" fill="#FF0E00" stroke="black" stroke-width="1.04167"/>
<path d="M174.314 166.667H25.6863C20.3188 166.667 17.0139 160.871 19.7175 156.294L94.0312 30.4815C96.707 25.9513 103.293 25.9513 105.969 30.4815L180.282 156.294C182.986 160.871 179.681 166.667 174.314 166.667Z" fill="#FF0E00" stroke="white" stroke-width="4.16667"/>
<path fill-rule="evenodd" clip-rule="evenodd" d="M164.062 154.167L99.9999 45.4302L35.9374 154.167H164.062Z" fill="white"/>
<path d="M75.6516 104.167L71.7843 108.894H68.8695V115.276H71.7843V138.467H68.7499V144.788H71.7843V147.917H79.5179V144.788H84.0452C84.0452 145.872 84.0452 146.961 84.0452 147.917C86.7042 147.917 89.1884 147.917 91.6602 147.917C91.6602 146.961 91.6602 145.871 91.6602 144.788H96.3071C96.3071 145.872 96.3071 146.961 96.3071 147.917C98.8406 147.917 101.326 147.917 103.922 147.917C103.922 146.961 103.922 145.871 103.922 144.788H108.509C108.509 145.872 108.509 146.961 108.509 147.917C111.104 147.917 113.651 147.917 116.124 147.917C116.124 146.961 116.124 145.871 116.124 144.788H120.771V147.917H128.326V144.788H131.25V138.467H128.326V115.276H131.25V108.894H128.326L124.518 104.291L120.77 108.894H116.123C114.887 107.426 113.678 105.756 112.256 104.291C111.143 105.756 109.867 107.426 108.507 108.894H103.801C102.628 107.426 101.349 105.756 100.113 104.291C98.8763 105.756 97.6033 107.426 96.3052 108.894H91.6582C90.3601 107.426 89.1489 105.756 87.8508 104.291C86.7389 105.756 85.2796 107.426 84.0423 108.894H79.515L75.6516 104.167ZM79.5189 115.276H84.0462C84.0462 120.504 84.0462 133.237 84.0462 138.467H79.5189V115.276ZM91.6611 115.276H96.3081C96.3081 120.504 96.3081 133.237 96.3081 138.467H91.6611C91.6611 133.237 91.6611 120.504 91.6611 115.276ZM103.922 115.276H108.509C108.509 120.504 108.509 133.237 108.509 138.467H103.922C103.922 133.237 103.922 120.504 103.922 115.276ZM116.124 115.276H120.771V138.467H116.124C116.124 133.237 116.124 120.504 116.124 115.276Z" fill="black"/>
</svg>
