<svg width="200" height="200" viewBox="0 0 200 200" fill="none" xmlns="http://www.w3.org/2000/svg">
<path d="M73.3198 66.323L73.3963 66.2872L73.4808 66.2872L191.84 66.2872C195.406 66.2872 198.296 69.1777 198.296 72.7434L198.296 127.431C198.296 130.997 195.406 133.887 191.84 133.887L73.4808 133.887L73.3963 133.887L73.3198 133.851L1.92225 100.431L1.18743 100.087L1.92225 99.7432L73.3198 66.323Z" fill="white" stroke="#13141A" stroke-width="0.759549"/>
<path d="M72.2819 71.0079L25 100.175L72.2819 129.341L190.712 129.341C192.39 129.341 193.75 127.981 193.75 126.303L193.75 74.046C193.75 72.368 192.39 71.0078 190.712 71.0078L72.2819 71.0079Z" fill="#269E48"/>
<rect x="75" y="77.083" width="20.8333" height="45.8333" fill="white"/>
<path d="M166.501 86.7626C167.518 84.723 166.926 82.6319 165.331 81.8224C163.736 81.0129 161.296 81.3877 160.279 83.4272C159.262 85.4668 160.176 88.1803 161.772 88.9899C163.367 89.7992 165.484 88.8021 166.501 86.7626Z" fill="white"/>
<path d="M170.957 91.7096L177.202 91.6972L181.763 96.7924C182.066 97.3334 182.701 97.5934 183.292 97.4179C184.072 97.1859 184.452 96.3037 184.089 95.5685L179.509 89.6534C179.286 89.2013 178.866 88.8776 178.374 88.7776L169.288 87.7602C168.218 87.6046 167.292 88.2371 166.793 88.8799L165.56 90.5548C165.008 91.5224 164.938 92.6951 165.368 93.7289L169.672 102.034L163.718 106.825C162.496 107.808 161.817 109.315 161.891 110.881L162.395 121.617C162.421 122.18 162.753 122.685 163.261 122.933C164.248 123.415 165.409 122.744 165.48 121.649L166.177 110.906C166.203 110.508 166.41 110.142 166.738 109.914L173.88 104.947C175.507 103.815 176.046 101.656 175.143 99.8906L170.957 91.7096Z" fill="white"/>
<path d="M164.146 95.5049L166.076 99.2289L163.585 102.944C162.93 103.92 161.551 104.069 160.703 103.255L156.63 99.3499C156.165 98.9047 156.121 98.1786 156.529 97.681C156.936 97.1836 157.657 97.0811 158.188 97.4452L161.646 99.8197L164.146 95.5049Z" fill="white"/>
<path d="M175.795 105.599L171.867 108.33L175.527 113.063C176.527 114.356 178.383 114.601 179.684 113.611L186.884 108.13C187.561 107.615 187.698 106.65 187.191 105.967C186.719 105.331 185.845 105.152 185.161 105.55L178.452 109.455L175.795 105.599Z" fill="white"/>
<path d="M111.559 100V97.917L104.167 102.084L111.559 106.25V104.167H145.833V100H111.559Z" fill="white"/>
<path d="M112.962 122.743H110.942V115.374C110.204 116.042 109.335 116.536 108.333 116.856V115.082C108.86 114.915 109.433 114.599 110.051 114.135C110.669 113.667 111.093 113.122 111.323 112.5H112.962V122.743Z" fill="white"/>
<path d="M119.401 112.5C120.422 112.5 121.22 112.853 121.795 113.558C122.48 114.393 122.822 115.777 122.822 117.712C122.822 119.642 122.477 121.029 121.787 121.873C121.217 122.569 120.422 122.917 119.401 122.917C118.376 122.917 117.549 122.536 116.922 121.775C116.294 121.01 115.98 119.649 115.98 117.691C115.98 115.77 116.325 114.388 117.015 113.544C117.585 112.848 118.381 112.5 119.401 112.5ZM119.401 114.121C119.157 114.121 118.939 114.198 118.747 114.351C118.556 114.499 118.407 114.768 118.302 115.158C118.163 115.664 118.093 116.515 118.093 117.712C118.093 118.909 118.155 119.732 118.28 120.182C118.405 120.627 118.56 120.924 118.747 121.073C118.939 121.221 119.157 121.295 119.401 121.295C119.646 121.295 119.864 121.221 120.055 121.073C120.247 120.92 120.395 120.648 120.501 120.259C120.64 119.758 120.709 118.909 120.709 117.712C120.709 116.515 120.647 115.694 120.522 115.249C120.398 114.799 120.24 114.499 120.048 114.351C119.861 114.198 119.646 114.121 119.401 114.121Z" fill="white"/>
<path d="M127.594 112.5C128.615 112.5 129.413 112.853 129.988 113.558C130.673 114.393 131.015 115.777 131.015 117.712C131.015 119.642 130.67 121.029 129.981 121.873C129.41 122.569 128.615 122.917 127.594 122.917C126.569 122.917 125.743 122.536 125.115 121.775C124.487 121.01 124.173 119.649 124.173 117.691C124.173 115.77 124.518 114.388 125.208 113.544C125.779 112.848 126.574 112.5 127.594 112.5ZM127.594 114.121C127.35 114.121 127.132 114.198 126.94 114.351C126.749 114.499 126.6 114.768 126.495 115.158C126.356 115.664 126.286 116.515 126.286 117.712C126.286 118.909 126.349 119.732 126.473 120.182C126.598 120.627 126.754 120.924 126.94 121.073C127.132 121.221 127.35 121.295 127.594 121.295C127.839 121.295 128.057 121.221 128.248 121.073C128.44 120.92 128.589 120.648 128.694 120.259C128.833 119.758 128.902 118.909 128.902 117.712C128.902 116.515 128.84 115.694 128.716 115.249C128.591 114.799 128.433 114.499 128.241 114.351C128.054 114.198 127.839 114.121 127.594 114.121Z" fill="white"/>
<path d="M132.863 115.353H135.364L137.261 120.502L139.173 115.353H141.667V122.743H139.949V117.879L138.087 122.743H136.363L134.587 117.879V122.743H132.863V115.353Z" fill="white"/>
</svg>
