<svg width="200" height="201" viewBox="0 0 200 201" fill="none" xmlns="http://www.w3.org/2000/svg">
<rect x="198.438" y="73.0632" width="55.2083" height="196.875" rx="8.85417" transform="rotate(90 198.438 73.0632)" fill="white" stroke="#13141A" stroke-width="1.04167"/>
<rect x="193.75" y="77.751" width="45.8333" height="187.5" rx="4.16667" transform="rotate(90 193.75 77.751)" fill="#1071AF"/>
<path d="M38.9721 97.6778V93.8729H39.2823L42.4584 97.6778H44.7847L40.8703 92.9896L44.4931 88.7647H42.3778L39.2823 92.446H38.9721V88.7647H37.0987V97.6778H38.9721Z" fill="white"/>
<path d="M49.6389 97.8322C52.3001 97.8322 53.9564 96.0595 53.9564 93.2243V93.212C53.9564 90.383 52.2939 88.6103 49.6389 88.6103C46.99 88.6103 45.3213 90.3768 45.3213 93.212V93.2243C45.3213 96.0595 46.9838 97.8322 49.6389 97.8322ZM49.6389 96.2509C48.1687 96.2509 47.232 95.0897 47.232 93.2243V93.212C47.232 91.3466 48.1749 90.1915 49.6389 90.1915C51.1091 90.1915 52.0458 91.3528 52.0458 93.212V93.2243C52.0458 95.0712 51.1277 96.2509 49.6389 96.2509Z" fill="white"/>
<path d="M55.5415 97.6778H57.4149V93.9223H61.4471V97.6778H63.3205V88.7647H61.4471V92.3843H57.4149V88.7647H55.5415V97.6778Z" fill="white"/>
<path d="M67.3311 97.6778H69.2045V90.3027H71.7913V88.7647H64.7381V90.3027H67.3311V97.6778Z" fill="white"/>
<path d="M73.2151 97.6778H75.0885V94.8673H76.8068C78.6989 94.8673 79.9519 93.6567 79.9519 91.8222V91.8098C79.9519 89.9753 78.6989 88.7647 76.8068 88.7647H73.2151V97.6778ZM76.354 90.2409C77.4272 90.2409 78.0537 90.803 78.0537 91.816V91.8284C78.0537 92.8414 77.4272 93.4096 76.354 93.4096H75.0885V90.2409H76.354Z" fill="white"/>
<path d="M85.4699 97.8322C88.1312 97.8322 89.7875 96.0595 89.7875 93.2243V93.212C89.7875 90.383 88.125 88.6103 85.4699 88.6103C82.8211 88.6103 81.1524 90.3768 81.1524 93.212V93.2243C81.1524 96.0595 82.8149 97.8322 85.4699 97.8322ZM85.4699 96.2509C83.9997 96.2509 83.063 95.0897 83.063 93.2243V93.212C83.063 91.3466 84.0059 90.1915 85.4699 90.1915C86.9401 90.1915 87.8768 91.3528 87.8768 93.212V93.2243C87.8768 95.0712 86.9587 96.2509 85.4699 96.2509Z" fill="white"/>
<path d="M91.0996 97.7581C92.8861 97.7581 93.6243 96.4671 93.7484 94.157L93.9655 90.3027H96.6206V97.6778H98.494V88.7647H92.2906L92.0239 94.0335C91.9556 95.3738 91.6703 96.0903 90.839 96.0903C90.6777 96.0903 90.5102 96.0656 90.4234 96.0471V97.6778C90.5475 97.7148 90.7956 97.7581 91.0996 97.7581Z" fill="white"/>
<path d="M100.389 97.6778H104.093C105.935 97.6778 107.194 96.4918 107.194 94.7191V94.7067C107.194 92.9464 105.885 91.7543 104 91.7543H102.263V88.7647H100.389V97.6778ZM103.59 93.2243C104.657 93.2243 105.284 93.7493 105.284 94.7067V94.7191C105.284 95.6703 104.663 96.1892 103.596 96.1892H102.263V93.2243H103.59Z" fill="white"/>
<path d="M112.719 97.8322C115.38 97.8322 117.036 96.0595 117.036 93.2243V93.212C117.036 90.383 115.374 88.6103 112.719 88.6103C110.07 88.6103 108.401 90.3768 108.401 93.212V93.2243C108.401 96.0595 110.063 97.8322 112.719 97.8322ZM112.719 96.2509C111.248 96.2509 110.312 95.0897 110.312 93.2243V93.212C110.312 91.3466 111.255 90.1915 112.719 90.1915C114.189 90.1915 115.125 91.3528 115.125 93.212V93.2243C115.125 95.0712 114.207 96.2509 112.719 96.2509Z" fill="white"/>
<path d="M118.621 97.6778H122.585C124.496 97.6778 125.681 96.7018 125.681 95.1391V95.1268C125.681 93.9594 124.775 93.0823 123.534 92.9896V92.9525C124.514 92.8228 125.265 91.989 125.265 91.013V91.0007C125.265 89.6294 124.204 88.7647 122.517 88.7647H118.621V97.6778ZM122.033 90.1483C122.908 90.1483 123.423 90.556 123.423 91.2663V91.2786C123.423 92.0507 122.852 92.4893 121.803 92.4893H120.495V90.1483H122.033ZM122.021 93.7555C123.168 93.7555 123.764 94.1941 123.764 95.0094V95.0218C123.764 95.8494 123.174 96.288 122.101 96.288H120.495V93.7555H122.021Z" fill="white"/>
<path d="M126.391 97.6778H128.364L129.034 95.5159H132.203L132.873 97.6778H134.846L131.72 88.7647H129.517L126.391 97.6778ZM130.603 90.4942H130.64L131.763 94.12H129.468L130.603 90.4942Z" fill="white"/>
<path d="M136.146 97.6778H138.019V93.9223H142.051V97.6778H143.925V88.7647H142.051V92.3843H138.019V88.7647H136.146V97.6778Z" fill="white"/>
<path d="M145.808 97.6778H147.433L151.509 91.7975H151.527V97.6778H153.394V88.7647H151.757L147.693 94.6141H147.675V88.7647H145.808V97.6778Z" fill="white"/>
<path d="M159.161 88.0914C160.569 88.0914 161.456 87.3502 161.456 86.1519V86.084H160.103V86.1396C160.103 86.6275 159.744 87.0414 159.161 87.0414C158.565 87.0414 158.218 86.6275 158.218 86.1396V86.084H156.865V86.1519C156.865 87.3502 157.752 88.0914 159.161 88.0914ZM155.296 97.6778H156.921L160.997 91.7975H161.015V97.6778H162.883V88.7647H161.245L157.182 94.6141H157.163V88.7647H155.296V97.6778Z" fill="white"/>
<path d="M28.5813 113.49V104.577H20.8333V113.49H22.7067V106.115H26.7079V113.49H28.5813Z" fill="white"/>
<path d="M30.4703 113.49H32.3437V110.68H34.062C35.9541 110.68 37.2072 109.469 37.2072 107.635V107.622C37.2072 105.788 35.9541 104.577 34.062 104.577H30.4703V113.49ZM33.6092 106.053C34.6824 106.053 35.3089 106.616 35.3089 107.629V107.641C35.3089 108.654 34.6824 109.222 33.6092 109.222H32.3437V106.053H33.6092Z" fill="white"/>
<path d="M38.7053 113.49H40.3306L44.4063 107.61H44.4249V113.49H46.2921V104.577H44.6544L40.5912 110.427H40.5726V104.577H38.7053V113.49Z" fill="white"/>
<path d="M50.0669 113.49V109.685H50.3771L53.5532 113.49H55.8795L51.9652 108.802L55.5879 104.577H53.4726L50.3771 108.259H50.0669V104.577H48.1935V113.49H50.0669Z" fill="white"/>
<path d="M60.7337 113.645C63.395 113.645 65.0513 111.872 65.0513 109.037V109.024C65.0513 106.196 63.3888 104.423 60.7337 104.423C58.0849 104.423 56.4162 106.189 56.4162 109.024V109.037C56.4162 111.872 58.0787 113.645 60.7337 113.645ZM60.7337 112.063C59.2635 112.063 58.3268 110.902 58.3268 109.037V109.024C58.3268 107.159 59.2697 106.004 60.7337 106.004C62.2039 106.004 63.1406 107.165 63.1406 109.024V109.037C63.1406 110.884 62.2225 112.063 60.7337 112.063Z" fill="white"/>
<path d="M66.6363 113.49H68.5097V110.68H70.2281C72.1201 110.68 73.3732 109.469 73.3732 107.635V107.622C73.3732 105.788 72.1201 104.577 70.2281 104.577H66.6363V113.49ZM69.7752 106.053C70.8484 106.053 71.4749 106.616 71.4749 107.629V107.641C71.4749 108.654 70.8484 109.222 69.7752 109.222H68.5097V106.053H69.7752Z" fill="white"/>
<path d="M75.4483 115.251V113.49H81.3353V115.251H83.0288V111.952H81.9122V104.577H75.5662L75.256 109.617C75.1815 110.822 75.0016 111.52 74.3751 111.952H73.7486V115.251H75.4483ZM76.9805 109.753L77.2162 106.115H80.0388V111.952H76.385V111.903C76.782 111.44 76.9123 110.754 76.9805 109.753Z" fill="white"/>
<path d="M88.3917 113.645C91.053 113.645 92.7093 111.872 92.7093 109.037V109.024C92.7093 106.196 91.0468 104.423 88.3917 104.423C85.7429 104.423 84.0742 106.189 84.0742 109.024V109.037C84.0742 111.872 85.7367 113.645 88.3917 113.645ZM88.3917 112.063C86.9215 112.063 85.9848 110.902 85.9848 109.037V109.024C85.9848 107.159 86.9277 106.004 88.3917 106.004C89.8619 106.004 90.7986 107.165 90.7986 109.024V109.037C90.7986 110.884 89.8805 112.063 88.3917 112.063Z" fill="white"/>
<path d="M94.2943 113.49H96.1677V109.735H100.2V113.49H102.073V104.577H100.2V108.197H96.1677V104.577H94.2943V113.49Z" fill="white"/>
<path d="M103.944 113.49H105.817V109.735H109.849V113.49H111.723V104.577H109.849V108.197H105.817V104.577H103.944V113.49Z" fill="white"/>
<path d="M113.606 113.49H115.231L119.307 107.61H119.325V113.49H121.192V104.577H119.555L115.491 110.427H115.473V104.577H113.606V113.49Z" fill="white"/>
<path d="M126.958 103.904C128.367 103.904 129.254 103.163 129.254 101.964V101.896H127.901V101.952C127.901 102.44 127.542 102.854 126.958 102.854C126.363 102.854 126.016 102.44 126.016 101.952V101.896H124.663V101.964C124.663 103.163 125.55 103.904 126.958 103.904ZM123.094 113.49H124.719L128.795 107.61H128.813V113.49H130.68V104.577H129.043L124.98 110.427H124.961V104.577H123.094V113.49Z" fill="white"/>
<path d="M135.37 113.49H137.244V110.68H138.962C140.854 110.68 142.107 109.469 142.107 107.635V107.622C142.107 105.788 140.854 104.577 138.962 104.577H135.37V113.49ZM138.509 106.053C139.582 106.053 140.209 106.616 140.209 107.629V107.641C140.209 108.654 139.582 109.222 138.509 109.222H137.244V106.053H138.509Z" fill="white"/>
<path d="M142.21 113.49H144.182L144.852 111.328H148.022L148.692 113.49H150.665L147.538 104.577H145.336L142.21 113.49ZM146.422 106.307H146.459L147.582 109.932H145.287L146.422 106.307Z" fill="white"/>
<path d="M155.842 103.904C157.25 103.904 158.137 103.163 158.137 101.964V101.896H156.785V101.952C156.785 102.44 156.425 102.854 155.842 102.854C155.246 102.854 154.899 102.44 154.899 101.952V101.896H153.546V101.964C153.546 103.163 154.434 103.904 155.842 103.904ZM151.977 113.49H153.602L157.678 107.61H157.697V113.49H159.564V104.577H157.926L153.863 110.427H153.844V104.577H151.977V113.49Z" fill="white"/>
<path d="M165.485 113.645C168.146 113.645 169.802 111.872 169.802 109.037V109.024C169.802 106.196 168.14 104.423 165.485 104.423C162.836 104.423 161.167 106.189 161.167 109.024V109.037C161.167 111.872 162.83 113.645 165.485 113.645ZM165.485 112.063C164.015 112.063 163.078 110.902 163.078 109.037V109.024C163.078 107.159 164.021 106.004 165.485 106.004C166.955 106.004 167.892 107.165 167.892 109.024V109.037C167.892 110.884 166.974 112.063 165.485 112.063Z" fill="white"/>
<path d="M171.388 113.49H173.261V109.735H177.293V113.49H179.167V104.577H177.293V108.197H173.261V104.577H171.388V113.49Z" fill="white"/>
<path fill-rule="evenodd" clip-rule="evenodd" d="M193.749 80.9914L19.319 123.583H10.3141C8.33048 123.583 6.67063 122.197 6.25024 120.341L180.675 77.75L189.685 77.75C191.668 77.75 193.328 79.1355 193.749 80.9914Z" fill="#FF0E00"/>
</svg>
