<svg width="200" height="201" viewBox="0 0 200 201" fill="none" xmlns="http://www.w3.org/2000/svg">
<rect x="30.7287" y="31.0104" width="138.54" height="138.54" rx="8.85404" fill="white" stroke="#13141A" stroke-width="1.04165"/>
<rect x="35.4161" y="35.6982" width="129.165" height="129.165" rx="4.16661" fill="#1071AF"/>
<path d="M56.2491 114.748L68.0483 113.537C68.3854 116.181 69.3827 118.283 71.0402 119.841C72.6977 121.372 74.608 122.138 76.7712 122.138C79.2434 122.138 81.3364 121.15 83.05 119.173C84.7637 117.169 85.6206 114.163 85.6206 110.156C85.6206 106.398 84.7637 103.587 83.05 101.722C81.3645 99.8295 79.1591 98.8832 76.4341 98.8832C73.0348 98.8832 69.9867 100.372 67.2898 103.35L57.6819 101.973L63.75 70.1177H95.0599V81.0978H72.7258L70.8716 91.4935C73.5124 90.1853 76.2094 89.5313 78.9625 89.5313C84.2159 89.5313 88.6687 91.4239 92.3208 95.2092C95.9729 98.9945 97.799 103.907 97.799 109.947C97.799 114.985 96.3241 119.48 93.3743 123.432C89.357 128.832 83.7805 131.531 76.6448 131.531C70.9419 131.531 66.2925 130.014 62.6965 126.981C59.1006 123.947 56.9515 119.869 56.2491 114.748Z" fill="white"/>
<path d="M123.689 69.0322C129.673 69.0322 134.351 71.1475 137.722 75.3782C141.739 80.3881 143.748 88.6963 143.748 100.303C143.748 111.881 141.725 120.203 137.68 125.269C134.337 129.444 129.673 131.531 123.689 131.531C117.677 131.531 112.831 129.249 109.151 124.684C105.471 120.092 103.631 111.923 103.631 100.177C103.631 88.6545 105.654 80.3603 109.699 75.2947C113.042 71.1197 117.705 69.0322 123.689 69.0322ZM123.689 78.7599C122.257 78.7599 120.978 79.2191 119.855 80.1376C118.731 81.0283 117.86 82.6426 117.242 84.9806C116.427 88.0144 116.02 93.1217 116.02 100.303C116.02 107.484 116.385 112.424 117.116 115.124C117.846 117.796 118.759 119.577 119.855 120.468C120.978 121.358 122.257 121.804 123.689 121.804C125.122 121.804 126.4 121.358 127.524 120.468C128.648 119.549 129.519 117.921 130.137 115.583C130.951 112.577 131.359 107.484 131.359 100.303C131.359 93.1217 130.994 88.1953 130.263 85.5233C129.533 82.8235 128.606 81.0283 127.482 80.1376C126.386 79.2191 125.122 78.7599 123.689 78.7599Z" fill="white"/>
</svg>
