<svg width="200" height="201" viewBox="0 0 200 201" fill="none" xmlns="http://www.w3.org/2000/svg">
<rect x="36.9792" y="12.6455" width="126.042" height="176.042" rx="8.85417" fill="white" stroke="#13141A" stroke-width="1.04167"/>
<rect x="41.6667" y="17.3337" width="116.667" height="166.667" rx="4.16667" fill="#1071AF"/>
<rect x="50" y="34" width="100" height="100" rx="4.16667" fill="white"/>
<path fill-rule="evenodd" clip-rule="evenodd" d="M60.4168 81.4835C60.4168 75.9581 62.6118 70.6591 66.5188 66.752L69.3894 63.8815C72.515 60.7559 76.7542 59 81.1745 59H118.826C123.246 59 127.485 60.7559 130.611 63.8815L133.481 66.7521C137.388 70.6591 139.583 75.9581 139.583 81.4835V92.1245C139.583 97.8775 134.92 102.541 129.167 102.541H111.875V102.54C111.875 95.9817 106.558 90.6652 99.9999 90.6652C95.8689 90.6652 92.2307 92.7744 90.1033 95.9747V70.8729C90.1033 68.6868 88.3311 66.9146 86.145 66.9146H76.2491C74.063 66.9146 72.2908 68.6868 72.2908 70.8729V102.539L72.2908 102.541H70.8335C65.0805 102.541 60.4168 97.8775 60.4168 92.1245V81.4835ZM88.1241 102.539L88.1241 102.541H74.27L74.27 102.539V70.8729C74.27 69.7798 75.1561 68.8937 76.2491 68.8937H86.145C87.238 68.8937 88.1241 69.7798 88.1241 70.8729V102.539ZM104.063 70.8738C102.913 70.8738 101.98 71.8066 101.98 72.9572V78.6862C101.98 79.8368 102.913 80.7695 104.063 80.7695H123.647C124.797 80.7695 125.73 79.8368 125.73 78.6862V72.9572C125.73 71.8066 124.797 70.8738 123.647 70.8738H104.063ZM78.3341 70.8738C77.1835 70.8738 76.2508 71.8066 76.2508 72.9572V78.6862C76.2508 79.8368 77.1835 80.7695 78.3341 80.7695H84.0633C85.2139 80.7695 86.1466 79.8368 86.1466 78.6862V72.9572C86.1466 71.8066 85.2139 70.8738 84.0633 70.8738H78.3341ZM105.236 108.479C106.88 107.028 107.916 104.906 107.916 102.541C107.916 98.1688 104.372 94.6244 99.9997 94.6244C95.6274 94.6244 92.083 98.1688 92.083 102.541C92.083 104.906 93.1198 107.028 94.7636 108.479H74.2701V102.543H70.3118V108.479H60.4167V112.437H139.583V108.479H129.687V102.543H125.728V108.479H105.236Z" fill="black"/>
</svg>
