<svg width="200" height="200" viewBox="0 0 200 200" fill="none" xmlns="http://www.w3.org/2000/svg">
<circle cx="99.9995" cy="99.9987" r="82.8125" fill="white" stroke="#05081B" stroke-width="1.04167"/>
<circle cx="99.9993" cy="99.999" r="78.125" fill="#1071AF"/>
<path d="M49.9999 116.395L63.4849 115.023C63.8701 118.019 65.0099 120.401 66.9043 122.168C68.7986 123.903 70.9818 124.77 73.4541 124.77C76.2795 124.77 78.6715 123.65 80.63 121.411C82.5885 119.139 83.5678 115.733 83.5678 111.19C83.5678 106.932 82.5885 103.746 80.63 101.632C78.7036 99.4871 76.1832 98.4146 73.0688 98.4146C69.1838 98.4146 65.7002 100.102 62.618 103.477L51.6374 101.916L58.5725 65.8132H94.3557V78.2576H68.8307L66.7116 90.0395C69.7297 88.5569 72.8119 87.8156 75.9584 87.8156C81.9624 87.8156 87.0514 89.9606 91.2253 94.2507C95.3992 98.5407 97.4861 104.108 97.4861 110.954C97.4861 116.663 95.8005 121.758 92.4293 126.237C87.838 132.356 81.4648 135.416 73.3096 135.416C66.7919 135.416 61.4782 133.697 57.3685 130.259C53.2588 126.82 50.8026 122.199 49.9999 116.395Z" fill="white"/>
<path d="M127.076 64.583C133.914 64.583 139.26 66.9804 143.113 71.7752C147.704 77.4532 150 86.8692 150 100.023C150 113.146 147.688 122.578 143.065 128.319C139.244 133.05 133.914 135.416 127.076 135.416C120.205 135.416 114.666 132.83 110.46 127.656C106.254 122.452 104.151 113.193 104.151 99.8814C104.151 86.8219 106.463 77.4216 111.086 71.6805C114.907 66.9488 120.237 64.583 127.076 64.583ZM127.076 75.6078C125.438 75.6078 123.977 76.1283 122.693 77.1693C121.409 78.1787 120.413 80.0083 119.707 82.658C118.776 86.0964 118.31 91.8848 118.31 100.023C118.31 108.162 118.728 113.761 119.563 116.821C120.397 119.849 121.441 121.868 122.693 122.877C123.977 123.887 125.438 124.391 127.076 124.391C128.713 124.391 130.174 123.887 131.458 122.877C132.742 121.836 133.738 119.991 134.444 117.341C135.375 113.934 135.841 108.162 135.841 100.023C135.841 91.8848 135.423 86.3014 134.589 83.2732C133.754 80.2133 132.694 78.1787 131.41 77.1693C130.158 76.1283 128.713 75.6078 127.076 75.6078Z" fill="white"/>
<path d="M154.167 45.833L45.8333 154.166" stroke="#FF0E00" stroke-width="12.5"/>
</svg>
