<svg width="200" height="201" viewBox="0 0 200 201" fill="none" xmlns="http://www.w3.org/2000/svg">
<rect x="0.520833" y="-0.520833" width="196.875" height="71.875" rx="8.85417" transform="matrix(-1 0 0 1 198.958 64.917)" fill="white" stroke="#13141A" stroke-width="1.04167"/>
<rect width="187.5" height="62.5" rx="4.16667" transform="matrix(-1 0 0 1 193.75 69.083)" fill="#FF0E00"/>
<path d="M84.375 116.444V83.8006H94.2894L100.242 106.067L106.128 83.8006H116.065V116.444H109.911V90.7478L103.398 116.444H97.0197L90.5295 90.7478V116.444H84.375Z" fill="white"/>
<path d="M121.884 107.737V101.48H134.238V107.737H121.884Z" fill="white"/>
<path d="M147.151 83.667C150.329 83.667 152.813 84.7952 154.604 87.0515C156.737 89.7235 157.804 94.1546 157.804 100.345C157.804 106.52 156.73 110.959 154.581 113.66C152.806 115.887 150.329 117 147.151 117C143.958 117 141.384 115.783 139.43 113.349C137.475 110.899 136.498 106.542 136.498 100.278C136.498 94.1324 137.572 89.7087 139.721 87.007C141.496 84.7803 143.973 83.667 147.151 83.667ZM147.151 88.8551C146.39 88.8551 145.711 89.1001 145.114 89.5899C144.518 90.065 144.055 90.926 143.727 92.1729C143.294 93.7909 143.078 96.5149 143.078 100.345C143.078 104.175 143.272 106.81 143.66 108.249C144.048 109.675 144.533 110.625 145.114 111.1C145.711 111.575 146.39 111.812 147.151 111.812C147.912 111.812 148.591 111.575 149.188 111.1C149.784 110.61 150.247 109.741 150.575 108.494C151.008 106.891 151.224 104.175 151.224 100.345C151.224 96.5149 151.03 93.8874 150.642 92.4624C150.254 91.0224 149.762 90.065 149.165 89.5899C148.583 89.1001 147.912 88.8551 147.151 88.8551Z" fill="white"/>
<path d="M178.125 116.444H171.836V92.8632C169.539 95.0008 166.831 96.5817 163.712 97.606V91.928C165.353 91.3936 167.136 90.3841 169.061 88.8997C170.986 87.4004 172.306 85.6562 173.022 83.667H178.125V116.444Z" fill="white"/>
<rect x="64.5833" y="69.083" width="4.16667" height="62.5" fill="white"/>
<path fill-rule="evenodd" clip-rule="evenodd" d="M35.4167 79.5L22.9167 91.9269V99.3337L32.2917 90.0136L32.2917 121.166H38.5417L38.5417 90.0135L47.9167 99.3337V91.9269L35.4167 79.5Z" fill="white"/>
</svg>
