<svg width="213" height="201" viewBox="0 0 213 201" fill="none" xmlns="http://www.w3.org/2000/svg">
<circle cx="113" cy="100.669" r="82.8125" fill="white" stroke="#05081B" stroke-width="1.04167"/>
<path d="M38.8336 115.67H92.1669V124.837H38.8336V115.67Z" fill="black"/>
<path d="M44.2499 77.9592C44.2499 76.6935 45.2759 75.6675 46.5416 75.6675H89.8749C91.1406 75.6675 92.1666 76.6935 92.1666 77.9591V111.084H44.2499V77.9592Z" fill="black"/>
<path d="M102.583 98.7926C102.583 97.527 103.609 96.501 104.875 96.501H160.708C161.974 96.501 163 97.527 163 98.7926V111.084H102.583V98.7926Z" fill="black"/>
<circle r="11.4583" transform="matrix(-1 0 0 1 70.3959 123.687)" fill="black" stroke="white" stroke-width="2.29167"/>
<circle r="5.72917" transform="matrix(-1 0 0 1 70.3965 123.689)" fill="white"/>
<path d="M88.8342 115.67H154.668V120.67H88.8342V115.67Z" fill="black"/>
<circle r="11.4583" transform="matrix(-1 0 0 1 153.729 123.687)" fill="black" stroke="white" stroke-width="2.29167"/>
<circle r="5.72917" transform="matrix(-1 0 0 1 153.731 123.689)" fill="white"/>
<circle r="11.4583" transform="matrix(-1 0 0 1 112.062 123.687)" fill="black" stroke="white" stroke-width="2.29167"/>
<circle r="5.72917" transform="matrix(-1 0 0 1 112.064 123.689)" fill="white"/>
<circle cx="113" cy="100.668" r="71.875" stroke="#FF0E00" stroke-width="12.5"/>
</svg>
