<svg width="200" height="201" viewBox="0 0 200 201" fill="none" xmlns="http://www.w3.org/2000/svg">
<path d="M174.314 169.271H25.6864C18.3215 169.271 13.7368 161.298 17.4754 154.969L91.789 29.1563C95.4728 22.9198 104.527 22.9198 108.211 29.1563L182.525 154.969C186.263 161.298 181.679 169.271 174.314 169.271Z" fill="#FF0E00" stroke="black" stroke-width="1.04167"/>
<path d="M25.6864 166.666H174.314C179.681 166.666 182.986 160.87 180.283 156.293L105.969 30.4808C103.293 25.9505 96.7071 25.9505 94.0313 30.4808L19.7176 156.293C17.014 160.87 20.3189 166.666 25.6864 166.666Z" fill="#FF0E00" stroke="white" stroke-width="4.16667"/>
<path fill-rule="evenodd" clip-rule="evenodd" d="M35.9376 154.168L100 45.4305L164.063 154.168H35.9376Z" fill="white"/>
<path d="M89.5834 91.864L99.9992 83.3324L110.416 91.864L110.417 145.832L99.9992 137.74L89.5842 145.832L89.5834 91.864Z" fill="black"/>
<rect x="110.417" y="104.166" width="14.5833" height="12.5" fill="black"/>
</svg>
