<svg width="200" height="201" viewBox="0 0 200 201" fill="none" xmlns="http://www.w3.org/2000/svg">
<path d="M25.6863 169.937H174.314C181.678 169.937 186.263 161.965 182.525 155.635L108.211 29.8231C104.527 23.5865 95.4727 23.5865 91.7889 29.8231L17.4753 155.635C13.7367 161.965 18.3214 169.937 25.6863 169.937Z" fill="#FF0E00" stroke="black" stroke-width="1.04167"/>
<path d="M174.314 167.333H25.6863C20.3188 167.333 17.0139 161.537 19.7175 156.96L94.0312 31.1475C96.707 26.6173 103.293 26.6173 105.969 31.1475L180.282 156.96C182.986 161.537 179.681 167.333 174.314 167.333Z" fill="#FF0E00" stroke="white" stroke-width="4.16667"/>
<path fill-rule="evenodd" clip-rule="evenodd" d="M164.062 154.835L99.9999 46.0981L35.9374 154.835H164.062Z" fill="#FFE600"/>
<path fill-rule="evenodd" clip-rule="evenodd" d="M106.769 77.4872C105.58 78.2807 103.799 79.697 103.566 84.2054C103.34 88.5689 106.061 91.1723 109.971 91.2328H110.038C114.058 91.1917 116.377 87.7883 116.377 83.4616C116.377 79.6538 113.542 76.8168 110.853 76.6676C108.536 76.5422 107.489 77.0093 106.769 77.4872ZM85.2906 87.5157C83.1198 87.5157 81.7581 88.6639 80.6382 90.4888L74.1646 101.166C73.1138 103.201 73.91 105.943 75.3105 106.505L83.9419 111.573L83.6053 111.978C82.6946 113.803 83.4823 116.268 84.9539 117.18L87.0427 118.397L101.339 126.37L103.229 127.315V147.113C103.229 149.219 104.903 150.897 107.005 150.897H107.072C108.194 150.897 109.204 150.523 109.905 149.681C110.535 149.05 110.984 148.097 110.984 147.113V127.044L129.123 137.519C127.095 139.41 124.94 139.901 122.871 140.372C120.794 140.845 118.805 141.298 117.121 143.128C115.16 145.374 113.776 148.548 113.075 151.777H158.321L141.942 123.852C137.75 125.892 135.274 129.345 132.982 132.541L132.982 132.541C132.592 133.085 132.207 133.621 131.82 134.141L113.612 123.533L109.903 109.815L105.385 92.5841C104.964 90.7591 103.231 88.8325 101.339 87.9892C100.708 87.7081 100.014 87.5157 99.3835 87.5157H87.0427H85.2906ZM86.2357 94.2728H87.0449H93.7882L87.0449 105.895L86.1688 107.584L80.3016 104.206L86.2357 94.2728ZM101.947 105.151L105.723 119.003L101.341 116.57L96.8891 113.935L101.341 106.029L101.947 105.151ZM84.6845 123.938L83.6056 118.195L87.043 120.158L91.8982 122.861C92.3168 123.001 92.7074 126.645 92.7074 126.645C92.9879 128.889 92.1809 131.486 91.8313 132.117L87.043 138.942L80.166 148.806C79.6049 149.649 76.8731 151.505 74.7713 149.82C73.3709 148.696 72.7753 146.166 73.8952 144.481L84.6845 128.939C85.3954 127.951 85.0818 126.228 84.8433 124.918C84.7763 124.55 84.7153 124.215 84.6845 123.938Z" fill="black"/>
</svg>
