<svg width="204" height="201" viewBox="0 0 204 201" fill="none" xmlns="http://www.w3.org/2000/svg">
<rect x="202.518" y="41.2312" width="117.707" height="201.039" rx="8.85404" transform="rotate(90 202.518 41.2312)" fill="white" stroke="#13141A" stroke-width="1.04165"/>
<rect x="197.83" y="45.9185" width="108.332" height="191.664" rx="4.16661" transform="rotate(90 197.83 45.9185)" fill="#1071AF"/>
<path d="M34.5008 94.8351V62.0271H45.1309C49.1592 62.0271 51.785 62.1912 53.0084 62.5195C54.8882 63.0118 56.4622 64.086 57.7304 65.7421C58.9986 67.3832 59.6326 69.5093 59.6326 72.1202C59.6326 74.1343 59.2671 75.8277 58.5361 77.2003C57.805 78.5728 56.8725 79.6545 55.7387 80.4452C54.6197 81.2211 53.4784 81.7358 52.3146 81.9894C50.7332 82.3027 48.443 82.4594 45.4442 82.4594H41.125V94.8351H34.5008ZM41.125 67.5772V76.8869H44.7505C47.3614 76.8869 49.1069 76.7154 49.9872 76.3722C50.8674 76.0291 51.5537 75.492 52.0461 74.7609C52.5533 74.0299 52.807 73.1794 52.807 72.2097C52.807 71.0161 52.4564 70.0314 51.7552 69.2556C51.0539 68.4798 50.1662 67.9949 49.092 67.801C48.3013 67.6518 46.7124 67.5772 44.3252 67.5772H41.125ZM62.0496 71.0683H68.741L74.4253 87.9423L79.9754 71.0683H86.4877L78.0955 93.9399L76.5961 98.0801C76.0441 99.4676 75.5144 100.527 75.0072 101.258C74.5148 101.989 73.9404 102.578 73.284 103.026C72.6424 103.488 71.8442 103.846 70.8894 104.1C69.9495 104.354 68.8827 104.481 67.6892 104.481C66.4807 104.481 65.2946 104.354 64.1309 104.1L63.5714 99.1767C64.5561 99.3706 65.4438 99.4676 66.2345 99.4676C67.6966 99.4676 68.7783 99.0349 69.4795 98.1696C70.1807 97.3192 70.7178 96.2301 71.0908 94.9022L62.0496 71.0683ZM109.024 94.8351H91.0307V101.101H85.9282V89.6879H88.5018C89.576 88.4943 90.4638 86.6294 91.165 84.0931C91.8662 81.5567 92.2839 77.2152 92.4182 71.0683H111.597V89.6879H114.148V101.101H109.024V94.8351ZM105.376 89.6879L105.398 76.2379H97.7892C97.5356 82.8025 96.4912 87.2858 94.6561 89.6879H105.376ZM118.221 71.0683H124.51V79.7739H133.506V71.0683H139.817V94.8351H133.506V84.8539H124.51V94.8351H118.221V71.0683ZM166.538 71.0683V94.8351H160.294V84.9658H159.713C158.355 84.9658 157.355 85.1449 156.714 85.5029C156.087 85.8461 155.386 86.5846 154.61 87.7185L154.23 88.1885L150.089 94.8351H142.771L147.27 87.9423C148.553 85.9729 149.716 84.839 150.761 84.5406C149 84.4362 147.568 83.7723 146.464 82.5489C145.375 81.3106 144.83 79.7366 144.83 77.8269C144.83 76.2902 145.188 74.9772 145.905 73.8881C146.636 72.799 147.598 72.0605 148.791 71.6726C150 71.2698 151.79 71.0683 154.163 71.0683H166.538ZM160.294 75.119H155.796C154.14 75.119 152.976 75.3577 152.305 75.8351C151.634 76.2976 151.298 77.0734 151.298 78.1626C151.298 79.2517 151.678 80.035 152.439 80.5124C153.2 80.9898 154.446 81.2285 156.177 81.2285H160.294V75.119Z" fill="white"/>
<path d="M37.6216 135.667V113.297H47.1277C49.5182 113.297 51.2526 113.501 52.3309 113.908C53.4193 114.305 54.289 115.017 54.9401 116.044C55.5911 117.071 55.9166 118.246 55.9166 119.569C55.9166 121.247 55.4233 122.636 54.4365 123.734C53.4498 124.823 51.9748 125.509 50.0116 125.794C50.9881 126.364 51.7917 126.989 52.4224 127.671C53.0633 128.353 53.9228 129.563 55.0011 131.303L57.7324 135.667H52.3309L49.0655 130.799C47.9059 129.06 47.1124 127.966 46.6852 127.518C46.258 127.061 45.8053 126.75 45.3272 126.588C44.8491 126.415 44.0912 126.328 43.0537 126.328H42.1381V135.667H37.6216ZM42.1381 122.758H45.4798C47.6465 122.758 48.9994 122.666 49.5385 122.483C50.0777 122.3 50.4998 121.985 50.805 121.537C51.1102 121.089 51.2628 120.53 51.2628 119.859C51.2628 119.106 51.0593 118.501 50.6524 118.043C50.2557 117.575 49.6911 117.28 48.9587 117.158C48.5925 117.107 47.4939 117.082 45.6629 117.082H42.1381V122.758ZM70.8242 135.667V133.24C70.2342 134.105 69.4561 134.787 68.4897 135.285C67.5335 135.783 66.5213 136.033 65.4532 136.033C64.3648 136.033 63.3882 135.794 62.5236 135.316C61.6589 134.837 61.0333 134.166 60.6468 133.301C60.2602 132.437 60.067 131.242 60.067 129.716V119.462H64.3546V126.908C64.3546 129.187 64.4309 130.585 64.5835 131.104C64.7463 131.613 65.0362 132.02 65.4532 132.325C65.8703 132.62 66.3993 132.767 67.0401 132.767C67.7725 132.767 68.4287 132.569 69.0085 132.172C69.5883 131.765 69.985 131.267 70.1986 130.677C70.4123 130.077 70.5191 128.617 70.5191 126.298V119.462H74.8067V135.667H70.8242ZM94.1241 135.667H90.1416V133.286C89.4804 134.212 88.6971 134.904 87.7918 135.361C86.8966 135.809 85.9913 136.033 85.0757 136.033C83.2142 136.033 81.6171 135.285 80.2846 133.79C78.9621 132.284 78.3009 130.189 78.3009 127.503C78.3009 124.757 78.9469 122.671 80.2388 121.247C81.5307 119.813 83.1633 119.096 85.1368 119.096C86.9475 119.096 88.514 119.848 89.8364 121.354V113.297H94.1241V135.667ZM82.6802 127.213C82.6802 128.943 82.9192 130.194 83.3973 130.967C84.089 132.086 85.0554 132.645 86.2964 132.645C87.2832 132.645 88.1224 132.228 88.8141 131.394C89.5058 130.55 89.8517 129.294 89.8517 127.625C89.8517 125.764 89.516 124.426 88.8446 123.612C88.1732 122.788 87.3137 122.376 86.2659 122.376C85.2487 122.376 84.3942 122.783 83.7025 123.597C83.0209 124.401 82.6802 125.606 82.6802 127.213ZM113.106 135.667H108.818V127.396C108.818 125.647 108.727 124.518 108.543 124.009C108.36 123.49 108.06 123.088 107.643 122.804C107.236 122.519 106.743 122.376 106.163 122.376C105.42 122.376 104.754 122.58 104.164 122.987C103.574 123.394 103.167 123.933 102.944 124.604C102.73 125.275 102.623 126.516 102.623 128.327V135.667H98.3354V119.462H102.318V121.842C103.732 120.011 105.512 119.096 107.658 119.096C108.604 119.096 109.469 119.269 110.252 119.614C111.036 119.95 111.626 120.383 112.022 120.911C112.429 121.44 112.709 122.041 112.862 122.712C113.024 123.383 113.106 124.345 113.106 125.596V135.667ZM117.47 117.265V113.297H121.757V117.265H117.47ZM117.47 135.667V119.462H121.757V135.667H117.47ZM129.371 124.406L125.48 123.704C125.918 122.137 126.671 120.978 127.739 120.225C128.807 119.472 130.394 119.096 132.499 119.096C134.412 119.096 135.836 119.325 136.772 119.782C137.708 120.23 138.364 120.805 138.74 121.507C139.127 122.198 139.32 123.475 139.32 125.336L139.274 130.341C139.274 131.765 139.34 132.818 139.473 133.5C139.615 134.171 139.874 134.893 140.251 135.667H136.009C135.897 135.382 135.76 134.96 135.597 134.4C135.526 134.146 135.475 133.978 135.444 133.897C134.712 134.609 133.929 135.143 133.094 135.499C132.26 135.855 131.37 136.033 130.424 136.033C128.756 136.033 127.439 135.58 126.472 134.675C125.516 133.769 125.038 132.625 125.038 131.242C125.038 130.326 125.257 129.512 125.694 128.8C126.131 128.078 126.742 127.529 127.525 127.152C128.319 126.766 129.458 126.43 130.943 126.145C132.947 125.769 134.335 125.418 135.109 125.092V124.665C135.109 123.841 134.905 123.256 134.498 122.91C134.091 122.554 133.323 122.376 132.194 122.376C131.431 122.376 130.836 122.529 130.409 122.834C129.982 123.129 129.636 123.653 129.371 124.406ZM135.109 127.885C134.559 128.068 133.69 128.286 132.499 128.541C131.309 128.795 130.531 129.044 130.165 129.288C129.605 129.685 129.326 130.189 129.326 130.799C129.326 131.399 129.549 131.918 129.997 132.355C130.445 132.793 131.014 133.012 131.706 133.012C132.479 133.012 133.217 132.757 133.918 132.249C134.437 131.862 134.778 131.389 134.941 130.83C135.053 130.463 135.109 129.767 135.109 128.739V127.885Z" fill="white"/>
</svg>
