<svg width="200" height="200" viewBox="0 0 200 200" fill="none" xmlns="http://www.w3.org/2000/svg">
<rect x="198.438" y="78.6457" width="42.7083" height="196.875" rx="8.85417" transform="rotate(90 198.438 78.6457)" fill="white" stroke="#13141A" stroke-width="1.04167"/>
<rect x="193.75" y="83.333" width="33.3333" height="187.5" rx="4.16667" transform="rotate(90 193.75 83.333)" fill="#1071AF"/>
<path d="M25.3875 105.962V93.9577H16.6667V105.962H18.7754V96.0292H23.2789V105.962H25.3875Z" fill="white"/>
<path d="M27.5137 105.962H29.6223V102.177H31.5564C33.686 102.177 35.0964 100.546 35.0964 98.0757V98.059C35.0964 95.5883 33.686 93.9577 31.5564 93.9577H27.5137V105.962ZM31.0467 95.946C32.2546 95.946 32.9598 96.703 32.9598 98.0674V98.084C32.9598 99.4483 32.2546 100.214 31.0467 100.214H29.6223V95.946H31.0467Z" fill="white"/>
<path d="M36.7827 105.962H38.612L43.1993 98.0424H43.2203V105.962H45.3219V93.9577H43.4786L38.9053 101.836H38.8843V93.9577H36.7827V105.962Z" fill="white"/>
<path d="M49.5707 105.962V100.838H49.9198L53.4947 105.962H56.113L51.7072 99.648L55.7848 93.9577H53.4039L49.9198 98.9159H49.5707V93.9577H47.462V105.962H49.5707Z" fill="white"/>
<path d="M61.5767 106.17C64.572 106.17 66.4363 103.783 66.4363 99.9641V99.9475C66.4363 96.1373 64.565 93.7498 61.5767 93.7498C58.5952 93.7498 56.717 96.129 56.717 99.9475V99.9641C56.717 103.783 58.5883 106.17 61.5767 106.17ZM61.5767 104.04C59.9219 104.04 58.8676 102.476 58.8676 99.9641V99.9475C58.8676 97.4351 59.9288 95.8794 61.5767 95.8794C63.2314 95.8794 64.2857 97.4434 64.2857 99.9475V99.9641C64.2857 102.452 63.2524 104.04 61.5767 104.04Z" fill="white"/>
<path d="M68.2203 105.962H70.3289V102.177H72.263C74.3926 102.177 75.803 100.546 75.803 98.0757V98.059C75.803 95.5883 74.3926 93.9577 72.263 93.9577H68.2203V105.962ZM71.7533 95.946C72.9612 95.946 73.6664 96.703 73.6664 98.0674V98.084C73.6664 99.4483 72.9612 100.214 71.7533 100.214H70.3289V95.946H71.7533Z" fill="white"/>
<path d="M78.1386 108.333V105.962H84.7647V108.333H86.6709V103.891H85.4141V93.9577H78.2713L77.9222 100.746C77.8384 102.368 77.6359 103.308 76.9307 103.891H76.2255V108.333H78.1386ZM79.8632 100.929L80.1285 96.0292H83.3055V103.891H79.1929V103.824C79.6398 103.2 79.7864 102.277 79.8632 100.929Z" fill="white"/>
<path d="M92.7071 106.17C95.7024 106.17 97.5667 103.783 97.5667 99.9641V99.9475C97.5667 96.1373 95.6955 93.7498 92.7071 93.7498C89.7257 93.7498 87.8475 96.129 87.8475 99.9475V99.9641C87.8475 103.783 89.7187 106.17 92.7071 106.17ZM92.7071 104.04C91.0523 104.04 89.998 102.476 89.998 99.9641V99.9475C89.998 97.4351 91.0593 95.8794 92.7071 95.8794C94.3619 95.8794 95.4162 97.4434 95.4162 99.9475V99.9641C95.4162 102.452 94.3828 104.04 92.7071 104.04Z" fill="white"/>
<path d="M99.3507 105.962H101.459V100.904H105.998V105.962H108.106V93.9577H105.998V98.8327H101.459V93.9577H99.3507V105.962Z" fill="white"/>
<path d="M110.212 105.962H112.32V100.904H116.859V105.962H118.967V93.9577H116.859V98.8327H112.32V93.9577H110.212V105.962Z" fill="white"/>
<path d="M120.423 105.962H122.644L123.398 103.05H126.966L127.72 105.962H129.94L126.421 93.9577H123.942L120.423 105.962ZM125.164 96.2871H125.206L126.47 101.17H123.886L125.164 96.2871Z" fill="white"/>
<path d="M139.031 106.17C141.475 106.17 143.241 104.348 143.43 101.794L143.437 101.703H141.384L141.37 101.786C141.105 103.209 140.253 104.04 139.038 104.04C137.425 104.04 136.392 102.476 136.392 99.9475V99.9391C136.392 97.4268 137.418 95.8794 139.031 95.8794C140.288 95.8794 141.112 96.7446 141.349 98.0674L141.377 98.2088H143.43L143.423 98.1339C143.234 95.5883 141.482 93.7498 139.031 93.7498C136.091 93.7498 134.234 96.0791 134.234 99.9475V99.9558C134.234 103.824 136.084 106.17 139.031 106.17Z" fill="white"/>
<path d="M145.165 105.962H147.043V97.8427H147.099L149.822 105.962H151.142L153.865 97.8427H153.921V105.962H155.799V93.9577H153.362L150.506 102.585H150.457L147.602 93.9577H145.165V105.962Z" fill="white"/>
<path d="M159.461 106.07C161.256 106.07 162.149 104.964 163.029 102.526L166.115 93.9577H163.895L161.8 100.63H161.716L159.517 93.9577H157.283L160.627 103.1C160.271 103.758 159.817 103.982 159.203 103.982C158.965 103.982 158.728 103.941 158.588 103.907V105.946C158.644 105.979 159.028 106.07 159.461 106.07Z" fill="white"/>
<path d="M169.68 105.962V96.0292H174.064V93.9577H167.571V105.962H169.68Z" fill="white"/>
<path d="M173.817 105.962H176.037L176.791 103.05H180.359L181.113 105.962H183.333L179.814 93.9577H177.336L173.817 105.962ZM178.558 96.2871H178.599L179.863 101.17H177.28L178.558 96.2871Z" fill="white"/>
</svg>
