<svg width="200" height="201" viewBox="0 0 200 201" fill="none" xmlns="http://www.w3.org/2000/svg">
<rect x="36.9786" y="12.8259" width="126.04" height="176.039" rx="8.85404" fill="white" stroke="#13141A" stroke-width="1.04165"/>
<rect x="41.6661" y="17.5132" width="116.665" height="166.664" rx="4.16661" fill="#1071AF"/>
<rect x="49.9993" y="34.1802" width="99.9985" height="99.9985" rx="4.16661" fill="white"/>
<path fill-rule="evenodd" clip-rule="evenodd" d="M69.2313 65.4297H130.766C132.619 65.4297 134.361 66.3099 135.461 67.8012L142.61 77.4969C143.349 78.4996 143.748 79.7127 143.748 80.9586V96.5403C143.748 98.6881 142.007 100.429 139.859 100.429H134.121C134.15 100.109 134.165 99.7847 134.165 99.457C134.165 93.5507 129.377 88.7627 123.47 88.7627C117.564 88.7627 112.776 93.5507 112.776 99.457C112.776 99.7847 112.791 100.109 112.82 100.429H83.2885C83.3173 100.109 83.3321 99.7847 83.3321 99.457C83.3321 93.5507 78.5441 88.7627 72.6378 88.7627C66.7315 88.7627 61.9435 93.5507 61.9435 99.457C61.9435 99.7847 61.9582 100.109 61.9871 100.429H60.138C57.9902 100.429 56.2491 98.6881 56.2491 96.5403V80.9586C56.2491 79.7127 56.648 78.4996 57.3874 77.4969L64.5363 67.8012C65.6358 66.3099 67.3785 65.4297 69.2313 65.4297ZM60.6797 79.4477L67.9148 69.3185H77.6369V80.985L61.4708 80.985C60.68 80.985 60.22 80.0912 60.6797 79.4477ZM137.371 79.4477L130.136 69.3185H120.414V80.985L136.58 80.985C137.371 80.985 137.831 80.0912 137.371 79.4477ZM100.97 69.3185H116.525V80.985H100.97V69.3185ZM97.0811 69.3185H81.5257V80.985H97.0811V69.3185Z" fill="black"/>
<path fill-rule="evenodd" clip-rule="evenodd" d="M72.6378 108.207C77.4702 108.207 81.3877 104.289 81.3877 99.457C81.3877 94.6245 77.4702 90.7071 72.6378 90.7071C67.8054 90.7071 63.8879 94.6245 63.8879 99.457C63.8879 104.289 67.8054 108.207 72.6378 108.207ZM72.6378 104.318C75.3225 104.318 77.4988 102.142 77.4988 99.457C77.4988 96.7723 75.3225 94.5959 72.6378 94.5959C69.9531 94.5959 67.7768 96.7723 67.7768 99.457C67.7768 102.142 69.9531 104.318 72.6378 104.318Z" fill="black"/>
<path fill-rule="evenodd" clip-rule="evenodd" d="M123.47 108.207C128.303 108.207 132.22 104.289 132.22 99.457C132.22 94.6245 128.303 90.7071 123.47 90.7071C118.638 90.7071 114.721 94.6245 114.721 99.457C114.721 104.289 118.638 108.207 123.47 108.207ZM123.47 104.318C126.155 104.318 128.331 102.142 128.331 99.457C128.331 96.7723 126.155 94.5959 123.47 94.5959C120.786 94.5959 118.609 96.7723 118.609 99.457C118.609 102.142 120.786 104.318 123.47 104.318Z" fill="black"/>
</svg>
