<svg width="200" height="200" viewBox="0 0 200 200" fill="none" xmlns="http://www.w3.org/2000/svg">
<rect x="36.9792" y="11.9792" width="126.042" height="176.042" rx="8.85417" fill="white" stroke="#13141A" stroke-width="1.04167"/>
<rect x="41.6667" y="16.667" width="116.667" height="166.667" rx="4.16667" fill="#1071AF"/>
<rect x="50" y="33.333" width="100" height="100" rx="4.16667" fill="white"/>
<path fill-rule="evenodd" clip-rule="evenodd" d="M95.8333 47.9167C95.8333 45.6155 97.6988 43.75 100 43.75H133.333C135.635 43.75 137.5 45.6155 137.5 47.9167V116.667C137.5 118.968 135.635 120.833 133.333 120.833H100C97.6988 120.833 95.8333 118.968 95.8333 116.667V83.3334H91.6667V108.333C91.6667 117.538 84.2047 125 75 125H73.9583C64.1783 125 56.25 117.072 56.25 107.292V106.978C56.25 101.949 58.352 97.1476 62.0479 93.7359L83.3333 74.0879V56.25C83.3333 53.9489 85.1988 52.0834 87.5 52.0834H95.8333V47.9167ZM95.8333 56.25H87.5V75V75.9122L86.8298 76.5309L64.8741 96.7976C62.0327 99.4205 60.4167 103.111 60.4167 106.978V107.292C60.4167 114.771 66.4795 120.833 73.9583 120.833H75C81.9036 120.833 87.5 115.237 87.5 108.333V83.3334C87.5 81.0322 89.3655 79.1667 91.6667 79.1667H95.8333V56.25ZM104.167 52.0833H129.167V72.9166H104.167V52.0833Z" fill="#5CC1EC"/>
<path d="M70.0746 157.388C69.064 156.961 68.3272 156.377 67.8634 155.636C67.4092 154.884 67.1822 154.065 67.1822 153.175C67.1822 151.655 67.7098 150.399 68.7668 149.406C69.8327 148.415 71.3447 147.919 73.3005 147.919C75.2386 147.919 76.7397 148.415 77.8058 149.406C78.8818 150.398 79.4193 151.655 79.4193 153.175C79.4193 154.121 79.174 154.964 78.682 155.706C78.1904 156.438 77.4998 156.999 76.6099 157.388C77.7409 157.843 78.5986 158.506 79.1826 159.377C79.7761 160.248 80.0733 161.253 80.0733 162.395C80.0733 164.277 79.4706 165.806 78.2654 166.984C77.0698 168.161 75.4742 168.75 73.4808 168.75C71.6265 168.75 70.0829 168.264 68.8501 167.291C67.3945 166.14 66.6667 164.564 66.6667 162.562C66.6667 161.458 66.9403 160.448 67.4874 159.53C68.035 158.602 68.8974 157.888 70.0746 157.388ZM70.8809 153.452C70.8809 154.231 71.0992 154.838 71.5349 155.274C71.98 155.71 72.5683 155.928 73.3012 155.928C74.0424 155.928 74.6367 155.71 75.0811 155.274C75.5261 154.828 75.7485 154.217 75.7485 153.438C75.7485 152.707 75.5261 152.122 75.0811 151.687C74.645 151.242 74.0658 151.019 73.3428 151.019C72.5917 151.019 71.9943 151.242 71.5487 151.687C71.1038 152.131 70.8809 152.719 70.8809 153.452ZM70.5196 162.186C70.5196 163.262 70.7937 164.1 71.3403 164.702C71.8972 165.305 72.5873 165.606 73.4118 165.606C74.2181 165.606 74.8864 165.319 75.4145 164.744C75.9432 164.16 76.2076 163.321 76.2076 162.227C76.2076 161.272 75.9385 160.507 75.4013 159.932C74.8638 159.348 74.1823 159.056 73.3573 159.056C72.4017 159.056 71.6878 159.386 71.2157 160.044C70.7511 160.703 70.5196 161.416 70.5196 162.186ZM89.1821 147.917C91.157 147.917 92.7007 148.622 93.8133 150.031C95.1387 151.7 95.8017 154.467 95.8017 158.333C95.8017 162.19 95.1348 164.962 93.7993 166.649C92.696 168.039 91.157 168.735 89.1821 168.735C87.1982 168.735 85.5991 167.975 84.3845 166.454C83.1699 164.925 82.5626 162.204 82.5626 158.292C82.5626 154.454 83.2299 151.69 84.5654 150.003C85.6684 148.613 87.2076 147.917 89.1821 147.917ZM89.1821 151.158C88.7095 151.158 88.2877 151.311 87.9169 151.617C87.5458 151.914 87.2585 152.452 87.0547 153.23C86.7859 154.241 86.6512 155.942 86.6512 158.334C86.6512 160.726 86.7719 162.372 87.0129 163.271C87.2546 164.161 87.5559 164.754 87.9169 165.05C88.2877 165.347 88.7095 165.496 89.1821 165.496C89.6552 165.496 90.0769 165.347 90.4478 165.05C90.8189 164.744 91.1059 164.202 91.3099 163.423C91.5788 162.422 91.7132 160.725 91.7132 158.333C91.7132 155.942 91.5925 154.301 91.3517 153.41C91.1098 152.511 90.8046 151.913 90.4337 151.616C90.0725 151.311 89.6552 151.158 89.1821 151.158ZM105.036 147.917C107.01 147.917 108.554 148.622 109.667 150.031C110.992 151.7 111.655 154.467 111.655 158.333C111.655 162.19 110.988 164.962 109.653 166.649C108.549 168.039 107.01 168.735 105.036 168.735C103.052 168.735 101.452 167.975 100.238 166.454C99.0235 164.925 98.4162 162.204 98.4162 158.292C98.4162 154.454 99.0832 151.69 100.419 150.003C101.522 148.613 103.06 147.917 105.036 147.917ZM105.036 151.158C104.563 151.158 104.141 151.311 103.77 151.617C103.399 151.914 103.112 152.452 102.908 153.23C102.639 154.241 102.504 155.942 102.504 158.334C102.504 160.726 102.625 162.372 102.866 163.271C103.108 164.161 103.409 164.754 103.77 165.05C104.141 165.347 104.563 165.496 105.036 165.496C105.508 165.496 105.93 165.347 106.301 165.05C106.672 164.744 106.959 164.202 107.163 163.423C107.432 162.422 107.567 160.725 107.567 158.333C107.567 155.942 107.446 154.301 107.205 153.41C106.964 152.511 106.658 151.913 106.287 151.616C105.926 151.311 105.508 151.158 105.036 151.158ZM115.229 153.619H120.068L123.74 163.91L127.439 153.619H132.264V168.388H128.941V158.667L125.338 168.388H122.002L118.567 158.667V168.388H115.23L115.229 153.619Z" fill="white"/>
</svg>
