<svg width="200" height="201" viewBox="0 0 200 201" fill="none" xmlns="http://www.w3.org/2000/svg">
<rect x="1.56254" y="146.687" width="92.7084" height="196.875" rx="8.85417" transform="rotate(-90 1.56254 146.687)" fill="white" stroke="#13141A" stroke-width="1.04167"/>
<rect x="6.77083" y="141.479" width="82.2917" height="186.458" rx="3.64583" transform="rotate(-90 6.77083 141.479)" stroke="black" stroke-width="1.04167"/>
<path d="M6.25 129.5H193.75V137.833C193.75 140.134 191.885 142 189.583 142H10.4167C8.11548 142 6.25 140.134 6.25 137.833V129.5Z" fill="black"/>
<path d="M104.167 117H193.75V129.5H104.167V117Z" fill="black"/>
<path fill-rule="evenodd" clip-rule="evenodd" d="M123.203 75.5253C122.176 75.9892 121.227 77.001 120.852 77.5672L117.09 81.8833L109.049 91.4464C108.217 92.0913 108.148 94.9056 108.648 95.99L110.76 102.977C110.917 103.547 112.31 105.188 113.016 105.193L115.401 105.404C116.147 102.297 118.484 99.6067 121.706 98.695C124.929 97.7834 128.152 98.9006 130.341 101.177C132.032 102.814 132.39 104.892 132.774 107.123L132.816 107.371C132.816 107.403 132.829 107.432 132.841 107.462C132.854 107.491 132.867 107.521 132.866 107.552L151.523 107.69L165.549 107.563C165.518 103.573 168.186 99.8253 172.137 98.7075C176.836 97.378 181.67 100.223 182.978 104.992C183.002 105.077 183.026 105.159 183.051 105.24C183.1 105.4 183.148 105.557 183.179 105.723L184.619 105.316C185.325 105.321 186.677 104.381 186.762 103.232L187.434 96.1473C187.849 93.9849 186.207 92.9654 185.259 92.824L169.789 89.8148L166.484 89.0769C165.486 88.7447 163.708 88.1199 163.312 87.4126L155.894 77.6952C155.181 76.5672 153.733 75.1683 151.574 75.3728L142.668 75.4315L124.217 75.3327C123.886 75.3255 123.545 75.3716 123.203 75.5253ZM126.505 78.7281C127.061 78.5095 127.668 78.5153 128.358 78.522C128.555 78.5239 128.758 78.5258 128.969 78.5227L143.547 78.6332L150.117 78.5452C151.955 78.6396 153.377 79.9199 154.473 81.349L157.764 86.6223C158.742 87.9838 158.323 90.8216 155.99 90.7665L146.903 90.8765L127.004 90.7935C122.629 91.0103 121.889 87.5994 123.001 85.0352L124.579 81.2423C125.16 79.6948 125.79 79.006 126.505 78.7281Z" fill="black"/>
<path fill-rule="evenodd" clip-rule="evenodd" d="M172.511 99.7851C168.482 100.925 166.015 105.212 167.138 109.302C168.26 113.393 172.553 115.77 176.584 114.63C180.613 113.49 182.981 109.228 181.858 105.138C180.736 101.047 176.539 98.6454 172.511 99.7851ZM173.419 103.095C175.662 102.46 177.874 103.813 178.498 106.088C179.122 108.363 177.916 110.683 175.675 111.317C173.435 111.951 171.123 110.626 170.498 108.351C169.874 106.077 171.176 103.73 173.419 103.095Z" fill="black"/>
<path fill-rule="evenodd" clip-rule="evenodd" d="M116.469 109.218C115.347 105.128 117.814 100.841 121.842 99.7014C125.871 98.5616 130.067 100.963 131.19 105.054C132.312 109.144 129.947 113.406 125.916 114.546C121.884 115.687 117.592 113.309 116.469 109.218ZM127.829 106.005C127.205 103.73 124.991 102.377 122.75 103.011C120.51 103.645 119.205 105.993 119.83 108.268C120.454 110.543 122.766 111.867 125.007 111.233C127.247 110.599 128.454 108.282 127.829 106.005Z" fill="black"/>
</svg>
