<svg width="200" height="201" viewBox="0 0 200 201" fill="none" xmlns="http://www.w3.org/2000/svg">
<path d="M174.314 169.605H25.6864C18.3215 169.605 13.7368 161.632 17.4754 155.303L91.789 29.4906C95.4728 23.254 104.527 23.254 108.211 29.4906L182.525 155.303C186.263 161.632 181.679 169.605 174.314 169.605Z" fill="#FF0E00" stroke="black" stroke-width="1.04167"/>
<path d="M25.6864 167.001H174.314C179.681 167.001 182.986 161.204 180.283 156.627L105.969 30.815C103.293 26.2848 96.7071 26.2848 94.0313 30.815L19.7176 156.627C17.014 161.204 20.3189 167.001 25.6864 167.001Z" fill="#FF0E00" stroke="white" stroke-width="4.16667"/>
<path fill-rule="evenodd" clip-rule="evenodd" d="M35.9376 154.502L100 45.7646L164.063 154.502H35.9376Z" fill="white"/>
<path d="M89.5834 92.1986L99.9992 83.667L110.416 92.1986L110.417 146.167L99.9992 138.074L89.5842 146.167L89.5834 92.1986Z" fill="black"/>
<rect x="75.0001" y="104.5" width="14.5833" height="12.5" fill="black"/>
</svg>
