<svg width="200" height="201" viewBox="0 0 200 201" fill="none" xmlns="http://www.w3.org/2000/svg">
<rect x="1.56254" y="147.02" width="92.7084" height="196.875" rx="8.85417" transform="rotate(-90 1.56254 147.02)" fill="white" stroke="#13141A" stroke-width="1.04167"/>
<rect x="6.77083" y="141.811" width="82.2917" height="186.458" rx="3.64583" transform="rotate(-90 6.77083 141.811)" stroke="black" stroke-width="1.04167"/>
<path d="M133.036 97.9589H129.253V95.4864C129.253 94.1714 128.184 93.1041 126.871 93.1041C125.555 93.1041 124.488 94.1714 124.488 95.4864V97.9589H105.427L118.904 84.4822L120.655 86.2322C121.12 86.6974 121.728 86.9305 122.339 86.9305C122.948 86.9305 123.559 86.6983 124.023 86.2322C124.952 85.3018 124.952 83.7936 124.023 82.8632L122.272 81.1122L124.949 78.4367C125.878 77.5063 125.878 75.9981 124.949 75.0678C124.019 74.1374 122.509 74.1374 121.58 75.0678L118.903 77.7433L117.156 75.9952C116.227 75.0648 114.716 75.0648 113.787 75.9952C112.856 76.9256 112.856 78.4338 113.787 79.3642L115.534 81.1122L102.06 94.59V74.8852H104.534C105.849 74.8852 106.916 73.8179 106.916 72.5029C106.916 71.188 105.848 70.1207 104.534 70.1207H102.06V67.6316C102.06 66.3167 100.993 65.2494 99.6771 65.2494C98.3612 65.2494 97.2949 66.3167 97.2949 67.6316V70.1207H94.8213C93.5064 70.1207 92.4391 71.188 92.4391 72.5029C92.4391 73.8179 93.5064 74.8852 94.8213 74.8852H97.2949V94.5919L83.3597 80.6568L85.1098 78.9068C86.0401 77.9764 86.0401 76.4682 85.1098 75.5378C84.1794 74.6074 82.6712 74.6074 81.7408 75.5378L79.9908 77.2878L78.2301 75.5271C77.2997 74.5968 75.7915 74.5968 74.8611 75.5271C73.9308 76.4575 73.9308 77.9657 74.8611 78.8961L76.6218 80.6568L74.8728 82.4058C73.9424 83.3362 73.9424 84.8444 74.8728 85.7748C75.338 86.24 75.9469 86.473 76.5568 86.473C77.1667 86.473 77.7756 86.2409 78.2408 85.7748L79.9898 84.0257L93.925 97.9609H74.2192V95.4864C74.2192 94.1714 73.1519 93.1041 71.8369 93.1041C70.522 93.1041 69.4547 94.1714 69.4547 95.4864V97.9609H66.9656C65.6497 97.9609 64.5834 99.0282 64.5834 100.343C64.5834 101.658 65.6507 102.725 66.9656 102.725H69.4547V105.198C69.4547 106.513 70.522 107.58 71.8369 107.58C73.1519 107.58 74.2192 106.513 74.2192 105.198V102.725H93.9259L79.9908 116.66L78.2408 114.91C77.3104 113.978 75.8022 113.978 74.8718 114.91C73.9414 115.84 73.9414 117.348 74.8718 118.278L76.6218 120.028L74.8611 121.789C73.9308 122.72 73.9308 124.228 74.8611 125.158C75.3263 125.623 75.9352 125.856 76.5451 125.856C77.155 125.856 77.7639 125.624 78.2291 125.158L79.9898 123.397L81.7389 125.146C82.2041 125.612 82.813 125.845 83.4229 125.845C84.0327 125.845 84.6417 125.613 85.1069 125.146C86.0372 124.216 86.0372 122.708 85.1069 121.778L83.3578 120.028L97.2929 106.092V125.152H94.8194C93.5045 125.152 92.4371 126.22 92.4371 127.535C92.4371 128.85 93.5045 129.917 94.8194 129.917H97.2929V133.7C97.2929 135.015 98.3602 136.083 99.6752 136.083C100.99 136.083 102.058 135.015 102.058 133.7V129.918H104.532C105.847 129.918 106.914 128.85 106.914 127.536C106.914 126.221 105.846 125.153 104.532 125.153H102.058V106.093L115.535 119.57L113.786 121.32C112.855 122.25 112.855 123.76 113.786 124.689C114.251 125.154 114.859 125.387 115.47 125.387C116.079 125.387 116.69 125.154 117.154 124.689L118.903 122.939L121.58 125.615C122.045 126.08 122.653 126.313 123.264 126.313C123.873 126.313 124.483 126.081 124.948 125.615C125.877 124.684 125.877 123.176 124.948 122.246L122.271 119.569L124.02 117.82C124.95 116.89 124.95 115.381 124.02 114.451C123.089 113.52 121.581 113.522 120.651 114.451L118.902 116.2L105.425 102.723H124.484V105.198C124.484 106.513 125.551 107.58 126.867 107.58C128.182 107.58 129.249 106.513 129.249 105.198V102.723H133.033C134.347 102.723 135.415 101.656 135.415 100.341C135.415 99.0262 134.351 97.9589 133.036 97.9589Z" fill="#107BBB"/>
</svg>
