<svg width="200" height="201" viewBox="0 0 200 201" fill="none" xmlns="http://www.w3.org/2000/svg">
<rect x="30.7287" y="31.5335" width="138.54" height="138.54" rx="8.85404" fill="white" stroke="#13141A" stroke-width="1.04165"/>
<rect x="35.4161" y="36.2207" width="129.165" height="129.165" rx="4.16661" fill="#1071AF"/>
<path fill-rule="evenodd" clip-rule="evenodd" d="M97.9152 111.22H102.082V125.993H97.9152V111.22ZM97.9152 130.915H102.082V145.688H97.9152V130.915ZM102.082 150.612H97.9152V165.385H102.082V150.612Z" fill="white"/>
<path d="M58.3325 73.721L85.4155 73.721L71.874 50.8047L58.3325 73.721Z" fill="white"/>
<path d="M105.817 75.7712L124.967 56.6207L99.1878 49.9916L105.817 75.7712Z" fill="white"/>
<path d="M71.8739 67.47V165.385" stroke="white" stroke-width="10.4165"/>
<path d="M113.54 64.3462L123.08 74.5681C126.321 78.04 128.123 82.6123 128.123 87.3614V165.386" stroke="white" stroke-width="10.4165"/>
</svg>
