<svg width="200" height="200" viewBox="0 0 200 200" fill="none" xmlns="http://www.w3.org/2000/svg">
<circle cx="100" cy="100.001" r="82.8125" fill="white" stroke="#05081B" stroke-width="1.04167"/>
<circle cx="100" cy="100.001" r="71.875" stroke="#FF0E00" stroke-width="12.5"/>
<rect x="66.6667" y="91.668" width="66.6667" height="4.16667" fill="black"/>
<rect x="66.6667" y="100.001" width="8.33333" height="25" rx="2.08333" fill="black"/>
<rect x="114.583" y="100.001" width="8.33333" height="25" rx="2.08333" fill="black"/>
<rect x="81.2501" y="110.418" width="37.5" height="4.16667" fill="black"/>
<rect x="77.0834" y="100.001" width="8.33333" height="25" rx="2.08333" fill="black"/>
<rect x="125" y="100.001" width="8.33333" height="25" rx="2.08333" fill="black"/>
<circle cx="100" cy="112.501" r="6.25" fill="black"/>
<path d="M134.375 68.7503C134.375 73.9834 130.762 78.9092 124.515 82.5839C118.292 86.2444 109.627 88.542 100 88.542C90.3728 88.542 81.7077 86.2444 75.4849 82.5839C69.2379 78.9092 65.6251 73.9834 65.6251 68.7503C65.6251 63.5173 69.2379 58.5915 75.4849 54.9168C81.7077 51.2563 90.3728 48.9587 100 48.9587C109.627 48.9587 118.292 51.2563 124.515 54.9168C130.762 58.5915 134.375 63.5173 134.375 68.7503Z" fill="#FFE600" stroke="black" stroke-width="2.08333"/>
<path d="M137.5 132.417C136.236 132.093 135.025 131.711 133.809 131.328L133.632 131.272C130.204 130.179 126.86 129.167 122.247 129.167C117.851 129.167 114.545 130.218 111.258 131.263C109.681 131.765 108.109 132.265 106.422 132.647C104.528 132.983 102.633 133.294 100.389 133.294C100.259 133.294 100.129 133.293 99.9999 133.291C99.871 133.293 99.7412 133.294 99.6105 133.294C97.3664 133.294 95.472 132.983 93.5777 132.647C91.8911 132.265 90.3186 131.765 88.7417 131.263C85.455 130.218 82.1493 129.167 77.7524 129.167C73.1403 129.167 69.796 130.179 66.3679 131.272L66.1911 131.328C64.975 131.711 63.764 132.093 62.4999 132.417V136.541C63.7626 136.217 64.9725 135.836 66.1874 135.452L66.3643 135.397C69.796 134.301 73.1366 133.292 77.7487 133.292C82.1418 133.292 85.4454 134.342 88.7293 135.386C90.3091 135.889 91.8843 136.39 93.574 136.771C95.4647 137.108 97.3591 137.419 99.6069 137.419C99.7388 137.419 99.8698 137.418 99.9999 137.416C100.13 137.418 100.261 137.419 100.393 137.419C102.641 137.419 104.535 137.108 106.426 136.771C108.115 136.39 109.691 135.889 111.27 135.386C114.554 134.342 117.858 133.292 122.251 133.292C126.863 133.292 130.204 134.301 133.636 135.397L133.812 135.452C135.027 135.836 136.237 136.217 137.5 136.541V132.417Z" fill="#1071AF"/>
<path d="M137.5 140.698C136.401 140.403 135.342 140.066 134.285 139.73C134.07 139.662 133.851 139.592 133.636 139.524C130.207 138.431 126.863 137.419 122.251 137.419C117.854 137.419 114.549 138.47 111.262 139.515C109.685 140.017 108.113 140.517 106.426 140.899C104.531 141.318 102.637 141.626 100.393 141.626C100.261 141.626 100.13 141.625 99.9999 141.623C99.8698 141.625 99.7388 141.626 99.6069 141.626C97.3628 141.626 95.4684 141.318 93.574 140.899C91.8873 140.517 90.3148 140.017 88.7379 139.515C85.4512 138.47 82.1456 137.419 77.7487 137.419C73.1366 137.419 69.7923 138.431 66.3643 139.524C66.148 139.592 65.9319 139.661 65.7158 139.73C64.6586 140.066 63.5993 140.403 62.4999 140.698V144.905C63.6036 144.609 64.667 144.271 65.7286 143.933L66.3643 143.731C69.796 142.636 73.1366 141.626 77.7487 141.626C82.1418 141.626 85.4454 142.677 88.7293 143.721C90.3091 144.223 91.8843 144.724 93.574 145.106C95.4647 145.526 97.3591 145.834 99.6069 145.834C99.7388 145.834 99.8698 145.833 99.9999 145.831C100.13 145.833 100.261 145.834 100.393 145.834C102.641 145.834 104.535 145.526 106.426 145.106C108.116 144.724 109.691 144.223 111.27 143.721C114.554 142.677 117.858 141.626 122.251 141.626C126.863 141.626 130.204 142.636 133.636 143.731L134.271 143.933C135.332 144.271 136.396 144.609 137.5 144.905V140.698Z" fill="#1071AF"/>
<path d="M66.6667 87.501H75L85.4167 93.751H66.6667V87.501Z" fill="black"/>
<path d="M66.6667 87.501H75L85.4167 93.751H66.6667V87.501Z" fill="black"/>
<path d="M66.6667 87.501H75L85.4167 93.751H66.6667V87.501Z" fill="black"/>
<path d="M133.333 87.501H125L114.583 93.751H133.333V87.501Z" fill="black"/>
<path d="M133.333 87.501H125L114.583 93.751H133.333V87.501Z" fill="black"/>
<path d="M133.333 87.501H125L114.583 93.751H133.333V87.501Z" fill="black"/>
</svg>
