<svg width="200" height="201" viewBox="0 0 200 201" fill="none" xmlns="http://www.w3.org/2000/svg">
<rect x="-0.520833" y="0.520833" width="198.958" height="44.7917" rx="7.8125" transform="matrix(-1 0 0 1 198.958 75.666)" fill="white" stroke="#13141A" stroke-width="1.04167"/>
<rect width="191.667" height="37.5" rx="4.16667" transform="matrix(-1 0 0 1 195.834 79.8311)" fill="#FF0E00"/>
<path d="M108.333 79.833H125.272L143.75 98.583L125.272 117.333H108.333L126.812 98.583L108.333 79.833Z" fill="white"/>
<path d="M43.75 79.833H26.8116L8.33334 98.583L26.8116 117.333H43.75L25.2717 98.583L43.75 79.833Z" fill="white"/>
<path d="M91.6667 79.833H74.7283L56.2501 98.583L74.7283 117.333H91.6667L73.1885 98.583L91.6667 79.833Z" fill="white"/>
<path d="M156.25 79.833H173.188L191.667 98.583L173.188 117.333H156.25L174.728 98.583L156.25 79.833Z" fill="white"/>
</svg>
