<svg width="200" height="201" viewBox="0 0 200 201" fill="none" xmlns="http://www.w3.org/2000/svg">
<path d="M25.6863 169.937H174.314C181.678 169.937 186.263 161.965 182.525 155.635L108.211 29.8228C104.527 23.5863 95.4727 23.5863 91.7889 29.8228L17.4753 155.635C13.7367 161.965 18.3214 169.937 25.6863 169.937Z" fill="#FF0E00" stroke="black" stroke-width="1.04167"/>
<path d="M174.314 167.333H25.6863C20.3188 167.333 17.0139 161.537 19.7175 156.96L94.0312 31.1473C96.707 26.617 103.293 26.617 105.969 31.1473L180.282 156.96C182.986 161.537 179.681 167.333 174.314 167.333Z" fill="#FF0E00" stroke="white" stroke-width="4.16667"/>
<path fill-rule="evenodd" clip-rule="evenodd" d="M164.062 154.833L99.9999 46.0957L35.9374 154.833H164.062Z" fill="#FFE600"/>
<path d="M127.217 105.462L125.125 99.1185C124.672 97.7505 124.301 96.5006 123.298 96.5006H102.049C101.045 96.5006 100.646 97.7417 100.221 99.1185L98.2636 105.476C97.4842 105.561 96.8406 105.996 96.6018 106.569H87.2264C86.0901 106.569 85.6391 107.975 85.1589 109.535L83.6133 114.552H65.4334C64.1479 114.552 63.6392 116.142 63.096 117.903L60.589 126.042C59.3186 126.18 58.3333 127.044 58.3333 128.08V138.364C58.3333 139.206 58.9831 139.935 59.9072 140.251V147.708C59.9072 148.409 60.4807 148.984 61.1829 148.984H63.5212C64.2225 148.984 64.7969 148.411 64.7969 147.708V140.42H92.852V147.708C92.852 148.409 93.4254 148.984 94.1276 148.984H96.4651C97.1664 148.984 97.7407 148.411 97.7407 147.708V140.415C99.0874 140.333 100.157 139.442 100.157 138.363V129.439H111.467V135.881C111.467 136.501 111.974 137.01 112.595 137.01H114.66C115.28 137.01 115.788 136.503 115.788 135.881V129.433C116.979 129.362 117.924 128.574 117.924 127.621V118.528C117.924 117.553 116.94 116.753 115.716 116.712L115.71 116.705H123.462V122.396C123.462 122.944 123.909 123.393 124.457 123.393H126.283C126.831 123.393 127.28 122.944 127.28 122.396V116.7C128.331 116.637 129.167 115.942 129.167 115.098V107.064C129.167 106.207 128.298 105.499 127.217 105.462ZM90.7605 128.582H67.492C66.393 128.582 62.4843 127.531 62.9477 126.186L65.4928 118.812C65.9571 117.468 66.393 116.255 67.492 116.255H90.7596C91.8595 116.255 92.2652 117.475 92.7596 118.812L95.4859 126.186C95.9804 127.523 91.8595 128.582 90.7605 128.582ZM109.616 118.975H95.3296V118.974L94.9772 117.906C94.4002 116.155 93.9244 114.555 92.6389 114.555H85.822L87.2779 110.338C87.6889 109.148 88.0733 108.075 89.0462 108.075H109.616C110.59 108.075 110.948 109.155 111.384 110.338L113.795 116.856C114.231 118.037 110.59 118.975 109.616 118.975ZM121.83 107.457H112.537C112.228 106.918 111.842 106.571 111.278 106.571H100.729C100.266 106.287 99.9805 105.95 100.106 105.587L102.093 99.827C102.455 98.7768 102.795 97.8296 103.656 97.8296H121.829C122.689 97.8296 123.005 98.783 123.391 99.827L125.521 105.587C125.908 106.631 122.689 107.457 121.83 107.457Z" fill="black" stroke="black" stroke-width="0.00958333"/>
</svg>
