<svg width="200" height="200" viewBox="0 0 200 200" fill="none" xmlns="http://www.w3.org/2000/svg">
<rect y="16.667" width="200" height="166.667" fill="#68696C"/>
<path fill-rule="evenodd" clip-rule="evenodd" d="M90.7261 91.6673H85.4166L97.2779 33.334H102.745L114.583 91.6673H109.274L107.312 81.297H92.7025L90.7261 91.6673ZM100.056 42.9954H99.9663L95.086 68.6251H104.914L100.056 42.9954Z" fill="white"/>
<path fill-rule="evenodd" clip-rule="evenodd" d="M85.6147 120.834C83.5347 120.834 81.7712 122.363 81.477 124.423C81.1914 126.422 82.3767 128.34 84.293 128.979L86.6972 129.78L80.871 139.976C79.0439 139.142 77.0128 138.677 74.8732 138.677C66.889 138.677 60.4166 145.149 60.4166 153.134C60.4166 161.118 66.889 167.59 74.8732 167.59C82.8573 167.59 89.3297 161.118 89.3297 153.134C89.3297 148.233 86.8911 143.902 83.1611 141.287L84.7118 138.573L101.867 154.11C102.11 154.33 102.426 154.452 102.753 154.452H110.73C111.395 161.818 117.587 167.59 125.127 167.59C133.111 167.59 139.583 161.118 139.583 153.134C139.583 145.149 133.111 138.677 125.127 138.677C122.632 138.677 120.286 139.309 118.238 140.421L113.366 133.114V128.979H117.554C118.282 128.979 118.873 128.388 118.873 127.66C118.873 126.931 118.282 126.34 117.554 126.34L105.851 126.34C105.122 126.34 104.531 126.931 104.531 127.66C104.531 128.388 105.122 128.979 105.851 128.979L110.727 128.979V132.193H88.3575L89.7869 129.692C89.983 129.349 90.0149 128.936 89.8738 128.567C89.7328 128.197 89.4335 127.911 89.0585 127.786L85.1275 126.475C84.421 126.24 83.9841 125.533 84.0894 124.796C84.1978 124.037 84.8479 123.473 85.6147 123.473H92.4275C93.1562 123.473 93.747 122.882 93.747 122.153C93.747 121.425 93.1562 120.834 92.4275 120.834H85.6147ZM116.043 141.887L112.241 136.183L104.837 151.813H110.73C111.092 147.81 113.087 144.277 116.043 141.887ZM113.382 151.813C113.726 148.724 115.259 145.995 117.515 144.094L122.661 151.813L113.382 151.813ZM113.382 154.452L125.126 154.452C125.613 154.452 126.06 154.184 126.289 153.755C126.519 153.326 126.494 152.805 126.224 152.401L119.709 142.628C121.332 141.79 123.174 141.316 125.127 141.316C131.653 141.316 136.944 146.607 136.944 153.134C136.944 159.66 131.653 164.951 125.127 164.951C119.046 164.951 114.037 160.358 113.382 154.452ZM74.8732 141.316C76.5363 141.316 78.1192 141.66 79.5547 142.28L73.7276 152.477C73.366 153.11 73.5858 153.916 74.2185 154.277C74.8512 154.639 75.6572 154.419 76.0188 153.786L81.8449 143.591C84.7828 145.74 86.6908 149.214 86.6908 153.134C86.6908 159.66 81.3999 164.951 74.8732 164.951C68.3465 164.951 63.0555 159.66 63.0555 153.134C63.0555 146.607 68.3465 141.316 74.8732 141.316ZM86.8496 134.832L86.0525 136.227L102.321 150.961L109.961 134.832H86.8496Z" fill="white"/>
</svg>
