<svg width="200" height="201" viewBox="0 0 200 201" fill="none" xmlns="http://www.w3.org/2000/svg">
<circle cx="100" cy="100.668" r="82.8125" fill="white" stroke="#05081B" stroke-width="1.04167"/>
<circle cx="100" cy="100.667" r="71.875" stroke="#FF0E00" stroke-width="12.5"/>
<path d="M56.25 115.133L68.0493 113.923C68.3865 116.567 69.3838 118.668 71.0413 120.227C72.6988 121.758 74.6092 122.523 76.7724 122.523C79.2446 122.523 81.3376 121.535 83.0513 119.559C84.765 117.555 85.6219 114.549 85.6219 110.541C85.6219 106.783 84.765 103.972 83.0513 102.107C81.3657 100.215 79.1604 99.2684 76.4353 99.2684C73.0359 99.2684 69.9878 100.757 67.2908 103.736L57.6828 102.358L63.751 70.5025H95.0613V81.4828H72.7269L70.8727 91.8786C73.5135 90.5704 76.2105 89.9163 78.9637 89.9163C84.2172 89.9163 88.67 91.809 92.3222 95.5944C95.9744 99.3797 97.8005 104.292 97.8005 110.332C97.8005 115.37 96.3255 119.865 93.3757 123.817C89.3583 129.217 83.7817 131.917 76.646 131.917C70.943 131.917 66.2935 130.4 62.6975 127.366C59.1015 124.332 56.9524 120.255 56.25 115.133Z" fill="black"/>
<path d="M123.691 69.417C129.675 69.417 134.353 71.5323 137.724 75.763C141.741 80.773 143.75 89.0813 143.75 100.688C143.75 112.267 141.727 120.589 137.682 125.654C134.339 129.829 129.675 131.917 123.691 131.917C117.679 131.917 112.833 129.635 109.153 125.07C105.472 120.477 103.632 112.308 103.632 100.563C103.632 89.0396 105.655 80.7452 109.701 75.6795C113.044 71.5045 117.707 69.417 123.691 69.417ZM123.691 79.1448C122.258 79.1448 120.98 79.604 119.856 80.5225C118.733 81.4132 117.862 83.0275 117.244 85.3656C116.429 88.3994 116.022 93.5068 116.022 100.688C116.022 107.869 116.387 112.809 117.117 115.509C117.848 118.181 118.761 119.963 119.856 120.853C120.98 121.744 122.258 122.189 123.691 122.189C125.124 122.189 126.402 121.744 127.526 120.853C128.65 119.935 129.521 118.306 130.139 115.968C130.953 112.962 131.361 107.869 131.361 100.688C131.361 93.5068 130.996 88.5803 130.265 85.9083C129.535 83.2085 128.608 81.4132 127.484 80.5225C126.388 79.604 125.124 79.1448 123.691 79.1448Z" fill="black"/>
</svg>
