<svg width="200" height="201" viewBox="0 0 200 201" fill="none" xmlns="http://www.w3.org/2000/svg">
<path d="M25.6863 169.607H174.314C181.678 169.607 186.263 161.634 182.525 155.305L108.211 29.4925C104.527 23.256 95.4727 23.256 91.7889 29.4925L17.4753 155.305C13.7367 161.634 18.3214 169.607 25.6863 169.607Z" fill="#FF0E00" stroke="black" stroke-width="1.04167"/>
<path d="M174.314 167.003H25.6863C20.3188 167.003 17.0139 161.206 19.7175 156.629L94.0312 30.8169C96.707 26.2867 103.293 26.2867 105.969 30.8169L180.282 156.629C182.986 161.206 179.681 167.003 174.314 167.003Z" fill="#FF0E00" stroke="white" stroke-width="4.16667"/>
<path fill-rule="evenodd" clip-rule="evenodd" d="M164.062 154.502L99.9999 45.7651L35.9374 154.502H164.062Z" fill="white"/>
<path fill-rule="evenodd" clip-rule="evenodd" d="M158.333 151.378L64.5833 112.836L41.6666 151.378H158.333Z" fill="#05081B"/>
<path d="M82.7716 114.187L85.8077 115.427L93.4209 96.7865L90.3746 95.5424L85.2205 97.3413L83.8066 100.803L88.8624 99.1L88.9233 99.1249L82.7716 114.187Z" fill="black"/>
<path d="M95.2161 119.647C98.9326 121.165 102.701 118.378 105.123 112.448L105.133 112.423C107.555 106.493 106.81 101.878 103.093 100.36C99.3765 98.8421 95.6133 101.616 93.1917 107.545L93.1811 107.571C90.7594 113.501 91.4995 118.129 95.2161 119.647ZM96.4929 116.521C94.665 115.774 94.6057 112.931 96.2782 108.836L96.2888 108.81C97.9612 104.715 99.9885 102.74 101.816 103.486C103.644 104.233 103.709 107.063 102.036 111.158L102.026 111.183C100.353 115.279 98.3207 117.267 96.4929 116.521Z" fill="black"/>
<path d="M110.582 114.994C112.684 115.853 114.738 114.506 115.968 111.497L115.973 111.484C117.197 108.487 116.672 106.087 114.57 105.228C112.458 104.366 110.404 105.712 109.18 108.709L109.174 108.722C107.945 111.732 108.47 114.132 110.582 114.994ZM108.402 124.655L125.266 109.792L123.011 108.872L106.137 123.73L108.402 124.655ZM111.458 112.85C110.635 112.514 110.574 111.359 111.297 109.589L111.302 109.576C112.019 107.819 112.872 107.037 113.695 107.373C114.507 107.704 114.558 108.856 113.841 110.613L113.835 110.626C113.112 112.395 112.27 113.182 111.458 112.85ZM116.842 128.298C118.944 129.157 120.999 127.81 122.228 124.8L122.234 124.788C123.458 121.791 122.933 119.391 120.831 118.532C118.719 117.67 116.664 119.016 115.44 122.013L115.435 122.026C114.206 125.036 114.73 127.436 116.842 128.298ZM117.718 126.154C116.896 125.818 116.835 124.663 117.557 122.893L117.563 122.88C118.28 121.123 119.133 120.341 119.955 120.677C120.768 121.008 120.819 122.16 120.101 123.917L120.096 123.93C119.373 125.699 118.531 126.486 117.718 126.154Z" fill="black"/>
</svg>
