<svg width="200" height="201" viewBox="0 0 200 201" fill="none" xmlns="http://www.w3.org/2000/svg">
<rect x="0.520833" y="-0.520833" width="126.042" height="176.042" rx="8.85417" transform="matrix(-1 0 0 1 163.542 12.8375)" fill="white" stroke="#13141A" stroke-width="1.04167"/>
<rect x="-1.04167" y="1.04167" width="114.583" height="164.583" rx="3.125" transform="matrix(-1 0 0 1 156.25 17.0031)" fill="white" stroke="#13141A" stroke-width="2.08333"/>
<path d="M59.1218 37.6803L54.5769 36.3913C55.5554 31.7995 58.338 29.5037 62.925 29.5037C65.6393 29.5037 67.6855 30.2348 69.0637 31.6969C70.4525 33.1463 71.1468 34.8522 71.1468 36.8146C71.1468 38.1613 70.8312 39.3798 70.2 40.47C69.5687 41.5474 68.6219 42.4966 67.3594 43.3174C68.8954 43.9587 70.0474 44.8694 70.8154 46.0494C71.5834 47.2166 71.9674 48.6595 71.9674 50.3782C71.9674 52.8537 71.2205 54.8546 69.7265 56.3809C68.2431 57.9072 66.018 58.6703 63.0512 58.6703C60.6315 58.6703 58.722 58.1829 57.3228 57.2082C55.9236 56.2205 54.8715 54.38 54.1666 51.6865L58.4432 49.9742C58.8851 51.6673 59.469 52.7639 60.1949 53.2641C60.9314 53.7643 61.8361 54.0144 62.9092 54.0144C64.3821 54.0144 65.4552 53.6297 66.1285 52.8601C66.8018 52.0777 67.1385 51.1863 67.1385 50.1858C67.1385 49.0315 66.7545 48.1016 65.9865 47.3961C65.229 46.6907 64.0823 46.338 62.5463 46.338H61.4889V42.0861H62.0255C63.4563 42.0861 64.5504 41.6949 65.3079 40.9125C66.0654 40.1301 66.4441 39.0912 66.4441 37.7958C66.4441 36.7697 66.1338 35.9039 65.5131 35.1985C64.9029 34.493 64.0244 34.1403 62.8777 34.1403C60.9208 34.1403 59.6689 35.3203 59.1218 37.6803Z" fill="black"/>
<path d="M74.9697 44.2602C74.9697 41.3871 75.3221 38.9758 76.027 37.0262C76.553 35.5897 77.2684 34.3006 78.1732 33.1591C79.0884 32.0176 80.0879 31.1711 81.1715 30.6195C82.6128 29.8756 84.2751 29.5037 86.1583 29.5037C89.5669 29.5037 92.2917 30.7927 94.3327 33.3707C96.3842 35.9488 97.41 39.5337 97.41 44.1255C97.41 48.6788 96.3947 52.2444 94.3643 54.8225C92.3338 57.3877 89.6195 58.6703 86.2214 58.6703C82.7812 58.6703 80.0458 57.3941 78.0154 54.8417C75.9849 52.2765 74.9697 48.7493 74.9697 44.2602ZM79.7828 44.0678C79.7828 47.2615 80.3877 49.6856 81.5976 51.3402C82.8075 52.9819 84.3435 53.8028 86.2056 53.8028C88.0677 53.8028 89.5932 52.9883 90.782 51.3594C91.9814 49.7177 92.5811 47.2615 92.5811 43.9908C92.5811 40.7586 91.9972 38.3473 90.8294 36.7569C89.6721 35.1664 88.1309 34.3712 86.2056 34.3712C84.2803 34.3712 82.7286 35.1792 81.5503 36.7953C80.372 38.3986 79.7828 40.8227 79.7828 44.0678Z" fill="black"/>
<path d="M101.359 58.1894V29.9846H106.03V41.0857H115.183V29.9846H119.854V58.1894H115.183V45.857H106.03V58.1894H101.359Z" fill="black"/>
<path d="M145.833 58.1894H140.752L138.732 51.7827H129.484L127.575 58.1894H122.62L131.631 29.9846H136.57L145.833 58.1894ZM137.233 47.0306L134.045 36.5645L130.92 47.0306H137.233Z" fill="black"/>
<circle cx="100" cy="119.086" r="43.875" stroke="#8F8F8F" stroke-width="8.08333"/>
<path d="M73.9583 127.768L80.9817 127.041C81.1824 128.628 81.776 129.889 82.7626 130.824C83.7493 131.742 84.8864 132.202 86.174 132.202C87.6456 132.202 88.8914 131.609 89.9115 130.423C90.9315 129.221 91.4416 127.417 91.4416 125.012C91.4416 122.758 90.9315 121.071 89.9115 119.952C88.9081 118.817 87.5954 118.249 85.9733 118.249C83.9499 118.249 82.1356 119.142 80.5302 120.929L74.8112 120.103L78.4232 100.989H97.0603V107.577H83.766L82.6623 113.815C84.2342 113.03 85.8396 112.638 87.4784 112.638C90.6054 112.638 93.2559 113.773 95.4299 116.044C97.6038 118.316 98.6907 121.263 98.6907 124.887C98.6907 127.91 97.8128 130.607 96.0569 132.978C93.6656 136.218 90.3463 137.838 86.0988 137.838C82.7041 137.838 79.9366 136.928 77.7961 135.108C75.6556 133.287 74.3764 130.841 73.9583 127.768Z" fill="#8F8F8F"/>
<path d="M114.102 100.338C117.664 100.338 120.448 101.607 122.455 104.146C124.846 107.152 126.042 112.137 126.042 119.101C126.042 126.048 124.838 131.041 122.43 134.081C120.44 136.586 117.664 137.838 114.102 137.838C110.523 137.838 107.639 136.469 105.448 133.73C103.257 130.974 102.162 126.073 102.162 119.025C102.162 112.112 103.366 107.135 105.774 104.096C107.764 101.591 110.54 100.338 114.102 100.338ZM114.102 106.175C113.249 106.175 112.488 106.45 111.819 107.001C111.15 107.536 110.632 108.504 110.264 109.907C109.779 111.727 109.537 114.792 109.537 119.101C109.537 123.409 109.754 126.373 110.189 127.993C110.624 129.597 111.167 130.665 111.819 131.2C112.488 131.734 113.249 132.001 114.102 132.001C114.955 132.001 115.716 131.734 116.384 131.2C117.053 130.649 117.572 129.672 117.94 128.269C118.425 126.465 118.667 123.409 118.667 119.101C118.667 114.792 118.45 111.836 118.015 110.233C117.58 108.613 117.028 107.536 116.359 107.001C115.707 106.45 114.955 106.175 114.102 106.175Z" fill="#8F8F8F"/>
<path d="M156.25 19.0861H157.036L44.2056 182.628H43.75V181.586H42.7084V181.129L155.224 18.0444H156.25V19.0861Z" fill="black"/>
<path d="M56.8609 182.628L157.291 37.06V33.3914L54.3298 182.628H56.8609Z" fill="black"/>
<path d="M157.291 27.8885L50.5333 182.628H48.0022L157.291 24.2199V27.8885Z" fill="black"/>
<path d="M142.569 18.0444L42.7084 162.786V166.455L145.1 18.0444H142.569Z" fill="black"/>
<path d="M42.7084 171.958L148.896 18.0444H151.427L42.7084 175.626V171.958Z" fill="black"/>
</svg>
