<svg width="200" height="201" viewBox="0 0 200 201" fill="none" xmlns="http://www.w3.org/2000/svg">
<path d="M25.6863 169.602H174.314C181.678 169.602 186.263 161.63 182.525 155.3L108.211 29.4881C104.527 23.2516 95.4727 23.2516 91.7889 29.4881L17.4753 155.3C13.7367 161.63 18.3214 169.602 25.6863 169.602Z" fill="#FF0E00" stroke="black" stroke-width="1.04167"/>
<path d="M174.314 166.998H25.6863C20.3188 166.998 17.0139 161.202 19.7175 156.625L94.0312 30.8125C96.707 26.2823 103.293 26.2823 105.969 30.8125L180.282 156.625C182.986 161.202 179.681 166.998 174.314 166.998Z" fill="#FF0E00" stroke="white" stroke-width="4.16667"/>
<path fill-rule="evenodd" clip-rule="evenodd" d="M164.062 154.501L99.9999 45.7637L35.9374 154.501H164.062Z" fill="white"/>
<circle cx="99.9999" cy="117" r="18.75" fill="black"/>
</svg>
