<svg width="200" height="200" viewBox="0 0 200 200" fill="none" xmlns="http://www.w3.org/2000/svg">
<rect x="1.56254" y="146.353" width="92.7084" height="196.875" rx="8.85417" transform="rotate(-90 1.56254 146.353)" fill="white" stroke="#13141A" stroke-width="1.04167"/>
<rect x="6.77083" y="141.146" width="82.2917" height="186.458" rx="3.64583" transform="rotate(-90 6.77083 141.146)" stroke="black" stroke-width="1.04167"/>
<path d="M117.015 68.7493L127.042 78.9558L129.441 90.5135L125.883 94.135L117.898 86.0138L103.596 100.448L129.514 126.729L125.074 131.249L99.135 104.996L73.1899 131.249L68.75 126.729L94.6685 100.448L80.3657 86.0138L72.3813 94.135L68.8238 90.5135L71.2297 78.9558L81.2488 68.7493L89.2872 76.9324L84.8268 81.4731L99.135 95.9077L113.438 81.4731L108.977 76.9324L117.015 68.7493Z" fill="black" stroke="black" stroke-width="0.000973438"/>
</svg>
