<svg width="204" height="201" viewBox="0 0 204 201" fill="none" xmlns="http://www.w3.org/2000/svg">
<rect x="0.520826" y="-0.520826" width="201.039" height="84.3738" rx="8.85404" transform="matrix(-1 0 0 1 203.039 59.04)" fill="white" stroke="#13141A" stroke-width="1.04165"/>
<rect width="191.664" height="74.9989" rx="4.16661" transform="matrix(-1 0 0 1 197.83 63.2041)" fill="#1071AF"/>
<path d="M162.414 114.247L162.414 87.1637L185.331 100.705L162.414 114.247Z" fill="white"/>
<path d="M135.331 105.914L135.331 95.4976L162.414 95.4975L162.414 105.914L135.331 105.914Z" fill="white"/>
<path d="M85.3321 80.9146H102.538C104.781 80.9146 106.852 82.1163 107.965 84.0636L113.675 94.0566C114.214 95.0009 114.498 96.0698 114.498 97.1574V114.247C114.498 116.549 112.633 118.414 110.332 118.414H85.3321V80.9146Z" fill="white"/>
<circle cx="98.874" cy="117.373" r="10.4169" fill="white" stroke="#1071AF" stroke-width="2.0833"/>
<circle cx="98.8735" cy="117.372" r="5.20826" fill="#1071AF"/>
<path d="M110.334 96.023C110.731 96.7174 110.229 97.5814 109.429 97.5814H89.4976V85.0811H104.081L110.334 96.023Z" fill="#1071AF"/>
<rect width="54.1659" height="8.33321" transform="matrix(-1 0 0 1 85.3321 110.081)" fill="white"/>
<path d="M81.1655 76.7503C81.1655 75.5997 80.2327 74.667 79.0822 74.667H33.2495C32.0989 74.667 31.1662 75.5997 31.1662 76.7503V105.917H81.1655V76.7503Z" fill="white"/>
<circle cx="50.958" cy="117.373" r="10.4169" fill="white" stroke="#1071AF" stroke-width="2.0833"/>
<circle cx="50.9576" cy="117.372" r="5.20826" fill="#1071AF"/>
</svg>
