<svg width="200" height="201" viewBox="0 0 200 201" fill="none" xmlns="http://www.w3.org/2000/svg">
<rect x="36.9792" y="12.3122" width="126.042" height="176.042" rx="8.85417" fill="white" stroke="#13141A" stroke-width="1.04167"/>
<rect x="41.6667" y="17" width="116.667" height="166.667" rx="4.16667" fill="#1071AF"/>
<rect x="50" y="33.667" width="100" height="100" rx="4.16667" fill="white"/>
<path d="M116.363 48.25L92.4576 79.8173H98.1035V115.086H58.3333V121.167H141.667V115.086H134.413V79.8173H140.271L116.363 48.25ZM109.491 98.6199H121.757V115.085H109.491V98.6199Z" fill="black"/>
<path d="M69.5064 77.417C63.5147 87.7957 62.305 87.9584 62.305 87.9584H67.6085C65.7302 94.9702 60.3191 99.2601 60.3191 99.2601H66.6159C65.1791 104.625 58.3333 109.652 58.3333 109.652H67.6091V116.75H72.1667V109.652H81.6013C81.6013 109.652 74.6433 104.796 73.1593 99.2601H80.608C80.608 99.2601 74.0482 94.9827 72.1667 87.9584H77.6289C77.6289 87.9584 75.4784 87.7616 69.5064 77.417Z" fill="black"/>
</svg>
