<svg width="200" height="200" viewBox="0 0 200 200" fill="none" xmlns="http://www.w3.org/2000/svg">
<rect x="1.56254" y="146.353" width="92.7084" height="196.875" rx="8.85417" transform="rotate(-90 1.56254 146.353)" fill="white" stroke="#13141A" stroke-width="1.04167"/>
<rect x="6.77083" y="141.146" width="82.2917" height="186.458" rx="3.64583" transform="rotate(-90 6.77083 141.146)" stroke="black" stroke-width="1.04167"/>
<path fill-rule="evenodd" clip-rule="evenodd" d="M44.5789 83.332H34.5789V94.9939L22.9166 94.9939L22.9166 104.994H34.5789V116.665H44.5789V104.994H56.25V94.9939L44.5789 94.9939V83.332Z" fill="black"/>
<path fill-rule="evenodd" clip-rule="evenodd" d="M90.3076 77.1724H161.968C164.125 77.1724 166.155 78.1974 167.435 79.9341L175.76 91.2252C176.621 92.3929 177.086 93.8057 177.086 95.2566V113.402C177.086 115.903 175.058 117.931 172.557 117.931H165.875C165.909 117.558 165.926 117.18 165.926 116.799C165.926 109.921 160.35 104.345 153.472 104.345C146.594 104.345 141.018 109.921 141.018 116.799C141.018 117.18 141.035 117.558 141.068 117.931H106.678C106.711 117.558 106.729 117.18 106.729 116.799C106.729 109.921 101.153 104.345 94.2746 104.345C87.3964 104.345 81.8206 109.921 81.8206 116.799C81.8206 117.18 81.8377 117.558 81.8713 117.931H79.7179C77.2168 117.931 75.1892 115.903 75.1892 113.402V95.2566C75.1892 93.8057 75.6537 92.3929 76.5148 91.2252L84.84 79.9341C86.1205 78.1974 88.1499 77.1724 90.3076 77.1724ZM80.3488 93.4971L88.7745 81.7011H100.096V95.2873L81.2701 95.2873C80.3492 95.2873 79.8135 94.2464 80.3488 93.4971ZM169.66 93.4971L161.234 81.7011H149.912V95.2873L168.739 95.2873C169.66 95.2873 170.195 94.2464 169.66 93.4971ZM127.269 81.7011H145.384V95.2873H127.269V81.7011ZM122.74 81.7011H104.625V95.2873H122.74V81.7011Z" fill="black"/>
<path fill-rule="evenodd" clip-rule="evenodd" d="M94.2746 126.989C99.9022 126.989 104.464 122.426 104.464 116.799C104.464 111.171 99.9022 106.609 94.2746 106.609C88.647 106.609 84.0849 111.171 84.0849 116.799C84.0849 122.426 88.647 126.989 94.2746 126.989ZM94.2746 122.46C97.4011 122.46 99.9355 119.925 99.9355 116.799C99.9355 113.672 97.4011 111.138 94.2746 111.138C91.1482 111.138 88.6137 113.672 88.6137 116.799C88.6137 119.925 91.1482 122.46 94.2746 122.46Z" fill="black"/>
<path fill-rule="evenodd" clip-rule="evenodd" d="M153.472 126.989C159.099 126.989 163.661 122.426 163.661 116.799C163.661 111.171 159.099 106.609 153.472 106.609C147.844 106.609 143.282 111.171 143.282 116.799C143.282 122.426 147.844 126.989 153.472 126.989ZM153.472 122.46C156.598 122.46 159.133 119.925 159.133 116.799C159.133 113.672 156.598 111.138 153.472 111.138C150.345 111.138 147.811 113.672 147.811 116.799C147.811 119.925 150.345 122.46 153.472 122.46Z" fill="black"/>
</svg>
