<svg width="200" height="201" viewBox="0 0 200 201" fill="none" xmlns="http://www.w3.org/2000/svg">
<rect x="36.9786" y="12.1764" width="126.04" height="176.039" rx="8.85404" fill="white" stroke="#13141A" stroke-width="1.04165"/>
<rect x="41.6661" y="16.8652" width="116.665" height="166.664" rx="4.16661" fill="#1071AF"/>
<path fill-rule="evenodd" clip-rule="evenodd" d="M64.6843 37.658L60.6935 48.8014H59.3047C57.6171 48.8014 56.2491 50.1905 56.2491 51.9039V62.7628C56.2491 64.4762 57.6171 65.8653 59.3047 65.8653H60.0685V71.2947C60.0685 73.0082 61.4365 74.3972 63.124 74.3972H65.4157C67.1032 74.3972 68.4712 73.0082 68.4712 71.2947V65.8653H89.8598V71.2947C89.8598 73.0082 91.2278 74.3972 92.9153 74.3972H95.2069C96.8944 74.3972 98.2624 73.0082 98.2624 71.2947V65.8653H99.0263C100.714 65.8653 102.082 64.4762 102.082 62.7628V51.9039C102.082 50.1905 100.714 48.8014 99.0263 48.8014H97.6374L93.6467 37.658C93.2076 36.4319 92.06 35.6157 90.7751 35.6157H67.5558C66.271 35.6157 65.1234 36.4319 64.6843 37.658ZM68.0909 39.4939L64.7576 48.8014H93.5734L90.2401 39.4939H68.0909ZM68.4712 57.3333C68.4712 59.0468 67.1032 60.4359 65.4157 60.4359C63.7282 60.4359 62.3602 59.0468 62.3602 57.3333C62.3602 55.6199 63.7282 54.2308 65.4157 54.2308C67.1032 54.2308 68.4712 55.6199 68.4712 57.3333ZM92.9153 60.4359C94.6028 60.4359 95.9708 59.0468 95.9708 57.3333C95.9708 55.6199 94.6028 54.2308 92.9153 54.2308C91.2278 54.2308 89.8598 55.6199 89.8598 57.3333C89.8598 59.0468 91.2278 60.4359 92.9153 60.4359Z" fill="white"/>
<path d="M122.915 23.1147H139.581V48.1144H122.915V23.1147Z" fill="white"/>
<path d="M122.915 56.4473H139.581V81.4469H122.915V56.4473Z" fill="white"/>
<path d="M143.748 77.2808H158.332V96.0313H143.748V77.2808Z" fill="white"/>
<path d="M116.665 16.8652V96.0307H158.331" stroke="white" stroke-width="2.0833"/>
<path fill-rule="evenodd" clip-rule="evenodd" d="M79.9787 123.631C79.9787 121.053 77.8898 118.948 75.3264 118.948C72.7636 118.948 70.6737 121.052 70.6742 123.631C70.6742 126.21 72.7636 128.314 75.3264 128.314C77.8892 128.314 79.9787 126.211 79.9787 123.631ZM86.3449 160.326L86.3449 160.326L86.3449 160.326L86.345 160.327C87.3432 162.816 88.3414 165.306 88.4951 166.094C90.1359 170.256 85.6626 172.254 83.5844 167.571C83.4695 167.269 83.3559 166.969 83.2427 166.671C82.0635 163.561 80.9286 160.569 78.8746 155.827C77.6712 154.674 76.4809 153.521 75.2904 152.368L75.2902 152.368L75.2901 152.367C74.0891 151.204 72.888 150.04 71.673 148.877C69.9651 147.298 69.9269 146.673 69.9221 144.296L70.3503 134.457C68.921 135.344 67.916 136.002 67.0542 136.567L67.0541 136.567L67.0541 136.567C66.2278 137.109 65.5331 137.564 64.7223 138.051C64.692 138.287 64.5155 140.407 64.3597 142.277L64.3597 142.277L64.3597 142.278L64.3597 142.278L64.3596 142.278L64.3596 142.278C64.2392 143.724 64.1313 145.019 64.1131 145.179C63.7585 149 59.9949 148.404 60.0986 145.063C60.1657 142.766 60.418 140.309 60.6617 137.937C60.7517 137.06 60.8406 136.195 60.9185 135.354C64.718 132.763 67.3098 131.009 71.3399 128.77C77.301 130.689 77.7286 131.862 77.3687 136.239C77.3863 138.946 77.3202 141.168 77.2656 143.001V143.001C77.2154 144.688 77.175 146.046 77.2188 147.149C78.7517 148.545 80.2852 149.94 81.8186 151.335L81.8232 151.339C82.9311 152.333 83.6515 153.425 84.1947 154.559C84.3484 155.347 85.3466 157.836 86.3448 160.326L86.3449 160.326ZM78.4878 141.551V141.551C78.5373 140.463 78.5867 139.379 78.6412 138.81C79.8417 139.829 80.6356 140.475 81.4328 141.124C82.2818 141.815 83.1346 142.509 84.4862 143.66C87.7098 146.046 85.2459 149.653 81.802 146.96L78.3323 144.322C78.3879 143.748 78.4379 142.648 78.4878 141.551ZM71.0992 150.39C71.6419 150.879 72.1845 151.367 72.8816 152.063C71.4623 154.376 69.6602 157.164 67.8584 159.952C66.0587 162.736 64.2593 165.52 62.8416 167.83C60.3486 171.308 56.7901 167.895 59.0558 164.854C61.9932 160.1 66.1863 153.477 69.3161 148.717C70.0135 149.414 70.5564 149.902 71.0992 150.39L71.0992 150.39ZM128.061 144.532L134.93 130.121C136.537 126.907 140.55 128.737 139.122 132.013C137.754 134.714 136.386 137.416 135.018 140.119C134.16 141.462 133.829 142.94 134.662 144.711C135.851 147.022 137.041 149.336 138.23 151.647C139.168 153.514 139.05 154.955 137.874 155.97C136.154 157.05 134.435 158.13 132.715 159.21L129.847 161.013L128.674 163.269C127.787 164.979 126.899 166.688 126.011 168.397C124.335 171.749 121.075 170.379 122.174 167.408C123.103 165.173 124.031 162.939 124.959 160.704L125.653 159.032C126.1 158.11 126.624 157.215 127.705 156.51C128.401 156.002 129.099 155.495 129.797 154.988L129.934 154.889C130.764 154.158 130.852 153.107 130.201 151.736C129.825 151.207 129.448 150.679 129.071 150.15L128.596 149.485C127.257 147.939 127.078 146.289 128.061 144.532ZM121.889 138.953C122.348 141.639 126.991 143.141 128.593 139.632C129.058 139.542 130.142 134.961 129.772 135.116C129.533 132.338 124.654 131.043 122.829 133.918C121.698 135.651 121.571 137.098 121.889 138.953ZM135.686 159.929C136.869 158.981 137.737 158.386 138.995 157.553C139.383 158.215 139.656 158.713 139.918 159.189C140.262 159.815 140.585 160.402 141.118 161.272C142.134 161.153 142.53 161.108 143.684 160.984C146.731 160.579 147.236 164.17 144.255 164.685C143.748 164.78 143.297 164.867 142.889 164.947L142.886 164.947L142.886 164.947C141.961 165.127 141.257 165.263 140.615 165.341C139.073 165.527 138.543 164.664 137.954 163.709C137.814 163.482 137.67 163.248 137.509 163.023C137.073 162.276 136.841 161.886 136.614 161.505L136.614 161.505L136.614 161.504L136.614 161.504C136.375 161.103 136.143 160.713 135.686 159.929ZM126.447 149.443L126.447 149.443C126.697 150.052 126.946 150.66 127.213 151.304C126.416 151.621 125.636 151.972 124.856 152.323L124.856 152.324L124.856 152.324L124.856 152.324C124.086 152.67 123.316 153.017 122.53 153.331C121.08 153.938 120.189 153.532 119.251 151.911C118.941 151.338 118.631 150.764 118.321 150.19L118.321 150.189L118.319 150.186L118.318 150.183C117.827 149.273 117.336 148.364 116.844 147.455C115.551 145.462 118.448 143.502 120.055 145.698C120.468 146.25 120.78 146.887 121.093 147.523L121.093 147.523L121.093 147.523L121.093 147.523C121.404 148.159 121.716 148.794 122.128 149.345C122.697 149.108 123.315 148.821 123.934 148.535C124.553 148.248 125.172 147.961 125.741 147.724C125.987 148.318 126.217 148.881 126.447 149.443ZM109.648 165.459C109.648 162.824 107.532 160.674 104.934 160.674C102.338 160.674 100.22 162.824 100.22 165.459C100.22 168.095 102.338 170.245 104.934 170.245C107.532 170.245 109.648 168.095 109.648 165.459Z" fill="white"/>
</svg>
