<svg width="200" height="200" viewBox="0 0 200 200" fill="none" xmlns="http://www.w3.org/2000/svg">
<path d="M0 16.667H200V183.334H0V16.667Z" fill="#68696C"/>
<path d="M40.1848 141.666C49.6818 141.666 55.3695 131.843 55.3695 116.382V116.326C55.3695 103.656 51.8212 96.7903 43.9418 93.4413L39.9499 91.711C35.6189 89.8691 33.6882 86.9108 33.6882 81.8316V81.7757C33.6882 76.0267 36.1146 72.0637 40.1587 72.0079C44.0462 72.0079 46.7596 75.8592 47.151 82.1665L47.177 82.8362H54.6129L54.5868 81.7757C54.2215 67.6543 48.8729 58.333 40.1587 58.333C31.8097 58.333 25.8088 68.045 25.8088 82.7804V82.8362C25.8088 94.9483 29.5659 102.539 37.0017 105.721L40.9675 107.395C45.6377 109.46 47.4901 112.195 47.4901 117.665V117.721C47.4901 123.861 44.7506 127.936 40.3935 127.936C36.0885 127.936 32.9837 124.028 32.488 117.777L32.4358 117.163H25L25.0261 118.056C25.4696 132.903 31.2357 141.666 40.1848 141.666Z" fill="white"/>
<path d="M73.8868 140.271H81.7662V73.6266H92.6721V59.7284H63.007V73.6266H73.8868V140.271Z" fill="white"/>
<path d="M117.66 141.666C128.853 141.666 135.819 125.647 135.819 100.028V99.9159C135.819 74.3522 128.827 58.333 117.66 58.333C106.519 58.333 99.5007 74.2964 99.5007 99.9159V100.028C99.5007 125.647 106.467 141.666 117.66 141.666ZM117.66 127.377C111.476 127.377 107.537 116.884 107.537 100.028V99.9159C107.537 83.0595 111.502 72.6219 117.66 72.6219C123.843 72.6219 127.783 83.1153 127.783 99.9159V100.028C127.783 116.717 123.922 127.377 117.66 127.377Z" fill="white"/>
<path d="M146.639 140.271H154.519V114.875H161.772C169.704 114.875 175 103.935 175 87.3573V87.2457C175 70.6683 169.704 59.7284 161.772 59.7284H146.639V140.271ZM159.841 73.0684C164.355 73.0684 167.016 78.1477 167.016 87.3015V87.4132C167.016 96.567 164.355 101.702 159.841 101.702H154.519V73.0684H159.841Z" fill="white"/>
</svg>
