<svg width="201" height="200" viewBox="0 0 201 200" fill="none" xmlns="http://www.w3.org/2000/svg">
<path fill-rule="evenodd" clip-rule="evenodd" d="M20.5044 79.1675C20.6917 84.2705 19.7765 88.3278 18.1721 91.7619C17.8489 92.4537 17.4993 93.1157 17.1295 93.7508L183.334 93.7508L200 79.1675L20.5044 79.1675Z" fill="white"/>
<path d="M18.1721 91.7619L18.644 91.9823L18.1721 91.7619ZM20.5044 79.1675V78.6466C20.3629 78.6466 20.2275 78.7042 20.1294 78.806C20.0312 78.9079 19.9787 79.0452 19.9839 79.1866L20.5044 79.1675ZM17.1295 93.7508L16.6794 93.4888C16.5856 93.6499 16.5851 93.8488 16.678 94.0104C16.7709 94.172 16.9431 94.2717 17.1295 94.2717L17.1295 93.7508ZM183.334 93.7508V94.2717C183.46 94.2717 183.582 94.2259 183.677 94.1428L183.334 93.7508ZM200 79.1675L200.343 79.5595C200.506 79.4166 200.564 79.1874 200.488 78.9843C200.411 78.7812 200.217 78.6467 200 78.6467V79.1675ZM18.644 91.9823C20.2856 88.4686 21.2151 84.3284 21.0248 79.1484L19.9839 79.1866C20.1684 84.2125 19.2674 88.187 17.7002 91.5414L18.644 91.9823ZM17.5796 94.0129C17.9568 93.3651 18.3137 92.6892 18.644 91.9823L17.7002 91.5414C17.384 92.2182 17.0418 92.8663 16.6794 93.4888L17.5796 94.0129ZM183.334 93.23L17.1295 93.23L17.1295 94.2717L183.334 94.2717V93.23ZM199.657 78.7755L182.991 93.3589L183.677 94.1428L200.343 79.5595L199.657 78.7755ZM20.5044 79.6883L200 79.6883V78.6467L20.5044 78.6466V79.6883Z" fill="#13141A"/>
<path fill-rule="evenodd" clip-rule="evenodd" d="M3.2194 118.75C2.8648 114.964 3.43933 112.186 4.4438 109.93C5.76447 106.965 7.89833 104.695 10.5428 101.925L10.6385 101.825L10.6385 101.825C12.7804 99.5818 15.2235 97.0233 17.1294 93.75L183.333 93.75V118.75L3.2194 118.75Z" fill="white"/>
<path d="M3.2194 118.75L2.70084 118.799C2.7259 119.066 2.95057 119.271 3.2194 119.271L3.2194 118.75ZM4.4438 109.93L4.91958 110.142H4.91958L4.4438 109.93ZM10.5428 101.925L10.1661 101.565L10.1661 101.565L10.5428 101.925ZM10.6385 101.825L10.2701 101.456L10.2618 101.465L10.6385 101.825ZM10.6385 101.825L11.0069 102.193L11.0151 102.185L10.6385 101.825ZM17.1294 93.75V93.2292C16.944 93.2292 16.7726 93.3277 16.6793 93.4879L17.1294 93.75ZM183.333 93.75H183.854C183.854 93.4624 183.621 93.2292 183.333 93.2292V93.75ZM183.333 118.75V119.271C183.472 119.271 183.604 119.216 183.702 119.118C183.799 119.021 183.854 118.888 183.854 118.75H183.333ZM3.73796 118.701C3.3911 114.998 3.95407 112.31 4.91958 110.142L3.96802 109.718C2.9246 112.061 2.33851 114.93 2.70084 118.799L3.73796 118.701ZM4.91958 110.142C6.19759 107.273 8.26495 105.065 10.9195 102.285L10.1661 101.565C7.53172 104.325 5.33135 106.657 3.96802 109.718L4.91958 110.142ZM10.9195 102.285L11.0151 102.185L10.2618 101.465L10.1661 101.565L10.9195 102.285ZM11.0067 102.193L11.0068 102.193L10.2702 101.457L10.2702 101.457L11.0067 102.193ZM11.0151 102.185C13.1533 99.9454 15.6384 97.3459 17.5795 94.0121L16.6793 93.4879C14.8086 96.7008 12.4075 99.2181 10.2618 101.465L11.0151 102.185ZM17.1294 94.2708L183.333 94.2708V93.2292L17.1294 93.2292V94.2708ZM182.813 93.75V118.75H183.854V93.75H182.813ZM183.333 118.229L3.2194 118.229L3.2194 119.271L183.333 119.271V118.229Z" fill="#13141A"/>
<path d="M183.333 93.7503L200 79.167V104.167L183.333 118.75L183.333 93.7503Z" fill="white" stroke="#13141A" stroke-width="1.04167" stroke-linejoin="round"/>
<path d="M125 93.7505L125 118.75L83.3334 118.75L83.3334 93.7505L125 93.7505Z" fill="#05081B"/>
<path d="M183.333 93.7505L183.333 118.75L166.667 118.75L166.667 93.7505L183.333 93.7505Z" fill="#05081B"/>
<path d="M200 79.1671L183.333 93.7505L166.667 93.7503L183.333 79.167L200 79.1671Z" fill="#05081B"/>
<path d="M141.667 79.1671L125 93.7505L83.3334 93.7503L100 79.167L141.667 79.1671Z" fill="#05081B"/>
<path fill-rule="evenodd" clip-rule="evenodd" d="M3.2194 118.75C2.8648 114.964 3.43933 112.186 4.4438 109.93C5.76447 106.965 7.89833 104.695 10.5428 101.925L10.6385 101.825L10.6385 101.825C12.7804 99.5818 15.2235 97.0233 17.1294 93.75H41.6667L41.6667 118.75H3.2194Z" fill="#05081B"/>
<path fill-rule="evenodd" clip-rule="evenodd" d="M20.5043 79.1675C20.6917 84.2705 19.7764 88.3278 18.172 91.7618C17.8488 92.4537 17.4992 93.1157 17.1294 93.7509L41.6668 93.751L58.3334 79.1676L20.5043 79.1675Z" fill="#05081B"/>
</svg>
