<svg width="200" height="200" viewBox="0 0 200 200" fill="none" xmlns="http://www.w3.org/2000/svg">
<rect x="1.56254" y="146.353" width="92.7084" height="196.875" rx="8.85417" transform="rotate(-90 1.56254 146.353)" fill="white" stroke="#13141A" stroke-width="1.04167"/>
<rect x="6.77083" y="141.146" width="82.2917" height="186.458" rx="3.64583" transform="rotate(-90 6.77083 141.146)" stroke="black" stroke-width="1.04167"/>
<path d="M80.1374 116.219V124.205H50C50.3264 121.186 51.3054 118.33 52.9372 115.638C54.5691 112.925 57.7919 109.335 62.6057 104.868C66.4812 101.257 68.8575 98.8095 69.7346 97.5245C70.9177 95.7499 71.5092 93.9957 71.5092 92.2619C71.5092 90.3446 70.9891 88.8759 69.9488 87.8561C68.9289 86.8158 67.5113 86.2956 65.6959 86.2956C63.9009 86.2956 62.4731 86.8362 61.4124 87.9172C60.3518 88.9983 59.7398 90.7933 59.5767 93.3022L51.0097 92.4455C51.5196 87.7133 53.1208 84.3171 55.8133 82.2569C58.5058 80.1968 61.8714 79.1667 65.9101 79.1667C70.3364 79.1667 73.8142 80.3599 76.3435 82.7465C78.8728 85.133 80.1374 88.1008 80.1374 91.65C80.1374 93.6694 79.7702 95.5969 79.0359 97.4327C78.322 99.2481 77.1798 101.155 75.6091 103.154C74.5689 104.48 72.6923 106.387 69.9794 108.876C67.2665 111.364 65.5429 113.016 64.8086 113.832C64.0947 114.648 63.5134 115.444 63.0646 116.219H80.1374Z" fill="black"/>
<path d="M93.355 100.003C91.1317 99.0645 89.5101 97.7795 88.4902 96.1477C87.4907 94.4955 86.991 92.6903 86.991 90.7321C86.991 87.3869 88.1536 84.623 90.479 82.4405C92.8247 80.258 96.1495 79.1667 100.453 79.1667C104.716 79.1667 108.021 80.258 110.367 82.4405C112.733 84.623 113.916 87.3869 113.916 90.7321C113.916 92.8127 113.375 94.6688 112.294 96.3006C111.213 97.9121 109.693 99.1461 107.735 100.003C110.224 101.002 112.111 102.461 113.396 104.378C114.701 106.295 115.354 108.509 115.354 111.017C115.354 115.158 114.028 118.524 111.376 121.114C108.745 123.705 105.237 125 100.851 125C96.7716 125 93.3754 123.929 90.6625 121.787C87.4601 119.258 85.8589 115.791 85.8589 111.385C85.8589 108.957 86.4606 106.734 87.6641 104.715C88.8676 102.675 90.7645 101.104 93.355 100.003ZM95.1296 91.344C95.1296 93.0574 95.609 94.3935 96.5676 95.3522C97.5467 96.3108 98.842 96.7902 100.453 96.7902C102.085 96.7902 103.391 96.3108 104.37 95.3522C105.349 94.3731 105.838 93.0268 105.838 91.3134C105.838 89.702 105.349 88.417 104.37 87.4583C103.411 86.4792 102.136 85.9897 100.545 85.9897C98.893 85.9897 97.5773 86.4792 96.5982 87.4583C95.6192 88.4374 95.1296 89.7326 95.1296 91.344ZM94.3341 110.559C94.3341 112.925 94.9358 114.771 96.1393 116.096C97.3631 117.422 98.8828 118.085 100.698 118.085C102.473 118.085 103.941 117.453 105.104 116.188C106.267 114.903 106.848 113.057 106.848 110.65C106.848 108.549 106.256 106.867 105.073 105.602C103.89 104.317 102.391 103.674 100.576 103.674C98.4748 103.674 96.9042 104.398 95.8639 105.847C94.844 107.295 94.3341 108.866 94.3341 110.559Z" fill="black"/>
<path d="M168.187 107.949L177.083 110.7C175.719 115.537 173.446 119.135 170.264 121.493C167.102 123.831 163.083 125 158.206 125C152.172 125 147.212 122.995 143.327 118.984C139.442 114.953 137.5 109.45 137.5 102.476C137.5 95.0995 139.453 89.3754 143.358 85.304C147.264 81.2125 152.399 79.1667 158.764 79.1667C164.323 79.1667 168.838 80.769 172.31 83.9737C174.376 85.8684 175.926 88.5893 176.959 92.1367L167.877 94.253C167.34 91.9553 166.214 90.1413 164.499 88.811C162.804 87.4808 160.738 86.8157 158.299 86.8157C154.931 86.8157 152.193 87.9947 150.085 90.3529C147.998 92.7111 146.954 96.5305 146.954 101.811C146.954 107.414 147.987 111.405 150.054 113.784C152.12 116.162 154.807 117.351 158.113 117.351C160.552 117.351 162.649 116.595 164.406 115.084C166.162 113.572 167.423 111.194 168.187 107.949Z" fill="black"/>
<path d="M27.0834 87.4994H34.375L41.6667 99.9994L34.375 112.499H27.0834L34.375 99.9994L27.0834 87.4994Z" fill="#191919"/>
<path fill-rule="evenodd" clip-rule="evenodd" d="M127.083 77.0834C125.358 77.0834 123.958 78.4825 123.958 80.2084C123.958 81.9342 125.358 83.3334 127.083 83.3334C128.809 83.3334 130.208 81.9342 130.208 80.2084C130.208 78.4825 128.809 77.0834 127.083 77.0834ZM119.792 80.2084C119.792 76.1813 123.056 72.9167 127.083 72.9167C131.11 72.9167 134.375 76.1813 134.375 80.2084C134.375 84.2354 131.11 87.5 127.083 87.5C123.056 87.5 119.792 84.2354 119.792 80.2084Z" fill="black"/>
</svg>
