<svg width="200" height="201" viewBox="0 0 200 201" fill="none" xmlns="http://www.w3.org/2000/svg">
<rect x="0.520826" y="-0.520826" width="138.54" height="138.54" rx="8.85404" transform="matrix(-1 0 0 1 169.789 32.0251)" fill="white" stroke="#13141A" stroke-width="1.04165"/>
<rect width="129.165" height="129.165" rx="4.16661" transform="matrix(-1 0 0 1 164.581 36.1934)" fill="#1071AF"/>
<path fill-rule="evenodd" clip-rule="evenodd" d="M43.2281 144.928C41.6162 144.928 40.615 143.176 41.4332 141.787L98.2036 45.4269C99.0094 44.0592 100.988 44.0592 101.793 45.4269L158.564 141.787C159.382 143.176 158.381 144.928 156.769 144.928H43.2281Z" fill="white"/>
<path fill-rule="evenodd" clip-rule="evenodd" d="M95.1388 68.5313C93.2254 70.7735 93.6504 74.3359 96.4888 76.8038C99.3271 79.2717 103.179 79.4545 105.093 77.2125C107.006 74.9703 106.677 70.2549 103.839 67.787C101 65.3192 97.0521 66.289 95.1388 68.5313ZM92.8458 87.1626V103.811C92.8458 104.887 93.326 105.905 94.1532 106.583L108.679 117.975C109.54 118.681 110.187 119.619 110.544 120.679L116.23 137.553C116.857 139.414 118.871 140.398 120.706 139.739C122.527 139.085 123.476 137.064 122.824 135.228L116.09 116.268C115.769 115.362 115.234 114.548 114.533 113.896L102.624 102.184V86.7115C102.624 84.8631 101.774 83.1194 100.322 81.9923L96.0322 79.1553C95.27 78.5634 94.2177 78.6674 93.577 79.3201L80.8087 87.9569C80.1236 88.4203 79.6908 89.1788 79.6375 90.0093L78.8557 102.729C78.769 104.08 79.9065 105.185 81.2404 105.045C82.2491 104.94 83.0503 104.142 83.1689 103.126L84.4407 91.6687L92.8458 87.1626ZM99.374 113.896L92.8458 108.867L78.9454 134.7C77.9736 136.26 78.4232 138.319 79.9545 139.321C81.4592 140.306 83.4661 139.915 84.4995 138.435L99.374 113.896ZM105.131 98.5179V90.7779L116.367 101.337C117.256 102.173 117.331 103.569 116.537 104.498C115.761 105.405 114.421 105.551 113.471 104.832L105.131 98.5179ZM131.811 140.999L127.855 127.577H136.819L145.187 140.999H131.811ZM66.2202 140.999L70.1761 127.577H61.2124L52.8441 140.999H66.2202ZM104.744 127.577H95.2514L93.1213 140.999H106.874L104.744 127.577Z" fill="#05081B"/>
</svg>
