<svg width="200" height="201" viewBox="0 0 200 201" fill="none" xmlns="http://www.w3.org/2000/svg">
<rect x="1.56254" y="147.02" width="92.7084" height="196.875" rx="8.85417" transform="rotate(-90 1.56254 147.02)" fill="white" stroke="#13141A" stroke-width="1.04167"/>
<rect x="6.77083" y="141.811" width="82.2917" height="186.458" rx="3.64583" transform="rotate(-90 6.77083 141.811)" stroke="black" stroke-width="1.04167"/>
<path d="M23.7922 121.312C22.2967 120.757 21.2059 119.998 20.5199 119.034C19.8476 118.057 19.5115 116.991 19.5115 115.834C19.5115 113.857 20.2935 112.224 21.8577 110.934C23.4355 109.645 25.6719 109 28.5669 109C31.4344 109 33.6571 109.645 35.235 110.934C36.8265 112.224 37.6223 113.857 37.6223 115.834C37.6223 117.063 37.2587 118.16 36.5316 119.124C35.8044 120.076 34.7822 120.806 33.4651 121.312C35.1389 121.902 36.4081 122.764 37.2725 123.897C38.1506 125.03 38.5896 126.338 38.5896 127.82C38.5896 130.267 37.6978 132.256 35.9141 133.787C34.1442 135.317 31.7843 136.083 28.8344 136.083C26.0904 136.083 23.8059 135.45 21.9811 134.184C19.827 132.69 18.75 130.641 18.75 128.037C18.75 126.603 19.1547 125.289 19.9642 124.096C20.7737 122.891 22.0497 121.963 23.7922 121.312ZM24.9859 116.195C24.9859 117.208 25.3083 117.997 25.9532 118.564C26.6118 119.13 27.483 119.413 28.5669 119.413C29.6645 119.413 30.5426 119.13 31.2012 118.564C31.8598 117.985 32.1891 117.19 32.1891 116.177C32.1891 115.225 31.8598 114.466 31.2012 113.899C30.5563 113.321 29.6988 113.031 28.6286 113.031C27.5173 113.031 26.6323 113.321 25.9738 113.899C25.3152 114.478 24.9859 115.243 24.9859 116.195ZM24.4508 127.549C24.4508 128.947 24.8555 130.038 25.665 130.821C26.4883 131.605 27.5104 131.997 28.7315 131.997C29.9252 131.997 30.9131 131.623 31.6951 130.876C32.4772 130.116 32.8682 129.026 32.8682 127.603C32.8682 126.362 32.4703 125.368 31.6746 124.62C30.8788 123.861 29.8703 123.481 28.6492 123.481C27.236 123.481 26.1796 123.909 25.4798 124.765C24.7938 125.621 24.4508 126.549 24.4508 127.549Z" fill="black"/>
<path d="M42.7726 135.613V131.802H47.1099V135.613H42.7726Z" fill="black"/>
<path d="M57.9764 115.653C60.1683 115.653 61.8816 116.34 63.1164 117.714C64.5879 119.341 65.3237 122.039 65.3237 125.809C65.3237 129.57 64.5828 132.272 63.101 133.918C61.8764 135.274 60.1683 135.952 57.9764 135.952C55.7743 135.952 53.9993 135.21 52.6512 133.728C51.3032 132.236 50.6292 129.583 50.6292 125.768C50.6292 122.026 51.3701 119.332 52.8519 117.687C54.0764 116.331 55.7846 115.653 57.9764 115.653ZM57.9764 118.812C57.4516 118.812 56.9834 118.961 56.5718 119.26C56.1602 119.549 55.8412 120.073 55.6148 120.833C55.3164 121.818 55.1672 123.477 55.1672 125.809C55.1672 128.141 55.301 129.746 55.5685 130.623C55.8361 131.49 56.1705 132.069 56.5718 132.358C56.9834 132.648 57.4516 132.792 57.9764 132.792C58.5012 132.792 58.9694 132.648 59.3811 132.358C59.7927 132.06 60.1117 131.531 60.338 130.772C60.6365 129.795 60.7857 128.141 60.7857 125.809C60.7857 123.477 60.6519 121.877 60.3843 121.009C60.1168 120.132 59.7772 119.549 59.3656 119.26C58.9643 118.961 58.5012 118.812 57.9764 118.812Z" fill="black"/>
<path d="M75.5728 115.653C77.7646 115.653 79.4779 116.34 80.7127 117.714C82.1842 119.341 82.92 122.039 82.92 125.809C82.92 129.57 82.1791 132.272 80.6973 133.918C79.4728 135.274 77.7646 135.952 75.5728 135.952C73.3706 135.952 71.5956 135.21 70.2476 133.728C68.8995 132.236 68.2255 129.583 68.2255 125.768C68.2255 122.026 68.9664 119.332 70.4482 117.687C71.6728 116.331 73.3809 115.653 75.5728 115.653ZM75.5728 118.812C75.048 118.812 74.5798 118.961 74.1681 119.26C73.7565 119.549 73.4375 120.073 73.2112 120.833C72.9127 121.818 72.7635 123.477 72.7635 125.809C72.7635 128.141 72.8973 129.746 73.1648 130.623C73.4324 131.49 73.7668 132.069 74.1681 132.358C74.5798 132.648 75.048 132.792 75.5728 132.792C76.0976 132.792 76.5658 132.648 76.9774 132.358C77.389 132.06 77.708 131.531 77.9344 130.772C78.2328 129.795 78.382 128.141 78.382 125.809C78.382 123.477 78.2482 121.877 77.9807 121.009C77.7131 120.132 77.3736 119.549 76.9619 119.26C76.5606 118.961 76.0976 118.812 75.5728 118.812Z" fill="black"/>
<path d="M88.5417 127.825V124.014H97.2425V127.825H88.5417Z" fill="black"/>
<path d="M114.062 135.612H108.279V116.466C106.166 118.202 103.676 119.485 100.808 120.317V115.707C102.317 115.273 103.957 114.453 105.727 113.248C107.497 112.031 108.711 110.614 109.37 108.999H114.062V135.612Z" fill="black"/>
<path d="M120.675 114.188V109.469H140.453V113.158C138.82 114.568 137.16 116.593 135.472 119.232C133.785 121.872 132.495 124.68 131.603 127.657C130.725 130.622 130.293 133.274 130.306 135.612H124.729C124.825 131.948 125.683 128.212 127.302 124.403C128.934 120.594 131.109 117.189 133.826 114.188H120.675Z" fill="black"/>
<path d="M141.103 135.612V131.802H145.44V135.612H141.103Z" fill="black"/>
<path d="M156.306 115.652C158.498 115.652 160.212 116.339 161.446 117.714C162.918 119.341 163.654 122.039 163.654 125.809C163.654 129.569 162.913 132.272 161.431 133.917C160.206 135.273 158.498 135.951 156.306 135.951C154.104 135.951 152.329 135.21 150.981 133.727C149.633 132.236 148.959 129.583 148.959 125.768C148.959 122.025 149.7 119.332 151.182 117.686C152.406 116.33 154.115 115.652 156.306 115.652ZM156.306 118.812C155.782 118.812 155.313 118.961 154.902 119.259C154.49 119.549 154.171 120.073 153.945 120.832C153.646 121.818 153.497 123.476 153.497 125.809C153.497 128.141 153.631 129.745 153.899 130.622C154.166 131.49 154.501 132.069 154.902 132.358C155.313 132.647 155.782 132.792 156.306 132.792C156.831 132.792 157.299 132.647 157.711 132.358C158.123 132.06 158.442 131.531 158.668 130.771C158.966 129.795 159.116 128.141 159.116 125.809C159.116 123.476 158.982 121.876 158.714 121.008C158.447 120.132 158.107 119.549 157.696 119.259C157.294 118.961 156.831 118.812 156.306 118.812Z" fill="black"/>
<path d="M173.903 115.652C176.095 115.652 177.808 116.339 179.043 117.714C180.514 119.341 181.25 122.039 181.25 125.809C181.25 129.569 180.509 132.272 179.027 133.917C177.803 135.273 176.095 135.951 173.903 135.951C171.701 135.951 169.926 135.21 168.578 133.727C167.23 132.236 166.556 129.583 166.556 125.768C166.556 122.025 167.296 119.332 168.778 117.686C170.003 116.33 171.711 115.652 173.903 115.652ZM173.903 118.812C173.378 118.812 172.91 118.961 172.498 119.259C172.087 119.549 171.768 120.073 171.541 120.832C171.243 121.818 171.094 123.476 171.094 125.809C171.094 128.141 171.227 129.745 171.495 130.622C171.762 131.49 172.097 132.069 172.498 132.358C172.91 132.647 173.378 132.792 173.903 132.792C174.428 132.792 174.896 132.647 175.307 132.358C175.719 132.06 176.038 131.531 176.264 130.771C176.563 129.795 176.712 128.141 176.712 125.809C176.712 123.476 176.578 121.876 176.311 121.008C176.043 120.132 175.704 119.549 175.292 119.259C174.891 118.961 174.428 118.812 173.903 118.812Z" fill="black"/>
<path d="M104.242 63.1667H95.7598L96.7746 77.3713L84.9805 69.3903L80.7394 76.7362L93.5468 82.9598L80.7394 89.182L84.9805 96.5279L96.7746 88.5469L95.7598 102.75H104.242L103.227 88.5483L115.02 96.5279L119.261 89.182L106.454 82.9598L119.261 76.7362L115.02 69.3903L103.227 77.3699L104.242 63.1667Z" fill="#FF0E00"/>
</svg>
