<svg width="200" height="201" viewBox="0 0 200 201" fill="none" xmlns="http://www.w3.org/2000/svg">
<circle cx="99.9995" cy="100.664" r="82.8125" fill="white" stroke="#05081B" stroke-width="1.04167"/>
<circle cx="99.9993" cy="100.664" r="78.125" fill="#1071AF"/>
<path d="M100.944 156.916C125.736 156.916 145.834 131.82 145.834 100.862C145.834 69.9047 125.736 44.8086 100.944 44.8086C76.1526 44.8086 56.0548 69.9047 56.0548 100.862C56.0548 131.82 76.1526 156.916 100.944 156.916Z" fill="white" stroke="#1F1A17" stroke-width="4.98163"/>
<path d="M112.134 124.082C116.38 124.082 119.822 113.095 119.822 99.5423C119.822 85.9896 116.38 75.0029 112.134 75.0029C107.888 75.0029 104.447 85.9896 104.447 99.5423C104.447 113.095 107.888 124.082 112.134 124.082Z" fill="#1F1A17" stroke="#1F1A17" stroke-width="3.32109"/>
<path d="M112.795 47.5186C113.606 47.5186 113.14 47.9847 113.939 48.0699C127.726 49.5525 145.591 73.1874 145.591 100.274C145.591 122.883 140.812 137.34 120.453 149.578C117.556 151.319 114.661 152.513 111.533 152.513C96.7104 152.513 84.6894 129.275 84.6894 100.622C84.6894 71.9681 97.9726 47.5186 112.795 47.5186Z" stroke="#1F1A17" stroke-width="1.66054"/>
<path d="M56.0079 102.696C57.541 102.126 59.3084 102.966 59.9552 104.572C60.6026 106.179 59.8849 107.943 58.3518 108.513C56.8186 109.083 55.0513 108.242 54.4044 106.637C53.7576 105.031 54.4748 103.266 56.0079 102.696Z" fill="white" stroke="#1F1A17" stroke-width="1.66054"/>
<path d="M93.7941 61.1887C95.0291 61.4491 95.791 62.7096 95.4952 64.0039C95.1988 65.2981 93.9574 66.136 92.723 65.8756C91.488 65.6153 90.7261 64.3547 91.0225 63.0605C91.3183 61.7662 92.5591 60.9278 93.7941 61.1887Z" fill="white" stroke="#1F1A17" stroke-width="1.66054"/>
<path d="M102.235 66.7557C104.482 68.4974 105.293 70.2338 104.048 70.6333C102.802 71.0328 99.9716 69.9445 97.7256 68.2028C95.4791 66.4612 94.6667 64.7247 95.9126 64.3253C97.1585 63.9258 99.989 65.014 102.235 66.7557Z" fill="white" stroke="#1F1A17" stroke-width="1.66054"/>
<path d="M112.88 50.038C114.489 51.7077 115.885 54.9104 115.998 57.1907C116.112 59.4716 114.901 59.9673 113.293 58.2975C111.685 56.6277 110.289 53.4256 110.175 51.1448C110.061 48.8639 111.272 48.3682 112.88 50.038Z" fill="white" stroke="#1F1A17" stroke-width="1.66054"/>
<path d="M92.6307 52.73C93.9596 55.6752 94.3588 59.0803 93.5203 60.3355C92.6829 61.5908 90.9257 60.2213 89.5967 57.2766C88.2672 54.3313 87.8685 50.9263 88.7065 49.671C89.5444 48.4152 91.3005 49.7853 92.6307 52.73Z" fill="white" stroke="#1F1A17" stroke-width="1.66054"/>
<path d="M90.1771 44.5651C91.3197 45.0168 91.7533 46.347 91.1454 47.5363C90.5369 48.7255 89.1177 49.3234 87.9751 48.8711C86.8319 48.4194 86.3984 47.0892 87.0068 45.8999C87.6148 44.7106 89.034 44.1128 90.1771 44.5651Z" fill="white" stroke="#1F1A17" stroke-width="1.66054"/>
<path d="M99.7413 45.1618C103.658 45.3566 106.567 46.4506 106.239 47.6044C105.911 48.7587 102.469 49.5356 98.5512 49.3408C94.6334 49.146 91.7256 48.052 92.0539 46.8982C92.3828 45.7439 95.8247 44.9669 99.7413 45.1618Z" fill="white" stroke="#1F1A17" stroke-width="1.66054"/>
<path d="M138.715 81.7725C140.169 81.1051 141.921 81.3898 142.627 82.408C143.334 83.4263 142.728 84.793 141.274 85.4598C139.82 86.1272 138.068 85.8425 137.362 84.8243C136.655 83.8055 137.261 82.4394 138.715 81.7725Z" stroke="#1F1A17" stroke-width="1.66054"/>
<path d="M141.72 103.804C143.364 103.804 144.696 102.851 144.696 101.676C144.696 100.501 143.364 99.5488 141.72 99.5488C140.077 99.5488 138.745 100.501 138.745 101.676C138.745 102.851 140.077 103.804 141.72 103.804Z" stroke="#1F1A17" stroke-width="1.66054"/>
<path d="M141.048 117.759C142.266 118.576 142.422 119.917 141.398 120.753C140.373 121.589 138.556 121.605 137.339 120.788C136.122 119.971 135.965 118.63 136.989 117.793C138.013 116.957 139.831 116.942 141.048 117.759Z" fill="white" stroke="#1F1A17" stroke-width="1.66054"/>
<path d="M132.096 134.611C133.173 135.585 133.453 137.248 132.721 138.325C131.989 139.403 130.523 139.488 129.446 138.514C128.368 137.54 128.089 135.877 128.82 134.8C129.552 133.722 131.018 133.637 132.096 134.611Z" stroke="#1F1A17" stroke-width="1.66054"/>
<path d="M132.167 67.0231C133.429 67.0231 134.453 66.2394 134.453 65.2726C134.453 64.3057 133.429 63.522 132.167 63.522C130.905 63.522 129.882 64.3057 129.882 65.2726C129.882 66.2394 130.905 67.0231 132.167 67.0231Z" stroke="#1F1A17" stroke-width="1.66054"/>
<path d="M118.917 140.602C129.592 140.602 138.246 122.265 138.246 99.6458C138.246 77.0265 129.592 58.6899 118.917 58.6899C108.242 58.6899 99.5877 77.0265 99.5877 99.6458C99.5877 122.265 108.242 140.602 118.917 140.602Z" stroke="#1F1A17" stroke-width="3.32109"/>
<path d="M64.1992 66.9547C65.6644 67.2638 66.5681 68.7592 66.217 70.2953C65.866 71.8313 64.3933 72.8257 62.9288 72.5167C61.4637 72.2076 60.5599 70.7122 60.9098 69.1762C61.2608 67.6401 62.7329 66.6457 64.1992 66.9547Z" fill="white" stroke="#1F1A17" stroke-width="1.66054"/>
<path d="M108.912 46.3212C110.004 46.5514 110.677 47.6665 110.416 48.8111C110.154 49.9563 109.056 50.6974 107.964 50.4672C106.872 50.237 106.198 49.1219 106.46 47.9767C106.721 46.8315 107.819 46.091 108.912 46.3212Z" fill="white" stroke="#1F1A17" stroke-width="1.66054"/>
<path d="M86.099 62.2437C82.7659 62.4657 79.435 63.6937 78.6604 64.9866C77.8864 66.279 79.9603 67.1469 83.2947 66.9243C86.6267 66.7022 89.9575 65.4742 90.7322 64.1813C91.5068 62.8884 89.4322 62.0216 86.099 62.2437Z" fill="white" stroke="#1F1A17" stroke-width="1.66054"/>
<path d="M73.7842 64.3708C70.4458 64.507 67.0829 65.6492 66.2723 66.9207C65.4611 68.1927 67.5118 69.1134 70.8496 68.9772C74.1881 68.8409 77.5509 67.6987 78.3615 66.4273C79.1716 65.1552 77.122 64.2345 73.7842 64.3708Z" fill="white" stroke="#1F1A17" stroke-width="1.66054"/>
<path d="M70.4848 73.1213C73.0963 75.1238 75.1098 77.952 74.982 79.4386C74.8547 80.9251 72.6355 80.5065 70.024 78.504C67.4126 76.5014 65.3991 73.6732 65.5263 72.1867C65.6536 70.7007 67.8734 71.1187 70.4848 73.1213Z" fill="white" stroke="#1F1A17" stroke-width="1.66054"/>
<path d="M79.5853 81.8382C82.0712 83.9822 83.911 86.9176 83.6948 88.3943C83.4781 89.871 81.2867 89.3301 78.8008 87.1861C76.3149 85.042 74.4751 82.1066 74.6913 80.6293C74.9086 79.1526 77.0993 79.6941 79.5853 81.8382Z" fill="white" stroke="#1F1A17" stroke-width="1.66054"/>
<path d="M85.6249 88.1496C86.8599 88.4099 87.6212 89.6705 87.3254 90.9648C87.029 92.259 85.7882 93.0969 84.5532 92.8365C83.3182 92.5762 82.5563 91.3156 82.8527 90.0219C83.1485 88.7283 84.3899 87.8887 85.6249 88.1496Z" fill="white" stroke="#1F1A17" stroke-width="1.66054"/>
<path d="M95.1294 91.2535C98.05 92.2803 99.4696 93.7083 98.297 94.4435C97.1255 95.1792 93.8074 94.9427 90.8862 93.9165C87.9656 92.8903 86.546 91.4617 87.7186 90.7265C88.8901 89.9908 92.2082 90.2267 95.1294 91.2535Z" fill="white" stroke="#1F1A17" stroke-width="1.66054"/>
<path d="M77.1679 91.6411C74.1427 93.0042 71.4987 95.3042 71.2628 96.7786C71.0262 98.2524 73.2861 98.3422 76.3113 96.9786C79.3365 95.6149 81.9806 93.315 82.2165 91.8411C82.453 90.3673 80.1925 90.2775 77.1679 91.6411Z" fill="white" stroke="#1F1A17" stroke-width="1.66054"/>
<path d="M66.2561 98.0089C63.1943 99.2937 60.4875 101.525 60.2103 102.992C59.9326 104.46 62.1895 104.607 65.2525 103.323C68.3143 102.037 71.0211 99.8062 71.2977 98.3388C71.5749 96.8714 69.3179 96.7235 66.2561 98.0089Z" fill="white" stroke="#1F1A17" stroke-width="1.66054"/>
<path d="M85.8831 114.657C87.1372 114.504 88.2944 115.445 88.4693 116.761C88.6436 118.074 87.7678 119.264 86.5137 119.417C85.2595 119.572 84.1018 118.631 83.9274 117.315C83.7537 116 84.6289 114.811 85.8831 114.657Z" fill="white" stroke="#1F1A17" stroke-width="1.66054"/>
<path d="M96.2481 114.748C99.3553 114.894 101.151 115.852 100.261 116.889C99.3692 117.925 96.1284 118.647 93.0213 118.501C89.9135 118.355 88.118 117.396 89.0094 116.36C89.9002 115.323 93.141 114.602 96.2481 114.748Z" fill="white" stroke="#1F1A17" stroke-width="1.66054"/>
<path d="M64.5346 107.947C67.78 108.71 70.8442 110.465 71.3782 111.865C71.9128 113.266 69.7151 113.782 66.4702 113.017C63.2248 112.255 60.1607 110.5 59.626 109.1C59.092 107.7 61.2892 107.183 64.5346 107.947Z" fill="white" stroke="#1F1A17" stroke-width="1.66054"/>
<path d="M76.6051 112.184C79.7982 113.126 82.7519 115.048 83.2017 116.476C83.6509 117.903 81.4259 118.296 78.2316 117.354C75.0378 116.411 72.0847 114.49 71.6343 113.062C71.1863 111.635 73.4113 111.241 76.6051 112.184Z" fill="white" stroke="#1F1A17" stroke-width="1.66054"/>
<path d="M67.4256 140.706C68.484 139.499 70.4547 139.418 71.8257 140.527C73.1973 141.636 73.4512 143.515 72.3935 144.722C71.3352 145.931 69.365 146.011 67.9935 144.902C66.6219 143.792 66.3668 141.914 67.4256 140.706Z" fill="white" stroke="#1F1A17" stroke-width="1.66054"/>
<path d="M80.4447 121.897C78.4748 124.489 77.3091 127.728 77.8403 129.129C78.3702 130.531 80.3965 129.565 82.3664 126.972C84.3364 124.379 85.5021 121.141 84.9715 119.739C84.441 118.338 82.4147 119.304 80.4447 121.897Z" fill="white" stroke="#1F1A17" stroke-width="1.66054"/>
<path d="M74.0629 132.522C72.021 135.063 70.7646 138.27 71.2568 139.685C71.7478 141.099 73.8009 140.186 75.8423 137.645C77.8837 135.104 79.14 131.896 78.6484 130.482C78.1568 129.068 76.1044 129.981 74.0629 132.522Z" fill="white" stroke="#1F1A17" stroke-width="1.66054"/>
<path d="M96.3694 142.789C97.5643 142.391 98.8993 143.085 99.3508 144.336C99.8024 145.588 99.2003 146.926 98.006 147.323C96.8111 147.721 95.4762 147.028 95.0246 145.776C94.573 144.526 95.1751 143.188 96.3694 142.789Z" fill="white" stroke="#1F1A17" stroke-width="1.66054"/>
<path d="M92.4253 153.196C92.5938 150.952 93.7851 148.542 95.0856 147.811C96.3861 147.081 97.3036 148.307 97.1351 150.551C96.9672 152.795 95.7753 155.205 94.4748 155.935C93.1743 156.664 92.2568 155.438 92.4253 153.196Z" stroke="#1F1A17" stroke-width="1.66054"/>
<path d="M90.5056 142.533C87.786 142.015 84.8317 142.432 83.9072 143.464C82.9821 144.494 84.436 145.751 87.155 146.27C89.8745 146.787 92.8288 146.371 93.7534 145.339C94.6791 144.308 93.2246 143.052 90.5056 142.533Z" fill="white" stroke="#1F1A17" stroke-width="1.66054"/>
<path d="M79.9409 141.915C77.2388 141.373 74.2775 141.672 73.3286 142.581C72.3791 143.492 73.801 144.669 76.5037 145.211C79.2064 145.754 82.1665 145.455 83.116 144.546C84.0644 143.635 82.643 142.458 79.9409 141.915Z" fill="white" stroke="#1F1A17" stroke-width="1.66054"/>
<path d="M104.403 137.37C107.124 135.838 109.283 135.713 109.227 137.09C109.171 138.466 106.919 140.824 104.199 142.356C101.478 143.889 99.3192 144.013 99.3744 142.636C99.4296 141.259 101.682 138.901 104.403 137.37Z" fill="white" stroke="#1F1A17" stroke-width="1.66054"/>
<path d="M115.636 144.042C116.438 141.111 117.875 139.558 118.846 140.572C119.817 141.585 119.956 144.783 119.154 147.712C118.352 150.642 116.914 152.195 115.942 151.182C114.971 150.169 114.834 146.972 115.636 144.042Z" stroke="#1F1A17" stroke-width="1.66054"/>
<path d="M154.167 46.4971L45.8333 154.83" stroke="#FF0E00" stroke-width="12.5"/>
</svg>
