<svg width="200" height="201" viewBox="0 0 200 201" fill="none" xmlns="http://www.w3.org/2000/svg">
<rect x="0.520833" y="-0.520833" width="138.542" height="138.542" rx="8.85417" transform="matrix(-1 0 0 1 169.792 31.5823)" fill="white" stroke="#13141A" stroke-width="1.04167"/>
<rect width="129.167" height="129.167" rx="4.16667" transform="matrix(-1 0 0 1 164.583 35.749)" fill="#1071AF"/>
<path fill-rule="evenodd" clip-rule="evenodd" d="M43.2288 144.487C41.6169 144.487 40.6156 142.735 41.4339 141.346L98.2051 44.985C99.0109 43.6172 100.989 43.6172 101.795 44.985L158.566 141.346C159.385 142.735 158.383 144.487 156.771 144.487H43.2288Z" fill="white"/>
<path d="M68.8657 131.583L70.1765 127.135H61.2127L58.4397 131.583H68.8657Z" fill="#05081B"/>
<path d="M68.2516 133.666H57.1407L52.8442 140.557H66.2205L68.2516 133.666Z" fill="#05081B"/>
<path d="M94.2157 133.666H105.782L106.875 140.557H93.122L94.2157 133.666Z" fill="#05081B"/>
<path d="M105.451 131.583H94.5463L95.2522 127.135H104.745L105.451 131.583Z" fill="#05081B"/>
<path d="M129.781 133.666L131.812 140.557H145.188L140.892 133.666H129.781Z" fill="#05081B"/>
<path d="M139.593 131.583H129.167L127.856 127.135H136.82L139.593 131.583Z" fill="#05081B"/>
<path fill-rule="evenodd" clip-rule="evenodd" d="M86.3699 89.0456C84.2526 89.0456 82.4575 90.6025 82.158 92.6985C81.8672 94.734 83.0738 96.6863 85.0245 97.3365L86.9611 97.982L81.6043 107.357C79.9453 106.643 78.1169 106.247 76.1963 106.247C68.632 106.247 62.5 112.379 62.5 119.944C62.5 127.508 68.632 133.64 76.1963 133.64C83.7605 133.64 89.8926 127.508 89.8926 119.944C89.8926 115.406 87.6854 111.383 84.2861 108.891L85.5898 106.609L101.572 121.084C101.753 121.248 101.969 121.365 102.202 121.429C102.351 121.47 102.502 121.488 102.652 121.483H110.193C110.958 128.323 116.76 133.64 123.804 133.64C131.368 133.64 137.5 127.508 137.5 119.944C137.5 112.379 131.368 106.247 123.804 106.247C121.548 106.247 119.419 106.793 117.543 107.759L112.96 100.886V97.3521H116.631C117.484 97.3521 118.176 96.6605 118.176 95.8073C118.176 94.9542 117.484 94.2625 116.631 94.2625L105.544 94.2625C104.69 94.2625 103.999 94.9542 103.999 95.8073C103.999 96.6605 104.69 97.3521 105.544 97.3521H109.871V99.8061H89.4773L90.5786 97.8788C90.8082 97.477 90.8455 96.9934 90.6804 96.5611C90.5152 96.1287 90.1649 95.7932 89.7258 95.6469L86.0015 94.4054C85.4673 94.2274 85.1369 93.6928 85.2166 93.1354C85.2986 92.5615 85.7901 92.1352 86.3699 92.1352L90.6303 92.1345C91.4835 92.1345 92.1751 91.4429 92.1751 90.5897C92.1751 89.7366 91.4835 89.0449 90.6303 89.0449L86.3699 89.0456ZM114.973 109.474L111.643 104.48L105.052 118.394H110.194C110.596 114.826 112.369 111.673 114.973 109.474ZM113.309 118.394C113.675 115.896 114.912 113.681 116.701 112.066L120.919 118.394H113.309ZM113.308 121.483H123.806C124.375 121.483 124.899 121.17 125.168 120.668C125.437 120.165 125.407 119.556 125.091 119.082L119.271 110.352C120.645 109.701 122.182 109.337 123.804 109.337C129.662 109.337 134.41 114.086 134.41 119.944C134.41 125.802 129.662 130.55 123.804 130.55C118.469 130.55 114.054 126.612 113.308 121.483ZM76.1963 109.337C77.5589 109.337 78.8615 109.594 80.0583 110.062L74.852 119.173C74.4287 119.914 74.686 120.858 75.4268 121.281C76.1675 121.704 77.1112 121.447 77.5345 120.706L82.7403 111.596C85.2139 113.538 86.803 116.555 86.803 119.944C86.803 125.802 82.0542 130.55 76.1963 130.55C70.3384 130.55 65.5896 125.802 65.5896 119.944C65.5896 114.086 70.3384 109.337 76.1963 109.337ZM87.7118 102.896L87.1594 103.862L102.105 117.398L108.975 102.896H87.7118Z" fill="#05081B"/>
<path fill-rule="evenodd" clip-rule="evenodd" d="M98.8792 69.764C101.021 70.5946 101.955 73.1078 100.79 75.7252C99.6239 78.3426 96.9426 79.7911 94.8008 78.9607C92.6589 78.1301 91.2559 74.8841 92.4216 72.2667C93.5873 69.6493 96.7373 68.9335 98.8792 69.764ZM104.339 77.5106L113.399 91.9009C113.772 92.6158 113.784 93.4578 113.43 94.1933L104.875 102.08C104.377 102.538 104.133 103.21 104.221 103.881L105.723 115.398C105.922 116.851 104.828 118.198 103.292 118.393C101.768 118.586 100.39 117.57 100.217 116.125L98.1973 103.276C97.9942 101.983 98.41 100.67 99.3201 99.7304L105.633 93.2105L99.4384 83.3656C98.8578 82.4429 98.8871 81.262 99.5127 80.3691L101.563 77.4422C102.247 76.4665 103.704 76.5024 104.339 77.5106ZM100.681 87.8987L97.8621 83.4784L94.5656 89.4703L89.9206 87.6072C89.1868 87.3129 88.3468 87.5301 87.8477 88.1433C87.1533 88.9964 87.3764 90.2668 88.3199 90.8323L94.0002 94.2367C94.9226 95.0541 96.3491 94.8964 97.0707 93.8973L100.681 87.8987Z" fill="#13141A"/>
</svg>
