<svg width="200" height="201" viewBox="0 0 200 201" fill="none" xmlns="http://www.w3.org/2000/svg">
<circle cx="100" cy="100.005" r="82.8125" fill="white" stroke="#05081B" stroke-width="1.04167"/>
<circle cx="100" cy="100.004" r="71.875" stroke="#FF0E00" stroke-width="12.5"/>
<mask id="path-3-inside-1_0_3808" fill="white">
<path fill-rule="evenodd" clip-rule="evenodd" d="M150.613 141.78C159.991 130.432 165.625 115.876 165.625 100.004C165.625 63.7606 136.244 34.3793 100 34.3793C84.1284 34.3793 69.5727 40.0137 58.2242 49.3914L150.613 141.78ZM141.774 150.619C130.426 159.996 115.871 165.629 100 165.629C63.7563 165.629 34.375 136.248 34.375 100.004C34.375 84.1336 40.0087 69.5787 49.3855 58.2304L141.774 150.619Z"/>
</mask>
<path fill-rule="evenodd" clip-rule="evenodd" d="M150.613 141.78C159.991 130.432 165.625 115.876 165.625 100.004C165.625 63.7606 136.244 34.3793 100 34.3793C84.1284 34.3793 69.5727 40.0137 58.2242 49.3914L150.613 141.78ZM141.774 150.619C130.426 159.996 115.871 165.629 100 165.629C63.7563 165.629 34.375 136.248 34.375 100.004C34.375 84.1336 40.0087 69.5787 49.3855 58.2304L141.774 150.619Z" fill="#1071AF"/>
<path d="M150.613 141.78L147.667 144.726L150.906 147.966L153.825 144.434L150.613 141.78ZM58.2242 49.3914L55.57 46.1795L52.0382 49.098L55.2779 52.3377L58.2242 49.3914ZM141.774 150.619L144.428 153.831L147.96 150.912L144.72 147.672L141.774 150.619ZM49.3855 58.2304L52.3318 55.2842L49.0919 52.0443L46.1735 55.5764L49.3855 58.2304ZM161.458 100.004C161.458 114.872 156.184 128.497 147.401 139.126L153.825 144.434C163.797 132.366 169.792 116.88 169.792 100.004L161.458 100.004ZM100 38.5459C133.942 38.5459 161.458 66.0618 161.458 100.004L169.792 100.004C169.792 61.4594 138.545 30.2126 100 30.2126V38.5459ZM60.8783 52.6034C71.5077 43.8199 85.1324 38.5459 100 38.5459V30.2126C83.1243 30.2126 67.6378 36.2074 55.57 46.1795L60.8783 52.6034ZM55.2779 52.3377L147.667 144.726L153.559 138.834L61.1705 46.4452L55.2779 52.3377ZM139.12 147.407C128.491 156.189 114.867 161.463 100 161.463L100 169.796C116.875 169.796 132.36 163.802 144.428 153.831L139.12 147.407ZM100 161.463C66.0575 161.463 38.5416 133.947 38.5416 100.004H30.2083C30.2083 138.549 61.4551 169.796 100 169.796L100 161.463ZM38.5416 100.004C38.5416 85.1376 43.815 71.5135 52.5976 60.8845L46.1735 55.5764C36.2024 67.6439 30.2083 83.1296 30.2083 100.004H38.5416ZM144.72 147.672L52.3318 55.2842L46.4392 61.1767L138.828 153.565L144.72 147.672Z" fill="white" mask="url(#path-3-inside-1_0_3808)"/>
<rect x="91.6667" y="50.002" width="16.6667" height="100" fill="white"/>
<path d="M52.0834 52.0886L149.311 149.316" stroke="#FF0E00" stroke-width="12.5" stroke-linecap="square"/>
</svg>
