<svg width="200" height="200" viewBox="0 0 200 200" fill="none" xmlns="http://www.w3.org/2000/svg">
<path d="M25.6863 169.27H174.314C181.678 169.27 186.263 161.298 182.525 154.968L108.211 29.1561C104.527 22.9195 95.4727 22.9195 91.7889 29.1561L17.4753 154.968C13.7367 161.298 18.3214 169.27 25.6863 169.27Z" fill="#FF0E00" stroke="black" stroke-width="1.04167"/>
<path d="M174.314 166.666H25.6863C20.3188 166.666 17.0139 160.87 19.7175 156.293L94.0312 30.4805C96.707 25.9503 103.293 25.9503 105.969 30.4805L180.282 156.293C182.986 160.87 179.681 166.666 174.314 166.666Z" fill="#FF0E00" stroke="white" stroke-width="4.16667"/>
<path fill-rule="evenodd" clip-rule="evenodd" d="M164.062 154.167L99.9999 45.4302L35.9374 154.167H164.062Z" fill="white"/>
<path fill-rule="evenodd" clip-rule="evenodd" d="M127.083 108.332H118.75V147.915H108.333V108.332H99.9999L113.542 85.4155L127.083 108.332ZM99.9998 124.999H91.6665V85.4163H81.2498V124.999H72.9165L86.4582 147.916L99.9998 124.999Z" fill="black"/>
</svg>
