<svg width="200" height="201" viewBox="0 0 200 201" fill="none" xmlns="http://www.w3.org/2000/svg">
<rect x="1.56254" y="147.02" width="92.7084" height="196.875" rx="8.85417" transform="rotate(-90 1.56254 147.02)" fill="white" stroke="#13141A" stroke-width="1.04167"/>
<rect x="6.77083" y="141.811" width="82.2917" height="186.458" rx="3.64583" transform="rotate(-90 6.77083 141.811)" stroke="black" stroke-width="1.04167"/>
<path fill-rule="evenodd" clip-rule="evenodd" d="M65.0304 69.4166C62.23 69.4166 59.8548 71.4812 59.4553 74.2628C59.0658 76.9749 60.6707 79.5767 63.2633 80.4363L66.4192 81.4827L58.6405 95.0231C56.2045 93.9272 53.5003 93.3171 50.6529 93.3171C39.937 93.3171 31.25 101.958 31.25 112.617C31.25 123.276 39.937 131.917 50.6529 131.917C61.3689 131.917 70.0558 123.276 70.0558 112.617C70.0558 106.096 66.805 100.331 61.8274 96.8372L63.87 93.2817L86.812 113.949C86.9467 114.076 87.1031 114.185 87.279 114.27C87.567 114.408 87.873 114.464 88.1707 114.447H98.7803C99.7071 124.247 108.002 131.916 118.097 131.916C128.813 131.916 137.5 123.276 137.5 112.617C137.5 101.958 128.813 93.3167 118.097 93.3167C114.774 93.3167 111.646 94.1478 108.911 95.6125L102.374 85.8591V80.4448L107.931 80.4448C108.943 80.4448 109.763 79.6218 109.763 78.6065C109.763 77.5912 108.943 76.7682 107.931 76.7682L92.2242 76.7682C91.2125 76.7682 90.3923 77.5912 90.3923 78.6065C90.3923 79.6218 91.2125 80.4448 92.2242 80.4448L98.7103 80.4448V84.5775H68.8704L70.7168 81.3635C70.9919 80.8845 71.0376 80.3068 70.8413 79.7902C70.645 79.2737 70.2275 78.8732 69.7044 78.6998L64.4127 76.9453C63.5065 76.6448 62.9455 75.7353 63.0816 74.7873C63.2213 73.815 64.0515 73.0933 65.0304 73.0933H74.2114C75.2231 73.0933 76.0433 72.2702 76.0433 71.255C76.0433 70.2397 75.2231 69.4166 74.2114 69.4166H65.0304ZM105.856 97.6418L100.812 90.1159L90.9758 110.77H98.7818C99.2864 105.482 101.936 100.816 105.856 97.6418ZM102.467 110.77C102.944 106.758 104.955 103.201 107.91 100.707L114.655 110.77H102.467ZM102.465 114.447H118.095C118.771 114.447 119.393 114.072 119.711 113.472C120.03 112.873 119.992 112.146 119.615 111.582L110.969 98.6827C113.106 97.6029 115.528 96.9934 118.097 96.9934C126.82 96.9934 133.836 104.019 133.836 112.617C133.836 121.214 126.82 128.24 118.097 128.24C110.002 128.24 103.377 122.189 102.465 114.447ZM50.6529 96.9937C52.8363 96.9937 54.9128 97.4339 56.799 98.2286L49.0637 111.693C48.5584 112.573 48.8593 113.697 49.7358 114.204C50.6123 114.711 51.7325 114.409 52.2378 113.53L59.9891 100.037C63.8782 102.887 66.392 107.47 66.392 112.617C66.392 121.215 59.376 128.24 50.6529 128.24C41.9298 128.24 34.9138 121.215 34.9138 112.617C34.9138 104.019 41.9298 96.9937 50.6529 96.9937ZM66.7582 88.2542L65.7404 90.0259L87.4713 109.602L97.6376 88.2542H66.7582Z" fill="black"/>
<path d="M165.515 70.6343L156.25 80.0924L156.25 89.207L165.515 79.7489V133.999H171.765V79.5246L181.25 89.207V80.0924L168.75 67.332L165.625 70.5221H165.515V70.6343Z" fill="black"/>
</svg>
