<svg width="204" height="200" viewBox="0 0 204 200" fill="none" xmlns="http://www.w3.org/2000/svg">
<rect x="202.518" y="41.1496" width="117.707" height="201.039" rx="8.85404" transform="rotate(90 202.518 41.1496)" fill="white" stroke="#13141A" stroke-width="1.04165"/>
<rect x="197.83" y="45.8345" width="108.332" height="191.664" rx="4.16661" transform="rotate(90 197.83 45.8345)" fill="#1071AF"/>
<path d="M34.5008 94.7534V61.9455H45.1309C49.1592 61.9455 51.785 62.1096 53.0084 62.4378C54.8882 62.9302 56.4622 64.0044 57.7304 65.6604C58.9986 67.3016 59.6326 69.4276 59.6326 72.0385C59.6326 74.0526 59.2671 75.746 58.5361 77.1186C57.805 78.4912 56.8725 79.5728 55.7387 80.3636C54.6197 81.1394 53.4784 81.6541 52.3146 81.9077C50.7332 82.221 48.443 82.3777 45.4442 82.3777H41.125V94.7534H34.5008ZM41.125 67.4955V76.8053H44.7505C47.3614 76.8053 49.1069 76.6337 49.9872 76.2906C50.8674 75.9474 51.5537 75.4103 52.0461 74.6792C52.5533 73.9482 52.807 73.0978 52.807 72.128C52.807 70.9345 52.4564 69.9498 51.7552 69.174C51.0539 68.3981 50.1662 67.9133 49.092 67.7193C48.3013 67.5701 46.7124 67.4955 44.3252 67.4955H41.125ZM62.0496 70.9867H68.741L74.4253 87.8606L79.9754 70.9867H86.4877L78.0955 93.8582L76.5961 97.9984C76.0441 99.3859 75.5144 100.445 75.0072 101.176C74.5148 101.907 73.9404 102.497 73.284 102.944C72.6424 103.407 71.8442 103.765 70.8894 104.018C69.9495 104.272 68.8827 104.399 67.6892 104.399C66.4807 104.399 65.2946 104.272 64.1309 104.018L63.5714 99.095C64.5561 99.2889 65.4438 99.3859 66.2345 99.3859C67.6966 99.3859 68.7783 98.9533 69.4795 98.0879C70.1807 97.2375 70.7178 96.1484 71.0908 94.8206L62.0496 70.9867ZM109.024 94.7534H91.0307V101.02H85.9282V89.6062H88.5018C89.576 88.4126 90.4638 86.5477 91.165 84.0114C91.8662 81.4751 92.2839 77.1335 92.4182 70.9867H111.597V89.6062H114.148V101.02H109.024V94.7534ZM105.376 89.6062L105.398 76.1563H97.7892C97.5356 82.7209 96.4912 87.2042 94.6561 89.6062H105.376ZM118.221 70.9867H124.51V79.6922H133.506V70.9867H139.817V94.7534H133.506V84.7723H124.51V94.7534H118.221V70.9867ZM166.538 70.9867V94.7534H160.294V84.8842H159.713C158.355 84.8842 157.355 85.0632 156.714 85.4213C156.087 85.7644 155.386 86.5029 154.61 87.6368L154.23 88.1068L150.089 94.7534H142.771L147.27 87.8606C148.553 85.8912 149.716 84.7574 150.761 84.459C149 84.3545 147.568 83.6906 146.464 82.4672C145.375 81.2289 144.83 79.6549 144.83 77.7452C144.83 76.2085 145.188 74.8956 145.905 73.8065C146.636 72.7173 147.598 71.9788 148.791 71.5909C150 71.1881 151.79 70.9867 154.163 70.9867H166.538ZM160.294 75.0373H155.796C154.14 75.0373 152.976 75.276 152.305 75.7535C151.634 76.216 151.298 76.9918 151.298 78.0809C151.298 79.17 151.678 79.9533 152.439 80.4307C153.2 80.9081 154.446 81.1468 156.177 81.1468H160.294V75.0373Z" fill="white"/>
<path d="M37.6216 135.584V113.215H47.1277C49.5182 113.215 51.2526 113.419 52.3309 113.826C53.4193 114.222 54.289 114.935 54.9401 115.962C55.5911 116.989 55.9166 118.164 55.9166 119.487C55.9166 121.165 55.4233 122.554 54.4365 123.652C53.4498 124.741 51.9748 125.427 50.0116 125.712C50.9881 126.282 51.7917 126.907 52.4224 127.589C53.0633 128.271 53.9228 129.481 55.0011 131.221L57.7324 135.584H52.3309L49.0655 130.717C47.9059 128.978 47.1124 127.884 46.6852 127.436C46.258 126.979 45.8053 126.668 45.3272 126.506C44.8491 126.333 44.0912 126.246 43.0537 126.246H42.1381V135.584H37.6216ZM42.1381 122.676H45.4798C47.6465 122.676 48.9994 122.584 49.5385 122.401C50.0777 122.218 50.4998 121.903 50.805 121.455C51.1102 121.007 51.2628 120.448 51.2628 119.777C51.2628 119.024 51.0593 118.419 50.6524 117.961C50.2557 117.493 49.6911 117.198 48.9587 117.076C48.5925 117.025 47.4939 117 45.6629 117H42.1381V122.676ZM70.8242 135.584V133.158C70.2342 134.023 69.4561 134.705 68.4897 135.203C67.5335 135.701 66.5213 135.951 65.4532 135.951C64.3648 135.951 63.3882 135.712 62.5236 135.234C61.6589 134.755 61.0333 134.084 60.6468 133.219C60.2602 132.355 60.067 131.159 60.067 129.634V119.38H64.3546V126.826C64.3546 129.105 64.4309 130.503 64.5835 131.022C64.7463 131.531 65.0362 131.938 65.4532 132.243C65.8703 132.538 66.3993 132.685 67.0401 132.685C67.7725 132.685 68.4287 132.487 69.0085 132.09C69.5883 131.683 69.985 131.185 70.1986 130.595C70.4123 129.995 70.5191 128.535 70.5191 126.216V119.38H74.8067V135.584H70.8242ZM94.1241 135.584H90.1416V133.204C89.4804 134.13 88.6971 134.822 87.7918 135.279C86.8966 135.727 85.9913 135.951 85.0757 135.951C83.2142 135.951 81.6171 135.203 80.2846 133.708C78.9621 132.202 78.3009 130.107 78.3009 127.421C78.3009 124.675 78.9469 122.589 80.2388 121.165C81.5307 119.731 83.1633 119.014 85.1368 119.014C86.9475 119.014 88.514 119.766 89.8364 121.272V113.215H94.1241V135.584ZM82.6802 127.131C82.6802 128.861 82.9192 130.112 83.3973 130.885C84.089 132.004 85.0554 132.563 86.2964 132.563C87.2832 132.563 88.1224 132.146 88.8141 131.312C89.5058 130.468 89.8517 129.211 89.8517 127.543C89.8517 125.682 89.516 124.344 88.8446 123.53C88.1732 122.706 87.3137 122.294 86.2659 122.294C85.2487 122.294 84.3942 122.701 83.7025 123.515C83.0209 124.319 82.6802 125.524 82.6802 127.131ZM113.106 135.584H108.818V127.314C108.818 125.565 108.727 124.436 108.543 123.927C108.36 123.408 108.06 123.006 107.643 122.722C107.236 122.437 106.743 122.294 106.163 122.294C105.42 122.294 104.754 122.498 104.164 122.905C103.574 123.312 103.167 123.851 102.944 124.522C102.73 125.193 102.623 126.434 102.623 128.245V135.584H98.3354V119.38H102.318V121.76C103.732 119.929 105.512 119.014 107.658 119.014C108.604 119.014 109.469 119.187 110.252 119.532C111.036 119.868 111.626 120.3 112.022 120.829C112.429 121.358 112.709 121.959 112.862 122.63C113.024 123.301 113.106 124.263 113.106 125.514V135.584ZM117.47 117.183V113.215H121.757V117.183H117.47ZM117.47 135.584V119.38H121.757V135.584H117.47ZM129.371 124.324L125.48 123.622C125.918 122.055 126.671 120.896 127.739 120.143C128.807 119.39 130.394 119.014 132.499 119.014C134.412 119.014 135.836 119.243 136.772 119.7C137.708 120.148 138.364 120.723 138.74 121.425C139.127 122.116 139.32 123.393 139.32 125.254L139.274 130.259C139.274 131.683 139.34 132.736 139.473 133.418C139.615 134.089 139.874 134.811 140.251 135.584H136.009C135.897 135.3 135.76 134.877 135.597 134.318C135.526 134.064 135.475 133.896 135.444 133.814C134.712 134.527 133.929 135.061 133.094 135.417C132.26 135.773 131.37 135.951 130.424 135.951C128.756 135.951 127.439 135.498 126.472 134.593C125.516 133.687 125.038 132.543 125.038 131.159C125.038 130.244 125.257 129.43 125.694 128.718C126.131 127.996 126.742 127.447 127.525 127.07C128.319 126.684 129.458 126.348 130.943 126.063C132.947 125.687 134.335 125.336 135.109 125.01V124.583C135.109 123.759 134.905 123.174 134.498 122.828C134.091 122.472 133.323 122.294 132.194 122.294C131.431 122.294 130.836 122.447 130.409 122.752C129.982 123.047 129.636 123.571 129.371 124.324ZM135.109 127.803C134.559 127.986 133.69 128.204 132.499 128.459C131.309 128.713 130.531 128.962 130.165 129.206C129.605 129.603 129.326 130.107 129.326 130.717C129.326 131.317 129.549 131.836 129.997 132.273C130.445 132.711 131.014 132.929 131.706 132.929C132.479 132.929 133.217 132.675 133.918 132.167C134.437 131.78 134.778 131.307 134.941 130.748C135.053 130.381 135.109 129.684 135.109 128.657V127.803Z" fill="white"/>
<path fill-rule="evenodd" clip-rule="evenodd" d="M190.919 45.834L193.664 45.834C195.965 45.834 197.83 47.6994 197.83 50.0006V51.5267C197.811 51.5379 197.791 51.549 197.772 51.5599L13.0814 154.166H10.3332C8.03202 154.166 6.16656 152.3 6.16656 149.999L6.16657 148.475C6.18678 148.463 6.20714 148.452 6.22762 148.441L190.919 45.834Z" fill="#FF0E00"/>
</svg>
