<svg width="200" height="200" viewBox="0 0 200 200" fill="none" xmlns="http://www.w3.org/2000/svg">
<circle cx="100" cy="99.9997" r="82.8125" fill="white" stroke="#05081B" stroke-width="1.04167"/>
<circle cx="100" cy="100.001" r="77.0834" stroke="black" stroke-width="2.08333"/>
<path fill-rule="evenodd" clip-rule="evenodd" d="M51.6356 79.486L46.9191 92.5928H45.2777C43.2834 92.5928 41.6666 94.2265 41.6666 96.2419V109.014C41.6666 111.029 43.2834 112.663 45.2777 112.663H46.1805V119.049C46.1805 121.064 47.7973 122.698 49.7916 122.698H52.4999C54.4943 122.698 56.1111 121.064 56.1111 119.049V112.663H81.3888V119.049C81.3888 121.064 83.0056 122.698 85 122.698H87.7083C89.7027 122.698 91.3194 121.064 91.3194 119.049V112.663H92.2222C94.2165 112.663 95.8333 111.029 95.8333 109.014V96.2419C95.8333 94.2265 94.2165 92.5928 92.2222 92.5928H90.5808L85.8643 79.486C85.3454 78.044 83.9891 77.084 82.4706 77.084H55.0293C53.5108 77.084 52.1545 78.0439 51.6356 79.486ZM55.6616 81.6454L51.7222 92.5928H85.7777L81.8383 81.6454H55.6616Z" fill="#8F8F8F"/>
<path fill-rule="evenodd" clip-rule="evenodd" d="M114.136 79.486L109.419 92.5928H107.778C105.783 92.5928 104.167 94.2265 104.167 96.2419V109.014C104.167 111.029 105.783 112.663 107.778 112.663H108.681V119.049C108.681 121.064 110.297 122.698 112.292 122.698H115C116.994 122.698 118.611 121.064 118.611 119.049V112.663H143.889V119.049C143.889 121.064 145.506 122.698 147.5 122.698H150.208C152.203 122.698 153.82 121.064 153.82 119.049V112.663H154.722C156.717 112.663 158.333 111.029 158.333 109.014V96.2419C158.333 94.2265 156.717 92.5928 154.722 92.5928H153.081L148.364 79.486C147.846 78.044 146.489 77.084 144.971 77.084H117.529C116.011 77.084 114.655 78.0439 114.136 79.486ZM118.162 81.6454L114.222 92.5928H148.278L144.338 81.6454H118.162Z" fill="#8F8F8F"/>
<path d="M37.4995 146.514L146.512 37.502L147.985 38.9751L38.9726 147.987L37.4995 146.514Z" fill="black"/>
<path d="M41.1823 150.197L150.195 41.1848L151.668 42.6579L42.6555 151.67L41.1823 150.197Z" fill="black"/>
<path d="M153.877 44.8677L44.8652 153.88L46.3383 155.353L155.351 46.3408L153.877 44.8677Z" fill="black"/>
<path d="M48.548 157.563L157.56 48.5505L159.033 50.0236L50.0212 159.036L48.548 157.563Z" fill="black"/>
<path d="M161.243 52.2333L52.2309 161.246L53.704 162.719L162.716 53.7065L161.243 52.2333Z" fill="black"/>
</svg>
