<svg width="200" height="201" viewBox="0 0 200 201" fill="none" xmlns="http://www.w3.org/2000/svg">
<circle cx="100" cy="100.667" r="82.8125" fill="white" stroke="#05081B" stroke-width="1.04167"/>
<circle cx="100" cy="100.667" r="71.875" stroke="#FF0E00" stroke-width="12.5"/>
<path d="M39.5833 84L54.1667 100.667L39.5833 117.333V84Z" fill="black"/>
<path d="M160.417 84L145.833 100.667L160.417 117.333V84Z" fill="black"/>
<path fill-rule="evenodd" clip-rule="evenodd" d="M94.2338 109.571V101.712H77.4369C77.8784 100.95 78.4504 100.167 79.1527 99.3639C79.8752 98.561 81.5709 96.9351 84.24 94.4862C86.909 92.0373 88.7552 90.1605 89.7787 88.8557C91.3239 86.8886 92.4477 85.0118 93.1501 83.2253C93.8726 81.4187 94.2338 79.5218 94.2338 77.5346C94.2338 74.0419 92.9896 71.1213 90.5012 68.7728C88.0127 66.4243 84.5911 65.25 80.2364 65.25C76.2629 65.25 72.9517 66.2637 70.3028 68.291C67.6538 70.3184 66.0785 73.6605 65.5768 78.3174L74.0053 79.1605C74.1658 76.6915 74.7679 74.9251 75.8114 73.8613C76.855 72.7974 78.2597 72.2655 80.0257 72.2655C81.8117 72.2655 83.2065 72.7773 84.2099 73.801C85.2333 74.8047 85.7451 76.2499 85.7451 78.1368C85.7451 79.843 85.1631 81.5693 83.9991 83.3156C83.1362 84.5802 80.7983 86.9889 76.9854 90.5418C72.2494 94.9378 69.0786 98.4706 67.4732 101.14C65.8678 103.79 64.9045 106.6 64.5834 109.571H94.2338ZM110.355 101.11H101.897V109.571H105.991C105.951 111.277 105.569 112.622 104.847 113.606C104.124 114.589 102.91 115.362 101.205 115.924L102.86 119.417C104.666 118.774 106.151 117.891 107.315 116.767C108.499 115.643 109.302 114.368 109.723 112.943C110.145 111.538 110.355 109.611 110.355 107.162V101.11ZM113.953 77.2701V83.1006L128.224 83.1006C125.276 86.8089 122.916 91.0162 121.144 95.7223C119.387 100.428 118.457 105.045 118.352 109.573H124.405C124.39 106.683 124.859 103.407 125.812 99.7433C126.78 96.0648 128.179 92.5948 130.011 89.3333C131.842 86.0718 133.644 83.5698 135.415 81.8273V77.2701L113.953 77.2701Z" fill="black"/>
<path d="M91.0714 123.583H97.1589L99.9912 132.676L102.859 123.583H108.929L112.5 146.5H106.534L104.748 131.416L102.003 139.625H97.8046L95.2697 131.416L93.4839 146.5H87.5L91.0714 123.583Z" fill="black"/>
</svg>
