<svg width="200" height="200" viewBox="0 0 200 200" fill="none" xmlns="http://www.w3.org/2000/svg">
<circle cx="100" cy="99.9987" r="82.8125" fill="white" stroke="#05081B" stroke-width="1.04167"/>
<path d="M145.833 81.2497L131.25 122.916H73.9584L52.0834 83.333L67.7084 81.2497L63.5417 62.4997L80.2084 71.8747V49.9997L91.6667 58.333L96.875 45.833L116.667 76.0413L134.375 60.4163L136.458 81.2497H145.833Z" fill="#FFE600" stroke="#FF0E00" stroke-width="4.16667" stroke-linecap="round"/>
<circle cx="100" cy="100" r="71.875" stroke="#FF0E00" stroke-width="12.5"/>
<path fill-rule="evenodd" clip-rule="evenodd" d="M74.9867 84.7597L68.0934 103.916H65.6944C62.7796 103.916 60.4167 106.304 60.4167 109.249V127.916C60.4167 130.861 62.7796 133.249 65.6944 133.249H67.0139V142.582C67.0139 145.528 69.3768 147.916 72.2917 147.916H76.25C79.1648 147.916 81.5278 145.528 81.5278 142.582V133.249H118.472V142.582C118.472 145.528 120.835 147.916 123.75 147.916H127.708C130.623 147.916 132.986 145.528 132.986 142.582V133.249H134.306C137.22 133.249 139.583 130.861 139.583 127.916V109.249C139.583 106.304 137.22 103.916 134.306 103.916H131.907L125.013 84.7597C124.255 82.6521 122.273 81.249 120.053 81.249H79.9467C77.7274 81.249 75.7451 82.652 74.9867 84.7597Z" fill="white"/>
<path fill-rule="evenodd" clip-rule="evenodd" d="M74.9867 84.7597L68.0934 103.916H65.6944C62.7796 103.916 60.4167 106.304 60.4167 109.249V127.916C60.4167 130.861 62.7796 133.249 65.6944 133.249H67.0139V142.582C67.0139 145.528 69.3768 147.916 72.2917 147.916H76.25C79.1648 147.916 81.5278 145.528 81.5278 142.582V133.249H118.472V142.582C118.472 145.528 120.835 147.916 123.75 147.916H127.708C130.623 147.916 132.986 145.528 132.986 142.582V133.249H134.306C137.22 133.249 139.583 130.861 139.583 127.916V109.249C139.583 106.304 137.22 103.916 134.306 103.916H131.907L125.013 84.7597C124.255 82.6521 122.273 81.249 120.053 81.249H79.9467C77.7274 81.249 75.7451 82.652 74.9867 84.7597ZM80.8709 87.9157L75.1133 103.916H124.887L119.129 87.9157H80.8709ZM81.5278 118.582C81.5278 121.528 79.1648 123.916 76.25 123.916C73.3352 123.916 70.9722 121.528 70.9722 118.582C70.9722 115.637 73.3352 113.249 76.25 113.249C79.1648 113.249 81.5278 115.637 81.5278 118.582ZM123.75 123.916C126.665 123.916 129.028 121.528 129.028 118.582C129.028 115.637 126.665 113.249 123.75 113.249C120.835 113.249 118.472 115.637 118.472 118.582C118.472 121.528 120.835 123.916 123.75 123.916Z" fill="black"/>
</svg>
