<svg width="200" height="201" viewBox="0 0 200 201" fill="none" xmlns="http://www.w3.org/2000/svg">
<circle cx="100" cy="100.668" r="82.8125" fill="white" stroke="#05081B" stroke-width="1.04167"/>
<circle cx="100" cy="100.669" r="71.875" stroke="#FF0E00" stroke-width="12.5"/>
<path d="M52.0834 52.752L149.311 149.979" stroke="#FF0E00" stroke-width="12.5" stroke-linecap="square"/>
<mask id="path-4-inside-1_0_3800" fill="white">
<path fill-rule="evenodd" clip-rule="evenodd" d="M150.612 142.445C159.99 131.096 165.625 116.54 165.625 100.667C165.625 64.4238 136.244 35.0425 100 35.0425C84.1277 35.0425 69.5715 40.6774 58.2228 50.0558L150.612 142.445ZM141.772 151.283C130.424 160.659 115.87 166.293 100 166.293C63.7563 166.293 34.375 136.911 34.375 100.667C34.375 84.7974 40.0083 70.2431 49.3844 58.895L141.772 151.283Z"/>
</mask>
<path fill-rule="evenodd" clip-rule="evenodd" d="M150.612 142.445C159.99 131.096 165.625 116.54 165.625 100.667C165.625 64.4238 136.244 35.0425 100 35.0425C84.1277 35.0425 69.5715 40.6774 58.2228 50.0558L150.612 142.445ZM141.772 151.283C130.424 160.659 115.87 166.293 100 166.293C63.7563 166.293 34.375 136.911 34.375 100.667C34.375 84.7974 40.0083 70.2431 49.3844 58.895L141.772 151.283Z" fill="#1071AF"/>
<path d="M150.612 142.445L147.665 145.391L150.905 148.631L153.824 145.099L150.612 142.445ZM58.2228 50.0558L55.5686 46.8439L52.0369 49.7624L55.2765 53.0021L58.2228 50.0558ZM141.772 151.283L144.426 154.495L147.959 151.577L144.719 148.337L141.772 151.283ZM49.3844 58.895L52.3306 55.9487L49.0907 52.7088L46.1722 56.2411L49.3844 58.895ZM161.458 100.667C161.458 115.536 156.184 129.161 147.4 139.79L153.824 145.099C163.796 133.031 169.792 117.544 169.792 100.667L161.458 100.667ZM100 39.2091C133.942 39.2091 161.458 66.725 161.458 100.667L169.792 100.667C169.792 62.1226 138.545 30.8758 100 30.8758V39.2091ZM60.877 53.2677C71.5066 44.4836 85.1318 39.2091 100 39.2091V30.8758C83.1236 30.8758 67.6365 36.8711 55.5686 46.8439L60.877 53.2677ZM55.2765 53.0021L147.665 145.391L153.558 139.498L61.1691 47.1095L55.2765 53.0021ZM139.119 148.071C128.49 156.853 114.866 162.126 100 162.126L100 170.459C116.874 170.459 132.359 164.466 144.426 154.495L139.119 148.071ZM100 162.126C66.0575 162.126 38.5416 134.61 38.5416 100.667H30.2083C30.2083 139.212 61.4551 170.459 100 170.459L100 162.126ZM38.5416 100.667C38.5416 85.8014 43.8146 72.1779 52.5965 61.549L46.1722 56.2411C36.202 68.3083 30.2083 83.7935 30.2083 100.667H38.5416ZM144.719 148.337L52.3306 55.9487L46.4381 61.8413L138.826 154.229L144.719 148.337Z" fill="white" mask="url(#path-4-inside-1_0_3800)"/>
</svg>
