<svg width="200" height="200" viewBox="0 0 200 200" fill="none" xmlns="http://www.w3.org/2000/svg">
<path d="M25.6863 169.271H174.314C181.678 169.271 186.263 161.298 182.525 154.969L108.211 29.1566C104.527 22.92 95.4727 22.92 91.7889 29.1566L17.4753 154.969C13.7367 161.298 18.3214 169.271 25.6863 169.271Z" fill="#FF0E00" stroke="black" stroke-width="1.04167"/>
<path d="M174.314 166.667H25.6863C20.3188 166.667 17.0139 160.87 19.7175 156.293L94.0312 30.481C96.707 25.9508 103.293 25.9508 105.969 30.481L180.282 156.293C182.986 160.87 179.681 166.667 174.314 166.667Z" fill="#FF0E00" stroke="white" stroke-width="4.16667"/>
<path fill-rule="evenodd" clip-rule="evenodd" d="M164.062 154.168L99.9999 45.4307L35.9374 154.168H164.062Z" fill="white"/>
<path fill-rule="evenodd" clip-rule="evenodd" d="M83.3333 104.166C83.3333 96.1122 89.8624 89.583 97.9166 89.583H114.583L122.917 95.833L114.583 102.083H97.9166C96.766 102.083 95.8333 103.016 95.8333 104.166V145.833L89.5833 139.583L83.3333 145.833V104.166Z" fill="black"/>
</svg>
