<svg width="200" height="201" viewBox="0 0 200 201" fill="none" xmlns="http://www.w3.org/2000/svg">
<rect x="30.7287" y="12.7422" width="138.54" height="101.04" rx="8.85404" fill="white" stroke="#13141A" stroke-width="1.04165"/>
<rect x="30.7287" y="121.074" width="138.54" height="67.7073" rx="8.85404" fill="white" stroke="#13141A" stroke-width="1.04165"/>
<path fill-rule="evenodd" clip-rule="evenodd" d="M63.3708 46.5948H136.626C138.832 46.5948 140.906 47.6427 142.215 49.4181L150.726 60.9605C151.606 62.1543 152.081 63.5985 152.081 65.0817V83.6313C152.081 86.1882 150.008 88.2609 147.451 88.2609H140.621C140.655 87.8797 140.672 87.4937 140.672 87.1035C140.672 80.0722 134.972 74.3722 127.941 74.3722C120.91 74.3722 115.21 80.0722 115.21 87.1035C115.21 87.4937 115.227 87.8797 115.262 88.2609H80.1056C80.1399 87.8797 80.1575 87.4937 80.1575 87.1035C80.1575 80.0722 74.4575 74.3722 67.4262 74.3722C60.3949 74.3722 54.6949 80.0722 54.6949 87.1035C54.6949 87.4937 54.7124 87.8797 54.7468 88.2609H52.5455C49.9886 88.2609 47.9159 86.1882 47.9159 83.6313V65.0817C47.9159 63.5985 48.3908 62.1543 49.2709 60.9605L57.7815 49.4181C59.0905 47.6427 61.1651 46.5948 63.3708 46.5948ZM53.1903 63.283L61.1804 52.0968C61.5715 51.5493 62.2029 51.2244 62.8757 51.2244H71.2942C72.4448 51.2244 73.3775 52.1571 73.3775 53.3077V63.0298C73.3775 64.1804 72.4448 65.1131 71.2942 65.1131H54.1321C53.1907 65.1131 52.6431 64.049 53.1903 63.283ZM144.49 63.283L136.5 52.0968C136.109 51.5493 135.477 51.2244 134.804 51.2244H126.386C125.235 51.2244 124.303 52.1571 124.303 53.3077V63.0298C124.303 64.1804 125.235 65.1131 126.386 65.1131H143.548C144.489 65.1131 145.037 64.049 144.49 63.283ZM101.155 53.3077C101.155 52.1571 102.088 51.2244 103.238 51.2244H117.59C118.74 51.2244 119.673 52.1571 119.673 53.3077V63.0298C119.673 64.1804 118.74 65.1131 117.59 65.1131H103.238C102.088 65.1131 101.155 64.1804 101.155 63.0298V53.3077ZM96.5253 53.3077C96.5253 52.1571 95.5926 51.2244 94.442 51.2244H80.0904C78.9398 51.2244 78.0071 52.1571 78.0071 53.3077V63.0298C78.0071 64.1804 78.9398 65.1131 80.0904 65.1131H94.442C95.5926 65.1131 96.5253 64.1804 96.5253 63.0298V53.3077Z" fill="black"/>
<path fill-rule="evenodd" clip-rule="evenodd" d="M67.4262 97.52C73.1791 97.52 77.8427 92.8564 77.8427 87.1035C77.8427 81.3506 73.1791 76.687 67.4262 76.687C61.6733 76.687 57.0097 81.3506 57.0097 87.1035C57.0097 92.8564 61.6733 97.52 67.4262 97.52ZM67.4262 92.8905C70.6222 92.8905 73.2131 90.2996 73.2131 87.1035C73.2131 83.9075 70.6222 81.3166 67.4262 81.3166C64.2301 81.3166 61.6392 83.9075 61.6392 87.1035C61.6392 90.2996 64.2301 92.8905 67.4262 92.8905Z" fill="black"/>
<path fill-rule="evenodd" clip-rule="evenodd" d="M127.941 97.52C133.694 97.52 138.358 92.8564 138.358 87.1035C138.358 81.3506 133.694 76.687 127.941 76.687C122.188 76.687 117.525 81.3506 117.525 87.1035C117.525 92.8564 122.188 97.52 127.941 97.52ZM127.941 92.8905C131.137 92.8905 133.728 90.2996 133.728 87.1035C133.728 83.9075 131.137 81.3166 127.941 81.3166C124.745 81.3166 122.154 83.9075 122.154 87.1035C122.154 90.2996 124.745 92.8905 127.941 92.8905Z" fill="black"/>
<path d="M59.0445 152.095V137.183H63.8764C65.7074 137.183 66.901 137.257 67.4571 137.406C68.3115 137.63 69.027 138.118 69.6034 138.871C70.1799 139.617 70.4681 140.584 70.4681 141.77C70.4681 142.686 70.3019 143.456 69.9696 144.08C69.6373 144.703 69.2135 145.195 68.6981 145.554C68.1895 145.907 67.6707 146.141 67.1417 146.256C66.4229 146.399 65.3819 146.47 64.0188 146.47H62.0555V152.095H59.0445ZM62.0555 139.705V143.937H63.7035C64.8902 143.937 65.6837 143.859 66.0838 143.703C66.4839 143.547 66.7959 143.303 67.0196 142.971C67.2502 142.638 67.3655 142.252 67.3655 141.811C67.3655 141.269 67.2061 140.821 66.8874 140.468C66.5687 140.116 66.1652 139.895 65.6769 139.807C65.3175 139.739 64.5952 139.705 63.5102 139.705H62.0555ZM71.7295 146.541C71.7295 145.592 71.9634 144.673 72.4314 143.785C72.8993 142.896 73.5605 142.218 74.415 141.75C75.2762 141.282 76.2358 141.048 77.2937 141.048C78.9281 141.048 80.2675 141.58 81.3118 142.645C82.3562 143.703 82.8784 145.042 82.8784 146.663C82.8784 148.298 82.3494 149.654 81.2915 150.732C80.2403 151.804 78.9145 152.339 77.3141 152.339C76.324 152.339 75.378 152.116 74.476 151.668C73.5808 151.221 72.8993 150.566 72.4314 149.705C71.9634 148.837 71.7295 147.782 71.7295 146.541ZM74.6591 146.694C74.6591 147.765 74.9134 148.586 75.422 149.156C75.9306 149.725 76.5579 150.01 77.3039 150.01C78.0499 150.01 78.6738 149.725 79.1756 149.156C79.6843 148.586 79.9386 147.759 79.9386 146.673C79.9386 145.616 79.6843 144.802 79.1756 144.232C78.6738 143.662 78.0499 143.378 77.3039 143.378C76.5579 143.378 75.9306 143.662 75.422 144.232C74.9134 144.802 74.6591 145.622 74.6591 146.694ZM87.751 147.66V145.799C88.246 145.799 88.6054 145.768 88.8292 145.707C89.053 145.639 89.2632 145.483 89.4599 145.239C89.6634 144.988 89.7651 144.703 89.7651 144.385C89.7651 144.046 89.6396 143.734 89.3887 143.449C89.1446 143.157 88.775 143.011 88.2799 143.011C87.9001 143.011 87.5611 143.093 87.2627 143.256C86.9643 143.418 86.693 143.805 86.4489 144.415L84.0279 143.896C84.272 142.947 84.7942 142.235 85.5944 141.76C86.3946 141.285 87.3068 141.048 88.3308 141.048C89.6328 141.048 90.6399 141.347 91.352 141.943C92.0708 142.54 92.4302 143.289 92.4302 144.191C92.4302 144.754 92.2743 145.222 91.9623 145.595C91.6571 145.961 91.1723 146.304 90.5077 146.623C91.3079 146.84 91.9047 147.169 92.298 147.609C92.6981 148.05 92.8982 148.599 92.8982 149.257C92.8982 150.098 92.5048 150.824 91.7182 151.434C90.9315 152.038 89.799 152.339 88.3206 152.339C85.7436 152.339 84.1669 151.332 83.5904 149.318L86.2047 148.84C86.6252 149.898 87.3203 150.427 88.2901 150.427C88.8258 150.427 89.2531 150.288 89.5718 150.01C89.8973 149.725 90.0601 149.393 90.0601 149.013C90.0601 148.593 89.8905 148.264 89.5515 148.026C89.2192 147.782 88.7818 147.66 88.2392 147.66H87.751ZM95.0852 141.292H97.9335V145.707C98.4082 145.653 98.7439 145.507 98.9406 145.27C99.1372 145.032 99.3746 144.514 99.6526 143.713C100.019 142.649 100.419 141.967 100.853 141.669C101.287 141.37 101.857 141.221 102.562 141.221C102.779 141.221 103.155 141.238 103.691 141.272L103.701 143.164C102.948 143.164 102.467 143.235 102.257 143.378C102.047 143.527 101.819 143.971 101.575 144.71C101.243 145.707 100.765 146.321 100.141 146.551C101.043 146.802 101.806 147.586 102.43 148.901C102.464 148.969 102.501 149.04 102.542 149.115L104.139 152.095H101.067L99.6425 148.972C99.3508 148.342 99.0965 147.938 98.8795 147.762C98.6693 147.579 98.354 147.487 97.9335 147.487V152.095H95.0852V141.292ZM106.672 141.292H116.244V152.095H113.396V143.612H109.499V148.464C109.499 149.698 109.357 150.566 109.072 151.068C108.787 151.563 108.472 151.888 108.126 152.044C107.78 152.2 107.224 152.278 106.458 152.278C106.004 152.278 105.403 152.217 104.657 152.095V149.99C104.718 149.99 104.878 149.996 105.136 150.01C105.434 150.03 105.665 150.041 105.827 150.041C106.214 150.041 106.451 149.915 106.539 149.664C106.627 149.406 106.672 148.698 106.672 147.538V141.292ZM121.279 144.588L118.685 144.12C118.977 143.076 119.479 142.303 120.191 141.801C120.903 141.299 121.961 141.048 123.364 141.048C124.639 141.048 125.589 141.201 126.213 141.506C126.837 141.804 127.274 142.187 127.525 142.655C127.783 143.117 127.911 143.968 127.911 145.209L127.881 148.545C127.881 149.495 127.925 150.196 128.013 150.651C128.108 151.098 128.281 151.58 128.532 152.095H125.704C125.629 151.905 125.538 151.624 125.429 151.251C125.382 151.081 125.348 150.97 125.328 150.915C124.839 151.39 124.317 151.746 123.761 151.983C123.205 152.221 122.612 152.339 121.981 152.339C120.869 152.339 119.991 152.038 119.346 151.434C118.709 150.831 118.39 150.068 118.39 149.145C118.39 148.535 118.536 147.992 118.828 147.518C119.119 147.036 119.526 146.67 120.048 146.419C120.577 146.161 121.337 145.938 122.327 145.748C123.663 145.497 124.589 145.263 125.104 145.046V144.761C125.104 144.212 124.968 143.822 124.697 143.591C124.426 143.354 123.914 143.235 123.161 143.235C122.652 143.235 122.256 143.337 121.971 143.54C121.686 143.737 121.455 144.086 121.279 144.588ZM125.104 146.907C124.738 147.029 124.158 147.175 123.364 147.345C122.571 147.514 122.052 147.681 121.808 147.843C121.435 148.108 121.249 148.443 121.249 148.85C121.249 149.25 121.398 149.596 121.696 149.888C121.995 150.18 122.374 150.325 122.835 150.325C123.351 150.325 123.843 150.156 124.31 149.817C124.656 149.559 124.884 149.244 124.992 148.871C125.067 148.627 125.104 148.162 125.104 147.477V146.907ZM139.671 152.095H131.492V154.944H129.173V149.756H130.343C130.831 149.213 131.234 148.365 131.553 147.213C131.872 146.06 132.062 144.086 132.123 141.292H140.841V149.756H142V154.944H139.671V152.095ZM138.013 149.756L138.023 143.642H134.564C134.449 146.626 133.974 148.664 133.14 149.756H138.013ZM77.5277 161.292H80.1929V162.879C80.5387 162.337 81.0067 161.896 81.5967 161.557C82.1867 161.218 82.8411 161.048 83.5599 161.048C84.8145 161.048 85.8792 161.54 86.7541 162.523C87.6289 163.506 88.0663 164.876 88.0663 166.633C88.0663 168.437 87.6255 169.84 86.7439 170.844C85.8623 171.841 84.7942 172.339 83.5396 172.339C82.9428 172.339 82.4003 172.221 81.912 171.983C81.4305 171.746 80.9219 171.339 80.3862 170.763V176.205H77.5277V161.292ZM80.3556 166.511C80.3556 167.725 80.5964 168.623 81.0779 169.206C81.5594 169.783 82.146 170.071 82.8377 170.071C83.5023 170.071 84.055 169.807 84.4958 169.278C84.9366 168.742 85.157 167.867 85.157 166.653C85.157 165.521 84.9298 164.68 84.4754 164.13C84.0211 163.581 83.4582 163.306 82.7868 163.306C82.0883 163.306 81.5085 163.578 81.0474 164.12C80.5862 164.656 80.3556 165.453 80.3556 166.511ZM88.7072 161.292H91.7487L94.3325 168.962L96.8552 161.292H99.8154L96.0008 171.688L95.3192 173.57C95.0683 174.201 94.8275 174.683 94.597 175.015C94.3732 175.347 94.1121 175.615 93.8137 175.818C93.5221 176.029 93.1593 176.191 92.7252 176.307C92.298 176.422 91.8131 176.48 91.2706 176.48C90.7213 176.48 90.1822 176.422 89.6532 176.307L89.3989 174.069C89.8465 174.157 90.25 174.201 90.6094 174.201C91.274 174.201 91.7657 174.004 92.0844 173.611C92.4031 173.224 92.6473 172.729 92.8168 172.126L88.7072 161.292ZM100.548 172.095L104.444 166.531L100.711 161.292H104.2L106.112 164.263L108.126 161.292H111.483L107.821 166.409L111.819 172.095H108.309L106.112 168.749L103.895 172.095H100.548ZM112.429 161.292H115.471L118.054 168.962L120.577 161.292H123.537L119.723 171.688L119.041 173.57C118.79 174.201 118.55 174.683 118.319 175.015C118.095 175.347 117.834 175.615 117.536 175.818C117.244 176.029 116.881 176.191 116.447 176.307C116.02 176.422 115.535 176.48 114.993 176.48C114.443 176.48 113.904 176.422 113.375 176.307L113.121 174.069C113.568 174.157 113.972 174.201 114.331 174.201C114.996 174.201 115.488 174.004 115.806 173.611C116.125 173.224 116.369 172.729 116.539 172.126L112.429 161.292Z" fill="black"/>
</svg>
