<svg width="200" height="200" viewBox="0 0 200 200" fill="none" xmlns="http://www.w3.org/2000/svg">
<rect y="16.6664" width="200" height="166.667" fill="#68696C"/>
<path d="M45.8333 16.6664V45.833H0" stroke="#939498" stroke-width="6.25"/>
<path d="M45.8333 183.334V154.167H0" stroke="#939498" stroke-width="6.25"/>
<path d="M200 45.8331L154.167 45.833L154.167 16.6664" stroke="#939498" stroke-width="6.25"/>
<path d="M200 154.167L154.167 154.167L154.167 183.334" stroke="#939498" stroke-width="6.25"/>
<rect x="52.0833" y="52.0833" width="95.8333" height="95.8333" stroke="#FFE600" stroke-width="4.16667"/>
<path fill-rule="evenodd" clip-rule="evenodd" d="M73.748 50L50.3677 73.216L51.1016 73.9552L75.2263 50H73.748ZM99.0385 50L50.3667 98.3298L51.1007 99.069L100.517 50H99.0385ZM124.331 50L50.3672 123.444L51.1012 124.183L125.809 50H124.331ZM126.26 150L149.638 126.786L148.904 126.047L124.781 150H126.26ZM100.974 150L149.638 101.678L148.904 100.939L99.4957 150H100.974ZM75.6805 150L149.638 76.562L148.904 75.8228L74.2021 150H75.6805ZM148.904 50.7109L50.3672 148.556L51.1012 149.295L149.638 51.4501L148.904 50.7109Z" fill="#FFE600"/>
<path fill-rule="evenodd" clip-rule="evenodd" d="M126.252 50L149.632 73.216L148.898 73.9552L124.774 50H126.252ZM100.961 50L149.633 98.3299L148.899 99.069L99.483 50H100.961ZM75.6693 50L149.633 123.444L148.899 124.183L74.1909 50H75.6693ZM73.7402 150L50.3617 126.786L51.0957 126.047L75.2186 150H73.7402ZM99.0258 150L50.3617 101.678L51.0957 100.939L100.504 150H99.0258ZM124.319 150L50.3617 76.562L51.0957 75.8228L125.798 150H124.319ZM51.0957 50.7109L149.633 148.556L148.899 149.295L50.3617 51.4501L51.0957 50.7109Z" fill="#FFE600"/>
</svg>
