<svg width="200" height="201" viewBox="0 0 200 201" fill="none" xmlns="http://www.w3.org/2000/svg">
<rect x="30.7287" y="31.0837" width="138.54" height="138.54" rx="8.85404" fill="white" stroke="#13141A" stroke-width="1.04165"/>
<rect x="35.4161" y="35.771" width="129.165" height="129.165" rx="4.16661" fill="#1071AF"/>
<rect x="137.498" y="123.271" width="27.0829" height="8.33321" fill="white"/>
<rect x="112.498" y="131.602" width="33.3328" height="8.33321" fill="white"/>
<rect x="87.4987" y="139.937" width="33.3328" height="8.33321" fill="white"/>
<rect x="62.4991" y="148.27" width="33.3328" height="8.33321" fill="white"/>
<rect x="35.4161" y="156.602" width="33.3328" height="8.33321" fill="white"/>
<path fill-rule="evenodd" clip-rule="evenodd" d="M102.77 58.0913C98.9717 54.7885 98.403 50.0209 100.964 47.0201C103.524 44.0192 108.808 42.7213 112.607 46.0241C116.406 49.3268 116.846 55.6375 114.285 58.6383C111.724 61.6388 106.569 61.394 102.77 58.0913ZM97.8949 92.787V71.9545L86.6463 77.9851L84.9442 93.3181C84.7856 94.6787 83.7133 95.7463 82.3633 95.8871C80.5782 96.0735 79.0559 94.5946 79.1719 92.787L80.2182 75.7643C80.2895 74.6528 80.8688 73.6377 81.7856 73.0175L98.8735 61.4588C99.7309 60.5854 101.139 60.4461 102.159 61.2382L107.901 65.0351C109.843 66.5435 110.981 68.8771 110.981 71.3508V90.9241L126.523 100.676C128.249 101.758 129.298 103.65 129.304 105.686L129.362 125.72C129.368 127.804 127.68 129.497 125.595 129.497C123.584 129.497 121.928 127.918 121.832 125.91L121.049 109.469C120.995 108.329 120.329 107.307 119.307 106.797L100.093 97.2062C98.0095 96.1646 97.8949 94.227 97.8949 92.787ZM114.336 86.7897V78.0666L126.7 86.1567C128.129 87.092 128.564 88.9893 127.685 90.4541C126.816 91.9038 124.964 92.4196 123.47 91.6281L114.336 86.7897ZM108.525 105.386L99.6036 100.985L96.3852 133.385C96.1476 135.777 98.0265 137.852 100.43 137.852C102.457 137.852 104.174 136.359 104.456 134.352L108.525 105.386Z" fill="white"/>
</svg>
