<svg width="200" height="200" viewBox="0 0 200 200" fill="none" xmlns="http://www.w3.org/2000/svg">
<path d="M174.314 169.271H25.6864C18.3215 169.271 13.7368 161.298 17.4754 154.969L91.789 29.1563C95.4728 22.9198 104.527 22.9198 108.211 29.1563L182.525 154.969C186.263 161.298 181.679 169.271 174.314 169.271Z" fill="#FF0E00" stroke="black" stroke-width="1.04167"/>
<path d="M25.6864 166.666H174.314C179.681 166.666 182.986 160.87 180.283 156.293L105.969 30.4808C103.293 25.9505 96.7071 25.9505 94.0313 30.4808L19.7176 156.293C17.014 160.87 20.3189 166.666 25.6864 166.666Z" fill="#FF0E00" stroke="white" stroke-width="4.16667"/>
<path fill-rule="evenodd" clip-rule="evenodd" d="M35.9376 154.168L100 45.4307L164.063 154.168H35.9376Z" fill="white"/>
<path d="M78.0076 103.563C77.7841 104.809 77.3531 106.008 76.7326 107.111C76.0665 108.295 75.1926 109.35 74.1527 110.224L70.303 113.46C69.1906 114.395 69.3531 116.153 70.6181 116.868L72.6104 117.994C73.1579 118.304 73.816 118.35 74.401 118.119L82.2295 115.027L95.6024 122.85L62.8196 139.641C61.3425 140.398 61.2998 142.494 62.745 143.31L64.7948 144.467C66.3353 145.337 68.1723 145.513 69.8501 144.952L110.554 131.34L134.444 145.167C136.389 146.319 139.003 145.591 140.097 143.59C141.191 141.71 140.522 139.224 138.638 138.011L114.749 124.304L106.141 82.2174C105.779 80.4452 104.666 78.9169 103.091 78.0275L101.033 76.8653C99.6016 76.0572 97.8421 77.1469 97.9279 78.7882L99.8573 115.694L86.3016 107.931L85.0561 99.667C84.9598 99.0275 84.5719 98.4691 84.0063 98.1555L81.9795 97.0316C80.7305 96.3391 79.1708 97.08 78.9186 98.4857L78.0076 103.563Z" fill="black"/>
</svg>
