<svg width="200" height="200" viewBox="0 0 200 200" fill="none" xmlns="http://www.w3.org/2000/svg">
<path d="M25.6863 169.271H174.314C181.678 169.271 186.263 161.298 182.525 154.969L108.211 29.1566C104.527 22.92 95.4727 22.92 91.7889 29.1566L17.4753 154.969C13.7367 161.298 18.3214 169.271 25.6863 169.271Z" fill="#FF0E00" stroke="black" stroke-width="1.04167"/>
<path d="M174.314 166.667H25.6863C20.3188 166.667 17.0139 160.87 19.7175 156.293L94.0312 30.481C96.707 25.9508 103.293 25.9508 105.969 30.481L180.282 156.293C182.986 160.87 179.681 166.667 174.314 166.667Z" fill="#FF0E00" stroke="white" stroke-width="4.16667"/>
<path fill-rule="evenodd" clip-rule="evenodd" d="M164.062 154.168L99.9999 45.4307L35.9374 154.168H164.062Z" fill="white"/>
<path fill-rule="evenodd" clip-rule="evenodd" d="M72.916 151.042L72.9158 113.542H63.7538L41.6666 151.042H72.916Z" fill="#05081B"/>
<path fill-rule="evenodd" clip-rule="evenodd" d="M127.084 151.042L127.084 113.542H136.246L158.333 151.042H127.084Z" fill="#05081B"/>
<path d="M99.7816 131.25C99.8206 131.25 99.8595 131.25 99.8983 131.251C100.042 131.25 100.192 131.25 100.218 131.25C101.467 131.25 102.52 131.483 103.57 131.735C104.509 132.022 105.384 132.398 106.261 132.774C108.086 133.558 109.921 134.346 112.362 134.346C114.924 134.346 116.78 133.588 118.686 132.769L118.765 132.735C120.513 131.989 122.24 131.252 124.505 131.252C125.518 131.252 126.338 131.375 127.083 131.554V134.683C126.338 134.486 125.518 134.342 124.505 134.342C122.362 134.342 120.701 135.055 119.047 135.766C118.928 135.817 118.806 135.869 118.686 135.921C116.782 136.74 114.924 137.499 112.362 137.499C109.921 137.499 108.086 136.711 106.261 135.928C105.384 135.551 104.509 135.176 103.57 134.889C102.517 134.573 101.465 134.344 100.218 134.344C100.145 134.344 100.072 134.344 100 134.346C99.9277 134.344 99.8549 134.344 99.7816 134.344C98.5349 134.344 97.4824 134.573 96.43 134.889C95.4913 135.176 94.6162 135.551 93.7385 135.928C91.9141 136.711 90.0788 137.499 87.6382 137.499C85.0759 137.499 83.218 136.74 81.3135 135.921C81.1936 135.869 81.0739 135.818 80.9541 135.766C79.3009 135.056 77.6379 134.342 75.4948 134.342C74.4817 134.342 73.6623 134.486 72.9166 134.683V131.554C73.6623 131.375 74.4817 131.252 75.4948 131.252C77.76 131.252 79.487 131.989 81.235 132.735L81.3135 132.769C83.22 133.588 85.0759 134.346 87.6382 134.346C90.0788 134.346 91.9141 133.558 93.7385 132.774C94.6162 132.398 95.4913 132.022 96.43 131.735C97.4804 131.483 98.5329 131.25 99.7816 131.25Z" fill="black"/>
<path d="M99.7816 137.499C99.8549 137.499 99.9277 137.5 100 137.501C100.072 137.5 100.145 137.499 100.218 137.499C101.467 137.499 102.52 137.73 103.57 138.045C104.509 138.331 105.384 138.707 106.261 139.084C108.086 139.867 109.921 140.655 112.362 140.655C114.924 140.655 116.78 139.898 118.686 139.076C118.804 139.026 118.921 138.976 119.038 138.926L119.039 138.925C120.695 138.214 122.359 137.499 124.505 137.499C125.518 137.499 126.338 137.623 127.083 137.789V140.917C126.338 140.755 125.518 140.653 124.505 140.653C122.362 140.653 120.701 141.367 119.047 142.077C118.928 142.129 118.806 142.181 118.686 142.232C116.782 143.052 114.924 143.811 112.362 143.811C109.919 143.811 108.083 143.022 106.257 142.238C105.381 141.862 104.507 141.487 103.57 141.201C102.517 140.886 101.465 140.655 100.218 140.655C100.145 140.655 100.072 140.656 100 140.657C99.9277 140.656 99.8549 140.655 99.7816 140.655C98.5349 140.655 97.4824 140.886 96.43 141.201C95.493 141.487 94.6193 141.862 93.7433 142.238C91.9173 143.022 90.0809 143.811 87.6382 143.811C85.0759 143.811 83.218 143.052 81.3135 142.232C81.1933 142.181 81.0733 142.129 80.9532 142.078C79.3 141.367 77.6379 140.653 75.4948 140.653C74.4817 140.653 73.6623 140.755 72.9166 140.917V137.789C73.6623 137.623 74.4817 137.499 75.4948 137.499C77.6413 137.499 79.3045 138.214 80.9604 138.925C81.078 138.975 81.1958 139.026 81.3135 139.076C83.22 139.898 85.0759 140.655 87.6382 140.655C90.0788 140.655 91.9141 139.867 93.7385 139.084C94.6162 138.707 95.4913 138.331 96.43 138.045C97.4804 137.73 98.5329 137.499 99.7816 137.499Z" fill="black"/>
<path d="M99.7816 143.811C99.8549 143.811 99.9277 143.812 100 143.813C100.072 143.812 100.145 143.811 100.218 143.811C101.467 143.811 102.52 144.044 103.57 144.296C104.509 144.583 105.384 144.958 106.261 145.335C108.086 146.118 109.921 146.906 112.362 146.906C114.924 146.906 116.78 146.149 118.686 145.328L118.785 145.286C120.526 144.544 122.248 143.811 124.505 143.811C125.518 143.811 126.338 143.89 127.083 144.047V147.142C126.337 146.985 125.517 146.904 124.503 146.904C122.246 146.904 120.524 147.638 118.783 148.379L118.684 148.421C116.78 149.241 114.922 150 112.36 150C109.917 150 108.081 149.212 106.255 148.428C105.379 148.052 104.505 147.676 103.568 147.39C102.515 147.137 101.463 146.904 100.216 146.904C100.144 146.904 100.072 146.905 100 146.906C99.9283 146.905 99.8562 146.904 99.7836 146.904C98.5369 146.904 97.4845 147.137 96.432 147.39C95.495 147.676 94.6214 148.051 93.7454 148.428C91.9195 149.212 90.083 150 87.6402 150C85.078 150 83.22 149.241 81.3155 148.421L81.2173 148.379C79.476 147.638 77.7535 146.904 75.4968 146.904C74.4829 146.904 73.6629 146.985 72.9166 147.142V144.047C73.6623 143.89 74.4817 143.811 75.4948 143.811C77.7515 143.811 79.4739 144.544 81.2153 145.286L81.3135 145.328C83.22 146.149 85.0759 146.906 87.6382 146.906C90.0788 146.906 91.9141 146.118 93.7385 145.335C94.6162 144.958 95.4913 144.583 96.43 144.296C97.4804 144.044 98.5329 143.811 99.7816 143.811Z" fill="black"/>
<path d="M72.9166 113.542L111.218 75.2404L117.111 81.1329L78.8092 119.435L72.9166 113.542Z" fill="black"/>
</svg>
