<svg width="200" height="201" viewBox="0 0 200 201" fill="none" xmlns="http://www.w3.org/2000/svg">
<rect x="36.9792" y="12.3117" width="126.042" height="176.042" rx="8.85417" fill="white" stroke="#13141A" stroke-width="1.04167"/>
<rect x="41.6667" y="17" width="116.667" height="166.667" rx="4.16667" fill="#1071AF"/>
<rect x="50" y="33.6675" width="100" height="100" rx="4.16667" fill="white"/>
<path fill-rule="evenodd" clip-rule="evenodd" d="M115.729 61.6322V57.3005C116.494 56.989 117.035 56.2349 117.033 55.3538V54.5667H122.839C125.145 54.5667 127.013 52.6862 127.013 50.3673C127.013 48.0477 125.145 46.168 122.838 46.168H101.443C99.1371 46.168 97.2683 48.0477 97.2683 50.3673C97.2683 52.6862 99.1371 54.5667 101.443 54.5667H107.249V55.3538C107.249 56.2349 107.787 56.9896 108.553 57.3005V61.6322C105.656 62.1849 103.465 64.7458 103.465 67.8208V69.2647H94.6599C78.0186 69.2647 76.3957 84.4364 76.3957 86.3249V101.416H88.9198V86.3249C88.9198 85.8506 89.384 81.8627 94.6599 81.8627H103.465C103.465 85.3418 106.27 88.1621 109.727 88.1621H114.555C118.013 88.1621 120.816 85.3418 120.816 81.8627H136.144V82.5188C136.144 85.9972 140.293 92.2691 143.75 92.2691V58.741C140.293 58.741 136.144 65.1295 136.144 68.6086V69.2647H120.816V67.8208C120.816 64.7451 118.627 62.1849 115.729 61.6322ZM72.9167 121.17L76.2801 102.926H79.9131L76.5504 121.17H72.9167ZM92.6671 121.17L89.3044 102.926H85.6708L89.0335 121.17H92.6671ZM84.5779 102.926V121.17H81.0066V102.926H84.5779Z" fill="black"/>
</svg>
