<svg width="96" height="96" viewBox="0 0 96 96" fill="none" xmlns="http://www.w3.org/2000/svg">
<path d="M19.6005 36.1283H19.548L19.5035 36.1562L0.903004 47.8455L0.657405 47.9999L0.903004 48.1542L19.5035 59.8435L19.548 59.8715H19.6005L32.9913 59.8715L32.9921 59.8715L33.0014 59.8715H62.999L63.0083 59.8715L63.0092 59.8715L76.3999 59.8715H76.4524L76.4969 59.8435L95.0974 48.1542L95.343 47.9999L95.0974 47.8455L76.4969 36.1562L76.4524 36.1283H76.3999H19.6005Z" fill="white" stroke="#1A1A2C" stroke-width="0.364583"/>
<path d="M7 48L19.2361 38H76.7639L89 48L76.7639 58L63.2152 58C63.212 58 63.2089 58 63.2057 58H32.7943C32.7911 58 32.788 58 32.7848 58L19.2361 58L7 48Z" fill="#269E48"/>
<path d="M49.5557 42.7935C49.214 42.1082 49.4127 41.4056 49.9487 41.1336C50.4847 40.8616 51.3045 40.9875 51.6462 41.6728C51.9878 42.3581 51.6807 43.2699 51.1448 43.5419C50.6088 43.8138 49.8973 43.4788 49.5557 42.7935Z" fill="white"/>
<path d="M48.0586 44.4557L45.9601 44.4515L44.4276 46.1635C44.3257 46.3453 44.1123 46.4326 43.9141 46.3737C43.6518 46.2957 43.524 45.9993 43.646 45.7523L45.185 43.7648C45.26 43.6129 45.401 43.5042 45.5663 43.4705L48.6191 43.1287C48.9789 43.0764 49.2897 43.2889 49.4574 43.5049L49.8719 44.0677C50.0571 44.3928 50.0809 44.7868 49.9363 45.1342L48.4902 47.9245L50.4908 49.5345C50.9014 49.8649 51.1293 50.3711 51.1046 50.8974L50.9353 54.5046C50.9264 54.6938 50.8149 54.8633 50.6444 54.9466C50.3126 55.1088 49.9225 54.8832 49.8987 54.5152L49.6644 50.9058C49.6557 50.7718 49.5864 50.6491 49.4761 50.5724L47.0764 48.9033C46.5296 48.523 46.3484 47.7977 46.652 47.2045L48.0586 44.4557Z" fill="white"/>
<path d="M50.3469 45.7309L49.6985 46.9822L50.5356 48.2306C50.7554 48.5584 51.2188 48.6084 51.5038 48.3351L52.8725 47.0228C53.0285 46.8732 53.0432 46.6293 52.9064 46.4621C52.7696 46.295 52.5271 46.2605 52.3489 46.3828L51.1871 47.1807L50.3469 45.7309Z" fill="white"/>
<path d="M46.4328 49.1227L47.7527 50.0403L46.5229 51.6304C46.1868 52.0649 45.5633 52.1471 45.1262 51.8144L42.7069 49.973C42.4794 49.7998 42.4334 49.4758 42.6038 49.2462C42.7624 49.0326 43.0561 48.9723 43.2859 49.1061L45.5403 50.4182L46.4328 49.1227Z" fill="white"/>
<rect width="7" height="16" transform="matrix(-1 0 0 1 76 40)" fill="white"/>
<rect width="7" height="16" transform="matrix(-1 0 0 1 27 40)" fill="white"/>
<path d="M63.3387 47.25V46.5L66 48L63.3387 49.5V48.75H56V47.25H63.3387Z" fill="white"/>
<path d="M32.6613 47.25V46.5L30 48L32.6613 49.5V48.75H40V47.25H32.6613Z" fill="white"/>
<path d="M31.5274 55.9332H30.8609V53.1035C30.6174 53.3601 30.3305 53.5498 30 53.6727V52.9913C30.1739 52.9272 30.3629 52.8061 30.5668 52.6279C30.7708 52.448 30.9107 52.2387 30.9866 52H31.5274V55.9332Z" fill="white"/>
<path d="M32.5354 54.9259L33.1994 54.8484C33.2184 55.0176 33.2745 55.1521 33.3678 55.2518C33.4611 55.3498 33.5686 55.3988 33.6904 55.3988C33.8295 55.3988 33.9473 55.3356 34.0438 55.2091C34.1402 55.0808 34.1884 54.8884 34.1884 54.6319C34.1884 54.3914 34.1402 54.2115 34.0438 54.0922C33.9489 53.9711 33.8248 53.9105 33.6714 53.9105C33.4801 53.9105 33.3085 54.0058 33.1567 54.1964L32.616 54.1082L32.9575 52.0695H34.7197V52.7722H33.4627L33.3583 53.4375C33.507 53.3538 33.6588 53.312 33.8137 53.312C34.1094 53.312 34.36 53.4331 34.5655 53.6754C34.7711 53.9176 34.8739 54.232 34.8739 54.6186C34.8739 54.941 34.7909 55.2287 34.6248 55.4816C34.3987 55.8272 34.0849 56 33.6833 56C33.3623 56 33.1006 55.9029 32.8982 55.7088C32.6958 55.5146 32.5749 55.2536 32.5354 54.9259Z" fill="white"/>
<path d="M36.3562 52C36.693 52 36.9562 52.1354 37.146 52.4061C37.3721 52.7268 37.4851 53.2585 37.4851 54.0013C37.4851 54.7424 37.3713 55.275 37.1436 55.5992C36.9554 55.8664 36.693 56 36.3562 56C36.0178 56 35.7451 55.8539 35.5379 55.5618C35.3308 55.2679 35.2273 54.745 35.2273 53.9933C35.2273 53.2558 35.3411 52.725 35.5688 52.4008C35.7569 52.1336 36.0194 52 36.3562 52ZM36.3562 52.6226C36.2755 52.6226 36.2036 52.652 36.1404 52.7108C36.0771 52.7678 36.0281 52.8711 35.9933 53.0207C35.9475 53.2149 35.9245 53.5418 35.9245 54.0013C35.9245 54.4609 35.9451 54.7771 35.9862 54.9499C36.0273 55.1209 36.0787 55.2349 36.1404 55.2919C36.2036 55.3489 36.2755 55.3774 36.3562 55.3774C36.4368 55.3774 36.5088 55.3489 36.572 55.2919C36.6353 55.2331 36.6843 55.1289 36.7191 54.9793C36.7649 54.7869 36.7878 54.4609 36.7878 54.0013C36.7878 53.5418 36.7673 53.2265 36.7262 53.0554C36.6851 52.8827 36.6329 52.7678 36.5696 52.7108C36.508 52.652 36.4368 52.6226 36.3562 52.6226Z" fill="white"/>
<path d="M38.0947 53.0955H38.92L39.5461 55.0728L40.177 53.0955H41V55.9332H40.4332V54.0655L39.8189 55.9332H39.2497L38.6639 54.0655V55.9332H38.0947V53.0955Z" fill="white"/>
<path d="M57.0808 54.0321L57.2643 52.0535H59.047V52.6979H57.7821L57.7034 53.5348C57.8534 53.4367 58.0129 53.3877 58.1819 53.3877C58.4848 53.3877 58.7222 53.5027 58.894 53.7326C59.0659 53.9626 59.1518 54.2843 59.1518 54.6979C59.1518 54.9492 59.1081 55.1747 59.0208 55.3743C58.9348 55.5722 58.811 55.7264 58.6494 55.8369C58.4877 55.9456 58.2969 56 58.077 56C57.8848 56 57.7064 55.9528 57.5418 55.8583C57.3772 55.762 57.2469 55.6275 57.1507 55.4545C57.0561 55.2816 57.0058 55.0847 57 54.8636H57.6248C57.6379 55.0258 57.6838 55.1524 57.7624 55.2433C57.8425 55.3324 57.9467 55.377 58.0748 55.377C58.2175 55.377 58.3275 55.3146 58.4047 55.1898C58.4819 55.0633 58.5205 54.885 58.5205 54.6551C58.5205 54.434 58.4761 54.2647 58.3872 54.1471C58.2984 54.0294 58.1724 53.9706 58.0093 53.9706C57.8593 53.9706 57.7377 54.0187 57.6445 54.115L57.5833 54.1845L57.0808 54.0321Z" fill="white"/>
<path d="M61.6969 54.3369C61.6969 54.8752 61.6059 55.287 61.4238 55.5722C61.2418 55.8574 60.9752 56 60.6242 56C60.2776 56 60.0126 55.8601 59.8291 55.5802C59.6455 55.3004 59.5516 54.8993 59.5472 54.377V53.6604C59.5472 53.1168 59.639 52.7041 59.8225 52.4225C60.0075 52.1408 60.2733 52 60.6199 52C60.9665 52 61.2316 52.1399 61.4151 52.4198C61.5986 52.6979 61.6925 53.098 61.6969 53.6203V54.3369ZM61.0655 53.5508C61.0655 53.2282 61.0291 52.9938 60.9563 52.8476C60.8849 52.6996 60.7728 52.6257 60.6199 52.6257C60.4713 52.6257 60.3614 52.6961 60.29 52.8369C60.2201 52.9759 60.183 53.1943 60.1786 53.492V54.4385C60.1786 54.7558 60.2135 54.992 60.2835 55.1471C60.3548 55.3004 60.4684 55.377 60.6242 55.377C60.7786 55.377 60.89 55.303 60.9585 55.1551C61.0269 55.0071 61.0626 54.7807 61.0655 54.4759V53.5508Z" fill="white"/>
<path d="M63.5909 55.0348L64.2092 53.0535H65V55.9465H64.3687V54.1711L63.8028 55.9465H63.379L62.8241 54.2005V55.9465H62.1928V53.0535H62.9771L63.5909 55.0348Z" fill="white"/>
</svg>
