<svg width="200" height="201" viewBox="0 0 200 201" fill="none" xmlns="http://www.w3.org/2000/svg">
<rect x="30.7292" y="31.3969" width="138.542" height="138.542" rx="8.85417" fill="white" stroke="#13141A" stroke-width="1.04167"/>
<rect x="35.4167" y="36.0842" width="129.167" height="129.167" rx="4.16667" fill="#1071AF"/>
<path fill-rule="evenodd" clip-rule="evenodd" d="M81.8265 98.6294C79.0034 98.6294 76.6099 100.705 76.2107 103.5C75.823 106.214 77.4317 108.817 80.0326 109.684L82.6149 110.545L75.4724 123.044C73.2603 122.092 70.8226 121.565 68.2617 121.565C58.1761 121.565 50 129.741 50 139.827C50 149.913 58.1761 158.089 68.2617 158.089C78.3474 158.089 86.5234 149.913 86.5234 139.827C86.5234 133.776 83.5806 128.413 79.0481 125.09L80.7864 122.048L102.096 141.347C102.338 141.566 102.626 141.722 102.935 141.807C103.134 141.862 103.337 141.885 103.536 141.88H113.591C114.611 150.999 122.347 158.089 131.738 158.089C141.824 158.089 150 149.913 150 139.827C150 129.741 141.824 121.565 131.738 121.565C128.73 121.565 125.892 122.293 123.39 123.581L117.28 114.416V109.705H122.175C123.312 109.705 124.234 108.783 124.234 107.645C124.234 106.508 123.312 105.585 122.175 105.585L107.391 105.585C106.254 105.585 105.332 106.508 105.332 107.645C105.332 108.783 106.254 109.705 107.391 109.705H113.161V112.977H85.9697L87.4381 110.407C87.7443 109.871 87.7941 109.227 87.5738 108.65C87.3536 108.074 86.8865 107.626 86.3011 107.431L81.3353 105.776C80.6231 105.538 80.1826 104.826 80.2888 104.083C80.3981 103.317 81.0535 102.749 81.8265 102.749H90.4326C91.5701 102.749 92.4923 101.827 92.4923 100.689C92.4923 99.5516 91.5701 98.6294 90.4326 98.6294H81.8265ZM119.964 125.868L115.524 119.208L106.736 137.76H113.592C114.128 133.003 116.491 128.799 119.964 125.868ZM117.746 137.76C118.234 134.43 119.882 131.476 122.268 129.324L127.892 137.76H117.746ZM117.744 141.88H131.741C132.501 141.88 133.198 141.462 133.557 140.792C133.915 140.122 133.876 139.31 133.455 138.678L125.695 127.037C127.527 126.17 129.576 125.685 131.738 125.685C139.549 125.685 145.881 132.016 145.881 139.827C145.881 147.638 139.549 153.969 131.738 153.969C124.625 153.969 118.738 148.718 117.744 141.88ZM68.2617 125.685C70.0785 125.685 71.8153 126.027 73.411 126.651L66.4693 138.799C65.9049 139.787 66.248 141.045 67.2357 141.61C68.2234 142.174 69.4816 141.831 70.046 140.843L76.987 128.696C80.2852 131.285 82.404 135.309 82.404 139.827C82.404 147.638 76.0723 153.969 68.2617 153.969C60.4512 153.969 54.1195 147.638 54.1195 139.827C54.1195 132.016 60.4512 125.685 68.2617 125.685ZM83.6158 117.096L82.8792 118.385L102.807 136.433L111.966 117.096H83.6158Z" fill="white"/>
<path fill-rule="evenodd" clip-rule="evenodd" d="M99.9999 44.4177L77.0833 67.2613V74.6681L96.875 54.9395L96.875 88.1672H103.125L103.125 54.9397L122.917 74.6681V67.2613L99.9999 44.4177Z" fill="white"/>
</svg>
