<svg width="200" height="201" viewBox="0 0 200 201" fill="none" xmlns="http://www.w3.org/2000/svg">
<rect x="0.520833" y="-0.520833" width="138.542" height="138.542" rx="8.85417" transform="matrix(-1 0 0 1 169.792 31.582)" fill="white" stroke="#13141A" stroke-width="1.04167"/>
<rect x="-1.04167" y="1.04167" width="127.083" height="127.083" rx="3.125" transform="matrix(-1 0 0 1 162.5 35.7495)" fill="white" stroke="#13141A" stroke-width="2.08333"/>
<path fill-rule="evenodd" clip-rule="evenodd" d="M126.739 48.25L150 73.713H136.115V87.1012C136.115 95.4711 133.39 103.614 128.353 110.298L119.166 122.487C116.58 125.92 115.18 130.101 115.18 134.399V152.417H96.4304V134.399C96.4304 126.029 99.1551 117.886 104.193 111.202L113.379 99.0129C115.966 95.5805 117.365 91.3992 117.365 87.1012V73.713H103.479L126.739 48.25ZM50.0007 74.2911C50.0007 71.7201 50.1232 69.2049 50.3574 66.7664H91.3107C91.5449 69.2049 91.6674 71.7201 91.6674 74.2911C91.6674 96.7277 82.34 114.916 70.8341 114.916C59.3281 114.916 50.0007 96.7277 50.0007 74.2911Z" fill="black"/>
</svg>
