<svg width="200" height="201" viewBox="0 0 200 201" fill="none" xmlns="http://www.w3.org/2000/svg">
<rect x="1.56254" y="146.688" width="92.7084" height="196.875" rx="8.85417" transform="rotate(-90 1.56254 146.688)" fill="white" stroke="#13141A" stroke-width="1.04167"/>
<rect x="6.77083" y="141.478" width="82.2917" height="186.458" rx="3.64583" transform="rotate(-90 6.77083 141.478)" stroke="black" stroke-width="1.04167"/>
<path fill-rule="evenodd" clip-rule="evenodd" d="M136.156 70.4396C137.832 71.1964 139.379 72.8473 139.991 73.7711L146.13 80.8132L159.25 96.4161C160.607 97.4683 160.719 102.06 159.904 103.829L156.457 115.229C156.202 116.159 153.928 118.837 152.776 118.845L148.885 119.189C147.668 114.12 143.855 109.73 138.598 108.243C133.34 106.755 128.081 108.578 124.51 112.292C121.751 114.962 121.167 118.353 120.54 121.994L120.471 122.398C120.472 122.45 120.451 122.498 120.43 122.546C120.409 122.594 120.389 122.642 120.39 122.694L89.9492 122.919L67.0653 122.712C67.115 116.202 62.7629 110.087 56.3168 108.263C48.6491 106.094 40.7628 110.736 38.6276 118.517C38.5898 118.655 38.549 118.789 38.5088 118.921C38.4294 119.182 38.3515 119.438 38.3004 119.71L35.9512 119.045C34.7996 119.053 32.5928 117.519 32.4541 115.645L31.3578 104.086C30.6804 100.558 33.3596 98.8945 34.9064 98.6638L60.1464 93.7541L65.5398 92.5501C67.167 92.008 70.0694 90.9887 70.7151 89.8347L82.8174 73.98C83.9807 72.1396 86.3435 69.8572 89.867 70.1909L104.397 70.2866L134.501 70.1254C135.041 70.1137 135.597 70.1889 136.156 70.4396ZM130.768 75.6652C129.861 75.3085 128.871 75.318 127.745 75.3289C127.424 75.332 127.093 75.3352 126.749 75.3301L102.964 75.5104L92.244 75.3668C89.2449 75.5208 86.9249 77.6097 85.1357 79.9414L79.7673 88.5452C78.1704 90.7667 78.8543 95.3968 82.6612 95.3068L97.4872 95.4862L129.953 95.3508C137.092 95.7046 138.3 90.1395 136.486 85.9557L133.911 79.7674C132.963 77.2424 131.935 76.1187 130.768 75.6652Z" fill="black"/>
<path fill-rule="evenodd" clip-rule="evenodd" d="M55.7063 110.021C62.2793 111.881 66.3041 118.875 64.4727 125.549C62.6412 132.223 55.6377 136.103 49.0601 134.242C42.4871 132.382 38.6233 125.428 40.4548 118.754C42.2862 112.08 49.1334 108.162 55.7063 110.021ZM54.2244 115.422C50.5644 114.386 46.9562 116.594 45.9377 120.305C44.9192 124.017 46.888 127.802 50.5433 128.837C54.1986 129.871 57.9711 127.71 58.9896 123.998C60.0081 120.286 57.8844 116.457 54.2244 115.422Z" fill="black"/>
<path fill-rule="evenodd" clip-rule="evenodd" d="M147.143 125.413C148.974 118.739 144.949 111.744 138.376 109.885C131.803 108.025 124.956 111.944 123.125 118.618C121.293 125.292 125.152 132.244 131.73 134.105C138.308 135.966 145.311 132.087 147.143 125.413ZM128.608 120.169C129.626 116.457 133.239 114.251 136.894 115.285C140.55 116.319 142.678 120.15 141.66 123.861C140.641 127.573 136.868 129.734 133.213 128.7C129.558 127.666 127.588 123.885 128.608 120.169Z" fill="black"/>
</svg>
