<svg width="200" height="200" viewBox="0 0 200 200" fill="none" xmlns="http://www.w3.org/2000/svg">
<rect x="36.9792" y="11.9792" width="126.042" height="176.042" rx="8.85417" fill="white" stroke="#13141A" stroke-width="1.04167"/>
<rect x="41.6667" y="16.667" width="116.667" height="166.667" rx="4.16667" fill="#1071AF"/>
<rect x="50" y="33.333" width="100" height="100" rx="4.16667" fill="white"/>
<path d="M89.9876 55.0881C89.9876 52.4852 90.8758 50.3005 92.6516 48.5326C94.4273 46.7331 96.5994 45.833 99.1679 45.833C101.673 45.833 103.798 46.7331 105.542 48.5326C107.317 50.2998 108.206 52.4852 108.206 55.0881C108.206 57.6266 107.317 59.7956 105.542 61.595C103.798 63.3623 101.673 64.2459 99.1679 64.2459C96.5994 64.2459 94.4273 63.3623 92.6516 61.595C90.8758 59.8278 89.9876 57.6588 89.9876 55.0881ZM108.395 115.001L115.625 116.372V120.833H84.375V116.372L91.557 115.001V75.428L84.375 74.057V69.5957H108.395V115.001Z" fill="black"/>
</svg>
