<svg width="200" height="200" viewBox="0 0 200 200" fill="none" xmlns="http://www.w3.org/2000/svg">
<rect y="16.667" width="200" height="166.667" fill="#68696C"/>
<path d="M40.5491 158.854H159.451C165.434 158.854 169.134 152.294 166.111 147.102L106.66 44.9934C103.674 39.8638 96.3265 39.8638 93.3399 44.9934L33.8889 147.102C30.8662 152.294 34.5658 158.854 40.5491 158.854Z" fill="#FF0E00" stroke="black" stroke-width="1.04167"/>
<path d="M159.451 156.25H40.5491C36.6209 156.25 34.1042 151.908 36.1394 148.412L95.5904 46.3037C97.5726 42.8992 102.427 42.8992 104.41 46.3037L163.861 148.412C165.896 151.908 163.379 156.25 159.451 156.25Z" fill="#FF0E00" stroke="white" stroke-width="4.16667"/>
<path fill-rule="evenodd" clip-rule="evenodd" d="M147.396 143.751L99.9998 62.0972L52.604 143.751H147.396Z" fill="white"/>
<path fill-rule="evenodd" clip-rule="evenodd" d="M92.8273 91.5971C92.3582 87.3258 95.7029 83.5938 99.9998 83.5938C104.297 83.5938 107.641 87.3258 107.172 91.5971L103.799 122.309C102.618 121.856 101.337 121.609 99.999 121.609C98.6615 121.609 97.3811 121.856 96.2001 122.308L92.8273 91.5971ZM99.9996 139.256C103.705 139.256 106.709 136.217 106.709 132.468C106.709 128.719 103.705 125.68 99.9996 125.68C96.294 125.68 93.2901 128.719 93.2901 132.468C93.2901 136.217 96.294 139.256 99.9996 139.256Z" fill="#05081B"/>
</svg>
