<svg width="200" height="201" viewBox="0 0 200 201" fill="none" xmlns="http://www.w3.org/2000/svg">
<circle cx="100" cy="100.335" r="82.8125" fill="white" stroke="#05081B" stroke-width="1.04167"/>
<circle cx="100" cy="100.336" r="71.875" stroke="#FF0E00" stroke-width="12.5"/>
<rect x="43.75" y="96.1665" width="112.5" height="8.33333" rx="4.16667" fill="black"/>
<path d="M59.8911 79.5442L62.7585 80.544C62.3189 82.3018 61.5862 83.6092 60.5605 84.4662C59.5414 85.3158 58.2459 85.7406 56.674 85.7406C54.7291 85.7406 53.1305 85.0119 51.8783 83.5543C50.6261 82.0894 50 80.0899 50 77.5556C50 74.8749 50.6294 72.7948 51.8883 71.3152C53.1472 69.8284 54.8023 69.085 56.8538 69.085C58.6456 69.085 60.1009 69.6673 61.2199 70.8318C61.886 71.5203 62.3855 72.5091 62.7186 73.7982L59.7912 74.5673C59.618 73.7323 59.255 73.0731 58.7022 72.5897C58.156 72.1063 57.4899 71.8646 56.704 71.8646C55.6183 71.8646 54.7357 72.293 54.0564 73.15C53.3836 74.007 53.0473 75.3949 53.0473 77.3139C53.0473 79.3501 53.3803 80.8003 54.0464 81.6646C54.7124 82.5289 55.5783 82.961 56.644 82.961C57.43 82.961 58.106 82.6864 58.6722 82.137C59.2384 81.5877 59.6447 80.7234 59.8911 79.5442Z" fill="black"/>
<path d="M65.2862 69.3596H68.2436V78.083C68.2436 79.4673 68.2802 80.3645 68.3535 80.7747C68.48 81.4339 68.7798 81.9649 69.2527 82.3678C69.7322 82.7633 70.385 82.961 71.2109 82.961C72.0502 82.961 72.6829 82.7743 73.1092 82.4007C73.5355 82.0198 73.7919 81.5547 73.8785 81.0054C73.9651 80.4561 74.0084 79.5442 74.0084 78.2698V69.3596H76.9657V77.8193C76.9657 79.7529 76.8858 81.1189 76.726 81.9173C76.5661 82.7157 76.2697 83.3895 75.8368 83.9388C75.4105 84.4882 74.8377 84.9276 74.1183 85.2572C73.3989 85.5795 72.4598 85.7406 71.3008 85.7406C69.9021 85.7406 68.8397 85.5649 68.1137 85.2133C67.3944 84.8544 66.8249 84.393 66.4052 83.829C65.9856 83.2577 65.7092 82.6607 65.576 82.0382C65.3828 81.1153 65.2862 79.7529 65.2862 77.9511V69.3596Z" fill="black"/>
<path d="M79.3436 80.2254L82.221 79.9177C82.3942 80.9798 82.7439 81.7598 83.2701 82.2579C83.8029 82.7559 84.5189 83.005 85.4181 83.005C86.3706 83.005 87.0866 82.7852 87.5662 82.3458C88.0524 81.899 88.2955 81.379 88.2955 80.7857C88.2955 80.4048 88.1923 80.0825 87.9858 79.8189C87.786 79.5479 87.433 79.3135 86.9268 79.1157C86.5804 78.9839 85.7911 78.7495 84.5589 78.4126C82.9737 77.9804 81.8613 77.4494 81.2219 76.8195C80.3227 75.9333 79.8731 74.8529 79.8731 73.5785C79.8731 72.7581 80.0829 71.9927 80.5026 71.2823C80.9288 70.5645 81.5383 70.0188 82.3309 69.6453C83.1302 69.2717 84.0927 69.085 85.2183 69.085C87.0567 69.085 88.4387 69.5281 89.3646 70.4143C90.2971 71.3006 90.7866 72.4835 90.8333 73.963L87.8759 74.1058C87.7494 73.2782 87.4763 72.6849 87.0567 72.326C86.6437 71.9598 86.0209 71.7767 85.1883 71.7767C84.3291 71.7767 83.6564 71.9708 83.1702 72.359C82.8571 72.608 82.7006 72.9413 82.7006 73.3587C82.7006 73.7396 82.8471 74.0656 83.1402 74.3366C83.5132 74.6808 84.419 75.0397 85.8577 75.4132C87.2964 75.7868 88.3588 76.175 89.0449 76.5778C89.7376 76.9733 90.2771 77.519 90.6634 78.2148C91.0564 78.9033 91.2529 79.7566 91.2529 80.7747C91.2529 81.6976 91.0198 82.5619 90.5535 83.3675C90.0873 84.1732 89.4279 84.7738 88.5753 85.1693C87.7227 85.5575 86.6604 85.7516 85.3882 85.7516C83.5365 85.7516 82.1144 85.2829 81.122 84.3453C80.1296 83.4005 79.5368 82.0272 79.3436 80.2254Z" fill="black"/>
<path d="M97.0377 85.466V72.0843H92.6916V69.3596H104.331V72.0843H99.995V85.466H97.0377Z" fill="black"/>
<path d="M105.27 77.5117C105.27 75.871 105.493 74.494 105.94 73.3807C106.273 72.5604 106.726 71.8243 107.298 71.1724C107.878 70.5205 108.511 70.0371 109.197 69.7222C110.109 69.2974 111.162 69.085 112.354 69.085C114.512 69.085 116.237 69.8211 117.529 71.2933C118.828 72.7655 119.477 74.8126 119.477 77.4348C119.477 80.0349 118.835 82.0711 117.549 83.5433C116.264 85.0082 114.545 85.7406 112.394 85.7406C110.216 85.7406 108.484 85.0119 107.199 83.5543C105.913 82.0894 105.27 80.0752 105.27 77.5117ZM108.318 77.4018C108.318 79.2256 108.701 80.6099 109.466 81.5547C110.232 82.4923 111.205 82.961 112.384 82.961C113.563 82.961 114.529 82.4959 115.281 81.5657C116.041 80.6282 116.42 79.2256 116.42 77.3579C116.42 75.5121 116.051 74.1351 115.311 73.2269C114.579 72.3187 113.603 71.8646 112.384 71.8646C111.165 71.8646 110.183 72.326 109.437 73.2489C108.691 74.1644 108.318 75.5487 108.318 77.4018Z" fill="black"/>
<path d="M121.755 85.466V69.3596H126.181L128.839 80.3462L131.467 69.3596H135.903V85.466H133.155V72.7874L130.248 85.466H127.4L124.503 72.7874V85.466H121.755Z" fill="black"/>
<path d="M138.091 80.2254L140.968 79.9177C141.141 80.9798 141.491 81.7598 142.017 82.2579C142.55 82.7559 143.266 83.005 144.165 83.005C145.118 83.005 145.834 82.7852 146.313 82.3458C146.8 81.899 147.043 81.379 147.043 80.7857C147.043 80.4048 146.939 80.0825 146.733 79.8189C146.533 79.5479 146.18 79.3135 145.674 79.1157C145.328 78.9839 144.538 78.7495 143.306 78.4126C141.721 77.9804 140.608 77.4494 139.969 76.8195C139.07 75.9333 138.62 74.8529 138.62 73.5785C138.62 72.7581 138.83 71.9927 139.25 71.2823C139.676 70.5645 140.285 70.0188 141.078 69.6453C141.877 69.2717 142.84 69.085 143.965 69.085C145.804 69.085 147.186 69.5281 148.112 70.4143C149.044 71.3006 149.534 72.4835 149.58 73.963L146.623 74.1058C146.497 73.2782 146.223 72.6849 145.804 72.326C145.391 71.9598 144.768 71.7767 143.935 71.7767C143.076 71.7767 142.404 71.9708 141.917 72.359C141.604 72.608 141.448 72.9413 141.448 73.3587C141.448 73.7396 141.594 74.0656 141.887 74.3366C142.26 74.6808 143.166 75.0397 144.605 75.4132C146.044 75.7868 147.106 76.175 147.792 76.5778C148.485 76.9733 149.024 77.519 149.411 78.2148C149.804 78.9033 150 79.7566 150 80.7747C150 81.6976 149.767 82.5619 149.301 83.3675C148.834 84.1732 148.175 84.7738 147.322 85.1693C146.47 85.5575 145.407 85.7516 144.135 85.7516C142.284 85.7516 140.862 85.2829 139.869 84.3453C138.877 83.4005 138.284 82.0272 138.091 80.2254Z" fill="black"/>
<path d="M50 130.308V114.917H54.4058L57.0512 125.416L59.6668 114.917H64.0825V130.308H61.3476V118.193L58.4535 130.308H55.6191L52.735 118.193V130.308H50Z" fill="black"/>
<path d="M67.0462 114.917H69.8011V125.164L75.7086 114.917H78.6425V130.308H75.8876V120.261L69.9901 130.308H67.0462V114.917Z" fill="black"/>
<path d="M84.9279 130.308V117.521H80.6017V114.917H92.188V117.521H87.8717V130.308H84.9279Z" fill="black"/>
<path d="M94.1074 130.308V114.917H97.0512V120.975H102.82V114.917H105.763V130.308H102.82V123.579H97.0512V130.308H94.1074Z" fill="black"/>
<path d="M108.856 114.917H111.611V125.164L117.519 114.917H120.453V130.308H117.698V120.261L111.8 130.308H108.856V114.917Z" fill="black"/>
<path d="M123.506 114.917H126.45V127.725H132.158V114.917H135.102V127.725H136.315V133.667H133.869V130.308H123.506V114.917Z" fill="black"/>
<path d="M147.056 130.308V123.883H146.459C145.531 123.883 144.875 124.03 144.49 124.324C144.112 124.618 143.463 125.496 142.541 126.959L140.413 130.308H136.892L138.672 127.306C139.375 126.116 139.935 125.283 140.353 124.807C140.771 124.324 141.295 123.894 141.924 123.516C140.565 123.292 139.584 122.795 138.981 122.025C138.377 121.248 138.076 120.321 138.076 119.243C138.076 118.305 138.298 117.476 138.742 116.755C139.193 116.027 139.783 115.54 140.512 115.295C141.248 115.043 142.345 114.917 143.804 114.917H150V130.308H147.056ZM147.056 117.521H144.759C143.592 117.521 142.823 117.549 142.452 117.605C142.087 117.661 141.772 117.85 141.507 118.172C141.242 118.494 141.109 118.914 141.109 119.432C141.109 119.971 141.235 120.401 141.487 120.723C141.745 121.038 142.07 121.234 142.461 121.311C142.859 121.388 143.665 121.426 144.878 121.426H147.056V117.521Z" fill="black"/>
</svg>
