<svg width="200" height="201" viewBox="0 0 200 201" fill="none" xmlns="http://www.w3.org/2000/svg">
<rect x="36.9792" y="12.3114" width="126.042" height="176.042" rx="8.85417" fill="white" stroke="#13141A" stroke-width="1.04167"/>
<rect x="41.6667" y="16.999" width="116.667" height="166.667" rx="4.16667" fill="#00AC5A"/>
<path fill-rule="evenodd" clip-rule="evenodd" d="M94.9224 69.6309L88.7821 183.666H43.9103L77.6821 69.6309H66.347V69.6317L61.8598 80.5966H55.1291V69.6309H41.6667V60.8589H80.28L93.2692 16.999H97.7564L95.3947 60.8589H104.605L102.244 16.999H106.731L119.72 60.8589H158.333V69.6309H144.871V80.5966H138.14L133.653 69.6317V69.6309H122.318L156.09 183.666H111.218L105.078 69.6309H94.9224Z" fill="white"/>
<rect x="54.7397" y="130.072" width="90.5208" height="44.6875" rx="6.30208" fill="white" stroke="black" stroke-width="1.14583"/>
<circle cx="122.916" cy="151.884" r="16.6563" fill="#05081B"/>
<circle cx="122.914" cy="151.313" r="15.2463" fill="white"/>
<path d="M112.194 155.389L115.113 155.087C115.196 155.747 115.443 156.271 115.853 156.661C116.263 157.043 116.735 157.234 117.27 157.234C117.882 157.234 118.399 156.987 118.823 156.494C119.247 155.993 119.459 155.243 119.459 154.243C119.459 153.305 119.247 152.603 118.823 152.137C118.406 151.665 117.861 151.429 117.187 151.429C116.346 151.429 115.592 151.8 114.925 152.544L112.549 152.2L114.05 144.248H121.793V146.989H116.27L115.811 149.584C116.464 149.257 117.131 149.094 117.812 149.094C119.111 149.094 120.213 149.566 121.116 150.511C122.019 151.456 122.471 152.683 122.471 154.19C122.471 155.448 122.106 156.57 121.377 157.557C120.383 158.905 119.004 159.579 117.239 159.579C115.828 159.579 114.678 159.2 113.789 158.443C112.9 157.685 112.368 156.667 112.194 155.389Z" fill="black"/>
<path d="M128.558 143.977C130.038 143.977 131.195 144.505 132.029 145.561C133.022 146.811 133.519 148.885 133.519 151.783C133.519 154.673 133.019 156.751 132.018 158.015C131.191 159.058 130.038 159.579 128.558 159.579C127.071 159.579 125.872 159.009 124.962 157.869C124.052 156.723 123.597 154.684 123.597 151.752C123.597 148.875 124.097 146.804 125.098 145.54C125.925 144.498 127.078 143.977 128.558 143.977ZM128.558 146.405C128.204 146.405 127.887 146.52 127.609 146.749C127.332 146.971 127.116 147.374 126.963 147.958C126.762 148.715 126.661 149.99 126.661 151.783C126.661 153.576 126.751 154.809 126.932 155.483C127.113 156.15 127.338 156.594 127.609 156.817C127.887 157.039 128.204 157.15 128.558 157.15C128.912 157.15 129.228 157.039 129.506 156.817C129.784 156.588 130 156.181 130.152 155.597C130.354 154.847 130.455 153.576 130.455 151.783C130.455 149.99 130.364 148.76 130.184 148.093C130.003 147.419 129.774 146.971 129.496 146.749C129.225 146.52 128.912 146.405 128.558 146.405Z" fill="black"/>
<circle cx="95.4164" cy="152.054" r="14.4173" fill="#05081B"/>
<circle cx="95.4144" cy="151.457" r="13.2135" fill="white"/>
<path d="M94.6584 156.043V158.4H85.7612C85.8576 157.509 86.1466 156.666 86.6284 155.871C87.1101 155.07 88.0615 154.01 89.4827 152.691C90.6268 151.626 91.3284 150.903 91.5873 150.524C91.9366 150 92.1112 149.482 92.1112 148.97C92.1112 148.404 91.9576 147.97 91.6505 147.669C91.3494 147.362 90.9309 147.209 90.395 147.209C89.8651 147.209 89.4435 147.368 89.1304 147.687C88.8173 148.006 88.6366 148.536 88.5885 149.277L86.0593 149.024C86.2099 147.627 86.6826 146.625 87.4774 146.016C88.2723 145.408 89.2659 145.104 90.4582 145.104C91.7649 145.104 92.7917 145.456 93.5384 146.161C94.2851 146.865 94.6584 147.742 94.6584 148.789C94.6584 149.385 94.55 149.955 94.3332 150.497C94.1225 151.032 93.7852 151.595 93.3216 152.186C93.0145 152.577 92.4605 153.14 91.6596 153.875C90.8587 154.609 90.3498 155.097 90.133 155.338C89.9223 155.579 89.7507 155.814 89.6182 156.043H94.6584Z" fill="black"/>
<path d="M96.0498 154.995L98.5789 154.733C98.6512 155.305 98.865 155.76 99.2203 156.097C99.5755 156.428 99.985 156.594 100.449 156.594C100.979 156.594 101.427 156.38 101.795 155.952C102.162 155.519 102.346 154.868 102.346 154.001C102.346 153.188 102.162 152.58 101.795 152.177C101.433 151.767 100.961 151.562 100.376 151.562C99.6478 151.562 98.9944 151.885 98.4163 152.529L96.3569 152.231L97.6576 145.339H104.369V147.714H99.5816L99.1841 149.964C99.7502 149.681 100.328 149.539 100.918 149.539C102.044 149.539 102.999 149.949 103.782 150.767C104.565 151.586 104.956 152.649 104.956 153.956C104.956 155.046 104.64 156.018 104.008 156.874C103.146 158.042 101.951 158.626 100.422 158.626C99.1992 158.626 98.2026 158.298 97.4318 157.641C96.661 156.985 96.2003 156.103 96.0498 154.995Z" fill="black"/>
<circle cx="72.4999" cy="152.414" r="12.6042" fill="#05081B"/>
<circle cx="72.5001" cy="151.895" r="11.4583" fill="white"/>
<path d="M69.8467 157.477H67.699V149.383C66.9143 150.117 65.9895 150.66 64.9246 151.011V149.062C65.485 148.879 66.0939 148.532 66.7512 148.023C67.4085 147.508 67.8595 146.909 68.1041 146.227H69.8467V157.477Z" fill="black"/>
<path d="M75.5991 146.227C76.6844 146.227 77.5328 146.614 78.1442 147.388C78.8729 148.305 79.2372 149.826 79.2372 151.951C79.2372 154.071 78.8703 155.594 78.1366 156.522C77.5302 157.286 76.6844 157.668 75.5991 157.668C74.5087 157.668 73.6298 157.25 72.9623 156.415C72.2948 155.574 71.961 154.078 71.961 151.928C71.961 149.819 72.3279 148.3 73.0616 147.373C73.668 146.609 74.5138 146.227 75.5991 146.227ZM75.5991 148.007C75.3392 148.007 75.1074 148.091 74.9036 148.26C74.6998 148.423 74.5418 148.718 74.4297 149.146C74.282 149.702 74.2081 150.637 74.2081 151.951C74.2081 153.266 74.2743 154.17 74.4068 154.664C74.5393 155.154 74.7049 155.48 74.9036 155.643C75.1074 155.806 75.3392 155.887 75.5991 155.887C75.859 155.887 76.0908 155.806 76.2946 155.643C76.4984 155.475 76.6564 155.177 76.7685 154.749C76.9163 154.198 76.9901 153.266 76.9901 151.951C76.9901 150.637 76.9239 149.735 76.7914 149.246C76.6589 148.751 76.4908 148.423 76.287 148.26C76.0883 148.091 75.859 148.007 75.5991 148.007Z" fill="black"/>
</svg>
