<svg width="200" height="200" viewBox="0 0 200 200" fill="none" xmlns="http://www.w3.org/2000/svg">
<rect x="36.9792" y="11.9792" width="126.042" height="176.042" rx="8.85417" fill="white" stroke="#13141A" stroke-width="1.04167"/>
<rect x="41.6667" y="16.6675" width="116.667" height="166.667" rx="4.16667" fill="#1071AF"/>
<rect x="50" y="33.3325" width="100" height="100" rx="4.16667" fill="white"/>
<path fill-rule="evenodd" clip-rule="evenodd" d="M106.25 47.4893C106.25 45.4241 107.924 43.75 109.989 43.75H139.904C141.969 43.75 143.643 45.4241 143.643 47.4893V108.761C143.643 110.826 141.969 112.5 139.904 112.5H120.833V69.9254H136.163V51.2288H113.728V58.3327H106.25V47.4893Z" fill="#5CC1EC"/>
<path fill-rule="evenodd" clip-rule="evenodd" d="M87.6079 57.9073C87.6079 55.8421 89.282 54.168 91.3472 54.168H121.262C123.327 54.168 125.001 55.8421 125.001 57.9073V119.179C125.001 121.244 123.327 122.918 121.262 122.918H91.3472C89.282 122.918 87.6079 121.244 87.6079 119.179V57.9073ZM95.0855 61.6461H117.521V80.3427H95.0855V61.6461ZM80.1284 61.6439C78.0632 61.6439 76.3891 63.318 76.3891 65.3832V81.3915L57.2868 99.0244C53.9699 102.086 52.0835 106.395 52.0835 110.909V111.19C52.0835 119.967 59.1986 127.082 67.9756 127.082H68.9104C77.1711 127.082 83.8677 120.385 83.8677 112.125V89.6887H87.607V85.9494H83.8677C81.8025 85.9494 80.1284 87.6236 80.1284 89.6887V112.125C80.1284 118.32 75.1059 123.343 68.9104 123.343H67.9756C61.2638 123.343 55.8228 117.902 55.8228 111.19V110.909C55.8228 107.438 57.2731 104.126 59.8231 101.772L79.5269 83.5839L80.1284 83.0287V82.2101V65.3832H87.607V61.6439H80.1284Z" fill="black"/>
<path d="M70.0746 157.389C69.064 156.962 68.3272 156.378 67.8634 155.637C67.4092 154.885 67.1822 154.065 67.1822 153.175C67.1822 151.655 67.7098 150.399 68.7668 149.407C69.8327 148.415 71.3447 147.919 73.3005 147.919C75.2386 147.919 76.7397 148.415 77.8058 149.407C78.8818 150.399 79.4193 151.655 79.4193 153.175C79.4193 154.121 79.174 154.965 78.682 155.706C78.1904 156.438 77.4998 157 76.6099 157.389C77.7409 157.843 78.5986 158.506 79.1826 159.377C79.7761 160.248 80.0733 161.254 80.0733 162.395C80.0733 164.277 79.4706 165.807 78.2654 166.984C77.0698 168.162 75.4742 168.751 73.4808 168.751C71.6265 168.751 70.0829 168.264 68.8501 167.291C67.3945 166.141 66.6667 164.564 66.6667 162.562C66.6667 161.459 66.9403 160.448 67.4874 159.53C68.035 158.603 68.8974 157.888 70.0746 157.389ZM70.8809 153.453C70.8809 154.231 71.0992 154.838 71.5349 155.275C71.98 155.711 72.5683 155.928 73.3012 155.928C74.0424 155.928 74.6367 155.711 75.0811 155.275C75.5261 154.829 75.7485 154.218 75.7485 153.439C75.7485 152.707 75.5261 152.123 75.0811 151.687C74.645 151.242 74.0658 151.02 73.3428 151.02C72.5917 151.02 71.9943 151.242 71.5487 151.687C71.1038 152.132 70.8809 152.72 70.8809 153.453ZM70.5196 162.186C70.5196 163.262 70.7937 164.101 71.3403 164.702C71.8972 165.305 72.5873 165.607 73.4118 165.607C74.2181 165.607 74.8864 165.319 75.4145 164.745C75.9432 164.161 76.2076 163.322 76.2076 162.228C76.2076 161.272 75.9385 160.508 75.4013 159.933C74.8638 159.349 74.1823 159.056 73.3573 159.056C72.4017 159.056 71.6878 159.386 71.2157 160.045C70.7511 160.703 70.5196 161.417 70.5196 162.186ZM89.1821 147.917C91.157 147.917 92.7007 148.622 93.8133 150.032C95.1387 151.701 95.8017 154.468 95.8017 158.333C95.8017 162.19 95.1348 164.962 93.7993 166.65C92.696 168.04 91.157 168.735 89.1821 168.735C87.1982 168.735 85.5991 167.975 84.3845 166.455C83.1699 164.925 82.5626 162.204 82.5626 158.292C82.5626 154.454 83.2299 151.69 84.5654 150.003C85.6684 148.613 87.2076 147.917 89.1821 147.917ZM89.1821 151.159C88.7095 151.159 88.2877 151.311 87.9169 151.618C87.5458 151.915 87.2585 152.452 87.0547 153.231C86.7859 154.242 86.6512 155.943 86.6512 158.334C86.6512 160.727 86.7719 162.372 87.0129 163.271C87.2546 164.161 87.5559 164.754 87.9169 165.051C88.2877 165.348 88.7095 165.496 89.1821 165.496C89.6552 165.496 90.0769 165.348 90.4478 165.051C90.8189 164.745 91.1059 164.202 91.3099 163.423C91.5788 162.422 91.7132 160.726 91.7132 158.334C91.7132 155.942 91.5925 154.301 91.3517 153.41C91.1098 152.512 90.8046 151.913 90.4337 151.616C90.0725 151.311 89.6552 151.159 89.1821 151.159ZM105.036 147.917C107.01 147.917 108.554 148.622 109.667 150.032C110.992 151.701 111.655 154.468 111.655 158.333C111.655 162.191 110.988 164.962 109.653 166.65C108.549 168.04 107.01 168.735 105.036 168.735C103.052 168.735 101.452 167.975 100.238 166.455C99.0235 164.925 98.4162 162.204 98.4162 158.292C98.4162 154.454 99.0832 151.69 100.419 150.003C101.522 148.613 103.06 147.917 105.036 147.917ZM105.036 151.159C104.563 151.159 104.141 151.311 103.77 151.618C103.399 151.915 103.112 152.452 102.908 153.231C102.639 154.242 102.504 155.943 102.504 158.334C102.504 160.727 102.625 162.372 102.866 163.271C103.108 164.161 103.409 164.754 103.77 165.051C104.141 165.348 104.563 165.496 105.036 165.496C105.508 165.496 105.93 165.348 106.301 165.051C106.672 164.745 106.959 164.202 107.163 163.423C107.432 162.422 107.567 160.726 107.567 158.334C107.567 155.942 107.446 154.301 107.205 153.41C106.964 152.512 106.658 151.913 106.287 151.616C105.926 151.311 105.508 151.159 105.036 151.159ZM115.229 153.619H120.068L123.74 163.91L127.439 153.619H132.264V168.388H128.941V158.668L125.338 168.388H122.002L118.567 158.668V168.388H115.23L115.229 153.619Z" fill="white"/>
</svg>
