<svg width="200" height="201" viewBox="0 0 200 201" fill="none" xmlns="http://www.w3.org/2000/svg">
<rect x="1.56254" y="147.02" width="92.7084" height="196.875" rx="8.85417" transform="rotate(-90 1.56254 147.02)" fill="white" stroke="#13141A" stroke-width="1.04167"/>
<rect x="6.77083" y="141.812" width="82.2917" height="186.458" rx="3.64583" transform="rotate(-90 6.77083 141.812)" stroke="black" stroke-width="1.04167"/>
<path fill-rule="evenodd" clip-rule="evenodd" d="M44.5789 84H34.5789V95.6618L22.9166 95.6618V105.662H34.5789V117.333H44.5789V105.662H56.25V95.6618L44.5789 95.6618V84Z" fill="black"/>
<path fill-rule="evenodd" clip-rule="evenodd" d="M120.808 69.8352C121.634 69.2632 121.84 68.1296 121.268 67.3034C120.696 66.4772 119.562 66.2712 118.736 66.8433L98.3676 77.8431H91.3431C89.1854 77.8431 87.156 78.8682 85.8755 80.6048L77.5503 91.8959C76.6893 93.0637 76.2247 94.4765 76.2247 95.9273V114.073C76.2247 116.574 78.2523 118.602 80.7535 118.602H82.9069C82.8733 118.229 82.8561 117.851 82.8561 117.47C82.8561 110.591 88.432 105.016 95.3101 105.016C102.188 105.016 107.764 110.591 107.764 117.47C107.764 117.851 107.747 118.229 107.713 118.602H142.104C142.07 118.229 142.053 117.851 142.053 117.47C142.053 110.591 147.629 105.016 154.507 105.016C161.385 105.016 166.961 110.591 166.961 117.47C166.961 117.851 166.944 118.229 166.911 118.602H173.593C176.094 118.602 178.121 116.574 178.121 114.073V95.9273C178.121 94.4765 177.657 93.0637 176.796 91.8959L168.471 80.6048C167.19 78.8682 165.161 77.8431 163.003 77.8431H106.054L120.808 69.8352ZM81.3843 94.1678L89.81 82.3719H101.132V95.9581H82.3056C81.3847 95.9581 80.849 94.9172 81.3843 94.1678ZM170.696 94.1678L162.27 82.3719H150.948V95.9581H169.774C170.695 95.9581 171.231 94.9172 170.696 94.1678ZM128.304 82.3719H146.419V95.9581H128.304V82.3719ZM123.776 82.3719H105.661V95.9581H123.776V82.3719Z" fill="black"/>
<path fill-rule="evenodd" clip-rule="evenodd" d="M95.3101 127.659C100.938 127.659 105.5 123.097 105.5 117.47C105.5 111.842 100.938 107.28 95.3101 107.28C89.6825 107.28 85.1205 111.842 85.1205 117.47C85.1205 123.097 89.6825 127.659 95.3101 127.659ZM95.3101 123.131C98.4366 123.131 100.971 120.596 100.971 117.47C100.971 114.343 98.4366 111.809 95.3101 111.809C92.1837 111.809 89.6492 114.343 89.6492 117.47C89.6492 120.596 92.1837 123.131 95.3101 123.131Z" fill="black"/>
<path fill-rule="evenodd" clip-rule="evenodd" d="M164.697 117.47C164.697 123.097 160.135 127.659 154.507 127.659C148.88 127.659 144.318 123.097 144.318 117.47C144.318 111.842 148.88 107.28 154.507 107.28C160.135 107.28 164.697 111.842 164.697 117.47ZM160.168 117.47C160.168 120.596 157.634 123.131 154.507 123.131C151.381 123.131 148.846 120.596 148.846 117.47C148.846 114.343 151.381 111.809 154.507 111.809C157.634 111.809 160.168 114.343 160.168 117.47Z" fill="black"/>
</svg>
