<svg width="200" height="201" viewBox="0 0 200 201" fill="none" xmlns="http://www.w3.org/2000/svg">
<circle cx="100" cy="100.333" r="82.8125" fill="white" stroke="#05081B" stroke-width="1.04167"/>
<circle cx="99.9993" cy="100.331" r="78.125" fill="#1071AF"/>
<path d="M134.474 70.1234C134.474 72.9999 132.26 75.3317 129.528 75.3317C126.796 75.3317 124.581 72.9999 124.581 70.1234C124.581 67.2469 126.796 64.915 129.528 64.915C132.26 64.915 134.474 67.2469 134.474 70.1234Z" fill="white"/>
<path d="M125.479 120.786L129.602 103.203L133.725 120.786C134.109 122.422 135.697 123.404 137.241 122.961C138.71 122.539 139.604 120.975 139.271 119.411L133.436 91.9984L134.425 85.7484L138.321 96.7587C138.757 97.9918 140.088 98.5857 141.233 98.0583C142.276 97.5779 142.791 96.3326 142.415 95.2014L136.504 77.4197C136.296 76.793 135.734 76.3734 135.103 76.3734H124.101C123.47 76.3734 122.908 76.793 122.7 77.4197L116.789 95.2014C116.413 96.3326 116.928 97.5779 117.971 98.0583C119.116 98.5857 120.447 97.9918 120.883 96.7587L124.779 85.7484L125.769 91.9984L119.933 119.411C119.6 120.975 120.494 122.539 121.963 122.961C123.507 123.404 125.095 122.422 125.479 120.786Z" fill="white"/>
<path d="M155.788 97.1708C155.607 96.8689 155.291 96.6859 154.952 96.6859L149.442 96.6859C148.937 96.6859 148.435 96.7764 147.959 96.9535L140.272 99.8126C139.481 100.105 139.037 100.991 139.255 101.844C139.484 102.737 140.353 103.271 141.204 103.04L148.678 101.01V108.154L144.949 120.603C144.633 121.658 145.203 122.775 146.242 123.135C147.297 123.501 148.451 122.954 148.837 121.904L152.034 113.211L155.232 121.904C155.618 122.954 156.771 123.501 157.826 123.135C158.865 122.775 159.436 121.658 159.12 120.603L155.39 108.154V103.328L158.975 108.661C159.491 109.427 160.507 109.588 161.214 109.017C161.858 108.496 162.019 107.544 161.585 106.821L155.788 97.1708Z" fill="white"/>
<path d="M152.282 95.6442C154.467 95.6442 156.239 93.7787 156.239 91.4775C156.239 89.1763 154.467 87.3109 152.282 87.3109C150.096 87.3109 148.325 89.1763 148.325 91.4775C148.325 93.7787 150.096 95.6442 152.282 95.6442Z" fill="white"/>
<path fill-rule="evenodd" clip-rule="evenodd" d="M48.0165 85.748C46.2912 85.748 44.8285 87.0167 44.5845 88.7247C44.3475 90.3833 45.3307 91.9741 46.9202 92.5039L48.6249 93.0722L44.1177 100.96C42.7159 100.345 41.1669 100.004 39.5382 100.004C33.2349 100.004 28.125 105.114 28.125 111.417C28.125 117.72 33.2349 122.83 39.5382 122.83C45.8416 122.83 50.9514 117.72 50.9514 111.417C50.9514 107.607 49.0847 104.233 46.2161 102.16L47.3455 100.184L60.7347 112.31C60.8407 112.406 60.9621 112.482 61.0925 112.534C61.2641 112.605 61.4436 112.633 61.6186 112.623H67.8605C68.4626 118.359 73.3146 122.831 79.2108 122.831C85.5142 122.831 90.624 117.721 90.624 111.417C90.624 105.114 85.5142 100.004 79.2108 100.004C77.3017 100.004 75.502 100.473 73.9206 101.302L70.0962 95.565V92.5154H73.2328C73.9004 92.5154 74.4416 91.9742 74.4416 91.3066C74.4416 90.639 73.9004 90.0979 73.2328 90.0979L68.8885 90.0979L68.8874 90.0979L68.8863 90.0979L63.9935 90.0979C63.326 90.0979 62.7848 90.639 62.7848 91.3066C62.7848 91.9742 63.326 92.5154 63.9935 92.5154H67.6786V94.7158H50.4701L51.4555 92.9914C51.6352 92.677 51.6644 92.2986 51.5351 91.9603C51.4059 91.622 51.1318 91.3595 50.7882 91.2449L47.6847 90.2104C47.2036 90.0501 46.906 89.5686 46.9777 89.0665C47.0516 88.5496 47.4943 88.1656 48.0165 88.1656H53.3951C54.0627 88.1656 54.6039 87.6244 54.6039 86.9568C54.6039 86.2892 54.0627 85.748 53.3951 85.748H48.0165ZM71.9102 102.644L69.0646 98.3759L63.4613 110.205H67.8612C68.1814 107.173 69.6889 104.495 71.9102 102.644ZM70.2962 110.205C70.5918 108.01 71.6789 106.066 73.2609 104.67L76.9508 110.205H70.2962ZM70.2952 112.623H79.2094C79.6552 112.623 80.0648 112.377 80.2752 111.984C80.4855 111.591 80.4625 111.114 80.2152 110.743L75.2715 103.328C76.4612 102.747 77.798 102.422 79.2108 102.422C84.179 102.422 88.2065 106.449 88.2065 111.417C88.2065 116.386 84.179 120.413 79.2108 120.413C74.6514 120.413 70.8842 117.021 70.2952 112.623ZM39.5382 102.421C40.7303 102.421 41.8682 102.653 42.9093 103.074L38.4867 110.814C38.1555 111.394 38.3569 112.132 38.9365 112.463C39.5161 112.794 40.2545 112.593 40.5858 112.013L45.0079 104.275C47.1517 105.919 48.5339 108.507 48.5339 111.417C48.5339 116.385 44.5064 120.413 39.5382 120.413C34.5701 120.413 30.5426 116.385 30.5426 111.417C30.5426 106.449 34.5701 102.421 39.5382 102.421ZM49.0887 97.1334L48.5737 98.0345L61.1542 109.428L66.9781 97.1334H49.0887Z" fill="white"/>
<path d="M100 20.125V180.542" stroke="white" stroke-width="8.33333"/>
</svg>
