<svg width="200" height="200" viewBox="0 0 200 200" fill="none" xmlns="http://www.w3.org/2000/svg">
<rect y="16.6677" width="200" height="166.667" fill="#68696C"/>
<path fill-rule="evenodd" clip-rule="evenodd" d="M85.6147 33.334C83.5347 33.334 81.7712 34.8635 81.477 36.9226C81.1914 38.9223 82.3767 40.8401 84.293 41.4789L86.6972 42.2803L80.871 52.4761C79.0439 51.6419 77.0128 51.1771 74.8732 51.1771C66.889 51.1771 60.4166 57.6495 60.4166 65.6336C60.4166 73.6177 66.889 80.0901 74.8732 80.0901C82.8573 80.0901 89.3297 73.6177 89.3297 65.6336C89.3297 60.7328 86.8911 56.4016 83.1611 53.7872L84.7118 51.0735L101.867 66.6105C102.11 66.8302 102.426 66.952 102.753 66.952H110.73C111.395 74.3182 117.587 80.0901 125.127 80.0901C133.111 80.0901 139.583 73.6177 139.583 65.6336C139.583 57.6495 133.111 51.1771 125.127 51.1771C122.632 51.1771 120.286 51.8088 118.238 52.921L113.366 45.6135V41.479H117.554C118.282 41.479 118.873 40.8883 118.873 40.1596C118.873 39.4309 118.282 38.8401 117.554 38.8401L105.851 38.8401C105.122 38.8401 104.531 39.4309 104.531 40.1596C104.531 40.8883 105.122 41.479 105.851 41.479L110.727 41.479V44.6935H88.3575L89.7869 42.1921C89.983 41.8489 90.0149 41.4358 89.8738 41.0666C89.7328 40.6973 89.4335 40.4108 89.0585 40.2858L85.1275 38.9754C84.421 38.7399 83.9841 38.0329 84.0894 37.2958C84.1978 36.5367 84.8479 35.9729 85.6147 35.9729H92.4275C93.1562 35.9729 93.747 35.3821 93.747 34.6534C93.747 33.9247 93.1562 33.334 92.4275 33.334H85.6147ZM116.043 54.3867L112.241 48.6831L104.837 64.3131H110.73C111.092 60.3096 113.087 56.7772 116.043 54.3867ZM113.382 64.3131C113.726 61.2243 115.259 58.4948 117.515 56.5938L122.661 64.3131L113.382 64.3131ZM113.382 66.952L125.126 66.9519C125.613 66.9519 126.06 66.6841 126.289 66.2551C126.519 65.8261 126.494 65.3055 126.224 64.9006L119.709 55.1282C121.332 54.2896 123.174 53.816 125.127 53.816C131.653 53.816 136.944 59.1069 136.944 65.6336C136.944 72.1603 131.653 77.4512 125.127 77.4512C119.046 77.4512 114.037 72.8582 113.382 66.952ZM74.8732 53.816C76.5363 53.816 78.1192 54.1595 79.5547 54.7795L73.7276 64.9771C73.366 65.6098 73.5858 66.4158 74.2185 66.7773C74.8512 67.1388 75.6572 66.919 76.0188 66.2863L81.8449 56.0905C84.7828 58.2405 86.6908 61.7142 86.6908 65.6336C86.6908 72.1603 81.3999 77.4512 74.8732 77.4512C68.3465 77.4512 63.0555 72.1603 63.0555 65.6336C63.0555 59.1069 68.3465 53.816 74.8732 53.816ZM86.8496 47.3324L86.0525 48.7274L102.321 63.4609L109.961 47.3324H86.8496Z" fill="white"/>
<path d="M100 102.084L75 129.67V141.164L100 113.578L125 141.164V129.67L100 102.084Z" fill="white"/>
<path d="M100 129.67L75 157.256V168.751L100 141.164L125 168.751V157.256L100 129.67Z" fill="white"/>
</svg>
