<svg width="200" height="201" viewBox="0 0 200 201" fill="none" xmlns="http://www.w3.org/2000/svg">
<circle cx="99.9995" cy="100.332" r="82.8125" fill="white" stroke="#05081B" stroke-width="1.04167"/>
<circle cx="99.9993" cy="100.332" r="78.125" fill="#1071AF"/>
<path fill-rule="evenodd" clip-rule="evenodd" d="M78.7998 62.4668C75.6652 62.4668 73.0077 64.7716 72.5644 67.8747C72.134 70.8881 73.9201 73.7782 76.808 74.7408L80.1905 75.8683L71.68 90.7617C69.0215 89.5697 66.0742 88.9067 62.9721 88.9067C51.2055 88.9067 41.6668 98.4454 41.6668 110.212C41.6668 121.979 51.2055 131.517 62.9721 131.517C74.7387 131.517 84.2774 121.979 84.2774 110.212C84.2774 103.038 80.7314 96.6918 75.2965 92.831L77.5051 88.9659L102.659 111.747C103.042 112.094 103.541 112.286 104.057 112.286L115.822 112.286C116.865 123.079 125.961 131.517 137.028 131.517C148.795 131.517 158.333 121.979 158.333 110.212C158.333 98.4454 148.795 88.9067 137.028 88.9067C133.404 88.9067 129.991 89.8115 127.004 91.4075L119.838 80.6587V74.7463H125.869C127.019 74.7463 127.952 73.8136 127.952 72.663C127.952 71.5124 127.019 70.5797 125.869 70.5797L117.757 70.5797L117.755 70.5797L117.752 70.5797L108.622 70.5797C107.471 70.5797 106.539 71.5124 106.539 72.663C106.539 73.8136 107.471 74.7463 108.622 74.7463H115.671V79.2049L83.0828 79.2049L85.069 75.7291C85.3787 75.1872 85.4291 74.535 85.2063 73.952C84.9835 73.3689 84.5111 72.9165 83.919 72.7191L78.1256 70.788C77.1481 70.4621 76.5435 69.4839 76.6892 68.4639C76.8393 67.4136 77.7388 66.6335 78.7998 66.6335L88.8401 66.6335C89.9907 66.6335 90.9235 65.7007 90.9235 64.5501C90.9235 63.3995 89.9907 62.4668 88.8401 62.4668H78.7998ZM123.538 93.7206L118.061 85.5055L107.35 108.119L115.824 108.119C116.389 102.326 119.274 97.2128 123.538 93.7206ZM120.016 108.119C120.545 103.77 122.704 99.9234 125.863 97.2085L133.137 108.119H120.016ZM120.014 112.286H137.03C137.798 112.286 138.504 111.863 138.867 111.186C139.229 110.508 139.19 109.686 138.763 109.047L129.329 94.8957C131.644 93.7298 134.259 93.0733 137.028 93.0733C146.494 93.0733 154.167 100.747 154.167 110.212C154.167 119.677 146.494 127.351 137.028 127.351C128.265 127.351 121.037 120.773 120.014 112.286ZM62.9721 93.0733C65.3218 93.0733 67.561 93.5462 69.5999 94.4019L61.1606 109.171C60.5897 110.17 60.9368 111.442 61.9358 112.013C62.9348 112.584 64.2074 112.237 64.7782 111.238L73.2166 96.4708C77.4014 99.5958 80.1107 104.587 80.1107 110.212C80.1107 119.677 72.4375 127.351 62.9721 127.351C53.5067 127.351 45.8335 119.677 45.8335 110.212C45.8335 100.747 53.5067 93.0733 62.9721 93.0733ZM80.7019 83.3716L79.6219 85.2615L103.376 106.775L114.462 83.3716L80.7019 83.3716Z" fill="white"/>
<path d="M154.167 46.165L45.8333 154.498" stroke="#FF0E00" stroke-width="12.5"/>
</svg>
