<svg width="200" height="200" viewBox="0 0 200 200" fill="none" xmlns="http://www.w3.org/2000/svg">
<circle cx="100" cy="100.002" r="82.8125" fill="white" stroke="#05081B" stroke-width="1.04167"/>
<circle cx="100" cy="100.001" r="71.875" stroke="#FF0E00" stroke-width="12.5"/>
<path fill-rule="evenodd" clip-rule="evenodd" d="M66.7384 64.5859H93.9497V69.9113H81.8281L76.9765 82.1485L78.482 83.2033C78.482 83.2033 83.2444 76.4929 89.3209 83.9412C95.3958 91.3895 86.4569 94.7207 86.4569 94.7207L94.6711 106.18H116.797C118.358 96.775 126.548 89.5831 136.39 89.5831C147.343 89.5831 156.25 98.4906 156.25 109.443C156.25 120.398 147.344 129.306 136.39 129.306C126.53 129.306 118.327 122.087 116.789 112.655H91.4768L74.251 89.0239L73.1389 92.0209C79.2917 95.3988 83.4707 101.941 83.4707 109.443C83.4707 120.398 74.5632 129.306 63.6103 129.306C52.6575 129.306 43.75 120.398 43.75 109.443C43.75 98.4906 52.6558 89.5831 63.6103 89.5831C64.6875 89.5831 65.7448 89.6692 66.7758 89.835L73.008 73.2145H71.9185C71.9185 73.2145 71.5686 74.5813 69.5843 74.5813C67.6001 74.5813 66.7384 72.995 66.7384 72.995V64.5859ZM135.042 112.655H122.571C124.033 118.93 129.682 123.63 136.39 123.63C144.201 123.63 150.524 117.257 150.524 109.443C150.524 101.632 144.203 95.3096 136.39 95.3096C129.7 95.3096 124.066 99.9444 122.584 106.18H135.107C137.145 106.18 138.137 107.278 138.137 109.319C138.137 111.361 136.969 112.655 135.042 112.655ZM59.7969 108.447L64.7073 95.3514C64.3453 95.3237 63.9795 95.3096 63.6103 95.3096C55.7972 95.3096 49.4236 101.632 49.4236 109.443C49.4236 117.257 55.7989 123.63 63.6103 123.63C71.4218 123.63 77.7442 117.257 77.7442 109.443C77.7442 104.392 75.1005 99.9625 71.1192 97.4636L65.9114 111.498C65.4904 112.63 63.9123 113.399 61.7448 112.409C59.551 111.405 59.1267 110.23 59.7969 108.447ZM140.132 82.0218H111.278C109.644 82.0218 108.68 85.5016 109.126 87.093C110.25 91.1027 124.737 97.7058 120.288 92.2731L115.62 87.1656H140.132V82.0218Z" fill="black"/>
</svg>
