<svg width="200" height="201" viewBox="0 0 200 201" fill="none" xmlns="http://www.w3.org/2000/svg">
<rect x="30.7287" y="30.7726" width="138.54" height="138.54" rx="8.85404" fill="white" stroke="#13141A" stroke-width="1.04165"/>
<rect x="35.4161" y="35.4619" width="129.165" height="129.165" rx="4.16661" fill="#1071AF"/>
<path d="M35.4161 37.5449C69.7906 59.7904 111.457 108.483 122.915 164.626" stroke="white" stroke-width="10.4165"/>
<path d="M127.081 87.5425V164.625" stroke="white" stroke-width="10.4165"/>
<rect x="108.332" y="45.8774" width="37.4994" height="47.916" fill="white"/>
<rect x="113.54" y="51.0875" width="27.0829" height="37.4995" fill="white" stroke="#FF0E00" stroke-width="2.0833"/>
<rect x="122.915" y="52.127" width="8.33321" height="4.16661" fill="#FF0E00"/>
<rect x="122.915" y="62.5449" width="8.33321" height="4.16661" fill="#FF0E00"/>
<path d="M114.582 57.3359H120.832V61.5027H114.582V57.3359Z" fill="#FF0E00"/>
<path d="M133.331 57.3359H139.582V61.5027H133.331V57.3359Z" fill="#FF0E00"/>
<path d="M114.582 67.7515H120.832V71.9183H114.582V67.7515Z" fill="#FF0E00"/>
<path d="M133.331 67.7515H139.582V71.9183H133.331V67.7515Z" fill="#FF0E00"/>
<path d="M114.582 78.1675H120.832V82.3343H114.582V78.1675Z" fill="#FF0E00"/>
<path d="M133.331 78.1675H139.582V82.3343H133.331V78.1675Z" fill="#FF0E00"/>
<rect x="122.915" y="72.9604" width="8.33321" height="4.16661" fill="#FF0E00"/>
<rect x="122.915" y="83.3784" width="8.33321" height="4.16661" fill="#FF0E00"/>
</svg>
