<svg width="200" height="201" viewBox="0 0 200 201" fill="none" xmlns="http://www.w3.org/2000/svg">
<rect x="1.56254" y="146.688" width="92.7084" height="196.875" rx="8.85417" transform="rotate(-90 1.56254 146.688)" fill="white" stroke="#13141A" stroke-width="1.04167"/>
<rect x="6.77083" y="141.478" width="82.2917" height="186.458" rx="3.64583" transform="rotate(-90 6.77083 141.478)" stroke="black" stroke-width="1.04167"/>
<path fill-rule="evenodd" clip-rule="evenodd" d="M85.3577 64.9167C83.1173 64.9167 81.2172 66.5684 80.8976 68.7937C80.586 70.9634 81.8699 73.0448 83.944 73.7325L86.4688 74.5696L80.2458 85.4019C78.297 84.5252 76.1336 84.0371 73.8557 84.0371C65.283 84.0371 58.3334 90.9497 58.3334 99.4769C58.3334 108.004 65.283 114.917 73.8557 114.917C82.4285 114.917 89.378 108.004 89.378 99.4769C89.378 94.2605 86.7773 89.6483 82.7953 86.8532L84.4293 84.0088L102.783 100.543C102.891 100.645 103.016 100.732 103.157 100.799C103.387 100.91 103.632 100.954 103.87 100.941H112.358C113.099 108.781 119.735 114.916 127.811 114.916C136.384 114.916 143.333 108.004 143.333 99.4767C143.333 90.9495 136.384 84.0368 127.811 84.0368C125.152 84.0368 122.65 84.7017 120.462 85.8734L115.233 78.0708V73.7393L119.678 73.7393C120.488 73.7393 121.144 73.0809 121.144 72.2686C121.144 71.4564 120.488 70.798 119.678 70.798L107.113 70.798C106.303 70.798 105.647 71.4564 105.647 72.2686C105.647 73.0809 106.303 73.7393 107.113 73.7393L112.302 73.7393V77.0454H88.4297L89.9068 74.4742C90.1269 74.0911 90.1635 73.6289 90.0064 73.2156C89.8494 72.8024 89.5154 72.482 89.0969 72.3433L84.8636 70.9397C84.1385 70.6993 83.6897 69.9717 83.7987 69.2133C83.9104 68.4354 84.5746 67.8581 85.3577 67.8581H92.7025C93.5119 67.8581 94.168 67.1996 94.168 66.3874C94.168 65.5752 93.5119 64.9167 92.7025 64.9167H85.3577ZM118.018 87.4969L113.983 81.4761L106.114 97.9995H112.359C112.763 93.7691 114.882 90.0361 118.018 87.4969ZM115.307 97.9995C115.688 94.7895 117.297 91.944 119.661 89.9487L125.057 97.9995H115.307ZM115.305 100.941H127.809C128.351 100.941 128.848 100.641 129.102 100.161C129.357 99.6818 129.327 99.1003 129.025 98.6494L122.108 88.3296C123.818 87.4658 125.755 86.9782 127.811 86.9782C134.789 86.9782 140.402 92.5984 140.402 99.4767C140.402 106.355 134.789 111.975 127.811 111.975C121.335 111.975 116.035 107.135 115.305 100.941ZM73.8557 86.9784C75.6024 86.9784 77.2636 87.3305 78.7726 87.9664L72.5843 98.7382C72.1801 99.4419 72.4208 100.341 73.122 100.747C73.8232 101.153 74.7194 100.911 75.1236 100.207L81.3246 89.4131C84.4359 91.6932 86.447 95.3597 86.447 99.4769C86.447 106.355 80.8342 111.975 73.8557 111.975C66.8773 111.975 61.2644 106.355 61.2644 99.4769C61.2644 92.5986 66.8773 86.9784 73.8557 86.9784ZM86.7399 79.9868L85.9257 81.4041L103.31 97.0652L111.443 79.9868H86.7399Z" fill="black"/>
<path d="M154.625 127.882L149.969 123.249L145.483 123.249L150.139 127.882L47.9167 127.882L47.9167 131.007L150.249 131.007L145.483 135.749L149.969 135.749L156.25 129.499L154.68 127.937L154.68 127.882L154.625 127.882Z" fill="black"/>
</svg>
