<svg width="200" height="200" viewBox="0 0 200 200" fill="none" xmlns="http://www.w3.org/2000/svg">
<rect x="36.9792" y="11.9792" width="126.042" height="176.042" rx="8.85417" fill="white" stroke="#13141A" stroke-width="1.04167"/>
<rect x="41.6667" y="16.6665" width="116.667" height="166.667" rx="4.16667" fill="#1071AF"/>
<rect x="50" y="33.3335" width="100" height="100" rx="4.16667" fill="white"/>
<path fill-rule="evenodd" clip-rule="evenodd" d="M74.7127 62.4294L68.9635 53.5481C67.9734 52.0185 69.0713 50 70.8934 50H126.808C128.63 50 129.728 52.0185 128.738 53.5481L122.989 62.4294V62.6437H131.035C135.478 62.6437 139.081 66.246 139.081 70.6897V82.1839C139.081 86.6276 135.478 90.2299 131.035 90.2299H122.989V93.1503C122.989 95.9275 121.983 98.6109 120.158 100.704L116.092 105.172H128.366C129.722 105.172 130.716 106.446 130.387 107.761L130.212 108.465C130.013 109.259 129.367 109.864 128.561 110.01L122.989 111.017L121.557 113.363C120.304 115.415 118.074 116.667 115.67 116.667H82.0314C79.6275 116.667 77.397 115.415 76.1446 113.363L74.7127 111.017L69.941 109.982C69.3243 109.848 68.8015 109.442 68.5193 108.877L68.1743 108.187C67.4817 106.802 68.4889 105.172 70.0377 105.172H81.6093L77.5435 100.704C75.7183 98.6109 74.7127 95.9275 74.7127 93.1503V62.4294ZM122.989 83.3333H131.035C131.669 83.3333 132.184 82.8187 132.184 82.1839V70.6897C132.184 70.0548 131.669 69.5402 131.035 69.5402H122.989V83.3333Z" fill="black"/>
</svg>
