<svg width="200" height="201" viewBox="0 0 200 201" fill="none" xmlns="http://www.w3.org/2000/svg">
<rect x="36.9786" y="12.0924" width="126.04" height="176.039" rx="8.85404" fill="white" stroke="#13141A" stroke-width="1.04165"/>
<rect x="41.6661" y="16.7815" width="116.665" height="166.664" rx="4.16661" fill="#1071AF"/>
<path fill-rule="evenodd" clip-rule="evenodd" d="M64.6843 37.5722L60.6935 48.7157H59.3047C57.6171 48.7157 56.2491 50.1047 56.2491 51.8182V62.677C56.2491 64.3905 57.6171 65.7795 59.3047 65.7795H60.0685V71.2089C60.0685 72.9224 61.4365 74.3114 63.124 74.3114H65.4157C67.1032 74.3114 68.4712 72.9224 68.4712 71.2089V65.7795H89.8598V71.2089C89.8598 72.9224 91.2278 74.3114 92.9153 74.3114H95.2069C96.8944 74.3114 98.2624 72.9224 98.2624 71.2089V65.7795H99.0263C100.714 65.7795 102.082 64.3905 102.082 62.677V51.8182C102.082 50.1047 100.714 48.7157 99.0263 48.7157H97.6374L93.6467 37.5722C93.2076 36.3461 92.06 35.53 90.7751 35.53H67.5558C66.271 35.53 65.1234 36.3461 64.6843 37.5722ZM68.0909 39.4081L64.7576 48.7157H93.5734L90.2401 39.4081H68.0909ZM68.4712 57.2476C68.4712 58.9611 67.1032 60.3501 65.4157 60.3501C63.7282 60.3501 62.3602 58.9611 62.3602 57.2476C62.3602 55.5341 63.7282 54.1451 65.4157 54.1451C67.1032 54.1451 68.4712 55.5341 68.4712 57.2476ZM92.9153 60.3501C94.6028 60.3501 95.9708 58.9611 95.9708 57.2476C95.9708 55.5341 94.6028 54.1451 92.9153 54.1451C91.2278 54.1451 89.8598 55.5341 89.8598 57.2476C89.8598 58.9611 91.2278 60.3501 92.9153 60.3501Z" fill="white"/>
<path d="M122.915 23.0291H139.581V48.0287H122.915V23.0291Z" fill="white"/>
<path d="M122.915 56.3635H139.581V81.3631H122.915V56.3635Z" fill="white"/>
<path d="M143.748 77.197H158.332V95.9476H143.748V77.197Z" fill="white"/>
<path d="M116.665 16.7815V95.947H158.331" stroke="white" stroke-width="2.0833"/>
<path fill-rule="evenodd" clip-rule="evenodd" d="M79.9781 123.547C79.9781 120.969 77.8891 118.864 75.3258 118.864C72.763 118.864 70.673 120.968 70.6736 123.547C70.6736 126.126 72.763 128.231 75.3258 128.231C77.8886 128.231 79.9781 126.128 79.9781 123.547ZM84.1945 154.477C84.3482 155.265 85.3464 157.755 86.3447 160.244C87.3429 162.734 88.3412 165.224 88.4948 166.012C90.1357 170.174 85.6623 172.172 83.5842 167.489C83.4693 167.187 83.3557 166.887 83.2425 166.589C82.0633 163.48 80.9284 160.487 78.8744 155.744C77.6709 154.592 76.4806 153.439 75.2902 152.286C74.0891 151.122 72.8879 149.958 71.6728 148.795C69.9648 147.216 69.9267 146.591 69.9218 144.214L70.35 134.375C68.9208 135.262 67.9158 135.92 67.054 136.485L67.0539 136.485L67.0539 136.485L67.0538 136.485C66.2275 137.027 65.5329 137.482 64.7221 137.969C64.6918 138.205 64.5152 140.326 64.3594 142.196C64.239 143.641 64.1311 144.937 64.1128 145.097C63.7582 148.918 59.9947 148.322 60.0983 144.981C60.1654 142.684 60.4178 140.227 60.6614 137.855C60.7515 136.978 60.8404 136.113 60.9182 135.272C64.7178 132.681 67.3096 130.926 71.3397 128.688C77.3007 130.607 77.7284 131.78 77.3684 136.156C77.3861 138.864 77.3199 141.086 77.2654 142.919V142.919V142.919V142.919C77.2152 144.606 77.1748 145.964 77.2185 147.067C78.753 148.464 80.288 149.861 81.823 151.257C82.9308 152.251 83.6513 153.343 84.1945 154.477ZM78.4863 141.467V141.467C78.5358 140.38 78.5852 139.295 78.6397 138.726C79.8402 139.745 80.6341 140.391 81.4313 141.04C82.2803 141.731 83.1331 142.425 84.4847 143.576C87.7083 145.962 85.2444 149.57 81.8005 146.877L78.3308 144.238C78.3864 143.664 78.4364 142.564 78.4863 141.467ZM71.0986 150.306L71.0986 150.306C71.6413 150.794 72.1839 151.282 72.8809 151.979C71.4617 154.292 69.6596 157.08 67.8578 159.868C66.0581 162.652 64.2587 165.436 62.841 167.746C60.348 171.224 56.7895 167.811 59.0552 164.77C61.9926 160.016 66.1857 153.393 69.3154 148.632C70.0129 149.33 70.5558 149.818 71.0986 150.306ZM128.06 144.448L134.929 130.037C136.536 126.824 140.549 128.653 139.121 131.93C137.753 134.63 136.385 137.333 135.017 140.036C134.159 141.378 133.828 142.857 134.661 144.628C135.85 146.939 137.04 149.252 138.229 151.564C139.167 153.431 139.049 154.872 137.873 155.886C136.167 156.957 134.461 158.029 132.755 159.101L132.735 159.114L132.715 159.127L129.846 160.929L128.673 163.186L128.613 163.302C127.745 164.973 126.877 166.644 126.01 168.314C124.334 171.666 121.074 170.296 122.173 167.324C123.102 165.09 124.03 162.855 124.958 160.621L125.652 158.949C126.099 158.026 126.623 157.132 127.704 156.426C128.4 155.918 129.098 155.412 129.796 154.904L129.933 154.805C130.763 154.074 130.851 153.023 130.2 151.652C129.824 151.124 129.447 150.595 129.07 150.067L128.595 149.401C127.256 147.856 127.077 146.205 128.06 144.448ZM121.887 138.868C122.347 141.554 126.99 143.056 128.591 139.546C129.056 139.457 130.141 134.876 129.771 135.031C129.531 132.252 124.652 130.958 122.828 133.833C121.697 135.566 121.569 137.013 121.887 138.868ZM135.686 159.847C136.868 158.899 137.737 158.304 138.994 157.471C139.382 158.132 139.656 158.63 139.917 159.106L139.917 159.106L139.917 159.106C140.261 159.733 140.584 160.32 141.117 161.19C142.134 161.071 142.53 161.026 143.683 160.902C146.731 160.497 147.236 164.088 144.254 164.603C143.746 164.698 143.294 164.786 142.886 164.865L142.885 164.865L142.885 164.865L142.885 164.865L142.885 164.865C141.96 165.045 141.257 165.181 140.614 165.259C139.073 165.444 138.542 164.582 137.954 163.627C137.813 163.399 137.67 163.166 137.508 162.941C137.073 162.195 136.841 161.804 136.614 161.423L136.614 161.423C136.375 161.022 136.143 160.631 135.686 159.847ZM125.74 147.642C125.986 148.236 126.217 148.799 126.447 149.361L126.447 149.362C126.696 149.971 126.945 150.578 127.213 151.222C126.416 151.539 125.636 151.89 124.856 152.241L124.856 152.242L124.856 152.242L124.856 152.242C124.086 152.588 123.316 152.935 122.529 153.249C121.08 153.856 120.189 153.45 119.25 151.829C118.94 151.256 118.631 150.682 118.321 150.108L118.32 150.107L118.32 150.107C117.828 149.195 117.336 148.284 116.843 147.373C115.55 145.38 118.448 143.42 120.055 145.616C120.467 146.168 120.78 146.805 121.092 147.441C121.404 148.076 121.716 148.712 122.127 149.263C122.696 149.026 123.315 148.74 123.933 148.453L123.934 148.453C124.552 148.166 125.171 147.879 125.74 147.642ZM109.648 165.376C109.648 162.74 107.531 160.59 104.934 160.59C102.338 160.59 100.22 162.74 100.22 165.376C100.22 168.012 102.338 170.161 104.934 170.161C107.531 170.161 109.648 168.012 109.648 165.376Z" fill="white"/>
<path fill-rule="evenodd" clip-rule="evenodd" d="M158.331 24.0442L46.7499 183.446H45.8327C43.5315 183.446 41.6661 181.58 41.6661 179.279V175.174L152.541 16.7815H154.164C156.466 16.7815 158.331 18.647 158.331 20.9481V24.0442Z" fill="#FF0E00"/>
</svg>
