<svg width="200" height="200" viewBox="0 0 200 200" fill="none" xmlns="http://www.w3.org/2000/svg">
<rect y="16.667" width="200" height="166.667" fill="#68696C"/>
<path d="M0 66.667L183.333 100L0 133.334V100V66.667Z" fill="#68696C"/>
<path d="M0 134.611L1.86745 134.287L193.75 100.001L1.86745 65.7155L0 65.3916V68.5632L1.33346 68.7945L175.984 100.001L1.33346 131.208L1.31777 131.211L0 131.439V134.611Z" fill="white"/>
<path d="M0 108.572V125.456L10.2963 131.462L32.3614 127.45L0 108.572Z" fill="white"/>
<path d="M94.5318 116.146L72.4666 120.158L37.91 100L72.4654 79.8428L94.5306 83.8546L66.8526 100L94.5318 116.146Z" fill="white"/>
<path d="M158.063 104.595L135.998 108.607L121.243 100L135.997 91.3939L158.062 95.4058L183.519 100L158.063 104.595Z" fill="white"/>
<path d="M10.2951 68.5391L32.3603 72.5509L0 91.4277V74.5446L10.2951 68.5391Z" fill="white"/>
</svg>
