<svg width="200" height="201" viewBox="0 0 200 201" fill="none" xmlns="http://www.w3.org/2000/svg">
<rect x="0.520833" y="-0.520833" width="196.875" height="96.875" rx="8.85417" transform="matrix(-1 0 0 1 198.958 52.416)" fill="white" stroke="#13141A" stroke-width="1.04167"/>
<path d="M193.75 60.7487C193.75 58.4475 191.885 56.582 189.583 56.582H10.4167C8.11549 56.582 6.25 58.4475 6.25 60.7487V139.915C6.25 142.217 8.11549 144.082 10.4167 144.082H189.583C191.885 144.082 193.75 142.217 193.75 139.915V60.7487Z" fill="#FFE600"/>
<path fill-rule="evenodd" clip-rule="evenodd" d="M40.625 100.332H50L35.4167 79.499L20.8333 100.332H30.2083V121.166H40.625V100.332Z" fill="#05081B"/>
<path d="M67.981 84.486C67.981 80.6848 69.0376 77.8694 71.1508 76.0397C72.9161 74.5193 75.0679 73.759 77.6063 73.759C80.4281 73.759 82.7346 74.6868 84.5256 76.5422C86.3167 78.3848 87.2122 80.9361 87.2122 84.196C87.2122 86.8375 86.8128 88.9185 86.0139 90.4389C85.2279 91.9465 84.0747 93.119 82.5542 93.9566C81.0466 94.7941 79.3973 95.2129 77.6063 95.2129C74.7329 95.2129 72.4071 94.2916 70.6289 92.449C68.8637 90.6064 67.981 87.9521 67.981 84.486ZM71.5567 84.486C71.5567 87.1145 72.1301 89.086 73.2769 90.4003C74.4236 91.7017 75.8668 92.3524 77.6063 92.3524C79.3329 92.3524 80.7696 91.6952 81.9164 90.3809C83.0632 89.0667 83.6366 87.063 83.6366 84.37C83.6366 81.8316 83.0567 79.9117 81.8971 78.6103C80.7503 77.296 79.32 76.6389 77.6063 76.6389C75.8668 76.6389 74.4236 77.2896 73.2769 78.591C72.1301 79.8924 71.5567 81.8574 71.5567 84.486ZM106.347 65.738L109.42 65.7767C109.278 67.1554 108.969 68.1153 108.492 68.6565C108.028 69.1977 107.423 69.5456 106.675 69.7002C105.941 69.8548 104.491 69.9321 102.327 69.9321C99.4531 69.9321 97.4946 70.2092 96.4509 70.7632C95.4072 71.3173 94.6534 72.2064 94.1895 73.4305C93.7386 74.6417 93.4873 76.2072 93.4358 78.1271C94.3119 76.8257 95.3363 75.8529 96.5089 75.2086C97.6814 74.5515 99.0022 74.2229 100.471 74.2229C103.164 74.2229 105.393 75.1506 107.158 77.0061C108.924 78.8487 109.806 81.3484 109.806 84.5053C109.806 86.9019 109.362 88.8669 108.473 90.4003C107.584 91.9336 106.527 93.119 105.303 93.9566C104.092 94.7941 102.436 95.2129 100.336 95.2129C97.9005 95.2129 96.0064 94.6588 94.6534 93.5507C93.3005 92.4297 92.2632 90.9994 91.5416 89.2599C90.8201 87.5204 90.4593 84.4924 90.4593 80.1759C90.4593 74.7512 91.3741 71.0982 93.2038 69.217C95.0464 67.3358 97.8747 66.3951 101.689 66.3951C104.06 66.3951 105.406 66.3565 105.728 66.2792C106.05 66.2019 106.257 66.0215 106.347 65.738ZM106.173 84.4087C106.173 82.2697 105.664 80.5173 104.646 79.1515C103.641 77.7857 102.217 77.1027 100.374 77.1027C98.4545 77.1027 96.9727 77.8243 95.929 79.2675C94.8853 80.7106 94.3635 82.6369 94.3635 85.0465C94.3635 87.4302 94.9369 89.2535 96.0837 90.5162C97.2433 91.779 98.6671 92.4104 100.355 92.4104C102.082 92.4104 103.48 91.6823 104.549 90.2263C105.632 88.7574 106.173 86.8182 106.173 84.4087ZM113.788 70.1641V66.1246H117.518V69.3136C117.518 71.0403 117.318 72.2837 116.919 73.0439C116.365 74.0876 115.502 74.8736 114.329 75.4019L113.479 74.0296C114.174 73.7461 114.69 73.3016 115.025 72.696C115.373 72.0775 115.566 71.2335 115.605 70.1641H113.788ZM124.032 94.749V74.2229H127.511V94.749H124.032ZM120.379 70.2027V66.2405H124.012V70.2027H120.379ZM127.588 70.2027V66.2405H131.222V70.2027H127.588ZM138.373 85.4717V82.7465C139.842 82.7336 140.84 82.6756 141.369 82.5725C141.91 82.4694 142.419 82.1602 142.896 81.6448C143.372 81.1294 143.611 80.4851 143.611 79.712C143.611 78.7714 143.295 78.024 142.664 77.47C142.045 76.903 141.24 76.6195 140.248 76.6195C138.289 76.6195 136.917 77.7728 136.131 80.0792L132.826 79.538C133.857 75.6854 136.343 73.759 140.286 73.759C142.477 73.759 144.191 74.3582 145.428 75.5565C146.677 76.7548 147.302 78.1851 147.302 79.8473C147.302 81.5224 146.491 82.856 144.867 83.8481C145.898 84.4022 146.671 85.1109 147.186 85.9742C147.702 86.8246 147.959 87.8361 147.959 89.0087C147.959 90.8513 147.289 92.3459 145.949 93.4927C144.609 94.6395 142.735 95.2129 140.325 95.2129C135.648 95.2129 132.935 93.1319 132.188 88.97L135.454 88.2742C135.751 89.5885 136.35 90.6064 137.252 91.328C138.167 92.0496 139.21 92.4104 140.383 92.4104C141.556 92.4104 142.528 92.0818 143.301 91.4246C144.087 90.7546 144.48 89.9042 144.48 88.8734C144.48 88.0745 144.236 87.3787 143.746 86.786C143.256 86.1933 142.735 85.826 142.18 85.6843C141.626 85.5297 140.621 85.4524 139.165 85.4524C139.049 85.4524 138.785 85.4588 138.373 85.4717ZM153.854 74.2229H168.157V91.8885H170.38V100.567H167.519V94.749H151.361V100.567H148.501V91.8885H150.337C152.785 88.5641 153.958 82.6756 153.854 74.2229ZM156.754 77.1027C156.496 83.7644 155.465 88.693 153.661 91.8885H164.697V77.1027H156.754Z" fill="black"/>
<path d="M82.5929 134.332V131.742C81.2915 133.778 79.378 134.796 76.8525 134.796C75.2161 134.796 73.7085 134.345 72.3298 133.443C70.964 132.541 69.9009 131.285 69.1407 129.674C68.3934 128.05 68.0197 126.189 68.0197 124.088C68.0197 122.04 68.3612 120.184 69.0441 118.522C69.727 116.847 70.7514 115.565 72.1172 114.676C73.483 113.787 75.0099 113.342 76.6979 113.342C77.9349 113.342 79.0365 113.606 80.0029 114.134C80.9693 114.65 81.7553 115.326 82.3609 116.164V105.997H85.8206V134.332H82.5929ZM71.5953 124.088C71.5953 126.717 72.1494 128.682 73.2575 129.983C74.3657 131.285 75.6735 131.935 77.1811 131.935C78.7015 131.935 79.99 131.317 81.0466 130.08C82.1161 128.83 82.6508 126.929 82.6508 124.378C82.6508 121.569 82.1097 119.508 81.0273 118.193C79.9449 116.879 78.6113 116.222 77.0264 116.222C75.4802 116.222 74.1853 116.853 73.1416 118.116C72.1107 119.379 71.5953 121.37 71.5953 124.088ZM105.361 127.722L108.956 128.166C108.389 130.267 107.339 131.897 105.806 133.056C104.272 134.216 102.314 134.796 99.9299 134.796C96.9276 134.796 94.5439 133.875 92.7786 132.032C91.0262 130.177 90.15 127.58 90.15 124.243C90.15 120.79 91.0391 118.11 92.8173 116.203C94.5954 114.296 96.9019 113.342 99.7366 113.342C102.481 113.342 104.723 114.276 106.463 116.145C108.202 118.013 109.072 120.642 109.072 124.03C109.072 124.236 109.066 124.546 109.053 124.958H93.745C93.8738 127.213 94.5117 128.94 95.6584 130.138C96.8052 131.336 98.2355 131.935 99.9492 131.935C101.225 131.935 102.314 131.6 103.216 130.93C104.118 130.26 104.833 129.191 105.361 127.722ZM93.9383 122.098H105.4C105.245 120.371 104.807 119.076 104.085 118.213C102.977 116.873 101.541 116.203 99.7753 116.203C98.1775 116.203 96.831 116.737 95.7358 117.807C94.6534 118.876 94.0542 120.306 93.9383 122.098ZM120.939 131.22L121.442 134.293C120.462 134.5 119.586 134.603 118.813 134.603C117.55 134.603 116.571 134.403 115.875 134.003C115.18 133.604 114.69 133.082 114.406 132.438C114.123 131.781 113.981 130.408 113.981 128.321V116.512H111.43V113.806H113.981V108.723L117.441 106.635V113.806H120.939V116.512H117.441V128.514C117.441 129.507 117.499 130.144 117.615 130.428C117.744 130.711 117.943 130.937 118.214 131.104C118.497 131.272 118.897 131.356 119.412 131.356C119.799 131.356 120.308 131.31 120.939 131.22ZM123.065 124.069C123.065 120.268 124.122 117.452 126.235 115.623C128 114.102 130.152 113.342 132.691 113.342C135.512 113.342 137.819 114.27 139.61 116.125C141.401 117.968 142.296 120.519 142.296 123.779C142.296 126.421 141.897 128.501 141.098 130.022C140.312 131.53 139.159 132.702 137.638 133.54C136.131 134.377 134.482 134.796 132.691 134.796C129.817 134.796 127.491 133.875 125.713 132.032C123.948 130.189 123.065 127.535 123.065 124.069ZM126.641 124.069C126.641 126.698 127.214 128.669 128.361 129.983C129.508 131.285 130.951 131.935 132.691 131.935C134.417 131.935 135.854 131.278 137.001 129.964C138.147 128.65 138.721 126.646 138.721 123.953C138.721 121.415 138.141 119.495 136.981 118.193C135.835 116.879 134.404 116.222 132.691 116.222C130.951 116.222 129.508 116.873 128.361 118.174C127.214 119.475 126.641 121.44 126.641 124.069ZM159.846 134.332V131.317C158.248 133.636 156.077 134.796 153.333 134.796C152.121 134.796 150.988 134.564 149.931 134.1C148.887 133.636 148.108 133.056 147.592 132.361C147.09 131.652 146.735 130.789 146.529 129.771C146.387 129.088 146.317 128.005 146.317 126.524V113.806H149.796V125.19C149.796 127.007 149.866 128.231 150.008 128.862C150.227 129.777 150.691 130.499 151.4 131.027C152.109 131.542 152.985 131.8 154.028 131.8C155.072 131.8 156.051 131.536 156.966 131.008C157.881 130.466 158.525 129.738 158.899 128.824C159.286 127.896 159.479 126.556 159.479 124.803V113.806H162.958V134.332H159.846ZM168.389 134.332V113.806H171.52V116.918C172.319 115.462 173.053 114.502 173.723 114.038C174.406 113.574 175.154 113.342 175.965 113.342C177.138 113.342 178.33 113.716 179.541 114.463L178.343 117.691C177.492 117.188 176.642 116.937 175.792 116.937C175.031 116.937 174.348 117.169 173.743 117.633C173.137 118.084 172.706 118.715 172.448 119.527C172.061 120.764 171.868 122.117 171.868 123.586V134.332H168.389Z" fill="black"/>
</svg>
