<svg width="200" height="201" viewBox="0 0 200 201" fill="none" xmlns="http://www.w3.org/2000/svg">
<rect x="1.56254" y="147.02" width="92.7084" height="196.875" rx="8.85417" transform="rotate(-90 1.56254 147.02)" fill="white" stroke="#13141A" stroke-width="1.04167"/>
<rect x="6.77083" y="141.811" width="82.2917" height="186.458" rx="3.64583" transform="rotate(-90 6.77083 141.811)" stroke="black" stroke-width="1.04167"/>
<path d="M6.25 129.832H193.75V138.165C193.75 140.467 191.885 142.332 189.583 142.332H10.4167C8.11548 142.332 6.25 140.467 6.25 138.165V129.832Z" fill="black"/>
<path d="M104.167 117.332H193.75V129.832H104.167V117.332Z" fill="black"/>
<path fill-rule="evenodd" clip-rule="evenodd" d="M27.5842 92.6666L32.8352 78.2997C33.413 76.7189 34.923 75.6666 36.6136 75.6666H69.5102C71.2008 75.6666 72.7108 76.7189 73.2886 78.2997L78.5396 92.6666H79.2022C81.4226 92.6666 83.2226 94.4575 83.2226 96.6666V110.667C83.2226 112.796 81.5507 114.536 79.4419 114.66H26.6973C24.5885 114.536 22.9166 112.796 22.9166 110.667V96.6666C22.9166 94.4575 24.7166 92.6666 26.937 92.6666H27.5842ZM32.9317 92.6666L37.3176 80.6666H68.8062L73.1921 92.6666H32.9317Z" fill="black"/>
<path d="M29.0204 116.583V123.75C29.0204 125.959 30.8204 127.75 33.0408 127.75H33.9727C36.1931 127.75 37.9931 125.959 37.9931 123.75V116.583H29.0204Z" fill="black"/>
<path d="M68.1461 116.583V123.75C68.1461 125.959 69.9461 127.75 72.1665 127.75H73.0985C75.3189 127.75 77.1189 125.959 77.1189 123.75V116.583H68.1461Z" fill="black"/>
</svg>
