<svg width="200" height="201" viewBox="0 0 200 201" fill="none" xmlns="http://www.w3.org/2000/svg">
<rect x="36.9792" y="12.6466" width="126.042" height="176.042" rx="8.85417" fill="white" stroke="#13141A" stroke-width="1.04167"/>
<rect x="41.6667" y="17.3325" width="116.667" height="166.667" rx="4.16667" fill="#1071AF"/>
<rect x="50" y="34" width="100" height="100" rx="4.16667" fill="white"/>
<path d="M114.374 46.5009C112.828 46.5218 111.308 47.7524 111.429 48.7702L113.906 66.9679C115.192 66.7611 116.137 68.8107 116.694 70.9698C118.404 77.5617 110.092 83.0846 106.782 89.2322C103.511 95.3081 103.821 100.138 92.2817 105.902C90.0102 106.266 89.7095 105.87 89.114 104.932L73.6762 114.877C86.1103 128.1 105.937 121.129 121.685 97.4787C137.43 73.8251 132.71 50.7735 115.022 46.574C114.805 46.5154 114.593 46.4952 114.374 46.5009ZM106.283 47.0802C103.305 47.1542 101.216 49.6196 101.587 52.6151L102.717 61.8163C103.088 64.8118 105.796 67.172 108.773 67.1011L110.474 67.0569C111.467 67.0344 112.164 66.2201 112.042 65.2215L109.999 48.7816C109.873 47.7832 108.977 47.0166 107.981 47.0393L106.283 47.0802ZM82.3087 98.0385C81.2118 98.0252 80.0969 98.3045 79.1273 98.8916L71.207 103.711C68.6199 105.274 67.9719 108.466 69.7618 110.844L70.755 112.186C71.3528 112.979 72.5419 113.18 73.4033 112.66L87.5829 104.088C88.4438 103.565 88.6704 102.503 88.0759 101.709L87.0553 100.368C85.9306 98.8819 84.1376 98.0584 82.3087 98.0385Z" fill="black"/>
</svg>
