<svg width="200" height="201" viewBox="0 0 200 201" fill="none" xmlns="http://www.w3.org/2000/svg">
<circle cx="100" cy="100.665" r="82.8125" fill="white" stroke="#05081B" stroke-width="1.04167"/>
<circle cx="99.9999" cy="100.665" r="78.125" fill="#1071AF"/>
<path d="M100.944 156.917C125.736 156.917 145.834 131.821 145.834 100.863C145.834 69.9057 125.736 44.8096 100.944 44.8096C76.1526 44.8096 56.0548 69.9057 56.0548 100.863C56.0548 131.821 76.1526 156.917 100.944 156.917Z" fill="white" stroke="#1F1A17" stroke-width="4.98163"/>
<path d="M112.134 124.083C116.38 124.083 119.822 113.096 119.822 99.5433C119.822 85.9906 116.38 75.0039 112.134 75.0039C107.888 75.0039 104.447 85.9906 104.447 99.5433C104.447 113.096 107.888 124.083 112.134 124.083Z" fill="#1F1A17" stroke="#1F1A17" stroke-width="3.32109"/>
<path d="M112.795 47.5195C113.606 47.5195 113.14 47.9857 113.939 48.0709C127.726 49.5535 145.591 73.1884 145.591 100.275C145.591 122.884 140.812 137.341 120.453 149.579C117.556 151.32 114.661 152.514 111.533 152.514C96.7104 152.514 84.6894 129.276 84.6894 100.623C84.6894 71.9691 97.9726 47.5195 112.795 47.5195Z" stroke="#1F1A17" stroke-width="1.66054"/>
<path d="M56.0079 102.697C57.541 102.127 59.3084 102.967 59.9552 104.573C60.6026 106.18 59.8849 107.944 58.3518 108.514C56.8186 109.084 55.0513 108.243 54.4044 106.638C53.7576 105.032 54.4748 103.267 56.0079 102.697Z" fill="white" stroke="#1F1A17" stroke-width="1.66054"/>
<path d="M93.7941 61.1892C95.0291 61.4495 95.791 62.7101 95.4952 64.0044C95.1988 65.2986 93.9574 66.1365 92.723 65.8761C91.488 65.6158 90.7261 64.3552 91.0225 63.0609C91.3183 61.7667 92.5591 60.9283 93.7941 61.1892Z" fill="white" stroke="#1F1A17" stroke-width="1.66054"/>
<path d="M102.235 66.7562C104.482 68.4979 105.293 70.2343 104.048 70.6338C102.802 71.0332 99.9716 69.945 97.7256 68.2033C95.4791 66.4617 94.6667 64.7252 95.9126 64.3258C97.1585 63.9263 99.989 65.0145 102.235 66.7562Z" fill="white" stroke="#1F1A17" stroke-width="1.66054"/>
<path d="M112.88 50.0384C114.489 51.7082 115.885 54.9109 115.998 57.1912C116.112 59.4721 114.901 59.9678 113.293 58.298C111.685 56.6282 110.289 53.4261 110.175 51.1452C110.061 48.8644 111.272 48.3687 112.88 50.0384Z" fill="white" stroke="#1F1A17" stroke-width="1.66054"/>
<path d="M92.6307 52.7309C93.9596 55.6762 94.3588 59.0813 93.5203 60.3365C92.6829 61.5917 90.9257 60.2223 89.5967 57.2776C88.2672 54.3323 87.8685 50.9272 88.7065 49.672C89.5444 48.4162 91.3005 49.7862 92.6307 52.7309Z" fill="white" stroke="#1F1A17" stroke-width="1.66054"/>
<path d="M90.1771 44.5661C91.3197 45.0178 91.7533 46.348 91.1454 47.5372C90.5369 48.7265 89.1177 49.3243 87.9751 48.8721C86.8319 48.4204 86.3984 47.0902 87.0068 45.9009C87.6148 44.7116 89.034 44.1138 90.1771 44.5661Z" fill="white" stroke="#1F1A17" stroke-width="1.66054"/>
<path d="M99.7413 45.1627C103.658 45.3575 106.567 46.4516 106.239 47.6053C105.911 48.7597 102.469 49.5366 98.5512 49.3418C94.6334 49.147 91.7256 48.0529 92.0539 46.8992C92.3828 45.7448 95.8247 44.9679 99.7413 45.1627Z" fill="white" stroke="#1F1A17" stroke-width="1.66054"/>
<path d="M138.715 81.773C140.169 81.1056 141.921 81.3903 142.627 82.4085C143.334 83.4268 142.728 84.7935 141.274 85.4603C139.82 86.1277 138.068 85.843 137.362 84.8248C136.655 83.806 137.261 82.4398 138.715 81.773Z" stroke="#1F1A17" stroke-width="1.66054"/>
<path d="M141.72 103.804C143.364 103.804 144.696 102.851 144.696 101.676C144.696 100.501 143.364 99.5488 141.72 99.5488C140.077 99.5488 138.745 100.501 138.745 101.676C138.745 102.851 140.077 103.804 141.72 103.804Z" stroke="#1F1A17" stroke-width="1.66054"/>
<path d="M141.048 117.759C142.266 118.577 142.422 119.918 141.398 120.754C140.373 121.59 138.556 121.605 137.339 120.788C136.122 119.971 135.965 118.63 136.989 117.794C138.013 116.957 139.831 116.942 141.048 117.759Z" fill="white" stroke="#1F1A17" stroke-width="1.66054"/>
<path d="M132.096 134.612C133.173 135.586 133.453 137.249 132.721 138.326C131.989 139.404 130.523 139.489 129.446 138.515C128.368 137.541 128.089 135.878 128.82 134.801C129.552 133.723 131.018 133.638 132.096 134.612Z" stroke="#1F1A17" stroke-width="1.66054"/>
<path d="M132.167 67.0236C133.429 67.0236 134.453 66.2399 134.453 65.273C134.453 64.3062 133.429 63.5225 132.167 63.5225C130.905 63.5225 129.882 64.3062 129.882 65.273C129.882 66.2399 130.905 67.0236 132.167 67.0236Z" stroke="#1F1A17" stroke-width="1.66054"/>
<path d="M118.917 140.602C129.592 140.602 138.246 122.266 138.246 99.6463C138.246 77.027 129.592 58.6904 118.917 58.6904C108.242 58.6904 99.5877 77.027 99.5877 99.6463C99.5877 122.266 108.242 140.602 118.917 140.602Z" stroke="#1F1A17" stroke-width="3.32109"/>
<path d="M64.1992 66.9557C65.6644 67.2648 66.5681 68.7602 66.217 70.2962C65.866 71.8323 64.3933 72.8267 62.9288 72.5177C61.4637 72.2086 60.5599 70.7132 60.9098 69.1771C61.2608 67.6411 62.7329 66.6467 64.1992 66.9557Z" fill="white" stroke="#1F1A17" stroke-width="1.66054"/>
<path d="M108.912 46.3222C110.004 46.5524 110.677 47.6675 110.416 48.8121C110.154 49.9573 109.056 50.6984 107.964 50.4682C106.872 50.238 106.198 49.1229 106.46 47.9777C106.721 46.8325 107.819 46.092 108.912 46.3222Z" fill="white" stroke="#1F1A17" stroke-width="1.66054"/>
<path d="M86.099 62.2447C82.7659 62.4667 79.435 63.6947 78.6604 64.9876C77.8864 66.2799 79.9603 67.1479 83.2947 66.9252C86.6267 66.7032 89.9575 65.4752 90.7322 64.1823C91.5068 62.8894 89.4322 62.0226 86.099 62.2447Z" fill="white" stroke="#1F1A17" stroke-width="1.66054"/>
<path d="M73.7842 64.3718C70.4458 64.508 67.0829 65.6502 66.2723 66.9216C65.4611 68.1937 67.5118 69.1144 70.8496 68.9781C74.1881 68.8419 77.5509 67.6997 78.3615 66.4282C79.1716 65.1562 77.122 64.2355 73.7842 64.3718Z" fill="white" stroke="#1F1A17" stroke-width="1.66054"/>
<path d="M70.4848 73.1222C73.0963 75.1248 75.1098 77.953 74.982 79.4395C74.8547 80.9261 72.6355 80.5075 70.024 78.5049C67.4126 76.5024 65.3991 73.6742 65.5263 72.1876C65.6536 70.7017 67.8734 71.1197 70.4848 73.1222Z" fill="white" stroke="#1F1A17" stroke-width="1.66054"/>
<path d="M79.5853 81.8387C82.0712 83.9827 83.911 86.9181 83.6948 88.3948C83.4781 89.8715 81.2867 89.3306 78.8008 87.1866C76.3149 85.0425 74.4751 82.1071 74.6913 80.6298C74.9086 79.1531 77.0993 79.6946 79.5853 81.8387Z" fill="white" stroke="#1F1A17" stroke-width="1.66054"/>
<path d="M85.6249 88.1501C86.8599 88.4104 87.6212 89.671 87.3254 90.9653C87.029 92.2595 85.7882 93.0974 84.5532 92.837C83.3182 92.5767 82.5563 91.3161 82.8527 90.0224C83.1485 88.7288 84.3899 87.8891 85.6249 88.1501Z" fill="white" stroke="#1F1A17" stroke-width="1.66054"/>
<path d="M95.1294 91.254C98.05 92.2808 99.4696 93.7088 98.297 94.444C97.1255 95.1797 93.8074 94.9432 90.8862 93.917C87.9656 92.8908 86.546 91.4622 87.7186 90.727C88.8901 89.9913 92.2082 90.2272 95.1294 91.254Z" fill="white" stroke="#1F1A17" stroke-width="1.66054"/>
<path d="M77.1679 91.6416C74.1427 93.0047 71.4987 95.3047 71.2628 96.779C71.0262 98.2529 73.2861 98.3427 76.3113 96.9791C79.3365 95.6154 81.9806 93.3154 82.2165 91.8416C82.453 90.3678 80.1925 90.278 77.1679 91.6416Z" fill="white" stroke="#1F1A17" stroke-width="1.66054"/>
<path d="M66.256 98.0079C63.1941 99.2927 60.4874 101.524 60.2102 102.991C59.9324 104.459 62.1894 104.606 65.2524 103.322C68.3142 102.036 71.021 99.8052 71.2976 98.3378C71.5748 96.8704 69.3178 96.7226 66.256 98.0079Z" fill="white" stroke="#1F1A17" stroke-width="1.66054"/>
<path d="M85.8831 114.658C87.1372 114.505 88.2944 115.446 88.4693 116.761C88.6436 118.075 87.7678 119.265 86.5137 119.418C85.2595 119.572 84.1018 118.631 83.9274 117.316C83.7537 116.001 84.6289 114.812 85.8831 114.658Z" fill="white" stroke="#1F1A17" stroke-width="1.66054"/>
<path d="M96.2481 114.748C99.3553 114.894 101.151 115.852 100.261 116.889C99.3692 117.925 96.1284 118.648 93.0213 118.501C89.9135 118.355 88.118 117.397 89.0094 116.361C89.9002 115.323 93.141 114.602 96.2481 114.748Z" fill="white" stroke="#1F1A17" stroke-width="1.66054"/>
<path d="M64.5346 107.947C67.78 108.71 70.8442 110.465 71.3782 111.865C71.9128 113.266 69.7151 113.782 66.4702 113.017C63.2248 112.255 60.1607 110.5 59.626 109.1C59.092 107.7 61.2892 107.183 64.5346 107.947Z" fill="white" stroke="#1F1A17" stroke-width="1.66054"/>
<path d="M76.6051 112.185C79.7982 113.127 82.7519 115.049 83.2017 116.477C83.6509 117.904 81.4259 118.297 78.2316 117.355C75.0378 116.412 72.0847 114.491 71.6343 113.063C71.1863 111.636 73.4113 111.242 76.6051 112.185Z" fill="white" stroke="#1F1A17" stroke-width="1.66054"/>
<path d="M67.4256 140.707C68.484 139.5 70.4547 139.419 71.8257 140.528C73.1973 141.637 73.4512 143.516 72.3935 144.723C71.3352 145.932 69.365 146.012 67.9935 144.903C66.6219 143.793 66.3668 141.915 67.4256 140.707Z" fill="white" stroke="#1F1A17" stroke-width="1.66054"/>
<path d="M80.4447 121.897C78.4748 124.49 77.3091 127.729 77.8403 129.13C78.3702 130.531 80.3965 129.565 82.3664 126.972C84.3364 124.38 85.5021 121.141 84.9715 119.739C84.441 118.338 82.4147 119.304 80.4447 121.897Z" fill="white" stroke="#1F1A17" stroke-width="1.66054"/>
<path d="M74.0629 132.522C72.021 135.063 70.7646 138.27 71.2568 139.685C71.7478 141.099 73.8009 140.186 75.8423 137.645C77.8837 135.104 79.14 131.896 78.6484 130.482C78.1568 129.068 76.1044 129.981 74.0629 132.522Z" fill="white" stroke="#1F1A17" stroke-width="1.66054"/>
<path d="M96.3694 142.789C97.5643 142.391 98.8993 143.085 99.3508 144.336C99.8024 145.588 99.2003 146.926 98.006 147.323C96.8111 147.721 95.4762 147.028 95.0246 145.776C94.573 144.526 95.1751 143.188 96.3694 142.789Z" fill="white" stroke="#1F1A17" stroke-width="1.66054"/>
<path d="M92.4253 153.196C92.5938 150.953 93.7851 148.543 95.0856 147.812C96.3861 147.081 97.3036 148.307 97.1351 150.552C96.9672 152.795 95.7753 155.205 94.4748 155.936C93.1743 156.665 92.2568 155.439 92.4253 153.196Z" stroke="#1F1A17" stroke-width="1.66054"/>
<path d="M90.5056 142.534C87.786 142.016 84.8317 142.433 83.9072 143.465C82.9821 144.495 84.436 145.752 87.155 146.271C89.8745 146.788 92.8288 146.372 93.7534 145.34C94.6791 144.309 93.2246 143.053 90.5056 142.534Z" fill="white" stroke="#1F1A17" stroke-width="1.66054"/>
<path d="M79.9409 141.916C77.2388 141.374 74.2775 141.673 73.3286 142.582C72.3791 143.493 73.801 144.67 76.5037 145.212C79.2064 145.755 82.1665 145.456 83.116 144.547C84.0644 143.636 82.643 142.459 79.9409 141.916Z" fill="white" stroke="#1F1A17" stroke-width="1.66054"/>
<path d="M104.403 137.371C107.124 135.839 109.283 135.714 109.227 137.091C109.171 138.467 106.919 140.825 104.199 142.357C101.478 143.89 99.3192 144.014 99.3744 142.637C99.4296 141.26 101.682 138.902 104.403 137.371Z" fill="white" stroke="#1F1A17" stroke-width="1.66054"/>
<path d="M115.636 144.043C116.438 141.112 117.875 139.559 118.846 140.573C119.817 141.586 119.956 144.784 119.154 147.713C118.352 150.643 116.914 152.196 115.942 151.183C114.971 150.17 114.834 146.973 115.636 144.043Z" stroke="#1F1A17" stroke-width="1.66054"/>
</svg>
