<svg width="200" height="201" viewBox="0 0 200 201" fill="none" xmlns="http://www.w3.org/2000/svg">
<rect x="30.7287" y="31.3356" width="138.54" height="138.54" rx="8.85404" fill="white" stroke="#13141A" stroke-width="1.04165"/>
<rect x="35.4161" y="36.0225" width="129.165" height="129.165" rx="4.16661" fill="#1071AF"/>
<path fill-rule="evenodd" clip-rule="evenodd" d="M93.4891 60.4487C97.2878 57.1459 97.8565 52.3784 95.2959 49.3775C92.7352 46.3767 87.4513 45.0787 83.6526 48.3815C79.8539 51.6843 79.414 57.9949 81.9746 60.9957C84.5353 63.9962 89.6907 63.7515 93.4891 60.4487ZM98.3646 96.4248V74.3119L109.613 80.3425L111.315 95.6755C111.474 97.0361 112.546 98.1037 113.896 98.2445C115.681 98.4309 117.204 96.9521 117.088 95.1445L116.041 78.1217C115.97 77.0102 115.391 75.9951 114.474 75.375L97.386 63.8163C96.5286 62.9428 95.1202 62.8035 94.1001 63.5957L88.3588 67.3925C86.4162 68.9009 85.278 71.2345 85.278 73.7082V97.5114L77.644 112.123C76.4153 114.474 76.6676 117.326 78.2899 119.426L91.7688 136.869C93.0748 138.559 95.4767 138.928 97.2301 137.708C98.9786 136.492 99.4706 134.121 98.3503 132.309L88.7369 116.764C88.0301 115.621 88.0412 114.174 88.7652 113.043L96.6149 100.771C98.1748 98.598 98.3646 97.8647 98.3646 96.4248ZM81.9232 89.5088V79.1503L66.8866 93.2815C65.6963 94.4001 65.5955 96.2687 66.6586 97.5114C67.6975 98.7257 69.4906 98.921 70.7621 97.9584L81.9232 89.5088ZM76.443 122.5L82.9625 131.193L76.9582 144.917C76.0871 146.908 73.7258 147.763 71.782 146.791C70.0921 145.946 69.2807 143.987 69.8782 142.194L76.443 122.5Z" fill="white"/>
<rect x="137.498" y="123.521" width="27.0829" height="8.33321" fill="white"/>
<rect x="112.498" y="131.854" width="33.3328" height="8.33321" fill="white"/>
<rect x="87.4987" y="140.188" width="33.3328" height="8.33321" fill="white"/>
<rect x="62.4991" y="148.521" width="33.3328" height="8.33321" fill="white"/>
<rect x="35.4161" y="156.854" width="33.3328" height="8.33321" fill="white"/>
</svg>
