<svg width="200" height="200" viewBox="0 0 200 200" fill="none" xmlns="http://www.w3.org/2000/svg">
<rect y="16.666" width="200" height="166.667" fill="#68696C"/>
<rect x="53.6459" y="30.7285" width="92.7083" height="138.542" rx="6.77083" stroke="white" stroke-width="3.125"/>
<rect x="64.5834" y="66.666" width="72.9167" height="72.9167" rx="4.16667" fill="#0D98EF"/>
<path d="M83.1746 77.0117H104.46C107.237 77.0117 109.692 77.5195 111.825 78.535C113.959 79.5505 115.746 80.8816 117.185 82.5284C118.651 84.1477 119.756 85.9729 120.502 88.0039C121.273 90.0349 121.658 92.0797 121.658 94.1381C121.658 96.3064 121.273 98.4335 120.502 100.519C119.756 102.578 118.651 104.417 117.185 106.036C115.72 107.628 113.92 108.918 111.787 109.906C109.653 110.867 107.211 111.347 104.46 111.347H92.2749V129.24H83.1746V77.0117ZM92.2749 103.195H102.532C104.409 103.195 105.977 102.962 107.237 102.496C108.522 102.001 109.55 101.343 110.321 100.519C111.118 99.696 111.684 98.7354 112.018 97.6375C112.378 96.5122 112.558 95.3046 112.558 94.0146C112.558 92.7521 112.339 91.5857 111.902 90.5153C111.465 89.4174 110.823 88.4842 109.974 87.7157C109.126 86.9198 108.072 86.3023 106.812 85.8631C105.578 85.424 104.152 85.2044 102.532 85.2044H92.2749V103.195Z" fill="white"/>
<path d="M70.7774 50.3318H73.1248C75.297 50.3318 76.5699 51.5905 76.5699 53.7087V53.7394C76.5699 55.7501 75.2386 57.0395 73.1949 57.0395C71.0927 57.0395 69.7731 55.965 69.5979 54.0617L69.5862 53.9236H66.6666L66.6783 54.1078C66.8184 57.853 69.376 60.4164 73.1832 60.4164C76.932 60.4164 79.6414 57.6842 79.6414 53.9696V53.9389C79.6414 50.9918 78.2399 48.8736 75.9743 48.5206V48.3978C77.8546 47.8452 79.1275 45.8191 79.1275 43.3632V43.3325C79.1275 39.8789 76.7568 37.4997 73.2416 37.4997C69.6096 37.4997 67.2389 39.8789 67.087 43.7162L67.0754 43.9004H69.9132L69.9366 43.7009C70.1118 41.9203 71.2796 40.8766 73.1598 40.8766C75.0868 40.8766 76.1962 41.9664 76.1962 43.7776V43.8083C76.1962 45.7884 74.97 47.1084 73.0781 47.1084H70.7774V50.3318Z" fill="white"/>
<path d="M90.0411 60.4164C94.9694 60.4164 98.0408 56.0111 98.0408 48.9657V48.935C98.0408 41.905 94.9577 37.4997 90.0411 37.4997C85.1362 37.4997 82.0414 41.905 82.0414 48.935V48.9657C82.0414 56.0111 85.1245 60.4164 90.0411 60.4164ZM90.0411 56.9781C87.0281 56.9781 85.1128 53.8929 85.1128 48.9657V48.935C85.1128 44.0078 87.0398 40.938 90.0411 40.938C93.0542 40.938 94.9694 44.0232 94.9694 48.935V48.9657C94.9694 53.8468 93.0892 56.9781 90.0411 56.9781Z" fill="white"/>
<path d="M101.165 60.0326H104.166V50.4239H112.365V60.0326H115.378V37.8834H112.365V47.0931H104.166V37.8834H101.165V60.0326Z" fill="white"/>
<path d="M117.894 60.0326H121.059L122.484 54.3073H128.744L130.168 60.0326H133.333L127.319 37.8834H123.92L117.894 60.0326ZM125.591 41.8282H125.649L127.985 51.2528H123.243L125.591 41.8282Z" fill="white"/>
</svg>
