<svg width="200" height="201" viewBox="0 0 200 201" fill="none" xmlns="http://www.w3.org/2000/svg">
<rect x="36.9792" y="12.6462" width="126.042" height="176.042" rx="8.85417" fill="white" stroke="#13141A" stroke-width="1.04167"/>
<rect x="41.6667" y="17.334" width="116.667" height="166.667" rx="4.16667" fill="#1071AF"/>
<rect x="50" y="34" width="100" height="100" rx="4.16667" fill="white"/>
<path fill-rule="evenodd" clip-rule="evenodd" d="M106.25 48.1563C106.25 46.0911 107.924 44.417 109.989 44.417H139.904C141.969 44.417 143.643 46.0911 143.643 48.1563V109.428C143.643 111.493 141.969 113.167 139.904 113.167H120.833V70.5923H136.163V51.8958H113.728V59.0002H106.25V48.1563Z" fill="#269E48"/>
<path fill-rule="evenodd" clip-rule="evenodd" d="M87.6078 58.5733C87.6078 56.5081 89.2819 54.834 91.3471 54.834H121.262C123.327 54.834 125.001 56.5081 125.001 58.5733V119.845C125.001 121.91 123.327 123.584 121.262 123.584H91.3471C89.2819 123.584 87.6078 121.91 87.6078 119.845V58.5733ZM95.0854 62.3129H117.521V81.0095H95.0854V62.3129ZM80.1281 62.3129C78.063 62.3129 76.3888 63.9871 76.3888 66.0523V82.0606L57.2865 99.6935C53.9697 102.755 52.0833 107.064 52.0833 111.578V111.859C52.0833 120.636 59.1984 127.751 67.9753 127.751H68.9102C77.1708 127.751 83.8674 121.054 83.8674 112.794V90.3578H87.6068V86.6185H83.8674C81.8023 86.6185 80.1281 88.2927 80.1281 90.3578V112.794C80.1281 118.989 75.1057 124.012 68.9102 124.012H67.9753C61.2636 124.012 55.8226 118.571 55.8226 111.859V111.578C55.8226 108.107 57.2728 104.795 59.8228 102.441L79.5266 84.253L80.1281 83.6978V82.8792V66.0523H87.6068V62.3129H80.1281Z" fill="#5CC1EC"/>
<path d="M70.0746 158.055C69.064 157.628 68.3272 157.044 67.8634 156.303C67.4092 155.551 67.1822 154.732 67.1822 153.842C67.1822 152.322 67.7098 151.066 68.7668 150.073C69.8327 149.082 71.3447 148.586 73.3005 148.586C75.2386 148.586 76.7397 149.082 77.8058 150.073C78.8818 151.065 79.4193 152.322 79.4193 153.842C79.4193 154.788 79.174 155.631 78.682 156.373C78.1904 157.105 77.4998 157.666 76.6099 158.055C77.7409 158.509 78.5986 159.173 79.1826 160.044C79.7761 160.915 80.0733 161.92 80.0733 163.062C80.0733 164.944 79.4706 166.473 78.2654 167.651C77.0698 168.828 75.4742 169.417 73.4808 169.417C71.6265 169.417 70.0829 168.931 68.8501 167.957C67.3945 166.807 66.6667 165.231 66.6667 163.229C66.6667 162.125 66.9403 161.115 67.4874 160.197C68.035 159.269 68.8974 158.555 70.0746 158.055ZM70.8809 154.119C70.8809 154.898 71.0992 155.505 71.5349 155.941C71.98 156.377 72.5683 156.595 73.3012 156.595C74.0424 156.595 74.6367 156.377 75.0811 155.941C75.5261 155.495 75.7485 154.884 75.7485 154.105C75.7485 153.374 75.5261 152.789 75.0811 152.354C74.645 151.908 74.0658 151.686 73.3428 151.686C72.5917 151.686 71.9943 151.908 71.5487 152.354C71.1038 152.798 70.8809 153.386 70.8809 154.119ZM70.5196 162.853C70.5196 163.929 70.7937 164.767 71.3403 165.369C71.8972 165.972 72.5873 166.273 73.4118 166.273C74.2181 166.273 74.8864 165.986 75.4145 165.411C75.9432 164.827 76.2076 163.988 76.2076 162.894C76.2076 161.939 75.9385 161.174 75.4013 160.599C74.8638 160.015 74.1823 159.723 73.3573 159.723C72.4017 159.723 71.6878 160.053 71.2157 160.711C70.7511 161.37 70.5196 162.083 70.5196 162.853ZM89.1821 148.584C91.157 148.584 92.7007 149.289 93.8133 150.698C95.1387 152.367 95.8017 155.134 95.8017 159C95.8017 162.857 95.1348 165.629 93.7993 167.316C92.696 168.706 91.157 169.402 89.1821 169.402C87.1982 169.402 85.5991 168.642 84.3845 167.121C83.1699 165.592 82.5626 162.871 82.5626 158.959C82.5626 155.121 83.2299 152.357 84.5654 150.67C85.6684 149.28 87.2076 148.584 89.1821 148.584ZM89.1821 151.825C88.7095 151.825 88.2877 151.978 87.9169 152.284C87.5458 152.581 87.2585 153.119 87.0547 153.897C86.7859 154.908 86.6512 156.609 86.6512 159.001C86.6512 161.393 86.7719 163.039 87.0129 163.938C87.2546 164.828 87.5559 165.421 87.9169 165.717C88.2877 166.014 88.7095 166.163 89.1821 166.163C89.6552 166.163 90.0769 166.014 90.4478 165.717C90.8189 165.411 91.1059 164.869 91.3099 164.09C91.5788 163.089 91.7132 161.392 91.7132 159C91.7132 156.609 91.5925 154.968 91.3517 154.077C91.1098 153.178 90.8046 152.58 90.4337 152.283C90.0725 151.978 89.6552 151.825 89.1821 151.825ZM105.036 148.584C107.01 148.584 108.554 149.289 109.667 150.698C110.992 152.367 111.655 155.134 111.655 159C111.655 162.857 110.988 165.629 109.653 167.316C108.549 168.706 107.01 169.402 105.036 169.402C103.052 169.402 101.452 168.642 100.238 167.121C99.0235 165.592 98.4162 162.871 98.4162 158.959C98.4162 155.121 99.0832 152.357 100.419 150.67C101.522 149.28 103.06 148.584 105.036 148.584ZM105.036 151.825C104.563 151.825 104.141 151.978 103.77 152.284C103.399 152.581 103.112 153.119 102.908 153.897C102.639 154.908 102.504 156.609 102.504 159.001C102.504 161.393 102.625 163.039 102.866 163.938C103.108 164.828 103.409 165.421 103.77 165.717C104.141 166.014 104.563 166.163 105.036 166.163C105.508 166.163 105.93 166.014 106.301 165.717C106.672 165.411 106.959 164.869 107.163 164.09C107.432 163.089 107.567 161.392 107.567 159C107.567 156.609 107.446 154.968 107.205 154.077C106.964 153.178 106.658 152.58 106.287 152.283C105.926 151.978 105.508 151.825 105.036 151.825ZM115.229 154.286H120.068L123.74 164.577L127.439 154.286H132.264V169.054H128.941V159.334L125.338 169.054H122.002L118.567 159.334V169.054H115.23L115.229 154.286Z" fill="white"/>
</svg>
