<svg width="200" height="201" viewBox="0 0 200 201" fill="none" xmlns="http://www.w3.org/2000/svg">
<rect x="36.9786" y="12.8124" width="126.04" height="176.039" rx="8.85404" fill="white" stroke="#13141A" stroke-width="1.04165"/>
<rect x="41.6661" y="17.4995" width="116.665" height="166.664" rx="4.16661" fill="#1071AF"/>
<path fill-rule="evenodd" clip-rule="evenodd" d="M79.9639 78.5471L74.658 93.3628H72.8114C70.5678 93.3628 68.749 95.2096 68.749 97.4877V111.925C68.749 114.203 70.5678 116.05 72.8114 116.05H73.827V123.269C73.827 125.547 75.6458 127.394 77.8895 127.394H80.9363C83.1799 127.394 84.9987 125.547 84.9987 123.269V116.05H113.436V123.269C113.436 125.547 115.255 127.394 117.498 127.394H120.545C122.789 127.394 124.608 125.547 124.608 123.269V116.05H125.623C127.867 116.05 129.686 114.203 129.686 111.925V97.4877C129.686 95.2096 127.867 93.3628 125.623 93.3628H123.777L118.471 78.5471C117.887 76.9169 116.361 75.8318 114.653 75.8318H83.7817C82.0734 75.8318 80.5477 76.9169 79.9639 78.5471ZM84.4931 80.988L80.0613 93.3628H118.373L113.941 80.988H84.4931ZM84.9987 104.706C84.9987 106.985 83.1799 108.831 80.9363 108.831C78.6927 108.831 76.8738 106.985 76.8738 104.706C76.8738 102.428 78.6927 100.581 80.9363 100.581C83.1799 100.581 84.9987 102.428 84.9987 104.706ZM117.498 108.831C119.742 108.831 121.561 106.985 121.561 104.706C121.561 102.428 119.742 100.581 117.498 100.581C115.255 100.581 113.436 102.428 113.436 104.706C113.436 106.985 115.255 108.831 117.498 108.831Z" fill="white"/>
</svg>
