<svg width="200" height="200" viewBox="0 0 200 200" fill="none" xmlns="http://www.w3.org/2000/svg">
<rect x="0.520833" y="-0.520833" width="126.042" height="176.042" rx="8.85417" transform="matrix(-1 0 0 1 163.542 12.501)" fill="white" stroke="#13141A" stroke-width="1.04167"/>
<rect x="-1.04167" y="1.04167" width="114.583" height="164.583" rx="3.125" transform="matrix(-1 0 0 1 156.25 16.6665)" fill="white" stroke="#13141A" stroke-width="2.08333"/>
<path d="M59.1218 37.3437L54.5769 36.0546C55.5554 31.4629 58.338 29.167 62.925 29.167C65.6393 29.167 67.6855 29.8981 69.0637 31.3603C70.4525 32.8096 71.1468 34.5155 71.1468 36.4779C71.1468 37.8246 70.8312 39.0431 70.2 40.1334C69.5687 41.2107 68.6219 42.1599 67.3594 42.9808C68.8954 43.6221 70.0474 44.5327 70.8154 45.7127C71.5834 46.8799 71.9674 48.3229 71.9674 50.0416C71.9674 52.517 71.2205 54.5179 69.7265 56.0442C68.2431 57.5705 66.018 58.3337 63.0512 58.3337C60.6315 58.3337 58.722 57.8463 57.3228 56.8715C55.9236 55.8839 54.8715 54.0433 54.1666 51.3498L58.4432 49.6375C58.8851 51.3306 59.469 52.4272 60.1949 52.9274C60.9314 53.4277 61.8361 53.6778 62.9092 53.6778C64.3821 53.6778 65.4552 53.293 66.1285 52.5234C66.8018 51.741 67.1385 50.8496 67.1385 49.8492C67.1385 48.6948 66.7545 47.7649 65.9865 47.0595C65.229 46.354 64.0823 46.0013 62.5463 46.0013H61.4889V41.7494H62.0255C63.4563 41.7494 64.5504 41.3583 65.3079 40.5759C66.0654 39.7935 66.4441 38.7545 66.4441 37.4591C66.4441 36.433 66.1338 35.5672 65.5131 34.8618C64.9029 34.1564 64.0244 33.8036 62.8777 33.8036C60.9208 33.8036 59.6689 34.9837 59.1218 37.3437Z" fill="black"/>
<path d="M74.9697 43.9235C74.9697 41.0504 75.3221 38.6391 76.027 36.6895C76.553 35.253 77.2684 33.964 78.1732 32.8224C79.0884 31.6809 80.0879 30.8344 81.1715 30.2829C82.6128 29.539 84.2751 29.167 86.1583 29.167C89.5669 29.167 92.2917 30.456 94.3327 33.0341C96.3842 35.6121 97.41 39.197 97.41 43.7888C97.41 48.3421 96.3947 51.9078 94.3643 54.4858C92.3338 57.051 89.6195 58.3337 86.2214 58.3337C82.7812 58.3337 80.0458 57.0575 78.0154 54.5051C75.9849 51.9398 74.9697 48.4126 74.9697 43.9235ZM79.7828 43.7311C79.7828 46.9248 80.3877 49.3489 81.5976 51.0035C82.8075 52.6453 84.3435 53.4661 86.2056 53.4661C88.0677 53.4661 89.5932 52.6517 90.782 51.0228C91.9814 49.381 92.5811 46.9248 92.5811 43.6541C92.5811 40.4219 91.9972 38.0106 90.8294 36.4202C89.6721 34.8297 88.1309 34.0345 86.2056 34.0345C84.2803 34.0345 82.7286 34.8426 81.5503 36.4587C80.372 38.0619 79.7828 40.4861 79.7828 43.7311Z" fill="black"/>
<path d="M101.359 57.8527V29.648H106.03V40.749H115.183V29.648H119.854V57.8527H115.183V45.5203H106.03V57.8527H101.359Z" fill="black"/>
<path d="M145.833 57.8527H140.752L138.732 51.446H129.484L127.575 57.8527H122.62L131.631 29.648H136.57L145.833 57.8527ZM137.233 46.6939L134.045 36.2278L130.92 46.6939H137.233Z" fill="black"/>
<circle cx="100" cy="118.751" r="43.875" stroke="#FF0E00" stroke-width="8.08333"/>
<path d="M73.9583 127.43L80.9817 126.704C81.1824 128.29 81.776 129.551 82.7626 130.486C83.7493 131.405 84.8864 131.864 86.174 131.864C87.6456 131.864 88.8914 131.271 89.9115 130.086C90.9315 128.883 91.4416 127.08 91.4416 124.675C91.4416 122.42 90.9315 120.734 89.9115 119.615C88.9081 118.479 87.5954 117.911 85.9733 117.911C83.9499 117.911 82.1356 118.805 80.5302 120.592L74.8112 119.765L78.4232 100.652H97.0603V107.24H83.766L82.6623 113.477C84.2342 112.693 85.8396 112.3 87.4784 112.3C90.6054 112.3 93.2559 113.436 95.4299 115.707C97.6038 117.978 98.6907 120.926 98.6907 124.55C98.6907 127.572 97.8128 130.269 96.0569 132.641C93.6656 135.881 90.3463 137.5 86.0988 137.5C82.7041 137.5 79.9366 136.59 77.7961 134.77C75.6556 132.95 74.3764 130.503 73.9583 127.43Z" fill="black"/>
<path d="M114.102 100C117.664 100 120.448 101.27 122.455 103.808C124.846 106.814 126.042 111.799 126.042 118.763C126.042 125.71 124.838 130.704 122.43 133.743C120.44 136.248 117.664 137.5 114.102 137.5C110.523 137.5 107.639 136.131 105.448 133.392C103.257 130.637 102.162 125.735 102.162 118.688C102.162 111.774 103.366 106.797 105.774 103.758C107.764 101.253 110.54 100 114.102 100ZM114.102 105.837C113.249 105.837 112.488 106.113 111.819 106.664C111.15 107.198 110.632 108.167 110.264 109.57C109.779 111.39 109.537 114.454 109.537 118.763C109.537 123.072 109.754 126.036 110.189 127.656C110.624 129.259 111.167 130.328 111.819 130.862C112.488 131.397 113.249 131.664 114.102 131.664C114.955 131.664 115.716 131.397 116.384 130.862C117.053 130.311 117.572 129.334 117.94 127.931C118.425 126.128 118.667 123.072 118.667 118.763C118.667 114.454 118.45 111.498 118.015 109.895C117.58 108.275 117.028 107.198 116.359 106.664C115.707 106.113 114.955 105.837 114.102 105.837Z" fill="black"/>
</svg>
