<svg width="200" height="201" viewBox="0 0 200 201" fill="none" xmlns="http://www.w3.org/2000/svg">
<rect x="30.7292" y="31.3954" width="138.542" height="138.542" rx="8.85417" fill="white" stroke="#13141A" stroke-width="1.04167"/>
<rect x="35.4167" y="36.0837" width="129.167" height="129.167" rx="4.16667" fill="#269E48"/>
<path fill-rule="evenodd" clip-rule="evenodd" d="M90.9728 78.544C88.8375 74.2609 90.0796 69.8697 93.4295 68.1697C96.7795 66.4696 101.903 67.2567 104.039 71.5398C106.174 75.8229 104.255 81.5213 100.905 83.2213C97.5549 84.921 93.108 82.827 90.9728 78.544ZM81.6159 88.9327L68.5008 88.9068L58.9227 99.6066C58.2859 100.743 56.9521 101.289 55.7128 100.92C54.0739 100.433 53.2749 98.5804 54.0377 97.0364L63.6563 84.6147C64.1253 83.6653 65.006 82.9857 66.0394 82.7756L85.1192 80.6389C87.3678 80.3123 89.3108 81.6405 90.3587 82.9905L92.9491 86.5078C94.1071 88.5396 94.2557 91.0024 93.3516 93.1733L84.3138 110.613L96.8177 120.675C99.3835 122.74 100.808 125.904 100.654 129.193L99.5957 151.738C99.5402 152.921 98.8432 153.98 97.7778 154.501C95.7038 155.515 93.2659 154.105 93.1166 151.805L91.6523 129.246C91.598 128.408 91.165 127.642 90.4758 127.162L75.4772 116.73C72.0601 114.354 70.9275 109.82 72.8247 106.113L81.6159 88.9327ZM95.9184 96.9023L91.8656 104.723L97.0975 112.525C98.4712 114.574 101.368 114.886 103.149 113.178L111.703 104.977C112.678 104.042 112.77 102.517 111.915 101.472C111.06 100.428 109.544 100.212 108.431 100.977L101.169 105.963L95.9184 96.9023ZM71.455 118.1L79.7043 123.835L72.0181 133.774C69.9179 136.489 66.0205 137.003 63.2888 134.923L48.1684 123.415C46.7461 122.332 46.459 120.307 47.5242 118.872C48.5149 117.537 50.3506 117.16 51.7873 117.996L65.8768 126.197L71.455 118.1Z" fill="white"/>
<rect width="33.3333" height="108.333" transform="matrix(-1 0 0 1 156.25 46.5)" fill="white"/>
</svg>
