<svg width="200" height="200" viewBox="0 0 200 200" fill="none" xmlns="http://www.w3.org/2000/svg">
<rect x="198.438" y="49.4792" width="101.042" height="196.875" rx="8.85417" transform="rotate(90 198.438 49.4792)" fill="white" stroke="#13141A" stroke-width="1.04167"/>
<rect x="193.229" y="54.6878" width="90.625" height="186.458" rx="3.64583" transform="rotate(90 193.229 54.6878)" stroke="black" stroke-width="1.04167"/>
<path d="M24.9995 110.624L33.6381 109.576C33.9133 111.778 34.6544 113.461 35.8613 114.626C37.0681 115.79 38.529 116.372 40.2441 116.372C42.0861 116.372 43.6317 115.674 44.8809 114.276C46.1513 112.879 46.7865 110.995 46.7865 108.623C46.7865 106.379 46.1831 104.6 44.9762 103.288C43.7694 101.975 42.2978 101.318 40.5617 101.318C39.4183 101.318 38.0527 101.541 36.4647 101.985L37.4492 94.7125C39.8629 94.776 41.705 94.2573 42.9754 93.1563C44.2458 92.0341 44.8809 90.552 44.8809 88.71C44.8809 87.1432 44.4151 85.894 43.4835 84.9624C42.5519 84.0308 41.3133 83.565 39.7677 83.565C38.2432 83.565 36.9411 84.0943 35.8613 85.1529C34.7814 86.2116 34.1251 87.7572 33.8922 89.7898L25.6665 88.3924C26.2381 85.5764 27.0956 83.3321 28.239 81.6594C29.4035 79.9655 31.0126 78.6422 33.0664 77.6895C35.1414 76.7155 37.4598 76.2285 40.0217 76.2285C44.4046 76.2285 47.9193 77.6259 50.5659 80.4208C52.7467 82.7074 53.8371 85.2906 53.8371 88.1701C53.8371 92.2565 51.6034 95.5171 47.1359 97.952C49.8037 98.5237 51.9315 99.8046 53.5195 101.795C55.1287 103.785 55.9332 106.188 55.9332 109.004C55.9332 113.091 54.4405 116.574 51.4552 119.453C48.4698 122.333 44.7539 123.772 40.3076 123.772C36.0942 123.772 32.6006 122.566 29.827 120.152C27.0533 117.717 25.4441 114.541 24.9995 110.624Z" fill="black"/>
<path d="M76.6087 76.2285C81.1185 76.2285 84.6438 77.8377 87.1846 81.056C90.2123 84.8671 91.7262 91.1872 91.7262 100.016C91.7262 108.824 90.2017 115.155 87.1528 119.009C84.6332 122.184 81.1185 123.772 76.6087 123.772C72.0776 123.772 68.4253 122.036 65.6516 118.564C62.878 115.07 61.4911 108.856 61.4911 99.9211C61.4911 91.1555 63.0156 84.8459 66.0645 80.9924C68.5841 77.8165 72.0988 76.2285 76.6087 76.2285ZM76.6087 83.6285C75.5288 83.6285 74.5655 83.9778 73.7185 84.6765C72.8716 85.3541 72.2153 86.5821 71.7495 88.3606C71.1354 90.6685 70.8284 94.5537 70.8284 100.016C70.8284 105.479 71.1037 109.237 71.6542 111.291C72.2047 113.324 72.8928 114.679 73.7185 115.356C74.5655 116.034 75.5288 116.372 76.6087 116.372C77.6885 116.372 78.6518 116.034 79.4988 115.356C80.3457 114.657 81.002 113.419 81.4679 111.64C82.0819 109.354 82.3889 105.479 82.3889 100.016C82.3889 94.5537 82.1136 90.8061 81.5631 88.7735C81.0126 86.7197 80.3139 85.3541 79.467 84.6765C78.6413 83.9778 77.6885 83.6285 76.6087 83.6285Z" fill="black"/>
<path d="M112.814 76.2285C117.324 76.2285 120.85 77.8377 123.39 81.056C126.418 84.8671 127.932 91.1872 127.932 100.016C127.932 108.824 126.408 115.155 123.359 119.009C120.839 122.184 117.324 123.772 112.814 123.772C108.283 123.772 104.631 122.036 101.857 118.564C99.0838 115.07 97.6969 108.856 97.6969 99.9211C97.6969 91.1555 99.2214 84.8459 102.27 80.9924C104.79 77.8165 108.305 76.2285 112.814 76.2285ZM112.814 83.6285C111.735 83.6285 110.771 83.9778 109.924 84.6765C109.077 85.3541 108.421 86.5821 107.955 88.3606C107.341 90.6685 107.034 94.5537 107.034 100.016C107.034 105.479 107.309 109.237 107.86 111.291C108.41 113.324 109.099 114.679 109.924 115.356C110.771 116.034 111.735 116.372 112.814 116.372C113.894 116.372 114.858 116.034 115.705 115.356C116.551 114.657 117.208 113.419 117.674 111.64C118.288 109.354 118.595 105.479 118.595 100.016C118.595 94.5537 118.319 90.8061 117.769 88.7735C117.218 86.7197 116.52 85.3541 115.673 84.6765C114.847 83.9778 113.894 83.6285 112.814 83.6285Z" fill="black"/>
<path d="M136.094 89.2499H147.146L155.531 112.752L163.979 89.2499H175V122.978H167.409V100.779L159.183 122.978H151.561L143.716 100.779V122.978H136.094V89.2499Z" fill="black"/>
</svg>
