<svg width="200" height="201" viewBox="0 0 200 201" fill="none" xmlns="http://www.w3.org/2000/svg">
<rect x="36.9786" y="12.8952" width="126.04" height="176.039" rx="8.85404" fill="white" stroke="#13141A" stroke-width="1.04165"/>
<rect x="41.6661" y="17.582" width="116.665" height="166.664" rx="4.16661" fill="#00AC5A"/>
<path fill-rule="evenodd" clip-rule="evenodd" d="M111.216 184.248L105.076 70.2153H94.9218L88.7816 184.248H43.9104L77.6817 70.2153H66.3457V70.216L61.8584 81.1812H55.1274V70.2153H41.6661V61.4435H80.2795L93.2687 17.5841H97.7558L95.3941 61.4435H104.604L102.242 17.584H106.729L119.718 61.4435H158.331V70.2153H144.87V81.1812H138.139L133.651 70.216V70.2153H122.316L156.087 184.248H111.216Z" fill="white"/>
<path fill-rule="evenodd" clip-rule="evenodd" d="M158.331 24.8442L46.7496 184.246H45.8327C43.5315 184.246 41.6661 182.381 41.6661 180.08V175.974L152.541 17.582H154.164C156.466 17.582 158.331 19.4475 158.331 21.7486V24.8442Z" fill="#FF0E00"/>
</svg>
