<svg width="200" height="201" viewBox="0 0 200 201" fill="none" xmlns="http://www.w3.org/2000/svg">
<rect x="0.520833" y="-0.520833" width="138.542" height="138.542" rx="8.85417" transform="matrix(-1 0 0 1 169.792 31.917)" fill="white" stroke="#13141A" stroke-width="1.04167"/>
<rect width="129.167" height="129.167" rx="4.16667" transform="matrix(-1 0 0 1 164.583 36.083)" fill="#1071AF"/>
<path fill-rule="evenodd" clip-rule="evenodd" d="M43.2288 144.82C41.6169 144.82 40.6156 143.068 41.4339 141.68L98.2051 45.3182C99.0109 43.9504 100.989 43.9504 101.795 45.3182L158.566 141.68C159.385 143.068 158.383 144.82 156.771 144.82H43.2288Z" fill="white"/>
<path d="M84.9704 95.6816C85.5911 94.288 85.0937 92.9499 83.9533 92.5076C82.8129 92.0654 81.1357 92.4465 80.5151 93.8401C79.8944 95.2337 80.6414 96.962 81.7818 97.4042C82.9222 97.8464 84.3498 97.0751 84.9704 95.6816Z" fill="#13141A"/>
<path fill-rule="evenodd" clip-rule="evenodd" d="M91.6841 104.294L86.8602 96.6322C86.5223 96.0954 85.7465 96.0762 85.3825 96.5957L84.2906 98.1541C83.9575 98.6295 83.9419 99.2583 84.2511 99.7496L87.5492 104.991L84.188 108.463C84.1752 108.476 84.1626 108.489 84.1502 108.503H78.9469L79.5332 107.477C79.6555 107.263 79.6754 107.005 79.5874 106.775C79.4995 106.545 79.3129 106.366 79.0792 106.288L77.0962 105.627C76.8118 105.533 76.6359 105.248 76.6783 104.951C76.722 104.646 76.9837 104.419 77.2924 104.419L79.4877 104.418L81.3555 105.538C81.8466 105.973 82.6061 105.889 82.9903 105.357L84.9124 102.163L83.4117 99.8096L81.6565 103L79.1833 102.008C78.7926 101.851 78.3454 101.967 78.0797 102.293C77.9624 102.437 77.8943 102.604 77.872 102.774L77.2924 102.774C76.165 102.774 75.2093 103.603 75.0498 104.719C74.895 105.802 75.5374 106.842 76.576 107.188L77.6072 107.532L74.755 112.523C73.8717 112.143 72.8982 111.932 71.8756 111.932C67.8482 111.932 64.5833 115.197 64.5833 119.225C64.5833 123.252 67.8482 126.517 71.8756 126.517C75.9031 126.517 79.168 123.252 79.168 119.225C79.168 116.809 77.9928 114.667 76.1829 113.34L76.877 112.125L85.3865 119.832C85.483 119.919 85.5981 119.982 85.7217 120.015C85.8011 120.037 85.8818 120.047 85.9615 120.045H89.9766C90.384 123.686 93.4731 126.517 97.2234 126.517C101.251 126.517 104.516 123.252 104.516 119.225C104.516 115.197 101.251 111.932 97.2234 111.932C96.0222 111.932 94.8889 112.223 93.8897 112.737L91.45 109.078V107.196H93.4044C93.8586 107.196 94.2269 106.828 94.2269 106.374C94.2269 105.92 93.8586 105.551 93.4044 105.551H91.6608L91.7006 105.515C91.889 105.123 91.883 104.675 91.6841 104.294ZM89.805 107.262L88.4589 108.503H89.805V107.262ZM83.5679 110.148H78.0069L77.7127 110.663L84.6229 116.921L83.5903 110.35C83.5797 110.283 83.5722 110.215 83.5679 110.148ZM87.29 114.45L86.7975 110.673C86.774 110.493 86.7952 110.313 86.8557 110.148H89.3278L87.29 114.45ZM90.7486 110.991L92.5215 113.65C91.1349 114.821 90.1911 116.5 89.9772 118.4H87.2393L90.7486 110.991ZM93.4416 115.031C92.489 115.89 91.8306 117.07 91.6359 118.4H95.6876L93.4416 115.031ZM97.2244 120.045H91.6351C92.0322 122.775 94.3829 124.872 97.2234 124.872C100.342 124.872 102.871 122.344 102.871 119.225C102.871 116.106 100.342 113.577 97.2234 113.577C96.3599 113.577 95.5418 113.771 94.81 114.118L97.9088 118.766C98.077 119.018 98.0927 119.343 97.9496 119.61C97.8065 119.878 97.5278 120.045 97.2244 120.045ZM73.9319 113.963C73.2946 113.714 72.6011 113.577 71.8756 113.577C68.7567 113.577 66.2283 116.106 66.2283 119.225C66.2283 122.344 68.7567 124.872 71.8756 124.872C74.9946 124.872 77.523 122.344 77.523 119.225C77.523 117.421 76.6769 115.814 75.3598 114.78L72.5881 119.631C72.3627 120.025 71.8603 120.162 71.4659 119.937C71.0715 119.711 70.9345 119.209 71.1598 118.814L73.9319 113.963Z" fill="#13141A"/>
<path d="M54.1667 140.251H61.855L69.8387 130.877H63.7923L54.1667 140.251Z" fill="#13141A"/>
<path d="M67.0012 127.752H72.5002L77.0834 122.371H72.5269L67.0012 127.752Z" fill="#13141A"/>
<path d="M80.0429 130.877L75.0001 140.251H83.3766L86.6306 130.877H80.0429Z" fill="#13141A"/>
<path d="M87.7154 127.752H81.724L84.6189 122.371H89.5834L87.7154 127.752Z" fill="#13141A"/>
<path d="M96.9258 130.877L95.8334 140.252H104.167L103.074 130.877H96.9258Z" fill="#13141A"/>
<path d="M102.71 127.752H97.2899L97.9168 122.372H102.083L102.71 127.752Z" fill="#13141A"/>
<path d="M113.37 130.877L116.624 140.251H125L119.957 130.877H113.37Z" fill="#13141A"/>
<path d="M118.276 127.752H112.285L110.417 122.371H115.381L118.276 127.752Z" fill="#13141A"/>
<path d="M130.161 130.877L138.145 140.251H145.833L136.208 130.877H130.161Z" fill="#13141A"/>
<path d="M132.999 127.752H127.5L122.917 122.371H127.473L132.999 127.752Z" fill="#13141A"/>
<path d="M118.353 98.4059C120.019 96.887 120.189 94.7825 118.969 93.5103C117.749 92.2381 115.321 91.7628 113.655 93.2818C111.988 94.8007 111.906 97.5806 113.126 98.8528C114.346 100.125 116.687 99.9248 118.353 98.4059Z" fill="#05081B"/>
<path d="M121.242 114.195L120.828 104.408L126.056 106.855L127.115 113.56C127.213 114.155 127.72 114.604 128.337 114.642C129.152 114.692 129.817 114.015 129.731 113.223L128.939 105.764C128.886 105.277 128.603 104.842 128.175 104.586L120.188 99.8152C119.782 99.4469 119.139 99.411 118.689 99.7773L116.149 101.548C115.293 102.246 114.819 103.291 114.865 104.378L115.25 113.474L108.292 120.645C107.881 121.045 107.576 121.536 107.403 122.076L103.776 133.384C103.424 134.479 104.052 135.645 105.177 135.985C106.31 136.328 107.512 135.702 107.847 134.592L110.889 124.536C111.08 123.904 111.45 123.338 111.956 122.902L120.515 115.856C121.002 115.438 121.269 114.828 121.242 114.195Z" fill="#05081B"/>
<path d="M117.519 120.281L121.368 117.167L130.403 132.978C131.033 133.872 130.811 135.093 129.904 135.719C129.012 136.334 127.781 136.152 127.115 135.307L117.519 120.281Z" fill="#05081B"/>
<path d="M113.44 106.828L113.632 111.378L108.713 115.29C108.153 115.736 107.334 115.682 106.838 115.168C106.332 114.641 106.343 113.818 106.864 113.306L113.44 106.828Z" fill="#05081B"/>
</svg>
