<svg width="200" height="201" viewBox="0 0 200 201" fill="none" xmlns="http://www.w3.org/2000/svg">
<rect x="0.520833" y="-0.520833" width="196.875" height="71.875" rx="8.85417" transform="matrix(-1 0 0 1 198.958 21.5)" fill="white" stroke="#13141A" stroke-width="1.04167"/>
<rect width="187.5" height="62.5" rx="4.16667" transform="matrix(-1 0 0 1 193.75 25.667)" fill="#FF0E00"/>
<path d="M84.375 73.0267V40.3836H94.2894L100.242 62.6504L106.128 40.3836H116.065V73.0267H109.911V47.3308L103.398 73.0267H97.0197L90.5295 47.3308V73.0267H84.375Z" fill="white"/>
<path d="M121.884 64.3204V58.0634H134.238V64.3204H121.884Z" fill="white"/>
<path d="M147.151 40.25C150.329 40.25 152.813 41.3782 154.604 43.6345C156.737 46.3066 157.804 50.7376 157.804 56.9278C157.804 63.1031 156.73 67.5416 154.581 70.2433C152.806 72.47 150.329 73.5833 147.151 73.5833C143.958 73.5833 141.384 72.3661 139.43 69.9316C137.475 67.4822 136.498 63.1254 136.498 56.861C136.498 50.7154 137.572 46.2917 139.721 43.59C141.496 41.3633 143.973 40.25 147.151 40.25ZM147.151 45.4382C146.39 45.4382 145.711 45.6831 145.114 46.173C144.518 46.648 144.055 47.509 143.727 48.7559C143.294 50.374 143.078 53.0979 143.078 56.9278C143.078 60.7577 143.272 63.3926 143.66 64.8325C144.048 66.2576 144.533 67.2076 145.114 67.6826C145.711 68.1577 146.39 68.3952 147.151 68.3952C147.912 68.3952 148.591 68.1577 149.188 67.6826C149.784 67.1928 150.247 66.3244 150.575 65.0774C151.008 63.4742 151.224 60.7577 151.224 56.9278C151.224 53.0979 151.03 50.4704 150.642 49.0454C150.254 47.6055 149.762 46.648 149.165 46.173C148.583 45.6831 147.912 45.4382 147.151 45.4382Z" fill="white"/>
<path d="M178.125 73.0267H171.836V49.4462C169.539 51.5838 166.831 53.1647 163.712 54.189V48.511C165.353 47.9766 167.136 46.9671 169.061 45.4827C170.986 43.9834 172.306 42.2392 173.022 40.25H178.125V73.0267Z" fill="white"/>
<rect x="64.5833" y="25.667" width="4.16667" height="62.5" fill="white"/>
<path fill-rule="evenodd" clip-rule="evenodd" d="M20.6853 42.1856L20.6336 59.8116L25.871 65.049L25.9098 51.8294L47.9386 73.8583L52.358 69.4389L30.3292 47.4101L43.5487 47.3713L38.3113 42.1339L20.6853 42.1856Z" fill="white"/>
<rect x="0.520833" y="-0.520833" width="196.875" height="71.875" rx="8.85417" transform="matrix(-1 0 0 1 198.958 109)" fill="white" stroke="#13141A" stroke-width="1.04167"/>
<rect width="187.5" height="62.5" rx="4.16667" transform="matrix(-1 0 0 1 193.75 113.167)" fill="#FF0E00"/>
<rect x="64.5833" y="113.167" width="4.16667" height="62.5" fill="white"/>
<path fill-rule="evenodd" clip-rule="evenodd" d="M14.583 144.417L27.0099 156.917L34.4168 156.917L25.0965 147.542L56.25 147.542L56.25 141.292L25.0966 141.292L34.4168 131.917L27.0099 131.917L14.583 144.417Z" fill="white"/>
<path d="M84.5379 160.527V127.884H91.1289V140.732H104.044V127.884H110.635V160.527H104.044V146.254H91.1289V160.527H84.5379Z" fill="white"/>
<path d="M116.713 151.82V145.563H129.005V151.82H116.713Z" fill="white"/>
<path d="M141.853 127.75C145.014 127.75 147.486 128.878 149.267 131.135C151.39 133.807 152.452 138.238 152.452 144.428C152.452 150.603 151.383 155.042 149.245 157.743C147.479 159.97 145.014 161.083 141.853 161.083C138.676 161.083 136.115 159.866 134.171 157.432C132.226 154.982 131.254 150.625 131.254 144.361C131.254 138.215 132.322 133.792 134.46 131.09C136.226 128.863 138.691 127.75 141.853 127.75ZM141.853 132.938C141.095 132.938 140.42 133.183 139.826 133.673C139.232 134.148 138.772 135.009 138.446 136.256C138.015 137.874 137.8 140.598 137.8 144.428C137.8 148.258 137.993 150.893 138.379 152.333C138.765 153.758 139.247 154.708 139.826 155.183C140.42 155.658 141.095 155.895 141.853 155.895C142.61 155.895 143.285 155.658 143.879 155.183C144.473 154.693 144.933 153.824 145.259 152.577C145.69 150.974 145.905 148.258 145.905 144.428C145.905 140.598 145.712 137.97 145.326 136.545C144.94 135.105 144.45 134.148 143.857 133.673C143.278 133.183 142.61 132.938 141.853 132.938Z" fill="white"/>
<path d="M156.437 151.865L162.494 151.13C162.687 152.674 163.206 153.854 164.052 154.671C164.899 155.487 165.923 155.895 167.125 155.895C168.417 155.895 169.5 155.405 170.376 154.426C171.267 153.446 171.712 152.125 171.712 150.462C171.712 148.889 171.289 147.642 170.443 146.721C169.597 145.801 168.565 145.341 167.348 145.341C166.546 145.341 165.589 145.497 164.476 145.808L165.166 140.709C166.858 140.754 168.15 140.39 169.04 139.618C169.931 138.831 170.376 137.792 170.376 136.501C170.376 135.402 170.05 134.527 169.397 133.873C168.743 133.22 167.875 132.894 166.791 132.894C165.722 132.894 164.81 133.265 164.052 134.007C163.295 134.749 162.835 135.833 162.672 137.258L156.905 136.278C157.306 134.304 157.907 132.73 158.708 131.558C159.525 130.37 160.653 129.442 162.093 128.774C163.548 128.091 165.173 127.75 166.969 127.75C170.042 127.75 172.506 128.73 174.362 130.689C175.891 132.292 176.655 134.103 176.655 136.122C176.655 138.987 175.089 141.273 171.957 142.98C173.828 143.381 175.319 144.279 176.433 145.675C177.561 147.07 178.125 148.755 178.125 150.729C178.125 153.594 177.079 156.036 174.985 158.055C172.892 160.074 170.287 161.083 167.17 161.083C164.216 161.083 161.766 160.237 159.822 158.545C157.877 156.838 156.749 154.611 156.437 151.865Z" fill="white"/>
</svg>
