<svg width="200" height="200" viewBox="0 0 200 200" fill="none" xmlns="http://www.w3.org/2000/svg">
<rect x="198.438" y="49.4784" width="101.042" height="196.875" rx="8.85417" transform="rotate(90 198.438 49.4784)" fill="white" stroke="#13141A" stroke-width="1.04167"/>
<rect x="193.229" y="54.6876" width="90.625" height="186.458" rx="3.64583" transform="rotate(90 193.229 54.6876)" stroke="black" stroke-width="1.04167"/>
<path d="M77.0834 107.447L83.2024 106.712C83.3973 108.256 83.9222 109.436 84.7771 110.253C85.632 111.069 86.6668 111.477 87.8816 111.477C89.1864 111.477 90.2812 110.987 91.1661 110.008C92.0659 109.028 92.5158 107.707 92.5158 106.044C92.5158 104.471 92.0884 103.224 91.2335 102.303C90.3787 101.383 89.3364 100.923 88.1066 100.923C87.2967 100.923 86.3294 101.079 85.2045 101.39L85.9019 96.2913C87.6116 96.3358 88.9164 95.9721 89.8163 95.2002C90.7161 94.4135 91.1661 93.3743 91.1661 92.0829C91.1661 90.9844 90.8361 90.1085 90.1762 89.4554C89.5163 88.8022 88.639 88.4757 87.5442 88.4757C86.4643 88.4757 85.542 88.8468 84.7771 89.589C84.0122 90.3312 83.5473 91.4149 83.3823 92.8399L77.5558 91.8602C77.9607 89.8859 78.5681 88.3124 79.378 87.1396C80.2029 85.9521 81.3427 85.0243 82.7974 84.3563C84.2672 83.6735 85.9094 83.332 87.7241 83.332C90.8286 83.332 93.3182 84.3118 95.1929 86.2712C96.7376 87.8745 97.51 89.6855 97.51 91.7043C97.51 94.5693 95.9278 96.8554 92.7633 98.5625C94.653 98.9633 96.1602 99.8614 97.285 101.257C98.4249 102.652 98.9948 104.337 98.9948 106.311C98.9948 109.176 97.9374 111.618 95.8228 113.637C93.7081 115.656 91.0761 116.665 87.9266 116.665C84.9421 116.665 82.4675 115.819 80.5028 114.127C78.5381 112.42 77.3983 110.193 77.0834 107.447Z" fill="black"/>
<path d="M113.64 83.332C116.834 83.332 119.331 84.4602 121.131 86.7166C123.276 89.3886 124.348 93.8197 124.348 100.01C124.348 106.185 123.268 110.624 121.109 113.325C119.324 115.552 116.834 116.665 113.64 116.665C110.43 116.665 107.843 115.448 105.879 113.014C103.914 110.564 102.932 106.207 102.932 99.943C102.932 93.7974 104.011 89.3737 106.171 86.672C107.956 84.4454 110.445 83.332 113.64 83.332ZM113.64 88.5202C112.875 88.5202 112.193 88.7651 111.593 89.255C110.993 89.73 110.528 90.591 110.198 91.8379C109.763 93.456 109.546 96.1799 109.546 100.01C109.546 103.84 109.74 106.475 110.13 107.915C110.52 109.34 111.008 110.29 111.593 110.765C112.193 111.24 112.875 111.477 113.64 111.477C114.405 111.477 115.087 111.24 115.687 110.765C116.287 110.275 116.752 109.406 117.082 108.159C117.517 106.556 117.734 103.84 117.734 100.01C117.734 96.1799 117.539 93.5525 117.149 92.1274C116.759 90.6875 116.264 89.73 115.665 89.255C115.08 88.7651 114.405 88.5202 113.64 88.5202Z" fill="black"/>
<path d="M139.286 83.332C142.48 83.332 144.977 84.4602 146.777 86.7166C148.922 89.3886 149.994 93.8197 149.994 100.01C149.994 106.185 148.914 110.624 146.754 113.325C144.97 115.552 142.48 116.665 139.286 116.665C136.076 116.665 133.489 115.448 131.524 113.014C129.56 110.564 128.577 106.207 128.577 99.943C128.577 93.7974 129.657 89.3737 131.817 86.672C133.602 84.4454 136.091 83.332 139.286 83.332ZM139.286 88.5202C138.521 88.5202 137.838 88.7651 137.238 89.255C136.639 89.73 136.174 90.591 135.844 91.8379C135.409 93.456 135.191 96.1799 135.191 100.01C135.191 103.84 135.386 106.475 135.776 107.915C136.166 109.34 136.654 110.29 137.238 110.765C137.838 111.24 138.521 111.477 139.286 111.477C140.05 111.477 140.733 111.24 141.333 110.765C141.933 110.275 142.398 109.406 142.728 108.159C143.162 106.556 143.38 103.84 143.38 100.01C143.38 96.1799 143.185 93.5525 142.795 92.1274C142.405 90.6875 141.91 89.73 141.31 89.255C140.725 88.7651 140.05 88.5202 139.286 88.5202Z" fill="black"/>
<path d="M155.775 92.4614H163.604L169.543 108.939L175.527 92.4614H183.333V116.109H177.957V100.544L172.13 116.109H166.731L161.175 100.544V116.109H155.775V92.4614Z" fill="black"/>
<path fill-rule="evenodd" clip-rule="evenodd" d="M38.542 92.8582V83.332L12.5 99.9987L38.542 116.665V107.144H64.5829V92.8582H38.542Z" fill="black"/>
</svg>
