<svg width="200" height="201" viewBox="0 0 200 201" fill="none" xmlns="http://www.w3.org/2000/svg">
<rect x="30.7287" y="12.5719" width="138.54" height="101.04" rx="8.85404" fill="white" stroke="#13141A" stroke-width="1.04165"/>
<rect x="30.7287" y="120.903" width="138.54" height="67.7073" rx="8.85404" fill="white" stroke="#13141A" stroke-width="1.04165"/>
<path d="M59.0445 151.923V137.01H63.8764C65.7074 137.01 66.901 137.085 67.4571 137.234C68.3115 137.458 69.027 137.946 69.6034 138.699C70.1799 139.445 70.4681 140.411 70.4681 141.598C70.4681 142.513 70.3019 143.283 69.9696 143.907C69.6373 144.531 69.2135 145.023 68.6981 145.382C68.1895 145.735 67.6707 145.969 67.1417 146.084C66.4229 146.226 65.3819 146.298 64.0188 146.298H62.0555V151.923H59.0445ZM62.0555 139.533V143.765H63.7035C64.8902 143.765 65.6837 143.687 66.0838 143.531C66.4839 143.375 66.7959 143.131 67.0196 142.798C67.2502 142.466 67.3655 142.079 67.3655 141.639C67.3655 141.096 67.2061 140.648 66.8874 140.296C66.5687 139.943 66.1652 139.723 65.6769 139.635C65.3175 139.567 64.5952 139.533 63.5102 139.533H62.0555ZM71.7295 146.369C71.7295 145.419 71.9634 144.5 72.4314 143.612C72.8993 142.724 73.5605 142.045 74.415 141.578C75.2762 141.11 76.2358 140.876 77.2937 140.876C78.9281 140.876 80.2675 141.408 81.3118 142.473C82.3562 143.531 82.8784 144.87 82.8784 146.491C82.8784 148.125 82.3494 149.481 81.2915 150.56C80.2403 151.631 78.9145 152.167 77.3141 152.167C76.324 152.167 75.378 151.943 74.476 151.496C73.5808 151.048 72.8993 150.394 72.4314 149.532C71.9634 148.664 71.7295 147.61 71.7295 146.369ZM74.6591 146.521C74.6591 147.593 74.9134 148.413 75.422 148.983C75.9306 149.553 76.5579 149.838 77.3039 149.838C78.0499 149.838 78.6738 149.553 79.1756 148.983C79.6843 148.413 79.9386 147.586 79.9386 146.501C79.9386 145.443 79.6843 144.629 79.1756 144.06C78.6738 143.49 78.0499 143.205 77.3039 143.205C76.5579 143.205 75.9306 143.49 75.422 144.06C74.9134 144.629 74.6591 145.45 74.6591 146.521ZM87.751 147.488V145.626C88.246 145.626 88.6054 145.596 88.8292 145.535C89.053 145.467 89.2632 145.311 89.4599 145.067C89.6634 144.816 89.7651 144.531 89.7651 144.212C89.7651 143.873 89.6396 143.561 89.3887 143.276C89.1446 142.985 88.775 142.839 88.2799 142.839C87.9001 142.839 87.5611 142.92 87.2627 143.083C86.9643 143.246 86.693 143.632 86.4489 144.243L84.0279 143.724C84.272 142.774 84.7942 142.062 85.5944 141.588C86.3946 141.113 87.3068 140.876 88.3308 140.876C89.6328 140.876 90.6399 141.174 91.352 141.771C92.0708 142.368 92.4302 143.117 92.4302 144.019C92.4302 144.582 92.2743 145.05 91.9623 145.423C91.6571 145.789 91.1723 146.131 90.5077 146.45C91.3079 146.667 91.9047 146.996 92.298 147.437C92.6981 147.878 92.8982 148.427 92.8982 149.085C92.8982 149.926 92.5048 150.651 91.7182 151.262C90.9315 151.865 89.799 152.167 88.3206 152.167C85.7436 152.167 84.1669 151.16 83.5904 149.146L86.2047 148.668C86.6252 149.726 87.3203 150.255 88.2901 150.255C88.8258 150.255 89.2531 150.116 89.5718 149.838C89.8973 149.553 90.0601 149.22 90.0601 148.841C90.0601 148.42 89.8905 148.091 89.5515 147.854C89.2192 147.61 88.7818 147.488 88.2392 147.488H87.751ZM95.0852 141.12H97.9335V145.535C98.4082 145.48 98.7439 145.335 98.9406 145.097C99.1372 144.86 99.3746 144.341 99.6526 143.541C100.019 142.476 100.419 141.795 100.853 141.496C101.287 141.198 101.857 141.049 102.562 141.049C102.779 141.049 103.155 141.066 103.691 141.099L103.701 142.992C102.948 142.992 102.467 143.063 102.257 143.205C102.047 143.354 101.819 143.799 101.575 144.538C101.243 145.535 100.765 146.148 100.141 146.379C101.043 146.63 101.806 147.413 102.43 148.729C102.464 148.797 102.501 148.868 102.542 148.942L104.139 151.923H101.067L99.6425 148.8C99.3508 148.169 99.0965 147.766 98.8795 147.589C98.6693 147.406 98.354 147.315 97.9335 147.315V151.923H95.0852V141.12ZM106.672 141.12H116.244V151.923H113.396V143.439H109.499V148.291C109.499 149.526 109.357 150.394 109.072 150.895C108.787 151.39 108.472 151.716 108.126 151.872C107.78 152.028 107.224 152.106 106.458 152.106C106.004 152.106 105.403 152.045 104.657 151.923V149.817C104.718 149.817 104.878 149.824 105.136 149.838C105.434 149.858 105.665 149.868 105.827 149.868C106.214 149.868 106.451 149.743 106.539 149.492C106.627 149.234 106.672 148.525 106.672 147.366V141.12ZM121.279 144.416L118.685 143.948C118.977 142.903 119.479 142.13 120.191 141.628C120.903 141.127 121.961 140.876 123.364 140.876C124.639 140.876 125.589 141.028 126.213 141.333C126.837 141.632 127.274 142.015 127.525 142.483C127.783 142.944 127.911 143.795 127.911 145.036L127.881 148.373C127.881 149.322 127.925 150.024 128.013 150.478C128.108 150.926 128.281 151.407 128.532 151.923H125.704C125.629 151.733 125.538 151.452 125.429 151.079C125.382 150.909 125.348 150.797 125.328 150.743C124.839 151.218 124.317 151.574 123.761 151.811C123.205 152.048 122.612 152.167 121.981 152.167C120.869 152.167 119.991 151.865 119.346 151.262C118.709 150.658 118.39 149.895 118.39 148.973C118.39 148.363 118.536 147.82 118.828 147.345C119.119 146.864 119.526 146.498 120.048 146.247C120.577 145.989 121.337 145.765 122.327 145.575C123.663 145.324 124.589 145.09 125.104 144.873V144.589C125.104 144.039 124.968 143.649 124.697 143.419C124.426 143.181 123.914 143.063 123.161 143.063C122.652 143.063 122.256 143.164 121.971 143.368C121.686 143.565 121.455 143.914 121.279 144.416ZM125.104 146.735C124.738 146.857 124.158 147.003 123.364 147.172C122.571 147.342 122.052 147.508 121.808 147.671C121.435 147.935 121.249 148.271 121.249 148.678C121.249 149.078 121.398 149.424 121.696 149.715C121.995 150.007 122.374 150.153 122.835 150.153C123.351 150.153 123.843 149.983 124.31 149.644C124.656 149.387 124.884 149.071 124.992 148.698C125.067 148.454 125.104 147.99 125.104 147.305V146.735ZM139.671 151.923H131.492V154.771H129.173V149.583H130.343C130.831 149.041 131.234 148.193 131.553 147.04C131.872 145.887 132.062 143.914 132.123 141.12H140.841V149.583H142V154.771H139.671V151.923ZM138.013 149.583L138.023 143.47H134.564C134.449 146.454 133.974 148.491 133.14 149.583H138.013ZM77.5277 161.12H80.1929V162.707C80.5387 162.164 81.0067 161.723 81.5967 161.384C82.1867 161.045 82.8411 160.876 83.5599 160.876C84.8145 160.876 85.8792 161.367 86.7541 162.351C87.6289 163.334 88.0663 164.704 88.0663 166.46C88.0663 168.264 87.6255 169.668 86.7439 170.672C85.8623 171.669 84.7942 172.167 83.5396 172.167C82.9428 172.167 82.4003 172.048 81.912 171.811C81.4305 171.574 80.9219 171.167 80.3862 170.59V176.032H77.5277V161.12ZM80.3556 166.338C80.3556 167.552 80.5964 168.451 81.0779 169.034C81.5594 169.61 82.146 169.899 82.8377 169.899C83.5023 169.899 84.055 169.634 84.4958 169.105C84.9366 168.569 85.157 167.695 85.157 166.481C85.157 165.348 84.9298 164.507 84.4754 163.958C84.0211 163.409 83.4582 163.134 82.7868 163.134C82.0883 163.134 81.5085 163.405 81.0474 163.948C80.5862 164.483 80.3556 165.28 80.3556 166.338ZM88.7072 161.12H91.7487L94.3325 168.79L96.8552 161.12H99.8154L96.0008 171.516L95.3192 173.398C95.0683 174.029 94.8275 174.51 94.597 174.842C94.3732 175.175 94.1121 175.442 93.8137 175.646C93.5221 175.856 93.1593 176.019 92.7252 176.134C92.298 176.25 91.8131 176.307 91.2706 176.307C90.7213 176.307 90.1822 176.25 89.6532 176.134L89.3989 173.896C89.8465 173.984 90.25 174.029 90.6094 174.029C91.274 174.029 91.7657 173.832 92.0844 173.439C92.4031 173.052 92.6473 172.557 92.8168 171.953L88.7072 161.12ZM100.548 171.923L104.444 166.359L100.711 161.12H104.2L106.112 164.09L108.126 161.12H111.483L107.821 166.236L111.819 171.923H108.309L106.112 168.576L103.895 171.923H100.548ZM112.429 161.12H115.471L118.054 168.79L120.577 161.12H123.537L119.723 171.516L119.041 173.398C118.79 174.029 118.55 174.51 118.319 174.842C118.095 175.175 117.834 175.442 117.536 175.646C117.244 175.856 116.881 176.019 116.447 176.134C116.02 176.25 115.535 176.307 114.993 176.307C114.443 176.307 113.904 176.25 113.375 176.134L113.121 173.896C113.568 173.984 113.972 174.029 114.331 174.029C114.996 174.029 115.488 173.832 115.806 173.439C116.125 173.052 116.369 172.557 116.539 171.953L112.429 161.12Z" fill="black"/>
<path fill-rule="evenodd" clip-rule="evenodd" d="M102.892 21.4258V25.2525L119.908 39.7471L111.141 48.6241H91.1718L82.4044 39.7471L99.4194 25.254V21.4258H102.892ZM87.5014 39.9666L92.6227 45.1519H109.69L114.811 39.9666L101.156 28.3355L87.5014 39.9666ZM136.626 51.5193H63.3709C61.1651 51.5193 59.0906 52.5672 57.7816 54.3425L49.271 65.885C48.3908 67.0787 47.916 68.523 47.916 70.0061V86.241C47.916 88.7979 49.9887 90.8706 52.5455 90.8706H57.1751L61.1175 83.7996C61.5468 83.1557 62.2695 82.7689 63.0435 82.7689H136.954C137.728 82.7689 138.45 83.1557 138.88 83.7996L142.822 90.8706H147.452C150.008 90.8706 152.081 88.7979 152.081 86.241V70.0061C152.081 68.523 151.606 67.0787 150.726 65.885L142.215 54.3425C140.906 52.5672 138.832 51.5193 136.626 51.5193ZM146.806 68.2074L138.885 57.1182C138.45 56.5099 137.749 56.1489 137.001 56.1489H135.878C134.599 56.1489 133.563 57.1852 133.563 58.4637V67.7228C133.563 69.0012 134.599 70.0376 135.878 70.0376H145.864C146.805 70.0376 147.353 68.9735 146.806 68.2074ZM62.9959 56.1489C62.2483 56.1489 61.5468 56.5099 61.1122 57.1182L53.1914 68.2074C52.6442 68.9735 53.1918 70.0376 54.1332 70.0376H64.1194C65.3978 70.0376 66.4342 69.0012 66.4342 67.7228V58.4637C66.4342 57.1852 65.3978 56.1489 64.1194 56.1489H62.9959ZM108.1 58.4637C108.1 57.1852 107.064 56.1489 105.785 56.1489H94.2116C92.9332 56.1489 91.8968 57.1852 91.8968 58.4637V67.7228C91.8968 69.0012 92.9332 70.0376 94.2116 70.0376H105.785C107.064 70.0376 108.1 69.0012 108.1 67.7228V58.4637ZM112.73 58.4637C112.73 57.1852 113.766 56.1489 115.045 56.1489H126.619C127.897 56.1489 128.933 57.1852 128.933 58.4637V67.7228C128.933 69.0012 127.897 70.0376 126.619 70.0376H115.045C113.766 70.0376 112.73 69.0012 112.73 67.7228V58.4637ZM87.2672 58.4637C87.2672 57.1852 86.2309 56.1489 84.9524 56.1489H73.3785C72.1001 56.1489 71.0638 57.1852 71.0638 58.4637V67.7228C71.0638 69.0012 72.1001 70.0376 73.3785 70.0376H84.9524C86.2309 70.0376 87.2672 69.0012 87.2672 67.7228V58.4637ZM73.3663 92.0252C73.3663 95.2214 70.7753 97.8124 67.5791 97.8124C64.3829 97.8124 61.7919 95.2214 61.7919 92.0252C61.7919 88.829 64.3829 86.238 67.5791 86.238C70.7753 86.238 73.3663 88.829 73.3663 92.0252ZM124.303 92.0252C124.303 95.2214 121.712 97.8124 118.516 97.8124C115.32 97.8124 112.729 95.2214 112.729 92.0252C112.729 88.829 115.32 86.238 118.516 86.238C121.712 86.238 124.303 88.829 124.303 92.0252ZM81.48 97.8124C84.6762 97.8124 87.2672 95.2214 87.2672 92.0252C87.2672 88.829 84.6762 86.238 81.48 86.238C78.2838 86.238 75.6928 88.829 75.6928 92.0252C75.6928 95.2214 78.2838 97.8124 81.48 97.8124ZM138.196 92.0252C138.196 95.2214 135.605 97.8124 132.408 97.8124C129.212 97.8124 126.621 95.2214 126.621 92.0252C126.621 88.829 129.212 86.238 132.408 86.238C135.605 86.238 138.196 88.829 138.196 92.0252ZM89.5853 86.238H110.419L108.68 89.7161C108.327 90.4219 107.606 90.8677 106.817 90.8677H93.1878C92.3987 90.8677 91.6773 90.4219 91.3244 89.7161L89.5853 86.238Z" fill="black"/>
</svg>
