<svg width="200" height="201" viewBox="0 0 200 201" fill="none" xmlns="http://www.w3.org/2000/svg">
<rect x="1.56254" y="147.02" width="92.7084" height="196.875" rx="8.85417" transform="rotate(-90 1.56254 147.02)" fill="white" stroke="#13141A" stroke-width="1.04167"/>
<rect x="6.77083" y="141.811" width="82.2917" height="186.458" rx="3.64583" transform="rotate(-90 6.77083 141.811)" stroke="black" stroke-width="1.04167"/>
<path d="M6.25 129.832H193.75V138.165C193.75 140.467 191.885 142.332 189.583 142.332H10.4167C8.11548 142.332 6.25 140.467 6.25 138.165V129.832Z" fill="black"/>
<path d="M104.167 117.332H193.75V129.832H104.167V117.332Z" fill="black"/>
<path fill-rule="evenodd" clip-rule="evenodd" d="M71.3249 96.041L71.516 80.7457C71.537 79.0628 72.6127 77.5695 74.2077 77.009L105.244 66.1031C106.839 65.5426 108.612 66.0348 109.682 67.3346L119.399 79.1483L120.024 78.9286C122.119 78.1925 124.411 79.2854 125.143 81.3696L129.784 94.5778C130.49 96.5865 129.49 98.7829 127.541 99.5984L77.7793 117.084C75.7488 117.667 73.5944 116.579 72.8886 114.57L68.2473 101.362C67.515 99.278 68.6194 96.9917 70.7143 96.2556L71.3249 96.041ZM76.3699 94.2682L76.5295 81.4928L106.237 71.0537L114.354 80.9211L76.3699 94.2682Z" fill="black"/>
<path d="M80.6085 118.129L82.9846 124.89C83.7169 126.975 86.0088 128.067 88.1037 127.331L88.9829 127.022C91.0778 126.286 92.1823 124 91.4499 121.916L89.0738 115.154L80.6085 118.129Z" fill="black"/>
<path d="M117.522 105.158L119.898 111.919C120.63 114.004 122.922 115.097 125.017 114.36L125.896 114.051C127.991 113.315 129.095 111.029 128.363 108.945L125.987 102.183L117.522 105.158Z" fill="black"/>
</svg>
