<svg width="200" height="200" viewBox="0 0 200 200" fill="none" xmlns="http://www.w3.org/2000/svg">
<path d="M0 16.6677H95.8333V183.334H0V16.6677Z" fill="#68696C"/>
<path d="M104.167 16.6677H200V183.334H104.167V16.6677Z" fill="#68696C"/>
<path fill-rule="evenodd" clip-rule="evenodd" d="M168.749 29.1664L144.79 60.4306L151.41 67.8033C138.855 94.7998 135.417 116.688 135.417 170.833H144.922C143.874 135.033 143.153 105.476 154.909 71.7003L161.457 78.9937L168.749 29.1664Z" fill="white"/>
<path fill-rule="evenodd" clip-rule="evenodd" d="M31.2513 29.1664L55.2096 60.4306L48.5901 67.8033C61.1448 94.7998 64.5831 116.688 64.5831 170.833H55.0781C56.1262 135.033 56.8474 105.476 45.0912 71.7003L38.5429 78.9937L31.2513 29.1664Z" fill="white"/>
</svg>
