<svg width="200" height="200" viewBox="0 0 200 200" fill="none" xmlns="http://www.w3.org/2000/svg">
<rect y="16.667" width="200" height="166.667" fill="#68696C"/>
<path d="M40.5491 158.854H159.451C165.434 158.854 169.134 152.294 166.111 147.102L106.66 44.9934C103.674 39.8638 96.3265 39.8638 93.3399 44.9934L33.8889 147.102C30.8662 152.294 34.5658 158.854 40.5491 158.854Z" fill="#FF0E00" stroke="black" stroke-width="1.04167"/>
<path d="M159.451 156.25H40.5491C36.6209 156.25 34.1042 151.908 36.1394 148.412L95.5904 46.3037C97.5726 42.8992 102.427 42.8992 104.41 46.3037L163.861 148.412C165.896 151.908 163.379 156.25 159.451 156.25Z" fill="#FF0E00" stroke="white" stroke-width="4.16667"/>
<path fill-rule="evenodd" clip-rule="evenodd" d="M147.396 143.752L99.9998 62.0977L52.604 143.752H147.396Z" fill="white"/>
<path d="M102.75 89.7611C104.975 87.8458 105.308 85.0809 103.808 83.3406C102.309 81.6003 99.2142 80.8476 96.9896 82.763C94.765 84.6784 94.5074 88.3381 96.007 90.0784C97.5065 91.8184 100.526 91.6765 102.75 89.7611Z" fill="#05081B"/>
<path d="M105.605 110.722V97.8009L112.193 101.298L113.19 110.19C113.282 110.979 113.91 111.598 114.701 111.68C115.746 111.788 116.638 110.931 116.57 109.882L115.957 100.01C115.915 99.3657 115.576 98.777 115.039 98.4173L105.032 91.7141C104.53 91.2076 103.705 91.1268 103.108 91.5862L99.7457 93.7881C98.6081 94.6629 97.9415 96.0162 97.9415 97.4507V109.46L88.6084 118.55C88.0586 119.056 87.6396 119.687 87.3875 120.39L82.11 135.106C81.599 136.531 82.3427 138.1 83.7697 138.607C85.208 139.118 86.7866 138.355 87.2782 136.91L91.7344 123.814C92.0144 122.991 92.5211 122.264 93.1959 121.715L104.581 112.874C105.229 112.348 105.605 111.557 105.605 110.722Z" fill="#05081B"/>
<path d="M100.489 118.55L105.605 114.646L116.5 134.696C117.261 135.907 116.909 137.504 115.709 138.282C114.53 139.047 112.957 138.744 112.147 137.595L100.489 118.55Z" fill="#05081B"/>
<path d="M95.9769 100.607V106.614L89.4407 111.514C88.696 112.072 87.6459 111.959 87.0375 111.255C86.415 110.534 86.474 109.451 87.171 108.802L95.9769 100.607Z" fill="#05081B"/>
<path d="M73.5269 139.584L76.6273 129.167H71.1419L64.5833 139.584H73.5269Z" fill="#05081B"/>
<path d="M126.473 139.584L123.373 129.167H128.858L135.417 139.584H126.473Z" fill="#05081B"/>
<path d="M102.743 129.167H97.2572L95.5877 139.584H104.412L102.743 129.167Z" fill="#05081B"/>
</svg>
