<svg width="200" height="201" viewBox="0 0 200 201" fill="none" xmlns="http://www.w3.org/2000/svg">
<circle cx="99.9995" cy="100.664" r="82.8125" fill="white" stroke="#05081B" stroke-width="1.04167"/>
<circle cx="99.9993" cy="100.664" r="78.125" fill="#1071AF"/>
<path fill-rule="evenodd" clip-rule="evenodd" d="M137.721 69.709C139.289 70.417 140.736 71.9614 141.309 72.8256L147.051 79.4134L159.325 94.0097C160.594 94.994 160.699 99.2895 159.937 100.945L156.712 111.608C156.473 112.479 154.346 114.984 153.269 114.991L149.628 115.313C148.49 110.571 144.923 106.465 140.005 105.073C135.087 103.682 130.167 105.387 126.826 108.862C124.245 111.359 123.699 114.531 123.113 117.937L123.048 118.316C123.049 118.364 123.029 118.409 123.01 118.454C122.99 118.499 122.971 118.544 122.972 118.592L94.4952 118.803L73.0878 118.609C73.1343 112.519 69.063 106.798 63.0327 105.092C55.8597 103.063 48.4822 107.406 46.4848 114.685C46.4493 114.814 46.4112 114.939 46.3736 115.063C46.2993 115.307 46.2264 115.546 46.1786 115.8L43.981 115.179C42.9037 115.187 40.8393 113.751 40.7095 111.998L39.6839 101.185C39.0503 97.8842 41.5566 96.3281 43.0036 96.1123L66.6152 91.5194L71.6607 90.3931C73.1829 89.886 75.898 88.9324 76.5021 87.8529L87.8236 73.0211C88.9118 71.2994 91.1222 69.1642 94.4184 69.4764L108.011 69.5659L136.173 69.4152C136.678 69.4042 137.198 69.4745 137.721 69.709ZM132.681 74.5975C131.832 74.2638 130.906 74.2727 129.852 74.2829C129.553 74.2858 129.243 74.2888 128.921 74.284L106.67 74.4527L96.642 74.3184C93.8364 74.4625 91.666 76.4166 89.9923 78.5978L84.9703 86.6465C83.4764 88.7247 84.1162 93.0561 87.6774 92.9719L101.547 93.1398L131.919 93.0131C138.596 93.3441 139.726 88.138 138.03 84.2241L135.62 78.4351C134.734 76.073 133.772 75.0217 132.681 74.5975Z" fill="white"/>
<path fill-rule="evenodd" clip-rule="evenodd" d="M62.4616 106.737C68.6105 108.477 72.3756 115.02 70.6624 121.263C68.9491 127.507 62.3974 131.136 56.2441 129.395C50.0952 127.655 46.4808 121.15 48.194 114.907C49.9073 108.663 56.3127 104.998 62.4616 106.737ZM61.0753 111.789C57.6515 110.82 54.276 112.886 53.3232 116.358C52.3704 119.83 54.2122 123.371 57.6317 124.339C61.0511 125.306 64.5803 123.284 65.5331 119.812C66.4858 116.34 64.4992 112.758 61.0753 111.789Z" fill="white"/>
<path fill-rule="evenodd" clip-rule="evenodd" d="M147.999 121.135C149.712 114.892 145.947 108.349 139.798 106.609C133.649 104.87 127.244 108.535 125.53 114.779C123.817 121.022 127.427 127.526 133.58 129.267C139.734 131.008 146.285 127.379 147.999 121.135ZM130.66 116.23C131.612 112.758 134.992 110.694 138.412 111.661C141.831 112.629 143.822 116.212 142.869 119.684C141.917 123.156 138.387 125.178 134.968 124.211C131.548 123.243 129.706 119.707 130.66 116.23Z" fill="white"/>
</svg>
