<svg width="200" height="201" viewBox="0 0 200 201" fill="none" xmlns="http://www.w3.org/2000/svg">
<circle cx="100" cy="100.999" r="82.8125" fill="white" stroke="#05081B" stroke-width="1.04167"/>
<circle cx="99.9993" cy="100.997" r="78.125" fill="#1071AF"/>
<path d="M77.5976 41.0537L55.2473 79.8115L100.081 78.1088L93.3954 67.4568C103.487 65.6019 114.041 68.3365 121.648 75.109C121.864 75.2626 122.067 75.459 122.271 75.6554C122.472 75.8489 122.673 76.0425 122.885 76.1954L135.349 63.5918C131.167 59.6936 126.487 56.5903 121.278 54.2762C109.794 48.9354 96.3468 47.8407 84.0772 51.616L77.5976 41.0537Z" fill="white"/>
<path d="M139.78 72.8768L122.199 105.808L118.86 112.212L131.241 111.992C129.434 117.043 126.486 121.513 122.541 125.034C118.704 128.659 114.013 131.378 108.873 132.726L113.845 149.653C116.992 148.759 120.096 147.583 122.918 146.07C136.293 139.243 146.39 126.572 149.815 111.661L162.193 111.441L139.78 72.8768Z" fill="white"/>
<path d="M79.78 111.041L73.6498 122.134C66.6495 113.891 64.0285 102.954 66.6923 92.5546L49.4263 88.2575C44.8981 106.329 50.7234 125.577 64.6585 138.194L58.6247 148.866L103.548 148.905L79.78 111.041Z" fill="white"/>
</svg>
