<svg width="200" height="201" viewBox="0 0 200 201" fill="none" xmlns="http://www.w3.org/2000/svg">
<path d="M25.6863 169.606H174.314C181.678 169.606 186.263 161.633 182.525 155.304L108.211 29.4917C104.527 23.2552 95.4727 23.2552 91.7889 29.4917L17.4753 155.304C13.7367 161.633 18.3214 169.606 25.6863 169.606Z" fill="#FF0E00" stroke="black" stroke-width="1.04167"/>
<path d="M174.314 167.002H25.6863C20.3188 167.002 17.0139 161.206 19.7175 156.628L94.0312 30.8161C96.707 26.2859 103.293 26.2859 105.969 30.8161L180.282 156.628C182.986 161.206 179.681 167.002 174.314 167.002Z" fill="#FF0E00" stroke="white" stroke-width="4.16667"/>
<path fill-rule="evenodd" clip-rule="evenodd" d="M164.062 154.501L99.9999 45.7635L35.9374 154.501H164.062Z" fill="white"/>
<path fill-rule="evenodd" clip-rule="evenodd" d="M79.1666 96.1677V121.298C79.1666 131.868 91.4715 137.667 99.6237 130.938L116.667 116.871V144.084L122.917 137.834L129.167 144.084V116.871C129.167 106.3 116.862 100.502 108.71 107.231L91.6666 121.298V96.1677L85.4166 87.8344L79.1666 96.1677Z" fill="black"/>
</svg>
