<svg width="200" height="201" viewBox="0 0 200 201" fill="none" xmlns="http://www.w3.org/2000/svg">
<rect x="36.9792" y="12.6462" width="126.042" height="176.042" rx="8.85417" fill="white" stroke="#13141A" stroke-width="1.04167"/>
<rect x="41.6667" y="17.333" width="116.667" height="166.667" rx="4.16667" fill="#1071AF"/>
<rect x="50" y="34" width="100" height="100" rx="4.16667" fill="white"/>
<path d="M55.4878 42.3983C53.5858 42.8491 53.7985 48.2265 55.7006 48.7137C56.0369 48.7999 84.0272 51.8025 107.821 54.8012C119.672 56.2948 135.684 57.7877 144.614 58.9186C144.718 58.9305 144.813 58.9422 144.899 58.9529C145.322 59.0053 145.542 59.0326 145.656 58.9356C145.779 58.831 145.778 58.5818 145.778 58.0638C145.778 57.9394 145.778 57.7994 145.779 57.6422C145.783 56.7853 145.786 55.9284 145.789 55.0714C145.794 53.5352 145.799 51.9988 145.807 50.4623L145.814 48.3202C145.819 46.6409 145.824 44.9613 145.832 43.2825C145.83 43.1434 145.831 43.0244 145.832 42.9228C145.835 42.6384 145.837 42.4895 145.763 42.4126C145.683 42.3281 145.511 42.3302 145.152 42.3348L145.139 42.3349L55.4878 42.3983Z" fill="#1F1A17"/>
<path fill-rule="evenodd" clip-rule="evenodd" d="M63.593 88.167C61.6825 88.167 59.9723 89.3521 59.3015 91.141L54.4586 104.055C54.2656 104.57 54.1667 105.115 54.1667 105.665V116.917C54.1667 119.448 56.2188 121.5 58.7501 121.5H60.4167C60.4167 116.898 64.1477 113.167 68.7501 113.167C73.3525 113.167 77.0834 116.898 77.0834 121.5H114.583C114.583 116.898 118.314 113.167 122.917 113.167C127.519 113.167 131.25 116.898 131.25 121.5H141.25C143.781 121.5 145.833 119.448 145.833 116.917V92.7503C145.833 90.219 143.781 88.167 141.25 88.167H63.593ZM126.15 92.3337C125.517 92.3337 125.004 92.8467 125.004 93.4795V101.604C125.004 102.237 125.517 102.75 126.15 102.75H140.525C141.158 102.75 141.671 102.237 141.671 101.604V93.4795C141.671 92.8467 141.158 92.3337 140.525 92.3337H126.15ZM104.171 93.4795C104.171 92.8467 104.684 92.3337 105.317 92.3337H119.692C120.324 92.3337 120.837 92.8467 120.837 93.4795V101.604C120.837 102.237 120.324 102.75 119.692 102.75H105.317C104.684 102.75 104.171 102.237 104.171 101.604V93.4795ZM84.4833 92.3337C83.8505 92.3337 83.3375 92.8467 83.3375 93.4795V101.604C83.3375 102.237 83.8505 102.75 84.4833 102.75H98.8583C99.4911 102.75 100.004 102.237 100.004 101.604V93.4795C100.004 92.8467 99.4911 92.3337 98.8583 92.3337H84.4833ZM62.2359 93.0998C62.3971 92.6408 62.8306 92.3337 63.317 92.3337H78.0258C78.6587 92.3337 79.1717 92.8467 79.1717 93.4795V101.604C79.1717 102.237 78.6587 102.75 78.0258 102.75H60.4631C59.6732 102.75 59.1202 101.97 59.382 101.225L62.2359 93.0998Z" fill="#05081B"/>
<path d="M75.0001 121.5C75.0001 124.952 72.2019 127.75 68.7501 127.75C65.2983 127.75 62.5001 124.952 62.5001 121.5C62.5001 118.049 65.2983 115.25 68.7501 115.25C72.2019 115.25 75.0001 118.049 75.0001 121.5Z" fill="#05081B"/>
<path d="M129.167 121.5C129.167 124.952 126.369 127.75 122.917 127.75C119.465 127.75 116.667 124.952 116.667 121.5C116.667 118.049 119.465 115.25 122.917 115.25C126.369 115.25 129.167 118.049 129.167 121.5Z" fill="#05081B"/>
<path d="M65.3362 61.3713L65.3439 66.6946C64.1442 65.8206 62.943 64.9452 61.7432 64.0705C61.3036 63.7525 60.6005 64.5868 60.9443 64.9133C61.4831 65.426 62.0259 65.935 62.5688 66.444C63.6442 67.4525 64.72 68.4613 65.7659 69.5001C66.0992 69.8301 67.289 69.3152 67.2482 68.6565C67.1506 67.0355 67.1527 65.4106 67.1548 63.786C67.1559 62.9838 67.157 62.1813 67.146 61.3798C67.1172 60.5121 65.3362 60.5355 65.3362 61.3713Z" fill="#1F1A17"/>
<path fill-rule="evenodd" clip-rule="evenodd" d="M66.0136 79.5199C72.5565 79.5199 77.8606 74.2268 77.8606 67.6974C77.8606 61.1681 72.5565 55.875 66.0136 55.875C59.4708 55.875 54.1667 61.1681 54.1667 67.6974C54.1667 74.2268 59.4708 79.5199 66.0136 79.5199ZM66.0192 76.6254C70.9559 76.6254 74.9579 72.6321 74.9579 67.7061C74.9579 62.7801 70.9559 58.7869 66.0192 58.7869C61.0826 58.7869 57.0806 62.7801 57.0806 67.7061C57.0806 72.6321 61.0826 76.6254 66.0192 76.6254Z" fill="#1F1A17"/>
</svg>
