<svg width="200" height="200" viewBox="0 0 200 200" fill="none" xmlns="http://www.w3.org/2000/svg">
<path d="M174.314 169.271H25.6864C18.3215 169.271 13.7368 161.298 17.4754 154.969L91.789 29.1566C95.4728 22.92 104.527 22.92 108.211 29.1566L182.525 154.969C186.263 161.298 181.679 169.271 174.314 169.271Z" fill="#FF0E00" stroke="black" stroke-width="1.04167"/>
<path d="M25.6864 166.667H174.314C179.681 166.667 182.986 160.87 180.283 156.293L105.969 30.481C103.293 25.9508 96.7071 25.9508 94.0313 30.481L19.7176 156.293C17.014 160.87 20.3189 166.667 25.6864 166.667Z" fill="#FF0E00" stroke="white" stroke-width="4.16667"/>
<path fill-rule="evenodd" clip-rule="evenodd" d="M35.9376 154.168L100 45.4312L164.063 154.168H35.9376Z" fill="white"/>
<path d="M85.5012 87.5C83.7918 87.5 82.5771 88.79 82.5771 90.5332V93.1993C76.7557 95.366 73.3615 99.827 72.919 105.919C72.8147 112.675 76.3431 117.171 82.5771 118.199V144.932C82.5771 146.677 83.7918 147.917 85.5012 147.917C87.2105 147.917 88.4728 146.677 88.4728 144.932V118.762H125.571H125.666C128.699 118.762 131.25 116.165 131.25 113.013C131.25 110.257 129.426 107.933 127.056 107.314L125.57 106.825L88.5687 93.1993L88.4728 90.5332C88.4728 88.79 87.2098 87.5 85.5012 87.5ZM84.4943 95.7433L87.2021 96.0126C83.3884 98.0994 81.4582 101.721 81.3063 106.017C81.6468 110.625 83.2151 112.958 86.2911 115.019L81.6898 114.676C78.3493 114.059 77.1606 109.506 77.1606 106.016C77.679 101.763 80.1407 96.8157 84.4943 95.7433ZM96.956 99.6329L101.366 100.758C98.6654 101.94 96.8287 104.562 96.3326 107.657C96.0166 110.69 96.8456 113.254 98.9691 115.436L95.374 115.338C92.8387 113.706 91.2282 111.028 91.2282 107.878C91.2367 103.666 93.5657 101.388 96.956 99.6329ZM111.503 104.721L115.433 105.479C113.228 106.549 111.814 108.796 111.814 111.497C111.814 113.242 112.524 114.687 113.516 115.925L109.754 115.827C108.266 114.645 107.309 112.772 107.309 110.689C107.34 107.623 108.979 105.97 111.503 104.721ZM125.571 109.392V109.442C127.5 109.442 129.07 111.044 129.07 113.013C129.07 114.983 127.5 116.585 125.571 116.585C123.531 116.585 122 114.983 122 113.013C122 110.988 123.531 109.392 125.571 109.392Z" fill="black"/>
</svg>
