<svg width="200" height="201" viewBox="0 0 200 201" fill="none" xmlns="http://www.w3.org/2000/svg">
<circle cx="100" cy="100.335" r="82.8125" fill="white" stroke="#05081B" stroke-width="1.04167"/>
<circle cx="100" cy="100.336" r="71.875" stroke="#FF0E00" stroke-width="12.5"/>
<path fill-rule="evenodd" clip-rule="evenodd" d="M80.3146 66.4844C77.3299 66.4844 74.7994 68.679 74.3773 71.6337C73.9674 74.5031 75.6682 77.255 78.418 78.1716L81.3867 79.1612L73.5672 92.8454C71.1341 91.7765 68.4448 91.1831 65.6169 91.1831C54.6908 91.1831 45.8335 100.04 45.8335 110.967C45.8335 121.893 54.6908 130.75 65.6169 130.75C76.543 130.75 85.4003 121.893 85.4003 110.967C85.4003 104.359 82.1609 98.5079 77.1835 94.9149L79.1491 91.4753L102.327 112.467C102.485 112.617 102.668 112.745 102.875 112.843C103.187 112.991 103.517 113.054 103.84 113.043L114.707 113.043C115.745 122.993 124.158 130.75 134.383 130.75C145.309 130.75 154.167 121.893 154.167 110.967C154.167 100.04 145.309 91.1831 134.383 91.1831C131.071 91.1831 127.948 91.9973 125.205 93.4363L118.568 83.4806V78.1869H124.02C125.17 78.1869 126.103 77.2542 126.103 76.1036C126.103 74.953 125.17 74.0202 124.02 74.0202L116.487 74.0202L116.485 74.0202L116.483 74.0202L108.005 74.0202C106.854 74.0202 105.921 74.953 105.921 76.1036C105.921 77.2542 106.854 78.1869 108.005 78.1869H114.401V82.027L84.5481 82.027L86.2652 79.022C86.5749 78.4801 86.6253 77.8279 86.4025 77.2448C86.1797 76.6618 85.7073 76.2093 85.1152 76.012L79.7356 74.2188C78.8962 73.939 78.377 73.0989 78.5021 72.223C78.631 71.321 79.4035 70.651 80.3146 70.651H89.6378C90.7883 70.651 91.7211 69.7183 91.7211 68.5677C91.7211 67.4171 90.7883 66.4844 89.6378 66.4844H80.3146ZM121.74 95.7498L116.792 88.3285L107.059 108.876L114.709 108.876C115.262 103.61 117.881 98.9599 121.74 95.7498ZM118.905 108.876C119.417 105.054 121.311 101.669 124.068 99.2414L130.491 108.876H118.905ZM118.903 113.043H134.383C135.152 113.043 135.858 112.62 136.22 111.942C136.583 111.265 136.543 110.443 136.117 109.804L127.533 96.9283C129.601 95.9173 131.926 95.3498 134.383 95.3498C143.008 95.3498 150 102.342 150 110.967C150 119.591 143.008 126.583 134.383 126.583C126.462 126.583 119.918 120.686 118.903 113.043ZM65.6169 95.3498C67.6923 95.3498 69.6731 95.7546 71.4847 96.4897L63.8062 109.927C63.2353 110.926 63.5824 112.199 64.5814 112.77C65.5804 113.34 66.853 112.993 67.4238 111.994L75.1014 98.5588C78.8294 101.413 81.2337 105.909 81.2337 110.967C81.2337 119.591 74.2418 126.583 65.6169 126.583C56.992 126.583 50.0001 119.591 50.0001 110.967C50.0001 102.342 56.992 95.3498 65.6169 95.3498ZM82.1671 86.1937L81.2658 87.7709L103.085 107.532L113.193 86.1937L82.1671 86.1937Z" fill="black"/>
</svg>
