<svg width="200" height="201" viewBox="0 0 200 201" fill="none" xmlns="http://www.w3.org/2000/svg">
<rect x="30.7287" y="170.003" width="138.54" height="138.54" rx="8.85404" transform="rotate(-90 30.7287 170.003)" fill="white" stroke="#13141A" stroke-width="1.04165"/>
<rect x="35.4161" y="165.316" width="129.165" height="129.165" rx="4.16661" transform="rotate(-90 35.4161 165.316)" fill="#1071AF"/>
<path d="M79.1655 81.9842L120.832 81.9842L99.9986 48.6514L79.1655 81.9842Z" fill="white"/>
<path d="M79.1655 119.482L120.832 119.482L99.9985 152.815L79.1655 119.482Z" fill="white"/>
<rect x="91.6653" y="125.732" width="47.916" height="16.6664" transform="rotate(-90 91.6653 125.732)" fill="white"/>
<path fill-rule="evenodd" clip-rule="evenodd" d="M164.581 43.1762L42.442 165.315H39.5827C37.2816 165.315 35.4161 163.45 35.4161 161.149V158.29L157.555 36.1504H160.414C162.715 36.1504 164.581 38.0158 164.581 40.317V43.1762Z" fill="#FF0E00"/>
</svg>
