<svg width="204" height="201" viewBox="0 0 204 201" fill="none" xmlns="http://www.w3.org/2000/svg">
<rect x="202.518" y="41.4421" width="117.707" height="201.039" rx="8.85404" transform="rotate(90 202.518 41.4421)" fill="white" stroke="#13141A" stroke-width="1.04165"/>
<rect x="197.83" y="46.1289" width="108.332" height="191.664" rx="4.16661" transform="rotate(90 197.83 46.1289)" fill="#1071AF"/>
<path d="M88.4571 79.4613L115.54 79.4613L101.999 56.5449L88.4571 79.4613Z" fill="white"/>
<path d="M23.8747 79.4613L50.9576 79.4613L37.4162 56.5449L23.8747 79.4613Z" fill="white"/>
<path d="M101.998 79.4609V154.46" stroke="white" stroke-width="10.4165"/>
<path d="M166.581 79.4609V154.46" stroke="white" stroke-width="10.4165"/>
<path d="M37.4161 79.4609V154.46" stroke="white" stroke-width="10.4165"/>
<path d="M153.039 79.4613L180.122 79.4613L166.581 56.5449L153.039 79.4613Z" fill="white"/>
<path fill-rule="evenodd" clip-rule="evenodd" d="M68.6657 46.1289H70.7491V58.1663H68.6657V46.1289ZM70.7491 62.1785H68.6657V74.2159H70.7491V62.1785ZM68.6657 78.2275H70.7491V90.2649H68.6657V78.2275ZM68.6657 94.2769H70.7491V106.314H68.6657V94.2769ZM70.7491 110.325H68.6657V122.363H70.7491V110.325ZM68.6657 126.375H70.7491V138.412H68.6657V126.375ZM70.7491 142.425H68.6657V154.462H70.7491V142.425Z" fill="white"/>
<path fill-rule="evenodd" clip-rule="evenodd" d="M133.248 46.1289H135.331V58.1663H133.248V46.1289ZM135.331 62.1785H133.248V74.2159H135.331V62.1785ZM133.248 78.2275H135.331V90.2649H133.248V78.2275ZM133.248 94.2769H135.331V106.314H133.248V94.2769ZM135.331 110.325H133.248V122.363H135.331V110.325ZM133.248 126.375H135.331V138.412H133.248V126.375ZM135.331 142.425H133.248V154.462H135.331V142.425Z" fill="white"/>
<circle cx="101.999" cy="112.795" r="17.1872" fill="white" stroke="#FF0E00" stroke-width="3.12495"/>
<path d="M96.3875 118.58C99.187 118.58 101.116 117.189 101.116 115.171V115.154C101.116 113.633 99.9845 112.51 98.4139 112.2V112.151C99.7648 111.818 100.692 110.833 100.692 109.58V109.564C100.692 107.749 98.9184 106.431 96.3875 106.431C93.8485 106.431 92.0826 107.749 92.0826 109.564V109.58C92.0826 110.833 93.0022 111.818 94.3612 112.151V112.2C92.7824 112.51 91.6513 113.633 91.6513 115.154V115.171C91.6513 117.189 93.5881 118.58 96.3875 118.58ZM96.3875 111.411C95.2808 111.411 94.5077 110.752 94.5077 109.808V109.791C94.5077 108.856 95.2889 108.205 96.3875 108.205C97.4861 108.205 98.2592 108.856 98.2592 109.791V109.808C98.2592 110.752 97.4943 111.411 96.3875 111.411ZM96.3875 116.79C95.1017 116.79 94.1984 116.041 94.1984 115.008V114.992C94.1984 113.95 95.0936 113.193 96.3875 113.193C97.6815 113.193 98.5685 113.95 98.5685 114.992V115.008C98.5685 116.041 97.6652 116.79 96.3875 116.79ZM107.552 118.58C110.531 118.58 112.337 116.245 112.337 112.51V112.493C112.337 108.758 110.531 106.431 107.552 106.431C104.574 106.431 102.767 108.758 102.767 112.493V112.51C102.767 116.245 104.574 118.58 107.552 118.58ZM107.552 116.611C106.088 116.611 105.249 115.089 105.249 112.51V112.493C105.249 109.914 106.088 108.4 107.552 108.4C109.017 108.4 109.855 109.914 109.855 112.493V112.51C109.855 115.089 109.017 116.611 107.552 116.611Z" fill="black"/>
<circle cx="166.581" cy="112.795" r="17.1872" fill="white" stroke="#FF0E00" stroke-width="3.12495"/>
<path d="M161.076 118.58C163.761 118.58 165.617 116.912 165.617 114.454V114.438C165.617 112.225 164.005 110.622 161.776 110.622C160.587 110.622 159.619 111.102 159.131 111.891H159.082L159.367 108.587H164.909V106.634H157.414L156.877 113.527H159.017C159.155 113.283 159.342 113.055 159.578 112.876C159.977 112.558 160.49 112.379 161.092 112.379C162.362 112.379 163.265 113.25 163.273 114.487V114.503C163.273 115.757 162.37 116.635 161.084 116.635C159.953 116.635 159.131 115.952 158.96 115.065L158.944 115.008H156.673L156.681 115.13C156.828 117.091 158.52 118.58 161.076 118.58ZM171.956 118.58C174.934 118.58 176.741 116.245 176.741 112.51V112.493C176.741 108.758 174.934 106.431 171.956 106.431C168.977 106.431 167.171 108.758 167.171 112.493V112.51C167.171 116.245 168.977 118.58 171.956 118.58ZM171.956 116.611C170.491 116.611 169.653 115.089 169.653 112.51V112.493C169.653 109.914 170.491 108.4 171.956 108.4C173.421 108.4 174.259 109.914 174.259 112.493V112.51C174.259 115.089 173.421 116.611 171.956 116.611Z" fill="black"/>
<circle cx="37.4162" cy="112.795" r="17.1872" fill="white" stroke="#FF0E00" stroke-width="3.12495"/>
<path d="M27.5274 118.835H29.6148V106.754H27.5204L24.9164 108.923V111.166L27.4855 109.073H27.5274V118.835Z" fill="black"/>
<path d="M36.1421 119.045C38.6973 119.045 40.2471 116.642 40.2471 112.799V112.782C40.2471 108.939 38.6973 106.545 36.1421 106.545C33.5869 106.545 32.0371 108.939 32.0371 112.782V112.799C32.0371 116.642 33.5869 119.045 36.1421 119.045ZM36.1421 117.019C34.8855 117.019 34.1664 115.453 34.1664 112.799V112.782C34.1664 110.128 34.8855 108.571 36.1421 108.571C37.3987 108.571 38.1178 110.128 38.1178 112.782V112.799C38.1178 115.453 37.3987 117.019 36.1421 117.019Z" fill="black"/>
<path d="M45.811 119.045C48.3662 119.045 49.916 116.642 49.916 112.799V112.782C49.916 108.939 48.3662 106.545 45.811 106.545C43.2558 106.545 41.706 108.939 41.706 112.782V112.799C41.706 116.642 43.2558 119.045 45.811 119.045ZM45.811 117.019C44.5543 117.019 43.8353 115.453 43.8353 112.799V112.782C43.8353 110.128 44.5543 108.571 45.811 108.571C47.0676 108.571 47.7867 110.128 47.7867 112.782V112.799C47.7867 115.453 47.0676 117.019 45.811 117.019Z" fill="black"/>
</svg>
