<svg width="200" height="200" viewBox="0 0 200 200" fill="none" xmlns="http://www.w3.org/2000/svg">
<path d="M67.1875 180.311V21.0329C73.3044 18.1997 78.1996 17.2726 82.4563 17.1931C87.4169 17.1005 91.8772 18.1273 97.4267 19.4439L97.6271 19.4914L97.6433 19.4953C102.996 20.7655 109.306 22.2626 116.655 22.2195C121.631 22.1903 126.946 21.465 132.812 19.684V179.194C126.098 181.914 120.698 182.784 116.052 182.812C110.649 182.843 105.934 181.756 100.423 180.449L100.118 180.377L100.099 180.372C94.8111 179.117 88.66 177.657 81.662 177.788C77.1184 177.872 72.3523 178.615 67.1875 180.311Z" fill="white" stroke="#13141A" stroke-width="1.04167"/>
<path fill-rule="evenodd" clip-rule="evenodd" d="M133.333 18.9772C127.247 20.8956 121.766 21.6682 116.652 21.6982C109.365 21.7409 103.106 20.2558 97.7475 18.9842L97.7475 18.9842L97.5471 18.9366C92.0054 17.6219 87.483 16.5779 82.4467 16.6719C78.0429 16.7541 72.9857 17.729 66.6667 20.7008V46.5313L133.333 46.5313V18.9772ZM133.334 73.2379L66.6669 73.2379V105.287L133.334 105.287V73.2379ZM66.6669 131.994H133.334L133.334 164.044H66.6669L66.6669 131.994Z" fill="#05081B"/>
</svg>
