<svg width="200" height="201" viewBox="0 0 200 201" fill="none" xmlns="http://www.w3.org/2000/svg">
<rect x="-0.520833" y="-0.520833" width="101.042" height="196.875" rx="8.85417" transform="matrix(4.37114e-08 1 1 -4.37114e-08 2.08337 50.334)" fill="white" stroke="#13141A" stroke-width="1.04167"/>
<rect x="0.520833" y="0.520833" width="90.625" height="186.458" rx="3.64583" transform="matrix(4.37114e-08 1 1 -4.37114e-08 6.25 54.5)" stroke="black" stroke-width="1.04167"/>
<path fill-rule="evenodd" clip-rule="evenodd" d="M38.542 93.1928V83.667L12.5 100.334L38.542 117V107.479L64.5827 107.479V93.1928H38.542Z" fill="black"/>
<path d="M105.513 113.206V120.471H77.0834C77.3912 117.725 78.3149 115.127 79.8542 112.677C81.3936 110.21 84.4338 106.944 88.9749 102.88C92.6309 99.5957 94.8726 97.3691 95.7 96.2001C96.8161 94.5857 97.3741 92.9899 97.3741 91.4127C97.3741 89.6685 96.8834 88.3325 95.9021 87.4047C94.94 86.4584 93.6026 85.9852 91.8901 85.9852C90.1968 85.9852 88.8499 86.4769 87.8493 87.4604C86.8487 88.4438 86.2714 90.0767 86.1175 92.3591L78.0359 91.5797C78.5169 87.2748 80.0274 84.1853 82.5673 82.3112C85.1073 80.4371 88.2822 79.5 92.0921 79.5C96.2677 79.5 99.5484 80.5855 101.934 82.7565C104.32 84.9275 105.513 87.6274 105.513 90.856C105.513 92.6931 105.167 94.4466 104.474 96.1166C103.801 97.768 102.723 99.503 101.242 101.321C100.26 102.528 98.4901 104.262 95.9309 106.526C93.3717 108.79 91.7458 110.293 91.0531 111.035C90.3796 111.778 89.8312 112.501 89.4079 113.206H105.513Z" fill="black"/>
<path d="M111.142 109.978L119.223 109.17C119.454 110.933 120.137 112.334 121.273 113.373C122.408 114.394 123.716 114.904 125.198 114.904C126.891 114.904 128.325 114.245 129.499 112.928C130.672 111.592 131.259 109.588 131.259 106.916C131.259 104.411 130.672 102.537 129.499 101.294C128.344 100.032 126.834 99.4009 124.967 99.4009C122.639 99.4009 120.551 100.394 118.704 102.379L112.123 101.461L116.279 80.2237H137.725V87.5439H122.427L121.157 94.4744C122.966 93.6023 124.813 93.1662 126.699 93.1662C130.297 93.1662 133.347 94.428 135.848 96.9516C138.35 99.4751 139.601 102.75 139.601 106.777C139.601 110.135 138.59 113.132 136.57 115.767C133.818 119.367 129.999 121.167 125.111 121.167C121.205 121.167 118.021 120.155 115.558 118.133C113.095 116.11 111.623 113.392 111.142 109.978Z" fill="black"/>
<path d="M145.893 90.9117H155.937L163.557 111.508L171.235 90.9117H181.25V120.471H174.352V101.015L166.876 120.471H159.949L152.82 101.015V120.471H145.893V90.9117Z" fill="black"/>
</svg>
