<svg width="200" height="201" viewBox="0 0 200 201" fill="none" xmlns="http://www.w3.org/2000/svg">
<rect x="146.354" y="199.104" width="92.7084" height="196.875" rx="8.85417" transform="rotate(-180 146.354 199.104)" fill="white" stroke="#13141A" stroke-width="1.04167"/>
<rect x="141.146" y="193.895" width="82.2917" height="186.458" rx="3.64583" transform="rotate(-180 141.146 193.895)" stroke="black" stroke-width="1.04167"/>
<path fill-rule="evenodd" clip-rule="evenodd" d="M93.2129 46.4257L83.3334 46.4257L100.619 19.416L117.905 46.4257L108.029 46.4257L108.029 77.7482L93.2129 77.7482L93.2129 46.4257Z" fill="black"/>
<path d="M90.5506 139.484H81.9473V107.061C78.8039 110 75.0993 112.174 70.8334 113.582V105.775C73.0786 105.04 75.5177 103.652 78.1508 101.611C80.7838 99.5494 82.5902 97.1511 83.57 94.416H90.5506V139.484Z" fill="black"/>
<path d="M114.75 94.416C119.098 94.416 122.496 95.9673 124.945 99.0698C127.864 102.744 129.324 108.837 129.324 117.348C129.324 125.839 127.854 131.942 124.915 135.657C122.486 138.719 119.098 140.249 114.75 140.249C110.382 140.249 106.861 138.576 104.187 135.228C101.513 131.86 100.177 125.87 100.177 117.256C100.177 108.806 101.646 102.723 104.585 99.0085C107.014 95.9469 110.403 94.416 114.75 94.416ZM114.75 101.55C113.709 101.55 112.78 101.887 111.964 102.56C111.148 103.213 110.515 104.397 110.066 106.112C109.474 108.336 109.178 112.082 109.178 117.348C109.178 122.614 109.443 126.237 109.974 128.217C110.505 130.176 111.168 131.483 111.964 132.136C112.78 132.789 113.709 133.116 114.75 133.116C115.791 133.116 116.72 132.789 117.536 132.136C118.353 131.462 118.985 130.268 119.434 128.554C120.026 126.349 120.322 122.614 120.322 117.348C120.322 112.082 120.057 108.469 119.526 106.51C118.996 104.53 118.322 103.213 117.506 102.56C116.71 101.887 115.791 101.55 114.75 101.55Z" fill="black"/>
<path d="M85.4166 154.833H93.6087L99.8234 172.253L106.085 154.833H114.254V179.833H108.628V163.378L102.531 179.833H96.8808L91.0663 163.378V179.833H85.4166V154.833Z" fill="black"/>
</svg>
