<svg width="200" height="201" viewBox="0 0 200 201" fill="none" xmlns="http://www.w3.org/2000/svg">
<rect x="36.9792" y="12.6462" width="126.042" height="176.042" rx="8.85417" fill="white" stroke="#1A1A2C" stroke-width="1.04167"/>
<rect x="41.6667" y="17.334" width="116.667" height="166.667" rx="4.16667" fill="#1071AF"/>
<rect x="50" y="34" width="100" height="100" rx="4.16667" fill="white"/>
<path d="M89.3395 143.661L86.433 143.994C86.3617 143.371 86.1765 142.911 85.8773 142.615C85.5781 142.318 85.1899 142.17 84.7126 142.17C84.0786 142.17 83.5407 142.466 83.099 143.06C82.6645 143.653 82.3902 144.888 82.2762 146.765C83.0242 145.845 83.9539 145.385 85.0652 145.385C86.319 145.385 87.3911 145.882 88.2816 146.876C89.1792 147.87 89.628 149.153 89.628 150.726C89.628 152.394 89.1578 153.733 88.2175 154.742C87.2771 155.751 86.0697 156.255 84.595 156.255C83.0136 156.255 81.7135 155.617 80.6948 154.341C79.6761 153.058 79.1667 150.959 79.1667 148.044C79.1667 145.055 79.6974 142.9 80.7589 141.58C81.8203 140.26 83.1988 139.6 84.8942 139.6C86.0839 139.6 87.067 139.948 87.8435 140.645C88.6271 141.335 89.1258 142.34 89.3395 143.661ZM82.5327 150.481C82.5327 151.497 82.7571 152.283 83.2059 152.839C83.6547 153.388 84.1676 153.663 84.7446 153.663C85.3003 153.663 85.7633 153.437 86.1338 152.984C86.5042 152.532 86.6894 151.79 86.6894 150.759C86.6894 149.698 86.49 148.923 86.091 148.434C85.6921 147.937 85.1934 147.688 84.595 147.688C84.018 147.688 83.53 147.926 83.1311 148.4C82.7322 148.868 82.5327 149.561 82.5327 150.481Z" fill="white"/>
<path d="M94.2738 147.176C93.4973 146.835 92.9309 146.368 92.5747 145.775C92.2257 145.174 92.0512 144.517 92.0512 143.805C92.0512 142.589 92.4572 141.584 93.2693 140.79C94.0886 139.996 95.2497 139.6 96.7528 139.6C98.2417 139.6 99.3958 139.996 100.215 140.79C101.041 141.584 101.455 142.589 101.455 143.805C101.455 144.562 101.266 145.237 100.888 145.83C100.511 146.416 99.9799 146.865 99.296 147.176C100.165 147.54 100.824 148.07 101.273 148.767C101.729 149.465 101.957 150.269 101.957 151.182C101.957 152.687 101.494 153.911 100.568 154.853C99.6487 155.795 98.4234 156.266 96.8918 156.266C95.467 156.266 94.2809 155.877 93.3334 155.098C92.215 154.178 91.6558 152.917 91.6558 151.315C91.6558 150.433 91.8659 149.624 92.2862 148.89C92.7065 148.148 93.3691 147.577 94.2738 147.176ZM94.8935 144.028C94.8935 144.651 95.0609 145.137 95.3958 145.485C95.7377 145.834 96.1901 146.008 96.7528 146.008C97.3227 146.008 97.7787 145.834 98.1206 145.485C98.4626 145.129 98.6335 144.64 98.6335 144.017C98.6335 143.431 98.4626 142.963 98.1206 142.615C97.7858 142.259 97.3406 142.081 96.7849 142.081C96.2079 142.081 95.7484 142.259 95.4065 142.615C95.0645 142.971 94.8935 143.442 94.8935 144.028ZM94.6157 151.015C94.6157 151.875 94.8259 152.547 95.2462 153.029C95.6736 153.511 96.2043 153.752 96.8383 153.752C97.4581 153.752 97.971 153.522 98.3771 153.062C98.7831 152.595 98.9861 151.923 98.9861 151.048C98.9861 150.284 98.7796 149.672 98.3664 149.212C97.9532 148.745 97.4296 148.511 96.7956 148.511C96.0618 148.511 95.5133 148.775 95.15 149.301C94.7938 149.828 94.6157 150.399 94.6157 151.015Z" fill="white"/>
<path d="M104.871 155.977V152.851H107.874V155.977H104.871Z" fill="white"/>
<path d="M115.747 139.6C117.264 139.6 118.45 140.163 119.305 141.291C120.324 142.626 120.833 144.84 120.833 147.933C120.833 151.019 120.32 153.236 119.295 154.586C118.447 155.699 117.264 156.255 115.747 156.255C114.223 156.255 112.994 155.647 112.06 154.43C111.127 153.207 110.661 151.03 110.661 147.9C110.661 144.829 111.174 142.618 112.199 141.269C113.047 140.156 114.23 139.6 115.747 139.6ZM115.747 142.192C115.384 142.192 115.06 142.314 114.775 142.559C114.49 142.796 114.269 143.227 114.112 143.85C113.906 144.658 113.802 146.019 113.802 147.933C113.802 149.847 113.895 151.163 114.08 151.883C114.265 152.595 114.497 153.069 114.775 153.307C115.06 153.544 115.384 153.663 115.747 153.663C116.11 153.663 116.434 153.544 116.719 153.307C117.004 153.062 117.225 152.628 117.382 152.005C117.589 151.204 117.692 149.847 117.692 147.933C117.692 146.019 117.599 144.706 117.414 143.994C117.229 143.275 116.994 142.796 116.709 142.559C116.431 142.314 116.11 142.192 115.747 142.192Z" fill="white"/>
<path d="M79.1667 177.606V161.863H83.7818L86.553 172.602L89.2929 161.863H93.9184V177.606H91.0535V165.214L88.0219 177.606H85.0528L82.0316 165.214V177.606H79.1667Z" fill="white"/>
<path d="M97.4789 161.863H107.824V164.505H100.563V177.606H97.4789V161.863Z" fill="white"/>
<path d="M109.645 166.202H112.572V175.169H116.75V166.202H119.677V175.169H120.833V180.613H118.469V177.606H109.645V166.202Z" fill="white"/>
<path d="M66.789 108.717V92.2073H73.0988C74.6855 92.2073 75.8367 92.3575 76.5524 92.6578C77.2749 92.9506 77.8522 93.4761 78.2843 94.2344C78.7164 94.9926 78.9325 95.8598 78.9325 96.8358C78.9325 98.0745 78.605 99.0993 77.9501 99.9101C77.2951 100.713 76.3161 101.22 75.0129 101.43C75.6611 101.851 76.1945 102.313 76.6132 102.816C77.0385 103.319 77.6091 104.212 78.3248 105.496L80.1377 108.717H76.5524L74.385 105.124C73.6153 103.84 73.0886 103.033 72.805 102.703C72.5215 102.365 72.221 102.136 71.9036 102.016C71.5863 101.888 71.0833 101.825 70.3946 101.825H69.7869V108.717H66.789ZM69.7869 99.1894H72.0049C73.4431 99.1894 74.3411 99.1218 74.699 98.9867C75.0568 98.8516 75.337 98.6188 75.5396 98.2885C75.7422 97.9582 75.8434 97.5452 75.8434 97.0497C75.8434 96.4942 75.7084 96.0475 75.4383 95.7096C75.175 95.3643 74.8003 95.1466 74.3141 95.0565C74.071 95.0189 73.3418 95.0002 72.1265 95.0002H69.7869V99.1894Z" fill="black"/>
<path d="M95.6317 108.717H92.3704L91.0741 104.967H85.139L83.9136 108.717H80.7334L86.5165 92.2073H89.6865L95.6317 108.717ZM90.1119 102.185L88.066 96.0587L86.0607 102.185H90.1119Z" fill="black"/>
<path d="M97.6959 92.2073H103.175C104.411 92.2073 105.353 92.3124 106.001 92.5226C106.872 92.8079 107.618 93.3147 108.239 94.0429C108.86 94.7712 109.333 95.6646 109.657 96.7232C109.981 97.7742 110.143 99.073 110.143 100.62C110.143 101.978 109.991 103.15 109.687 104.133C109.316 105.334 108.786 106.307 108.097 107.05C107.577 107.613 106.875 108.052 105.991 108.367C105.329 108.6 104.444 108.717 103.337 108.717H97.6959V92.2073ZM100.694 95.0002V105.935H102.932C103.769 105.935 104.374 105.882 104.745 105.777C105.231 105.642 105.633 105.413 105.95 105.09C106.274 104.768 106.538 104.238 106.74 103.503C106.943 102.759 107.044 101.75 107.044 100.473C107.044 99.1969 106.943 98.2172 106.74 97.534C106.538 96.8508 106.254 96.3177 105.889 95.9349C105.525 95.552 105.062 95.293 104.502 95.1578C104.083 95.0527 103.263 95.0002 102.041 95.0002H100.694Z" fill="black"/>
<path d="M113.078 108.717V92.2073H116.076V108.717H113.078Z" fill="black"/>
<path d="M118.809 100.563C118.809 98.8816 119.035 97.4702 119.488 96.329C119.825 95.4881 120.284 94.7336 120.865 94.0655C121.452 93.3973 122.094 92.9018 122.789 92.5789C123.714 92.1435 124.781 91.9258 125.99 91.9258C128.177 91.9258 129.926 92.6803 131.236 94.1893C132.553 95.6984 133.211 97.7967 133.211 100.484C133.211 103.15 132.559 105.237 131.256 106.746C129.953 108.247 128.211 108.998 126.03 108.998C123.822 108.998 122.067 108.251 120.764 106.757C119.461 105.256 118.809 103.191 118.809 100.563ZM121.898 100.451C121.898 102.32 122.286 103.739 123.063 104.708C123.839 105.668 124.825 106.149 126.02 106.149C127.215 106.149 128.194 105.672 128.957 104.719C129.727 103.758 130.112 102.32 130.112 100.406C130.112 98.5137 129.737 97.1023 128.988 96.1713C128.245 95.2404 127.256 94.7749 126.02 94.7749C124.784 94.7749 123.789 95.2479 123.032 96.1939C122.276 97.1323 121.898 98.5513 121.898 100.451Z" fill="black"/>
<path d="M58 79.5845V59.3471H64.5047C66.9697 59.3471 68.5765 59.4483 69.3251 59.6508C70.4754 59.9545 71.4385 60.6171 72.2145 61.6386C72.9905 62.651 73.3785 63.9624 73.3785 65.5729C73.3785 66.8153 73.1549 67.8599 72.7075 68.7065C72.2602 69.5532 71.6896 70.2204 70.9958 70.7082C70.3111 71.1867 69.6127 71.5043 68.9006 71.6607C67.9328 71.854 66.5315 71.9506 64.6964 71.9506H62.0535V79.5845H58ZM62.0535 62.7706V68.5133H64.2719C65.8696 68.5133 66.9377 68.4074 67.4764 68.1958C68.015 67.9841 68.435 67.6528 68.7362 67.2018C69.0466 66.7509 69.2018 66.2263 69.2018 65.6281C69.2018 64.8919 68.9873 64.2845 68.5582 63.8059C68.1291 63.3274 67.5859 63.0283 66.9286 62.9086C66.4447 62.8166 65.4724 62.7706 64.0117 62.7706H62.0535Z" fill="black"/>
<path d="M92.345 79.5845H87.9354L86.1826 74.9876H78.1578L76.5008 79.5845H72.2008L80.0202 59.3471H84.3065L92.345 79.5845ZM84.8816 71.5779L82.1154 64.0682L79.404 71.5779H84.8816Z" fill="black"/>
<path d="M97.1653 59.3471H111.037V76.1886H112.804V84.002H109.435V79.5845H96.7956V84.002H93.4268V76.1886H95.1249C95.9557 74.4584 96.5034 72.4522 96.7682 70.1698C97.0329 67.8783 97.1653 64.9839 97.1653 61.4868V59.3471ZM101.027 62.743C101.027 68.8906 100.475 73.3725 99.3701 76.1886H106.998V62.743H101.027Z" fill="black"/>
<path d="M115.42 79.5845V59.3471H119.473V79.5845H115.42Z" fill="black"/>
<path d="M122.527 69.59C122.527 67.5285 122.833 65.7984 123.444 64.3995C123.901 63.3688 124.522 62.4439 125.307 61.6248C126.101 60.8057 126.968 60.1983 127.909 59.8026C129.159 59.2688 130.602 59.002 132.236 59.002C135.194 59.002 137.559 59.9269 139.33 61.7767C141.11 63.6265 142 66.1987 142 69.4934C142 72.7605 141.119 75.3189 139.357 77.1687C137.595 79.0093 135.24 79.9296 132.291 79.9296C129.306 79.9296 126.932 79.0139 125.17 77.1825C123.408 75.3419 122.527 72.8111 122.527 69.59ZM126.704 69.452C126.704 71.7435 127.229 73.4829 128.278 74.6701C129.328 75.8481 130.661 76.4371 132.277 76.4371C133.893 76.4371 135.217 75.8527 136.248 74.6839C137.289 73.5059 137.81 71.7435 137.81 69.3968C137.81 67.0776 137.303 65.3474 136.29 64.2063C135.285 63.0651 133.948 62.4945 132.277 62.4945C130.606 62.4945 129.26 63.0743 128.237 64.2339C127.215 65.3842 126.704 67.1236 126.704 69.452Z" fill="black"/>
</svg>
