<svg width="200" height="201" viewBox="0 0 200 201" fill="none" xmlns="http://www.w3.org/2000/svg">
<circle cx="99.9995" cy="100.664" r="82.8125" fill="white" stroke="#05081B" stroke-width="1.04167"/>
<circle cx="99.9993" cy="100.663" r="78.125" fill="#1071AF"/>
<path fill-rule="evenodd" clip-rule="evenodd" d="M85.6141 113.188C83.498 113.188 81.7039 114.744 81.4047 116.838C81.1141 118.873 82.3199 120.824 84.2695 121.474L86.5899 122.247L80.8024 132.375C78.9932 131.561 76.9862 131.107 74.8734 131.107C66.8891 131.107 60.4166 137.58 60.4166 145.564C60.4166 153.548 66.8891 160.021 74.8734 160.021C82.8576 160.021 89.3301 153.548 89.3301 145.564C89.3301 140.688 86.9163 136.376 83.2186 133.758L84.7301 131.113L101.8 146.572C101.903 146.669 102.023 146.752 102.158 146.816C102.367 146.915 102.588 146.957 102.804 146.949H110.733C111.431 154.284 117.608 160.021 125.125 160.021C133.109 160.021 139.581 153.549 139.581 145.564C139.581 137.58 133.109 131.108 125.125 131.108C122.658 131.108 120.336 131.725 118.305 132.814L113.44 125.516V121.479H117.554C118.323 121.479 118.946 120.855 118.946 120.087C118.946 119.318 118.323 118.695 117.554 118.695L112.049 118.695L112.048 118.695L112.046 118.695L105.851 118.695C105.083 118.695 104.459 119.318 104.459 120.087C104.459 120.855 105.083 121.479 105.851 121.479L110.656 121.479V124.545L88.483 124.545L89.8493 122.154C90.0562 121.792 90.0898 121.356 89.941 120.967C89.7922 120.577 89.4765 120.275 89.0809 120.143L85.1498 118.833C84.4766 118.608 84.0602 117.935 84.1605 117.232C84.2639 116.509 84.8834 115.971 85.6141 115.971H92.427C93.1958 115.971 93.8189 115.348 93.8189 114.579C93.8189 113.811 93.1958 113.188 92.427 113.188H85.6141ZM115.989 134.359L112.253 128.756L104.954 144.166H110.735C111.114 140.218 113.081 136.734 115.989 134.359ZM113.535 144.166C113.891 141.182 115.372 138.545 117.542 136.689L122.527 144.166H113.535ZM113.533 146.949H125.127C125.641 146.949 126.112 146.667 126.355 146.214C126.597 145.762 126.57 145.212 126.285 144.785L119.858 135.144C121.44 134.343 123.23 133.891 125.125 133.891C131.571 133.891 136.798 139.118 136.798 145.564C136.798 152.011 131.571 157.237 125.125 157.237C119.147 157.237 114.218 152.743 113.533 146.949ZM74.8734 133.891C76.4835 133.891 78.0175 134.217 79.4129 134.807L73.6639 144.868C73.2825 145.535 73.5144 146.385 74.1819 146.767C74.8493 147.148 75.6996 146.916 76.081 146.249L81.8293 136.189C84.6917 138.316 86.5463 141.724 86.5463 145.564C86.5463 152.011 81.3201 157.237 74.8734 157.237C68.4266 157.237 63.2004 152.011 63.2004 145.564C63.2004 139.117 68.4266 133.891 74.8734 133.891ZM86.8923 127.329L86.1444 128.638L102.299 143.268L109.849 127.329H86.8923Z" fill="white"/>
<path fill-rule="evenodd" clip-rule="evenodd" d="M132.519 48.8353C133.87 49.4457 135.118 50.7771 135.611 51.5221L140.561 57.2011L151.142 69.7842C152.236 70.6327 152.327 74.3357 151.67 75.7626L148.89 84.9555C148.684 85.7057 146.85 87.8651 145.922 87.8719L142.783 88.149C141.802 84.0613 138.727 80.5213 134.487 79.3218C130.247 78.1223 126.006 79.5923 123.126 82.5877C120.901 84.7409 120.43 87.4753 119.925 90.4112L119.869 90.7375C119.87 90.7792 119.853 90.8179 119.836 90.8567C119.819 90.8955 119.803 90.9343 119.803 90.976L95.2547 91.1577L76.8 90.9905C76.8401 85.7406 73.3303 80.809 68.1318 79.3383C61.9482 77.5888 55.5882 81.3326 53.8664 87.6075C53.8358 87.7188 53.803 87.8267 53.7705 87.9334C53.7065 88.1437 53.6436 88.3501 53.6024 88.5693L51.7079 88.0333C50.7792 88.0401 48.9996 86.8028 48.8877 85.291L48.0036 75.9696C47.4573 73.1243 49.618 71.7828 50.8654 71.5968L71.2202 67.6374L75.5697 66.6664C76.882 66.2292 79.2226 65.4072 79.7434 64.4766L89.5033 51.6905C90.4414 50.2063 92.3469 48.3657 95.1884 48.6348L106.906 48.7119L131.184 48.582C131.619 48.5725 132.068 48.6332 132.519 48.8353ZM128.173 53.0496C127.442 52.7619 126.644 52.7696 125.735 52.7783C125.477 52.7808 125.209 52.7834 124.932 52.7793L105.75 52.9247L97.1053 52.8089C94.6867 52.9331 92.8157 54.6177 91.3729 56.4981L87.0435 63.4366C85.7557 65.2281 86.3073 68.9621 89.3773 68.8895L101.334 69.0342L127.516 68.925C133.273 69.2104 134.247 64.7224 132.784 61.3483L130.708 56.3578C129.943 54.3215 129.114 53.4153 128.173 53.0496Z" fill="white"/>
<path fill-rule="evenodd" clip-rule="evenodd" d="M67.6395 80.7561C72.9403 82.2558 76.1861 87.8963 74.7091 93.2786C73.2322 98.6609 67.5842 101.789 62.2796 100.289C56.9788 98.789 53.8629 93.1811 55.3399 87.7988C56.8168 82.4165 62.3387 79.2565 67.6395 80.7561ZM66.4444 85.1112C63.4928 84.2762 60.5829 86.0566 59.7616 89.0497C58.9402 92.0429 60.5279 95.0957 63.4757 95.9297C66.4236 96.7637 69.466 95.0208 70.2873 92.0276C71.1087 89.0345 69.396 85.9463 66.4444 85.1112Z" fill="white"/>
<path fill-rule="evenodd" clip-rule="evenodd" d="M141.378 93.1685C142.855 87.7861 139.61 82.1456 134.309 80.646C129.008 79.1463 123.486 82.3063 122.009 87.6886C120.532 93.0709 123.644 98.6778 128.949 100.179C134.253 101.679 139.901 98.5508 141.378 93.1685ZM126.431 88.9396C127.252 85.9464 130.166 84.1671 133.114 85.0011C136.061 85.8351 137.778 88.9243 136.957 91.9175C136.135 94.9107 133.093 96.6536 130.145 95.8196C127.197 94.9856 125.608 91.9366 126.431 88.9396Z" fill="white"/>
<path d="M154.167 46.4971L45.8333 154.83" stroke="#FF0E00" stroke-width="12.5"/>
</svg>
