<svg width="200" height="201" viewBox="0 0 200 201" fill="none" xmlns="http://www.w3.org/2000/svg">
<rect x="30.7287" y="30.9968" width="138.54" height="138.54" rx="8.85404" fill="white" stroke="#13141A" stroke-width="1.04165"/>
<rect x="35.4161" y="35.6836" width="129.165" height="129.165" rx="4.16661" fill="#1071AF"/>
<path d="M68.749 54.4336H105.622C110.432 54.4336 114.685 55.3248 118.381 57.1071C122.077 58.8894 125.172 61.2257 127.666 64.1159C130.204 66.958 132.119 70.1614 133.411 73.726C134.747 77.2906 135.415 80.8794 135.415 84.4922C135.415 88.2977 134.747 92.0309 133.411 95.6919C132.119 99.3047 130.204 102.532 127.666 105.374C125.128 108.168 122.01 110.432 118.314 112.166C114.618 113.852 110.387 114.695 105.622 114.695H84.5136V146.099H68.749V54.4336ZM84.5136 100.389H102.282C105.533 100.389 108.25 99.9791 110.432 99.1602C112.658 98.2931 114.44 97.137 115.776 95.6919C117.156 94.2468 118.136 92.5608 118.715 90.6339C119.338 88.6589 119.65 86.5394 119.65 84.2754C119.65 82.0595 119.271 80.0123 118.514 78.1336C117.757 76.2068 116.644 74.569 115.174 73.2202C113.705 71.8233 111.879 70.7394 109.697 69.9687C107.559 69.1979 105.088 68.8126 102.282 68.8126H84.5136V100.389Z" fill="white"/>
</svg>
