<svg width="200" height="201" viewBox="0 0 200 201" fill="none" xmlns="http://www.w3.org/2000/svg">
<circle cx="100" cy="101" r="82.8125" fill="white" stroke="#05081B" stroke-width="1.04167"/>
<circle cx="99.9999" cy="100.999" r="78.125" fill="#1071AF"/>
<path d="M98.2297 48.916C97.6039 48.9169 97.0613 49.0413 96.6824 49.3514C96.2969 49.6674 96.0239 50.0675 95.7147 50.4062C94.7605 51.451 94.8823 53.3135 95.3376 54.5003C96.207 56.7671 97.4569 56.8713 97.7635 57.5084C98.0852 58.1749 98.1894 57.7858 98.3271 59.5609C98.3918 60.3989 97.582 61.431 97.5535 62.2707C97.5006 63.8037 98.569 67.254 98.569 67.254L100.02 74.1242L90.9772 80.1237C87.7969 76.465 79.8951 64.2265 73.5204 60.8267C72.6107 60.3409 72.9996 57.1932 71.9698 57.0983C71.0113 57.0108 70.9912 60.2451 69.3725 60.1745C67.7538 60.1039 67.674 57.1529 66.582 57.2193C65.5581 57.2823 66.2024 59.4676 65.5858 61.6613C64.8466 65.9983 62.4308 67.8432 60.7802 69.5914C57.9032 72.6374 53.7385 74.7411 54.2022 76.5701C54.5415 77.909 55.5756 80.9709 56.7062 80.9406C59.9528 80.8541 67.8597 76.1027 68.4712 77.5694C71.0777 83.8219 70.8618 90.5753 70.8618 90.5753C71.4901 93.6843 74.0613 101.927 73.6321 106.097C73.0744 111.509 61.0154 118.336 60.7903 121.775C60.7214 122.831 67.8109 145.408 69.4204 145.513C71.3381 145.637 74.3201 145.782 74.0118 144.142C71.0449 128.379 68.7282 124.52 69.538 123.875L76.4713 118.346C76.5057 118.484 82.2311 132.781 85.5794 145.504C86.0808 147.042 90.5782 146.831 90.5857 144.08C90.605 137.215 85.4483 118.562 86.2673 118.741C88.542 119.237 90.9956 119.537 92.4774 119.026C96.9109 117.492 107.213 116.781 110.707 117.527C113.032 118.022 114.249 121.018 115.544 124.058C115.544 124.058 108.989 137.802 106.811 142.868C106.446 143.717 107.15 145.293 108.537 146.225C110.304 147.41 111.975 146.601 112.488 145.997C115.24 142.763 121.447 129.679 121.447 129.679C121.447 129.679 129.764 140.134 133.629 145.161C134.105 145.782 136.345 147.208 138.33 145.741C140.355 144.244 139.768 143.029 139.335 142.315C135.77 136.41 125.747 120.137 125.747 120.137C125.747 120.137 137.998 111.18 133.629 98.0246C132.735 99.0029 134.502 97.4102 137.691 99.8636C140.91 102.341 142.885 106.414 144.299 108.848C145.716 111.282 149.79 116.852 152.341 117.089C153.282 117.176 154.935 117.253 156.24 116.748C157.856 116.121 158.87 113.789 158.033 112.948C155.039 109.941 152.934 107.515 149.152 102.089C146.963 98.9491 141.251 94.7349 138.271 93.912C136.449 93.4086 132.179 92.6059 132.179 92.6059C127.472 89.3481 119.961 85.6062 113.997 89.7995L111.774 89.7028C113.827 83.5487 115.02 84.2362 116.639 76.4852C117.408 72.8013 107.136 61.1671 103.166 58.2052C101.622 57.0537 103.052 53.369 102.829 51.5762C102.641 50.123 100.108 48.9135 98.2297 48.916ZM103.354 79.1563L101.324 89.7037L96.9722 89.6558C96.9722 89.6558 95.3871 86.946 93.3938 83.8017L103.354 79.1563Z" fill="white"/>
</svg>
