<svg width="200" height="201" viewBox="0 0 200 201" fill="none" xmlns="http://www.w3.org/2000/svg">
<rect x="30.7287" y="31.0387" width="138.54" height="138.54" rx="8.85404" fill="white" stroke="#13141A" stroke-width="1.04165"/>
<rect x="35.4161" y="35.7266" width="129.165" height="129.165" rx="4.16661" fill="#1071AF"/>
<path d="M120.832 81.5584L79.1655 81.5584L99.9985 48.2256L120.832 81.5584Z" fill="white"/>
<rect x="91.6653" y="81.5596" width="16.6664" height="83.3321" fill="white"/>
<path fill-rule="evenodd" clip-rule="evenodd" d="M131.248 110.726H135.415V125.499H131.248V110.726ZM131.248 130.421H135.415V145.194H131.248V130.421ZM135.415 150.119H131.248V164.892H135.415V150.119Z" fill="white"/>
<path fill-rule="evenodd" clip-rule="evenodd" d="M64.5824 110.726H68.7492V125.499H64.5824V110.726ZM64.5824 130.421H68.7492V145.194H64.5824V130.421ZM68.7492 150.119H64.5824V164.892H68.7492V150.119Z" fill="white"/>
</svg>
