<svg width="200" height="200" viewBox="0 0 200 200" fill="none" xmlns="http://www.w3.org/2000/svg">
<path d="M25.6863 169.272H174.314C181.678 169.272 186.263 161.299 182.525 154.97L108.211 29.1576C104.527 22.921 95.4727 22.921 91.7889 29.1576L17.4753 154.97C13.7367 161.299 18.3214 169.272 25.6863 169.272Z" fill="#FF0E00" stroke="black" stroke-width="1.04167"/>
<path d="M174.314 166.668H25.6863C20.3188 166.668 17.0139 160.871 19.7175 156.294L94.0312 30.482C96.707 25.9518 103.293 25.9518 105.969 30.482L180.282 156.294C182.986 160.871 179.681 166.668 174.314 166.668Z" fill="#FF0E00" stroke="white" stroke-width="4.16667"/>
<path fill-rule="evenodd" clip-rule="evenodd" d="M164.062 154.168L99.9999 45.4307L35.9374 154.168H164.062Z" fill="white"/>
<path fill-rule="evenodd" clip-rule="evenodd" d="M105.152 73.1619C107.18 75.5395 106.73 79.3169 103.72 81.9337C100.71 84.5506 96.6258 84.7444 94.5969 82.3671C92.5681 79.9895 92.9167 74.9895 95.9264 72.3727C98.9362 69.7559 103.123 70.7842 105.152 73.1619ZM107.583 92.9177V110.571C107.583 111.712 107.074 112.792 106.197 113.511L90.7937 125.59C89.8807 126.339 89.1953 127.333 88.8164 128.457L82.7875 146.349C82.1223 148.323 79.9866 149.366 78.0407 148.668C76.11 147.975 75.1038 145.831 75.7952 143.884L82.9353 123.78C83.2764 122.819 83.8432 121.956 84.5871 121.265L97.2143 108.846V92.4394C97.2143 90.4795 98.1161 88.6306 99.6552 87.4354L104.204 84.4271C105.012 83.7995 106.128 83.9098 106.808 84.6019L120.347 93.76C121.073 94.2514 121.532 95.0556 121.588 95.9363L122.417 109.424C122.509 110.856 121.303 112.028 119.889 111.88C118.819 111.768 117.97 110.922 117.844 109.844L116.495 97.6959L107.583 92.9177ZM100.661 121.265L107.583 115.932L122.322 143.325C123.353 144.979 122.876 147.162 121.252 148.224C119.657 149.269 117.529 148.855 116.433 147.285L100.661 121.265ZM94.5562 104.958V96.7513L82.6424 107.948C81.6994 108.834 81.6195 110.314 82.4618 111.299C83.285 112.261 84.7056 112.416 85.7131 111.653L94.5562 104.958ZM66.2668 150L70.4615 135.769H60.9567L52.0833 150H66.2668ZM135.816 150L131.622 135.769H141.126L150 150H135.816ZM94.967 135.769H105.033L107.292 150H92.7083L94.967 135.769Z" fill="#05081B"/>
</svg>
