<svg width="200" height="201" viewBox="0 0 200 201" fill="none" xmlns="http://www.w3.org/2000/svg">
<circle cx="100" cy="100.334" r="82.8125" fill="white" stroke="#05081B" stroke-width="1.04167"/>
<circle cx="100" cy="100.332" r="71.875" stroke="#FF0E00" stroke-width="12.5"/>
<path d="M94.0546 60.837C90.0767 57.3785 89.4812 52.386 92.1626 49.2436C94.844 46.1012 100.377 44.7421 104.355 48.2007C108.333 51.6592 108.794 58.2675 106.112 61.4099C103.431 64.5519 98.0322 64.2956 94.0546 60.837Z" fill="#05081B"/>
<path d="M88.9491 98.6857V75.3542L77.17 81.6692L75.3876 97.7255C75.2215 99.1502 74.0986 100.268 72.685 100.416C70.8156 100.611 69.2215 99.0622 69.343 97.1694L70.4386 79.3437C70.5133 78.1797 71.1199 77.1168 72.0799 76.4673L89.9739 64.3634C90.8718 63.4488 92.3466 63.3029 93.4147 64.1324L99.4269 68.1084C101.461 69.6879 102.653 72.1316 102.653 74.722V96.4063L119.342 112.82C120.325 113.733 121.074 114.873 121.525 116.143L130.962 142.714C131.875 145.287 130.546 148.121 127.994 149.036C125.422 149.96 122.599 148.581 121.72 145.972L113.752 122.325C113.251 120.839 112.345 119.526 111.139 118.536L90.7813 102.571C89.6222 101.621 88.9491 100.194 88.9491 98.6857Z" fill="#05081B"/>
<path d="M98.098 112.82L88.9491 105.771L69.4686 141.975C68.1068 144.161 68.7369 147.046 70.8829 148.451C72.9916 149.831 75.8042 149.283 77.2524 147.21L98.098 112.82Z" fill="#05081B"/>
<path d="M106.166 80.4208V91.2678L117.854 100.116C119.185 101.124 121.063 100.919 122.151 99.6479C123.264 98.3467 123.158 96.3898 121.912 95.2185L106.166 80.4208Z" fill="#05081B"/>
</svg>
