<svg width="200" height="200" viewBox="0 0 200 200" fill="none" xmlns="http://www.w3.org/2000/svg">
<rect x="1.56254" y="146.355" width="92.7084" height="196.875" rx="8.85417" transform="rotate(-90 1.56254 146.355)" fill="white" stroke="#13141A" stroke-width="1.04167"/>
<rect x="6.77083" y="141.146" width="82.2917" height="186.458" rx="3.64583" transform="rotate(-90 6.77083 141.146)" stroke="black" stroke-width="1.04167"/>
<path fill-rule="evenodd" clip-rule="evenodd" d="M68.7825 118.663V111.188L74.8986 99.6245L81.25 111.188V118.663V123.837V133.334H14.5834V117.757L18.8289 114.295L23.0606 117.196H24.706V99.6755L33.4986 91.667L42.2923 99.6755V117.196H45.1354V112.866V108.774H53.4427V112.866V115.04C54.8982 114.126 57.085 113.733 59.4276 114.112C62.7488 114.65 65.3128 116.566 65.7693 118.663H68.7825Z" fill="black"/>
<path d="M68.8427 91.667L14.5834 133.334H26.9706L81.25 91.667H68.8427Z" fill="#FF0E00"/>
<path d="M193.75 91.4222L186.226 91.3909C184.204 91.1993 182.847 92.5097 182.179 93.5663L175.231 102.669C174.86 103.331 173.194 103.916 172.26 104.228L169.163 104.919L154.673 107.738C153.785 107.87 152.247 108.825 152.635 110.851L153.265 117.487C153.344 118.563 154.611 119.444 155.273 119.439L156.621 119.82C156.651 119.664 156.695 119.517 156.741 119.368C156.764 119.292 156.787 119.215 156.809 119.136C158.035 114.669 162.563 112.003 166.965 113.249C170.666 114.296 173.164 117.807 173.136 121.544L186.274 121.663L193.75 121.628V105.912L193.375 105.913L182.089 105.81C179.904 105.862 179.511 103.204 180.428 101.928L183.51 96.9888C184.537 95.6502 185.869 94.4509 187.591 94.3625L193.75 94.4078V91.4222Z" fill="black"/>
<path fill-rule="evenodd" clip-rule="evenodd" d="M166.614 114.258C170.388 115.326 172.699 119.341 171.647 123.173C170.596 127.005 166.575 129.232 162.799 128.163C159.025 127.096 156.807 123.104 157.858 119.272C158.91 115.44 162.841 113.191 166.614 114.258ZM165.764 117.359C163.662 116.764 161.591 118.032 161.006 120.162C160.421 122.293 161.552 124.467 163.65 125.06C165.749 125.654 167.915 124.413 168.499 122.282C169.084 120.152 167.865 117.953 165.764 117.359Z" fill="black"/>
<rect x="103.162" y="129.167" width="90.5882" height="4.11765" fill="#8F8F8F"/>
<path d="M148.456 116.618V112.5L103.162 128.971H131.985L148.456 116.618Z" fill="#FFE600"/>
<path d="M44.3962 83.334C48.6888 83.334 51.2925 79.7297 51.2925 73.9653V73.9401C51.2925 68.1757 48.6888 64.584 44.3962 64.584C40.1037 64.584 37.5 68.1757 37.5 73.9401V73.9653C37.5 79.7297 40.1037 83.334 44.3962 83.334ZM44.3962 80.2948C42.2851 80.2948 41.0771 77.9463 41.0771 73.9653V73.9401C41.0771 69.9591 42.2851 67.6232 44.3962 67.6232C46.5073 67.6232 47.7153 69.9591 47.7153 73.9401V73.9653C47.7153 77.9463 46.5073 80.2948 44.3962 80.2948Z" fill="black"/>
<path d="M57.5905 83.02H61.0973V64.8979H57.5788L53.2042 68.1506V71.5163L57.5202 68.3767H57.5905V83.02Z" fill="black"/>
<path d="M66.2929 83.2335C67.3485 83.2335 68.1929 82.3293 68.1929 81.199C68.1929 80.0562 67.3485 79.1645 66.2929 79.1645C65.2257 79.1645 64.3929 80.0562 64.3929 81.199C64.3929 82.3293 65.2257 83.2335 66.2929 83.2335Z" fill="black"/>
<path d="M73.6817 83.02H77.1885V64.8979H73.67L69.2954 68.1506V71.5163L73.6114 68.3767H73.6817V83.02Z" fill="black"/>
<path d="M87.6736 83.334C91.9661 83.334 94.5698 79.7297 94.5698 73.9653V73.9401C94.5698 68.1757 91.9661 64.584 87.6736 64.584C83.381 64.584 80.7774 68.1757 80.7774 73.9401V73.9653C80.7774 79.7297 83.381 83.334 87.6736 83.334ZM87.6736 80.2948C85.5625 80.2948 84.3545 77.9463 84.3545 73.9653V73.9401C84.3545 69.9591 85.5625 67.6232 87.6736 67.6232C89.7847 67.6232 90.9927 69.9591 90.9927 73.9401V73.9653C90.9927 77.9463 89.7847 80.2948 87.6736 80.2948Z" fill="black"/>
<path d="M101.818 77.2556H109.418V74.0532H101.818V77.2556Z" fill="black"/>
<path d="M123.562 83.334C127.855 83.334 130.458 79.7297 130.458 73.9653V73.9401C130.458 68.1757 127.855 64.584 123.562 64.584C119.27 64.584 116.666 68.1757 116.666 73.9401V73.9653C116.666 79.7297 119.27 83.334 123.562 83.334ZM123.562 80.2948C121.451 80.2948 120.243 77.9463 120.243 73.9653V73.9401C120.243 69.9591 121.451 67.6232 123.562 67.6232C125.673 67.6232 126.881 69.9591 126.881 73.9401V73.9653C126.881 77.9463 125.673 80.2948 123.562 80.2948Z" fill="black"/>
<path d="M136.756 83.02H140.263V64.8979H136.745L132.37 68.1506V71.5163L136.686 68.3767H136.756V83.02Z" fill="black"/>
<path d="M145.459 83.2335C146.514 83.2335 147.359 82.3293 147.359 81.199C147.359 80.0562 146.514 79.1645 145.459 79.1645C144.392 79.1645 143.559 80.0562 143.559 81.199C143.559 82.3293 144.392 83.2335 145.459 83.2335Z" fill="black"/>
<path d="M155.956 83.334C159.826 83.334 162.5 80.7595 162.5 76.9668V76.9417C162.5 73.5257 160.178 71.0517 156.964 71.0517C155.252 71.0517 153.856 71.7926 153.153 73.0108H153.082L153.493 67.912H161.48V64.8979H150.678L149.904 75.5351H152.988C153.188 75.1583 153.457 74.8067 153.798 74.5304C154.372 74.0406 155.111 73.7643 155.979 73.7643C157.809 73.7643 159.111 75.1081 159.122 77.017V77.0421C159.122 78.9761 157.82 80.3325 155.967 80.3325C154.337 80.3325 153.153 79.2776 152.906 77.9087L152.883 77.8208H149.611L149.622 78.0091C149.833 81.0358 152.273 83.334 155.956 83.334Z" fill="black"/>
<path d="M105.22 114.43C105.038 114.43 104.809 114.269 104.809 113.955V97.6122C104.809 97.2977 105.038 97.1363 105.22 97.1363C110.111 97.1363 114.457 98.2412 117.523 99.9441C120.644 101.678 122.103 103.811 122.103 105.783C122.103 107.756 120.644 109.889 117.523 111.623C114.457 113.326 110.111 114.43 105.22 114.43Z" stroke="black" stroke-width="3.29412"/>
<path d="M92.8671 103.21L101.102 99.6074V102.181L92.8671 105.784V103.21Z" fill="black"/>
<path d="M92.8671 108.357L101.102 104.754V107.328L92.8671 110.931V108.357Z" fill="black"/>
<path d="M101.102 109.902L92.8671 113.504V116.078L101.102 112.475V109.902Z" fill="black"/>
</svg>
