<svg width="200" height="201" viewBox="0 0 200 201" fill="none" xmlns="http://www.w3.org/2000/svg">
<circle cx="100" cy="100.334" r="82.8125" fill="white" stroke="#05081B" stroke-width="1.04167"/>
<circle cx="100" cy="100.333" r="71.875" stroke="#FF0E00" stroke-width="12.5"/>
<path fill-rule="evenodd" clip-rule="evenodd" d="M104.682 23.25L104.682 27.4167L104.681 97.5071L164.187 134.824L167.717 137.038L163.29 144.098L159.76 141.884L100.478 104.708L39.1341 141.917L35.5716 144.078L31.2498 136.952L34.8124 134.792L96.3481 97.4666L96.3482 27.4167L96.3482 23.25L104.682 23.25Z" fill="#FF0E00"/>
<path d="M113.749 77.5046C113.749 76.617 114.469 75.8975 115.356 75.8975H146.309C147.196 75.8975 147.916 76.617 147.916 77.5046V88.5664H113.749V77.5046Z" fill="black"/>
<path d="M115.417 95.7254C118.405 95.7254 120.818 93.2716 120.818 90.256C120.818 87.2405 118.405 84.7867 115.417 84.7867C112.428 84.7867 110.015 87.2405 110.015 90.256C110.015 93.2716 112.428 95.7254 115.417 95.7254Z" fill="black" stroke="white" stroke-width="0.803571"/>
<ellipse cx="115.416" cy="90.2584" rx="2.5" ry="2.53378" fill="white"/>
<path d="M122.083 68.2855C122.083 67.8252 122.456 67.4521 122.916 67.4521C123.377 67.4521 123.75 67.8252 123.75 68.2855V75.8981H122.083V68.2855Z" fill="black"/>
<path d="M145.147 66.5251C145.147 66.3032 144.967 66.1233 144.745 66.1233H136.015C135.45 66.1233 134.937 66.4526 134.701 66.9663L129.797 77.6484H145.147V66.5251Z" stroke="black" stroke-width="2.41071"/>
<path d="M144.582 96.5703C148.951 96.5703 152.484 92.9821 152.484 88.5672C152.484 84.1523 148.951 80.564 144.582 80.564C140.213 80.564 136.68 84.1523 136.68 88.5672C136.68 92.9821 140.213 96.5703 144.582 96.5703Z" fill="black" stroke="white" stroke-width="0.803571"/>
<ellipse cx="144.584" cy="88.5677" rx="4.16667" ry="4.22297" fill="white"/>
<path fill-rule="evenodd" clip-rule="evenodd" d="M74.486 85.7898L78.8485 86.1204C79.3775 86.1865 79.7742 85.8559 79.7742 85.3269C79.8404 84.7983 79.5097 84.4676 78.9811 84.4019L74.2214 84.0705C74.1555 83.2795 74.4842 82.5047 74.8303 81.6889C75.1782 80.869 75.5436 80.0076 75.5436 79.0467C75.6097 76.6673 73.4283 74.75 71.6433 74.8822C65.7598 75.477 61.959 75.6754 58.4554 75.0145L56.9353 72.3364V69.7582C56.9353 69.0312 56.3401 68.4364 55.6135 68.4364C54.8864 68.4364 54.2909 69.0312 54.2909 69.7582V70.0888L53.4981 69.3618C51.9772 68.1058 48.4097 66.5333 47.7445 67.1324C47.9102 67.4324 47.9952 67.6227 48.0638 67.7761L48.0638 67.7761C48.214 68.1121 48.2851 68.2712 48.9515 69.0198C48.5328 70.1885 47.5285 71.643 46.6618 72.8984C46.1148 73.6906 45.6225 74.4036 45.3668 74.9153C44.8382 76.1052 46.1305 76.6886 46.8212 76.8326C47.1118 76.8931 47.5924 76.5487 48.1285 76.1644C48.8736 75.6303 49.7261 75.0194 50.3248 75.3117C51.7605 76.0129 51.93 79.447 52.0189 81.2472C52.0514 81.9051 52.0731 82.3447 52.1419 82.353L50.4894 82.1543C49.9604 82.1543 49.5637 82.4191 49.5637 82.9478C49.4972 83.4768 49.8278 83.8736 50.3565 83.8736L51.0838 83.9397L49.4314 85.4595C48.5721 86.1872 48.3073 87.1126 49.1666 88.369L52.6044 93.1941C53.4637 94.4501 55.2483 92.5997 54.4552 91.2771L52.2076 87.311L54.7197 84.4683C54.7197 84.5348 54.7855 84.5348 54.7855 84.5348L57.3637 93.1941C57.6278 93.8557 58.2229 94.1863 59.0161 93.9876V93.9211C59.677 93.7227 60.0741 93.1937 59.8754 92.3348L57.6278 84.8647C61.1314 85.2611 64.7672 85.4592 68.5357 85.4592L67.0148 92.1368C66.8829 92.9296 67.2797 93.5908 67.9406 93.7227H68.0728C68.7341 93.8553 69.3953 93.4586 69.5272 92.7973L71.2461 85.5256L71.6429 85.5918L73.0973 92.8631C73.2957 94.186 75.8739 93.7227 75.6751 92.4671L74.486 85.7898ZM83.1448 78.7801C81.9549 78.7801 81.0298 79.7055 81.0298 80.8958V84.3329C81.6249 84.0684 82.2855 84.0022 82.9471 84.0022C85.6572 84.0022 87.7071 85.9195 87.839 88.6296H91.6661V78.7801H83.1448ZM78.6515 89.0297C78.6515 86.6503 80.4366 84.8652 82.816 84.8652C85.1962 84.8652 86.9809 86.6499 86.9812 89.0297C86.9812 91.4096 85.1962 93.1943 82.816 93.1943C80.4366 93.1943 78.6515 91.4096 78.6515 89.0297ZM80.8333 89.0297C80.8333 90.1535 81.6926 91.0132 82.816 91.0132C83.9402 91.0132 84.7994 90.1535 84.7994 89.0297C84.7994 87.9063 83.9402 87.0463 82.816 87.0463C81.6926 87.0463 80.8333 87.9063 80.8333 89.0297Z" fill="black"/>
<path d="M78.8485 86.1204L78.8506 86.1031L78.8498 86.1031L78.8485 86.1204ZM74.486 85.7898L74.4873 85.7724L74.4649 85.7707L74.4688 85.7928L74.486 85.7898ZM79.7742 85.3269L79.7568 85.3247V85.3269H79.7742ZM78.9811 84.4019L78.9832 84.3846L78.9823 84.3845L78.9811 84.4019ZM74.2214 84.0705L74.2041 84.072L74.2054 84.0868L74.2202 84.0879L74.2214 84.0705ZM74.8303 81.6889L74.8463 81.6957L74.8303 81.6889ZM75.5436 79.0467L75.5262 79.0463V79.0467H75.5436ZM71.6433 74.8822L71.642 74.8649L71.6415 74.8649L71.6433 74.8822ZM58.4554 75.0145L58.4403 75.0231L58.4443 75.0301L58.4522 75.0316L58.4554 75.0145ZM56.9353 72.3364H56.9153L56.9201 72.345L56.9353 72.3364ZM54.2909 70.0888L54.2792 70.1017L54.3083 70.1284V70.0888H54.2909ZM53.4981 69.3618L53.5099 69.349L53.5092 69.3484L53.4981 69.3618ZM47.7445 67.1324L47.7329 67.1194L47.7226 67.1287L47.7293 67.1408L47.7445 67.1324ZM48.0638 67.7761L48.0478 67.7832L48.0487 67.7847L48.0638 67.7761ZM48.0638 67.7761L48.0798 67.769L48.0789 67.7675L48.0638 67.7761ZM48.9515 69.0198L48.9678 69.0257L48.9713 69.0159L48.9645 69.0082L48.9515 69.0198ZM46.6618 72.8984L46.6475 72.8885L46.6618 72.8984ZM45.3668 74.9153L45.3512 74.9075L45.3509 74.9082L45.3668 74.9153ZM46.8212 76.8326L46.8177 76.8496H46.8177L46.8212 76.8326ZM48.1285 76.1644L48.1184 76.1503L48.1285 76.1644ZM50.3248 75.3117L50.3325 75.2961L50.3324 75.2961L50.3248 75.3117ZM52.0189 81.2472L52.0362 81.2463L52.0189 81.2472ZM52.1419 82.353L52.1398 82.3703L52.1439 82.3358L52.1419 82.353ZM50.4894 82.1543L50.4915 82.1369H50.4894V82.1543ZM49.5637 82.9478L49.5811 82.95V82.9478H49.5637ZM50.3565 83.8736L50.358 83.8562H50.3565V83.8736ZM51.0838 83.9397L51.0956 83.9525L51.1245 83.9259L51.0854 83.9224L51.0838 83.9397ZM49.4314 85.4595L49.4427 85.4728L49.4432 85.4723L49.4314 85.4595ZM49.1666 88.369L49.1522 88.3789L49.1524 88.3791L49.1666 88.369ZM52.6044 93.1941L52.6187 93.1843L52.6185 93.184L52.6044 93.1941ZM54.4552 91.2771L54.44 91.2857L54.4403 91.2861L54.4552 91.2771ZM52.2076 87.311L52.1946 87.2995L52.1864 87.3088L52.1925 87.3196L52.2076 87.311ZM54.7197 84.4683H54.7371V84.4224L54.7067 84.4568L54.7197 84.4683ZM54.7855 84.5348L54.8021 84.5299L54.7984 84.5174L54.7855 84.5174L54.7855 84.5348ZM57.3637 93.1941L57.3469 93.1991L57.3475 93.2005L57.3637 93.1941ZM59.0161 93.9876L59.0203 94.0045L59.0335 94.0012V93.9876H59.0161ZM59.0161 93.9211L59.0111 93.9045L58.9987 93.9082V93.9211H59.0161ZM59.8754 92.3348L59.8923 92.3309L59.892 92.3298L59.8754 92.3348ZM57.6278 84.8647L57.6298 84.8474L57.6035 84.8445L57.6111 84.8697L57.6278 84.8647ZM68.5357 85.4592L68.5527 85.463L68.5575 85.4418H68.5357V85.4592ZM67.0148 92.1368L66.9978 92.1329L66.9976 92.1339L67.0148 92.1368ZM67.9406 93.7227L67.9371 93.7401H67.9406V93.7227ZM68.0728 93.7227L68.0763 93.7053H68.0728V93.7227ZM69.5272 92.7973L69.5103 92.7933L69.5102 92.7939L69.5272 92.7973ZM71.2461 85.5256L71.249 85.5085L71.233 85.5058L71.2292 85.5216L71.2461 85.5256ZM71.6429 85.5918L71.66 85.5883L71.6576 85.5766L71.6458 85.5746L71.6429 85.5918ZM73.0973 92.8631L73.1145 92.8605L73.1144 92.8597L73.0973 92.8631ZM75.6751 92.4671L75.6923 92.4643L75.6923 92.464L75.6751 92.4671ZM81.0298 84.3329H81.0124V84.3596L81.0369 84.3488L81.0298 84.3329ZM87.839 88.6296L87.8216 88.6305L87.8224 88.647H87.839V88.6296ZM91.6661 88.6296V88.647H91.6835V88.6296H91.6661ZM91.6661 78.7801H91.6835V78.7627H91.6661V78.7801ZM86.9812 89.0297H86.9986V89.0297L86.9812 89.0297ZM78.8498 86.1031L74.4873 85.7724L74.4846 85.8071L78.8472 86.1378L78.8498 86.1031ZM79.7568 85.3269C79.7568 85.5869 79.6595 85.7967 79.4985 85.9336C79.3374 86.0705 79.111 86.1357 78.8506 86.1031L78.8463 86.1377C79.1149 86.1712 79.3514 86.1042 79.521 85.9601C79.6906 85.8159 79.7916 85.5959 79.7916 85.3269H79.7568ZM78.9789 84.4191C79.2403 84.4516 79.4508 84.5494 79.5877 84.7024C79.7244 84.8551 79.7895 85.0647 79.757 85.3247L79.7915 85.3291C79.8251 85.0605 79.7579 84.8404 79.6137 84.6792C79.4697 84.5183 79.2505 84.4178 78.9832 84.3846L78.9789 84.4191ZM74.2202 84.0879L78.9799 84.4192L78.9823 84.3845L74.2227 84.0532L74.2202 84.0879ZM74.8143 81.6821C74.4686 82.497 74.1377 83.2759 74.2041 84.072L74.2388 84.0691C74.1733 83.2832 74.4998 82.5125 74.8463 81.6957L74.8143 81.6821ZM75.5262 79.0467C75.5262 80.0035 75.1624 80.8617 74.8143 81.6821L74.8463 81.6957C75.194 80.8763 75.561 80.0117 75.561 79.0467H75.5262ZM71.6445 74.8996C72.5307 74.8339 73.5176 75.2772 74.2753 76.0349C75.0328 76.7923 75.5591 77.8621 75.5262 79.0463L75.561 79.0472C75.5942 77.8519 75.0629 76.7733 74.2999 76.0103C73.5372 75.2476 72.5409 74.7983 71.642 74.8649L71.6445 74.8996ZM58.4522 75.0316C61.9586 75.693 65.7617 75.4943 71.645 74.8995L71.6415 74.8649C65.758 75.4597 61.9595 75.6578 58.4587 74.9974L58.4522 75.0316ZM56.9201 72.345L58.4403 75.0231L58.4706 75.0059L56.9504 72.3278L56.9201 72.345ZM56.9179 69.7582V72.3364H56.9527V69.7582H56.9179ZM55.6135 68.4538C56.3305 68.4538 56.9179 69.0408 56.9179 69.7582H56.9527C56.9527 69.0216 56.3497 68.419 55.6135 68.419V68.4538ZM54.3083 69.7582C54.3083 69.0408 54.896 68.4538 55.6135 68.4538V68.419C54.8768 68.419 54.2735 69.0216 54.2735 69.7582H54.3083ZM54.3083 70.0888V69.7582H54.2735V70.0888H54.3083ZM53.4864 69.3746L54.2792 70.1017L54.3027 70.076L53.5099 69.349L53.4864 69.3746ZM47.7561 67.1453C47.8351 67.0742 47.9591 67.0338 48.1216 67.022C48.2837 67.0103 48.482 67.0272 48.7071 67.0685C49.1572 67.151 49.7118 67.3302 50.2938 67.5675C51.458 68.0424 52.7284 68.7487 53.4871 69.3752L53.5092 69.3484C52.747 68.7189 51.4732 68.011 50.307 67.5353C49.7238 67.2975 49.1668 67.1174 48.7134 67.0343C48.4867 66.9927 48.2853 66.9753 48.1191 66.9873C47.9532 66.9993 47.8202 67.0408 47.7329 67.1194L47.7561 67.1453ZM48.0797 67.769C48.011 67.6154 47.9258 67.4247 47.7597 67.124L47.7293 67.1408C47.8946 67.4402 47.9794 67.63 48.0479 67.7832L48.0797 67.769ZM48.0789 67.7675L48.0789 67.7675L48.0487 67.7847L48.0487 67.7847L48.0789 67.7675ZM48.9645 69.0082C48.6314 68.634 48.4476 68.4078 48.3284 68.2334C48.2095 68.0594 48.1547 67.9369 48.0797 67.769L48.0479 67.7832C48.1231 67.9513 48.1789 68.0763 48.2997 68.253C48.4202 68.4294 48.6052 68.657 48.9385 69.0314L48.9645 69.0082ZM46.6761 72.9083C47.5423 71.6536 48.5482 70.197 48.9678 69.0257L48.9351 69.0139C48.5173 70.18 47.5147 71.6324 46.6475 72.8885L46.6761 72.9083ZM45.3824 74.9231C45.6374 74.4127 46.1287 73.701 46.6761 72.9083L46.6475 72.8885C46.1008 73.6803 45.6077 74.3944 45.3512 74.9075L45.3824 74.9231ZM46.8248 76.8156C46.4811 76.7439 45.9886 76.563 45.6484 76.2533C45.4786 76.0986 45.3473 75.9125 45.2907 75.6923C45.2343 75.4723 45.2519 75.2168 45.3827 74.9224L45.3509 74.9082C45.2174 75.2088 45.1983 75.4723 45.257 75.7009C45.3157 75.9293 45.4516 76.1211 45.625 76.279C45.9715 76.5945 46.4706 76.7773 46.8177 76.8496L46.8248 76.8156ZM48.1184 76.1503C47.8501 76.3426 47.5967 76.5241 47.3742 76.6502C47.263 76.7132 47.1601 76.7619 47.0674 76.7912C46.9746 76.8205 46.8934 76.8299 46.8248 76.8156L46.8177 76.8496C46.8944 76.8656 46.9821 76.8546 47.0779 76.8244C47.1738 76.7941 47.2791 76.744 47.3913 76.6804C47.6158 76.5533 47.8708 76.3705 48.1386 76.1785L48.1184 76.1503ZM50.3324 75.2961C50.0255 75.1462 49.6561 75.229 49.274 75.4125C48.8913 75.5962 48.4906 75.8835 48.1184 76.1503L48.1386 76.1785C48.5115 75.9113 48.9096 75.626 49.2891 75.4438C49.6692 75.2614 50.0254 75.1849 50.3172 75.3273L50.3324 75.2961ZM52.0362 81.2463C51.9918 80.3464 51.9272 79.0366 51.6939 77.8639C51.5773 77.2776 51.4184 76.7247 51.1983 76.2741C50.9783 75.8237 50.6963 75.4738 50.3325 75.2961L50.3172 75.3273C50.6712 75.5002 50.9487 75.8424 51.167 76.2894C51.3853 76.7362 51.5435 77.2858 51.6598 77.8707C51.8925 79.0404 51.957 80.3477 52.0015 81.248L52.0362 81.2463ZM52.1439 82.3358C52.1447 82.3358 52.1405 82.3355 52.1336 82.3222C52.1274 82.31 52.1211 82.2912 52.1151 82.2653C52.1032 82.2139 52.0931 82.1385 52.0841 82.0421C52.066 81.8494 52.0525 81.5754 52.0362 81.2463L52.0015 81.248C52.0177 81.5768 52.0313 81.8517 52.0494 82.0453C52.0585 82.1421 52.0687 82.2193 52.0812 82.2732C52.0875 82.3 52.0945 82.3221 52.1027 82.3381C52.1103 82.3529 52.1219 82.3681 52.1398 82.3703L52.1439 82.3358ZM50.4873 82.1716L52.1398 82.3703L52.1439 82.3358L50.4915 82.137L50.4873 82.1716ZM49.5811 82.9478C49.5811 82.6883 49.6782 82.4951 49.839 82.3664C50.0004 82.2373 50.2276 82.1717 50.4894 82.1717V82.1369C50.2223 82.1369 49.9866 82.2038 49.8173 82.3392C49.6475 82.4751 49.5463 82.6787 49.5463 82.9478H49.5811ZM50.3565 83.8562C50.0967 83.8562 49.8869 83.7588 49.7501 83.5978C49.6133 83.4367 49.5482 83.2104 49.5809 82.95L49.5464 82.9456C49.5126 83.2143 49.5796 83.4508 49.7236 83.6203C49.8677 83.7899 50.0876 83.891 50.3565 83.891V83.8562ZM51.0854 83.9224L50.358 83.8562L50.3549 83.8909L51.0823 83.957L51.0854 83.9224ZM49.4432 85.4723L51.0956 83.9525L51.0721 83.9269L49.4196 85.4467L49.4432 85.4723ZM49.1809 88.3592C48.7528 87.7333 48.6063 87.1921 48.6718 86.7184C48.7372 86.2447 49.015 85.835 49.4427 85.4728L49.4202 85.4462C48.9885 85.8118 48.7043 86.2286 48.6373 86.7136C48.5703 87.1987 48.721 87.7484 49.1522 88.3789L49.1809 88.3592ZM52.6185 93.184L49.1807 88.3589L49.1524 88.3791L52.5902 93.2042L52.6185 93.184ZM54.4403 91.2861C54.8316 91.9385 54.5878 92.7233 54.1369 93.1905C53.9117 93.4239 53.6367 93.5759 53.3665 93.5931C53.0975 93.6102 52.8305 93.4937 52.6187 93.1843L52.59 93.2039C52.8079 93.5224 53.0862 93.6457 53.3687 93.6278C53.6501 93.6099 53.9327 93.4522 54.162 93.2147C54.62 92.74 54.872 91.9383 54.4701 91.2682L54.4403 91.2861ZM52.1925 87.3196L54.4401 91.2857L54.4703 91.2686L52.2228 87.3025L52.1925 87.3196ZM54.7067 84.4568L52.1946 87.2995L52.2207 87.3225L54.7327 84.4799L54.7067 84.4568ZM54.7855 84.5348C54.7855 84.5174 54.7855 84.5174 54.7855 84.5174C54.7855 84.5174 54.7855 84.5174 54.7855 84.5174C54.7855 84.5174 54.7855 84.5174 54.7855 84.5174C54.7855 84.5174 54.7855 84.5174 54.7856 84.5174C54.7856 84.5174 54.7856 84.5174 54.7856 84.5174C54.7855 84.5174 54.7854 84.5174 54.7853 84.5174C54.785 84.5174 54.7845 84.5174 54.7839 84.5173C54.7826 84.5172 54.7805 84.517 54.7781 84.5166C54.7731 84.5158 54.7666 84.5141 54.7604 84.511C54.7543 84.5079 54.7486 84.5035 54.7445 84.4972C54.7404 84.491 54.7371 84.4819 54.7371 84.4683H54.7023C54.7023 84.488 54.7072 84.5038 54.7154 84.5163C54.7236 84.5288 54.7344 84.5368 54.7447 84.542C54.755 84.5472 54.765 84.5497 54.7723 84.5509C54.776 84.5516 54.7791 84.5519 54.7814 84.552C54.7825 84.5521 54.7834 84.5522 54.7841 84.5522C54.7845 84.5522 54.7848 84.5522 54.785 84.5522C54.7851 84.5522 54.7852 84.5522 54.7853 84.5522C54.7853 84.5522 54.7853 84.5522 54.7854 84.5522C54.7854 84.5522 54.7854 84.5522 54.7854 84.5522C54.7854 84.5522 54.7854 84.5522 54.7854 84.5522C54.7854 84.5522 54.7855 84.5522 54.7855 84.5348ZM57.3803 93.1891L54.8021 84.5299L54.7688 84.5398L57.347 93.1991L57.3803 93.1891ZM59.0119 93.9707C58.6185 94.0693 58.2758 94.0362 57.9993 93.8979C57.7227 93.7596 57.5106 93.5151 57.3798 93.1876L57.3475 93.2005C57.4809 93.5347 57.6984 93.7863 57.9837 93.929C58.269 94.0717 58.6205 94.1046 59.0203 94.0045L59.0119 93.9707ZM58.9987 93.9211V93.9876H59.0335V93.9211H58.9987ZM59.8584 92.3387C59.957 92.7649 59.9074 93.1071 59.7531 93.3668C59.5988 93.6266 59.3384 93.8062 59.0111 93.9045L59.0211 93.9378C59.3547 93.8377 59.6233 93.6536 59.783 93.3845C59.9429 93.1154 59.9924 92.7636 59.8923 92.3309L59.8584 92.3387ZM57.6111 84.8697L59.8587 92.3398L59.892 92.3298L57.6445 84.8597L57.6111 84.8697ZM68.5357 85.4418C64.7679 85.4418 61.1327 85.2438 57.6298 84.8474L57.6258 84.882C61.1301 85.2785 64.7666 85.4765 68.5357 85.4765V85.4418ZM67.0318 92.1406L68.5527 85.463L68.5187 85.4553L66.9978 92.1329L67.0318 92.1406ZM67.944 93.7057C67.2945 93.5761 66.9012 92.9256 67.032 92.1396L66.9976 92.1339C66.8646 92.9336 67.2648 93.6056 67.9372 93.7398L67.944 93.7057ZM68.0728 93.7053H67.9406V93.7401H68.0728V93.7053ZM69.5102 92.7939C69.3803 93.4448 68.729 93.8366 68.0762 93.7057L68.0694 93.7398C68.7391 93.8741 69.4103 93.4724 69.5443 92.8007L69.5102 92.7939ZM71.2292 85.5216L69.5103 92.7933L69.5442 92.8013L71.2631 85.5296L71.2292 85.5216ZM71.6458 85.5746L71.249 85.5085L71.2433 85.5428L71.64 85.6089L71.6458 85.5746ZM73.1144 92.8597L71.66 85.5883L71.6258 85.5952L73.0803 92.8665L73.1144 92.8597ZM75.658 92.4698C75.7066 92.7769 75.5858 93.0357 75.3723 93.2319C75.1585 93.4285 74.852 93.5616 74.5323 93.6149C74.2126 93.6682 73.8816 93.6413 73.619 93.5201C73.3571 93.3992 73.1631 93.1847 73.1145 92.8605L73.0801 92.8657C73.1307 93.203 73.3334 93.4266 73.6044 93.5517C73.8749 93.6765 74.2132 93.7033 74.538 93.6492C74.8628 93.5951 75.176 93.4596 75.3959 93.2575C75.6161 93.055 75.7431 92.7851 75.6923 92.4643L75.658 92.4698ZM74.4688 85.7928L75.658 92.4701L75.6923 92.464L74.5031 85.7867L74.4688 85.7928ZM81.0472 80.8958C81.0472 79.7151 81.9645 78.7975 83.1448 78.7975V78.7627C81.9452 78.7627 81.0124 79.6959 81.0124 80.8958H81.0472ZM81.0472 84.3329V80.8958H81.0124V84.3329H81.0472ZM82.9471 83.9848C82.2846 83.9848 81.6212 84.051 81.0228 84.317L81.0369 84.3488C81.6287 84.0857 82.2864 84.0196 82.9471 84.0196V83.9848ZM87.8564 88.6288C87.724 85.9093 85.6663 83.9848 82.9471 83.9848V84.0196C85.6481 84.0196 87.6902 85.9298 87.8216 88.6305L87.8564 88.6288ZM91.6661 88.6122H87.839V88.647H91.6661V88.6122ZM91.6487 78.7801V88.6296H91.6835V78.7801H91.6487ZM83.1448 78.7975H91.6661V78.7627H83.1448V78.7975ZM82.816 84.8479C80.427 84.8479 78.6341 86.6407 78.6341 89.0297H78.6689C78.6689 86.6599 80.4462 84.8826 82.816 84.8826V84.8479ZM86.9986 89.0297C86.9983 86.6403 85.2058 84.8479 82.816 84.8479V84.8826C85.1866 84.8826 86.9635 86.6595 86.9638 89.0298L86.9986 89.0297ZM82.816 93.2116C85.2058 93.2116 86.9986 91.4192 86.9986 89.0297H86.9638C86.9638 91.4 85.1866 93.1769 82.816 93.1769V93.2116ZM78.6341 89.0297C78.6341 91.4192 80.427 93.2116 82.816 93.2116V93.1769C80.4462 93.1769 78.6689 91.4 78.6689 89.0297H78.6341ZM82.816 90.9958C81.7022 90.9958 80.8507 90.1439 80.8507 89.0297H80.8159C80.8159 90.1631 81.683 91.0306 82.816 91.0306V90.9958ZM84.7821 89.0297C84.7821 90.1439 83.9306 90.9958 82.816 90.9958V91.0306C83.9498 91.0306 84.8168 90.1631 84.8168 89.0297H84.7821ZM82.816 87.0637C83.9306 87.0637 84.7821 87.9159 84.7821 89.0297H84.8168C84.8168 87.8967 83.9498 87.0289 82.816 87.0289V87.0637ZM80.8507 89.0297C80.8507 87.9159 81.7022 87.0637 82.816 87.0637V87.0289C81.683 87.0289 80.8159 87.8967 80.8159 89.0297H80.8507Z" fill="black"/>
<path fill-rule="evenodd" clip-rule="evenodd" d="M109.996 133.013C110.638 133.013 111.241 133.503 111.43 134.031C109.204 135.918 107.771 138.746 107.77 141.915C107.77 143.235 108.034 144.518 108.487 145.688H95.1338C94.1906 145.688 93.6244 145.612 93.4738 144.933L89.8527 131.542H89.2111C88.8721 131.542 88.6079 131.504 88.3442 131.391L86.8731 134.56C89.2116 136.143 90.721 138.86 90.721 141.915C90.721 146.894 86.7221 150.818 81.8188 150.818C76.8393 150.818 72.9166 146.894 72.9166 141.915C72.9166 137.011 76.8393 133.013 81.8188 133.013C82.6483 133.013 83.403 133.088 84.1573 133.314L86.6846 127.882C86.9136 127.304 87.1585 126.895 87.5146 126.373H87.3262C85.893 126.373 84.7231 125.204 84.7231 123.771C84.7231 122.337 85.8925 121.168 87.3262 121.168C87.3419 121.168 87.364 121.174 87.39 121.182C87.4265 121.193 87.4706 121.205 87.5146 121.205C87.5523 121.205 87.5805 121.196 87.6086 121.187C87.6368 121.177 87.665 121.168 87.7026 121.168H92.9463C93.7763 121.168 94.4174 121.809 94.4174 122.639V122.676C94.4174 123.506 93.7763 124.148 92.9463 124.148H90.9468L91.3242 125.619H98.8685C100.114 125.619 101.094 126.599 101.094 127.844V129.315C101.094 130.56 100.114 131.541 98.8685 131.541H92.8327L94.3791 137.501C94.5675 138.142 95.1716 139.01 96.6044 139.01C98.0781 139.01 98.4726 138.219 98.8064 137.55C98.8145 137.533 98.8226 137.517 98.8306 137.501L100.34 134.521C100.679 133.805 101.396 133.013 102.188 133.013H109.996ZM81.8188 147.121C84.6847 147.121 86.9484 144.782 86.9484 141.915C86.9484 140.331 86.3073 138.972 85.2505 138.029L84.2321 140.218C84.572 140.708 84.76 141.274 84.76 141.953C84.76 143.537 83.4026 144.895 81.8183 144.895C80.1583 144.895 78.8762 143.538 78.8762 141.953C78.8762 140.406 80.0078 139.161 81.4788 139.011L82.4973 136.823C82.271 136.784 82.0446 136.784 81.8188 136.784C78.9519 136.784 76.613 139.049 76.613 141.915C76.613 144.782 78.9519 147.121 81.8188 147.121ZM117.956 133.013H118.182C123.086 133.013 127.084 137.012 127.084 141.915C127.084 146.894 123.086 150.818 118.182 150.818C113.203 150.818 109.279 146.894 109.279 141.915C109.279 138.068 111.657 134.824 115.089 133.541L114.749 131.58H103.32C102.905 131.58 102.527 131.051 102.565 130.825L103.32 128.6C103.433 128.26 103.697 127.845 104.075 127.845H118.899C119.163 127.845 119.653 128.184 119.653 128.6V130.825C119.653 131.24 119.313 131.58 118.899 131.58H117.729L117.956 133.013ZM112.977 141.916C112.977 144.783 115.315 147.122 118.182 147.122C121.049 147.122 123.313 144.783 123.312 141.916C123.312 139.2 121.312 137.012 118.671 136.785L119.162 139.2C120.256 139.614 121.086 140.708 121.086 141.953C121.086 143.575 119.766 144.895 118.144 144.895C116.523 144.895 115.202 143.575 115.202 141.953C115.202 141.085 115.579 140.294 116.183 139.765L115.73 137.351C114.108 138.219 112.977 139.916 112.977 141.916Z" fill="black"/>
</svg>
