<svg width="200" height="201" viewBox="0 0 200 201" fill="none" xmlns="http://www.w3.org/2000/svg">
<circle cx="100" cy="100.333" r="82.8125" fill="white" stroke="#05081B" stroke-width="1.04167"/>
<circle cx="100" cy="100.334" r="71.875" stroke="#FF0E00" stroke-width="12.5"/>
<path fill-rule="evenodd" clip-rule="evenodd" d="M113.644 94.0335L109.653 105.124H108.264C106.576 105.124 105.208 106.506 105.208 108.212V119.019C105.208 120.724 106.576 122.106 108.264 122.106H109.028V127.51C109.028 129.215 110.396 130.597 112.083 130.597H114.375C116.063 130.597 117.431 129.215 117.431 127.51V122.106H138.82V127.51C138.82 129.215 140.188 130.597 141.875 130.597H144.167C145.854 130.597 147.222 129.215 147.222 127.51V122.106H147.986C149.674 122.106 151.042 120.724 151.042 119.019V108.212C151.042 106.506 149.674 105.124 147.986 105.124H146.597L142.606 94.0335C142.167 92.8133 141.02 92.001 139.735 92.001H116.515C115.23 92.001 114.083 92.8133 113.644 94.0335ZM117.05 95.8606L113.717 105.124H142.533L139.2 95.8606H117.05Z" fill="black"/>
<path fill-rule="evenodd" clip-rule="evenodd" d="M48.9585 115.814V105.007L48.9585 71.1686C48.9585 68.8674 50.824 67.002 53.1252 67.002L94.7918 67.002C97.093 67.002 98.9585 68.8674 98.9585 71.1686L98.9585 105.007V115.814C98.9585 117.52 97.5905 118.902 95.903 118.902H95.1391V127.831C95.1391 129.537 93.771 130.919 92.0835 130.919H89.7918C88.1043 130.919 86.7363 129.537 86.7363 127.831V118.902H79.9142C79.11 121.425 76.7476 123.252 73.9584 123.252C71.1693 123.252 68.8068 121.425 68.0026 118.902H61.1807L61.1807 127.831C61.1807 129.537 59.8127 130.919 58.1252 130.919H55.8335C54.146 130.919 52.7779 129.537 52.7779 127.831V118.902H52.0141C50.3265 118.902 48.9585 117.52 48.9585 115.814Z" fill="#FF0E00"/>
</svg>
