<svg width="200" height="201" viewBox="0 0 200 201" fill="none" xmlns="http://www.w3.org/2000/svg">
<rect x="30.7287" y="30.7863" width="138.54" height="138.54" rx="8.85404" fill="white" stroke="#13141A" stroke-width="1.04165"/>
<rect x="35.4161" y="35.4734" width="129.165" height="129.165" rx="4.16661" fill="#1071AF"/>
<path d="M120.832 81.3072L79.1655 81.3072L99.9985 47.9744L120.832 81.3072Z" fill="white"/>
<rect x="91.6653" y="81.3069" width="16.6664" height="83.3321" fill="white"/>
<path fill-rule="evenodd" clip-rule="evenodd" d="M131.248 110.473H135.415V125.246H131.248V110.473ZM131.248 130.173H135.415V144.946H131.248V130.173ZM135.415 149.866H131.248V164.639H135.415V149.866Z" fill="white"/>
<path fill-rule="evenodd" clip-rule="evenodd" d="M64.5824 110.473H68.7492V125.246H64.5824V110.473ZM64.5824 130.173H68.7492V144.946H64.5824V130.173ZM68.7492 149.866H64.5824V164.639H68.7492V149.866Z" fill="white"/>
<circle cx="99.9985" cy="120.892" r="20.833" fill="white" stroke="#FF0E00" stroke-width="4.16661"/>
<path fill-rule="evenodd" clip-rule="evenodd" d="M96.673 113.874C96.673 113.357 97.0927 112.937 97.6105 112.937H111.121C111.639 112.937 112.059 113.357 112.059 113.874V121.564C112.059 122.081 111.639 122.501 111.121 122.501H97.6105C97.0927 122.501 96.673 122.081 96.673 121.564V113.874ZM109.667 123.802C109.667 123.543 109.877 123.333 110.136 123.333H112.422C112.681 123.333 112.891 123.543 112.891 123.802V125.36C112.891 125.619 112.681 125.828 112.422 125.828H110.136C109.877 125.828 109.667 125.619 109.667 125.36V123.802ZM105.405 126.037C105.405 125.462 105.87 124.997 106.445 124.997C107.019 124.997 107.485 125.462 107.485 126.037C107.485 126.611 107.019 127.077 106.445 127.077C105.87 127.077 105.405 126.611 105.405 126.037ZM106.445 123.333C104.952 123.333 103.741 124.543 103.741 126.037C103.741 127.53 104.952 128.74 106.445 128.74C107.938 128.74 109.149 127.53 109.149 126.037C109.149 124.543 107.938 123.333 106.445 123.333ZM91.4724 124.997C90.8981 124.997 90.4325 125.462 90.4325 126.037C90.4325 126.611 90.8981 127.077 91.4724 127.077C92.0467 127.077 92.5123 126.611 92.5123 126.037C92.5123 125.462 92.0467 124.997 91.4724 124.997ZM88.7687 126.037C88.7687 124.543 89.9792 123.333 91.4724 123.333C92.9657 123.333 94.1762 124.543 94.1762 126.037C94.1762 127.53 92.9657 128.74 91.4724 128.74C89.9792 128.74 88.7687 127.53 88.7687 126.037ZM94.4872 115.851C95.005 115.851 95.4247 116.271 95.4247 116.789V123.336H102.753C103.012 123.336 103.222 123.546 103.222 123.805V125.362C103.222 125.621 103.012 125.831 102.753 125.831H94.5876C94.4809 124.205 93.1284 122.92 91.4757 122.92C89.8229 122.92 88.4704 124.205 88.3637 125.831H88.0456C87.5278 125.831 87.1081 125.411 87.1081 124.894V120.598C87.1081 120.349 87.1731 120.104 87.2968 119.887L89.1907 116.573C89.4457 116.127 89.9203 115.851 90.4343 115.851H94.4872ZM93.7611 117.097H90.8317C90.6249 117.097 90.4342 117.208 90.3316 117.387L88.8455 119.988L88.8421 119.994L88.8342 120.009H93.7611V117.097Z" fill="#05081B"/>
</svg>
