<svg width="200" height="200" viewBox="0 0 200 200" fill="none" xmlns="http://www.w3.org/2000/svg">
<rect x="36.9792" y="11.9792" width="126.042" height="176.042" rx="8.85417" fill="white" stroke="#13141A" stroke-width="1.04167"/>
<rect x="41.6667" y="16.667" width="116.667" height="166.667" rx="4.16667" fill="#1071AF"/>
<rect x="50" y="33.333" width="100" height="100" rx="4.16667" fill="white"/>
<path fill-rule="evenodd" clip-rule="evenodd" d="M139.583 61.9496L126.555 68.629C127.633 70.3629 128.547 72.2101 129.273 74.1487L139.583 73.2342V61.9496ZM139.583 75.3258L129.955 76.1797C130.633 78.4575 131.059 80.8441 131.199 83.3071H139.583V75.3258ZM139.583 85.3904H131.25V93.4695H139.583V85.3904ZM139.583 95.5528H131.25V103.632H139.583V95.5528ZM139.583 105.715H131.25V113.794H139.583V105.715ZM139.583 115.878H131.25V122.917V122.917H139.583V115.878ZM125.388 66.8861L138.864 59.9771L131.754 52.1734L121.288 62.234C122.803 63.6439 124.177 65.2023 125.388 66.8861ZM119.711 60.8606C117.996 59.4656 116.131 58.2488 114.144 57.2382L120.692 43.7503H124.08L130.35 50.6329L119.711 60.8606ZM118.347 43.7503H107.247L106.315 54.5001C108.368 54.9214 110.347 55.544 112.232 56.3463L118.347 43.7503ZM104.255 54.1489L105.156 43.7503H94.8563L95.7576 54.1473C97.1449 53.959 98.5611 53.8617 100 53.8617C101.443 53.8617 102.863 53.9595 104.255 54.1489ZM92.7652 43.7503L93.6969 54.4977C91.6435 54.9182 89.6635 55.5402 87.7784 56.342L81.6655 43.7503H92.7652ZM79.3203 43.7503L85.8659 57.2333C83.8773 58.2435 82.0113 59.4602 80.2961 60.8551L69.6552 50.6265L75.9201 43.7503H79.3203ZM68.2516 52.167L78.7182 62.2282C77.2027 63.6383 75.8274 65.1972 74.6156 66.8815L61.1397 59.9728L68.2516 52.167ZM60.4166 61.9432L73.4483 68.6243C72.3687 70.3591 71.4545 72.2076 70.7275 74.1475L60.4166 73.233V61.9432ZM60.4166 75.3245L70.0455 76.1785C69.3671 78.4567 68.9415 80.8437 68.8012 83.3071H60.4166V75.3245ZM60.4166 85.3904H68.75V93.4695H60.4166V85.3904ZM60.4166 95.5528H68.75V103.632H60.4166V95.5528ZM60.4166 105.715H68.75V113.794H60.4166V105.715ZM60.4166 115.877H68.75V122.917V122.917H60.4166V115.877ZM125 41.667H74.9999L58.3333 59.9597V122.917V125H60.4166H139.583H141.667V122.917V59.9597L125 41.667ZM129.167 122.917V85.1117C129.167 69.0034 116.108 55.945 100 55.945C83.8917 55.945 70.8333 69.0034 70.8333 85.1117V122.917H72.9167V85.0101C72.9167 70.0524 85.0423 57.9267 100 57.9267C114.958 57.9267 127.083 70.0523 127.083 85.01V122.917H129.167Z" fill="black"/>
</svg>
