<svg width="200" height="201" viewBox="0 0 200 201" fill="none" xmlns="http://www.w3.org/2000/svg">
<rect x="30.7287" y="30.9684" width="138.54" height="138.54" rx="8.85404" fill="white" stroke="#13141A" stroke-width="1.04165"/>
<rect x="35.4161" y="35.6562" width="129.165" height="129.165" rx="4.16661" fill="#1071AF"/>
<rect x="97.9152" y="35.6562" width="4.16661" height="129.165" fill="white"/>
<rect x="45.8326" y="46.0723" width="43.7494" height="43.7494" rx="4.16661" fill="white"/>
<rect x="49.9993" y="50.2402" width="35.4161" height="16.6664" fill="#1071AF"/>
<path d="M47.916 91.9062H54.1661V96.0731C54.1661 97.2237 53.2334 98.1564 52.0828 98.1564H49.9993C48.8487 98.1564 47.916 97.2237 47.916 96.0731V91.9062Z" fill="white"/>
<path d="M81.2488 91.9062H87.499V96.0731C87.499 97.2237 86.5662 98.1564 85.4157 98.1564H83.3321C82.1815 98.1564 81.2488 97.2237 81.2488 96.0731V91.9062Z" fill="white"/>
<circle cx="54.1659" cy="79.4049" r="4.16661" fill="#1071AF"/>
<circle cx="81.2488" cy="79.4049" r="4.16661" fill="#1071AF"/>
<path d="M54.1658 131.488L81.2488 131.488L67.7073 154.404L54.1658 131.488Z" fill="white"/>
<rect x="62.4991" y="110.655" width="10.417" height="20.8339" fill="white"/>
<path d="M114.582 77.3218L149.998 77.3218L132.29 46.0723L114.582 77.3218Z" fill="white"/>
<rect x="127.081" y="77.3232" width="10.4165" height="87.4987" fill="white"/>
<path fill-rule="evenodd" clip-rule="evenodd" d="M164.581 42.6784L42.4383 164.821H39.5827C37.2816 164.821 35.4161 162.956 35.4161 160.654V157.792L157.552 35.6562H160.414C162.715 35.6562 164.581 37.5217 164.581 39.8229V42.6784Z" fill="#FF0E00"/>
</svg>
