<svg width="200" height="201" viewBox="0 0 200 201" fill="none" xmlns="http://www.w3.org/2000/svg">
<rect x="36.9792" y="12.3127" width="126.042" height="176.042" rx="8.85417" fill="white" stroke="#13141A" stroke-width="1.04167"/>
<rect x="41.6667" y="17" width="116.667" height="166.667" rx="4.16667" fill="#1071AF"/>
<rect x="50" y="33.6665" width="100" height="100" rx="4.16667" fill="white"/>
<path fill-rule="evenodd" clip-rule="evenodd" d="M94.8555 46.1667C94.8555 43.8655 96.721 42 99.0221 42H100.962C103.263 42 105.129 43.8655 105.129 46.1667V50.1771H94.8555V46.1667ZM84.5815 54.3453C84.5815 52.0441 86.4469 50.1786 88.7481 50.1786H111.235C113.536 50.1786 115.402 52.0441 115.402 54.3453V56.3114H84.5815V54.3453ZM85.106 58.9279C85.9188 59.2178 86.3427 60.1117 86.0528 60.9245L63.4511 124.297C63.1612 125.11 62.2673 125.534 61.4545 125.244C60.6418 124.954 60.2178 124.06 60.5077 123.247L83.1094 59.8747C83.3993 59.0619 84.2932 58.638 85.106 58.9279ZM82.4186 85.0391L78.1248 96.7871H77.5956C75.7799 96.7871 74.308 98.2515 74.308 100.058V111.506C74.308 113.312 75.7799 114.777 77.5956 114.777V120.501C77.5956 122.307 79.0674 123.772 80.8831 123.772H83.3487C85.1644 123.772 86.6362 122.307 86.6362 120.501V114.777H111.293V120.501C111.293 122.307 112.764 123.772 114.58 123.772H117.046C118.861 123.772 120.333 122.307 120.333 120.501V114.777C122.149 114.777 123.621 113.312 123.621 111.506V100.058C123.621 98.2515 122.149 96.7871 120.333 96.7871H119.791L115.498 85.0391C115.025 83.7465 113.79 82.8861 112.408 82.8861H85.5081C84.1257 82.8861 82.891 83.7465 82.4186 85.0391ZM86.0838 86.9746L82.4974 96.7871H115.419L111.832 86.9746H86.0838ZM113.93 60.9245C113.64 60.1117 114.064 59.2178 114.877 58.9279C115.69 58.638 116.584 59.0619 116.874 59.8747L139.475 123.247C139.765 124.06 139.341 124.954 138.529 125.244C137.716 125.534 136.822 125.11 136.532 124.297L113.93 60.9245ZM92.115 58.8747C92.9572 59.0628 93.4874 59.898 93.2993 60.7402L89.1899 79.1387C89.0018 79.9809 88.1666 80.5111 87.3244 80.323C86.4822 80.1349 85.952 79.2997 86.1401 78.4575L90.2495 60.059C90.4376 59.2168 91.2728 58.6866 92.115 58.8747ZM105.659 60.7402C105.471 59.898 106.001 59.0628 106.844 58.8747C107.686 58.6866 108.521 59.2168 108.709 60.059L112.818 78.4575C113.007 79.2997 112.476 80.1349 111.634 80.323C110.792 80.5111 109.957 79.9809 109.769 79.1387L105.659 60.7402ZM98.9651 58.8371C99.8281 58.8371 100.528 59.5367 100.528 60.3996V78.7981C100.528 79.661 99.8281 80.3606 98.9651 80.3606C98.1022 80.3606 97.4026 79.661 97.4026 78.7981V60.3996C97.4026 59.5367 98.1022 58.8371 98.9651 58.8371Z" fill="black"/>
</svg>
