<svg width="200" height="200" viewBox="0 0 200 200" fill="none" xmlns="http://www.w3.org/2000/svg">
<rect y="16.6677" width="200" height="166.667" fill="#68696C"/>
<circle cx="100" cy="100.001" r="66.1458" fill="white" stroke="#68696C" stroke-width="1.04167"/>
<circle cx="99.9999" cy="100" r="57.2917" stroke="#FF0E00" stroke-width="10.4167"/>
<path d="M66.6665 111.145L75.6565 110.213C75.9133 112.25 76.6732 113.868 77.9361 115.069C79.1989 116.249 80.6544 116.838 82.3026 116.838C84.1862 116.838 85.7809 116.077 87.0865 114.555C88.3922 113.011 89.0451 110.695 89.0451 107.607C89.0451 104.713 88.3922 102.547 87.0865 101.11C85.8023 99.6524 84.122 98.9234 82.0457 98.9234C79.4558 98.9234 77.1334 100.071 75.0785 102.365L67.7581 101.303L72.3815 76.763H96.237V85.2219H79.2203L77.8076 93.2305C79.8197 92.2227 81.8745 91.7188 83.9722 91.7188C87.9748 91.7188 91.3675 93.1769 94.1501 96.093C96.9327 99.0091 98.324 102.794 98.324 107.447C98.324 111.328 97.2002 114.791 94.9527 117.835C91.8919 121.995 87.6431 124.075 82.2063 124.075C77.8611 124.075 74.3187 122.906 71.5789 120.569C68.8391 118.232 67.2016 115.091 66.6665 111.145Z" fill="black"/>
<path d="M118.05 75.9268C122.609 75.9268 126.173 77.5564 128.742 80.8155C131.803 84.6751 133.333 91.0756 133.333 100.017C133.333 108.937 131.792 115.348 128.71 119.25C126.163 122.467 122.609 124.075 118.05 124.075C113.47 124.075 109.777 122.317 106.973 118.8C104.169 115.262 102.767 108.969 102.767 99.9204C102.767 91.0434 104.308 84.6537 107.391 80.7512C109.938 77.5349 113.491 75.9268 118.05 75.9268ZM118.05 83.4208C116.959 83.4208 115.985 83.7746 115.129 84.4821C114.272 85.1683 113.609 86.4119 113.138 88.2131C112.517 90.5502 112.207 94.4849 112.207 100.017C112.207 105.549 112.485 109.355 113.042 111.435C113.598 113.493 114.294 114.866 115.129 115.552C115.985 116.238 116.959 116.581 118.05 116.581C119.142 116.581 120.116 116.238 120.972 115.552C121.828 114.844 122.492 113.59 122.963 111.789C123.583 109.473 123.894 105.549 123.894 100.017C123.894 94.4849 123.615 90.6896 123.059 88.6312C122.502 86.5513 121.796 85.1683 120.94 84.4821C120.105 83.7746 119.142 83.4208 118.05 83.4208Z" fill="black"/>
</svg>
