<svg width="200" height="201" viewBox="0 0 200 201" fill="none" xmlns="http://www.w3.org/2000/svg">
<rect x="1.56254" y="146.687" width="92.7084" height="196.875" rx="8.85417" transform="rotate(-90 1.56254 146.687)" fill="white" stroke="#13141A" stroke-width="1.04167"/>
<rect x="6.77083" y="141.479" width="82.2917" height="186.458" rx="3.64583" transform="rotate(-90 6.77083 141.479)" stroke="black" stroke-width="1.04167"/>
<path d="M95.0041 77.8918C98.5873 77.8918 101.492 74.9874 101.492 71.4041C101.492 67.8209 98.5873 64.9165 95.0041 64.9165C91.4208 64.9165 88.5164 67.8209 88.5164 71.4041C88.5164 74.9874 91.4208 77.8918 95.0041 77.8918Z" fill="black"/>
<path fill-rule="evenodd" clip-rule="evenodd" d="M95.72 79.0793C92.3712 79.4567 90.0433 82.3602 90.4207 85.7099L91.3575 94.0276C90.7257 94.0385 90.0985 94.0837 89.4767 94.1516C79.8521 95.1988 71.8792 102.916 70.927 112.913C69.8427 124.336 78.2998 134.57 89.7229 135.656C101.146 136.741 111.382 128.284 112.469 116.86C112.74 114.002 112.437 111.228 111.595 108.592L114.023 108.319L118.463 123.208C118.9 124.675 120.44 125.512 121.909 125.082L129.524 122.851C129.827 122.762 130.087 122.597 130.288 122.381C130.687 121.952 130.854 121.328 130.67 120.726C130.454 120.023 129.812 119.539 129.077 119.526L125.516 119.464L120.907 103.469C120.281 101.298 118.181 99.8953 115.935 100.148L104.925 101.389L102.999 84.2916C102.621 80.9428 99.706 78.6303 96.3572 79.0078L95.72 79.0793ZM78.3225 113.625C78.9406 107.123 84.0109 102.19 90.2497 101.527C90.885 101.459 91.5394 101.428 92.1947 101.452L92.8174 106.979C93.0464 109.014 94.8819 110.478 96.9165 110.249L104.054 109.444C105.014 111.509 105.341 113.615 105.1 116.146C104.396 123.577 97.8687 128.998 90.4388 128.29C83.009 127.584 77.6174 121.055 78.3225 113.625Z" fill="black"/>
<path d="M118.293 86.1253C118.076 84.2011 117.424 82.6969 114.878 82.9829L104.172 84.1894L104.954 91.1259L115.66 89.9194C118.205 89.6325 118.509 88.0495 118.293 86.1253Z" fill="black"/>
</svg>
