<svg width="200" height="201" viewBox="0 0 200 201" fill="none" xmlns="http://www.w3.org/2000/svg">
<circle cx="100" cy="100.004" r="82.8125" fill="white" stroke="#05081B" stroke-width="1.04167"/>
<circle cx="100" cy="100.003" r="71.875" stroke="#FF0E00" stroke-width="12.5"/>
<path d="M70.8334 108.334L56.2501 125.001L70.8334 141.668V108.334Z" fill="black"/>
<path d="M129.167 108.334L143.75 125.001L129.167 141.668V108.334Z" fill="black"/>
<path d="M94.0477 137.501H98.106L99.9942 143.288L101.906 137.501H105.952L108.333 152.084H104.356L103.165 142.486L101.335 147.709H98.5365L96.8465 142.486L95.656 152.084H91.6667L94.0477 137.501Z" fill="black"/>
<path d="M88.2975 57.9365H74.3081C72.4846 57.9365 70.8008 58.9136 69.8961 60.4969L65.2534 68.6217C64.8146 69.3895 64.5838 70.2585 64.5838 71.1428V85.0379C64.5838 86.9088 66.1006 88.4255 67.9715 88.4255H88.2975V57.9365Z" fill="black"/>
<circle r="8.46917" transform="matrix(-1 0 0 1 77.2859 87.5803)" fill="black" stroke="white" stroke-width="1.69383"/>
<circle r="4.23458" transform="matrix(-1 0 0 1 77.2871 87.5788)" fill="white"/>
<path d="M67.9676 70.2206C67.645 70.7852 68.0527 71.4877 68.703 71.4877H84.9078V61.3247H73.051L67.9676 70.2206Z" fill="white"/>
<path d="M88.2975 81.6519H135.417V88.4272H88.2975V81.6519Z" fill="black"/>
<path d="M92.3008 53.7788C92.3008 52.8433 93.0591 52.085 93.9946 52.085H133.723C134.658 52.085 135.417 52.8433 135.417 53.7788V78.2624H92.3008V53.7788Z" fill="black"/>
<circle r="8.46917" transform="matrix(-1 0 0 1 119.325 87.5803)" fill="black" stroke="white" stroke-width="1.69383"/>
<circle r="4.23458" transform="matrix(-1 0 0 1 119.326 87.5788)" fill="white"/>
<path d="M83.3333 114.639C85.0885 113.864 86.6671 112.864 88.0692 111.639V130.798H93.5098V104.167H89.0953C88.4757 105.783 87.3334 107.2 85.6683 108.419C84.8612 109.003 84.0829 109.497 83.3333 109.9V114.639Z" fill="black"/>
<path fill-rule="evenodd" clip-rule="evenodd" d="M113.898 106.917C112.349 105.084 110.2 104.167 107.451 104.167C104.701 104.167 102.558 105.072 101.022 106.881C99.1637 109.076 98.2344 112.67 98.2344 117.663C98.2344 122.753 99.0798 126.293 100.771 128.283C102.462 130.261 104.688 131.25 107.451 131.25C110.2 131.25 112.343 130.346 113.879 128.537C115.737 126.341 116.667 122.735 116.667 117.718C116.667 112.688 115.744 109.088 113.898 106.917ZM105.689 108.979C106.205 108.581 106.792 108.382 107.451 108.382C108.109 108.382 108.69 108.581 109.193 108.979C109.709 109.365 110.135 110.143 110.471 111.313C110.807 112.471 110.974 114.606 110.974 117.718C110.974 120.829 110.787 123.037 110.413 124.339C110.129 125.352 109.729 126.058 109.212 126.456C108.696 126.842 108.109 127.035 107.451 127.035C106.792 127.035 106.205 126.842 105.689 126.456C105.185 126.07 104.766 125.298 104.43 124.14C104.095 122.97 103.927 120.829 103.927 117.718C103.927 114.606 104.114 112.393 104.488 111.078C104.772 110.065 105.172 109.365 105.689 108.979Z" fill="black"/>
</svg>
