<svg width="200" height="201" viewBox="0 0 200 201" fill="none" xmlns="http://www.w3.org/2000/svg">
<rect x="36.9792" y="12.3128" width="126.042" height="176.042" rx="8.85417" fill="white" stroke="#13141A" stroke-width="1.04167"/>
<rect x="41.6667" y="17" width="116.667" height="166.667" rx="4.16667" fill="#1071AF"/>
<rect x="50" y="33.6664" width="100" height="100" rx="4.16667" fill="white"/>
<path d="M81.25 52.4164L91.6667 46.1664H114.583V55.0074H104.167V58.1277H114.583V63.8106H104.167V69.083L108.333 75.333V112.833C108.333 117.435 104.602 121.166 100 121.166C95.3976 121.166 91.6667 117.435 91.6667 112.833V75.333L95.8333 69.083V63.8106H85.4167L81.25 58.1277H95.8333V55.0074H81.25V52.4164Z" fill="black"/>
<path d="M69.3594 168.735H65.4573V153.999C64.0319 155.335 62.352 156.322 60.4167 156.963V153.414C61.4354 153.08 62.5414 152.449 63.7353 151.521C64.9297 150.583 65.7488 149.494 66.1931 148.25H69.3589L69.3594 168.735ZM79.7696 148.252C81.7414 148.252 83.2826 148.956 84.3932 150.367C85.7171 152.036 86.3788 154.806 86.3788 158.674C86.3788 162.533 85.712 165.307 84.379 166.996C83.2776 168.387 81.7409 169.083 79.7691 169.083C77.7886 169.083 76.1915 168.323 74.9783 166.802C73.7657 165.272 73.1593 162.549 73.1593 158.634C73.1593 154.792 73.8261 152.029 75.1591 150.339C76.2616 148.947 77.7977 148.252 79.7696 148.252ZM79.7696 151.494C79.2973 151.494 78.8763 151.647 78.5061 151.953C78.1359 152.249 77.849 152.788 77.6454 153.567C77.3773 154.578 77.2427 156.281 77.2427 158.674C77.2427 161.067 77.363 162.714 77.6037 163.614C77.845 164.505 78.1451 165.098 78.5061 165.395C78.8763 165.691 79.2978 165.841 79.7696 165.841C80.2413 165.841 80.6633 165.691 81.033 165.395C81.4032 165.088 81.6906 164.546 81.8938 163.767C82.1624 162.765 82.2965 161.067 82.2965 158.674C82.2965 156.281 82.1766 154.638 81.9354 153.748C81.6947 152.846 81.3895 152.249 81.0188 151.953C80.6582 151.647 80.2418 151.494 79.7696 151.494ZM95.5992 148.252C97.571 148.252 99.1122 148.956 100.223 150.367C101.547 152.036 102.208 154.806 102.208 158.674C102.208 162.533 101.542 165.307 100.209 166.996C99.1072 168.387 97.5705 169.083 95.5987 169.083C93.6182 169.083 92.0211 168.323 90.8079 166.802C89.5953 165.272 88.989 162.549 88.989 158.634C88.989 154.792 89.6557 152.029 90.9887 150.339C92.0912 148.947 93.6273 148.252 95.5992 148.252ZM95.5992 151.494C95.1269 151.494 94.7059 151.647 94.3357 151.953C93.9655 152.249 93.6786 152.788 93.475 153.567C93.2069 154.578 93.0723 156.281 93.0723 158.674C93.0723 161.067 93.1926 162.714 93.4333 163.614C93.6746 164.505 93.9747 165.098 94.3357 165.395C94.7059 165.691 95.1274 165.841 95.5992 165.841C96.0709 165.841 96.4929 165.691 96.8626 165.395C97.2328 165.088 97.5202 164.546 97.7234 163.767C97.992 162.765 98.1261 161.067 98.1261 158.674C98.1261 156.281 98.0062 154.638 97.765 153.748C97.5243 152.846 97.2191 152.249 96.8484 151.953C96.4879 151.647 96.0714 151.494 95.5992 151.494ZM105.777 158.028H109.594L112.245 164.254L114.922 158.028H118.725V168.735H116.422V161.044L112.825 168.735H111.524L108.094 161.044V168.735H105.777V158.028H105.777ZM136.065 163.602H126.411V158.036H136.065V154.724L142.148 160.819L136.065 166.914V163.602Z" fill="white"/>
</svg>
