<svg width="200" height="201" viewBox="0 0 200 201" fill="none" xmlns="http://www.w3.org/2000/svg">
<path d="M174.314 169.604H25.6864C18.3215 169.604 13.7368 161.631 17.4754 155.302L91.789 29.4893C95.4728 23.2528 104.527 23.2528 108.211 29.4893L182.525 155.302C186.263 161.631 181.679 169.604 174.314 169.604Z" fill="#FF0E00" stroke="black" stroke-width="1.04167"/>
<path d="M25.6864 166.999H174.314C179.681 166.999 182.986 161.203 180.283 156.626L105.969 30.8138C103.293 26.2835 96.7071 26.2835 94.0313 30.8138L19.7176 156.626C17.014 161.203 20.3189 166.999 25.6864 166.999Z" fill="#FF0E00" stroke="white" stroke-width="4.16667"/>
<path fill-rule="evenodd" clip-rule="evenodd" d="M35.9376 154.504L100 45.7666L164.063 154.504H35.9376Z" fill="white"/>
<path d="M88.4091 86.4724L76.5635 107.014L100.326 106.112L96.782 100.466C102.131 99.483 107.724 100.932 111.756 104.522C111.87 104.603 111.978 104.707 112.086 104.811C112.193 104.914 112.299 105.016 112.412 105.097L119.017 98.4176C116.801 96.3515 114.32 94.7068 111.56 93.4803C105.473 90.6497 98.3462 90.0695 91.8433 92.0704L88.4091 86.4724Z" fill="black"/>
<path d="M121.366 103.339L112.048 120.792L110.278 124.186L116.84 124.069C115.883 126.747 114.32 129.116 112.229 130.982C110.196 132.903 107.709 134.344 104.985 135.059L107.62 144.03C109.288 143.556 110.933 142.933 112.429 142.131C119.518 138.513 124.869 131.797 126.684 123.894L133.245 123.778L121.366 103.339Z" fill="black"/>
<path d="M89.5658 123.566L86.3168 129.445C82.6066 125.076 81.2175 119.28 82.6293 113.768L73.4783 111.49C71.0784 121.068 74.1658 131.27 81.5514 137.957L78.3535 143.613L102.163 143.633L89.5658 123.566Z" fill="black"/>
</svg>
