<svg width="200" height="201" viewBox="0 0 200 201" fill="none" xmlns="http://www.w3.org/2000/svg">
<rect x="36.9792" y="12.3122" width="126.042" height="176.042" rx="8.85417" fill="white" stroke="#13141A" stroke-width="1.04167"/>
<rect x="41.6667" y="17" width="116.667" height="166.667" rx="4.16667" fill="#1071AF"/>
<rect x="50" y="33.666" width="100" height="100" rx="4.16667" fill="white"/>
<path d="M110.189 59.4534C108.405 59.4534 108.034 59.4534 106.25 59.4534V52.8319L110.67 52.8344L110.617 46.166L95.9644 46.166L81.3023 55.9231L81.25 68.8963L85.4005 66.9993V58.1458L95.8333 52.8319V59.4534C94.2584 59.4534 93.6253 59.4534 92.0504 59.4534C90.6112 59.4271 89.5835 60.9821 89.5833 61.8594C89.5833 81.6283 89.5833 101.397 89.5833 121.166H112.5V61.8086C112.527 61.0588 111.513 59.5056 110.189 59.4534Z" fill="#E42522"/>
</svg>
