<svg width="200" height="201" viewBox="0 0 200 201" fill="none" xmlns="http://www.w3.org/2000/svg">
<rect x="6.45569" y="100.333" width="132.292" height="132.292" rx="7.8125" transform="rotate(-45 6.45569 100.333)" fill="white" stroke="#13141A" stroke-width="1.04167"/>
<rect x="42.4038" y="100.333" width="82.2917" height="82.2917" rx="3.64583" transform="rotate(-45 42.4038 100.333)" fill="#FFE600" stroke="black" stroke-width="1.04167"/>
<path fill-rule="evenodd" clip-rule="evenodd" d="M45.8333 139.917L139.583 46.1667L141.056 47.6398L47.3065 141.39L45.8333 139.917ZM49.5162 143.599L143.266 49.8494L144.739 51.3226L50.9893 145.073L49.5162 143.599ZM146.949 53.5322L53.1991 147.282L54.6722 148.755L148.422 55.0053L146.949 53.5322ZM56.8819 150.966L150.632 57.2159L152.105 58.6891L58.3551 152.439L56.8819 150.966ZM154.315 60.8987L60.5648 154.649L62.0379 156.122L155.788 62.3718L154.315 60.8987Z" fill="black"/>
</svg>
