<svg width="200" height="201" viewBox="0 0 200 201" fill="none" xmlns="http://www.w3.org/2000/svg">
<path d="M25.6863 169.936H174.314C181.678 169.936 186.263 161.963 182.525 155.634L108.211 29.8216C104.527 23.5851 95.4727 23.5851 91.7889 29.8216L17.4753 155.634C13.7367 161.963 18.3214 169.936 25.6863 169.936Z" fill="#FF0E00" stroke="black" stroke-width="1.04167"/>
<path d="M174.314 167.332H25.6863C20.3188 167.332 17.0139 161.536 19.7175 156.958L94.0312 31.146C96.707 26.6158 103.293 26.6158 105.969 31.146L180.282 156.958C182.986 161.536 179.681 167.332 174.314 167.332Z" fill="#FF0E00" stroke="white" stroke-width="4.16667"/>
<path fill-rule="evenodd" clip-rule="evenodd" d="M164.062 154.834L99.9999 46.0967L35.9374 154.834H164.062Z" fill="white"/>
<path d="M107.239 74.0338C106.667 73.9035 106.102 73.9754 105.848 74.2474C104.141 76.5428 103.953 78.5461 100.735 78.9104C99.8493 78.9396 99.224 76.142 98.1494 76.1778C95.2402 76.2755 95.7167 78.4878 94.1994 78.5382C93.5036 78.561 93.0011 77.3881 92.9834 76.7484C92.9591 75.9177 93.7637 74.5912 93.0901 73.8804C92.6707 73.4855 92.31 73.4769 91.8181 73.666C90.8607 74.0753 90.3235 74.9005 89.8027 75.7583C89.2663 76.9265 89.3233 78.2105 89.667 79.1579C90.3225 80.6921 92.1118 81.3424 93.4405 82.2284C94.6698 83.1466 93.9273 84.6226 92.471 84.5436L84.1505 83.3379C82.7526 83.1291 81.3236 86.7978 82.8708 87.7689L88.7067 91.4214C90.0665 92.4883 90.3742 93.3654 90.6178 95.739C90.8613 98.1126 89.9117 101.897 90.006 105.186C90.0631 107.196 90.5594 108.139 89.8261 109.059C89.1497 109.785 86.8076 108.889 85.8437 108.409L82.7594 107.101C80.7709 106.208 79.1273 107.029 78.6591 108.323C76.9339 112.28 76.6196 117.475 75.9894 122.036C75.7778 123.514 75.7063 125.249 76.1294 126.77C76.4021 127.464 77.4879 128.135 78.0575 128.115C79.1971 128.077 80.558 127.857 80.368 125.689C80.1327 121.862 80.9582 117.895 82.1297 114.531C82.48 113.495 84.119 112.652 86.1104 113.736L93.2366 117.125C96.0578 118.373 98.2865 116.231 100.544 117.69L111.516 126.177C112.941 127.28 114.056 130.608 114.736 132.247C115.361 134.208 117.014 135.057 118.698 136.406C120.601 137.347 121.744 139.153 123.013 140.755C124.021 142.831 126.051 145.957 126.144 149.214C126.173 150.236 126.757 151.412 129.279 151.072C130.481 151.032 132.174 149.402 131.663 146.99C131.227 145.024 129.811 142.873 129.371 140.777C129.084 139.573 128.744 137.756 128.084 136.82C127.153 135.252 124.942 134.543 124.267 133.031C123.392 131.206 123.332 128.587 123.592 126.597C123.81 125.31 125.161 123.921 125.702 122.88C128.061 119.029 126.744 116.651 124.66 114.611C120.362 110.344 113.327 108.464 108.243 105.504C106.122 104.359 102.822 102.75 102.434 100.27L100.679 92.3298C100.519 91.1207 101.003 89.3824 101.434 88.9198C102.478 87.7991 104.963 86.5424 104.187 85.9929C102.953 84.8196 100.682 85.9127 99.2713 85.2576C99.1401 85.1332 98.7731 83.5423 99.0204 83.277C99.442 82.5594 99.3759 81.493 101.716 81.4152C106.777 81.2456 107.988 79.2564 108.611 76.679C109.158 75.0602 108.194 74.2499 107.239 74.0338ZM91.593 118.389C91.0132 118.282 90.4841 118.364 90.0964 118.836C88.6992 120.929 87.0956 124.308 87.1668 126.798C87.3184 132.164 90.2788 134.984 91.1583 139.238L91.6645 141.471C91.8503 142.306 92.8724 142.693 94.5111 142.446C95.8989 142.271 95.7469 138.741 95.4784 138.174C94.162 134.191 91.9563 130.431 91.8485 126.662C91.7982 124.875 94.1663 122.402 94.1193 120.742C94.1029 120.167 93.6059 119.16 92.6628 118.76C92.2913 118.593 91.9407 118.454 91.593 118.389ZM116.444 135.829C115.617 135.916 114.653 138.366 114.502 139.713C114.394 140.625 114.128 141.967 113.655 143.126C113.228 144.168 112.814 143.947 112.335 145.462C111.89 146.866 114.358 148.21 115.342 147.719C117.054 146.862 117.578 145.681 117.543 144.467C117.516 143.509 119.204 141.192 119.182 140.426C119.943 139.052 120.006 139.436 120.063 138.991C120.113 138.588 117.504 135.718 116.444 135.829Z" fill="black"/>
</svg>
