<svg width="200" height="201" viewBox="0 0 200 201" fill="none" xmlns="http://www.w3.org/2000/svg">
<rect x="0.520833" y="-0.520833" width="138.542" height="138.542" rx="8.85417" transform="matrix(-1 0 0 1 169.792 31.9177)" fill="white" stroke="#13141A" stroke-width="1.04167"/>
<rect width="129.167" height="129.167" rx="4.16667" transform="matrix(-1 0 0 1 164.583 36.0842)" fill="#269E48"/>
<path fill-rule="evenodd" clip-rule="evenodd" d="M109.027 78.5438C111.163 74.2606 109.92 69.8695 106.57 68.1694C103.221 66.4694 98.0967 67.2565 95.9614 71.5396C93.826 75.8227 95.7454 81.5211 99.0953 83.2211C102.445 84.9208 106.892 82.8268 109.027 78.5438ZM118.384 88.9325L131.499 88.9066L141.077 99.6063C141.714 100.743 143.048 101.289 144.287 100.92C145.926 100.433 146.725 98.5802 145.962 97.0362L136.344 84.6145C135.875 83.665 134.994 82.9854 133.961 82.7754L114.881 80.6387C112.632 80.3121 110.689 81.6403 109.641 82.9902L107.051 86.5075C105.893 88.5394 105.744 91.0022 106.648 93.173L115.686 110.613L103.182 120.675C100.617 122.74 99.1917 125.904 99.3461 129.193L100.404 151.738C100.46 152.921 101.157 153.98 102.222 154.501C104.296 155.515 106.734 154.104 106.883 151.805L108.348 129.246C108.402 128.408 108.835 127.641 109.524 127.162L124.523 116.73C127.94 114.353 129.072 109.82 127.175 106.113L118.384 88.9325ZM104.082 96.902L108.134 104.722L102.902 112.525C101.529 114.574 98.6325 114.886 96.8511 113.178L88.2971 104.977C87.322 104.042 87.2298 102.517 88.0852 101.472C88.9402 100.427 90.4557 100.212 91.5692 100.977L98.8309 105.963L104.082 96.902ZM128.545 118.101L120.296 123.836L127.982 133.775C130.082 136.49 133.979 137.004 136.711 134.925L151.832 123.416C153.254 122.334 153.541 120.309 152.476 118.873C151.485 117.538 149.649 117.161 148.213 117.998L134.123 126.198L128.545 118.101Z" fill="white"/>
<rect x="43.75" y="46.501" width="33.3333" height="108.333" fill="white"/>
</svg>
