<svg width="200" height="201" viewBox="0 0 200 201" fill="none" xmlns="http://www.w3.org/2000/svg">
<rect x="1.56254" y="147.02" width="92.7084" height="196.875" rx="8.85417" transform="rotate(-90 1.56254 147.02)" fill="white" stroke="#13141A" stroke-width="1.04167"/>
<rect x="6.77083" y="141.811" width="82.2917" height="186.458" rx="3.64583" transform="rotate(-90 6.77083 141.811)" stroke="black" stroke-width="1.04167"/>
<path fill-rule="evenodd" clip-rule="evenodd" d="M85.3577 75.6665C83.1173 75.6665 81.2172 77.3182 80.8976 79.5435C80.586 81.7131 81.8699 83.7946 83.944 84.4823L86.4688 85.3194L80.2458 96.1517C78.297 95.2749 76.1336 94.7869 73.8557 94.7869C65.283 94.7869 58.3334 101.7 58.3334 110.227C58.3334 118.754 65.283 125.667 73.8557 125.667C82.4285 125.667 89.378 118.754 89.378 110.227C89.378 105.01 86.7773 100.398 82.7953 97.6029L84.4293 94.7586L102.783 111.292C102.891 111.394 103.016 111.481 103.157 111.549C103.387 111.659 103.632 111.704 103.87 111.691H112.358C113.099 119.531 119.735 125.666 127.811 125.666C136.384 125.666 143.333 118.754 143.333 110.226C143.333 101.699 136.384 94.7866 127.811 94.7866C125.152 94.7866 122.65 95.4515 120.462 96.6232L115.233 88.8205V84.4891L119.678 84.4891C120.488 84.4891 121.144 83.8306 121.144 83.0184C121.144 82.2062 120.488 81.5477 119.678 81.5477L107.113 81.5477C106.303 81.5477 105.647 82.2062 105.647 83.0184C105.647 83.8306 106.303 84.4891 107.113 84.4891L112.302 84.4891V87.7952H88.4297L89.9068 85.224C90.1269 84.8408 90.1635 84.3786 90.0064 83.9654C89.8494 83.5522 89.5154 83.2318 89.0969 83.093L84.8636 81.6894C84.1385 81.449 83.6897 80.7215 83.7987 79.963C83.9104 79.1852 84.5746 78.6078 85.3577 78.6078H92.7025C93.5119 78.6078 94.168 77.9494 94.168 77.1372C94.168 76.3249 93.5119 75.6665 92.7025 75.6665H85.3577ZM118.018 98.2466L113.983 92.2259L106.114 108.749H112.359C112.763 104.519 114.882 100.786 118.018 98.2466ZM115.307 108.749C115.688 105.539 117.297 102.694 119.661 100.698L125.057 108.749H115.307ZM115.305 111.691H127.809C128.351 111.691 128.848 111.391 129.102 110.911C129.357 110.432 129.327 109.85 129.025 109.399L122.108 99.0793C123.818 98.2156 125.755 97.7279 127.811 97.7279C134.789 97.7279 140.402 103.348 140.402 110.226C140.402 117.105 134.789 122.725 127.811 122.725C121.335 122.725 116.035 117.885 115.305 111.691ZM73.8557 97.7282C75.6024 97.7282 77.2636 98.0803 78.7726 98.7161L72.5843 109.488C72.1801 110.192 72.4208 111.091 73.122 111.497C73.8232 111.902 74.7194 111.661 75.1236 110.957L81.3246 100.163C84.4359 102.443 86.447 106.109 86.447 110.227C86.447 117.105 80.8342 122.725 73.8557 122.725C66.8773 122.725 61.2644 117.105 61.2644 110.227C61.2644 103.348 66.8773 97.7282 73.8557 97.7282ZM86.7399 90.7365L85.9257 92.1539L103.31 107.815L111.443 90.7365H86.7399Z" fill="black"/>
<path d="M165.515 70.6343L156.25 80.0924L156.25 89.207L165.515 79.7489V133.999H171.765V79.5246L181.25 89.207V80.0924L168.75 67.332L165.625 70.5221H165.515V70.6343Z" fill="black"/>
<path d="M28.0151 130.697L18.75 121.239L18.75 112.125L28.0151 121.583V67.3328H34.2651V121.807L43.75 112.125V121.239L31.25 134L28.125 130.809H28.0151V130.697Z" fill="black"/>
</svg>
