<svg width="200" height="201" viewBox="0 0 200 201" fill="none" xmlns="http://www.w3.org/2000/svg">
<circle cx="100" cy="100.335" r="82.8125" fill="white" stroke="#05081B" stroke-width="1.04167"/>
<circle cx="100" cy="100.334" r="71.875" stroke="#FF0E00" stroke-width="12.5"/>
<path fill-rule="evenodd" clip-rule="evenodd" d="M144.891 48.0005L149.31 43.5811L158.149 52.4199L153.73 56.8393L109.536 101.033L153.73 145.228L158.15 149.647L149.311 158.486L144.891 154.067L100.697 109.872L56.5027 154.067L52.0833 158.486L43.2444 149.647L47.6639 145.228L91.8582 101.033L47.6643 56.8393L43.2448 52.4199L52.0837 43.5811L56.5031 48.0005L100.697 92.1945L144.891 48.0005Z" fill="#FF0E00"/>
<mask id="path-4-inside-1_0_3789" fill="white">
<path fill-rule="evenodd" clip-rule="evenodd" d="M150.612 142.11C159.99 130.762 165.625 116.206 165.625 100.334C165.625 84.8191 160.241 70.5617 151.24 59.3283L109.535 101.033L150.612 142.11ZM141.773 150.949L100.696 109.872L58.9943 151.574C70.2277 160.575 84.4851 165.959 100 165.959C115.87 165.959 130.425 160.325 141.773 150.949ZM50.0227 142.867C40.2646 131.413 34.375 116.561 34.375 100.334C34.375 84.4635 40.0086 69.9089 49.385 58.5607L91.8572 101.033L50.0227 142.867ZM58.2236 49.7216L100.696 92.1941L142.533 50.3568C131.079 40.5986 116.227 34.709 100 34.709C84.1281 34.709 69.5722 40.3436 58.2236 49.7216Z"/>
</mask>
<path fill-rule="evenodd" clip-rule="evenodd" d="M150.612 142.11C159.99 130.762 165.625 116.206 165.625 100.334C165.625 84.8191 160.241 70.5617 151.24 59.3283L109.535 101.033L150.612 142.11ZM141.773 150.949L100.696 109.872L58.9943 151.574C70.2277 160.575 84.4851 165.959 100 165.959C115.87 165.959 130.425 160.325 141.773 150.949ZM50.0227 142.867C40.2646 131.413 34.375 116.561 34.375 100.334C34.375 84.4635 40.0086 69.9089 49.385 58.5607L91.8572 101.033L50.0227 142.867ZM58.2236 49.7216L100.696 92.1941L142.533 50.3568C131.079 40.5986 116.227 34.709 100 34.709C84.1281 34.709 69.5722 40.3436 58.2236 49.7216Z" fill="#1071AF"/>
<path d="M150.612 142.11L147.666 145.057L150.906 148.296L153.824 144.765L150.612 142.11ZM151.24 59.3283L154.491 56.7228L151.582 53.0929L148.293 56.382L151.24 59.3283ZM109.535 101.033L106.589 98.0866L103.642 101.033L106.589 103.979L109.535 101.033ZM141.773 150.949L144.427 154.161L147.959 151.243L144.72 148.003L141.773 150.949ZM100.696 109.872L103.642 106.925L100.696 103.979L97.7498 106.925L100.696 109.872ZM58.9943 151.574L56.048 148.627L52.7589 151.916L56.3888 154.825L58.9943 151.574ZM50.0227 142.867L46.8509 145.569L49.7777 149.005L52.969 145.814L50.0227 142.867ZM49.385 58.5607L52.3313 55.6144L49.0914 52.3745L46.173 55.9067L49.385 58.5607ZM91.8572 101.033L94.8035 103.979L97.7498 101.033L94.8035 98.0866L91.8572 101.033ZM58.2236 49.7216L55.5694 46.5097L52.0377 49.4282L55.2773 52.6679L58.2236 49.7216ZM100.696 92.1941L97.7498 95.1403L100.696 98.0866L103.642 95.1403L100.696 92.1941ZM142.533 50.3568L145.48 53.303L148.671 50.1117L145.235 47.185L142.533 50.3568ZM161.458 100.334C161.458 115.202 156.184 128.827 147.4 139.456L153.824 144.765C163.797 132.697 169.792 117.21 169.792 100.334L161.458 100.334ZM147.988 61.9338C156.419 72.4548 161.458 85.8001 161.458 100.334L169.792 100.334C169.792 83.8381 164.063 68.6687 154.491 56.7228L147.988 61.9338ZM148.293 56.382L106.589 98.0866L112.481 103.979L154.186 62.2746L148.293 56.382ZM106.589 103.979L147.666 145.057L153.559 139.164L112.481 98.0866L106.589 103.979ZM144.72 148.003L103.642 106.925L97.7498 112.818L138.827 153.895L144.72 148.003ZM97.7498 106.925L56.048 148.627L61.9405 154.52L103.642 112.818L97.7498 106.925ZM100 161.792C85.4661 161.792 72.1208 156.753 61.5998 148.322L56.3888 154.825C68.3347 164.397 83.5041 170.126 100 170.126L100 161.792ZM139.119 147.737C128.49 156.519 114.866 161.792 100 161.792L100 170.126C116.874 170.126 132.36 164.132 144.427 154.161L139.119 147.737ZM53.1945 140.165C44.0543 129.436 38.5416 115.534 38.5416 100.334H30.2083C30.2083 117.588 36.4748 133.389 46.8509 145.569L53.1945 140.165ZM38.5416 100.334C38.5416 85.4675 43.8149 71.8437 52.5971 61.2147L46.173 55.9067C36.2023 67.9741 30.2083 83.4596 30.2083 100.334H38.5416ZM94.8035 98.0866L52.3313 55.6144L46.4388 61.507L88.9109 103.979L94.8035 98.0866ZM52.969 145.814L94.8035 103.979L88.9109 98.0866L47.0765 139.921L52.969 145.814ZM55.2773 52.6679L97.7498 95.1403L103.642 89.2478L61.1699 46.7753L55.2773 52.6679ZM103.642 95.1403L145.48 53.303L139.587 47.4105L97.7498 89.2478L103.642 95.1403ZM100 38.8757C115.2 38.8757 129.102 44.3883 139.831 53.5286L145.235 47.185C133.055 36.8088 117.254 30.5423 100 30.5423V38.8757ZM60.8778 52.9335C71.5072 44.1498 85.1321 38.8757 100 38.8757V30.5423C83.124 30.5423 67.6373 36.5373 55.5694 46.5097L60.8778 52.9335Z" fill="white" mask="url(#path-4-inside-1_0_3789)"/>
</svg>
