<svg width="204" height="201" viewBox="0 0 204 201" fill="none" xmlns="http://www.w3.org/2000/svg">
<rect x="202.518" y="41.3718" width="117.707" height="201.039" rx="8.85404" transform="rotate(90 202.518 41.3718)" fill="white" stroke="#13141A" stroke-width="1.04165"/>
<rect x="197.83" y="46.0586" width="108.332" height="191.664" rx="4.16661" transform="rotate(90 197.83 46.0586)" fill="#1071AF"/>
<path d="M88.4571 79.3909L115.54 79.3909L101.999 56.4746L88.4571 79.3909Z" fill="white"/>
<path d="M37.4161 79.3909L64.4991 79.3909L50.9576 56.4746L37.4161 79.3909Z" fill="white"/>
<path d="M33.2495 114.809V87.7262L10.3332 101.268L33.2495 114.809Z" fill="white"/>
<path d="M170.747 87.7261V60.6431L193.664 74.1846L170.747 87.7261Z" fill="white"/>
<path fill-rule="evenodd" clip-rule="evenodd" d="M76.999 91.8921H74.9156V104.392H76.999V91.8921ZM76.999 108.557H74.9156V121.057H76.999V108.557ZM74.9156 125.224H76.999V137.725H74.9156V125.224ZM76.999 141.889H74.9156V154.39H76.999V141.889Z" fill="white"/>
<path d="M101.998 79.3931V154.392" stroke="white" stroke-width="10.4165"/>
<path fill-rule="evenodd" clip-rule="evenodd" d="M129.082 91.8921H126.998V104.392H129.082V91.8921ZM129.082 108.557H126.998V121.057H129.082V108.557ZM126.998 125.224H129.082V137.725H126.998V125.224ZM129.082 141.889H126.998V154.39H129.082V141.889Z" fill="white"/>
<path d="M50.9576 79.3931V154.392" stroke="white" stroke-width="10.4165"/>
<path d="M26.9996 101.268H40.5411C46.294 101.268 50.9576 105.931 50.9576 111.684V133.559" stroke="white" stroke-width="10.4165"/>
<path d="M174.914 74.1826H161.373C155.62 74.1826 150.956 78.8462 150.956 84.5991V154.39" stroke="white" stroke-width="10.4165"/>
<circle cx="101.999" cy="112.725" r="17.1872" fill="white" stroke="#FF0E00" stroke-width="3.12495"/>
<path fill-rule="evenodd" clip-rule="evenodd" d="M99.2778 106.99C99.2778 106.567 99.6212 106.223 100.045 106.223H111.099C111.523 106.223 111.866 106.567 111.866 106.99V113.281C111.866 113.705 111.523 114.048 111.099 114.048H100.045C99.6212 114.048 99.2778 113.705 99.2778 113.281V106.99ZM109.909 115.111C109.909 114.899 110.08 114.727 110.292 114.727H112.162C112.374 114.727 112.546 114.899 112.546 115.111V116.385C112.546 116.597 112.374 116.769 112.162 116.769H110.292C110.08 116.769 109.909 116.597 109.909 116.385V115.111ZM106.423 116.939C106.423 116.47 106.804 116.089 107.274 116.089C107.744 116.089 108.125 116.47 108.125 116.939C108.125 117.409 107.744 117.79 107.274 117.79C106.804 117.79 106.423 117.409 106.423 116.939ZM107.274 114.727C106.052 114.727 105.062 115.718 105.062 116.939C105.062 118.161 106.052 119.151 107.274 119.151C108.496 119.151 109.486 118.161 109.486 116.939C109.486 115.718 108.496 114.727 107.274 114.727ZM95.0237 116.089C94.5538 116.089 94.1729 116.47 94.1729 116.94C94.1729 117.41 94.5538 117.791 95.0237 117.791C95.4935 117.791 95.8745 117.41 95.8745 116.94C95.8745 116.47 95.4935 116.089 95.0237 116.089ZM92.8116 116.94C92.8116 115.719 93.802 114.728 95.0237 114.728C96.2453 114.728 97.2357 115.719 97.2357 116.94C97.2357 118.162 96.2453 119.152 95.0237 119.152C93.802 119.152 92.8116 118.162 92.8116 116.94ZM97.4893 108.605C97.9129 108.605 98.2563 108.948 98.2563 109.372V114.729H104.252C104.464 114.729 104.636 114.901 104.636 115.112V116.387C104.636 116.599 104.464 116.77 104.252 116.77H97.5722C97.4841 115.44 96.3775 114.389 95.0254 114.389C93.6733 114.389 92.5668 115.44 92.4786 116.77H92.2188C91.7952 116.77 91.4518 116.427 91.4518 116.003V112.488C91.4518 112.284 91.505 112.084 91.6062 111.907L93.1557 109.195C93.3644 108.83 93.7527 108.605 94.1732 108.605H97.4893ZM96.8952 109.626H94.4985C94.3294 109.626 94.1734 109.717 94.0894 109.863L92.8736 111.991L92.8708 111.996L92.8643 112.008H96.8952V109.626Z" fill="#05081B"/>
</svg>
