<svg width="200" height="201" viewBox="0 0 200 201" fill="none" xmlns="http://www.w3.org/2000/svg">
<rect x="0.520833" y="-0.520833" width="196.875" height="117.708" rx="8.85417" transform="matrix(-1 0 0 1 198.958 42.3337)" fill="white" stroke="#13141A" stroke-width="1.04167"/>
<path d="M193.75 50.6667C193.75 48.3655 191.885 46.5 189.583 46.5H10.4167C8.11549 46.5 6.25 48.3655 6.25 50.6667V150.667C6.25 152.968 8.11549 154.833 10.4167 154.833H189.583C191.885 154.833 193.75 152.968 193.75 150.667V50.6667Z" fill="#1071AF"/>
<path d="M50.184 134V120.64H22.9167V109.499L51.8201 67.3337H62.5452V109.453H70.8163V120.64H62.5452V134H50.184ZM50.184 109.453V86.7631L34.8689 109.453H50.184Z" fill="white"/>
<path d="M104.075 134V120.64H76.8079V109.499L105.711 67.3337H116.436V109.453H124.707V120.64H116.436V134H104.075ZM104.075 109.453V86.7631L88.7601 109.453H104.075Z" fill="white"/>
<path d="M157.966 134V120.64H130.699V109.499L159.602 67.3337H170.327V109.453H178.599V120.64H170.327V134H157.966ZM157.966 109.453V86.7631L142.651 109.453H157.966Z" fill="white"/>
</svg>
