<svg width="200" height="201" viewBox="0 0 200 201" fill="none" xmlns="http://www.w3.org/2000/svg">
<rect x="0.520833" y="-0.520833" width="167.708" height="196.875" rx="8.85417" transform="matrix(-1 0 0 1 184.375 2.41699)" fill="white" stroke="#13141A" stroke-width="1.04167"/>
<rect width="158.333" height="187.5" rx="4.16667" transform="matrix(-1 0 0 1 179.167 6.58398)" fill="#FFE600"/>
<path d="M35.4167 48.1514L45.8334 37.834L56.2501 48.1514V56.584L45.8334 46.2665L35.4167 56.584V48.1514Z" fill="black"/>
<path d="M120.003 10.7367H122.412V15.8148C122.949 15.7605 123.313 15.6222 123.503 15.3997C123.692 15.1773 123.985 14.5588 124.382 13.5443C124.881 12.253 125.382 11.4501 125.887 11.1354C126.386 10.8207 127.192 10.6634 128.304 10.6634C128.358 10.6634 128.475 10.6607 128.654 10.6553V12.4375L128.312 12.4294C127.818 12.4294 127.458 12.4918 127.23 12.6165C127.002 12.7359 126.817 12.9204 126.676 13.1699C126.535 13.4195 126.326 13.9322 126.05 14.708C125.903 15.1203 125.743 15.4648 125.57 15.7415C125.401 16.0182 125.1 16.2786 124.666 16.5228C125.203 16.6747 125.646 16.9812 125.993 17.4424C126.345 17.9035 126.731 18.5546 127.148 19.3955L128.776 22.667H125.944L124.52 19.5827C124.498 19.5393 124.452 19.4552 124.382 19.3304C124.354 19.287 124.254 19.0998 124.08 18.7689C123.771 18.1829 123.516 17.8167 123.315 17.6702C123.12 17.5238 122.819 17.4478 122.412 17.4424V22.667H120.003V10.7367ZM130.062 14.0244H132.259V19.4525L135.775 14.0244H138.021V22.667H135.824V17.1413L132.259 22.667H130.062V14.0244ZM140.373 22.667V14.0244H142.66V22.667H140.373ZM138.786 12.4945V10.5332H140.747V12.4945H138.786ZM142.285 12.4945V10.5332H144.255V12.4945H142.285ZM145.085 14.0244H150.09C151.115 14.0244 151.883 14.2116 152.393 14.5859C152.903 14.9603 153.158 15.5245 153.158 16.2786C153.158 16.7615 153.016 17.182 152.734 17.54C152.458 17.8981 152.108 18.1368 151.685 18.2562C152.281 18.4027 152.726 18.6766 153.019 19.0781C153.312 19.4796 153.459 19.9191 153.459 20.3965C153.459 21.0692 153.212 21.6172 152.718 22.0404C152.224 22.4581 151.495 22.667 150.529 22.667H145.085V14.0244ZM147.388 17.6133H148.861C149.571 17.6133 150.084 17.5238 150.399 17.3447C150.719 17.1657 150.879 16.8836 150.879 16.4984C150.879 16.1349 150.73 15.8772 150.431 15.7253C150.138 15.5679 149.615 15.4893 148.861 15.4893H147.388V17.6133ZM147.388 21.2021H149.194C149.845 21.2021 150.32 21.1235 150.618 20.9661C150.917 20.8088 151.066 20.5267 151.066 20.1198C151.066 19.6966 150.895 19.4064 150.553 19.249C150.212 19.0863 149.547 19.0049 148.56 19.0049H147.388V21.2021Z" fill="#05081B"/>
<path d="M119.684 38.417V29.4692H121.49V33.4426L125.14 29.4692H127.57L124.2 32.9543L127.753 38.417H125.415L122.955 34.2178L121.49 35.7131V38.417H119.684ZM127.869 31.9351H129.694L131.244 36.5371L132.758 31.9351H134.534L132.245 38.1729L131.836 39.302C131.685 39.6804 131.541 39.9693 131.403 40.1687C131.268 40.3681 131.112 40.5288 130.933 40.6509C130.758 40.777 130.54 40.8747 130.28 40.9438C130.023 41.013 129.732 41.0476 129.407 41.0476C129.077 41.0476 128.754 41.013 128.436 40.9438L128.284 39.6011C128.552 39.654 128.794 39.6804 129.01 39.6804C129.409 39.6804 129.704 39.5624 129.895 39.3264C130.086 39.0945 130.233 38.7974 130.334 38.4353L127.869 31.9351ZM135.638 31.0562V29.4692H137.354V31.0562H135.638ZM135.638 38.417V31.9351H137.354V38.417H135.638ZM140.9 38.417L138.287 31.9351H140.088L141.309 35.2432L141.663 36.3479C141.756 36.0671 141.815 35.882 141.84 35.7925C141.897 35.6094 141.958 35.4263 142.023 35.2432L143.256 31.9351H145.02L142.444 38.417H140.9Z" fill="#05081B"/>
<path d="M29.1675 16.9011C29.1675 15.8053 30.0558 14.917 31.1516 14.917H64.0875C65.1833 14.917 66.0716 15.8053 66.0716 16.9011V29.2025C66.0716 30.5174 65.0056 31.5834 63.6907 31.5834H31.5484C30.2335 31.5834 29.1675 30.5174 29.1675 29.2024V16.9011Z" fill="#FF0E00" stroke="white" stroke-width="0.757562"/>
<path d="M34.7346 27.4568V18.9353H37.3097L38.8559 24.748L40.3846 18.9353H42.9655V27.4568H41.367V20.7489L39.6755 27.4568H38.0188L36.3331 20.7489V27.4568H34.7346Z" fill="white"/>
<path d="M44.4768 25.184V23.5506H47.6855V25.184H44.4768Z" fill="white"/>
<path d="M51.0394 18.9004C51.8648 18.9004 52.5101 19.1949 52.9751 19.7839C53.5292 20.4815 53.8063 21.6382 53.8063 23.2542C53.8063 24.8662 53.5273 26.0249 52.9693 26.7302C52.5081 27.3115 51.8648 27.6021 51.0394 27.6021C50.2101 27.6021 49.5417 27.2843 49.034 26.6488C48.5264 26.0094 48.2726 24.872 48.2726 23.2367C48.2726 21.6324 48.5516 20.4776 49.1096 19.7723C49.5707 19.191 50.214 18.9004 51.0394 18.9004ZM51.0394 20.2548C50.8418 20.2548 50.6655 20.3187 50.5105 20.4466C50.3555 20.5706 50.2353 20.7954 50.1501 21.1209C50.0377 21.5433 49.9815 22.2544 49.9815 23.2542C49.9815 24.2539 50.0319 24.9418 50.1326 25.3177C50.2334 25.6897 50.3593 25.9377 50.5105 26.0617C50.6655 26.1857 50.8418 26.2477 51.0394 26.2477C51.2371 26.2477 51.4134 26.1857 51.5684 26.0617C51.7234 25.9338 51.8435 25.7071 51.9288 25.3816C52.0412 24.9631 52.0974 24.2539 52.0974 23.2542C52.0974 22.2544 52.047 21.5685 51.9462 21.1964C51.8455 20.8205 51.7176 20.5706 51.5626 20.4466C51.4114 20.3187 51.2371 20.2548 51.0394 20.2548Z" fill="white"/>
<path d="M54.8468 25.1956L56.4279 25.0038C56.4782 25.4068 56.6139 25.7149 56.8348 25.928C57.0556 26.1412 57.323 26.2477 57.6369 26.2477C57.9741 26.2477 58.257 26.1198 58.4856 25.8641C58.7181 25.6083 58.8344 25.2634 58.8344 24.8294C58.8344 24.4186 58.7239 24.0931 58.503 23.8529C58.2821 23.6126 58.0128 23.4925 57.695 23.4925C57.4858 23.4925 57.2358 23.5332 56.9452 23.6145L57.1254 22.2834C57.5672 22.295 57.9043 22.2001 58.1368 21.9986C58.3693 21.7932 58.4856 21.5219 58.4856 21.1848C58.4856 20.898 58.4003 20.6694 58.2298 20.4989C58.0593 20.3284 57.8326 20.2431 57.5497 20.2431C57.2707 20.2431 57.0324 20.34 56.8348 20.5338C56.6371 20.7275 56.517 21.0104 56.4744 21.3824L54.9689 21.1267C55.0735 20.6113 55.2304 20.2005 55.4397 19.8944C55.6528 19.5844 55.9473 19.3422 56.3232 19.1678C56.703 18.9895 57.1273 18.9004 57.5962 18.9004C58.3984 18.9004 59.0417 19.1562 59.5261 19.6677C59.9252 20.0862 60.1248 20.559 60.1248 21.086C60.1248 21.8339 59.716 22.4307 58.8983 22.8763C59.3866 22.981 59.776 23.2154 60.0667 23.5797C60.3612 23.9439 60.5084 24.3838 60.5084 24.8992C60.5084 25.6471 60.2352 26.2845 59.6888 26.8116C59.1424 27.3386 58.4623 27.6021 57.6485 27.6021C56.8774 27.6021 56.238 27.3812 55.7303 26.9394C55.2227 26.4938 54.9282 25.9125 54.8468 25.1956Z" fill="white"/>
<path d="M69.1014 17.2979C69.1014 15.983 70.1674 14.917 71.4824 14.917H103.625C104.94 14.917 106.006 15.983 106.006 17.2979V29.5993C106.006 30.6951 105.117 31.5834 104.021 31.5834H71.0855C69.9898 31.5834 69.1014 30.6951 69.1014 29.5993V17.2979Z" fill="#00AC5A" stroke="white" stroke-width="0.757562"/>
<path d="M76.0312 27.4568V18.9353H82.3497V20.3768H77.7518V22.266H82.03V23.7017H77.7518V26.021H82.5125V27.4568H76.0312Z" fill="white"/>
<path d="M90.1272 27.4568V25.742H86.6396V24.3121L90.3365 18.9004H91.7083V24.3063H92.7662V25.742H91.7083V27.4568H90.1272ZM90.1272 24.3063V21.3941L88.1683 24.3063H90.1272Z" fill="white"/>
<path d="M96.312 18.9004C97.1374 18.9004 97.7826 19.1949 98.2477 19.7839C98.8018 20.4815 99.0789 21.6382 99.0789 23.2542C99.0789 24.8662 98.7999 26.0249 98.2418 26.7302C97.7807 27.3115 97.1374 27.6021 96.312 27.6021C95.4827 27.6021 94.8142 27.2843 94.3066 26.6488C93.7989 26.0094 93.5451 24.872 93.5451 23.2367C93.5451 21.6324 93.8241 20.4776 94.3822 19.7723C94.8433 19.191 95.4866 18.9004 96.312 18.9004ZM96.312 20.2548C96.1144 20.2548 95.938 20.3187 95.783 20.4466C95.628 20.5706 95.5079 20.7954 95.4226 21.1209C95.3103 21.5433 95.2541 22.2544 95.2541 23.2542C95.2541 24.2539 95.3045 24.9418 95.4052 25.3177C95.506 25.6897 95.6319 25.9377 95.783 26.0617C95.938 26.1857 96.1144 26.2477 96.312 26.2477C96.5096 26.2477 96.686 26.1857 96.841 26.0617C96.996 25.9338 97.1161 25.7071 97.2014 25.3816C97.3137 24.9631 97.3699 24.2539 97.3699 23.2542C97.3699 22.2544 97.3195 21.5685 97.2188 21.1964C97.118 20.8205 96.9902 20.5706 96.8351 20.4466C96.684 20.3187 96.5096 20.2548 96.312 20.2548Z" fill="white"/>
<path d="M45.8333 46.167V187.834" stroke="#05081B" stroke-width="6.25"/>
<path d="M45.8333 89.917H127.083V152.417H45.8333" stroke="#05081B" stroke-width="6.25"/>
<circle cx="45.8339" cy="121.168" r="19.1672" fill="white" stroke="#FF0E00" stroke-width="3.33342"/>
<path d="M105.052 67.584V58.6362H107.756L109.379 64.7397L110.984 58.6362H113.694V67.584H112.016V60.5405L110.24 67.584H108.5L106.73 60.5405V67.584H105.052ZM115.434 61.1021H117.082V65.1731L119.719 61.1021H121.403V67.584H119.755V63.4397L117.082 67.584H115.434V61.1021ZM123.118 61.1021H124.717V62.0542C124.925 61.7287 125.206 61.4642 125.56 61.2607C125.914 61.0573 126.306 60.9556 126.738 60.9556C127.49 60.9556 128.129 61.2506 128.654 61.8406C129.179 62.4306 129.441 63.2525 129.441 64.3064C129.441 65.3888 129.177 66.231 128.648 66.8333C128.119 67.4314 127.478 67.7305 126.725 67.7305C126.367 67.7305 126.042 67.6593 125.749 67.5168C125.46 67.3744 125.155 67.1303 124.833 66.7844V70.0498H123.118V61.1021ZM124.815 64.2332C124.815 64.9615 124.959 65.5007 125.248 65.8506C125.537 66.1965 125.889 66.3694 126.304 66.3694C126.703 66.3694 127.035 66.2107 127.299 65.8933C127.564 65.5719 127.696 65.047 127.696 64.3186C127.696 63.6391 127.559 63.1345 127.287 62.8049C127.014 62.4753 126.677 62.3105 126.274 62.3105C125.855 62.3105 125.507 62.4733 125.23 62.7988C124.953 63.1203 124.815 63.5984 124.815 64.2332ZM130.741 61.1021H135.118V62.4875H132.457V67.584H130.741V61.1021ZM135.453 64.2515C135.453 63.6818 135.594 63.1305 135.875 62.5974C136.155 62.0644 136.552 61.6575 137.065 61.3767C137.581 61.0959 138.157 60.9556 138.792 60.9556C139.773 60.9556 140.576 61.275 141.203 61.9138C141.83 62.5486 142.143 63.3522 142.143 64.3247C142.143 65.3053 141.825 66.1191 141.191 66.7661C140.56 67.409 139.764 67.7305 138.804 67.7305C138.21 67.7305 137.642 67.5962 137.101 67.3276C136.564 67.0591 136.155 66.6664 135.875 66.1497C135.594 65.6288 135.453 64.9961 135.453 64.2515ZM137.211 64.343C137.211 64.9859 137.364 65.4783 137.669 65.8201C137.974 66.1619 138.351 66.3328 138.798 66.3328C139.246 66.3328 139.62 66.1619 139.921 65.8201C140.226 65.4783 140.379 64.9819 140.379 64.3308C140.379 63.696 140.226 63.2078 139.921 62.866C139.62 62.5242 139.246 62.3533 138.798 62.3533C138.351 62.3533 137.974 62.5242 137.669 62.866C137.364 63.2078 137.211 63.7001 137.211 64.343ZM143.443 61.1021H145.042V62.0542C145.25 61.7287 145.53 61.4642 145.884 61.2607C146.238 61.0573 146.631 60.9556 147.062 60.9556C147.815 60.9556 148.454 61.2506 148.979 61.8406C149.504 62.4306 149.766 63.2525 149.766 64.3064C149.766 65.3888 149.502 66.231 148.973 66.8333C148.444 67.4314 147.803 67.7305 147.05 67.7305C146.692 67.7305 146.366 67.6593 146.073 67.5168C145.785 67.3744 145.479 67.1303 145.158 66.7844V70.0498H143.443V61.1021ZM145.14 64.2332C145.14 64.9615 145.284 65.5007 145.573 65.8506C145.862 66.1965 146.214 66.3694 146.629 66.3694C147.028 66.3694 147.359 66.2107 147.624 65.8933C147.888 65.5719 148.021 65.047 148.021 64.3186C148.021 63.6391 147.884 63.1345 147.612 62.8049C147.339 62.4753 147.001 62.3105 146.598 62.3105C146.179 62.3105 145.831 62.4733 145.555 62.7988C145.278 63.1203 145.14 63.5984 145.14 64.2332ZM150.737 64.2515C150.737 63.6818 150.877 63.1305 151.158 62.5974C151.438 62.0644 151.835 61.6575 152.348 61.3767C152.865 61.0959 153.44 60.9556 154.075 60.9556C155.056 60.9556 155.859 61.275 156.486 61.9138C157.113 62.5486 157.426 63.3522 157.426 64.3247C157.426 65.3053 157.109 66.1191 156.474 66.7661C155.843 67.409 155.048 67.7305 154.087 67.7305C153.493 67.7305 152.926 67.5962 152.385 67.3276C151.847 67.0591 151.438 66.6664 151.158 66.1497C150.877 65.6288 150.737 64.9961 150.737 64.2515ZM152.494 64.343C152.494 64.9859 152.647 65.4783 152.952 65.8201C153.257 66.1619 153.634 66.3328 154.081 66.3328C154.529 66.3328 154.903 66.1619 155.204 65.8201C155.51 65.4783 155.662 64.9819 155.662 64.3308C155.662 63.696 155.51 63.2078 155.204 62.866C154.903 62.5242 154.529 62.3533 154.081 62.3533C153.634 62.3533 153.257 62.5242 152.952 62.866C152.647 63.2078 152.494 63.7001 152.494 64.343ZM163.963 67.584H159.056V69.293H157.664V66.1802H158.366C158.659 65.8547 158.901 65.346 159.092 64.6543C159.284 63.9626 159.397 62.7785 159.434 61.1021H164.665V66.1802H165.361V69.293H163.963V67.584ZM162.968 66.1802L162.974 62.512H160.899C160.83 64.3023 160.545 65.5251 160.044 66.1802H162.968Z" fill="#05081B"/>
<path d="M104.757 78.167V72.2018H106.559L107.642 76.2708L108.712 72.2018H110.518V78.167H109.399V73.4714L108.215 78.167H107.056L105.876 73.4714V78.167H104.757ZM111.165 73.8457H112.382L113.416 76.9137L114.425 73.8457H115.609L114.083 78.0042L113.81 78.757C113.71 79.0093 113.614 79.2019 113.521 79.3348C113.432 79.4677 113.327 79.5749 113.208 79.6563C113.091 79.7403 112.946 79.8054 112.773 79.8516C112.602 79.8977 112.408 79.9207 112.191 79.9207C111.971 79.9207 111.755 79.8977 111.544 79.8516L111.442 78.9564C111.621 78.9916 111.783 79.0093 111.926 79.0093C112.192 79.0093 112.389 78.9306 112.516 78.7733C112.644 78.6187 112.742 78.4206 112.809 78.1792L111.165 73.8457ZM117.44 78.167H116.296V73.8457H117.358V74.4601C117.54 74.1699 117.703 73.9786 117.847 73.8864C117.993 73.7942 118.159 73.748 118.343 73.748C118.604 73.748 118.855 73.8199 119.096 73.9637L118.742 74.9606C118.549 74.8358 118.37 74.7734 118.205 74.7734C118.045 74.7734 117.909 74.8182 117.798 74.9077C117.687 74.9945 117.599 75.1532 117.533 75.3838C117.471 75.6144 117.44 76.0972 117.44 76.8324V78.167ZM120.732 72.2018V74.395C121.101 73.9637 121.541 73.748 122.054 73.748C122.317 73.748 122.555 73.7969 122.766 73.8945C122.978 73.9922 123.136 74.117 123.242 74.2689C123.351 74.4208 123.424 74.589 123.462 74.7734C123.503 74.9579 123.523 75.2441 123.523 75.632V78.167H122.38V75.8843C122.38 75.4313 122.358 75.1437 122.315 75.0216C122.271 74.8996 122.194 74.8033 122.083 74.7327C121.974 74.6595 121.837 74.6229 121.672 74.6229C121.482 74.6229 121.312 74.669 121.163 74.7612C121.014 74.8535 120.904 74.9932 120.833 75.1803C120.766 75.3648 120.732 75.6388 120.732 76.0023V78.167H119.588V72.2018H120.732ZM124.422 75.9453C124.422 75.5655 124.516 75.198 124.703 74.8426C124.89 74.4873 125.155 74.216 125.497 74.0288C125.841 73.8416 126.225 73.748 126.648 73.748C127.302 73.748 127.838 73.961 128.255 74.3869C128.673 74.8101 128.882 75.3458 128.882 75.9941C128.882 76.6479 128.67 77.1904 128.247 77.6217C127.827 78.0503 127.296 78.2646 126.656 78.2646C126.26 78.2646 125.882 78.1751 125.521 77.9961C125.163 77.8171 124.89 77.5553 124.703 77.2108C124.516 76.8636 124.422 76.4417 124.422 75.9453ZM125.594 76.0063C125.594 76.4349 125.696 76.7632 125.899 76.991C126.103 77.2189 126.354 77.3328 126.652 77.3328C126.95 77.3328 127.2 77.2189 127.401 76.991C127.604 76.7632 127.706 76.4322 127.706 75.9982C127.706 75.575 127.604 75.2495 127.401 75.0216C127.2 74.7938 126.95 74.6798 126.652 74.6798C126.354 74.6798 126.103 74.7938 125.899 75.0216C125.696 75.2495 125.594 75.5777 125.594 76.0063ZM130.876 78.167H129.732V73.8457H130.794V74.4601C130.976 74.1699 131.139 73.9786 131.283 73.8864C131.429 73.7942 131.595 73.748 131.779 73.748C132.039 73.748 132.29 73.8199 132.532 73.9637L132.178 74.9606C131.985 74.8358 131.806 74.7734 131.641 74.7734C131.481 74.7734 131.345 74.8182 131.234 74.9077C131.123 74.9945 131.034 75.1532 130.969 75.3838C130.907 75.6144 130.876 76.0972 130.876 76.8324V78.167ZM132.764 75.9453C132.764 75.5655 132.857 75.198 133.045 74.8426C133.232 74.4873 133.496 74.216 133.838 74.0288C134.182 73.8416 134.566 73.748 134.99 73.748C135.643 73.748 136.179 73.961 136.597 74.3869C137.015 74.8101 137.223 75.3458 137.223 75.9941C137.223 76.6479 137.012 77.1904 136.589 77.6217C136.168 78.0503 135.638 78.2646 134.998 78.2646C134.602 78.2646 134.223 78.1751 133.862 77.9961C133.504 77.8171 133.232 77.5553 133.045 77.2108C132.857 76.8636 132.764 76.4417 132.764 75.9453ZM133.936 76.0063C133.936 76.4349 134.037 76.7632 134.241 76.991C134.444 77.2189 134.695 77.3328 134.994 77.3328C135.292 77.3328 135.542 77.2189 135.742 76.991C135.946 76.7632 136.047 76.4322 136.047 75.9982C136.047 75.575 135.946 75.2495 135.742 75.0216C135.542 74.7938 135.292 74.6798 134.994 74.6798C134.695 74.6798 134.444 74.7938 134.241 75.0216C134.037 75.2495 133.936 75.5777 133.936 76.0063ZM142.086 78.167H141.024V77.5322C140.848 77.7791 140.639 77.9635 140.397 78.0856C140.159 78.205 139.917 78.2646 139.673 78.2646C139.177 78.2646 138.751 78.0653 138.395 77.6665C138.043 77.265 137.866 76.7062 137.866 75.9901C137.866 75.2576 138.039 74.7016 138.383 74.3218C138.728 73.9393 139.163 73.748 139.689 73.748C140.172 73.748 140.59 73.9488 140.942 74.3503V72.2018H142.086V78.167ZM139.034 75.9128C139.034 76.3739 139.098 76.7076 139.225 76.9137C139.41 77.2121 139.668 77.3613 139.998 77.3613C140.262 77.3613 140.485 77.2501 140.67 77.0277C140.854 76.8025 140.947 76.4675 140.947 76.0226C140.947 75.5262 140.857 75.1695 140.678 74.9525C140.499 74.7327 140.27 74.6229 139.99 74.6229C139.719 74.6229 139.491 74.7314 139.307 74.9484C139.125 75.1627 139.034 75.4842 139.034 75.9128Z" fill="#05081B"/>
<path d="M75.9155 164.886H79.4922C80.2002 164.886 80.7271 164.917 81.073 164.978C81.4229 165.035 81.7342 165.157 82.0068 165.344C82.2835 165.531 82.5134 165.781 82.6965 166.095C82.8796 166.404 82.9712 166.752 82.9712 167.138C82.9712 167.558 82.8573 167.942 82.6294 168.292C82.4056 168.642 82.1004 168.904 81.7139 169.079C82.2591 169.238 82.6782 169.509 82.9712 169.891C83.2642 170.274 83.4106 170.723 83.4106 171.24C83.4106 171.647 83.315 172.044 83.1238 172.43C82.9366 172.813 82.6782 173.12 82.3486 173.352C82.0231 173.58 81.6203 173.72 81.1401 173.773C80.839 173.806 80.1127 173.826 78.9612 173.834H75.9155V164.886ZM77.7222 166.375V168.445H78.9062C79.6102 168.445 80.0476 168.434 80.2185 168.414C80.5278 168.377 80.7699 168.272 80.9448 168.097C81.1239 167.918 81.2134 167.684 81.2134 167.395C81.2134 167.118 81.1361 166.894 80.9814 166.723C80.8309 166.548 80.6051 166.443 80.304 166.406C80.1249 166.386 79.6102 166.375 78.7598 166.375H77.7222ZM77.7222 169.934V172.326H79.3945C80.0456 172.326 80.4586 172.308 80.6335 172.271C80.9021 172.223 81.1198 172.105 81.2866 171.917C81.4575 171.726 81.543 171.472 81.543 171.155C81.543 170.886 81.4779 170.658 81.3477 170.471C81.2174 170.284 81.0282 170.147 80.78 170.062C80.5359 169.977 80.0028 169.934 79.1809 169.934H77.7222ZM88.6841 171.771L90.3931 172.058C90.1733 172.684 89.8254 173.163 89.3494 173.492C88.8774 173.818 88.2853 173.98 87.5732 173.98C86.4461 173.98 85.612 173.612 85.0708 172.876C84.6436 172.286 84.4299 171.541 84.4299 170.642C84.4299 169.568 84.7107 168.727 85.2722 168.121C85.8337 167.511 86.5438 167.206 87.4023 167.206C88.3667 167.206 89.1276 167.525 89.6851 168.164C90.2425 168.799 90.509 169.773 90.4846 171.087H86.1877C86.2 171.596 86.3383 171.993 86.6028 172.278C86.8673 172.558 87.1969 172.699 87.5916 172.699C87.8601 172.699 88.0859 172.625 88.269 172.479C88.4521 172.333 88.5905 172.097 88.6841 171.771ZM88.7817 170.038C88.7695 169.541 88.6414 169.165 88.3972 168.908C88.1531 168.648 87.856 168.518 87.5061 168.518C87.1318 168.518 86.8225 168.654 86.5784 168.927C86.3342 169.199 86.2142 169.57 86.2183 170.038H88.7817ZM92.3523 167.352H98.0957V173.834H96.3867V168.744H94.0491V171.655C94.0491 172.396 93.9636 172.916 93.7927 173.218C93.6218 173.515 93.4326 173.71 93.2251 173.803C93.0176 173.897 92.6839 173.944 92.2241 173.944C91.9515 173.944 91.5914 173.907 91.1438 173.834V172.571C91.1804 172.571 91.276 172.575 91.4307 172.583C91.6097 172.595 91.748 172.601 91.8457 172.601C92.0776 172.601 92.2201 172.526 92.2729 172.375C92.3258 172.221 92.3523 171.795 92.3523 171.1V167.352ZM99.7925 167.352H101.44V171.423L104.077 167.352H105.762V173.834H104.114V169.69L101.44 173.834H99.7925V167.352ZM107.458 167.352H109.167V170.001C109.452 169.968 109.654 169.881 109.772 169.739C109.89 169.596 110.032 169.285 110.199 168.805C110.419 168.166 110.659 167.757 110.919 167.578C111.18 167.399 111.521 167.309 111.945 167.309C112.075 167.309 112.301 167.319 112.622 167.34L112.628 168.475C112.177 168.475 111.888 168.518 111.761 168.603C111.635 168.693 111.499 168.959 111.353 169.403C111.153 170.001 110.866 170.369 110.492 170.508C111.033 170.658 111.491 171.128 111.865 171.917C111.886 171.958 111.908 172.001 111.932 172.046L112.891 173.834H111.047L110.193 171.96C110.018 171.582 109.865 171.34 109.735 171.234C109.609 171.124 109.42 171.069 109.167 171.069V173.834H107.458V167.352ZM115.07 169.33L113.513 169.049C113.688 168.422 113.989 167.958 114.417 167.657C114.844 167.356 115.479 167.206 116.321 167.206C117.086 167.206 117.655 167.297 118.03 167.48C118.404 167.659 118.667 167.889 118.817 168.17C118.972 168.447 119.049 168.957 119.049 169.702L119.031 171.704C119.031 172.274 119.057 172.695 119.11 172.967C119.167 173.236 119.271 173.525 119.421 173.834H117.725C117.68 173.72 117.625 173.551 117.56 173.327C117.531 173.226 117.511 173.159 117.499 173.126C117.206 173.411 116.892 173.624 116.559 173.767C116.225 173.909 115.869 173.98 115.491 173.98C114.823 173.98 114.296 173.799 113.91 173.437C113.527 173.075 113.336 172.617 113.336 172.064C113.336 171.698 113.424 171.372 113.599 171.087C113.774 170.799 114.018 170.579 114.331 170.428C114.648 170.274 115.104 170.139 115.698 170.025C116.5 169.875 117.055 169.734 117.365 169.604V169.433C117.365 169.104 117.283 168.87 117.12 168.731C116.958 168.589 116.65 168.518 116.199 168.518C115.894 168.518 115.656 168.579 115.485 168.701C115.314 168.819 115.175 169.028 115.07 169.33ZM117.365 170.721C117.145 170.794 116.797 170.882 116.321 170.984C115.845 171.085 115.533 171.185 115.387 171.283C115.163 171.441 115.051 171.643 115.051 171.887C115.051 172.127 115.141 172.335 115.32 172.51C115.499 172.684 115.727 172.772 116.003 172.772C116.313 172.772 116.608 172.67 116.888 172.467C117.096 172.312 117.232 172.123 117.297 171.899C117.342 171.753 117.365 171.474 117.365 171.063V170.721ZM124.274 164.886H130.963V166.388H126.08V168.463H128.497C129.165 168.463 129.718 168.544 130.157 168.707C130.597 168.87 130.971 169.171 131.281 169.61C131.594 170.05 131.75 170.565 131.75 171.155C131.75 171.761 131.594 172.28 131.281 172.711C130.967 173.142 130.609 173.437 130.206 173.596C129.808 173.755 129.238 173.834 128.497 173.834H124.274V164.886ZM126.08 172.333H127.838C128.4 172.333 128.794 172.306 129.022 172.253C129.25 172.196 129.447 172.07 129.614 171.875C129.785 171.679 129.871 171.439 129.871 171.155C129.871 170.74 129.722 170.438 129.425 170.251C129.132 170.06 128.63 169.964 127.917 169.964H126.08V172.333ZM134.491 169.33L132.935 169.049C133.11 168.422 133.411 167.958 133.838 167.657C134.265 167.356 134.9 167.206 135.742 167.206C136.507 167.206 137.077 167.297 137.451 167.48C137.826 167.659 138.088 167.889 138.239 168.17C138.393 168.447 138.47 168.957 138.47 169.702L138.452 171.704C138.452 172.274 138.479 172.695 138.531 172.967C138.588 173.236 138.692 173.525 138.843 173.834H137.146C137.101 173.72 137.046 173.551 136.981 173.327C136.953 173.226 136.932 173.159 136.92 173.126C136.627 173.411 136.314 173.624 135.98 173.767C135.647 173.909 135.291 173.98 134.912 173.98C134.245 173.98 133.718 173.799 133.331 173.437C132.949 173.075 132.758 172.617 132.758 172.064C132.758 171.698 132.845 171.372 133.02 171.087C133.195 170.799 133.439 170.579 133.752 170.428C134.07 170.274 134.526 170.139 135.12 170.025C135.921 169.875 136.477 169.734 136.786 169.604V169.433C136.786 169.104 136.705 168.87 136.542 168.731C136.379 168.589 136.072 168.518 135.62 168.518C135.315 168.518 135.077 168.579 134.906 168.701C134.735 168.819 134.597 169.028 134.491 169.33ZM136.786 170.721C136.566 170.794 136.218 170.882 135.742 170.984C135.266 171.085 134.955 171.185 134.808 171.283C134.585 171.441 134.473 171.643 134.473 171.887C134.473 172.127 134.562 172.335 134.741 172.51C134.92 172.684 135.148 172.772 135.425 172.772C135.734 172.772 136.029 172.67 136.31 172.467C136.517 172.312 136.654 172.123 136.719 171.899C136.764 171.753 136.786 171.474 136.786 171.063V170.721ZM140.1 167.352H144.476V168.738H141.815V173.834H140.1V167.352ZM146.661 169.33L145.105 169.049C145.28 168.422 145.581 167.958 146.008 167.657C146.436 167.356 147.07 167.206 147.913 167.206C148.678 167.206 149.247 167.297 149.622 167.48C149.996 167.659 150.258 167.889 150.409 168.17C150.564 168.447 150.641 168.957 150.641 169.702L150.623 171.704C150.623 172.274 150.649 172.695 150.702 172.967C150.759 173.236 150.863 173.525 151.013 173.834H149.316C149.272 173.72 149.217 173.551 149.152 173.327C149.123 173.226 149.103 173.159 149.091 173.126C148.798 173.411 148.484 173.624 148.151 173.767C147.817 173.909 147.461 173.98 147.083 173.98C146.415 173.98 145.888 173.799 145.502 173.437C145.119 173.075 144.928 172.617 144.928 172.064C144.928 171.698 145.015 171.372 145.19 171.087C145.365 170.799 145.61 170.579 145.923 170.428C146.24 170.274 146.696 170.139 147.29 170.025C148.092 169.875 148.647 169.734 148.956 169.604V169.433C148.956 169.104 148.875 168.87 148.712 168.731C148.549 168.589 148.242 168.518 147.791 168.518C147.485 168.518 147.247 168.579 147.076 168.701C146.906 168.819 146.767 169.028 146.661 169.33ZM148.956 170.721C148.737 170.794 148.389 170.882 147.913 170.984C147.437 171.085 147.125 171.185 146.979 171.283C146.755 171.441 146.643 171.643 146.643 171.887C146.643 172.127 146.733 172.335 146.912 172.51C147.091 172.684 147.319 172.772 147.595 172.772C147.904 172.772 148.199 172.67 148.48 172.467C148.688 172.312 148.824 172.123 148.889 171.899C148.934 171.753 148.956 171.474 148.956 171.063V170.721ZM151.819 167.352H153.552V168.902C153.552 169.256 153.583 169.521 153.644 169.696C153.709 169.867 153.843 170.015 154.047 170.141C154.254 170.263 154.515 170.324 154.828 170.324C155.133 170.324 155.475 170.255 155.853 170.117V167.352H157.568V173.834H155.853V171.246C155.186 171.425 154.677 171.515 154.327 171.515C153.802 171.515 153.33 171.403 152.911 171.179C152.492 170.951 152.205 170.662 152.051 170.312C151.896 169.958 151.819 169.488 151.819 168.902V167.352ZM159.216 167.352H160.925V170.001C161.21 169.968 161.412 169.881 161.53 169.739C161.648 169.596 161.79 169.285 161.957 168.805C162.177 168.166 162.417 167.757 162.677 167.578C162.937 167.399 163.279 167.309 163.702 167.309C163.833 167.309 164.058 167.319 164.38 167.34L164.386 168.475C163.934 168.475 163.645 168.518 163.519 168.603C163.393 168.693 163.257 168.959 163.11 169.403C162.911 170.001 162.624 170.369 162.25 170.508C162.791 170.658 163.249 171.128 163.623 171.917C163.643 171.958 163.666 172.001 163.69 172.046L164.648 173.834H162.805L161.951 171.96C161.776 171.582 161.623 171.34 161.493 171.234C161.367 171.124 161.178 171.069 160.925 171.069V173.834H159.216V167.352ZM166.827 169.33L165.271 169.049C165.446 168.422 165.747 167.958 166.174 167.657C166.602 167.356 167.236 167.206 168.079 167.206C168.844 167.206 169.413 167.297 169.788 167.48C170.162 167.659 170.424 167.889 170.575 168.17C170.73 168.447 170.807 168.957 170.807 169.702L170.789 171.704C170.789 172.274 170.815 172.695 170.868 172.967C170.925 173.236 171.029 173.525 171.179 173.834H169.482C169.438 173.72 169.383 173.551 169.318 173.327C169.289 173.226 169.269 173.159 169.257 173.126C168.964 173.411 168.65 173.624 168.317 173.767C167.983 173.909 167.627 173.98 167.249 173.98C166.581 173.98 166.054 173.799 165.668 173.437C165.285 173.075 165.094 172.617 165.094 172.064C165.094 171.698 165.181 171.372 165.356 171.087C165.531 170.799 165.776 170.579 166.089 170.428C166.406 170.274 166.862 170.139 167.456 170.025C168.258 169.875 168.813 169.734 169.122 169.604V169.433C169.122 169.104 169.041 168.87 168.878 168.731C168.715 168.589 168.408 168.518 167.957 168.518C167.651 168.518 167.413 168.579 167.242 168.701C167.072 168.819 166.933 169.028 166.827 169.33ZM169.122 170.721C168.903 170.794 168.555 170.882 168.079 170.984C167.603 171.085 167.291 171.185 167.145 171.283C166.921 171.441 166.809 171.643 166.809 171.887C166.809 172.127 166.899 172.335 167.078 172.51C167.257 172.684 167.485 172.772 167.761 172.772C168.07 172.772 168.365 172.67 168.646 172.467C168.854 172.312 168.99 172.123 169.055 171.899C169.1 171.753 169.122 171.474 169.122 171.063V170.721Z" fill="#05081B"/>
<path d="M77.1281 184.417L74.9959 178.452H76.3021L77.8117 182.867L79.2725 178.452H80.5501L78.4139 184.417H77.1281ZM83.195 183.042L84.3343 183.233C84.1878 183.651 83.9559 183.969 83.6385 184.189C83.3238 184.406 82.9291 184.515 82.4544 184.515C81.703 184.515 81.1469 184.269 80.7861 183.778C80.5013 183.385 80.3589 182.888 80.3589 182.289C80.3589 181.573 80.5461 181.013 80.9204 180.608C81.2948 180.201 81.7681 179.998 82.3405 179.998C82.9834 179.998 83.4907 180.211 83.8623 180.637C84.2339 181.06 84.4116 181.71 84.3953 182.586H81.5308C81.5389 182.925 81.6311 183.19 81.8075 183.379C81.9838 183.567 82.2035 183.66 82.4666 183.66C82.6457 183.66 82.7962 183.611 82.9183 183.514C83.0404 183.416 83.1326 183.259 83.195 183.042ZM83.2601 181.886C83.252 181.555 83.1665 181.304 83.0037 181.133C82.841 180.96 82.643 180.873 82.4097 180.873C82.1601 180.873 81.9539 180.964 81.7912 181.146C81.6284 181.327 81.5484 181.574 81.5511 181.886H83.2601ZM85.3312 184.417V178.452H86.4746V184.417H85.3312ZM87.1094 180.096H88.326L89.3595 183.164L90.3687 180.096H91.5527L90.0269 184.254L89.7542 185.007C89.6539 185.259 89.5576 185.452 89.4653 185.585C89.3758 185.718 89.2714 185.825 89.152 185.906C89.0354 185.99 88.8902 186.055 88.7166 186.102C88.5457 186.148 88.3518 186.171 88.1348 186.171C87.915 186.171 87.6994 186.148 87.4878 186.102L87.3861 185.206C87.5651 185.242 87.7265 185.259 87.8703 185.259C88.1361 185.259 88.3328 185.181 88.4603 185.023C88.5878 184.869 88.6854 184.671 88.7533 184.429L87.1094 180.096ZM92.2485 184.417V178.452H93.3919V181.618L94.7306 180.096H96.1385L94.6615 181.674L96.2443 184.417H95.0114L93.925 182.476L93.3919 183.034V184.417H92.2485ZM97.7824 181.414L96.7448 181.227C96.8614 180.809 97.0622 180.5 97.347 180.299C97.6318 180.098 98.055 179.998 98.6165 179.998C99.1265 179.998 99.5063 180.059 99.7559 180.181C100.005 180.301 100.18 180.454 100.281 180.641C100.384 180.825 100.435 181.166 100.435 181.662L100.423 182.997C100.423 183.377 100.441 183.657 100.476 183.839C100.514 184.018 100.583 184.211 100.684 184.417H99.5524C99.5226 184.341 99.4859 184.228 99.4425 184.079C99.4236 184.011 99.41 183.967 99.4019 183.945C99.2065 184.135 98.9977 184.277 98.7752 184.372C98.5528 184.467 98.3154 184.515 98.0632 184.515C97.6183 184.515 97.267 184.394 97.0093 184.153C96.7543 183.911 96.6268 183.606 96.6268 183.237C96.6268 182.993 96.6851 182.776 96.8018 182.586C96.9184 182.393 97.0812 182.247 97.29 182.146C97.5016 182.043 97.8054 181.954 98.2015 181.878C98.7359 181.778 99.1062 181.684 99.3123 181.597V181.483C99.3123 181.264 99.2581 181.108 99.1496 181.015C99.0411 180.92 98.8363 180.873 98.5352 180.873C98.3317 180.873 98.173 180.914 98.0591 180.995C97.9452 181.074 97.8529 181.213 97.7824 181.414ZM99.3123 182.342C99.1659 182.391 98.9339 182.449 98.6165 182.517C98.2992 182.585 98.0916 182.651 97.994 182.716C97.8448 182.822 97.7702 182.956 97.7702 183.119C97.7702 183.279 97.8299 183.417 97.9492 183.534C98.0686 183.651 98.2205 183.709 98.4049 183.709C98.6111 183.709 98.8078 183.641 98.995 183.506C99.1333 183.402 99.2242 183.276 99.2676 183.127C99.2974 183.029 99.3123 182.844 99.3123 182.57V182.342ZM103.898 178.452H106.283C106.755 178.452 107.106 178.472 107.336 178.513C107.57 178.551 107.777 178.632 107.959 178.757C108.143 178.882 108.297 179.049 108.419 179.257C108.541 179.464 108.602 179.696 108.602 179.953C108.602 180.233 108.526 180.489 108.374 180.722C108.225 180.956 108.021 181.131 107.764 181.247C108.127 181.353 108.407 181.533 108.602 181.788C108.797 182.043 108.895 182.343 108.895 182.688C108.895 182.959 108.831 183.223 108.704 183.481C108.579 183.736 108.407 183.941 108.187 184.096C107.97 184.247 107.701 184.341 107.381 184.376C107.18 184.398 106.696 184.412 105.929 184.417H103.898V178.452ZM105.103 179.445V180.824H105.892C106.361 180.824 106.653 180.817 106.767 180.804C106.973 180.779 107.134 180.709 107.251 180.592C107.37 180.473 107.43 180.317 107.43 180.124C107.43 179.94 107.378 179.791 107.275 179.677C107.175 179.56 107.024 179.489 106.824 179.465C106.704 179.451 106.361 179.445 105.794 179.445H105.103ZM105.103 181.817V183.412H106.217C106.651 183.412 106.927 183.4 107.043 183.375C107.222 183.343 107.368 183.264 107.479 183.139C107.593 183.012 107.65 182.842 107.65 182.631C107.65 182.452 107.606 182.3 107.52 182.175C107.433 182.05 107.307 181.959 107.141 181.902C106.978 181.845 106.623 181.817 106.075 181.817H105.103ZM109.644 182.195C109.644 181.816 109.737 181.448 109.924 181.093C110.111 180.737 110.376 180.466 110.718 180.279C111.062 180.092 111.446 179.998 111.869 179.998C112.523 179.998 113.059 180.211 113.477 180.637C113.894 181.06 114.103 181.596 114.103 182.244C114.103 182.898 113.892 183.44 113.468 183.872C113.048 184.3 112.518 184.515 111.877 184.515C111.481 184.515 111.103 184.425 110.742 184.246C110.384 184.067 110.111 183.805 109.924 183.461C109.737 183.114 109.644 182.692 109.644 182.195ZM110.815 182.256C110.815 182.685 110.917 183.013 111.121 183.241C111.324 183.469 111.575 183.583 111.873 183.583C112.172 183.583 112.421 183.469 112.622 183.241C112.826 183.013 112.927 182.682 112.927 182.248C112.927 181.825 112.826 181.5 112.622 181.272C112.421 181.044 112.172 180.93 111.873 180.93C111.575 180.93 111.324 181.044 111.121 181.272C110.917 181.5 110.815 181.828 110.815 182.256ZM116.142 178.452V180.645C116.511 180.214 116.952 179.998 117.464 179.998C117.727 179.998 117.965 180.047 118.176 180.145C118.388 180.242 118.547 180.367 118.652 180.519C118.761 180.671 118.834 180.839 118.872 181.023C118.913 181.208 118.933 181.494 118.933 181.882V184.417H117.79V182.134C117.79 181.681 117.768 181.394 117.725 181.272C117.681 181.15 117.604 181.053 117.493 180.983C117.384 180.91 117.247 180.873 117.082 180.873C116.892 180.873 116.722 180.919 116.573 181.011C116.424 181.103 116.314 181.243 116.243 181.43C116.176 181.615 116.142 181.889 116.142 182.252V184.417H114.998V178.452H116.142ZM120.951 181.414L119.914 181.227C120.03 180.809 120.231 180.5 120.516 180.299C120.801 180.098 121.224 179.998 121.785 179.998C122.295 179.998 122.675 180.059 122.925 180.181C123.174 180.301 123.349 180.454 123.45 180.641C123.553 180.825 123.604 181.166 123.604 181.662L123.592 182.997C123.592 183.377 123.61 183.657 123.645 183.839C123.683 184.018 123.752 184.211 123.853 184.417H122.721C122.692 184.341 122.655 184.228 122.611 184.079C122.593 184.011 122.579 183.967 122.571 183.945C122.375 184.135 122.167 184.277 121.944 184.372C121.722 184.467 121.484 184.515 121.232 184.515C120.787 184.515 120.436 184.394 120.178 184.153C119.923 183.911 119.796 183.606 119.796 183.237C119.796 182.993 119.854 182.776 119.971 182.586C120.087 182.393 120.25 182.247 120.459 182.146C120.671 182.043 120.974 181.954 121.37 181.878C121.905 181.778 122.275 181.684 122.481 181.597V181.483C122.481 181.264 122.427 181.108 122.319 181.015C122.21 180.92 122.005 180.873 121.704 180.873C121.501 180.873 121.342 180.914 121.228 180.995C121.114 181.074 121.022 181.213 120.951 181.414ZM122.481 182.342C122.335 182.391 122.103 182.449 121.785 182.517C121.468 182.585 121.261 182.651 121.163 182.716C121.014 182.822 120.939 182.956 120.939 183.119C120.939 183.279 120.999 183.417 121.118 183.534C121.238 183.651 121.389 183.709 121.574 183.709C121.78 183.709 121.977 183.641 122.164 183.506C122.302 183.402 122.393 183.276 122.437 183.127C122.466 183.029 122.481 182.844 122.481 182.57V182.342ZM128.503 181.373L127.376 181.577C127.338 181.352 127.252 181.182 127.116 181.068C126.983 180.954 126.809 180.897 126.595 180.897C126.31 180.897 126.082 180.996 125.911 181.194C125.743 181.39 125.659 181.718 125.659 182.179C125.659 182.692 125.745 183.054 125.916 183.265C126.089 183.477 126.321 183.583 126.611 183.583C126.828 183.583 127.006 183.522 127.144 183.4C127.283 183.275 127.38 183.062 127.437 182.761L128.56 182.952C128.444 183.468 128.22 183.857 127.889 184.12C127.558 184.383 127.115 184.515 126.558 184.515C125.926 184.515 125.422 184.315 125.045 183.917C124.67 183.518 124.483 182.966 124.483 182.26C124.483 181.547 124.672 180.992 125.049 180.596C125.426 180.197 125.936 179.998 126.579 179.998C127.105 179.998 127.523 180.112 127.832 180.34C128.144 180.565 128.368 180.91 128.503 181.373ZM130.514 178.452V180.645C130.882 180.214 131.323 179.998 131.836 179.998C132.099 179.998 132.336 180.047 132.548 180.145C132.76 180.242 132.918 180.367 133.024 180.519C133.133 180.671 133.206 180.839 133.244 181.023C133.285 181.208 133.305 181.494 133.305 181.882V184.417H132.161V182.134C132.161 181.681 132.14 181.394 132.096 181.272C132.053 181.15 131.976 181.053 131.864 180.983C131.756 180.91 131.619 180.873 131.453 180.873C131.264 180.873 131.094 180.919 130.945 181.011C130.796 181.103 130.686 181.243 130.615 181.43C130.547 181.615 130.514 181.889 130.514 182.252V184.417H129.37V178.452H130.514ZM134.428 184.417V178.452H135.571V181.618L136.91 180.096H138.318L136.841 181.674L138.424 184.417H137.191L136.104 182.476L135.571 183.034V184.417H134.428ZM139.962 181.414L138.924 181.227C139.041 180.809 139.242 180.5 139.526 180.299C139.811 180.098 140.234 179.998 140.796 179.998C141.306 179.998 141.686 180.059 141.935 180.181C142.185 180.301 142.36 180.454 142.46 180.641C142.563 180.825 142.615 181.166 142.615 181.662L142.603 182.997C142.603 183.377 142.62 183.657 142.655 183.839C142.693 184.018 142.763 184.211 142.863 184.417H141.732C141.702 184.341 141.665 184.228 141.622 184.079C141.603 184.011 141.589 183.967 141.581 183.945C141.386 184.135 141.177 184.277 140.955 184.372C140.732 184.467 140.495 184.515 140.243 184.515C139.798 184.515 139.446 184.394 139.189 184.153C138.934 183.911 138.806 183.606 138.806 183.237C138.806 182.993 138.864 182.776 138.981 182.586C139.098 182.393 139.261 182.247 139.469 182.146C139.681 182.043 139.985 181.954 140.381 181.878C140.915 181.778 141.286 181.684 141.492 181.597V181.483C141.492 181.264 141.437 181.108 141.329 181.015C141.22 180.92 141.016 180.873 140.715 180.873C140.511 180.873 140.352 180.914 140.238 180.995C140.125 181.074 140.032 181.213 139.962 181.414ZM141.492 182.342C141.345 182.391 141.113 182.449 140.796 182.517C140.479 182.585 140.271 182.651 140.173 182.716C140.024 182.822 139.95 182.956 139.95 183.119C139.95 183.279 140.009 183.417 140.129 183.534C140.248 183.651 140.4 183.709 140.584 183.709C140.79 183.709 140.987 183.641 141.174 183.506C141.313 183.402 141.404 183.276 141.447 183.127C141.477 183.029 141.492 182.844 141.492 182.57V182.342Z" fill="#05081B"/>
<path d="M70.8333 63.8753C70.8333 62.7247 71.766 61.792 72.9166 61.792H93.7499C94.9005 61.792 95.8333 62.7247 95.8333 63.8753V72.2087C95.8333 73.3593 94.9005 74.292 93.7499 74.292H72.9166C71.766 74.292 70.8333 73.3593 70.8333 72.2087V63.8753Z" fill="#1071AF"/>
<path d="M75.1342 70.834V64.8688H77.067C77.7994 64.8688 78.2768 64.8987 78.4993 64.9583C78.8411 65.0479 79.1273 65.2432 79.3578 65.5443C79.5884 65.8427 79.7037 66.2292 79.7037 66.7039C79.7037 67.0701 79.6372 67.378 79.5043 67.6276C79.3714 67.8772 79.2018 68.0738 78.9957 68.2176C78.7922 68.3587 78.5847 68.4523 78.3731 68.4984C78.0856 68.5553 77.6692 68.5838 77.1239 68.5838H76.3386V70.834H75.1342ZM76.3386 65.8779V67.5706H76.9978C77.4725 67.5706 77.7899 67.5394 77.95 67.4771C78.11 67.4147 78.2348 67.317 78.3243 67.1841C78.4165 67.0512 78.4626 66.8965 78.4626 66.7202C78.4626 66.5032 78.3989 66.3242 78.2714 66.1831C78.1439 66.042 77.9825 65.9539 77.7872 65.9186C77.6434 65.8915 77.3545 65.8779 76.9205 65.8779H76.3386ZM80.5541 69.243V68.0996H82.8002V69.243H80.5541ZM85.4573 70.834V69.6336H83.0159V68.6326L85.6038 64.8444H86.564V68.6286H87.3046V69.6336H86.564V70.834H85.4573ZM85.4573 68.6286V66.59L84.086 68.6286H85.4573ZM87.8702 69.3L89.0095 69.182C89.0421 69.4397 89.1384 69.6445 89.2984 69.7964C89.4585 69.9456 89.6429 70.0202 89.8518 70.0202C90.0905 70.0202 90.2926 69.9239 90.4581 69.7313C90.6236 69.536 90.7063 69.243 90.7063 68.8524C90.7063 68.4862 90.6236 68.2122 90.4581 68.0304C90.2953 67.846 90.0824 67.7537 89.8193 67.7537C89.491 67.7537 89.1967 67.8989 88.9363 68.1891L88.0085 68.0549L88.5945 64.9502H91.6178V66.0203H89.4612L89.2821 67.0335C89.5371 66.906 89.7976 66.8423 90.0634 66.8423C90.5707 66.8423 91.0006 67.0267 91.3533 67.3957C91.7059 67.7646 91.8822 68.2434 91.8822 68.832C91.8822 69.323 91.7398 69.7611 91.455 70.1463C91.0671 70.6726 90.5286 70.9357 89.8396 70.9357C89.2889 70.9357 88.84 70.7879 88.4928 70.4922C88.1455 70.1965 87.938 69.7991 87.8702 69.3Z" fill="white"/>
<path d="M70.8333 63.8753C70.8333 62.7247 71.766 61.792 72.9166 61.792H93.7499C94.9005 61.792 95.8333 62.7247 95.8333 63.8753V72.2087C95.8333 73.3593 94.9005 74.292 93.7499 74.292H72.9166C71.766 74.292 70.8333 73.3593 70.8333 72.2087V63.8753Z" stroke="white" stroke-width="1.04167"/>
<path d="M136.458 117C136.458 115.85 137.391 114.917 138.542 114.917H169.792C170.942 114.917 171.875 115.85 171.875 117V125.334C171.875 126.484 170.942 127.417 169.792 127.417H138.542C137.391 127.417 136.458 126.484 136.458 125.334V117Z" fill="#1071AF"/>
<path d="M141.748 123.959V119.003H139.978V117.994H144.718V119.003H142.952V123.959H141.748ZM144.897 122.368V121.225H147.143V122.368H144.897ZM150.484 123.959H149.341V119.65C148.923 120.041 148.431 120.329 147.864 120.517V119.479C148.162 119.381 148.486 119.197 148.836 118.926C149.186 118.652 149.426 118.333 149.556 117.969H150.484V123.959ZM152.197 119.137V118.075H156.108V118.905C155.785 119.223 155.456 119.678 155.123 120.272C154.789 120.867 154.534 121.499 154.358 122.169C154.184 122.836 154.099 123.433 154.101 123.959H152.999C153.018 123.134 153.187 122.293 153.507 121.436C153.83 120.579 154.26 119.813 154.797 119.137H152.197ZM156.95 122.368V121.225H159.196V122.368H156.95ZM162.537 123.959H161.393V119.65C160.975 120.041 160.483 120.329 159.916 120.517V119.479C160.214 119.381 160.539 119.197 160.889 118.926C161.239 118.652 161.479 118.333 161.609 117.969H162.537V123.959ZM164.274 122.58L165.381 122.458C165.408 122.683 165.478 122.85 165.592 122.958C165.706 123.067 165.857 123.121 166.044 123.121C166.28 123.121 166.481 123.012 166.646 122.795C166.812 122.578 166.918 122.128 166.964 121.444C166.676 121.778 166.317 121.945 165.885 121.945C165.416 121.945 165.01 121.764 164.669 121.404C164.33 121.04 164.16 120.568 164.16 119.988C164.16 119.383 164.339 118.896 164.697 118.527C165.058 118.155 165.516 117.969 166.073 117.969C166.677 117.969 167.174 118.204 167.562 118.673C167.95 119.14 168.144 119.909 168.144 120.98C168.144 122.071 167.942 122.858 167.537 123.34C167.133 123.823 166.607 124.065 165.959 124.065C165.492 124.065 165.115 123.941 164.827 123.694C164.54 123.445 164.355 123.073 164.274 122.58ZM166.862 120.081C166.862 119.712 166.776 119.426 166.606 119.223C166.437 119.019 166.242 118.917 166.02 118.917C165.808 118.917 165.632 119.002 165.491 119.17C165.352 119.335 165.283 119.608 165.283 119.988C165.283 120.373 165.359 120.656 165.511 120.838C165.663 121.017 165.853 121.107 166.081 121.107C166.3 121.107 166.485 121.02 166.634 120.846C166.786 120.673 166.862 120.418 166.862 120.081Z" fill="white"/>
<path d="M136.458 117C136.458 115.85 137.391 114.917 138.542 114.917H169.792C170.942 114.917 171.875 115.85 171.875 117V125.334C171.875 126.484 170.942 127.417 169.792 127.417H138.542C137.391 127.417 136.458 126.484 136.458 125.334V117Z" stroke="white" stroke-width="1.04167"/>
<path d="M75 135.75C75 134.6 75.9327 133.667 77.0833 133.667H108.333C109.484 133.667 110.417 134.6 110.417 135.75V144.084C110.417 145.234 109.484 146.167 108.333 146.167H77.0833C75.9327 146.167 75 145.234 75 144.084V135.75Z" fill="#1071AF"/>
<path d="M80.2897 142.709V137.753H78.5197V136.744H83.2601V137.753H81.4941V142.709H80.2897ZM83.4391 141.118V139.975H85.6852V141.118H83.4391ZM89.0259 142.709H87.8825V138.4C87.4647 138.791 86.9724 139.079 86.4054 139.267V138.229C86.7038 138.131 87.028 137.947 87.3779 137.676C87.7279 137.402 87.9679 137.083 88.0981 136.719H89.0259V142.709ZM90.7389 137.887V136.825H94.6493V137.655C94.3264 137.973 93.9982 138.428 93.6646 139.022C93.3309 139.617 93.0759 140.249 92.8996 140.919C92.726 141.586 92.6405 142.183 92.6432 142.709H91.5405C91.5595 141.884 91.7291 141.043 92.0492 140.186C92.372 139.329 92.8019 138.563 93.339 137.887H90.7389ZM95.4915 141.118V139.975H97.7376V141.118H95.4915ZM101.078 142.709H99.9349V138.4C99.5171 138.791 99.0248 139.079 98.4578 139.267V138.229C98.7562 138.131 99.0804 137.947 99.4303 137.676C99.7803 137.402 100.02 137.083 100.151 136.719H101.078V142.709ZM102.816 141.33L103.923 141.208C103.95 141.433 104.02 141.6 104.134 141.708C104.248 141.817 104.399 141.871 104.586 141.871C104.822 141.871 105.023 141.762 105.188 141.545C105.353 141.328 105.459 140.878 105.505 140.194C105.218 140.528 104.858 140.695 104.427 140.695C103.958 140.695 103.552 140.514 103.21 140.154C102.871 139.79 102.702 139.318 102.702 138.738C102.702 138.133 102.881 137.646 103.239 137.277C103.6 136.905 104.058 136.719 104.614 136.719C105.219 136.719 105.716 136.954 106.104 137.423C106.491 137.89 106.685 138.659 106.685 139.73C106.685 140.821 106.483 141.608 106.079 142.09C105.675 142.573 105.149 142.815 104.5 142.815C104.034 142.815 103.657 142.691 103.369 142.444C103.082 142.195 102.897 141.823 102.816 141.33ZM105.404 138.831C105.404 138.462 105.318 138.176 105.147 137.973C104.979 137.769 104.784 137.667 104.561 137.667C104.35 137.667 104.173 137.752 104.032 137.92C103.894 138.085 103.825 138.358 103.825 138.738C103.825 139.123 103.901 139.406 104.053 139.588C104.205 139.767 104.395 139.857 104.622 139.857C104.842 139.857 105.027 139.77 105.176 139.596C105.328 139.423 105.404 139.168 105.404 138.831Z" fill="white"/>
<path d="M75 135.75C75 134.6 75.9327 133.667 77.0833 133.667H108.333C109.484 133.667 110.417 134.6 110.417 135.75V144.084C110.417 145.234 109.484 146.167 108.333 146.167H77.0833C75.9327 146.167 75 145.234 75 144.084V135.75Z" stroke="white" stroke-width="1.04167"/>
<circle cx="127.083" cy="89.917" r="6.25" fill="white"/>
<circle cx="127.083" cy="152.417" r="6.25" fill="white"/>
</svg>
