<svg width="200" height="201" viewBox="0 0 200 201" fill="none" xmlns="http://www.w3.org/2000/svg">
<rect x="0.520833" y="-0.520833" width="196.875" height="96.875" rx="8.85417" transform="matrix(-1 0 0 1 198.958 52.416)" fill="white" stroke="#13141A" stroke-width="1.04167"/>
<path d="M193.75 60.7497C193.75 58.4485 191.885 56.583 189.583 56.583H10.4167C8.11549 56.583 6.25 58.4485 6.25 60.7497V139.916C6.25 142.218 8.11549 144.083 10.4167 144.083H189.583C191.885 144.083 193.75 142.218 193.75 139.916V60.7497Z" fill="#FF0E00"/>
<path fill-rule="evenodd" clip-rule="evenodd" d="M40.4361 72.9816C40.4361 72.2219 40.5554 71.5851 40.7957 71.0696C40.9749 70.6912 41.2187 70.3496 41.5284 70.0476C41.8386 69.7476 42.1772 69.5237 42.5454 69.378C43.0367 69.1804 43.601 69.083 44.2421 69.083C45.4022 69.083 46.3292 69.423 47.0262 70.1048C47.7227 70.7847 48.0703 71.7322 48.0703 72.9446C48.0703 74.1489 47.7241 75.0891 47.0331 75.7692C46.3423 76.4476 45.4189 76.7876 44.2643 76.7876C43.0935 76.7876 42.1624 76.449 41.4714 75.774C40.7809 75.0983 40.4361 74.1665 40.4361 72.9816ZM42.0727 72.9312C42.0727 73.7748 42.2798 74.4147 42.6897 74.8501C43.1023 75.2858 43.6246 75.5025 44.2586 75.5025C44.8909 75.5025 45.4115 75.2872 45.8181 74.8537C46.223 74.4215 46.4266 73.7743 46.4266 72.9102C46.4266 72.0572 46.2283 71.4206 45.8346 70.9984C45.4387 70.5787 44.9128 70.3688 44.2586 70.3688C43.6022 70.3688 43.0749 70.5821 42.6738 71.0075C42.2743 71.4322 42.0727 72.0724 42.0727 72.9312Z" fill="white"/>
<path d="M33.3333 69.2097H39.5933V76.6611H38.0045V70.4608H34.9221V76.6611H33.3333V69.2097Z" fill="white"/>
<path d="M55.1326 69.2097H48.8725V76.6611H50.4617V70.4608H53.5437V76.6611H55.1326V69.2097Z" fill="white"/>
<path d="M56.298 76.6611V69.2097H62.1326V70.4712H57.8871V72.1227H61.8377V73.3772H57.8871V75.4051H62.2832V76.6611H56.298Z" fill="white"/>
<path fill-rule="evenodd" clip-rule="evenodd" d="M63.173 69.2097V76.6611H64.7628V73.8509H65.7979C66.5178 73.8509 67.068 73.8145 67.4471 73.7429C67.7253 73.6855 68.0002 73.5678 68.2698 73.391C68.4011 73.3042 68.5209 73.2021 68.6294 73.0844C68.6466 73.0657 68.6635 73.0465 68.6803 73.0268L68.7177 72.9821L68.7611 72.9267C68.774 72.9098 68.7867 72.8926 68.7991 72.875C68.8485 72.8059 68.8948 72.7327 68.9384 72.6552C69.1148 72.345 69.2023 71.9594 69.2023 71.5017C69.2023 70.9099 69.0501 70.4255 68.7459 70.051C68.4416 69.6762 68.0627 69.4332 67.6115 69.3225C67.3185 69.2477 66.6881 69.2097 65.7225 69.2097H63.173ZM64.7623 72.584V70.4712H65.5304C66.1019 70.4712 66.4834 70.487 66.6736 70.5213C66.9298 70.5654 67.1446 70.6758 67.3116 70.8514C67.3715 70.9144 67.4206 70.9833 67.4593 71.0583C67.5292 71.1936 67.5643 71.3486 67.5643 71.5225C67.5643 71.7428 67.5037 71.9352 67.3849 72.102C67.3462 72.1553 67.303 72.2038 67.2553 72.2479C67.2436 72.2585 67.2317 72.2691 67.2195 72.2793L67.2057 72.2908C67.1913 72.3023 67.1768 72.3134 67.1618 72.3242C67.1329 72.345 67.1028 72.3645 67.0713 72.3825C67.0551 72.3918 67.0386 72.4008 67.0217 72.4094C66.9983 72.4214 66.9742 72.4327 66.9494 72.4435C66.9294 72.4521 66.9088 72.4602 66.8881 72.4679C66.6774 72.5459 66.2572 72.584 65.6309 72.584H64.7623Z" fill="white"/>
<path d="M70.0487 76.6611V69.2097H75.8833V70.4712H71.6378V72.1227H75.5884V73.3772H71.6378V75.4051H76.0339V76.6611H70.0487Z" fill="white"/>
<path fill-rule="evenodd" clip-rule="evenodd" d="M82.9955 69.2097H77.5562L77.5567 69.9972C77.5567 71.2849 77.5054 72.35 77.4009 73.191C77.2983 74.0345 77.0818 74.7735 76.7573 75.4101H76.0907V78.2871H77.4118V76.6613H82.3667V78.2871H83.6879V75.4101H82.9955V69.2097ZM78.4216 75.4101C78.8537 74.3745 79.0702 72.7227 79.0702 70.4606H81.4123V75.4101H78.4216Z" fill="white"/>
<path d="M83.6316 69.2097H85.4092L87.2451 73.0785L88.812 69.2097H90.4703L87.8134 74.8724C87.5233 75.4846 87.2284 75.9515 86.9282 76.2726C86.6278 76.592 86.2393 76.7533 85.7624 76.7533C85.293 76.7533 84.9265 76.7239 84.6629 76.6665V75.5474C84.8881 75.5614 85.0916 75.568 85.2732 75.568C85.4801 75.568 85.654 75.5479 85.7948 75.5081C85.906 75.4767 85.9964 75.4331 86.0663 75.3773C86.1017 75.3493 86.1365 75.3141 86.1711 75.2716C86.2124 75.221 86.2529 75.1602 86.2933 75.0891C86.3314 75.0217 86.3694 74.9452 86.4068 74.8595C86.4464 74.7687 86.4856 74.6677 86.5245 74.5566L83.6316 69.2097Z" fill="white"/>
<path fill-rule="evenodd" clip-rule="evenodd" d="M96.5593 69.2097H93.4131L93.4126 76.6604H96.0909C97.1048 76.6534 97.744 76.636 98.0077 76.6101C98.4312 76.5649 98.7867 76.447 99.0742 76.2561C99.147 76.2077 99.2162 76.1551 99.2814 76.0984C99.3367 76.05 99.3892 75.9988 99.4391 75.9445C99.562 75.8108 99.6677 75.659 99.7562 75.4896C99.8502 75.3084 99.9175 75.1243 99.9583 74.9375C99.975 74.8604 99.9872 74.783 99.995 74.705C100.002 74.6373 100.005 74.5693 100.005 74.5008C100.005 74.0707 99.8776 73.6959 99.6188 73.3767C99.3622 73.0589 98.9924 72.8334 98.514 72.7017C98.8531 72.5558 99.1227 72.3376 99.3224 72.0459C99.5204 71.7547 99.6192 71.4337 99.6192 71.0849C99.6192 70.7639 99.5388 70.4723 99.3778 70.2136C99.2162 69.9536 99.016 69.7476 98.7746 69.5913C98.5331 69.4347 98.2596 69.3326 97.9538 69.2843C97.6479 69.2339 97.1823 69.2097 96.5593 69.2097ZM95.0036 72.1727V70.4502L95.9165 70.4499C96.6643 70.4499 97.117 70.4585 97.2744 70.4759C97.5383 70.5055 97.7378 70.592 97.8736 70.7362C97.9611 70.8306 98.0196 70.9433 98.0497 71.0748C98.0657 71.1441 98.0735 71.2187 98.0735 71.2984C98.0735 71.5395 97.9967 71.734 97.8407 71.8813C97.6846 72.0285 97.4703 72.1173 97.1993 72.1467C97.0487 72.1643 96.6638 72.1727 96.0449 72.1727H95.0036ZM95.0036 75.4049V73.4131L96.2864 73.4129C97.0081 73.4129 97.4792 73.4479 97.6956 73.5188C97.912 73.5902 98.0766 73.7047 98.1919 73.8611C98.3059 74.0172 98.3642 74.2062 98.3642 74.4301C98.3642 74.6935 98.289 74.9052 98.1408 75.0633C97.9929 75.2196 97.8003 75.3199 97.5639 75.3597C97.4784 75.3771 97.3291 75.3891 97.115 75.3963C97.0098 75.3999 96.8891 75.4022 96.7526 75.4035C96.6657 75.4044 96.5727 75.4049 96.4734 75.4049H95.0036Z" fill="white"/>
<path d="M105.507 73.9218L107.047 74.3833C106.81 75.197 106.418 75.8006 105.869 76.1962C105.321 76.5899 104.622 76.7881 103.777 76.7881C102.733 76.7881 101.874 76.4494 101.201 75.7747C100.528 75.0983 100.191 74.1735 100.191 73.0029C100.191 71.7622 100.53 70.7994 101.206 70.1122C101.883 69.4271 102.771 69.0835 103.874 69.0835C104.836 69.0835 105.619 69.3525 106.22 69.892C106.579 70.2094 106.847 70.6675 107.026 71.2643L105.452 71.6199C105.361 71.2331 105.167 70.9275 104.87 70.7039C104.575 70.4802 104.216 70.3693 103.795 70.3693C103.211 70.3693 102.737 70.567 102.374 70.9639C102.011 71.3594 101.83 72.0017 101.83 72.8899C101.83 73.8319 102.008 74.5031 102.367 74.9022C102.724 75.3028 103.189 75.5027 103.761 75.5027C104.184 75.5027 104.548 75.3757 104.851 75.1209C105.156 74.867 105.373 74.4667 105.507 73.9218Z" fill="white"/>
<path d="M109.451 70.4712V76.6611H111.041V70.4712H113.37V69.2097H107.116V70.4712H109.451Z" fill="white"/>
<path fill-rule="evenodd" clip-rule="evenodd" d="M120.343 76.6611H118.613L117.926 74.9677H114.78L114.131 76.6611H112.446L115.511 69.2097H117.192L120.343 76.6611ZM117.417 73.7133L116.332 70.9481L115.269 73.7133H117.417Z" fill="white"/>
<path d="M120.732 69.2097V76.6611H122.322V73.4029H125.435V76.6611H127.024V69.2097H125.435V72.1415H122.322V69.2097H120.732Z" fill="white"/>
<path fill-rule="evenodd" clip-rule="evenodd" d="M127.887 72.9816C127.887 72.2219 128.007 71.5851 128.247 71.0696C128.332 70.8889 128.433 70.7167 128.548 70.5532C128.674 70.374 128.818 70.2055 128.98 70.0476C129.108 69.9236 129.241 69.8124 129.379 69.7144L129.422 69.6844L129.464 69.6563C129.498 69.6342 129.531 69.6127 129.566 69.5922C129.705 69.5082 129.848 69.4368 129.997 69.378C130.488 69.1804 131.052 69.083 131.693 69.083C132.853 69.083 133.781 69.423 134.477 70.1048C135.174 70.7847 135.521 71.7322 135.521 72.9446C135.521 74.1489 135.175 75.0891 134.484 75.7692C133.794 76.4476 132.87 76.7876 131.716 76.7876C130.545 76.7876 129.614 76.449 128.923 75.774C128.232 75.0983 127.887 74.1665 127.887 72.9816ZM129.524 72.9312C129.524 73.1431 129.537 73.3419 129.563 73.5283C129.574 73.6067 129.588 73.6828 129.603 73.7567C129.609 73.7865 129.616 73.8159 129.623 73.845C129.722 74.2537 129.895 74.5887 130.141 74.8501C130.554 75.2858 131.076 75.5025 131.71 75.5025C131.957 75.5025 132.188 75.4695 132.401 75.4033C132.732 75.3005 133.022 75.1175 133.269 74.8537C133.674 74.4215 133.878 73.7743 133.878 72.9102C133.878 72.0572 133.68 71.4206 133.286 70.9984C132.89 70.5787 132.364 70.3688 131.71 70.3688C131.054 70.3688 130.526 70.5821 130.125 71.0075C129.726 71.4322 129.524 72.0724 129.524 72.9312Z" fill="white"/>
<path fill-rule="evenodd" clip-rule="evenodd" d="M139.454 69.2097H136.308V76.6604H138.986C140 76.6534 140.64 76.636 140.903 76.6101C141.327 76.5649 141.682 76.447 141.97 76.2561C142.258 76.0652 142.484 75.8088 142.651 75.4896C142.746 75.3068 142.814 75.1209 142.855 74.9323C142.886 74.7902 142.901 74.6463 142.901 74.5008C142.901 74.0707 142.772 73.6959 142.514 73.3767C142.258 73.0589 141.887 72.8334 141.409 72.7017C141.563 72.6353 141.703 72.5542 141.828 72.458C141.979 72.3423 142.109 72.205 142.217 72.0459C142.416 71.7547 142.515 71.4337 142.515 71.0849C142.515 70.7639 142.434 70.4723 142.273 70.2136C142.112 69.9536 141.912 69.7476 141.67 69.5913C141.628 69.5642 141.585 69.5387 141.541 69.5147C141.501 69.493 141.46 69.4727 141.419 69.4537C141.243 69.3728 141.054 69.3166 140.849 69.2843C140.543 69.2339 140.078 69.2097 139.454 69.2097ZM137.898 72.1727V70.4502L138.811 70.4499C139.559 70.4499 140.011 70.4585 140.169 70.4759C140.433 70.5055 140.633 70.592 140.768 70.7362C140.902 70.8803 140.968 71.0678 140.968 71.2984C140.968 71.4394 140.942 71.5645 140.889 71.6736C140.874 71.7037 140.857 71.7324 140.839 71.7597C140.827 71.7776 140.814 71.795 140.8 71.8119L140.783 71.8318L140.758 71.8587L140.735 71.8813C140.579 72.0285 140.365 72.1173 140.094 72.1467C139.943 72.1643 139.558 72.1727 138.939 72.1727H137.898ZM137.898 75.4049V73.4131L139.181 73.4129C139.903 73.4129 140.374 73.4479 140.591 73.5188C140.807 73.5902 140.971 73.7047 141.087 73.8611C141.201 74.0172 141.259 74.2062 141.259 74.4301C141.259 74.4888 141.255 74.5451 141.248 74.5988C141.243 74.6377 141.235 74.675 141.226 74.7111C141.19 74.8485 141.127 74.9659 141.036 75.0633C140.887 75.2196 140.695 75.3199 140.458 75.3597C140.445 75.3624 140.429 75.3651 140.412 75.3676C140.389 75.371 140.363 75.3741 140.334 75.3771C140.302 75.3802 140.267 75.3832 140.228 75.3857L140.154 75.39L140.107 75.3924C139.921 75.4008 139.675 75.4049 139.368 75.4049H137.898Z" fill="white"/>
<path d="M144.076 69.2097H149.59V76.6611H148.001V70.4709H145.633V73.6528C145.633 73.8814 145.631 74.0928 145.627 74.2869C145.615 74.8659 145.584 75.2908 145.537 75.5612C145.472 75.9222 145.315 76.203 145.067 76.4045C145.013 76.4483 144.952 76.4874 144.885 76.5217C144.791 76.5692 144.685 76.6076 144.566 76.6367C144.376 76.6832 144.154 76.7065 143.898 76.7065C143.794 76.7065 143.64 76.7015 143.438 76.6909C143.282 76.6828 143.098 76.6715 142.885 76.6564V75.4921L143.239 75.4973C143.572 75.4973 143.796 75.4552 143.909 75.3703C144.025 75.2856 144.081 75.0773 144.081 74.7439L144.076 73.4637L144.076 69.2097Z" fill="white"/>
<path d="M150.77 69.2097V76.6611H156.755V75.4051H152.358V73.3772H156.309V72.1227H152.358V70.4712H156.604V69.2097H150.77Z" fill="white"/>
<path d="M157.648 76.6611V69.2097H159.239V72.1415H162.353V69.2097H163.942V76.6611H162.353V73.4029H159.239V76.6611H157.648Z" fill="white"/>
<path d="M165.078 69.2097V76.6611H166.667V69.2097H165.078Z" fill="white"/>
<path d="M42.47 88.2903V80.8389H44.0603V83.7714H47.1736V80.8389H48.7628V88.2903H47.1736V85.0323H44.0603V88.2903H42.47Z" fill="white"/>
<path fill-rule="evenodd" clip-rule="evenodd" d="M49.9849 82.699C49.7451 83.2145 49.6258 83.8511 49.6258 84.6108C49.6258 85.7957 49.9704 86.7273 50.6611 87.4039C51.3519 88.0784 52.2829 88.4168 53.4538 88.4168C54.6084 88.4168 55.5321 88.077 56.2228 87.3987C56.9133 86.7187 57.2598 85.7785 57.2598 84.5742C57.2598 83.3618 56.9124 82.4141 56.2152 81.7344C55.5189 81.0526 54.5917 80.7127 53.4318 80.7127C53.3018 80.7127 53.1749 80.7167 53.051 80.7246C52.7828 80.742 52.5292 80.7782 52.2901 80.8335C52.0956 80.8787 51.9107 80.9365 51.7351 81.0072C51.3667 81.1532 51.0281 81.377 50.7179 81.677C50.4084 81.9788 50.1646 82.3208 49.9849 82.699ZM51.8792 86.4792C51.4693 86.0442 51.2624 85.404 51.2624 84.5607C51.2624 83.7018 51.4638 83.0618 51.8632 82.6367C52.2641 82.2113 52.7919 81.9978 53.4481 81.9978C54.1023 81.9978 54.628 82.2081 55.0238 82.6276C55.418 83.0492 55.6158 83.6862 55.6158 84.5397C55.6158 85.4035 55.4123 86.0505 55.0078 86.4826C54.8033 86.7006 54.57 86.8635 54.3085 86.9715C54.0496 87.0783 53.7628 87.1316 53.4481 87.1316C52.8141 87.1316 52.2918 86.9146 51.8792 86.4792Z" fill="white"/>
<path fill-rule="evenodd" clip-rule="evenodd" d="M58.046 80.8389H61.1923C61.2834 80.8389 61.371 80.8394 61.4552 80.8405C61.5626 80.8419 61.6647 80.8441 61.7614 80.8471C62.1071 80.8579 62.3825 80.8798 62.5867 80.9135C62.8926 80.9618 63.166 81.0639 63.408 81.2205C63.4865 81.2713 63.5607 81.3276 63.6306 81.3892C63.707 81.4563 63.7781 81.53 63.8444 81.6104C63.9038 81.6827 63.9592 81.7602 64.0107 81.8431C64.172 82.1015 64.2527 82.3929 64.2527 82.7141C64.2527 82.8718 64.2324 83.0239 64.1918 83.17C64.1427 83.3471 64.0639 83.5154 63.9554 83.6749C63.7561 83.9668 63.486 84.1852 63.1472 84.3307C63.6254 84.4626 63.9957 84.6883 64.2519 85.0057C64.323 85.0933 64.3841 85.1853 64.4357 85.2813C64.5008 85.403 64.5502 85.5314 64.5838 85.6665C64.6204 85.8131 64.6385 85.9676 64.6385 86.13C64.6385 86.4684 64.5559 86.798 64.3891 87.1188C64.3765 87.1432 64.3634 87.1673 64.35 87.1911L64.3254 87.2329C64.2813 87.3067 64.2336 87.377 64.1825 87.4432C64.1133 87.5324 64.0379 87.6149 63.9558 87.6905C63.8785 87.7617 63.7957 87.8265 63.7072 87.8853C63.4197 88.0761 63.0642 88.1941 62.6409 88.2392C62.4958 88.2535 62.2369 88.2652 61.8644 88.274C61.5602 88.2813 61.1801 88.2865 60.7241 88.2896H58.0451L58.046 80.8389ZM59.6366 82.0796V83.8016H60.6781C61.0553 83.8016 61.3457 83.7985 61.549 83.7921C61.679 83.7881 61.7735 83.7829 61.8322 83.7763C61.9134 83.7675 61.9892 83.7533 62.0601 83.7339C62.2264 83.6885 62.3646 83.6141 62.4736 83.5107C62.5185 83.4684 62.5566 83.4221 62.5884 83.372C62.6468 83.28 62.6833 83.175 62.6986 83.0571C62.7039 83.0157 62.7065 82.9726 62.7065 82.9278C62.7065 82.697 62.6402 82.5092 62.5068 82.3653C62.4464 82.3012 62.3732 82.2483 62.2873 82.2068C62.1804 82.1553 62.0539 82.1214 61.9076 82.1051C61.7499 82.0882 61.2973 82.0796 60.5495 82.0796H59.6366ZM59.6366 85.0425V87.0343H61.1069C61.6802 87.0343 62.0432 87.0201 62.1968 86.9891C62.4335 86.9493 62.6258 86.8488 62.774 86.6925C62.9222 86.5346 62.9971 86.3229 62.9971 86.0595C62.9971 85.8357 62.9389 85.6466 62.8253 85.4907C62.7096 85.3344 62.5452 85.2201 62.329 85.1485C62.1126 85.0778 61.6416 85.0427 60.9193 85.0427L59.6366 85.0425Z" fill="white"/>
<path d="M65.475 80.8389V88.2903H67.0637V80.8389H65.475Z" fill="white"/>
<path fill-rule="evenodd" clip-rule="evenodd" d="M71.35 80.8389H76.7886V87.0395H77.4813V89.9163H76.1601V88.2908H71.2052V89.9163H69.8843V87.0395H70.5512C70.5679 87.0067 70.5843 86.974 70.6003 86.9408C70.6227 86.8945 70.6445 86.8477 70.6657 86.8005C70.6965 86.732 70.7261 86.6625 70.7545 86.5917C70.8208 86.4271 70.8809 86.2563 70.9344 86.0796C71.0527 85.6893 71.1398 85.2695 71.1947 84.8204C71.2992 83.979 71.3507 82.9138 71.3507 81.6267L71.35 80.8389ZM72.863 82.09C72.863 84.3517 72.6469 86.0037 72.2147 87.0393H75.205V82.09H72.863Z" fill="white"/>
<path fill-rule="evenodd" clip-rule="evenodd" d="M78.1286 82.699C77.8886 83.2145 77.769 83.8511 77.769 84.6108C77.769 85.7957 78.1138 86.7273 78.8046 87.4039C79.4954 88.0784 80.4264 88.4168 81.5975 88.4168C82.7521 88.4168 83.6753 88.077 84.3663 87.3987C85.057 86.7187 85.4035 85.7785 85.4035 84.5742C85.4035 83.3618 85.0558 82.4141 84.3589 81.7344C83.6624 81.0526 82.7352 80.7127 81.5753 80.7127C80.9342 80.7127 80.3696 80.8096 79.8786 81.0072C79.5882 81.1222 79.3164 81.2855 79.0625 81.4965C78.9943 81.5532 78.9272 81.6133 78.8614 81.677C78.7767 81.7595 78.6972 81.8451 78.6225 81.9334C78.5882 81.9739 78.5548 82.015 78.5226 82.0568C78.4312 82.1751 78.3479 82.2983 78.273 82.4259C78.221 82.5147 78.1728 82.6057 78.1286 82.699ZM80.0229 86.4792C79.6125 86.0442 79.4056 85.404 79.4056 84.5607C79.4056 83.7018 79.6075 83.0618 80.0069 82.6367C80.4075 82.2113 80.9351 81.9978 81.5915 81.9978C82.246 81.9978 82.7717 82.2081 83.1673 82.6276C83.5612 83.0492 83.7593 83.6862 83.7593 84.5397C83.7593 85.4035 83.556 86.0505 83.1513 86.4826C82.7445 86.9164 82.2241 87.1316 81.5915 87.1316C80.9573 87.1316 80.4355 86.9146 80.0229 86.4792Z" fill="white"/>
<path fill-rule="evenodd" clip-rule="evenodd" d="M86.1854 88.2903V80.8389H88.7347C88.9759 80.8389 89.1962 80.8412 89.3956 80.8459C89.9943 80.8602 90.4037 80.8956 90.6237 80.9514C91.0747 81.0623 91.4534 81.3052 91.7581 81.68C91.9043 81.8602 92.0155 82.0658 92.0914 82.2967C92.126 82.4015 92.1532 82.5115 92.173 82.6267C92.2005 82.7848 92.2143 82.9529 92.2143 83.1307C92.2143 83.177 92.2133 83.2224 92.2117 83.2671C92.2095 83.3211 92.2059 83.374 92.2012 83.426C92.1943 83.5007 92.1847 83.5732 92.1723 83.6435C92.1637 83.6927 92.1537 83.7411 92.1425 83.7883C92.0986 83.9706 92.0346 84.136 91.9504 84.2842C91.843 84.4753 91.7185 84.6409 91.576 84.7814C91.5295 84.8272 91.4811 84.8706 91.4307 84.9113C91.4042 84.9327 91.3773 84.9535 91.3496 84.9734C91.3274 84.9894 91.305 85.0048 91.2823 85.0199C91.0124 85.197 90.7376 85.3145 90.4593 85.3719C90.08 85.4433 89.53 85.4792 88.8101 85.4792H87.7748V88.2898L86.1854 88.2903ZM87.7743 82.1004V84.2137H88.6428C89.2696 84.2137 89.6894 84.1755 89.9003 84.0973C90.111 84.0192 90.2759 83.8979 90.3968 83.7314C90.5157 83.5647 90.576 83.3722 90.576 83.1517C90.576 82.8813 90.4916 82.6572 90.3231 82.4803C90.1563 82.3053 89.9418 82.1943 89.6858 82.1505C89.4954 82.1162 89.1141 82.1004 88.5421 82.1004H87.7743Z" fill="white"/>
<path fill-rule="evenodd" clip-rule="evenodd" d="M92.9528 82.699C92.7125 83.2145 92.5932 83.8511 92.5932 84.6108C92.5932 85.7957 92.9385 86.7273 93.6288 87.4039C94.3198 88.0784 95.2506 88.4168 96.4214 88.4168C97.5763 88.4168 98.4994 88.077 99.1905 87.3987C99.8812 86.7187 100.227 85.7785 100.227 84.5742C100.227 83.3618 99.8798 82.4141 99.1833 81.7344C98.4868 81.0526 97.5596 80.7127 96.3995 80.7127C95.7581 80.7127 95.1938 80.8096 94.7027 81.0072C94.3343 81.1532 93.9957 81.377 93.6858 81.677C93.3758 81.9788 93.1322 82.3208 92.9528 82.699ZM94.8476 86.4792C94.4374 86.0442 94.2303 85.404 94.2303 84.5607C94.2303 83.7018 94.4319 83.0618 94.8313 82.6367C95.2327 82.2113 95.7598 81.9978 96.4164 81.9978C97.0707 81.9978 97.5963 82.2081 97.9922 82.6276C98.3859 83.0492 98.5842 83.6862 98.5842 84.5397C98.5842 84.9851 98.53 85.3728 98.4221 85.703C98.3207 86.0134 98.1721 86.2732 97.9759 86.4826C97.5691 86.9164 97.0487 87.1316 96.4164 87.1316C95.7822 87.1316 95.2601 86.9146 94.8476 86.4792Z" fill="white"/>
<path d="M105.81 80.8389V84.0101C106.073 83.9894 106.275 83.8976 106.411 83.7309C106.496 83.6261 106.602 83.4377 106.729 83.1648C106.804 83.0037 106.886 82.8131 106.975 82.5928C107.289 81.8171 107.611 81.321 107.941 81.108C108.267 80.8977 108.808 80.794 109.568 80.794C109.603 80.794 109.68 80.7922 109.799 80.789V81.9011L109.568 81.8962C109.246 81.8962 109.009 81.9343 108.859 82.0105C108.709 82.0868 108.586 82.2032 108.494 82.359C108.401 82.5153 108.264 82.8348 108.081 83.3202C108.061 83.3715 108.042 83.4212 108.022 83.4691C107.99 83.5459 107.957 83.6187 107.923 83.6871C107.873 83.7897 107.821 83.8825 107.767 83.9659C107.654 84.1373 107.454 84.3004 107.168 84.4531C107.361 84.5069 107.535 84.5884 107.692 84.698C107.823 84.7895 107.941 84.9004 108.046 85.031C108.277 85.317 108.53 85.7232 108.807 86.247L109.879 88.2905H108.011L107.066 86.3652C107.063 86.3573 107.058 86.3475 107.052 86.3358C107.044 86.3204 107.034 86.3017 107.021 86.2795L107.001 86.2475L106.976 86.207C106.957 86.1738 106.922 86.1115 106.872 86.0209L106.782 85.8564C106.753 85.8049 106.725 85.7561 106.698 85.7101C106.668 85.6601 106.639 85.6134 106.611 85.5698C106.486 85.3753 106.378 85.2433 106.288 85.1744C106.158 85.0755 105.999 85.0269 105.81 85.0269V88.2901H104.258V85.0269C104.074 85.0269 103.919 85.0737 103.785 85.1688C103.653 85.2646 103.488 85.4932 103.292 85.8562L103.212 85.9999C103.148 86.1149 103.108 86.1835 103.092 86.2068C103.061 86.257 103.029 86.3089 103.002 86.3649L102.057 88.2903H100.188L101.262 86.2468C101.528 85.7421 101.776 85.3412 102.011 85.0445C102.246 84.7479 102.545 84.5516 102.905 84.4529C102.619 84.3002 102.42 84.1391 102.306 83.967C102.194 83.7971 102.088 83.58 101.987 83.3198C101.807 82.8443 101.672 82.5289 101.582 82.3694C101.491 82.2095 101.368 82.0918 101.216 82.0136C101.064 81.9357 100.816 81.8957 100.473 81.8957C100.43 81.8957 100.362 81.8975 100.268 81.9007V80.7886C100.388 80.7922 100.465 80.7933 100.499 80.7933C101.268 80.7933 101.817 80.8995 102.143 81.113C102.466 81.3298 102.781 81.8221 103.092 82.5926C103.251 82.9816 103.387 83.2784 103.499 83.4836C103.559 83.5931 103.612 83.6767 103.659 83.7341C103.794 83.8974 103.994 83.9894 104.258 84.0099V80.8387L105.81 80.8389Z" fill="white"/>
<path d="M110.348 80.8389V88.2903H111.939V85.0323H115.052V88.2903H116.642V80.8389H115.052V83.7714H111.939V80.8389H110.348Z" fill="white"/>
<path d="M117.778 88.2903V80.8389H119.367V88.2903H117.778Z" fill="white"/>
<path d="M122.595 82.5321L124.142 82.8723C124.326 82.2495 124.754 81.9373 125.418 81.9361C125.808 81.9361 126.109 82.0297 126.318 82.2156C126.444 82.3281 126.532 82.4564 126.583 82.6007C126.615 82.6947 126.631 82.7952 126.631 82.9025C126.631 83.2441 126.503 83.5184 126.244 83.7248C125.988 83.9315 125.616 84.0357 125.129 84.0357H124.945V85.1582H125.307C125.552 85.1582 125.768 85.179 125.955 85.2201C126.167 85.2666 126.342 85.3391 126.479 85.4376C126.738 85.6251 126.868 85.87 126.868 86.175C126.868 86.4406 126.755 86.6749 126.526 86.8795C126.406 86.9866 126.249 87.0655 126.055 87.1165C126.025 87.1244 125.994 87.1319 125.962 87.1384C125.923 87.1463 125.883 87.1533 125.842 87.1592C125.782 87.168 125.719 87.1746 125.653 87.1791C125.582 87.1841 125.508 87.1865 125.43 87.1865C125.065 87.1865 124.757 87.1206 124.51 86.9889C124.473 86.969 124.436 86.9457 124.401 86.9188C124.366 86.8924 124.333 86.8624 124.3 86.8287C124.267 86.7946 124.234 86.7567 124.203 86.7151C124.185 86.6898 124.166 86.6634 124.148 86.6356C124.136 86.6161 124.124 86.5963 124.112 86.5757L124.085 86.5276C124.044 86.4537 124.006 86.3722 123.971 86.2832L123.942 86.2077C123.931 86.179 123.921 86.1497 123.911 86.1196L122.456 86.5725C122.696 87.2837 123.053 87.7698 123.53 88.028C124.007 88.2885 124.655 88.4168 125.478 88.4168C126.488 88.4168 127.247 88.2153 127.752 87.8132C128.258 87.4091 128.513 86.88 128.513 86.2276C128.513 85.7731 128.381 85.3911 128.121 85.0807C127.859 84.7705 127.467 84.5308 126.944 84.361C127.375 84.1439 127.696 83.8922 127.91 83.606C128.126 83.3198 128.232 82.9988 128.232 82.643C128.232 82.1243 127.998 81.6734 127.527 81.2882C127.056 80.9051 126.359 80.7124 125.436 80.7124C123.874 80.7124 122.929 81.3176 122.595 82.5321Z" fill="white"/>
<path d="M129.454 88.2903V80.8389H131.045V83.7714H134.158V80.8389H135.747V88.2903H134.158V85.0323H131.045V88.2903H129.454Z" fill="white"/>
<path fill-rule="evenodd" clip-rule="evenodd" d="M142.3 88.2903H144.03L140.878 80.8389H139.197L136.132 88.2903H137.818L138.466 86.5972H141.612L142.3 88.2903ZM140.019 82.5775L141.103 85.343H138.955L140.019 82.5775Z" fill="white"/>
<path d="M144.44 80.8389H146.029V84.0101C146.233 83.9912 146.398 83.9546 146.526 83.9008C146.57 83.8823 146.609 83.8619 146.644 83.8394C146.685 83.8129 146.72 83.7838 146.749 83.7517C146.874 83.613 147.068 83.2263 147.328 82.5928C147.658 81.7859 147.99 81.2846 148.321 81.0888C148.651 80.8913 149.182 80.7938 149.915 80.7938L149.983 80.7928L150.146 80.789V81.9011L149.92 81.8962C149.596 81.8962 149.358 81.9343 149.207 82.0105C149.157 82.036 149.11 82.0658 149.066 82.1001C148.979 82.169 148.904 82.2553 148.843 82.3593C148.749 82.5153 148.612 82.8348 148.429 83.3202C148.332 83.5769 148.228 83.7921 148.116 83.9659C148.059 84.0519 147.98 84.1357 147.88 84.2173C147.78 84.2984 147.659 84.377 147.516 84.4531C147.692 84.5006 147.853 84.5715 147.999 84.6662C148.146 84.7619 148.278 84.8823 148.394 85.0274C148.625 85.3154 148.878 85.7232 149.153 86.2468L150.227 88.2903H148.36L147.419 86.3647C147.404 86.3369 147.375 86.2847 147.328 86.2068C147.318 86.1905 147.291 86.1447 147.248 86.0688C147.217 86.0139 147.177 85.943 147.13 85.8562C146.926 85.49 146.758 85.2612 146.627 85.1688C146.58 85.1354 146.523 85.108 146.457 85.0866C146.342 85.0488 146.199 85.0292 146.028 85.0269V88.2901H144.439L144.44 80.8389Z" fill="white"/>
<path d="M152.175 80.8389H150.687V88.2903H152.276L155.461 83.4257V88.2903H156.947V80.8389H155.364L152.175 85.7993V80.8389Z" fill="white"/>
<path fill-rule="evenodd" clip-rule="evenodd" d="M69.569 125.397C69.3303 125.955 69.2118 126.643 69.2118 127.464C69.2118 128.744 69.5543 129.751 70.2403 130.482C70.927 131.211 71.8517 131.577 73.0148 131.577C74.1619 131.577 75.0792 131.21 75.7655 130.477C76.4519 129.742 76.7961 128.725 76.7961 127.424C76.7961 126.113 76.4505 125.089 75.7586 124.354C75.0667 123.618 74.1455 123.25 72.9928 123.25C72.8622 123.25 72.7349 123.254 72.6107 123.263C72.3964 123.279 72.1916 123.307 71.9958 123.349C71.7519 123.401 71.5224 123.474 71.3072 123.569C71.1574 123.633 71.0126 123.712 70.8727 123.804C70.7758 123.869 70.681 123.94 70.5885 124.017C70.4887 124.101 70.3915 124.193 70.2972 124.293C69.9893 124.619 69.7473 124.988 69.569 125.397ZM71.4506 129.484C71.0431 129.013 70.8376 128.321 70.8376 127.409C70.8376 126.481 71.0379 125.789 71.435 125.33C71.8327 124.87 72.3571 124.639 73.0092 124.639C73.1817 124.639 73.3453 124.656 73.4998 124.688C73.5999 124.708 73.6959 124.736 73.7883 124.77C73.9611 124.833 74.1206 124.921 74.2669 125.031C74.32 125.071 74.3714 125.114 74.421 125.16C74.4743 125.21 74.5255 125.264 74.5748 125.32C74.9659 125.776 75.1629 126.465 75.1629 127.387C75.1629 128.321 74.9607 129.02 74.5587 129.487C74.1545 129.956 73.6376 130.188 73.0092 130.188C72.3791 130.188 71.8605 129.954 71.4506 129.484Z" fill="white"/>
<path d="M35.4167 131.441V123.387H36.9537L40.1538 128.765V123.387H41.621V131.441H40.0357L36.8845 126.188V131.441H35.4167Z" fill="white"/>
<path d="M42.8356 131.441V123.387H48.6317V124.751H44.4138V126.536H48.3385V127.891H44.4138V130.083H48.7811V131.441H42.8356Z" fill="white"/>
<path d="M48.9084 123.387L50.7741 131.441H52.4858L54.0384 125.42L55.595 131.441H57.2697L59.1682 123.387H57.579L56.3794 129.013L55.0088 123.387H53.1319L51.7026 128.919L50.5231 123.387H48.9084Z" fill="white"/>
<path fill-rule="evenodd" clip-rule="evenodd" d="M62.1032 131.441V123.387H65.427C65.8991 123.387 66.2983 123.411 66.6245 123.457C66.875 123.492 67.0827 123.542 67.2474 123.605C67.4179 123.669 67.5731 123.757 67.7132 123.868C67.8844 124.003 68.0325 124.172 68.1577 124.375C68.3852 124.746 68.4978 125.168 68.4978 125.645C68.4978 126.248 68.3248 126.749 67.9808 127.143C67.6369 127.534 67.1194 127.784 66.4334 127.885C66.7752 128.092 67.0576 128.317 67.2794 128.562C67.328 128.616 67.3804 128.679 67.4363 128.751C67.4719 128.796 67.5089 128.846 67.5473 128.899C67.7253 129.143 67.9351 129.467 68.1771 129.869L69.1328 131.441H67.2453L66.1042 129.687C65.9321 129.422 65.7832 129.198 65.6576 129.017C65.6282 128.974 65.6 128.933 65.573 128.895C65.5208 128.822 65.4734 128.756 65.4305 128.7C65.3672 128.616 65.3144 128.551 65.2717 128.504C65.1228 128.342 64.964 128.231 64.7969 128.169C64.7504 128.152 64.6969 128.138 64.6357 128.126C64.5968 128.118 64.5549 128.112 64.5099 128.106C64.3702 128.088 64.201 128.079 64.0016 128.079H63.6828V131.441H62.1032ZM63.6831 126.792H64.8502C65.311 126.792 65.6668 126.781 65.9174 126.757C65.9466 126.754 65.9743 126.751 66.0006 126.748C66.0466 126.742 66.0883 126.736 66.1258 126.73C66.185 126.719 66.2331 126.708 66.2703 126.695C66.4578 126.629 66.6055 126.515 66.7124 126.354C66.8186 126.192 66.8727 125.992 66.8727 125.75C66.8727 125.478 66.8018 125.26 66.6617 125.093C66.5214 124.927 66.323 124.822 66.0665 124.776C65.9392 124.76 65.555 124.751 64.9142 124.751H63.6835L63.6831 126.792Z" fill="white"/>
<path fill-rule="evenodd" clip-rule="evenodd" d="M84.6239 131.441H82.9056L82.2227 129.611H79.0968L78.4525 131.441H76.7779L79.8231 123.387H81.4931L84.6239 131.441ZM81.7164 128.255L80.639 125.266L79.583 128.255H81.7164Z" fill="white"/>
<path fill-rule="evenodd" clip-rule="evenodd" d="M87.8858 123.387H85.0003L85.0013 131.441H87.9704C88.3897 131.441 88.7484 131.412 89.0459 131.353C89.0937 131.343 89.1402 131.333 89.185 131.322C89.2495 131.306 89.3106 131.289 89.3685 131.27C89.8345 131.116 90.204 130.902 90.4773 130.626C90.6094 130.495 90.73 130.349 90.8395 130.189C90.9417 130.039 91.0344 129.876 91.1174 129.7C91.1904 129.545 91.256 129.38 91.3143 129.205C91.4743 128.726 91.5542 128.153 91.5542 127.492C91.5542 126.736 91.4689 126.102 91.2994 125.587C91.1285 125.073 90.8794 124.638 90.5513 124.283C90.2256 123.927 89.8324 123.68 89.3732 123.541C89.0314 123.438 88.536 123.387 87.8858 123.387ZM86.5788 130.083V124.751L87.2868 124.75C87.6824 124.75 87.9977 124.759 88.2333 124.778C88.3814 124.79 88.4981 124.807 88.5832 124.827C88.7223 124.858 88.8503 124.902 88.9669 124.961C89.0973 125.025 89.2135 125.107 89.3151 125.206C89.5064 125.391 89.6558 125.652 89.7631 125.986C89.8684 126.32 89.9231 126.796 89.9231 127.418C89.9231 127.663 89.9149 127.888 89.8983 128.093C89.8727 128.409 89.8274 128.676 89.7631 128.894C89.6558 129.254 89.519 129.515 89.3498 129.672C89.1807 129.83 88.9676 129.94 88.7126 130.006C88.5158 130.059 88.197 130.083 87.7568 130.083H86.5788Z" fill="white"/>
<path d="M94.6175 128.821L96.154 128.666C96.2111 128.998 96.3057 129.276 96.4377 129.497C96.4861 129.579 96.5394 129.652 96.598 129.719C96.6354 129.761 96.675 129.801 96.7167 129.838C96.9986 130.085 97.379 130.211 97.8597 130.211C98.3677 130.211 98.7517 130.101 99.0079 129.877C99.2666 129.655 99.3967 129.397 99.3967 129.101C99.3967 129 99.3813 128.908 99.3509 128.824C99.3237 128.748 99.2841 128.678 99.2322 128.615C99.2182 128.597 99.2028 128.58 99.186 128.563C99.172 128.549 99.157 128.535 99.1412 128.522C99.1236 128.506 99.1051 128.492 99.0852 128.477C99.0698 128.466 99.0537 128.455 99.0369 128.444C99.021 128.433 99.0046 128.423 98.9876 128.413C98.897 128.36 98.7892 128.311 98.664 128.266C98.4801 128.198 98.0577 128.083 97.4006 127.914C96.5548 127.698 95.9608 127.431 95.6202 127.117C95.1399 126.674 94.8993 126.134 94.8993 125.497C94.8993 125.086 95.0124 124.703 95.2381 124.346C95.4644 123.989 95.7894 123.717 96.2142 123.53C96.6402 123.344 97.1519 123.25 97.7526 123.25C98.7356 123.25 99.473 123.472 99.9701 123.914C100.465 124.358 100.725 124.949 100.751 125.69L99.1729 125.761C99.1056 125.347 98.9598 125.048 98.7375 124.869C98.5154 124.687 98.1823 124.597 97.7386 124.597C97.2792 124.597 96.9191 124.692 96.6605 124.887C96.4934 125.011 96.4095 125.178 96.4095 125.386C96.4095 125.578 96.488 125.741 96.6447 125.875C96.8426 126.048 97.3276 126.228 98.0956 126.414C98.8638 126.601 99.4318 126.794 99.7997 126.993C100.168 127.193 100.455 127.465 100.665 127.812C100.761 127.974 100.835 128.153 100.887 128.35C100.946 128.575 100.976 128.823 100.976 129.094C100.976 129.556 100.852 129.989 100.603 130.39C100.353 130.793 100.002 131.094 99.5467 131.289C99.0916 131.486 98.5232 131.583 97.8443 131.583C96.8561 131.583 96.0966 131.349 95.5671 130.878C95.0366 130.407 94.7197 129.721 94.6175 128.821Z" fill="white"/>
<path d="M101.799 123.387V131.441H103.377V123.387H101.799Z" fill="white"/>
<path d="M108.066 128.48V127.123H111.468V130.331C111.44 130.359 111.41 130.387 111.379 130.415L111.36 130.433C111.313 130.474 111.264 130.515 111.213 130.555C111.172 130.587 111.129 130.618 111.086 130.649C110.799 130.851 110.448 131.035 110.03 131.203C109.402 131.452 108.767 131.578 108.124 131.578C107.307 131.578 106.593 131.401 105.985 131.049C105.377 130.695 104.92 130.19 104.614 129.532C104.308 128.874 104.155 128.16 104.155 127.387C104.155 126.549 104.326 125.802 104.667 125.15C105.009 124.499 105.508 123.999 106.167 123.652C106.667 123.384 107.292 123.251 108.038 123.251C109.008 123.251 109.768 123.461 110.312 123.879C110.858 124.3 111.209 124.879 111.366 125.62L109.798 125.922C109.688 125.526 109.48 125.213 109.176 124.984C108.99 124.844 108.776 124.747 108.534 124.692C108.381 124.658 108.215 124.641 108.038 124.641C107.348 124.641 106.8 124.865 106.393 125.316C105.985 125.768 105.783 126.436 105.783 127.322C105.783 128.276 105.989 128.994 106.402 129.473C106.813 129.951 107.354 130.189 108.022 130.189C108.353 130.189 108.685 130.121 109.018 129.988C109.349 129.855 109.635 129.692 109.873 129.503V128.481L108.066 128.48Z" fill="white"/>
<path d="M112.483 123.387V131.441H113.951V126.188L117.102 131.441H118.688V123.387H117.22V128.765L114.02 123.387H112.483Z" fill="white"/>
<path d="M119.501 128.821L121.038 128.666C121.129 129.198 121.316 129.588 121.6 129.838C121.882 130.085 122.263 130.211 122.744 130.211C123.251 130.211 123.635 130.101 123.892 129.877C124.151 129.655 124.28 129.397 124.28 129.101C124.28 128.909 124.225 128.748 124.116 128.615C124.009 128.48 123.819 128.364 123.548 128.266C123.364 128.198 122.942 128.083 122.284 127.914C121.771 127.783 121.35 127.633 121.023 127.465C120.811 127.356 120.638 127.24 120.504 127.117C120.024 126.674 119.784 126.134 119.784 125.497C119.784 125.38 119.793 125.265 119.811 125.152C119.857 124.869 119.961 124.601 120.122 124.346C120.152 124.298 120.184 124.251 120.219 124.206C120.239 124.179 120.26 124.153 120.282 124.127C120.318 124.084 120.356 124.042 120.396 124.002C120.588 123.809 120.822 123.651 121.098 123.53C121.246 123.465 121.403 123.412 121.572 123.37C121.889 123.29 122.243 123.25 122.636 123.25C123.619 123.25 124.357 123.472 124.854 123.914C125.349 124.358 125.609 124.949 125.634 125.69L124.056 125.761C123.989 125.347 123.843 125.048 123.621 124.869C123.399 124.687 123.066 124.597 122.622 124.597C122.434 124.597 122.264 124.613 122.11 124.645C121.886 124.691 121.697 124.772 121.544 124.887C121.377 125.011 121.293 125.178 121.293 125.386C121.293 125.578 121.371 125.741 121.528 125.875C121.726 126.048 122.211 126.228 122.979 126.414C123.113 126.446 123.241 126.479 123.363 126.512L123.464 126.54C123.51 126.553 123.556 126.566 123.6 126.579C124.062 126.714 124.423 126.852 124.683 126.993C124.744 127.026 124.802 127.061 124.859 127.098C124.909 127.131 124.957 127.166 125.004 127.202L125.04 127.23C125.243 127.393 125.412 127.587 125.548 127.812C125.609 127.915 125.662 128.025 125.705 128.142C125.808 128.42 125.859 128.737 125.859 129.094C125.859 129.327 125.828 129.552 125.764 129.77C125.702 129.985 125.61 130.191 125.486 130.39C125.379 130.562 125.254 130.716 125.11 130.85C124.917 131.031 124.691 131.177 124.43 131.289C123.975 131.486 123.407 131.583 122.728 131.583C121.739 131.583 120.98 131.349 120.45 130.878C119.92 130.407 119.603 129.721 119.501 128.821Z" fill="white"/>
<path fill-rule="evenodd" clip-rule="evenodd" d="M134.238 131.441H135.957L132.825 123.387H131.156L128.11 131.441H129.785L130.429 129.611H133.555L134.238 131.441ZM131.972 125.266L133.049 128.255H130.916L131.972 125.266Z" fill="white"/>
<path d="M136.342 131.441V123.387H137.922V126.556H141.015V123.387H142.594V131.441H141.015V127.92H137.922V131.441H136.342Z" fill="white"/>
<path d="M143.771 123.387V131.441H149.717V130.083H145.35V127.891H149.275V126.536H145.35V124.751H149.568V123.387H143.771Z" fill="white"/>
<path fill-rule="evenodd" clip-rule="evenodd" d="M157.653 131.441H155.934L155.251 129.611H152.126L151.482 131.441H149.807L152.852 123.387H154.522L157.653 131.441ZM154.745 128.255L153.668 125.266L152.612 128.255H154.745Z" fill="white"/>
<path fill-rule="evenodd" clip-rule="evenodd" d="M160.915 123.387H158.029L158.03 131.441H160.999C161.404 131.441 161.751 131.414 162.043 131.359C162.172 131.335 162.29 131.305 162.397 131.27C162.724 131.162 163.003 131.025 163.235 130.858C163.334 130.786 163.424 130.709 163.506 130.626C163.87 130.265 164.148 129.79 164.343 129.205C164.503 128.726 164.583 128.153 164.583 127.492C164.583 126.736 164.498 126.102 164.329 125.587C164.227 125.282 164.099 125.006 163.942 124.757C163.835 124.586 163.714 124.428 163.58 124.283C163.255 123.927 162.861 123.68 162.402 123.541C162.061 123.438 161.565 123.387 160.915 123.387ZM159.608 130.083V124.751L160.316 124.75C160.682 124.75 160.98 124.758 161.209 124.775C161.383 124.787 161.517 124.804 161.612 124.827C161.907 124.893 162.152 125.018 162.344 125.206C162.536 125.391 162.685 125.652 162.792 125.986C162.898 126.32 162.953 126.796 162.953 127.418C162.953 128.041 162.898 128.535 162.792 128.894C162.73 129.103 162.658 129.279 162.575 129.42C162.515 129.522 162.45 129.606 162.379 129.672C162.21 129.83 161.997 129.94 161.742 130.006C161.613 130.041 161.431 130.063 161.196 130.074C161.074 130.08 160.937 130.083 160.786 130.083H159.608Z" fill="white"/>
</svg>
