<svg width="200" height="200" viewBox="0 0 200 200" fill="none" xmlns="http://www.w3.org/2000/svg">
<rect x="0.520833" y="-0.520833" width="126.042" height="176.042" rx="8.85417" transform="matrix(-1 0 0 1 163.542 12.501)" fill="white" stroke="#13141A" stroke-width="1.04167"/>
<rect x="-1.04167" y="1.04167" width="114.583" height="164.583" rx="3.125" transform="matrix(-1 0 0 1 156.25 16.6685)" fill="white" stroke="#13141A" stroke-width="2.08333"/>
<path d="M59.1218 37.3437L54.5769 36.0546C55.5554 31.4629 58.338 29.167 62.925 29.167C65.6393 29.167 67.6855 29.8981 69.0637 31.3603C70.4525 32.8096 71.1468 34.5155 71.1468 36.4779C71.1468 37.8246 70.8312 39.0431 70.2 40.1334C69.5687 41.2107 68.6219 42.1599 67.3594 42.9808C68.8954 43.6221 70.0474 44.5327 70.8154 45.7127C71.5834 46.8799 71.9674 48.3229 71.9674 50.0416C71.9674 52.517 71.2205 54.5179 69.7265 56.0442C68.2431 57.5705 66.018 58.3337 63.0512 58.3337C60.6315 58.3337 58.722 57.8463 57.3228 56.8715C55.9236 55.8839 54.8715 54.0433 54.1666 51.3498L58.4432 49.6375C58.8851 51.3306 59.469 52.4272 60.1949 52.9274C60.9314 53.4277 61.8361 53.6778 62.9092 53.6778C64.3821 53.6778 65.4552 53.293 66.1285 52.5234C66.8018 51.741 67.1385 50.8496 67.1385 49.8492C67.1385 48.6948 66.7545 47.7649 65.9865 47.0595C65.229 46.354 64.0823 46.0013 62.5463 46.0013H61.4889V41.7494H62.0255C63.4563 41.7494 64.5504 41.3583 65.3079 40.5759C66.0654 39.7935 66.4441 38.7545 66.4441 37.4591C66.4441 36.433 66.1338 35.5672 65.5131 34.8618C64.9029 34.1564 64.0244 33.8036 62.8777 33.8036C60.9208 33.8036 59.6689 34.9837 59.1218 37.3437Z" fill="black"/>
<path d="M74.9697 43.9235C74.9697 41.0504 75.3221 38.6391 76.027 36.6895C76.553 35.253 77.2684 33.964 78.1732 32.8224C79.0884 31.6809 80.0879 30.8344 81.1715 30.2829C82.6128 29.539 84.2751 29.167 86.1583 29.167C89.5669 29.167 92.2917 30.456 94.3327 33.0341C96.3842 35.6121 97.41 39.197 97.41 43.7888C97.41 48.3421 96.3947 51.9078 94.3643 54.4858C92.3338 57.051 89.6195 58.3337 86.2214 58.3337C82.7812 58.3337 80.0458 57.0575 78.0154 54.5051C75.9849 51.9398 74.9697 48.4126 74.9697 43.9235ZM79.7828 43.7311C79.7828 46.9248 80.3877 49.3489 81.5976 51.0035C82.8075 52.6453 84.3435 53.4661 86.2056 53.4661C88.0677 53.4661 89.5932 52.6517 90.782 51.0228C91.9814 49.381 92.5811 46.9248 92.5811 43.6541C92.5811 40.4219 91.9972 38.0106 90.8294 36.4202C89.6721 34.8297 88.1309 34.0345 86.2056 34.0345C84.2803 34.0345 82.7286 34.8426 81.5503 36.4587C80.372 38.0619 79.7828 40.4861 79.7828 43.7311Z" fill="black"/>
<path d="M101.359 57.8527V29.648H106.03V40.749H115.183V29.648H119.854V57.8527H115.183V45.5203H106.03V57.8527H101.359Z" fill="black"/>
<path d="M145.833 57.8527H140.752L138.732 51.446H129.484L127.575 57.8527H122.62L131.631 29.648H136.57L145.833 57.8527ZM137.233 46.6939L134.045 36.2278L130.92 46.6939H137.233Z" fill="black"/>
<circle cx="100" cy="118.751" r="44.0833" stroke="#FF0E00" stroke-width="7.66667"/>
<path d="M70.6119 89.3628L130.245 148.995" stroke="#FF0E00" stroke-width="7.66667" stroke-linecap="square"/>
<mask id="path-6-inside-1_0_754" fill="white">
<path fill-rule="evenodd" clip-rule="evenodd" d="M131.043 144.373C136.794 137.413 140.25 128.486 140.25 118.751C140.25 96.522 122.229 78.5015 99.9999 78.5015C90.2657 78.5015 81.3386 81.957 74.3783 87.7082L131.043 144.373ZM125.622 149.794C118.662 155.546 109.734 159.001 99.9999 159.001C77.7705 159.001 59.7499 140.981 59.7499 118.751C59.7499 109.017 63.2056 100.09 68.9571 93.1293L125.622 149.794Z"/>
</mask>
<path fill-rule="evenodd" clip-rule="evenodd" d="M131.043 144.373C136.794 137.413 140.25 128.486 140.25 118.751C140.25 96.522 122.229 78.5015 99.9999 78.5015C90.2657 78.5015 81.3386 81.957 74.3783 87.7082L131.043 144.373ZM125.622 149.794C118.662 155.546 109.734 159.001 99.9999 159.001C77.7705 159.001 59.7499 140.981 59.7499 118.751C59.7499 109.017 63.2056 100.09 68.9571 93.1293L125.622 149.794Z" fill="#1071AF"/>
<path d="M131.043 144.373L129.236 146.18L131.223 148.167L133.013 146.001L131.043 144.373ZM74.3783 87.7082L72.7504 85.7382L70.5841 87.5282L72.5712 89.5153L74.3783 87.7082ZM125.622 149.794L127.25 151.764L129.416 149.974L127.429 147.987L125.622 149.794ZM68.9571 93.1293L70.7641 91.3223L68.7771 89.3352L66.9871 91.5015L68.9571 93.1293ZM137.694 118.751C137.694 127.87 134.46 136.226 129.073 142.745L133.013 146.001C139.129 138.6 142.805 129.101 142.805 118.751H137.694ZM99.9999 81.057C120.818 81.057 137.694 97.9334 137.694 118.751H142.805C142.805 95.1106 123.641 75.9459 99.9999 75.9459V81.057ZM76.0061 89.6783C82.5253 84.2915 90.8815 81.057 99.9999 81.057V75.9459C89.6499 75.9459 80.1519 79.6224 72.7504 85.7382L76.0061 89.6783ZM72.5712 89.5153L129.236 146.18L132.85 142.566L76.1853 85.9012L72.5712 89.5153ZM123.994 147.824C117.475 153.211 109.119 156.446 99.9999 156.446V161.557C110.35 161.557 119.848 157.88 127.25 151.764L123.994 147.824ZM99.9999 156.446C79.1818 156.446 62.3055 139.57 62.3055 118.751H57.1944C57.1944 142.392 76.3591 161.557 99.9999 161.557V156.446ZM62.3055 118.751C62.3055 109.633 65.5401 101.276 70.9271 94.7572L66.9871 91.5015C60.8711 98.903 57.1944 108.401 57.1944 118.751H62.3055ZM127.429 147.987L70.7641 91.3223L67.15 94.9364L123.815 151.601L127.429 147.987Z" fill="white" mask="url(#path-6-inside-1_0_754)"/>
</svg>
