<svg width="200" height="201" viewBox="0 0 200 201" fill="none" xmlns="http://www.w3.org/2000/svg">
<rect x="36.9786" y="12.318" width="126.04" height="176.039" rx="8.85404" fill="white" stroke="#13141A" stroke-width="1.04165"/>
<rect x="41.6661" y="17.0088" width="116.665" height="166.664" rx="4.16661" fill="#1071AF"/>
<rect x="49.9993" y="33.6743" width="99.9985" height="99.9985" rx="4.16661" fill="white"/>
<path d="M100.006 42.0068C94.2627 42.0068 89.582 46.6868 89.582 52.4306C89.582 58.1741 94.2623 62.8408 100.006 62.8408C105.748 62.8408 110.416 58.1741 110.416 52.4306C110.416 46.6868 105.748 42.0068 100.006 42.0068ZM100.006 43.6746C104.845 43.6746 108.748 47.5898 108.748 52.4306C108.748 57.2711 104.845 61.1723 100.006 61.1723C95.1651 61.1723 91.2494 57.2704 91.2494 52.4306C91.2494 47.5898 95.1651 43.6746 100.006 43.6746ZM94.7905 47.8926V50.7344H98.3245V58.4519H101.553V50.7344H105.207V47.8926H94.7905Z" fill="black"/>
<path fill-rule="evenodd" clip-rule="evenodd" d="M81.5679 77.9405L76.4888 92.1231H74.7211C72.5734 92.1231 70.8323 93.891 70.8323 96.0718V109.892C70.8323 112.073 72.5734 113.841 74.7211 113.841H75.6933V120.751C75.6933 122.932 77.4344 124.7 79.5821 124.7H82.4988C84.6465 124.7 86.3876 122.932 86.3876 120.751V113.841H113.609V120.751C113.609 122.932 115.351 124.7 117.498 124.7H120.415C122.563 124.7 124.304 122.932 124.304 120.751V113.841H125.276C127.424 113.841 129.165 112.073 129.165 109.892V96.0718C129.165 93.891 127.424 92.1231 125.276 92.1231H123.508L118.429 77.9405C117.87 76.3801 116.41 75.3413 114.774 75.3413H85.2226C83.5873 75.3413 82.1268 76.3801 81.5679 77.9405ZM85.9036 80.2771L81.6612 92.1231H118.336L114.093 80.2771H85.9036ZM86.3876 102.982C86.3876 105.163 84.6465 106.931 82.4988 106.931C80.351 106.931 78.6099 105.163 78.6099 102.982C78.6099 100.801 80.351 99.0333 82.4988 99.0333C84.6465 99.0333 86.3876 100.801 86.3876 102.982ZM117.498 106.931C119.646 106.931 121.387 105.163 121.387 102.982C121.387 100.801 119.646 99.0333 117.498 99.0333C115.351 99.0333 113.609 100.801 113.609 102.982C113.609 105.163 115.351 106.931 117.498 106.931Z" fill="black"/>
<path d="M91.6653 70.1323H108.332V75.3408H91.6653V70.1323Z" fill="black"/>
<path fill-rule="evenodd" clip-rule="evenodd" d="M67.0841 48.2583H62.4991V52.8432H67.0814V57.4261H71.6662V52.8436H76.2499V57.4261H80.8346V52.8437H85.4188V48.2589H80.8341V52.8412H76.2501V48.2587H71.6652V52.8412H67.0841V48.2583Z" fill="black"/>
<path fill-rule="evenodd" clip-rule="evenodd" d="M119.167 48.2583H114.582V52.8432H119.164V57.4261H123.749V52.8436H128.332V57.4261H132.917V52.8437H137.501V48.2589H132.917V52.8412H128.333V48.2587H123.748V52.8412H119.167V48.2583Z" fill="black"/>
</svg>
