<svg width="200" height="200" viewBox="0 0 200 200" fill="none" xmlns="http://www.w3.org/2000/svg">
<path d="M0 16.6665H200V95.8332H0V16.6665Z" fill="#68696C"/>
<path d="M0 104.167H200V183.333H0V104.167Z" fill="#68696C"/>
<path d="M78.7246 120.833L70.9677 131.794L78.7246 142.754V136.606L86.9663 142.252L86.9663 154.71H82.1182V151.721H78.2398V163.678H82.1182V160.689H86.9663V166.667H89.8752L89.8751 136.223L78.7246 128.584V120.833Z" fill="white"/>
<path d="M119.2 131.794L111.443 120.833V128.584L100.292 136.223L100.292 166.667H103.201L103.201 160.689H108.049V163.678H111.927V151.721H108.049V154.71H103.201L103.201 142.252L111.443 136.606V142.754L119.2 131.794Z" fill="white"/>
<path d="M23.4711 114.605L17.6538 130.546H22.0168V146.176L16.1995 142.191V134.441L8.44312 145.4L16.1995 156.36V150.212L22.0168 154.197L22.0214 163.023H17.1732V160.034H13.2954V171.991H17.1732V169.002H22.0214V172.896H24.9307L24.9255 130.546H29.2884L23.4711 114.605Z" fill="white"/>
<path d="M143.568 121.157C138.27 121.157 133.975 125.451 133.975 130.749V150.404H129.616L135.434 166.345L141.251 150.404H136.892V132.832C136.892 129.146 139.881 126.157 143.568 126.157C147.254 126.157 150.243 129.146 150.243 132.832V165.106H153.16V130.749C153.16 125.451 148.865 121.157 143.568 121.157Z" fill="white"/>
<path d="M45.523 114.605L51.3403 130.546H46.9773V146.176L52.7946 142.191V134.441L60.551 145.4L52.7946 156.36V150.212L46.9773 154.197L46.9727 163.023H51.821V160.034H55.6987V171.991H51.821V169.002H46.9727V172.896H44.0634L44.0687 130.546H39.7057L45.523 114.605Z" fill="white"/>
<path d="M185.74 115.617L191.557 131.558H187.194L187.193 170.646H184.276V150.873C184.276 147.186 181.287 144.197 177.601 144.197C173.914 144.197 170.925 147.186 170.925 150.873V155.944H175.211L169.393 171.885L163.576 155.944H168.008V148.789C168.008 143.492 172.303 139.197 177.601 139.197C180.2 139.197 182.558 140.231 184.285 141.91V131.558H179.922L185.74 115.617Z" fill="white"/>
<path d="M162.324 33.3335L154.568 44.2937L162.324 55.2538V49.1056L170.566 54.7517L170.566 79.1668H173.475L173.475 54.7517L181.717 49.1056V55.2538L189.474 44.2937L181.717 33.3335V41.0839L172.021 47.7265L162.324 41.0839V33.3335Z" fill="white"/>
<path d="M17.1626 33.3335L22.9799 49.2745H18.617V79.1639H15.7083V49.2745H11.3453L17.1626 33.3335Z" fill="white"/>
<path d="M132.516 49.2745L138.333 33.3335L144.151 49.2745H139.788V79.1639H136.879V75.0087L131.062 71.0235V77.1713L123.305 66.2118L131.062 55.2524V63.0023L136.879 66.9876V49.2745H132.516Z" fill="white"/>
<path d="M97.8603 33.3335L103.678 49.2745H99.3146V66.9876L105.132 63.0023V55.2524L112.888 66.2118L105.132 77.1713V71.0235L99.3146 75.0087V79.1639H96.4059V49.2745H92.043L97.8603 33.3335Z" fill="white"/>
<path d="M44.5464 33.3335L52.3028 44.2929L44.5464 55.2524V49.1046L36.3052 54.7504L36.3051 79.1638H33.3965L33.3965 48.7219L44.5464 41.0834V33.3335Z" fill="white"/>
<path d="M62.7198 44.2929L70.4763 33.3335V41.0834L81.6261 48.7219L81.6261 79.1638H78.7175L78.7174 54.7504L70.4763 49.1046V55.2524L62.7198 44.2929Z" fill="white"/>
</svg>
