<svg width="200" height="201" viewBox="0 0 200 201" fill="none" xmlns="http://www.w3.org/2000/svg">
<path d="M25.6863 169.937H174.314C181.678 169.937 186.263 161.964 182.525 155.635L108.211 29.8225C104.527 23.5859 95.4727 23.5859 91.7889 29.8225L17.4753 155.635C13.7367 161.964 18.3214 169.937 25.6863 169.937Z" fill="#FF0E00" stroke="black" stroke-width="1.04167"/>
<path d="M174.314 167.333H25.6863C20.3188 167.333 17.0139 161.536 19.7175 156.959L94.0312 31.1469C96.707 26.6167 103.293 26.6167 105.969 31.1469L180.282 156.959C182.986 161.536 179.681 167.333 174.314 167.333Z" fill="#FF0E00" stroke="white" stroke-width="4.16667"/>
<path fill-rule="evenodd" clip-rule="evenodd" d="M164.062 154.834L99.9999 46.0968L35.9374 154.834H164.062Z" fill="#FFE600"/>
<path d="M83.3893 100.77C81.526 100.644 80.1419 102.13 78.7407 103.648L75.4549 108.024L73.9254 110.072C72.1244 109.437 70.2966 110.581 69.8165 112.208L66.8025 121.506C66.3224 123.132 67.0772 124.978 68.8324 125.475L72.9137 126.78L90.374 132.403L100.692 135.742L105.794 137.373C107.61 137.879 109.489 136.874 109.85 135.167L112.97 126.009C113.506 124.455 112.618 122.599 111.026 121.863L110.6 113.916C110.476 111.946 110.123 109.297 107.885 108.538L104.524 107.457L94.1975 104.178L84.18 100.939C83.8917 100.852 83.656 100.788 83.3893 100.77ZM85.0336 104.813C85.3885 104.809 85.7463 104.873 86.1324 105.024L93.7423 107.558L103.77 110.732C103.889 110.813 104.005 110.824 104.061 110.897C105.743 111.45 105.807 112.727 105.942 113.657L106.188 117.384C106.084 118.151 105.428 120.301 103.562 119.659L102.902 119.444L92.5843 116.105L81.0088 112.344C79.0716 111.757 79.0959 110.117 79.8013 109.237L82.4904 106.032C83.0582 105.427 83.9679 104.82 85.0336 104.813ZM69.7732 126.853L68.0724 132.009C67.6528 133.188 68.1671 134.203 69.3463 134.623L71.7314 135.51L72.5137 135.741C73.6938 136.162 74.6887 135.331 75.1092 134.152L76.7484 128.989L72.7735 127.824L69.7732 126.853ZM97.5077 135.683L95.8526 140.97C95.4321 142.149 95.8821 143.161 97.1434 143.461L99.5275 144.348L100.311 144.58C101.38 144.855 102.416 144.222 102.835 143.043L104.545 137.827L100.569 136.662L97.5077 135.683Z" fill="black"/>
<path d="M42.708 151.709L51.4377 136.868L59.4965 135.629C63.7168 134.98 68.0321 135.791 71.729 137.927L76.4795 140.673C79.1005 142.188 82.0493 143.046 85.0738 143.173L89.6187 143.364C91.8068 143.456 93.9371 144.094 95.8157 145.219C99.9234 147.681 105.045 147.711 109.181 145.298L114.229 142.354C117.24 140.597 120.985 140.693 123.902 142.601C126.725 144.448 130.332 144.602 133.302 143.003L135.224 141.968C138.178 140.377 141.637 140.003 144.863 140.925L152.053 142.979L157.291 151.709H42.708Z" fill="black"/>
</svg>
