<svg width="200" height="201" viewBox="0 0 200 201" fill="none" xmlns="http://www.w3.org/2000/svg">
<rect x="198.438" y="73.0632" width="55.2083" height="196.875" rx="8.85417" transform="rotate(90 198.438 73.0632)" fill="white" stroke="#13141A" stroke-width="1.04167"/>
<rect x="193.75" y="77.751" width="45.8333" height="187.5" rx="4.16667" transform="rotate(90 193.75 77.751)" fill="#1071AF"/>
<path fill-rule="evenodd" clip-rule="evenodd" d="M136.39 88.7694C136.112 89.4654 135.973 90.3262 135.973 91.3518C135.973 92.9544 136.373 94.2136 137.174 95.1293C137.975 96.0405 139.054 96.4961 140.41 96.4961C141.751 96.4961 142.821 96.0382 143.622 95.1224C144.423 94.2021 144.823 92.9292 144.823 91.3038C144.823 89.6646 144.419 88.3848 143.609 87.4645C142.804 86.5441 141.73 86.084 140.385 86.084C139.643 86.084 138.987 86.2168 138.419 86.4823C137.991 86.6792 137.597 86.9814 137.236 87.3889C136.879 87.7964 136.597 88.2566 136.39 88.7694ZM138.587 93.8793C138.11 93.2887 137.871 92.4233 137.871 91.2832C137.871 90.1247 138.103 89.2594 138.568 88.687C139.033 88.1101 139.645 87.8216 140.404 87.8216C141.163 87.8216 141.771 88.1055 142.228 88.6733C142.688 89.241 142.919 90.1018 142.919 91.2557C142.919 92.4233 142.682 93.3001 142.209 93.8862C141.74 94.4677 141.139 94.7584 140.404 94.7584C139.67 94.7584 139.064 94.4654 138.587 93.8793Z" fill="white"/>
<path d="M78.0903 86.2557H70.8333V96.3244H72.6755V87.9452H76.2481V96.3244H78.0903V86.2557Z" fill="white"/>
<path d="M87.0154 86.2557H80.6235V92.0043L80.6297 93.7351C80.6297 94.1838 80.5633 94.4654 80.4305 94.5799C80.2977 94.6943 80.0384 94.7516 79.6525 94.7516L79.2418 94.7447V96.3175C79.8102 96.3633 80.2023 96.3862 80.4181 96.3862C81.0322 96.3862 81.4824 96.2511 81.7687 95.981C82.0591 95.7062 82.2417 95.3262 82.3164 94.8409C82.391 94.3509 82.4284 93.4901 82.4284 92.2584V87.959H85.1731V96.3244H87.0154V86.2557Z" fill="white"/>
<path fill-rule="evenodd" clip-rule="evenodd" d="M97.1479 96.3244H95.1438L94.3472 94.0373H90.7L89.9469 96.3244H87.9926L91.5464 86.2557H93.4945L97.1479 96.3244ZM93.7559 92.3409L92.4987 88.6046L91.2663 92.3409H93.7559Z" fill="white"/>
<path d="M99.5504 87.959V96.3244H101.393V87.959H104.094V86.2557H96.843V87.959H99.5504Z" fill="white"/>
<path d="M105.295 96.3244V86.2557H107.137V90.2186H110.747V86.2557H112.589V96.3244H110.747V91.9219H107.137V96.3244H105.295Z" fill="white"/>
<path fill-rule="evenodd" clip-rule="evenodd" d="M120.724 96.3244H122.728L119.075 86.2557H117.127L113.573 96.3244H115.527L116.28 94.0373H119.927L120.724 96.3244ZM118.079 88.6046L119.336 92.3409H116.847L118.079 88.6046Z" fill="white"/>
<path fill-rule="evenodd" clip-rule="evenodd" d="M127.994 86.2557H134.298V94.6348H135.101V98.5222H133.57V96.3244H127.826V98.5222H126.294V94.6348H127.066C127.444 93.774 127.693 92.7758 127.813 91.6403C127.933 90.5002 127.994 89.0602 127.994 87.3202V86.2557ZM129.749 87.9452C129.749 91.0039 129.498 93.2337 128.996 94.6348H132.462V87.9452H129.749Z" fill="white"/>
<path fill-rule="evenodd" clip-rule="evenodd" d="M146.267 96.3244V86.2557H149.223C150.344 86.2557 151.074 86.3061 151.414 86.4068C151.937 86.5579 152.375 86.8876 152.727 87.3958C153.08 87.8995 153.256 88.5519 153.256 89.3532C153.256 89.9713 153.155 90.491 152.951 90.9123C152.748 91.3335 152.489 91.6655 152.174 91.9082C151.862 92.1463 151.545 92.3042 151.221 92.3821C150.781 92.4782 150.145 92.5263 149.311 92.5263H148.109V96.3244H146.267ZM148.109 87.959V90.8161H149.118C149.844 90.8161 150.329 90.7635 150.574 90.6582C150.819 90.5528 151.01 90.388 151.147 90.1637C151.288 89.9393 151.358 89.6783 151.358 89.3807C151.358 89.0144 151.261 88.7122 151.066 88.4741C150.871 88.236 150.624 88.0872 150.325 88.0277C150.105 87.9819 149.663 87.959 148.999 87.959H148.109Z" fill="white"/>
<path fill-rule="evenodd" clip-rule="evenodd" d="M154.638 88.7694C154.36 89.4654 154.221 90.3262 154.221 91.3518C154.221 92.9544 154.622 94.2136 155.422 95.1293C156.223 96.0405 157.302 96.4961 158.659 96.4961C159.999 96.4961 161.07 96.0382 161.87 95.1224C162.671 94.2021 163.072 92.9292 163.072 91.3038C163.072 89.6646 162.667 88.3848 161.858 87.4645C161.053 86.5441 159.978 86.084 158.634 86.084C157.891 86.084 157.236 86.2168 156.667 86.4823C156.24 86.6792 155.846 86.9814 155.485 87.3889C155.128 87.7964 154.846 88.2566 154.638 88.7694ZM156.835 93.8793C156.358 93.2887 156.119 92.4233 156.119 91.2832C156.119 90.1247 156.352 89.2594 156.817 88.687C157.281 88.1101 157.893 87.8216 158.653 87.8216C159.412 87.8216 160.02 88.1055 160.476 88.6733C160.937 89.241 161.167 90.1018 161.167 91.2557C161.167 92.4233 160.931 93.3001 160.458 93.8862C159.989 94.4677 159.387 94.7584 158.653 94.7584C157.918 94.7584 157.312 94.4654 156.835 93.8793Z" fill="white"/>
<path d="M164.609 86.2557H170.789V87.9452H166.451V96.3244H164.609V86.2557Z" fill="white"/>
<path fill-rule="evenodd" clip-rule="evenodd" d="M177.162 96.3244H179.167L175.513 86.2557H173.565L170.011 96.3244H171.966L172.719 94.0373H176.366L177.162 96.3244ZM174.517 88.6046L175.775 92.3409H173.285L174.517 88.6046Z" fill="white"/>
<path fill-rule="evenodd" clip-rule="evenodd" d="M96.7455 107.524C96.4675 108.22 96.3285 109.081 96.3285 110.106C96.3285 111.709 96.7289 112.968 97.5297 113.884C98.3305 114.795 99.4093 115.251 100.766 115.251C102.106 115.251 103.177 114.793 103.978 113.877C104.778 112.957 105.179 111.684 105.179 110.058C105.179 108.419 104.774 107.139 103.965 106.219C103.16 105.299 102.086 104.839 100.741 104.839C99.9985 104.839 99.3429 104.971 98.7744 105.237C98.3471 105.434 97.9529 105.736 97.5919 106.144C97.2351 106.551 96.9529 107.011 96.7455 107.524ZM98.9425 112.634C98.4653 112.043 98.2267 111.178 98.2267 110.038C98.2267 108.879 98.4591 108.014 98.9238 107.442C99.3885 106.865 100.001 106.576 100.76 106.576C101.519 106.576 102.127 106.86 102.583 107.428C103.044 107.996 103.274 108.856 103.274 110.01C103.274 111.178 103.038 112.055 102.565 112.641C102.096 113.222 101.494 113.513 100.76 113.513C100.025 113.513 99.4197 113.22 98.9425 112.634Z" fill="white"/>
<path d="M91.2 106.714V115.079H93.0422V106.714H95.7434V105.01H88.4926V106.714H91.2Z" fill="white"/>
<path d="M106.673 115.079V105.093H108.515V113.383H113.096V115.079H106.673Z" fill="white"/>
<path d="M114.465 105.093V115.079H120.888V113.383H116.307V105.093H114.465Z" fill="white"/>
<path fill-rule="evenodd" clip-rule="evenodd" d="M125.525 115.079V105.01H129.402C130.377 105.01 131.085 105.102 131.525 105.285C131.969 105.464 132.323 105.784 132.589 106.247C132.854 106.709 132.987 107.238 132.987 107.833C132.987 108.589 132.786 109.214 132.384 109.708C131.981 110.198 131.379 110.507 130.579 110.635C130.977 110.892 131.305 111.173 131.562 111.48C131.823 111.787 132.174 112.332 132.614 113.115L133.728 115.079H131.525L130.193 112.888C129.72 112.105 129.396 111.613 129.222 111.411C129.048 111.205 128.863 111.066 128.668 110.992C128.473 110.915 128.164 110.876 127.741 110.876H127.367V115.079H125.525ZM127.367 109.269H128.73C129.614 109.269 130.166 109.227 130.386 109.145C130.606 109.062 130.778 108.921 130.902 108.719C131.027 108.518 131.089 108.266 131.089 107.964C131.089 107.625 131.006 107.352 130.84 107.146C130.678 106.936 130.448 106.803 130.149 106.748C130 106.725 129.552 106.714 128.805 106.714H127.367V109.269Z" fill="white"/>
<path fill-rule="evenodd" clip-rule="evenodd" d="M134.774 107.524C134.496 108.22 134.357 109.081 134.357 110.106C134.357 111.709 134.757 112.968 135.558 113.884C136.359 114.795 137.437 115.251 138.794 115.251C140.134 115.251 141.205 114.793 142.006 113.877C142.807 112.957 143.207 111.684 143.207 110.058C143.207 108.419 142.802 107.139 141.993 106.219C141.188 105.299 140.114 104.839 138.769 104.839C138.027 104.839 137.371 104.971 136.803 105.237C136.375 105.434 135.981 105.736 135.62 106.144C135.263 106.551 134.981 107.011 134.774 107.524ZM136.971 112.634C136.493 112.043 136.255 111.178 136.255 110.038C136.255 108.879 136.487 108.014 136.952 107.442C137.417 106.865 138.029 106.576 138.788 106.576C139.547 106.576 140.155 106.86 140.612 107.428C141.072 107.996 141.302 108.856 141.302 110.01C141.302 111.178 141.066 112.055 140.593 112.641C140.124 113.222 139.522 113.513 138.788 113.513C138.054 113.513 137.448 113.22 136.971 112.634Z" fill="white"/>
<path fill-rule="evenodd" clip-rule="evenodd" d="M152.879 115.079H150.875L150.078 112.792H146.431L145.678 115.079H143.724L147.277 105.01H149.225L152.879 115.079ZM149.487 111.095L148.23 107.359L146.997 111.095H149.487Z" fill="white"/>
<path fill-rule="evenodd" clip-rule="evenodd" d="M157.223 105.01H153.856V115.079H157.323C158.003 115.079 158.547 115.008 158.953 114.866C159.497 114.674 159.928 114.406 160.248 114.062C160.671 113.609 160.997 113.016 161.225 112.284C161.412 111.684 161.505 110.97 161.505 110.141C161.505 109.198 161.406 108.405 161.206 107.764C161.007 107.119 160.717 106.574 160.335 106.13C159.953 105.686 159.495 105.377 158.96 105.203C158.561 105.074 157.982 105.01 157.223 105.01ZM155.698 113.383V106.714H156.526C157.277 106.714 157.781 106.746 158.038 106.81C158.383 106.892 158.667 107.05 158.891 107.284C159.115 107.517 159.289 107.842 159.414 108.259C159.538 108.676 159.601 109.273 159.601 110.051C159.601 110.83 159.538 111.446 159.414 111.899C159.289 112.348 159.128 112.671 158.929 112.867C158.733 113.064 158.487 113.204 158.188 113.286C157.96 113.35 157.588 113.383 157.074 113.383H155.698Z" fill="white"/>
<rect x="18.75" y="81.918" width="37.5" height="37.5" rx="2.08333" fill="white"/>
<path d="M26.3888 84H48.611L54.1666 117.333H20.8333L26.3888 84Z" fill="black"/>
<path d="M36.6862 84H38.3219L38.4427 90.3131H36.5641L36.6862 84Z" fill="white"/>
<path d="M36.5151 92.842H38.4911L38.6806 102.746H36.3235L36.5151 92.842Z" fill="white"/>
<path d="M36.2551 106.283L36.0413 117.333H38.9597L38.7483 106.283H36.2551Z" fill="white"/>
<circle cx="29.1453" cy="110.684" r="4.9469" fill="white"/>
<circle cx="45.462" cy="106.286" r="4.9469" fill="white"/>
<path d="M27.4679 111.817L28.4212 111.719C28.4485 111.934 28.529 112.106 28.663 112.233C28.7969 112.358 28.9512 112.42 29.126 112.42C29.3257 112.42 29.4948 112.339 29.6333 112.178C29.7718 112.015 29.841 111.77 29.841 111.443C29.841 111.136 29.7718 110.907 29.6333 110.755C29.4971 110.601 29.3189 110.524 29.0988 110.524C28.8241 110.524 28.5778 110.645 28.3599 110.888L27.5837 110.776L28.0739 108.178H30.6037V109.073H28.7991L28.6493 109.921C28.8627 109.814 29.0806 109.761 29.303 109.761C29.7275 109.761 30.0873 109.915 30.3823 110.224C30.6774 110.533 30.825 110.933 30.825 111.426C30.825 111.837 30.7058 112.203 30.4675 112.526C30.1429 112.966 29.6923 113.186 29.1158 113.186C28.655 113.186 28.2794 113.062 27.9888 112.815C27.6983 112.568 27.5246 112.235 27.4679 111.817Z" fill="black"/>
<path d="M44.433 108.747H43.4763V105.142C43.1267 105.468 42.7147 105.71 42.2404 105.867V104.999C42.49 104.917 42.7613 104.762 43.0541 104.535C43.3469 104.306 43.5478 104.04 43.6567 103.735H44.433V108.747Z" fill="black"/>
<path d="M47.0653 103.735C47.5487 103.735 47.9267 103.908 48.1991 104.253C48.5236 104.661 48.6859 105.339 48.6859 106.285C48.6859 107.23 48.5225 107.908 48.1956 108.322C47.9255 108.662 47.5487 108.832 47.0653 108.832C46.5795 108.832 46.188 108.646 45.8906 108.274C45.5933 107.899 45.4446 107.233 45.4446 106.275C45.4446 105.336 45.608 104.659 45.9349 104.246C46.205 103.906 46.5818 103.735 47.0653 103.735ZM47.0653 104.529C46.9495 104.529 46.8462 104.566 46.7554 104.641C46.6646 104.714 46.5943 104.845 46.5443 105.036C46.4785 105.283 46.4456 105.7 46.4456 106.285C46.4456 106.871 46.4751 107.274 46.5341 107.494C46.5932 107.712 46.6669 107.857 46.7554 107.93C46.8462 108.003 46.9495 108.039 47.0653 108.039C47.181 108.039 47.2843 108.003 47.3751 107.93C47.4659 107.855 47.5363 107.722 47.5862 107.532C47.652 107.286 47.6849 106.871 47.6849 106.285C47.6849 105.7 47.6554 105.298 47.5964 105.08C47.5374 104.86 47.4625 104.714 47.3717 104.641C47.2832 104.566 47.181 104.529 47.0653 104.529Z" fill="black"/>
</svg>
