<svg width="200" height="201" viewBox="0 0 200 201" fill="none" xmlns="http://www.w3.org/2000/svg">
<circle cx="100" cy="100.668" r="82.8125" fill="white" stroke="#05081B" stroke-width="1.04167"/>
<path d="M56.25 115.134L68.0493 113.924C68.3865 116.568 69.3838 118.669 71.0413 120.228C72.6988 121.759 74.6092 122.524 76.7724 122.524C79.2446 122.524 81.3376 121.536 83.0513 119.56C84.765 117.556 85.6219 114.55 85.6219 110.542C85.6219 106.784 84.765 103.973 83.0513 102.108C81.3657 100.216 79.1604 99.2693 76.4353 99.2693C73.0359 99.2693 69.9878 100.758 67.2908 103.737L57.6828 102.359L63.751 70.5035H95.0613V81.4838H72.7269L70.8727 91.8796C73.5135 90.5714 76.2105 89.9173 78.9637 89.9173C84.2172 89.9173 88.67 91.81 92.3222 95.5953C95.9744 99.3807 97.8005 104.293 97.8005 110.333C97.8005 115.371 96.3255 119.866 93.3757 123.818C89.3583 129.218 83.7817 131.918 76.646 131.918C70.943 131.918 66.2935 130.401 62.6975 127.367C59.1015 124.333 56.9524 120.256 56.25 115.134Z" fill="#8F8F8F"/>
<path d="M123.691 69.418C129.675 69.418 134.353 71.5333 137.724 75.764C141.741 80.774 143.75 89.0823 143.75 100.689C143.75 112.268 141.727 120.59 137.682 125.655C134.339 129.83 129.675 131.918 123.691 131.918C117.679 131.918 112.833 129.636 109.153 125.071C105.472 120.478 103.632 112.309 103.632 100.564C103.632 89.0406 105.655 80.7462 109.701 75.6805C113.044 71.5055 117.707 69.418 123.691 69.418ZM123.691 79.1458C122.258 79.1458 120.98 79.605 119.856 80.5235C118.733 81.4142 117.862 83.0285 117.244 85.3665C116.429 88.4004 116.022 93.5078 116.022 100.689C116.022 107.87 116.387 112.81 117.117 115.51C117.848 118.182 118.761 119.964 119.856 120.854C120.98 121.745 122.258 122.19 123.691 122.19C125.124 122.19 126.402 121.745 127.526 120.854C128.65 119.936 129.521 118.307 130.139 115.969C130.953 112.963 131.361 107.87 131.361 100.689C131.361 93.5078 130.996 88.5813 130.265 85.9093C129.535 83.2094 128.608 81.4142 127.484 80.5235C126.388 79.605 125.124 79.1458 123.691 79.1458Z" fill="#8F8F8F"/>
<circle cx="100" cy="100.668" r="77.0834" stroke="black" stroke-width="2.08333"/>
<path d="M37.5001 147.18L146.512 38.168L147.986 39.6411L38.9732 148.653L37.5001 147.18Z" fill="black"/>
<path d="M41.1829 150.863L150.195 41.8508L151.668 43.324L42.6561 152.336L41.1829 150.863Z" fill="black"/>
<path d="M153.878 45.5337L44.8658 154.546L46.3389 156.019L155.351 47.0068L153.878 45.5337Z" fill="black"/>
<path d="M48.5486 158.229L157.561 49.2165L159.034 50.6897L50.0218 159.702L48.5486 158.229Z" fill="black"/>
<path d="M161.244 52.8994L52.2315 161.912L53.7046 163.385L162.717 54.3725L161.244 52.8994Z" fill="black"/>
</svg>
