<svg width="200" height="201" viewBox="0 0 200 201" fill="none" xmlns="http://www.w3.org/2000/svg">
<circle cx="100" cy="100.669" r="82.8125" fill="white" stroke="#05081B" stroke-width="1.04167"/>
<path fill-rule="evenodd" clip-rule="evenodd" d="M123.64 114.63L134.845 115.479C136.203 115.649 137.222 114.8 137.222 113.441C137.392 112.083 136.543 111.234 135.185 111.065L122.961 110.214C122.792 108.183 123.636 106.193 124.525 104.098C125.418 101.992 126.357 99.7795 126.357 97.3116C126.527 91.2005 120.924 86.2763 116.34 86.6159C101.229 88.1435 91.4676 88.653 82.4693 86.9556L78.5651 80.0775V73.4559C78.5651 71.5887 77.0366 70.0611 75.1703 70.0611C73.3031 70.0611 71.7737 71.5887 71.7737 73.4559V74.305L69.7375 72.4378C65.8314 69.212 56.6688 65.1735 54.9604 66.712C55.386 67.4826 55.6044 67.9713 55.7805 68.3653C56.1663 69.2283 56.3489 69.6368 58.0603 71.5595C56.985 74.561 54.4058 78.2967 52.1797 81.5208L52.1797 81.5208C50.7748 83.5556 49.5106 85.3866 48.8538 86.7009C47.4961 89.7569 50.8151 91.2552 52.5892 91.625C53.3354 91.7805 54.5697 90.8958 55.9467 89.9089C57.8604 88.5373 60.0497 86.9681 61.5875 87.7189C65.2746 89.5197 65.7101 98.3396 65.9383 102.963C66.0217 104.653 66.0775 105.782 66.2542 105.803L62.0102 105.293C60.6516 105.293 59.6326 105.973 59.6326 107.331C59.4619 108.689 60.311 109.708 61.6687 109.708L63.5369 109.878L59.2929 113.782C57.0861 115.651 56.4058 118.027 58.6127 121.254L67.4421 133.646C69.649 136.872 74.2326 132.12 72.1955 128.723L66.4231 118.537L72.8748 111.236C72.8748 111.407 73.0437 111.407 73.0437 111.407L79.6653 133.646C80.3437 135.345 81.8722 136.195 83.9092 135.684V135.513C85.6066 135.004 86.6265 133.645 86.1161 131.439L80.3437 112.254C89.342 113.272 98.6799 113.781 108.358 113.781L104.452 130.931C104.114 132.967 105.133 134.665 106.83 135.004H107.17C108.868 135.345 110.566 134.326 110.905 132.627L115.32 113.951L116.339 114.121L120.074 132.796C120.584 136.194 127.205 135.004 126.695 131.779L123.64 114.63ZM145.88 96.6335C142.824 96.6335 140.448 99.0103 140.448 102.067V110.895C141.976 110.215 143.673 110.046 145.372 110.046C152.332 110.046 157.597 114.97 157.936 121.93H167.765V96.6335H145.88ZM134.337 122.948C134.337 116.837 138.921 112.252 145.033 112.252C151.145 112.252 155.729 116.836 155.73 122.948C155.73 129.06 151.145 133.644 145.033 133.644C138.921 133.644 134.337 129.06 134.337 122.948ZM139.94 122.948C139.94 125.834 142.147 128.042 145.033 128.042C147.92 128.042 150.127 125.834 150.127 122.948C150.127 120.063 147.92 117.854 145.033 117.854C142.147 117.854 139.94 120.063 139.94 122.948Z" fill="black"/>
<path d="M134.845 115.479L134.847 115.462L134.846 115.462L134.845 115.479ZM123.64 114.63L123.642 114.612L123.619 114.611L123.623 114.633L123.64 114.63ZM137.222 113.441L137.205 113.439V113.441H137.222ZM135.185 111.065L135.187 111.048L135.187 111.048L135.185 111.065ZM122.961 110.214L122.944 110.216L122.945 110.23L122.96 110.232L122.961 110.214ZM124.525 104.098L124.509 104.091L124.525 104.098ZM126.357 97.3116L126.339 97.3111V97.3116H126.357ZM116.34 86.6159L116.338 86.5986L116.338 86.5986L116.34 86.6159ZM82.4693 86.9556L82.4542 86.9642L82.4582 86.9712L82.4661 86.9727L82.4693 86.9556ZM78.5651 80.0775H78.5451L78.5499 80.0861L78.5651 80.0775ZM71.7737 74.305L71.7619 74.3179L71.7911 74.3446V74.305H71.7737ZM69.7375 72.4378L69.7493 72.425L69.7486 72.4244L69.7375 72.4378ZM54.9604 66.712L54.9488 66.699L54.9385 66.7083L54.9452 66.7204L54.9604 66.712ZM55.7805 68.3653L55.7646 68.3724L55.7805 68.3653ZM58.0603 71.5595L58.0767 71.5653L58.0802 71.5556L58.0733 71.5479L58.0603 71.5595ZM52.1797 81.5208L52.1936 81.5312L52.194 81.5307L52.1797 81.5208ZM52.1797 81.5208L52.1658 81.5104L52.1654 81.5109L52.1797 81.5208ZM48.8538 86.7009L48.8383 86.6931L48.8379 86.6938L48.8538 86.7009ZM52.5892 91.625L52.5857 91.6421H52.5857L52.5892 91.625ZM55.9467 89.9089L55.9568 89.923L55.9467 89.9089ZM61.5875 87.7189L61.5951 87.7033L61.5951 87.7033L61.5875 87.7189ZM65.9383 102.963L65.9209 102.964L65.9383 102.963ZM66.2542 105.803L66.2521 105.82L66.2563 105.786L66.2542 105.803ZM62.0102 105.293L62.0123 105.275H62.0102V105.293ZM59.6326 107.331L59.65 107.333V107.331H59.6326ZM61.6687 109.708L61.6703 109.691H61.6687V109.708ZM63.5369 109.878L63.5487 109.891L63.5776 109.864L63.5385 109.861L63.5369 109.878ZM59.2929 113.782L59.3042 113.795L59.3047 113.794L59.2929 113.782ZM58.6127 121.254L58.5983 121.264L58.5985 121.264L58.6127 121.254ZM67.4421 133.646L67.4564 133.636L67.4562 133.636L67.4421 133.646ZM72.1955 128.723L72.1804 128.732L72.1806 128.732L72.1955 128.723ZM66.4231 118.537L66.4101 118.525L66.4018 118.535L66.408 118.545L66.4231 118.537ZM72.8748 111.236H72.8922V111.19L72.8618 111.224L72.8748 111.236ZM73.0437 111.407L73.0604 111.402L73.0567 111.389H73.0437V111.407ZM79.6653 133.646L79.6486 133.651L79.6492 133.653L79.6653 133.646ZM83.9092 135.684L83.9135 135.701L83.9266 135.698V135.684H83.9092ZM83.9092 135.513L83.9042 135.497L83.8918 135.501V135.513H83.9092ZM86.1161 131.439L86.1331 131.435L86.1328 131.434L86.1161 131.439ZM80.3437 112.254L80.3457 112.237L80.3195 112.234L80.3271 112.259L80.3437 112.254ZM108.358 113.781L108.375 113.784L108.38 113.763H108.358V113.781ZM104.452 130.931L104.435 130.927L104.435 130.928L104.452 130.931ZM106.83 135.004L106.827 135.021H106.83V135.004ZM107.17 135.004L107.173 134.987H107.17V135.004ZM110.905 132.627L110.888 132.623L110.888 132.624L110.905 132.627ZM115.32 113.951L115.323 113.934L115.307 113.932L115.303 113.947L115.32 113.951ZM116.339 114.121L116.356 114.118L116.353 114.106L116.342 114.104L116.339 114.121ZM120.074 132.796L120.091 132.794L120.091 132.793L120.074 132.796ZM126.695 131.779L126.712 131.776L126.712 131.776L126.695 131.779ZM140.448 110.895H140.43V110.922L140.455 110.911L140.448 110.895ZM157.936 121.93L157.918 121.931L157.919 121.947H157.936V121.93ZM167.765 121.93V121.947H167.782V121.93H167.765ZM167.765 96.6335H167.782V96.6161H167.765V96.6335ZM155.73 122.948H155.747V122.948L155.73 122.948ZM134.846 115.462L123.642 114.612L123.639 114.647L134.843 115.496L134.846 115.462ZM137.205 113.441C137.205 114.116 136.952 114.663 136.532 115.02C136.111 115.377 135.522 115.546 134.847 115.462L134.843 115.496C135.526 115.582 136.125 115.411 136.554 115.046C136.983 114.682 137.24 114.125 137.24 113.441H137.205ZM135.183 111.082C135.859 111.167 136.406 111.42 136.764 111.819C137.121 112.218 137.289 112.764 137.205 113.439L137.24 113.443C137.325 112.76 137.154 112.203 136.79 111.796C136.425 111.389 135.869 111.133 135.187 111.048L135.183 111.082ZM122.96 110.232L135.184 111.083L135.187 111.048L122.962 110.197L122.96 110.232ZM124.509 104.091C123.62 106.185 122.774 108.179 122.944 110.216L122.978 110.213C122.81 108.186 123.652 106.201 124.541 104.104L124.509 104.091ZM126.339 97.3116C126.339 99.7754 125.402 101.984 124.509 104.091L124.541 104.104C125.434 101.999 126.374 99.7836 126.374 97.3116H126.339ZM116.341 86.6333C118.627 86.4639 121.169 87.607 123.119 89.557C125.068 91.5067 126.424 94.2611 126.339 97.3111L126.374 97.3121C126.459 94.251 125.099 91.4877 123.143 89.5324C121.188 87.5774 118.637 86.4283 116.338 86.5986L116.341 86.6333ZM82.4661 86.9727C91.4672 88.6706 101.231 88.1608 116.341 86.6332L116.338 86.5986C101.227 88.1262 91.4681 88.6354 82.4726 86.9385L82.4661 86.9727ZM78.5499 80.0861L82.4542 86.9642L82.4845 86.947L78.5802 80.0689L78.5499 80.0861ZM78.5477 73.4559V80.0775H78.5825V73.4559H78.5477ZM75.1703 70.0785C77.027 70.0785 78.5477 71.5983 78.5477 73.4559H78.5825C78.5825 71.5791 77.0462 70.0437 75.1703 70.0437V70.0785ZM71.7911 73.4559C71.7911 71.5983 73.3127 70.0785 75.1703 70.0785V70.0437C73.2935 70.0437 71.7563 71.5791 71.7563 73.4559H71.7911ZM71.7911 74.305V73.4559H71.7563V74.305H71.7911ZM69.7258 72.4506L71.7619 74.3179L71.7854 74.2922L69.7493 72.425L69.7258 72.4506ZM54.9721 66.7249C55.1815 66.5363 55.5069 66.4317 55.9269 66.4013C56.3466 66.371 56.8583 66.4149 57.4376 66.521C58.5963 66.7334 60.0226 67.1943 61.5183 67.8044C64.5097 69.0245 67.7752 70.8398 69.7264 72.4512L69.7486 72.4244C67.7938 70.81 64.5249 68.9931 61.5314 67.7721C60.0346 67.1616 58.6058 66.6998 57.4439 66.4868C56.863 66.3804 56.3481 66.336 55.9244 66.3666C55.5011 66.3973 55.1665 66.503 54.9488 66.699L54.9721 66.7249ZM55.7964 68.3582C55.6202 67.964 55.4016 67.4749 54.9757 66.7036L54.9452 66.7204C55.3704 67.4904 55.5886 67.9786 55.7646 68.3724L55.7964 68.3582ZM58.0733 71.5479C57.2177 70.5866 56.7448 70.0045 56.4377 69.5552C56.1308 69.1062 55.9892 68.7896 55.7964 68.3582L55.7646 68.3724C55.9576 68.804 56.1002 69.1231 56.4089 69.5748C56.7174 70.0261 57.1915 70.6096 58.0473 71.571L58.0733 71.5479ZM52.194 81.5307C54.4196 78.3073 57.0004 74.5695 58.0767 71.5653L58.0439 71.5536C56.9695 74.5525 54.3919 78.286 52.1654 81.5109L52.194 81.5307ZM52.1936 81.5312L52.1936 81.5312L52.1658 81.5104L52.1658 81.5104L52.1936 81.5312ZM48.8694 86.7086C49.5255 85.3958 50.7888 83.566 52.194 81.5307L52.1654 81.5109C50.7608 83.5452 49.4957 85.3775 48.8383 86.6931L48.8694 86.7086ZM52.5928 91.608C51.7074 91.4234 50.4374 90.9574 49.5588 90.1574C49.1197 89.7576 48.779 89.2751 48.6321 88.7032C48.4852 88.1315 48.5317 87.4689 48.8697 86.7079L48.8379 86.6938C48.4972 87.4608 48.4493 88.1315 48.5984 88.7118C48.7474 89.292 49.0927 89.7801 49.5354 90.1831C50.4203 90.9888 51.6969 91.4568 52.5857 91.6421L52.5928 91.608ZM55.9366 89.8948C55.2478 90.3884 54.5958 90.8557 54.0228 91.1802C53.7364 91.3425 53.4703 91.4687 53.2297 91.5447C52.9891 91.6207 52.7753 91.646 52.5928 91.608L52.5857 91.6421C52.7762 91.6818 52.9966 91.6548 53.2402 91.5779C53.484 91.5009 53.7525 91.3734 54.04 91.2105C54.6149 90.8849 55.2686 90.4163 55.9568 89.923L55.9366 89.8948ZM61.5951 87.7033C60.8187 87.3242 59.8803 87.5319 58.9006 88.0023C57.9202 88.473 56.8931 89.2092 55.9366 89.8948L55.9568 89.923C56.914 89.237 57.9385 88.5028 58.9156 88.0337C59.8933 87.5643 60.8186 87.3628 61.5799 87.7346L61.5951 87.7033ZM65.9557 102.962C65.8416 100.651 65.6756 97.2885 65.077 94.2791C64.7778 92.7743 64.3702 91.3569 63.8063 90.2027C63.2426 89.0487 62.5218 88.1559 61.5951 87.7033L61.5799 87.7346C62.4967 88.1823 63.213 89.0673 63.7751 90.218C64.3371 91.3684 64.7439 92.7826 65.0429 94.2859C65.6409 97.2924 65.8068 100.652 65.9209 102.964L65.9557 102.962ZM66.2563 105.786C66.2435 105.784 66.227 105.772 66.2088 105.736C66.1911 105.702 66.1745 105.651 66.159 105.584C66.1279 105.45 66.1018 105.255 66.0786 105.007C66.0322 104.511 65.9974 103.807 65.9557 102.962L65.9209 102.964C65.9626 103.809 65.9975 104.514 66.044 105.01C66.0672 105.259 66.0934 105.455 66.1251 105.592C66.1409 105.66 66.1582 105.714 66.1778 105.752C66.1968 105.789 66.2207 105.817 66.2521 105.82L66.2563 105.786ZM62.0082 105.31L66.2521 105.82L66.2563 105.786L62.0123 105.275L62.0082 105.31ZM59.65 107.331C59.65 106.657 59.9027 106.152 60.3228 105.816C60.7434 105.48 61.3336 105.31 62.0102 105.31V105.275C61.3283 105.275 60.7296 105.446 60.3011 105.789C59.872 106.132 59.6152 106.647 59.6152 107.331H59.65ZM61.6687 109.691C60.9944 109.691 60.4478 109.438 60.0908 109.018C59.7337 108.597 59.565 108.008 59.6499 107.333L59.6153 107.329C59.5295 108.012 59.7 108.611 60.0642 109.04C60.4286 109.469 60.9854 109.726 61.6687 109.726V109.691ZM63.5385 109.861L61.6703 109.691L61.6672 109.726L63.5353 109.895L63.5385 109.861ZM59.3047 113.794L63.5487 109.891L63.5251 109.865L59.2812 113.769L59.3047 113.794ZM58.6271 121.244C57.5252 119.633 57.1456 118.237 57.3149 117.011C57.4842 115.786 58.2027 114.728 59.3042 113.795L59.2817 113.768C58.1763 114.704 57.4513 115.769 57.2804 117.006C57.1096 118.243 57.4934 119.648 58.5984 121.264L58.6271 121.244ZM67.4562 133.636L58.6269 121.244L58.5985 121.264L67.4279 133.656L67.4562 133.636ZM72.1806 128.732C73.1938 130.421 72.5613 132.45 71.3977 133.656C70.8162 134.259 70.1038 134.654 69.4012 134.698C68.6997 134.743 68.0051 134.438 67.4564 133.636L67.4277 133.656C67.9825 134.467 68.6884 134.778 69.4034 134.733C70.1172 134.688 70.8372 134.287 71.4228 133.68C72.5935 132.467 73.2342 130.421 72.2104 128.714L72.1806 128.732ZM66.408 118.545L72.1804 128.732L72.2106 128.714L66.4382 118.528L66.408 118.545ZM72.8618 111.224L66.4101 118.525L66.4361 118.548L72.8879 111.247L72.8618 111.224ZM73.0437 111.407C73.0437 111.389 73.0437 111.389 73.0438 111.389C73.0438 111.389 73.0438 111.389 73.0438 111.389C73.0438 111.389 73.0438 111.389 73.0438 111.389C73.0438 111.389 73.0438 111.389 73.0438 111.389C73.0437 111.389 73.0437 111.389 73.0435 111.389C73.0433 111.389 73.0429 111.389 73.0424 111.389C73.0414 111.389 73.0398 111.389 73.0377 111.389C73.0336 111.389 73.0275 111.388 73.0202 111.387C73.0056 111.384 72.9862 111.379 72.9671 111.37C72.9481 111.36 72.9296 111.346 72.9157 111.325C72.902 111.304 72.8922 111.276 72.8922 111.236H72.8574C72.8574 111.282 72.8688 111.317 72.8867 111.344C72.9046 111.371 72.9282 111.389 72.9514 111.401C72.9746 111.413 72.9975 111.418 73.0145 111.421C73.023 111.423 73.0301 111.423 73.0352 111.424C73.0378 111.424 73.0398 111.424 73.0413 111.424C73.042 111.424 73.0426 111.424 73.043 111.424C73.0432 111.424 73.0434 111.424 73.0435 111.424C73.0435 111.424 73.0436 111.424 73.0436 111.424C73.0437 111.424 73.0437 111.424 73.0437 111.424C73.0437 111.424 73.0437 111.424 73.0437 111.424C73.0437 111.424 73.0437 111.424 73.0437 111.407ZM79.682 133.641L73.0604 111.402L73.0271 111.412L79.6486 133.651L79.682 133.641ZM83.905 135.667C82.8897 135.922 82.0027 135.837 81.2856 135.478C80.5684 135.12 80.0193 134.486 79.6815 133.64L79.6492 133.653C79.9897 134.506 80.5441 135.146 81.27 135.509C81.9959 135.872 82.8917 135.957 83.9135 135.701L83.905 135.667ZM83.8918 135.513V135.684H83.9266V135.513H83.8918ZM86.0992 131.443C86.3536 132.543 86.2262 133.429 85.8257 134.104C85.425 134.778 84.7498 135.243 83.9042 135.497L83.9142 135.53C84.7661 135.274 85.4495 134.805 85.8556 134.121C86.2617 133.438 86.389 132.542 86.1331 131.435L86.0992 131.443ZM80.3271 112.259L86.0995 131.444L86.1328 131.434L80.3604 112.249L80.3271 112.259ZM108.358 113.763C98.6806 113.763 89.3433 113.255 80.3457 112.237L80.3418 112.271C89.3407 113.289 98.6793 113.798 108.358 113.798V113.763ZM104.469 130.935L108.375 113.784L108.342 113.777L104.435 130.927L104.469 130.935ZM106.833 134.987C105.147 134.65 104.132 132.963 104.47 130.934L104.435 130.928C104.095 132.971 105.118 134.68 106.827 135.021L106.833 134.987ZM107.17 134.987H106.83V135.021H107.17V134.987ZM110.888 132.624C110.551 134.312 108.863 135.326 107.173 134.987L107.166 135.021C108.873 135.363 110.581 134.339 110.922 132.631L110.888 132.624ZM115.303 113.947L110.888 132.623L110.922 132.631L115.337 113.955L115.303 113.947ZM116.342 114.104L115.323 113.934L115.317 113.969L116.336 114.138L116.342 114.104ZM120.091 132.793L116.356 114.118L116.322 114.125L120.057 132.8L120.091 132.793ZM126.678 131.782C126.804 132.581 126.489 133.255 125.935 133.763C125.381 134.273 124.589 134.616 123.764 134.754C122.939 134.891 122.083 134.822 121.403 134.508C120.723 134.195 120.218 133.636 120.091 132.794L120.057 132.799C120.185 133.655 120.699 134.222 121.388 134.54C122.076 134.858 122.94 134.927 123.77 134.788C124.6 134.65 125.399 134.304 125.959 133.789C126.519 133.274 126.841 132.589 126.712 131.776L126.678 131.782ZM123.623 114.633L126.678 131.782L126.712 131.776L123.658 114.627L123.623 114.633ZM140.465 102.067C140.465 99.0199 142.833 96.6509 145.88 96.6509V96.6161C142.814 96.6161 140.43 99.0006 140.43 102.067H140.465ZM140.465 110.895V102.067H140.43V110.895H140.465ZM145.372 110.028C143.672 110.028 141.972 110.198 140.441 110.879L140.455 110.911C141.98 110.233 143.674 110.063 145.372 110.063V110.028ZM157.953 121.929C157.614 114.959 152.341 110.028 145.372 110.028V110.063C152.323 110.063 157.58 114.98 157.918 121.931L157.953 121.929ZM167.765 121.913H157.936V121.947H167.765V121.913ZM167.748 96.6335V121.93H167.782V96.6335H167.748ZM145.88 96.6509H167.765V96.6161H145.88V96.6509ZM145.033 112.235C138.912 112.235 134.319 116.827 134.319 122.948H134.354C134.354 116.846 138.931 112.27 145.033 112.27V112.235ZM155.747 122.948C155.746 116.826 151.155 112.235 145.033 112.235V112.27C151.136 112.27 155.712 116.846 155.713 122.948L155.747 122.948ZM145.033 133.661C151.155 133.661 155.747 129.07 155.747 122.948H155.713C155.713 129.05 151.136 133.626 145.033 133.626V133.661ZM134.319 122.948C134.319 129.07 138.912 133.661 145.033 133.661V133.626C138.931 133.626 134.354 129.05 134.354 122.948H134.319ZM145.033 128.025C142.157 128.025 139.958 125.825 139.958 122.948H139.923C139.923 125.844 142.138 128.059 145.033 128.059V128.025ZM150.109 122.948C150.109 125.825 147.91 128.025 145.033 128.025V128.059C147.929 128.059 150.144 125.844 150.144 122.948H150.109ZM145.033 117.871C147.91 117.871 150.109 120.072 150.109 122.948H150.144C150.144 120.053 147.929 117.837 145.033 117.837V117.871ZM139.958 122.948C139.958 120.072 142.157 117.871 145.033 117.871V117.837C142.138 117.837 139.923 120.053 139.923 122.948H139.958Z" fill="black"/>
<circle cx="100" cy="100.668" r="71.875" stroke="#FF0E00" stroke-width="12.5"/>
</svg>
