<svg width="204" height="201" viewBox="0 0 204 201" fill="none" xmlns="http://www.w3.org/2000/svg">
<rect x="1.47917" y="58.6009" width="201.039" height="84.3738" rx="8.85404" fill="white" stroke="#13141A" stroke-width="1.04165"/>
<rect x="6.16663" y="63.29" width="191.664" height="74.9989" rx="4.16661" fill="#1071AF"/>
<path d="M31.1663 98.7053L58.2492 98.7053L44.7077 75.789L31.1663 98.7053Z" fill="white"/>
<path d="M39.4995 125.789L49.916 125.789L49.916 98.7057L39.4995 98.7057L39.4995 125.789Z" fill="white"/>
<path d="M118.665 80.9981H101.459C99.2161 80.9981 97.1452 82.1999 96.0325 84.1472L90.3222 94.1402C89.7826 95.0845 89.4987 96.1534 89.4987 97.241V114.331C89.4987 116.632 91.3642 118.498 93.6653 118.498H118.665V80.9981Z" fill="white"/>
<circle r="10.4169" transform="matrix(-1 0 0 1 105.123 117.456)" fill="white" stroke="#1071AF" stroke-width="2.0833"/>
<circle r="5.20826" transform="matrix(-1 0 0 1 105.124 117.456)" fill="#1071AF"/>
<path d="M93.6633 96.1066C93.2665 96.801 93.768 97.665 94.5678 97.665H114.5V85.1646H99.9159L93.6633 96.1066Z" fill="#1071AF"/>
<rect x="118.665" y="110.164" width="54.1659" height="8.33321" fill="white"/>
<path d="M122.832 76.832C122.832 75.6814 123.764 74.7487 124.915 74.7487H170.748C171.898 74.7487 172.831 75.6814 172.831 76.832V105.998H122.832V76.832Z" fill="white"/>
<circle r="10.4169" transform="matrix(-1 0 0 1 153.039 117.456)" fill="white" stroke="#1071AF" stroke-width="2.0833"/>
<circle r="5.20826" transform="matrix(-1 0 0 1 153.039 117.456)" fill="#1071AF"/>
</svg>
