<svg width="200" height="201" viewBox="0 0 200 201" fill="none" xmlns="http://www.w3.org/2000/svg">
<path d="M176.251 44.6714L176.466 44.5455L176.502 44.2993L179.682 23.1225L179.743 22.7134L179.358 22.561L159.692 14.7658L159.456 14.6722L159.237 14.8006L99.9998 49.4984L40.7632 14.8008L40.5441 14.6725L40.308 14.7661L20.6417 22.5613L20.2571 22.7137L20.3185 23.1228L23.4976 44.2995L23.5346 44.5458L23.7494 44.6716L65.9948 69.4166L23.7492 94.1617L23.5344 94.2876L23.4974 94.5338L20.3183 115.711L20.2569 116.12L20.6415 116.272L40.3078 124.067L40.5438 124.161L40.7629 124.033L99.9998 89.3348L159.237 124.033L159.456 124.161L159.692 124.068L179.359 116.272L179.743 116.12L179.682 115.711L176.503 94.5341L176.466 94.2878L176.251 94.162L134.005 69.4166L176.251 44.6714Z" fill="white" stroke="black" stroke-width="1.04167"/>
<mask id="path-2-inside-1_0_3503" fill="white">
<path fill-rule="evenodd" clip-rule="evenodd" d="M125.471 69.4168L172.55 41.8407L175.006 25.481L159.813 19.459L99.9977 54.4957L40.1851 19.4608L24.9923 25.4828L27.4482 41.8425L74.5239 69.4168L27.4477 96.9914L24.9918 113.351L40.1846 119.373L99.9977 84.3379L159.814 119.375L175.007 113.353L172.551 96.9932L125.471 69.4168Z"/>
</mask>
<path fill-rule="evenodd" clip-rule="evenodd" d="M125.471 69.4168L172.55 41.8407L175.006 25.481L159.813 19.459L99.9977 54.4957L40.1851 19.4608L24.9923 25.4828L27.4482 41.8425L74.5239 69.4168L27.4477 96.9914L24.9918 113.351L40.1846 119.373L99.9977 84.3379L159.814 119.375L175.007 113.353L172.551 96.9932L125.471 69.4168Z" fill="white"/>
<path d="M172.55 41.8407L176.762 49.0313L180.2 47.0177L180.791 43.0778L172.55 41.8407ZM125.471 69.4168L121.26 62.2262L108.984 69.4168L121.26 76.6074L125.471 69.4168ZM175.006 25.481L183.247 26.7181L184.23 20.1729L178.077 17.734L175.006 25.481ZM159.813 19.459L162.884 11.712L159.107 10.215L155.602 12.2684L159.813 19.459ZM99.9977 54.4957L95.7858 61.6863L99.9977 64.1534L104.21 61.6863L99.9977 54.4957ZM40.1851 19.4608L44.3969 12.2702L40.8913 10.2168L37.1144 11.7138L40.1851 19.4608ZM24.9923 25.4828L21.9216 17.7359L15.7687 20.1747L16.7513 26.72L24.9923 25.4828ZM27.4482 41.8425L19.2072 43.0796L19.7986 47.0195L23.2363 49.0331L27.4482 41.8425ZM74.5239 69.4168L78.7358 76.6074L91.0118 69.4168L78.7358 62.2262L74.5239 69.4168ZM27.4477 96.9914L23.2359 89.8008L19.7982 91.8144L19.2068 95.7543L27.4477 96.9914ZM24.9918 113.351L16.7508 112.114L15.7682 118.659L21.9211 121.098L24.9918 113.351ZM40.1846 119.373L37.114 127.12L40.8909 128.617L44.3965 126.564L40.1846 119.373ZM99.9977 84.3379L104.21 77.1473L99.9977 74.6803L95.7858 77.1473L99.9977 84.3379ZM159.814 119.375L155.602 126.566L159.108 128.619L162.885 127.122L159.814 119.375ZM175.007 113.353L178.077 121.1L184.23 118.661L183.248 112.116L175.007 113.353ZM172.551 96.9932L180.792 95.7561L180.2 91.8162L176.763 89.8026L172.551 96.9932ZM168.338 34.6501L121.26 62.2262L129.683 76.6074L176.762 49.0313L168.338 34.6501ZM166.765 24.2439L164.309 40.6035L180.791 43.0778L183.247 26.7181L166.765 24.2439ZM156.743 27.2059L171.936 33.228L178.077 17.734L162.884 11.712L156.743 27.2059ZM104.21 61.6863L164.025 26.6496L155.602 12.2684L95.7858 47.3051L104.21 61.6863ZM35.9732 26.6514L95.7858 61.6863L104.21 47.3051L44.3969 12.2702L35.9732 26.6514ZM28.0629 33.2298L43.2558 27.2078L37.1144 11.7138L21.9216 17.7359L28.0629 33.2298ZM35.6892 40.6053L33.2332 24.2457L16.7513 26.72L19.2072 43.0796L35.6892 40.6053ZM78.7358 62.2262L31.66 34.6519L23.2363 49.0331L70.312 76.6074L78.7358 62.2262ZM31.6596 104.182L78.7358 76.6074L70.312 62.2262L23.2359 89.8008L31.6596 104.182ZM33.2328 114.588L35.6887 98.2285L19.2068 95.7543L16.7508 112.114L33.2328 114.588ZM43.2553 111.626L28.0625 105.604L21.9211 121.098L37.114 127.12L43.2553 111.626ZM95.7858 77.1473L35.9728 112.182L44.3965 126.564L104.21 91.5285L95.7858 77.1473ZM164.026 112.184L104.21 77.1473L95.7858 91.5285L155.602 126.566L164.026 112.184ZM171.936 105.606L156.743 111.628L162.885 127.122L178.077 121.1L171.936 105.606ZM164.31 98.2304L166.766 114.59L183.248 112.116L180.792 95.7561L164.31 98.2304ZM121.26 76.6074L168.339 104.184L176.763 89.8026L129.683 62.2262L121.26 76.6074Z" fill="#FF0E00" mask="url(#path-2-inside-1_0_3503)"/>
<path d="M176.503 157.034L176.466 156.787L176.251 156.662L100.263 112.152L99.9998 111.998L99.7366 112.152L23.7492 156.661L23.5344 156.787L23.4974 157.033L20.3183 178.21L20.2569 178.619L20.6415 178.772L40.3078 186.567L40.5438 186.66L40.7629 186.532L99.9998 151.834L159.237 186.532L159.456 186.661L159.692 186.567L179.359 178.772L179.743 178.619L179.682 178.21L176.503 157.034Z" fill="white" stroke="black" stroke-width="1.04167"/>
<path d="M102.105 143.242L99.9991 142.009L97.8932 143.242L39.8317 177.251L29.6037 173.197L31.2726 162.08L99.9991 121.824L168.726 162.08L170.395 173.197L160.167 177.251L102.105 143.242Z" fill="white" stroke="#FF0E00" stroke-width="8.33333"/>
</svg>
