<svg width="201" height="201" viewBox="0 0 201 201" fill="none" xmlns="http://www.w3.org/2000/svg">
<path d="M149.179 110.612L149.074 110.563L148.958 110.563L10.4167 110.563C5.52672 110.563 1.56258 114.527 1.56258 119.417L1.56257 148.584C1.56257 153.474 5.5267 157.438 10.4167 157.438L148.958 157.438L149.074 157.438L149.179 157.389L198.138 134.472L199.145 134.001L198.138 133.529L149.179 110.612Z" fill="white" stroke="#13141A" stroke-width="1.04167"/>
<path d="M148.958 115.251L179.167 134.001L148.958 152.751L10.4168 152.751C8.11557 152.751 6.25009 150.885 6.25009 148.584L6.25009 119.418C6.25009 117.116 8.11557 115.251 10.4167 115.251L148.958 115.251Z" fill="#269E48"/>
<rect x="14.5833" y="119.418" width="29.1667" height="29.1667" rx="2.08333" fill="white"/>
<path d="M20.2346 132.996C20.3421 133.32 20.3987 133.66 20.4023 134.004C20.4061 134.373 20.3486 134.739 20.2326 135.086L19.803 136.37C19.6789 136.741 19.9342 137.133 20.2979 137.129L20.8708 137.123C21.0282 137.122 21.1766 137.043 21.2745 136.909L22.5847 135.119L26.4628 135.143L21.4576 143.544C21.2321 143.923 21.4852 144.422 21.9006 144.417L22.4898 144.411C22.9327 144.407 23.353 144.199 23.6465 143.839L30.7667 135.11L37.6762 135.118C38.2421 135.125 38.7177 134.599 38.7044 133.979C38.7063 133.389 38.2501 132.895 37.6897 132.865L30.7956 132.885L23.6618 124.155C23.3614 123.788 22.929 123.579 22.4762 123.584L21.8846 123.59C21.4732 123.594 21.2281 124.09 21.4521 124.464L26.4895 132.882L22.5793 132.897L21.275 131.123C21.174 130.985 21.0201 130.907 20.8582 130.91L20.2782 130.921C19.9207 130.927 19.6753 131.313 19.7966 131.678L20.2346 132.996Z" fill="black"/>
<path d="M53.0293 122.47H59.7188V123.972H54.8359V126.047H57.2529C57.9202 126.047 58.4736 126.128 58.9131 126.291C59.3525 126.454 59.7269 126.755 60.0361 127.194C60.3494 127.634 60.5061 128.149 60.5061 128.739C60.5061 129.345 60.3494 129.864 60.0361 130.295C59.7228 130.726 59.3647 131.021 58.9619 131.18C58.5632 131.339 57.9935 131.418 57.2529 131.418H53.0293V122.47ZM54.8359 129.917H56.5938C57.1553 129.917 57.55 129.89 57.7778 129.837C58.0057 129.78 58.203 129.654 58.3699 129.459C58.5408 129.263 58.6262 129.023 58.6262 128.739C58.6262 128.323 58.4777 128.022 58.1807 127.835C57.8877 127.644 57.3852 127.548 56.6731 127.548H54.8359V129.917ZM61.5681 128.085C61.5681 127.516 61.7085 126.964 61.9893 126.431C62.27 125.898 62.6667 125.491 63.1794 125.211C63.6962 124.93 64.272 124.79 64.9067 124.79C65.8874 124.79 66.691 125.109 67.3176 125.748C67.9443 126.383 68.2576 127.186 68.2576 128.159C68.2576 129.139 67.9402 129.953 67.3054 130.6C66.6747 131.243 65.8792 131.564 64.9189 131.564C64.3249 131.564 63.7572 131.43 63.2161 131.162C62.679 130.893 62.27 130.5 61.9893 129.984C61.7085 129.463 61.5681 128.83 61.5681 128.085ZM63.3259 128.177C63.3259 128.82 63.4785 129.312 63.7837 129.654C64.0889 129.996 64.4653 130.167 64.9128 130.167C65.3604 130.167 65.7348 129.996 66.0359 129.654C66.3411 129.312 66.4937 128.816 66.4937 128.165C66.4937 127.53 66.3411 127.042 66.0359 126.7C65.7348 126.358 65.3604 126.187 64.9128 126.187C64.4653 126.187 64.0889 126.358 63.7837 126.7C63.4785 127.042 63.3259 127.534 63.3259 128.177ZM69.5576 124.936H71.1567V125.888C71.3643 125.563 71.645 125.298 71.999 125.095C72.353 124.891 72.7457 124.79 73.177 124.79C73.9298 124.79 74.5686 125.085 75.0935 125.675C75.6184 126.265 75.8809 127.087 75.8809 128.14C75.8809 129.223 75.6164 130.065 75.0874 130.667C74.5584 131.265 73.9176 131.564 73.1648 131.564C72.8067 131.564 72.4812 131.493 72.1882 131.351C71.8993 131.208 71.5942 130.964 71.2727 130.618V133.884H69.5576V124.936ZM71.2544 128.067C71.2544 128.795 71.3988 129.335 71.6877 129.685C71.9766 130.03 72.3286 130.203 72.7437 130.203C73.1424 130.203 73.474 130.045 73.7385 129.727C74.003 129.406 74.1353 128.881 74.1353 128.153C74.1353 127.473 73.9989 126.969 73.7263 126.639C73.4537 126.309 73.116 126.145 72.7131 126.145C72.294 126.145 71.9461 126.307 71.6694 126.633C71.3927 126.954 71.2544 127.432 71.2544 128.067ZM77.2053 124.936H78.8533V129.007L81.49 124.936H83.1746V131.418H81.5266V127.274L78.8533 131.418H77.2053V124.936ZM90.5903 126.853L88.8997 127.158C88.8427 126.82 88.7125 126.566 88.509 126.395C88.3097 126.224 88.0492 126.138 87.7278 126.138C87.3005 126.138 86.9587 126.287 86.7024 126.584C86.4501 126.877 86.324 127.369 86.324 128.061C86.324 128.83 86.4521 129.373 86.7085 129.691C86.9689 130.008 87.3168 130.167 87.7522 130.167C88.0777 130.167 88.3442 130.075 88.5518 129.892C88.7593 129.705 88.9058 129.385 88.9912 128.934L90.6758 129.221C90.5008 129.994 90.1651 130.578 89.6687 130.972C89.1723 131.367 88.507 131.564 87.6729 131.564C86.7248 131.564 85.9679 131.265 85.4023 130.667C84.8408 130.069 84.5601 129.241 84.5601 128.183C84.5601 127.113 84.8429 126.281 85.4084 125.687C85.974 125.089 86.739 124.79 87.7034 124.79C88.4928 124.79 89.1194 124.96 89.5833 125.302C90.0512 125.64 90.3869 126.157 90.5903 126.853ZM91.8293 124.936H97.585V131.418H95.8699V126.322H93.5444V131.418H91.8293V124.936ZM99.4526 124.057V122.47H101.168V124.057H99.4526ZM99.4526 131.418V124.936H101.168V131.418H99.4526ZM103.396 124.936H109.139V131.418H107.43V126.328H105.092V129.239C105.092 129.98 105.007 130.5 104.836 130.802C104.665 131.099 104.476 131.294 104.268 131.387C104.061 131.481 103.727 131.528 103.267 131.528C102.995 131.528 102.635 131.491 102.187 131.418V130.155C102.224 130.155 102.319 130.159 102.474 130.167C102.653 130.179 102.791 130.185 102.889 130.185C103.121 130.185 103.263 130.11 103.316 129.959C103.369 129.805 103.396 129.379 103.396 128.684V124.936ZM110.915 124.936H112.63V127.628H114.351C115.027 127.628 115.546 127.677 115.908 127.774C116.27 127.872 116.571 128.083 116.811 128.409C117.051 128.73 117.171 129.105 117.171 129.532C117.171 130.159 116.955 130.631 116.524 130.948C116.097 131.261 115.454 131.418 114.595 131.418H110.915V124.936ZM112.63 130.332H114.229C114.73 130.332 115.049 130.25 115.188 130.087C115.33 129.925 115.401 129.731 115.401 129.508C115.401 129.194 115.279 128.979 115.035 128.861C114.795 128.743 114.366 128.684 113.747 128.684H112.63V130.332Z" fill="white"/>
<path d="M52.6936 138.119H55.078C55.55 138.119 55.9013 138.139 56.1319 138.18C56.3652 138.218 56.5727 138.299 56.7545 138.424C56.9389 138.549 57.0922 138.716 57.2143 138.924C57.3363 139.131 57.3974 139.363 57.3974 139.62C57.3974 139.9 57.3214 140.156 57.1695 140.389C57.0203 140.623 56.8169 140.798 56.5592 140.914C56.9227 141.02 57.2021 141.2 57.3974 141.455C57.5927 141.71 57.6903 142.01 57.6903 142.355C57.6903 142.626 57.6266 142.89 57.4991 143.148C57.3743 143.403 57.2021 143.608 56.9823 143.763C56.7653 143.914 56.4968 144.008 56.1767 144.043C55.9759 144.065 55.4917 144.079 54.724 144.084H52.6936V138.119ZM53.898 139.112V140.491H54.6874C55.1567 140.491 55.4483 140.484 55.5623 140.471C55.7684 140.446 55.9298 140.376 56.0465 140.259C56.1658 140.14 56.2255 139.984 56.2255 139.791C56.2255 139.607 56.174 139.458 56.0709 139.344C55.9705 139.227 55.82 139.156 55.6192 139.132C55.4999 139.118 55.1567 139.112 54.5898 139.112H53.898ZM53.898 141.484V143.079H55.0129C55.447 143.079 55.7223 143.067 55.8389 143.042C56.018 143.01 56.1631 142.931 56.2743 142.806C56.3883 142.679 56.4452 142.509 56.4452 142.298C56.4452 142.119 56.4018 141.967 56.315 141.842C56.2282 141.717 56.1021 141.626 55.9366 141.569C55.7738 141.512 55.4185 141.484 54.8705 141.484H53.898ZM58.439 141.862C58.439 141.483 58.5326 141.115 58.7198 140.76C58.907 140.404 59.1715 140.133 59.5133 139.946C59.8578 139.759 60.2416 139.665 60.6648 139.665C61.3185 139.665 61.8543 139.878 62.2721 140.304C62.6898 140.727 62.8987 141.263 62.8987 141.911C62.8987 142.565 62.6871 143.107 62.2639 143.539C61.8435 143.967 61.3131 144.182 60.6729 144.182C60.2769 144.182 59.8985 144.092 59.5377 143.913C59.1796 143.734 58.907 143.472 58.7198 143.128C58.5326 142.781 58.439 142.359 58.439 141.862ZM59.6109 141.923C59.6109 142.352 59.7126 142.68 59.9161 142.908C60.1195 143.136 60.3705 143.25 60.6689 143.25C60.9673 143.25 61.2168 143.136 61.4176 142.908C61.621 142.68 61.7227 142.349 61.7227 141.915C61.7227 141.492 61.621 141.167 61.4176 140.939C61.2168 140.711 60.9673 140.597 60.6689 140.597C60.3705 140.597 60.1195 140.711 59.9161 140.939C59.7126 141.167 59.6109 141.495 59.6109 141.923ZM64.8925 144.084H63.7491V139.763H64.8111V140.377C64.9929 140.087 65.1556 139.896 65.2994 139.803C65.4459 139.711 65.6114 139.665 65.7958 139.665C66.0562 139.665 66.3072 139.737 66.5486 139.881L66.1946 140.878C66.002 140.753 65.8229 140.69 65.6575 140.69C65.4974 140.69 65.3618 140.735 65.2506 140.825C65.1394 140.912 65.0512 141.07 64.9861 141.301C64.9237 141.531 64.8925 142.014 64.8925 142.749V144.084ZM66.5038 139.763H67.7205L68.754 142.831L69.7631 139.763H70.9472L69.4213 143.921L69.1487 144.674C69.0483 144.926 68.952 145.119 68.8598 145.252C68.7703 145.385 68.6658 145.492 68.5465 145.573C68.4298 145.657 68.2847 145.722 68.1111 145.769C67.9402 145.815 67.7462 145.838 67.5292 145.838C67.3095 145.838 67.0938 145.815 66.8822 145.769L66.7805 144.873C66.9596 144.909 67.121 144.926 67.2647 144.926C67.5306 144.926 67.7272 144.848 67.8547 144.69C67.9822 144.536 68.0799 144.338 68.1477 144.096L66.5038 139.763ZM71.2808 142.851L72.4283 142.676C72.4771 142.899 72.5761 143.068 72.7253 143.185C72.8745 143.299 73.0834 143.356 73.352 143.356C73.6477 143.356 73.8701 143.301 74.0193 143.193C74.1197 143.117 74.1698 143.015 74.1698 142.888C74.1698 142.801 74.1427 142.729 74.0885 142.672C74.0315 142.618 73.904 142.568 73.706 142.521C72.7837 142.318 72.1991 142.132 71.9522 141.964C71.6104 141.731 71.4395 141.407 71.4395 140.992C71.4395 140.617 71.5874 140.303 71.8831 140.048C72.1787 139.793 72.6372 139.665 73.2584 139.665C73.8497 139.665 74.2892 139.761 74.5767 139.954C74.8643 140.147 75.0623 140.431 75.1708 140.808L74.0925 141.008C74.0464 140.84 73.9583 140.711 73.828 140.621C73.7005 140.532 73.5174 140.487 73.2787 140.487C72.9776 140.487 72.762 140.529 72.6318 140.613C72.5449 140.673 72.5015 140.75 72.5015 140.845C72.5015 140.926 72.5395 140.996 72.6155 141.053C72.7186 141.129 73.0739 141.236 73.6816 141.374C74.2919 141.512 74.7178 141.682 74.9592 141.883C75.1979 142.086 75.3173 142.37 75.3173 142.733C75.3173 143.129 75.1518 143.47 74.8209 143.754C74.4899 144.039 74.0003 144.182 73.352 144.182C72.7633 144.182 72.2967 144.062 71.9522 143.824C71.6104 143.585 71.3866 143.261 71.2808 142.851ZM76.2898 139.763H77.3559V140.397C77.4942 140.18 77.6814 140.004 77.9174 139.868C78.1534 139.733 78.4152 139.665 78.7027 139.665C79.2046 139.665 79.6305 139.862 79.9804 140.255C80.3303 140.648 80.5053 141.196 80.5053 141.899C80.5053 142.62 80.329 143.182 79.9763 143.583C79.6237 143.982 79.1964 144.182 78.6946 144.182C78.4559 144.182 78.2389 144.134 78.0435 144.039C77.8509 143.944 77.6475 143.782 77.4332 143.551V145.728H76.2898V139.763ZM77.421 141.85C77.421 142.336 77.5173 142.695 77.7099 142.928C77.9025 143.159 78.1371 143.274 78.4138 143.274C78.6797 143.274 78.9007 143.168 79.0771 142.957C79.2534 142.743 79.3416 142.393 79.3416 141.907C79.3416 141.454 79.2507 141.118 79.0689 140.898C78.8872 140.678 78.662 140.568 78.3935 140.568C78.1141 140.568 77.8821 140.677 77.6977 140.894C77.5132 141.108 77.421 141.427 77.421 141.85ZM81.4167 139.177V138.119H82.5601V139.177H81.4167ZM81.4167 144.084V139.763H82.5601V144.084H81.4167ZM83.7361 144.084V138.119H84.8795V144.084H83.7361Z" fill="white"/>
<path d="M140.21 136.502L142.423 136.234C142.494 136.798 142.684 137.229 142.993 137.528C143.302 137.826 143.677 137.975 144.116 137.975C144.588 137.975 144.984 137.796 145.304 137.438C145.63 137.08 145.793 136.597 145.793 135.99C145.793 135.414 145.638 134.959 145.329 134.622C145.019 134.286 144.642 134.118 144.198 134.118C143.905 134.118 143.555 134.175 143.148 134.289L143.4 132.425C144.018 132.441 144.49 132.308 144.816 132.026C145.142 131.739 145.304 131.359 145.304 130.887C145.304 130.486 145.185 130.165 144.946 129.927C144.707 129.688 144.39 129.569 143.994 129.569C143.603 129.569 143.27 129.704 142.993 129.976C142.716 130.247 142.548 130.643 142.489 131.164L140.381 130.806C140.527 130.084 140.747 129.509 141.04 129.08C141.338 128.646 141.751 128.307 142.277 128.063C142.809 127.814 143.403 127.689 144.059 127.689C145.182 127.689 146.083 128.047 146.761 128.763C147.32 129.349 147.599 130.011 147.599 130.749C147.599 131.796 147.027 132.631 145.882 133.255C146.566 133.402 147.111 133.73 147.518 134.24C147.93 134.75 148.136 135.366 148.136 136.087C148.136 137.134 147.754 138.027 146.989 138.765C146.224 139.502 145.272 139.871 144.132 139.871C143.053 139.871 142.158 139.562 141.447 138.944C140.736 138.32 140.324 137.506 140.21 136.502Z" fill="white"/>
<rect x="198.438" y="43.8952" width="42.7083" height="196.875" rx="8.85417" transform="rotate(90 198.438 43.8952)" fill="white" stroke="#13141A" stroke-width="1.04167"/>
<rect x="193.75" y="48.582" width="33.3333" height="187.5" rx="4.16667" transform="rotate(90 193.75 48.582)" fill="#269E48"/>
<rect x="10.4167" y="52.749" width="25" height="25" rx="2.08333" fill="white"/>
<path d="M15.974 64.4458C16.06 64.7045 16.1053 64.977 16.1081 65.252C16.1112 65.5471 16.0652 65.8404 15.9723 66.1179L15.6287 67.145C15.5294 67.4418 15.7336 67.7549 16.0246 67.7521L16.4829 67.7476C16.6089 67.7464 16.7276 67.6834 16.8059 67.5764L17.854 66.1443L20.9565 66.1634L16.9524 72.8843C16.772 73.1871 16.9744 73.5861 17.3068 73.5827L17.7782 73.5778C18.1324 73.5741 18.4687 73.4077 18.7035 73.1199L24.3997 66.1366L29.9272 66.1431C30.38 66.1485 30.7605 65.7277 30.7498 65.2324C30.7514 64.7596 30.3864 64.3645 29.9381 64.3411L24.4228 64.3571L18.7158 57.3731C18.4755 57.079 18.1295 56.9123 17.7673 56.9161L17.294 56.921C16.9648 56.9244 16.7688 57.3206 16.948 57.6201L20.9779 64.3547L17.8498 64.3667L16.8063 62.947C16.7255 62.8372 16.6024 62.7742 16.4729 62.7766L16.0088 62.7854C15.7229 62.7907 15.5266 63.0996 15.6236 63.3915L15.974 64.4458Z" fill="black"/>
<path d="M47.6543 58.9845L46.3536 58.7498C46.4998 58.2261 46.7514 57.8385 47.1085 57.5868C47.4656 57.3352 47.9961 57.2093 48.7 57.2093C49.3393 57.2093 49.8154 57.2859 50.1283 57.4389C50.4412 57.5885 50.6605 57.7807 50.7863 58.0153C50.9155 58.2465 50.9802 58.6733 50.9802 59.2956L50.9649 60.9688C50.9649 61.4449 50.987 61.7968 51.0312 62.0247C51.0788 62.2491 51.1655 62.4906 51.2913 62.749H49.8732C49.8358 62.6538 49.7899 62.5127 49.7355 62.3256C49.7117 62.2406 49.6947 62.1845 49.6845 62.1573C49.4397 62.3954 49.1778 62.5739 48.899 62.6929C48.6201 62.8119 48.3225 62.8714 48.0063 62.8714C47.4486 62.8714 47.0082 62.7201 46.6851 62.4175C46.3655 62.1148 46.2056 61.7322 46.2056 61.2697C46.2056 60.9637 46.2787 60.6916 46.425 60.4536C46.5712 60.2121 46.7752 60.0285 47.0371 59.9027C47.3023 59.7734 47.6832 59.6612 48.1797 59.566C48.8496 59.4402 49.3138 59.3229 49.5723 59.214V59.0712C49.5723 58.7958 49.5043 58.6002 49.3682 58.4846C49.2322 58.3656 48.9755 58.3061 48.598 58.3061C48.3429 58.3061 48.144 58.3571 48.0012 58.4591C47.8583 58.5577 47.7427 58.7328 47.6543 58.9845ZM49.5723 60.1475C49.3886 60.2087 49.0979 60.2818 48.7 60.3669C48.3021 60.4519 48.042 60.5352 47.9196 60.6168C47.7325 60.7494 47.639 60.9178 47.639 61.1218C47.639 61.3224 47.7138 61.4959 47.8634 61.6421C48.0131 61.7883 48.2035 61.8615 48.4348 61.8615C48.6932 61.8615 48.9398 61.7764 49.1744 61.6064C49.3478 61.4772 49.4618 61.319 49.5162 61.132C49.5536 61.0096 49.5723 60.7766 49.5723 60.4332V60.1475ZM55.5353 61.0249L56.9636 61.2646C56.78 61.7883 56.4892 62.1879 56.0914 62.4634C55.6969 62.7354 55.2021 62.8714 54.607 62.8714C53.665 62.8714 52.9678 62.5637 52.5156 61.9482C52.1585 61.4551 51.98 60.8327 51.98 60.0812C51.98 59.1834 52.2146 58.4812 52.6839 57.9745C53.1532 57.4644 53.7466 57.2093 54.4641 57.2093C55.2701 57.2093 55.906 57.4763 56.3719 58.0102C56.8378 58.5407 57.0605 59.3552 57.0401 60.4536H53.449C53.4592 60.8787 53.5749 61.2102 53.7959 61.4483C54.0169 61.6829 54.2924 61.8002 54.6223 61.8002C54.8467 61.8002 55.0354 61.739 55.1885 61.6166C55.3415 61.4942 55.4571 61.2969 55.5353 61.0249ZM55.617 59.5762C55.6068 59.1613 55.4996 58.8468 55.2956 58.6325C55.0916 58.4149 54.8433 58.3061 54.5509 58.3061C54.238 58.3061 53.9795 58.42 53.7755 58.6478C53.5715 58.8757 53.4711 59.1851 53.4745 59.5762H55.617ZM58.1726 57.3318H59.509V58.1275C59.6825 57.8555 59.9171 57.6344 60.213 57.4644C60.5088 57.2944 60.837 57.2093 61.1974 57.2093C61.8266 57.2093 62.3605 57.4559 62.7992 57.949C63.2378 58.4421 63.4572 59.129 63.4572 60.0098C63.4572 60.9144 63.2361 61.6183 62.7941 62.1216C62.352 62.6215 61.8164 62.8714 61.1872 62.8714C60.888 62.8714 60.6159 62.8119 60.3711 62.6929C60.1296 62.5739 59.8746 62.3698 59.6059 62.0808V64.8098H58.1726V57.3318ZM59.5906 59.9486C59.5906 60.5573 59.7114 61.0079 59.9528 61.3003C60.1943 61.5894 60.4884 61.7339 60.8353 61.7339C61.1685 61.7339 61.4457 61.6013 61.6667 61.336C61.8878 61.0674 61.9983 60.6287 61.9983 60.02C61.9983 59.4521 61.8844 59.0304 61.6565 58.7549C61.4287 58.4795 61.1464 58.3418 60.8098 58.3418C60.4595 58.3418 60.1687 58.4778 59.9375 58.7498C59.7063 59.0185 59.5906 59.4181 59.5906 59.9486ZM64.5437 57.3318H69.3539V62.749H67.9206V58.4897H65.9771V62.749H64.5437V57.3318ZM70.9148 62.749V61.3156H72.3482V62.749H70.9148ZM76.7708 55.271H82.3615V56.5258H78.2807V58.2601H80.3007C80.8584 58.2601 81.3209 58.3282 81.6881 58.4642C82.0554 58.6002 82.3683 58.8519 82.6267 59.2191C82.8886 59.5864 83.0195 60.0166 83.0195 60.5097C83.0195 61.0164 82.8886 61.45 82.6267 61.8104C82.3649 62.1709 82.0656 62.4175 81.729 62.5501C81.3957 62.6827 80.9196 62.749 80.3007 62.749H76.7708V55.271ZM78.2807 61.4942H79.7498C80.2191 61.4942 80.5489 61.4721 80.7394 61.4279C80.9298 61.3803 81.0947 61.2748 81.2342 61.1116C81.377 60.9484 81.4484 60.7477 81.4484 60.5097C81.4484 60.1628 81.3243 59.9112 81.076 59.7547C80.8312 59.5949 80.4112 59.515 79.8161 59.515H78.2807V61.4942ZM83.9071 59.9639C83.9071 59.4878 84.0244 59.027 84.2591 58.5815C84.4937 58.136 84.8253 57.796 85.2537 57.5613C85.6856 57.3267 86.1668 57.2093 86.6973 57.2093C87.5169 57.2093 88.1885 57.4763 88.7122 58.0102C89.2359 58.5407 89.4978 59.2123 89.4978 60.0251C89.4978 60.8447 89.2325 61.5248 88.702 62.0655C88.1749 62.6028 87.5101 62.8714 86.7075 62.8714C86.211 62.8714 85.7366 62.7592 85.2844 62.5348C84.8355 62.3103 84.4937 61.9822 84.2591 61.5503C84.0244 61.115 83.9071 60.5862 83.9071 59.9639ZM85.3762 60.0404C85.3762 60.5777 85.5037 60.9892 85.7587 61.2748C86.0138 61.5605 86.3284 61.7033 86.7024 61.7033C87.0765 61.7033 87.3894 61.5605 87.641 61.2748C87.8961 60.9892 88.0236 60.5743 88.0236 60.0302C88.0236 59.4997 87.8961 59.0916 87.641 58.806C87.3894 58.5203 87.0765 58.3775 86.7024 58.3775C86.3284 58.3775 86.0138 58.5203 85.7587 58.806C85.5037 59.0916 85.3762 59.5031 85.3762 60.0404ZM90.5843 57.3318H91.9207V58.1275C92.0942 57.8555 92.3288 57.6344 92.6247 57.4644C92.9205 57.2944 93.2487 57.2093 93.6092 57.2093C94.2383 57.2093 94.7722 57.4559 95.2109 57.949C95.6496 58.4421 95.8689 59.129 95.8689 60.0098C95.8689 60.9144 95.6479 61.6183 95.2058 62.1216C94.7637 62.6215 94.2281 62.8714 93.599 62.8714C93.2997 62.8714 93.0277 62.8119 92.7828 62.6929C92.5414 62.5739 92.2863 62.3698 92.0177 62.0808V64.8098H90.5843V57.3318ZM92.0024 59.9486C92.0024 60.5573 92.1231 61.0079 92.3645 61.3003C92.606 61.5894 92.9001 61.7339 93.247 61.7339C93.5803 61.7339 93.8574 61.6013 94.0785 61.336C94.2995 61.0674 94.41 60.6287 94.41 60.02C94.41 59.4521 94.2961 59.0304 94.0683 58.7549C93.8404 58.4795 93.5582 58.3418 93.2215 58.3418C92.8712 58.3418 92.5805 58.4778 92.3492 58.7498C92.118 59.0185 92.0024 59.4181 92.0024 59.9486ZM96.9758 57.3318H98.3531V60.7341L100.557 57.3318H101.965V62.749H100.587V59.2854L98.3531 62.749H96.9758V57.3318ZM108.162 58.9335L106.749 59.1885C106.702 58.9063 106.593 58.6937 106.423 58.5509C106.256 58.4081 106.039 58.3367 105.77 58.3367C105.413 58.3367 105.127 58.4608 104.913 58.709C104.702 58.9539 104.597 59.3654 104.597 59.9435C104.597 60.5862 104.704 61.0402 104.918 61.3054C105.136 61.5707 105.426 61.7033 105.79 61.7033C106.062 61.7033 106.285 61.6268 106.459 61.4738C106.632 61.3173 106.754 61.0504 106.826 60.6729L108.234 60.9127C108.087 61.5588 107.807 62.0468 107.392 62.3767C106.977 62.7065 106.421 62.8714 105.724 62.8714C104.932 62.8714 104.299 62.6215 103.826 62.1216C103.357 61.6217 103.123 60.9297 103.123 60.0455C103.123 59.1511 103.359 58.4557 103.832 57.9592C104.304 57.4593 104.944 57.2093 105.75 57.2093C106.409 57.2093 106.933 57.3522 107.321 57.6378C107.712 57.9201 107.992 58.352 108.162 58.9335ZM109.198 57.3318H114.008V62.749H112.575V58.4897H110.631V62.749H109.198V57.3318ZM115.569 56.5972V55.271H117.002V56.5972H115.569ZM115.569 62.749V57.3318H117.002V62.749H115.569ZM118.864 57.3318H123.664V62.749H122.236V58.4948H120.282V60.928C120.282 61.5469 120.211 61.9822 120.068 62.2338C119.925 62.4821 119.767 62.6453 119.594 62.7235C119.42 62.8017 119.141 62.8408 118.757 62.8408C118.529 62.8408 118.228 62.8102 117.854 62.749V61.6931C117.885 61.6931 117.965 61.6965 118.094 61.7033C118.244 61.7135 118.359 61.7186 118.441 61.7186C118.635 61.7186 118.754 61.6557 118.798 61.5299C118.842 61.4007 118.864 61.0453 118.864 60.4638V57.3318ZM125.149 57.3318H126.582V59.5813H128.02C128.585 59.5813 129.019 59.6221 129.321 59.7037C129.624 59.7853 129.876 59.9622 130.076 60.2342C130.277 60.5029 130.377 60.8157 130.377 61.1728C130.377 61.6965 130.197 62.091 129.836 62.3562C129.479 62.6181 128.942 62.749 128.225 62.749H125.149V57.3318ZM126.582 61.841H127.918C128.337 61.841 128.604 61.773 128.719 61.637C128.838 61.501 128.898 61.3394 128.898 61.1524C128.898 60.8906 128.796 60.7103 128.592 60.6117C128.391 60.5131 128.032 60.4638 127.515 60.4638H126.582V61.841Z" fill="white"/>
<path d="M46.4709 69.1003H48.9619C49.455 69.1003 49.8219 69.1216 50.0628 69.1641C50.3065 69.2038 50.5233 69.2888 50.7132 69.4191C50.9059 69.5495 51.066 69.7238 51.1935 69.942C51.3211 70.1574 51.3848 70.3997 51.3848 70.6689C51.3848 70.9608 51.3055 71.2286 51.1468 71.4723C50.9909 71.716 50.7784 71.8988 50.5092 72.0206C50.8889 72.1312 51.1808 72.3196 51.3848 72.586C51.5889 72.8524 51.6909 73.1655 51.6909 73.5254C51.6909 73.8088 51.6243 74.0851 51.4911 74.3543C51.3607 74.6207 51.1808 74.8347 50.9512 74.9962C50.7245 75.1549 50.444 75.2527 50.1096 75.2895C49.8999 75.3122 49.394 75.3264 48.592 75.332H46.4709V69.1003ZM47.7291 70.1375V71.5785H48.5538C49.044 71.5785 49.3487 71.5715 49.4677 71.5573C49.6831 71.5318 49.8517 71.4581 49.9736 71.3363C50.0983 71.2116 50.1606 71.0486 50.1606 70.8474C50.1606 70.6547 50.1068 70.4988 49.9991 70.3798C49.8942 70.258 49.7369 70.1843 49.5272 70.1588C49.4025 70.1446 49.044 70.1375 48.4518 70.1375H47.7291ZM47.7291 72.6158V74.2821H48.8938C49.3473 74.2821 49.6349 74.2693 49.7568 74.2438C49.9438 74.2098 50.0954 74.1276 50.2116 73.9973C50.3306 73.8641 50.3901 73.687 50.3901 73.4659C50.3901 73.2789 50.3448 73.1202 50.2541 72.9898C50.1634 72.8595 50.0317 72.7645 49.8588 72.705C49.6888 72.6455 49.3175 72.6158 48.7451 72.6158H47.7291ZM52.473 73.0111C52.473 72.6143 52.5708 72.2303 52.7664 71.8591C52.9619 71.4879 53.2382 71.2045 53.5953 71.0089C53.9552 70.8134 54.3562 70.7156 54.7982 70.7156C55.4812 70.7156 56.0409 70.9381 56.4773 71.383C56.9137 71.8251 57.132 72.3848 57.132 73.0621C57.132 73.7451 56.9109 74.3118 56.4688 74.7624C56.0296 75.2102 55.4755 75.4341 54.8068 75.4341C54.393 75.4341 53.9977 75.3405 53.6208 75.1535C53.2467 74.9665 52.9619 74.693 52.7664 74.3331C52.5708 73.9703 52.473 73.5297 52.473 73.0111ZM53.6973 73.0748C53.6973 73.5226 53.8036 73.8655 54.0161 74.1035C54.2286 74.3416 54.4908 74.4606 54.8025 74.4606C55.1142 74.4606 55.3749 74.3416 55.5847 74.1035C55.7972 73.8655 55.9035 73.5198 55.9035 73.0663C55.9035 72.6243 55.7972 72.2842 55.5847 72.0461C55.3749 71.8081 55.1142 71.6891 54.8025 71.6891C54.4908 71.6891 54.2286 71.8081 54.0161 72.0461C53.8036 72.2842 53.6973 72.6271 53.6973 73.0748ZM59.2149 75.332H58.0204V70.8177H59.1298V71.4595C59.3197 71.1563 59.4897 70.9565 59.6399 70.8602C59.793 70.7638 59.9658 70.7156 60.1585 70.7156C60.4306 70.7156 60.6927 70.7907 60.9449 70.9409L60.5751 71.9824C60.3739 71.852 60.1869 71.7868 60.014 71.7868C59.8468 71.7868 59.7051 71.8336 59.5889 71.9271C59.4727 72.0178 59.3806 72.1836 59.3126 72.4245C59.2475 72.6653 59.2149 73.1698 59.2149 73.9378V75.332ZM60.8982 70.8177H62.1692L63.2489 74.0228L64.3031 70.8177H65.5401L63.946 75.162L63.6612 75.9484C63.5564 76.212 63.4558 76.4132 63.3594 76.552C63.2659 76.6909 63.1568 76.8028 63.0321 76.8878C62.9102 76.9757 62.7586 77.0437 62.5773 77.0919C62.3987 77.1401 62.1961 77.1641 61.9694 77.1641C61.7399 77.1641 61.5146 77.1401 61.2935 77.0919L61.1872 76.1567C61.3743 76.1935 61.5429 76.212 61.6931 76.212C61.9708 76.212 62.1763 76.1298 62.3095 75.9654C62.4427 75.8039 62.5447 75.597 62.6155 75.3448L60.8982 70.8177ZM65.8887 74.044L67.0874 73.8612C67.1384 74.0936 67.2418 74.2707 67.3977 74.3926C67.5536 74.5116 67.7718 74.5711 68.0523 74.5711C68.3612 74.5711 68.5936 74.5145 68.7495 74.4011C68.8543 74.3218 68.9067 74.2155 68.9067 74.0823C68.9067 73.9916 68.8784 73.9165 68.8217 73.857C68.7622 73.8003 68.629 73.7479 68.4222 73.6997C67.4586 73.4872 66.8479 73.2931 66.59 73.1173C66.233 72.8736 66.0544 72.535 66.0544 72.1014C66.0544 71.7103 66.2089 71.3816 66.5178 71.1152C66.8267 70.8488 67.3056 70.7156 67.9546 70.7156C68.5724 70.7156 69.0314 70.8162 69.3318 71.0174C69.6322 71.2186 69.8391 71.5162 69.9525 71.9101L68.826 72.1184C68.7778 71.9427 68.6857 71.8081 68.5497 71.7146C68.4165 71.6211 68.2252 71.5743 67.9758 71.5743C67.6613 71.5743 67.436 71.6182 67.2999 71.7061C67.2093 71.7684 67.1639 71.8492 67.1639 71.9484C67.1639 72.0334 67.2036 72.1057 67.2829 72.1652C67.3906 72.2445 67.7619 72.3565 68.3967 72.501C69.0343 72.6455 69.4792 72.8226 69.7314 73.0323C69.9808 73.2449 70.1055 73.541 70.1055 73.9208C70.1055 74.3345 69.9326 74.6902 69.5869 74.9877C69.2411 75.2853 68.7296 75.4341 68.0523 75.4341C67.4374 75.4341 66.95 75.3094 66.59 75.06C66.233 74.8106 65.9992 74.4719 65.8887 74.044ZM71.1214 70.8177H72.2351V71.4808C72.3797 71.2541 72.5752 71.0699 72.8218 70.9282C73.0683 70.7865 73.3418 70.7156 73.6422 70.7156C74.1664 70.7156 74.6114 70.9211 74.9769 71.332C75.3425 71.7429 75.5253 72.3154 75.5253 73.0493C75.5253 73.8031 75.3411 74.3898 74.9727 74.8092C74.6043 75.2258 74.1579 75.4341 73.6337 75.4341C73.3843 75.4341 73.1576 75.3845 72.9535 75.2853C72.7523 75.1861 72.5398 75.0161 72.3159 74.7752V77.0494H71.1214V70.8177ZM72.3032 72.9983C72.3032 73.5056 72.4038 73.8811 72.605 74.1248C72.8062 74.3657 73.0513 74.4861 73.3404 74.4861C73.6181 74.4861 73.849 74.3756 74.0332 74.1546C74.2175 73.9307 74.3096 73.5651 74.3096 73.0578C74.3096 72.5846 74.2146 72.2332 74.0247 72.0036C73.8349 71.7741 73.5997 71.6593 73.3191 71.6593C73.0272 71.6593 72.7849 71.7727 72.5922 71.9994C72.3995 72.2233 72.3032 72.5562 72.3032 72.9983ZM76.4775 70.2055V69.1003H77.672V70.2055H76.4775ZM76.4775 75.332V70.8177H77.672V75.332H76.4775ZM78.9004 75.332V69.1003H80.0949V75.332H78.9004ZM84.6391 72.1949L83.5551 71.9994C83.677 71.563 83.8867 71.2399 84.1842 71.0302C84.4818 70.8205 84.9239 70.7156 85.5105 70.7156C86.0433 70.7156 86.44 70.7794 86.7007 70.9069C86.9614 71.0316 87.1442 71.1917 87.2491 71.3873C87.3568 71.58 87.4106 71.9356 87.4106 72.4542L87.3979 73.8485C87.3979 74.2452 87.4163 74.5385 87.4531 74.7284C87.4928 74.9155 87.5651 75.1167 87.6699 75.332H86.4882C86.457 75.2527 86.4187 75.1351 86.3734 74.9792C86.3536 74.9084 86.3394 74.8616 86.3309 74.8389C86.1269 75.0373 85.9086 75.1861 85.6763 75.2853C85.4439 75.3845 85.1959 75.4341 84.9324 75.4341C84.4676 75.4341 84.1006 75.3079 83.8314 75.0557C83.565 74.8035 83.4318 74.4847 83.4318 74.0993C83.4318 73.8442 83.4928 73.6175 83.6146 73.4192C83.7365 73.218 83.9065 73.0649 84.1247 72.9601C84.3458 72.8524 84.6632 72.7589 85.0769 72.6795C85.6352 72.5747 86.022 72.4769 86.2374 72.3862V72.2672C86.2374 72.0376 86.1807 71.8747 86.0673 71.7783C85.954 71.6792 85.74 71.6296 85.4255 71.6296C85.2129 71.6296 85.0471 71.6721 84.9281 71.7571C84.8091 71.8393 84.7127 71.9852 84.6391 72.1949ZM86.2374 73.1641C86.0843 73.2151 85.8421 73.276 85.5105 73.3469C85.1789 73.4177 84.9621 73.4872 84.8601 73.5552C84.7042 73.6657 84.6263 73.806 84.6263 73.976C84.6263 74.1432 84.6887 74.2877 84.8134 74.4096C84.938 74.5315 85.0967 74.5924 85.2894 74.5924C85.5048 74.5924 85.7103 74.5215 85.9058 74.3798C86.0503 74.2722 86.1453 74.1404 86.1906 73.9845C86.2218 73.8825 86.2374 73.6884 86.2374 73.4022V73.1641ZM88.5923 70.2055V69.1003H89.7868V70.2055H88.5923ZM88.5923 75.332V70.8177H89.7868V75.332H88.5923ZM92.1588 75.332H90.9643V70.8177H92.0738V71.4595C92.2636 71.1563 92.4337 70.9565 92.5839 70.8602C92.7369 70.7638 92.9098 70.7156 93.1025 70.7156C93.3745 70.7156 93.6367 70.7907 93.8889 70.9409L93.519 71.9824C93.3178 71.852 93.1308 71.7868 92.9579 71.7868C92.7907 71.7868 92.649 71.8336 92.5329 71.9271C92.4167 72.0178 92.3246 72.1836 92.2566 72.4245C92.1914 72.6653 92.1588 73.1698 92.1588 73.9378V75.332ZM94.3735 70.8177H95.4872V71.4808C95.6317 71.2541 95.8272 71.0699 96.0738 70.9282C96.3203 70.7865 96.5938 70.7156 96.8942 70.7156C97.4185 70.7156 97.8634 70.9211 98.229 71.332C98.5945 71.7429 98.7773 72.3154 98.7773 73.0493C98.7773 73.8031 98.5931 74.3898 98.2247 74.8092C97.8563 75.2258 97.41 75.4341 96.8857 75.4341C96.6363 75.4341 96.4096 75.3845 96.2056 75.2853C96.0044 75.1861 95.7918 75.0161 95.5679 74.7752V77.0494H94.3735V70.8177ZM95.5552 72.9983C95.5552 73.5056 95.6558 73.8811 95.857 74.1248C96.0582 74.3657 96.3033 74.4861 96.5924 74.4861C96.8701 74.4861 97.1011 74.3756 97.2853 74.1546C97.4695 73.9307 97.5616 73.5651 97.5616 73.0578C97.5616 72.5846 97.4667 72.2332 97.2768 72.0036C97.0869 71.7741 96.8517 71.6593 96.5711 71.6593C96.2793 71.6593 96.037 71.7727 95.8443 71.9994C95.6515 72.2233 95.5552 72.5562 95.5552 72.9983ZM99.4532 73.0111C99.4532 72.6143 99.551 72.2303 99.7465 71.8591C99.9421 71.4879 100.218 71.2045 100.575 71.0089C100.935 70.8134 101.336 70.7156 101.778 70.7156C102.461 70.7156 103.021 70.9381 103.457 71.383C103.894 71.8251 104.112 72.3848 104.112 73.0621C104.112 73.7451 103.891 74.3118 103.449 74.7624C103.01 75.2102 102.456 75.4341 101.787 75.4341C101.373 75.4341 100.978 75.3405 100.601 75.1535C100.227 74.9665 99.9421 74.693 99.7465 74.3331C99.551 73.9703 99.4532 73.5297 99.4532 73.0111ZM100.677 73.0748C100.677 73.5226 100.784 73.8655 100.996 74.1035C101.209 74.3416 101.471 74.4606 101.783 74.4606C102.094 74.4606 102.355 74.3416 102.565 74.1035C102.777 73.8655 102.884 73.5198 102.884 73.0663C102.884 72.6243 102.777 72.2842 102.565 72.0461C102.355 71.8081 102.094 71.6891 101.783 71.6891C101.471 71.6891 101.209 71.8081 100.996 72.0461C100.784 72.2842 100.677 72.6271 100.677 73.0748ZM106.195 75.332H105.001V70.8177H106.11V71.4595C106.3 71.1563 106.47 70.9565 106.62 70.8602C106.773 70.7638 106.946 70.7156 107.139 70.7156C107.411 70.7156 107.673 70.7907 107.925 70.9409L107.555 71.9824C107.354 71.852 107.167 71.7868 106.994 71.7868C106.827 71.7868 106.685 71.8336 106.569 71.9271C106.453 72.0178 106.361 72.1836 106.293 72.4245C106.228 72.6653 106.195 73.1698 106.195 73.9378V75.332ZM110.514 70.8177V71.7698H109.698V73.5892C109.698 73.9576 109.705 74.173 109.719 74.2353C109.736 74.2948 109.771 74.3444 109.825 74.3841C109.882 74.4238 109.95 74.4436 110.029 74.4436C110.14 74.4436 110.3 74.4054 110.51 74.3288L110.612 75.2555C110.334 75.3745 110.019 75.4341 109.668 75.4341C109.453 75.4341 109.258 75.3986 109.086 75.3278C108.913 75.2541 108.785 75.1606 108.703 75.0472C108.624 74.931 108.568 74.7752 108.537 74.5796C108.512 74.4408 108.499 74.1602 108.499 73.738V71.7698H107.951V70.8177H108.499V69.9207L109.698 69.2236V70.8177H110.514Z" fill="white"/>
<path d="M144.22 67.5417L145.88 67.3403C145.933 67.7635 146.075 68.087 146.307 68.3108C146.539 68.5346 146.82 68.6465 147.15 68.6465C147.504 68.6465 147.801 68.5122 148.041 68.2437C148.285 67.9751 148.407 67.613 148.407 67.1572C148.407 66.7259 148.291 66.3841 148.059 66.1318C147.827 65.8796 147.544 65.7534 147.211 65.7534C146.991 65.7534 146.729 65.7961 146.423 65.8816L146.613 64.4839C147.076 64.4961 147.43 64.3964 147.675 64.1848C147.919 63.9692 148.041 63.6843 148.041 63.3303C148.041 63.0292 147.951 62.7891 147.772 62.6101C147.593 62.4311 147.355 62.3416 147.058 62.3416C146.765 62.3416 146.515 62.4433 146.307 62.6467C146.1 62.8502 145.974 63.1472 145.929 63.5378L144.348 63.2693C144.458 62.7281 144.623 62.2968 144.843 61.9753C145.066 61.6498 145.376 61.3955 145.77 61.2124C146.169 61.0252 146.615 60.9316 147.107 60.9316C147.949 60.9316 148.625 61.2002 149.133 61.7373C149.552 62.1768 149.762 62.6732 149.762 63.2266C149.762 64.0119 149.333 64.6385 148.474 65.1064C148.987 65.2163 149.396 65.4625 149.701 65.845C150.01 66.2275 150.165 66.6893 150.165 67.2305C150.165 68.0158 149.878 68.6851 149.304 69.2385C148.73 69.7919 148.016 70.0686 147.162 70.0686C146.352 70.0686 145.681 69.8367 145.148 69.3728C144.615 68.9049 144.305 68.2945 144.22 67.5417Z" fill="white"/>
<path fill-rule="evenodd" clip-rule="evenodd" d="M187.5 65.2503L179.166 56.917H172.917L179.167 63.1663H160.417V67.333H179.168L172.917 73.5837H179.166L187.5 65.2503ZM181.25 65.251L181.251 65.2503L181.25 65.2497V65.251Z" fill="white"/>
</svg>
