<svg width="200" height="201" viewBox="0 0 200 201" fill="none" xmlns="http://www.w3.org/2000/svg">
<path d="M174.314 169.936H25.6864C18.3215 169.936 13.7368 161.963 17.4754 155.634L91.789 29.8214C95.4728 23.5848 104.527 23.5848 108.211 29.8214L182.525 155.634C186.263 161.963 181.679 169.936 174.314 169.936Z" fill="#FF0E00" stroke="black" stroke-width="1.04167"/>
<path d="M25.6864 167.331H174.314C179.681 167.331 182.986 161.535 180.283 156.958L105.969 31.1458C103.293 26.6156 96.7071 26.6156 94.0313 31.1458L19.7176 156.958C17.014 161.535 20.3189 167.331 25.6864 167.331Z" fill="#FF0E00" stroke="white" stroke-width="4.16667"/>
<path fill-rule="evenodd" clip-rule="evenodd" d="M35.9376 154.836L100 46.0986L164.063 154.836H35.9376Z" fill="white"/>
<path d="M89.5834 92.532L99.9992 84.0005L110.416 92.532L110.417 146.5L99.9992 138.408L89.5842 146.5L89.5834 92.532Z" fill="black"/>
<rect x="75.0001" y="104.834" width="14.5833" height="12.5" fill="black"/>
<rect x="110.417" y="104.834" width="14.5833" height="12.5" fill="black"/>
</svg>
