<svg width="204" height="201" viewBox="0 0 204 201" fill="none" xmlns="http://www.w3.org/2000/svg">
<rect x="1.47917" y="58.4323" width="201.039" height="84.3738" rx="8.85404" fill="white" stroke="#13141A" stroke-width="1.04165"/>
<rect x="6.16663" y="63.1191" width="191.664" height="74.9989" rx="4.16661" fill="#1071AF"/>
<path d="M41.5828 114.159L41.5828 87.0763L18.6664 100.618L41.5828 114.159Z" fill="white"/>
<path d="M68.6657 105.828L68.6657 95.4116L41.5828 95.4116L41.5828 105.828L68.6657 105.828Z" fill="white"/>
<path d="M118.665 80.8281H101.459C99.2161 80.8281 97.1452 82.0299 96.0325 83.9772L90.3222 93.9702C89.7826 94.9145 89.4987 95.9833 89.4987 97.071V114.161C89.4987 116.462 91.3642 118.328 93.6653 118.328H118.665V80.8281Z" fill="white"/>
<circle r="10.4169" transform="matrix(-1 0 0 1 105.123 117.285)" fill="white" stroke="#1071AF" stroke-width="2.0833"/>
<circle r="5.20826" transform="matrix(-1 0 0 1 105.124 117.285)" fill="#1071AF"/>
<path d="M93.6632 95.9351C93.2664 96.6295 93.7678 97.4935 94.5676 97.4935H114.499V84.9932H99.9157L93.6632 95.9351Z" fill="#1071AF"/>
<rect x="118.665" y="109.994" width="54.1659" height="8.33321" fill="white"/>
<path d="M122.832 76.6605C122.832 75.5099 123.764 74.5771 124.915 74.5771H170.748C171.898 74.5771 172.831 75.5099 172.831 76.6605V105.827H122.832V76.6605Z" fill="white"/>
<circle r="10.4169" transform="matrix(-1 0 0 1 153.039 117.285)" fill="white" stroke="#1071AF" stroke-width="2.0833"/>
<circle r="5.20826" transform="matrix(-1 0 0 1 153.039 117.284)" fill="#1071AF"/>
</svg>
