<svg width="200" height="201" viewBox="0 0 200 201" fill="none" xmlns="http://www.w3.org/2000/svg">
<rect x="1.56242" y="45.9792" width="196.875" height="109.375" rx="8.85417" fill="white" stroke="#13141A" stroke-width="1.04167"/>
<path d="M6.25 54.8337C6.25 52.5325 8.11548 50.667 10.4167 50.667H189.583C191.885 50.667 193.75 52.5325 193.75 54.8337V146.5C193.75 148.802 191.885 150.667 189.583 150.667H10.4167C8.11548 150.667 6.25 148.802 6.25 146.5V54.8337Z" fill="#1071AF"/>
<path d="M193.75 106.917H6.25001" stroke="white" stroke-width="1.04167"/>
<path d="M37.1816 90.25L18.75 77.75L37.1816 65.25L37.1816 72.3929L193.75 72.3929L193.75 83.1071L37.1816 83.1071L37.1816 90.25Z" fill="white"/>
<path fill-rule="evenodd" clip-rule="evenodd" d="M91.1118 118.524C90.9289 117.243 89.8318 116.292 88.5379 116.292H84.5935C84.0721 116.292 83.6494 116.715 83.6494 117.236C83.6494 117.757 84.0721 118.18 84.5935 118.18H88.5379C88.8922 118.18 89.1926 118.441 89.2427 118.791C89.2914 119.132 89.0895 119.459 88.7631 119.567L86.4871 120.326C86.2188 120.416 86.0047 120.621 85.9037 120.885C85.8028 121.149 85.8256 121.445 85.966 121.69L86.639 122.868H74.1763V121.368H76.8207C77.3421 121.368 77.7647 120.946 77.7647 120.424C77.7647 119.903 77.3421 119.48 76.8207 119.48L70.045 119.48C69.5236 119.48 69.101 119.903 69.101 120.424C69.101 120.946 69.5236 121.368 70.045 121.368H72.2882V123.528L69.4879 127.728C68.3412 127.138 67.0404 126.804 65.6617 126.804C61.0391 126.804 57.2917 130.552 57.2917 135.174C57.2917 139.797 61.0391 143.544 65.6617 143.544C69.9662 143.544 73.5118 140.295 73.9794 136.115H78.5877C78.6792 136.118 78.7719 136.107 78.863 136.082C79.0049 136.043 79.1369 135.971 79.2477 135.871L89.0147 127.025L89.8114 128.42C87.734 129.943 86.3852 132.401 86.3852 135.174C86.3852 139.797 90.1325 143.544 94.7551 143.544C99.3777 143.544 103.125 139.797 103.125 135.174C103.125 130.552 99.3777 126.804 94.7551 126.804C93.5814 126.804 92.4641 127.046 91.4502 127.482L88.1766 121.753L89.3601 121.359C90.5522 120.961 91.2896 119.768 91.1118 118.524ZM73.0933 125.724L71.0584 128.776C72.6499 130.12 73.7331 132.047 73.9787 134.227H77.1211L73.0933 125.724ZM70.0023 130.36C71.0957 131.347 71.8514 132.7 72.0749 134.227H67.4245L70.0023 130.36ZM65.6605 136.115H72.0758C71.62 139.249 68.922 141.656 65.6617 141.656C62.0819 141.656 59.1798 138.754 59.1798 135.174C59.1798 131.594 62.0819 128.692 65.6617 128.692C66.6527 128.692 67.5918 128.915 68.4317 129.312L64.875 134.647C64.6819 134.937 64.6639 135.31 64.8282 135.617C64.9924 135.924 65.3123 136.115 65.6605 136.115ZM92.395 129.135C93.1264 128.849 93.9224 128.692 94.7551 128.692C98.335 128.692 101.237 131.594 101.237 135.174C101.237 138.754 98.335 141.656 94.7551 141.656C91.1753 141.656 88.2733 138.754 88.2733 135.174C88.2733 133.103 89.2444 131.259 90.756 130.073L93.9373 135.64C94.196 136.093 94.7727 136.25 95.2254 135.991C95.6781 135.733 95.8353 135.156 95.5767 134.703L92.395 129.135ZM88.0554 125.347L87.7179 124.756H74.724L78.922 133.619L88.0554 125.347ZM129.797 117.419L141.667 129.919L129.797 142.419H120.897L129.867 132.973L107.292 132.973V126.865L129.867 126.865L120.897 117.419L129.797 117.419Z" fill="white"/>
</svg>
