<svg width="200" height="201" viewBox="0 0 200 201" fill="none" xmlns="http://www.w3.org/2000/svg">
<rect x="36.9792" y="12.3117" width="126.042" height="176.042" rx="8.85417" fill="white" stroke="#13141A" stroke-width="1.04167"/>
<rect x="41.6667" y="17" width="116.667" height="166.667" rx="4.16667" fill="#1071AF"/>
<rect x="50" y="54.5" width="100" height="37.5" fill="white"/>
<rect x="50" y="96.1675" width="100" height="37.5" fill="white"/>
<rect x="50" y="137.833" width="100" height="37.5" fill="white"/>
<path d="M56.6457 43.7314C60.0314 43.7314 62.4787 41.6129 62.7399 38.6432L62.7496 38.5368H59.9056L59.8863 38.6335C59.5187 40.2877 58.3385 41.255 56.6553 41.255C54.4208 41.255 52.9891 39.4364 52.9891 36.4957V36.486C52.9891 33.5646 54.4111 31.7654 56.6457 31.7654C58.3869 31.7654 59.5283 32.7714 59.8572 34.3095L59.8959 34.4739H62.7399L62.7303 34.3869C62.4691 31.4268 60.041 29.289 56.6457 29.289C52.5731 29.289 50 31.9975 50 36.4957V36.5053C50 41.0035 52.5635 43.7314 56.6457 43.7314Z" fill="#FFFCFC"/>
<path d="M65.1439 43.4896H74.3917V41.0809H68.0653V37.5694H74.0338V35.2865H68.0653V31.9395H74.3917V29.5308H65.1439V43.4896Z" fill="#FFFCFC"/>
<path d="M77.0955 43.4896H80.0169V39.0882H82.6965C85.6469 39.0882 87.6009 37.1922 87.6009 34.3192V34.2998C87.6009 31.4268 85.6469 29.5308 82.6965 29.5308H77.0955V43.4896ZM81.9903 31.8427C83.6638 31.8427 84.6408 32.723 84.6408 34.3095V34.3288C84.6408 35.9153 83.6638 36.8052 81.9903 36.8052H80.0169V31.8427H81.9903Z" fill="#FFFCFC"/>
<path d="M89.9178 43.4896H99.1656V41.0809H92.8392V37.5694H98.8077V35.2865H92.8392V31.9395H99.1656V29.5308H89.9178V43.4896Z" fill="#FFFCFC"/>
<path d="M103.524 46.2465V43.4896H112.704V46.2465H115.345V41.0809H113.603V29.5308H103.707L103.224 37.4243C103.108 39.3106 102.827 40.4037 101.85 41.0809H100.873V46.2465H103.524ZM105.913 37.6371L106.281 31.9395H110.682V41.0809H104.984V41.0035C105.603 40.278 105.807 39.2042 105.913 37.6371Z" fill="#FFFCFC"/>
<path d="M117.42 43.4896H120.341V37.6081H126.629V43.4896H129.55V29.5308H126.629V35.1994H120.341V29.5308H117.42V43.4896Z" fill="#FFFCFC"/>
<path d="M132.389 43.4896H135.311V29.5308H132.389V43.4896Z" fill="#FFFCFC"/>
<path d="M144.196 28.4764C146.392 28.4764 147.775 27.3156 147.775 25.4389V25.3325H145.666V25.4196C145.666 26.1838 145.105 26.8319 144.196 26.8319C143.267 26.8319 142.726 26.1838 142.726 25.4196V25.3325H140.617V25.4389C140.617 27.3156 142 28.4764 144.196 28.4764ZM138.169 43.4896H140.704L147.059 34.2805H147.088V43.4896H150V29.5308H147.446L141.11 38.6915H141.081V29.5308H138.169V43.4896Z" fill="#FFFCFC"/>
<path d="M99.5388 85.75H104.167V60.75H99.5233L93.75 65.2372V69.8803L99.4459 65.549H99.5388V85.75Z" fill="black"/>
<path d="M91.9325 129.5H108.333V125.413H98.1083V125.208L102.83 120.508C106.723 116.608 108.021 114.667 108.021 111.687V111.653C108.021 107.463 104.737 104.5 99.9688 104.5C95.2002 104.5 91.6667 107.753 91.6667 112.385V112.521H96.0445L96.0601 112.368C96.1227 110.154 97.6861 108.502 100 108.502C102.001 108.502 103.408 109.933 103.424 111.942V111.976C103.424 113.679 102.814 114.888 99.9063 117.851L91.9325 125.975V129.5Z" fill="black"/>
<path d="M100.008 169.083C105.009 169.083 108.333 166.169 108.333 161.849V161.815C108.333 158.533 106.256 156.457 103.08 156.122V156.022C105.588 155.436 107.547 153.476 107.547 150.462V150.429C107.547 146.628 104.579 144.083 99.963 144.083C95.4661 144.083 92.4533 146.829 92.1565 151.015L92.1417 151.216H96.2527L96.2675 151.065C96.4456 149.19 97.8704 147.967 99.963 147.967C102.07 147.967 103.302 149.139 103.302 151.099V151.132C103.302 153.091 101.848 154.431 99.6068 154.431H97.2174V158.031H99.6662C102.249 158.031 103.777 159.304 103.777 161.614V161.648C103.777 163.624 102.293 165.014 99.9927 165.014C97.6774 165.014 96.1636 163.724 95.9707 161.999L95.941 161.815H91.6667L91.6816 162.033C91.9784 166.202 95.1544 169.083 100.008 169.083Z" fill="black"/>
</svg>
