<svg width="200" height="200" viewBox="0 0 200 200" fill="none" xmlns="http://www.w3.org/2000/svg">
<rect x="36.9792" y="11.9792" width="126.042" height="176.042" rx="8.85417" fill="white" stroke="#13141A" stroke-width="1.04167"/>
<rect x="41.6667" y="16.667" width="116.667" height="166.667" rx="4.16667" fill="#1071AF"/>
<rect x="50" y="33.333" width="100" height="100" rx="4.16667" fill="white"/>
<path d="M67.5717 67.7413C68.2068 68.8071 69.691 69.3589 70.3653 68.857L82.2992 59.6716C81.6365 58.863 82.7132 57.3655 84.0235 56.0926C88.0202 52.2002 95.2791 55.7122 100.975 55.4914C106.604 55.2729 109.911 53.0759 118.636 58.7323C119.806 60.1618 119.645 60.5335 119.217 61.3322L132.478 67.9826C136.882 53.9171 123.974 42.9964 100.853 41.7509C77.731 40.5092 63.249 53.2445 67.3637 67.2611C67.4091 67.4358 67.4798 67.5914 67.5717 67.7413ZM71.23 73.1273C72.4774 75.1664 75.067 75.607 77.0462 74.1206L83.1296 69.5616C85.1088 68.0752 85.6989 65.2252 84.4535 63.1845L83.7397 62.0206C83.3253 61.3398 82.467 61.1892 81.8068 61.6839L70.9474 69.8464C70.2886 70.3434 70.1038 71.281 70.5197 71.9641L71.23 73.1273ZM117.051 68.8893C117.482 69.6571 118.128 70.3174 118.934 70.7506L125.536 74.2788C127.685 75.4357 130.212 74.5768 131.183 72.3576L131.738 71.1169C132.062 70.3759 131.727 69.4673 131.012 69.0819L119.233 62.7422C118.516 62.3584 117.67 62.6366 117.345 63.3753L116.802 64.6347C116.197 66.026 116.332 67.6099 117.051 68.8893Z" fill="black"/>
<path d="M64.5833 113.948L69.4965 113.333C69.7923 115.457 70.3894 117.017 71.2879 118.013C72.1977 119.009 73.4204 119.507 74.9558 119.507C76.5822 119.507 77.8048 119.068 78.6237 118.189C79.4539 117.295 79.8691 116.255 79.8691 115.068C79.8691 114.307 79.6928 113.662 79.3402 113.135C78.999 112.593 78.3962 112.124 77.5318 111.729C76.9404 111.465 75.5927 110.996 73.4886 110.322C70.7817 109.458 68.8824 108.396 67.7905 107.136C66.2551 105.364 65.4874 103.203 65.4874 100.654C65.4874 99.0134 65.8457 97.4826 66.5622 96.0616C67.2901 94.626 68.3308 93.5347 69.6842 92.7876C71.049 92.0405 72.6925 91.667 74.6146 91.667C77.7536 91.667 80.1136 92.5532 81.6945 94.3257C83.2868 96.0983 84.1227 98.464 84.2023 101.423L79.1525 101.709C78.9364 100.053 78.4701 98.8669 77.7536 98.1491C77.0485 97.4166 75.9851 97.0504 74.5634 97.0504C73.0962 97.0504 71.9475 97.4386 71.1173 98.215C70.5827 98.7131 70.3154 99.3796 70.3154 100.215C70.3154 100.976 70.5656 101.628 71.0661 102.17C71.703 102.859 73.2498 103.576 75.7064 104.324C78.1631 105.071 79.9771 105.847 81.1486 106.653C82.3314 107.444 83.2526 108.535 83.9123 109.927C84.5833 111.304 84.9188 113.01 84.9188 115.046C84.9188 116.892 84.5208 118.621 83.7246 120.232C82.9285 121.844 81.8025 123.045 80.3467 123.836C78.8909 124.612 77.0769 125 74.9046 125C71.7428 125 69.3146 124.063 67.6199 122.188C65.9253 120.298 64.9131 117.551 64.5833 113.948Z" fill="black"/>
<path d="M88.1432 108.52C88.1432 105.239 88.5242 102.485 89.2862 100.259C89.8549 98.6178 90.6283 97.1456 91.6064 95.8419C92.5959 94.5382 93.6763 93.5713 94.8478 92.9414C96.4059 92.0918 98.2029 91.667 100.239 91.667C103.924 91.667 106.869 93.1392 109.076 96.0836C111.294 99.028 112.403 103.122 112.403 108.367C112.403 113.567 111.305 117.639 109.11 120.584C106.915 123.513 103.981 124.978 100.307 124.978C96.5879 124.978 93.6308 123.521 91.4358 120.606C89.2407 117.676 88.1432 113.648 88.1432 108.52ZM93.3465 108.301C93.3465 111.948 94.0005 114.717 95.3084 116.607C96.6163 118.482 98.2769 119.419 100.29 119.419C102.303 119.419 103.952 118.489 105.237 116.629C106.534 114.753 107.182 111.948 107.182 108.213C107.182 104.521 106.551 101.767 105.289 99.9509C104.037 98.1344 102.371 97.2262 100.29 97.2262C98.2086 97.2262 96.531 98.1491 95.2572 99.9948C93.9834 101.826 93.3465 104.595 93.3465 108.301Z" fill="black"/>
<path d="M115.081 113.948L119.994 113.333C120.29 115.457 120.887 117.017 121.786 118.013C122.695 119.009 123.918 119.507 125.454 119.507C127.08 119.507 128.303 119.068 129.121 118.189C129.952 117.295 130.367 116.255 130.367 115.068C130.367 114.307 130.191 113.662 129.838 113.135C129.497 112.593 128.894 112.124 128.03 111.729C127.438 111.465 126.09 110.996 123.986 110.322C121.279 109.458 119.38 108.396 118.288 107.136C116.753 105.364 115.985 103.203 115.985 100.654C115.985 99.0134 116.343 97.4826 117.06 96.0616C117.788 94.626 118.829 93.5347 120.182 92.7876C121.547 92.0405 123.19 91.667 125.112 91.667C128.251 91.667 130.611 92.5532 132.192 94.3257C133.785 96.0983 134.62 98.464 134.7 101.423L129.65 101.709C129.434 100.053 128.968 98.8669 128.251 98.1491C127.546 97.4166 126.483 97.0504 125.061 97.0504C123.594 97.0504 122.445 97.4386 121.615 98.215C121.08 98.7131 120.813 99.3796 120.813 100.215C120.813 100.976 121.063 101.628 121.564 102.17C122.201 102.859 123.748 103.576 126.204 104.324C128.661 105.071 130.475 105.847 131.646 106.653C132.829 107.444 133.75 108.535 134.41 109.927C135.081 111.304 135.417 113.01 135.417 115.046C135.417 116.892 135.019 118.621 134.222 120.232C133.426 121.844 132.3 123.045 130.844 123.836C129.389 124.612 127.575 125 125.402 125C122.241 125 119.812 124.063 118.118 122.188C116.423 120.298 115.411 117.551 115.081 113.948Z" fill="black"/>
</svg>
