<svg width="200" height="200" viewBox="0 0 200 200" fill="none" xmlns="http://www.w3.org/2000/svg">
<rect x="36.9792" y="11.9792" width="126.042" height="176.042" rx="8.85417" fill="white" stroke="#13141A" stroke-width="1.04167"/>
<rect x="41.6667" y="16.6663" width="116.667" height="166.667" rx="4.16667" fill="#1071AF"/>
<rect x="50" y="33.3337" width="100" height="100" rx="4.16667" fill="white"/>
<path d="M102.769 62.7338C102.769 66.0151 100.147 68.6746 96.9124 68.6746C93.6781 68.6746 91.0556 66.0151 91.0556 62.7338C91.0556 59.453 93.6781 56.793 96.9124 56.793C100.147 56.793 102.769 59.453 102.769 62.7338Z" fill="black"/>
<path d="M92.3569 94.4846C92.3569 99.6529 88.2264 103.843 83.1311 103.843C78.0354 103.843 73.9048 99.6529 73.9048 94.4846C73.9048 89.3158 78.0354 85.1261 83.1311 85.1261C88.2264 85.1261 92.3569 89.3158 92.3569 94.4846Z" fill="black"/>
<path fill-rule="evenodd" clip-rule="evenodd" d="M67.8302 50H104.845C106.888 50.0297 109.962 52.8884 110.02 55.3695V111.103C109.933 113.752 107.089 116.527 104.143 116.615C92.2841 116.632 80.4259 116.649 68.5667 116.667C66.6085 116.646 62.5869 114.11 62.5591 110.837C62.4597 99.0529 62.5057 87.3455 62.5523 75.6051C62.5785 68.9709 62.6047 62.326 62.6047 55.6509C62.4638 53.4602 65.3255 50.1434 67.8302 50ZM96.9124 70.8664C101.34 70.8664 104.93 67.2251 104.93 62.7338C104.93 58.2419 101.34 54.6007 96.9124 54.6007C92.4841 54.6007 88.8943 58.2419 88.8943 62.7338C88.8943 67.2251 92.4841 70.8664 96.9124 70.8664ZM95.7614 94.4841C95.7614 101.56 90.1066 107.295 83.1311 107.295C76.1562 107.295 70.5014 101.56 70.5014 94.4841C70.5014 87.4092 76.1562 81.6733 83.1311 81.6733C90.1066 81.6733 95.7614 87.4092 95.7614 94.4841Z" fill="black"/>
<path d="M112.829 61.159H116.474V98.1227H112.829V61.159Z" fill="black"/>
<path d="M122.553 64.6171H118.909V98.1232H122.553V64.6171Z" fill="black"/>
<path d="M124.994 67.8888H128.638V73.3215H139.583V97.2886H128.638V104.853H128.464V105.039H112.829V101.223H124.994V67.8888Z" fill="black"/>
</svg>
