<svg width="200" height="201" viewBox="0 0 200 201" fill="none" xmlns="http://www.w3.org/2000/svg">
<rect x="1.56254" y="146.688" width="92.7084" height="196.875" rx="8.85417" transform="rotate(-90 1.56254 146.688)" fill="white" stroke="#13141A" stroke-width="1.04167"/>
<rect x="6.77083" y="141.479" width="82.2917" height="186.458" rx="3.64583" transform="rotate(-90 6.77083 141.479)" stroke="black" stroke-width="1.04167"/>
<path d="M6.25 129.5H193.75V137.833C193.75 140.135 191.885 142 189.583 142H10.4167C8.11548 142 6.25 140.135 6.25 137.833V129.5Z" fill="black"/>
<path d="M104.167 117H193.75V129.5H104.167V117Z" fill="black"/>
<path fill-rule="evenodd" clip-rule="evenodd" d="M123.418 79.834L128.669 65.467C129.246 63.8863 130.756 62.834 132.447 62.834H165.344C167.034 62.834 168.544 63.8863 169.122 65.467L174.373 79.834H175.036C177.256 79.834 179.056 81.6248 179.056 83.834V97.834C179.056 99.9631 177.384 101.704 175.275 101.827H122.531C120.422 101.704 118.75 99.9631 118.75 97.834V83.834C118.75 81.6248 120.55 79.834 122.77 79.834H123.418ZM128.765 79.834L133.151 67.834H164.64L169.025 79.834H128.765Z" fill="black"/>
<path d="M124.854 103.75V110.917C124.854 113.126 126.654 114.917 128.874 114.917H129.806C132.026 114.917 133.826 113.126 133.826 110.917V103.75H124.854Z" fill="black"/>
<path d="M163.979 103.75V110.917C163.979 113.126 165.779 114.917 168 114.917H168.932C171.152 114.917 172.952 113.126 172.952 110.917V103.75H163.979Z" fill="black"/>
</svg>
