<svg width="200" height="200" viewBox="0 0 200 200" fill="none" xmlns="http://www.w3.org/2000/svg">
<rect x="72.9167" y="15.625" width="56.25" height="27.0833" rx="4.16667" fill="#269E48"/>
<path d="M80.6825 36.7083V21.7953H91.74V24.3181H83.6935V27.6242H91.1805V30.1368H83.6935V34.1956H92.0248V36.7083H80.6825ZM105.351 36.7083V33.7074H99.2473V31.2049L105.717 21.7343H108.118V31.1947H109.969V33.7074H108.118V36.7083H105.351ZM105.351 31.1947V26.0983L101.923 31.1947H105.351ZM116.174 21.7343C117.619 21.7343 118.748 22.2497 119.562 23.2805C120.532 24.5012 121.017 26.5256 121.017 29.3535C121.017 32.1747 120.528 34.2024 119.552 35.4367C118.745 36.4539 117.619 36.9626 116.174 36.9626C114.723 36.9626 113.553 36.4065 112.665 35.2943C111.776 34.1753 111.332 32.1849 111.332 29.323C111.332 26.5154 111.821 24.4944 112.797 23.2602C113.604 22.2429 114.73 21.7343 116.174 21.7343ZM116.174 24.1045C115.829 24.1045 115.52 24.2164 115.249 24.4402C114.977 24.6572 114.767 25.0505 114.618 25.6202C114.421 26.3594 114.323 27.6038 114.323 29.3535C114.323 31.1032 114.411 32.3069 114.587 32.9648C114.764 33.6158 114.984 34.0498 115.249 34.2668C115.52 34.4839 115.829 34.5924 116.174 34.5924C116.52 34.5924 116.829 34.4839 117.1 34.2668C117.371 34.043 117.582 33.6463 117.731 33.0767C117.927 32.3442 118.026 31.1032 118.026 29.3535C118.026 27.6038 117.938 26.4035 117.761 25.7524C117.585 25.0946 117.361 24.6572 117.09 24.4402C116.825 24.2164 116.52 24.1045 116.174 24.1045Z" fill="white"/>
<rect x="70.8333" y="51.0413" width="60.4167" height="27.0833" rx="4.16667" fill="#FF0E00"/>
<path d="M78.5583 72.1245V57.2116H83.0647L85.7706 67.3841L88.446 57.2116H92.9626V72.1245H90.1651V60.3854L87.2049 72.1245H84.3057L81.3557 60.3854V72.1245H78.5583ZM95.6074 68.1471V65.2886H101.223V68.1471H95.6074ZM107.092 57.1506C108.537 57.1506 109.666 57.666 110.48 58.6968C111.449 59.9175 111.934 61.9418 111.934 64.7698C111.934 67.591 111.446 69.6187 110.469 70.8529C109.662 71.8702 108.537 72.3788 107.092 72.3788C105.641 72.3788 104.471 71.8227 103.583 70.7105C102.694 69.5916 102.25 67.6011 102.25 64.7393C102.25 61.9316 102.738 59.9107 103.715 58.6764C104.522 57.6592 105.648 57.1506 107.092 57.1506ZM107.092 59.5208C106.746 59.5208 106.438 59.6326 106.167 59.8564C105.895 60.0735 105.685 60.4668 105.536 61.0365C105.339 61.7757 105.241 63.0201 105.241 64.7698C105.241 66.5194 105.329 67.7232 105.505 68.381C105.682 69.0321 105.902 69.4661 106.167 69.6831C106.438 69.9001 106.746 70.0086 107.092 70.0086C107.438 70.0086 107.747 69.9001 108.018 69.6831C108.289 69.4593 108.499 69.0626 108.649 68.4929C108.845 67.7605 108.944 66.5194 108.944 64.7698C108.944 63.0201 108.855 61.8197 108.679 61.1687C108.503 60.5109 108.279 60.0735 108.008 59.8564C107.743 59.6326 107.438 59.5208 107.092 59.5208ZM121.171 72.1245H118.313V61.3518C117.268 62.3284 116.037 63.0506 114.62 63.5186V60.9246C115.366 60.6804 116.176 60.2193 117.051 59.5411C117.926 58.8561 118.526 58.0593 118.852 57.1506H121.171V72.1245Z" fill="white"/>
<rect x="70.8333" y="86.4587" width="58.3333" height="27.0833" rx="4.16667" fill="#FF0E00"/>
<path d="M78.6091 107.542V92.6291H81.6202V98.4986H87.5203V92.6291H90.5313V107.542H87.5203V101.021H81.6202V107.542H78.6091ZM93.3084 103.565V100.706H98.9237V103.565H93.3084ZM104.793 92.568C106.238 92.568 107.367 93.0834 108.181 94.1143C109.15 95.335 109.635 97.3593 109.635 100.187C109.635 103.008 109.147 105.036 108.17 106.27C107.363 107.288 106.238 107.796 104.793 107.796C103.342 107.796 102.172 107.24 101.284 106.128C100.395 105.009 99.9511 103.019 99.9511 100.157C99.9511 97.3491 100.439 95.3282 101.416 94.0939C102.223 93.0767 103.349 92.568 104.793 92.568ZM104.793 94.9382C104.447 94.9382 104.139 95.0501 103.868 95.2739C103.596 95.4909 103.386 95.8843 103.237 96.4539C103.04 97.1931 102.942 98.4376 102.942 100.187C102.942 101.937 103.03 103.141 103.206 103.799C103.383 104.45 103.603 104.884 103.868 105.101C104.139 105.318 104.447 105.426 104.793 105.426C105.139 105.426 105.448 105.318 105.719 105.101C105.99 104.877 106.2 104.48 106.35 103.91C106.546 103.178 106.645 101.937 106.645 100.187C106.645 98.4376 106.556 97.2372 106.38 96.5862C106.204 95.9284 105.98 95.4909 105.709 95.2739C105.444 95.0501 105.139 94.9382 104.793 94.9382ZM111.456 103.585L114.223 103.249C114.311 103.954 114.549 104.494 114.935 104.867C115.322 105.24 115.79 105.426 116.339 105.426C116.929 105.426 117.424 105.202 117.824 104.755C118.231 104.307 118.435 103.704 118.435 102.944C118.435 102.225 118.241 101.655 117.855 101.235C117.468 100.815 116.997 100.604 116.441 100.604C116.075 100.604 115.637 100.676 115.129 100.818L115.444 98.4884C116.217 98.5088 116.807 98.3426 117.214 97.99C117.621 97.6306 117.824 97.1558 117.824 96.5658C117.824 96.064 117.675 95.6639 117.377 95.3655C117.078 95.0671 116.682 94.9179 116.186 94.9179C115.698 94.9179 115.281 95.0874 114.935 95.4265C114.589 95.7656 114.379 96.2607 114.305 96.9117L111.67 96.4641C111.853 95.5621 112.128 94.8433 112.494 94.3075C112.867 93.765 113.382 93.3411 114.04 93.036C114.705 92.724 115.447 92.568 116.268 92.568C117.672 92.568 118.797 93.0156 119.645 93.9108C120.344 94.6432 120.693 95.4706 120.693 96.3929C120.693 97.7018 119.977 98.7461 118.546 99.526C119.401 99.7091 120.083 100.119 120.591 100.757C121.107 101.394 121.364 102.164 121.364 103.066C121.364 104.375 120.886 105.491 119.93 106.413C118.974 107.335 117.784 107.796 116.359 107.796C115.01 107.796 113.891 107.41 113.002 106.637C112.114 105.857 111.599 104.839 111.456 103.585Z" fill="white"/>
<rect x="70.8333" y="121.875" width="58.3333" height="27.0833" rx="4.16667" fill="#1071AF"/>
<path d="M78.599 142.958V128.045H83.4309C85.262 128.045 86.4555 128.12 87.0116 128.269C87.8661 128.493 88.5816 128.981 89.158 129.734C89.7345 130.48 90.0227 131.446 90.0227 132.633C90.0227 133.549 89.8566 134.318 89.5243 134.942C89.192 135.566 88.7681 136.058 88.2527 136.417C87.7441 136.77 87.2253 137.004 86.6963 137.119C85.9774 137.262 84.9364 137.333 83.5733 137.333H81.61V142.958H78.599ZM81.61 130.568V134.8H83.258C84.4448 134.8 85.2382 134.722 85.6383 134.566C86.0385 134.41 86.3504 134.166 86.5742 133.833C86.8048 133.501 86.9201 133.115 86.9201 132.674C86.9201 132.131 86.7607 131.684 86.442 131.331C86.1232 130.978 85.7197 130.758 85.2314 130.67C84.872 130.602 84.1498 130.568 83.0647 130.568H81.61ZM92.1488 138.981V136.122H97.764V138.981H92.1488ZM103.634 127.984C105.078 127.984 106.207 128.5 107.021 129.531C107.991 130.751 108.476 132.776 108.476 135.604C108.476 138.425 107.987 140.452 107.011 141.687C106.204 142.704 105.078 143.213 103.634 143.213C102.182 143.213 101.012 142.656 100.124 141.544C99.2356 140.425 98.7914 138.435 98.7914 135.573C98.7914 132.765 99.2797 130.744 100.256 129.51C101.063 128.493 102.189 127.984 103.634 127.984ZM103.634 130.354C103.288 130.354 102.979 130.466 102.708 130.69C102.437 130.907 102.226 131.301 102.077 131.87C101.88 132.609 101.782 133.854 101.782 135.604C101.782 137.353 101.87 138.557 102.047 139.215C102.223 139.866 102.443 140.3 102.708 140.517C102.979 140.734 103.288 140.842 103.634 140.842C103.979 140.842 104.288 140.734 104.559 140.517C104.831 140.293 105.041 139.896 105.19 139.327C105.387 138.594 105.485 137.353 105.485 135.604C105.485 133.854 105.397 132.653 105.22 132.002C105.044 131.345 104.82 130.907 104.549 130.69C104.285 130.466 103.979 130.354 103.634 130.354ZM117.712 142.958H114.854V132.186C113.809 133.162 112.579 133.884 111.161 134.352V131.758C111.907 131.514 112.718 131.053 113.592 130.375C114.467 129.69 115.067 128.893 115.393 127.984H117.712V142.958Z" fill="white"/>
<rect x="56.25" y="157.291" width="87.5" height="27.0833" rx="4.16667" fill="#1071AF"/>
<path d="M67.3726 178.375V165.984H62.9476V163.462H74.7986V165.984H70.3837V178.375H67.3726ZM76.4058 174.397V171.539H82.0211V174.397H76.4058ZM92.7124 175.719V178.375H82.6925C82.801 177.371 83.1265 176.421 83.669 175.526C84.2116 174.624 85.2831 173.431 86.8835 171.945C88.1721 170.745 88.9621 169.931 89.2537 169.504C89.6471 168.914 89.8438 168.331 89.8438 167.754C89.8438 167.117 89.6708 166.629 89.325 166.29C88.9859 165.944 88.5145 165.771 87.911 165.771C87.3142 165.771 86.8395 165.95 86.4868 166.31C86.1342 166.669 85.9307 167.266 85.8765 168.1L83.0282 167.815C83.1977 166.242 83.7301 165.113 84.6252 164.428C85.5204 163.743 86.6394 163.401 87.9822 163.401C89.4538 163.401 90.6101 163.797 91.451 164.591C92.2919 165.384 92.7124 166.371 92.7124 167.551C92.7124 168.222 92.5903 168.863 92.3462 169.474C92.1088 170.077 91.7291 170.711 91.2069 171.376C90.861 171.817 90.2371 172.451 89.3351 173.278C88.4332 174.105 87.8601 174.655 87.616 174.926C87.3786 175.197 87.1853 175.462 87.0361 175.719H92.7124ZM94.696 174.539L97.5444 174.244C97.6257 174.889 97.8665 175.401 98.2666 175.781C98.6667 176.154 99.1279 176.34 99.6501 176.34C100.247 176.34 100.752 176.099 101.166 175.618C101.579 175.129 101.786 174.397 101.786 173.42C101.786 172.505 101.579 171.82 101.166 171.366C100.759 170.904 100.227 170.674 99.5687 170.674C98.7481 170.674 98.0123 171.037 97.3612 171.762L95.0419 171.427L96.5068 163.665H104.065V166.34H98.6735L98.2259 168.873C98.8634 168.555 99.5144 168.395 100.179 168.395C101.447 168.395 102.522 168.856 103.404 169.779C104.285 170.701 104.726 171.898 104.726 173.37C104.726 174.597 104.37 175.692 103.658 176.655C102.688 177.971 101.342 178.629 99.6196 178.629C98.2429 178.629 97.1205 178.259 96.2524 177.52C95.3844 176.781 94.8656 175.787 94.696 174.539ZM106.537 174.397V171.539H112.152V174.397H106.537ZM118.022 163.401C119.466 163.401 120.595 163.916 121.409 164.947C122.379 166.167 122.864 168.192 122.864 171.02C122.864 173.841 122.375 175.869 121.399 177.103C120.592 178.12 119.466 178.629 118.022 178.629C116.57 178.629 115.401 178.073 114.512 176.961C113.624 175.842 113.18 173.851 113.18 170.989C113.18 168.182 113.668 166.161 114.644 164.926C115.451 163.909 116.577 163.401 118.022 163.401ZM118.022 165.771C117.676 165.771 117.367 165.883 117.096 166.106C116.825 166.323 116.614 166.717 116.465 167.286C116.269 168.026 116.17 169.27 116.17 171.02C116.17 172.769 116.258 173.973 116.435 174.631C116.611 175.282 116.831 175.716 117.096 175.933C117.367 176.15 117.676 176.259 118.022 176.259C118.368 176.259 118.676 176.15 118.947 175.933C119.219 175.709 119.429 175.313 119.578 174.743C119.775 174.01 119.873 172.769 119.873 171.02C119.873 169.27 119.785 168.07 119.609 167.419C119.432 166.761 119.208 166.323 118.937 166.106C118.673 165.883 118.368 165.771 118.022 165.771ZM132.1 178.375H129.242V167.602C128.198 168.578 126.967 169.301 125.549 169.769V167.175C126.295 166.93 127.106 166.469 127.981 165.791C128.855 165.106 129.456 164.309 129.781 163.401H132.1V178.375Z" fill="white"/>
</svg>
