<svg width="200" height="200" viewBox="0 0 200 200" fill="none" xmlns="http://www.w3.org/2000/svg">
<rect x="1.56254" y="146.353" width="92.7084" height="196.875" rx="8.85417" transform="rotate(-90 1.56254 146.353)" fill="white" stroke="#13141A" stroke-width="1.04167"/>
<rect x="6.25" y="141.667" width="83.3333" height="187.5" rx="4.16667" transform="rotate(-90 6.25 141.667)" fill="#FFE600"/>
<path fill-rule="evenodd" clip-rule="evenodd" d="M164.009 70.3818C163.909 67.9887 165.136 66.5706 166.944 66.671C168.752 66.7728 170.098 68.4439 169.966 71.7572L169.252 86.0784L170.266 86.7931C171.928 87.9639 172.916 89.8695 172.916 91.9021V112.453L160.47 94.9266V83.5047C160.47 81.9851 162.183 81.0967 163.425 81.972L164.54 82.758L164.009 70.3818ZM151.062 114.452L140.632 99.7658L112.006 102.093L123.53 118.32L151.062 114.452ZM61.6942 106.183L94.341 103.529L106.54 120.707L75.1405 125.118L61.6942 106.183ZM44.0288 107.62L58.1503 127.505L16.6666 133.333V109.844L44.0288 107.62Z" fill="black"/>
</svg>
