<svg width="200" height="200" viewBox="0 0 200 200" fill="none" xmlns="http://www.w3.org/2000/svg">
<path d="M25.6863 169.27H174.314C181.678 169.27 186.263 161.298 182.525 154.968L108.211 29.156C104.527 22.9194 95.4727 22.9194 91.7889 29.156L17.4753 154.968C13.7367 161.298 18.3214 169.27 25.6863 169.27Z" fill="#FF0E00" stroke="black" stroke-width="1.04167"/>
<path d="M174.314 166.666H25.6863C20.3188 166.666 17.0139 160.87 19.7175 156.293L94.0312 30.4804C96.707 25.9502 103.293 25.9502 105.969 30.4804L180.282 156.293C182.986 160.87 179.681 166.666 174.314 166.666Z" fill="#FF0E00" stroke="white" stroke-width="4.16667"/>
<path fill-rule="evenodd" clip-rule="evenodd" d="M164.062 154.167L99.9999 45.4298L35.9374 154.167H164.062Z" fill="white"/>
<path fill-rule="evenodd" clip-rule="evenodd" d="M84.8562 97.7648C82.5803 97.7648 80.6508 99.4383 80.3289 101.691C80.0163 103.879 81.3132 105.978 83.41 106.677L85.7398 107.453L79.7052 118.014C77.8234 117.181 75.7411 116.718 73.5507 116.718C65.1463 116.718 58.3333 123.531 58.3333 131.935C58.3333 140.34 65.1463 147.153 73.5507 147.153C81.955 147.153 88.7681 140.34 88.7681 131.935C88.7681 126.839 86.263 122.328 82.4172 119.567L83.9501 116.884L101.849 133.094C102.136 133.354 102.51 133.498 102.898 133.498H111.31C112.093 141.168 118.572 147.153 126.449 147.153C134.853 147.153 141.666 140.34 141.666 131.935C141.666 123.531 134.853 116.718 126.449 116.718C123.885 116.718 121.469 117.352 119.35 118.472L114.243 110.811V106.685H118.477C119.34 106.685 120.04 105.986 120.04 105.123C120.04 104.26 119.34 103.56 118.477 103.56L112.682 103.56L112.681 103.56L112.679 103.56L106.158 103.56C105.295 103.56 104.596 104.26 104.596 105.123C104.596 105.986 105.295 106.685 106.158 106.685L111.118 106.685V109.721L88.0431 109.721L89.3987 107.349C89.631 106.942 89.6687 106.453 89.5017 106.016C89.3346 105.579 88.9803 105.239 88.5362 105.091L84.3982 103.712C83.7342 103.491 83.3235 102.826 83.4225 102.133C83.5244 101.42 84.1355 100.89 84.8562 100.89H92.0276C92.8905 100.89 93.5901 100.19 93.5901 99.3273C93.5901 98.4643 92.8905 97.7648 92.0276 97.7648H84.8562ZM116.751 120.207L112.911 114.446L105.367 130.373H111.31C111.727 126.291 113.756 122.687 116.751 120.207ZM114.456 130.373C114.843 127.374 116.329 124.719 118.497 122.825L123.529 130.373H114.456ZM114.456 133.498H126.448C127.025 133.498 127.554 133.181 127.826 132.673C128.098 132.165 128.068 131.549 127.748 131.069L121.095 121.089C122.709 120.291 124.526 119.843 126.449 119.843C133.127 119.843 138.541 125.257 138.541 131.935C138.541 138.614 133.127 144.028 126.449 144.028C120.3 144.028 115.223 139.438 114.456 133.498ZM73.5507 119.843C75.1767 119.843 76.7278 120.164 78.144 120.746L72.1927 131.161C71.7645 131.91 72.0249 132.864 72.7741 133.293C73.5233 133.721 74.4778 133.46 74.9059 132.711L80.8561 122.298C83.7648 124.507 85.6431 128.002 85.6431 131.935C85.6431 138.614 80.2291 144.028 73.5507 144.028C66.8722 144.028 61.4583 138.614 61.4583 131.935C61.4583 125.257 66.8722 119.843 73.5507 119.843ZM86.2574 112.846L85.5377 114.106L102.386 129.365L110.211 112.846L86.2574 112.846Z" fill="black"/>
</svg>
