<svg width="200" height="201" viewBox="0 0 200 201" fill="none" xmlns="http://www.w3.org/2000/svg">
<rect x="36.9792" y="12.6457" width="126.042" height="176.042" rx="8.85417" fill="white" stroke="#13141A" stroke-width="1.04167"/>
<rect x="41.6667" y="17.3335" width="116.667" height="166.667" rx="4.16667" fill="#1071AF"/>
<rect x="50" y="34" width="100" height="100" rx="4.16667" fill="white"/>
<path fill-rule="evenodd" clip-rule="evenodd" d="M105.212 50.6675H94.7951V60.0464H85.4166V70.4631H94.7951V79.8341H105.212V70.4631H114.583V60.0464H105.212V50.6675Z" fill="#FF0E00"/>
<path fill-rule="evenodd" clip-rule="evenodd" d="M62.4999 79.8335C60.1987 79.8335 58.3333 81.699 58.3333 84.0002V125.667H66.6666V115.25L133.333 115.25V125.666H141.667V92.3325C141.667 90.0313 139.801 88.1659 137.5 88.1659C135.199 88.1659 133.333 90.0313 133.333 92.3325V102.75L66.6666 102.75V84.0002C66.6666 81.699 64.8011 79.8335 62.4999 79.8335ZM89.5833 92.3332C91.8845 92.3332 93.75 94.1987 93.75 96.4998C93.75 98.801 91.8845 100.667 89.5833 100.667H75C72.6988 100.667 70.8333 98.801 70.8333 96.4998C70.8333 94.1987 72.6988 92.3332 75 92.3332L89.5833 92.3332Z" fill="black"/>
</svg>
