<svg width="200" height="200" viewBox="0 0 200 200" fill="none" xmlns="http://www.w3.org/2000/svg">
<rect y="16.6663" width="200" height="166.667" fill="#68696C"/>
<path fill-rule="evenodd" clip-rule="evenodd" d="M85.6147 120.834C83.5347 120.834 81.7712 122.363 81.477 124.422C81.1914 126.422 82.3767 128.34 84.293 128.979L86.6972 129.78L80.871 139.976C79.0439 139.142 77.0128 138.677 74.8732 138.677C66.889 138.677 60.4166 145.149 60.4166 153.133C60.4166 161.117 66.889 167.59 74.8732 167.59C82.8573 167.59 89.3297 161.117 89.3297 153.133C89.3297 148.233 86.8911 143.901 83.1611 141.287L84.7118 138.573L101.867 154.11C102.11 154.33 102.426 154.452 102.753 154.452H110.73C111.395 161.818 117.587 167.59 125.127 167.59C133.111 167.59 139.583 161.117 139.583 153.133C139.583 145.149 133.111 138.677 125.127 138.677C122.632 138.677 120.286 139.309 118.238 140.421L113.366 133.113V128.979H117.554C118.282 128.979 118.873 128.388 118.873 127.659C118.873 126.931 118.282 126.34 117.554 126.34L105.851 126.34C105.122 126.34 104.531 126.931 104.531 127.659C104.531 128.388 105.122 128.979 105.851 128.979L110.727 128.979V132.193H88.3575L89.7869 129.692C89.983 129.349 90.0149 128.936 89.8738 128.566C89.7328 128.197 89.4335 127.911 89.0585 127.786L85.1275 126.475C84.421 126.24 83.9841 125.533 84.0894 124.796C84.1978 124.036 84.8479 123.473 85.6147 123.473H92.4275C93.1562 123.473 93.747 122.882 93.747 122.153C93.747 121.424 93.1562 120.834 92.4275 120.834H85.6147ZM116.043 141.886L112.241 136.183L104.837 151.813H110.73C111.092 147.809 113.087 144.277 116.043 141.886ZM113.382 151.813C113.726 148.724 115.259 145.995 117.515 144.094L122.661 151.813L113.382 151.813ZM113.382 154.452L125.126 154.452C125.613 154.452 126.06 154.184 126.289 153.755C126.519 153.326 126.494 152.805 126.224 152.4L119.709 142.628C121.332 141.789 123.174 141.316 125.127 141.316C131.653 141.316 136.944 146.607 136.944 153.133C136.944 159.66 131.653 164.951 125.127 164.951C119.046 164.951 114.037 160.358 113.382 154.452ZM74.8732 141.316C76.5363 141.316 78.1192 141.659 79.5547 142.279L73.7276 152.477C73.366 153.11 73.5858 153.916 74.2185 154.277C74.8512 154.639 75.6572 154.419 76.0188 153.786L81.8449 143.59C84.7828 145.74 86.6908 149.214 86.6908 153.133C86.6908 159.66 81.3999 164.951 74.8732 164.951C68.3465 164.951 63.0555 159.66 63.0555 153.133C63.0555 146.607 68.3465 141.316 74.8732 141.316ZM86.8496 134.832L86.0525 136.227L102.321 150.961L109.961 134.832H86.8496Z" fill="white"/>
<path d="M95.156 38.5421C95.156 41.4186 92.9084 43.7504 90.1358 43.7504C87.3632 43.7504 85.1156 41.4186 85.1156 38.5421C85.1156 35.6656 87.3632 33.3337 90.1358 33.3337C92.9084 33.3337 95.156 35.6656 95.156 38.5421Z" fill="white"/>
<path d="M86.0267 89.2045L90.2113 71.6215L94.3959 89.2045C94.7853 90.8404 96.3967 91.8227 97.9636 91.3793C99.4545 90.9575 100.362 89.3939 100.024 87.8294L94.1019 60.4171L95.106 54.1671L99.0597 65.1774C99.5025 66.4106 100.853 67.0044 102.015 66.477C103.074 65.9966 103.596 64.7513 103.215 63.6201L97.216 45.8384C97.0046 45.2117 96.4345 44.7921 95.7945 44.7921H84.6281C83.9881 44.7921 83.418 45.2117 83.2066 45.8384L77.2078 63.6201C76.8262 64.7513 77.3491 65.9966 78.4075 66.477C79.5695 67.0044 80.9201 66.4106 81.363 65.1774L85.3166 54.1671L86.3207 60.4171L80.3985 87.8294C80.0605 89.3939 80.9681 90.9575 82.459 91.3793C84.0259 91.8227 85.6373 90.8404 86.0267 89.2045Z" fill="white"/>
<path d="M116.787 65.5895C116.603 65.2876 116.283 65.1046 115.938 65.1046L110.346 65.1046C109.834 65.1046 109.325 65.1951 108.841 65.3722L101.04 68.2313C100.237 68.5241 99.787 69.4097 100.008 70.2626C100.24 71.1561 101.122 71.6894 101.986 71.4583L109.572 69.4282V76.5732L105.786 89.0215C105.466 90.0764 106.045 91.1933 107.099 91.5536C108.17 91.9195 109.34 91.3722 109.732 90.3226L112.977 81.6298L116.222 90.3226C116.614 91.3722 117.785 91.9195 118.856 91.5536C119.91 91.1933 120.489 90.0764 120.168 89.0215L116.383 76.5732V71.7469L120.022 77.0794C120.545 77.8455 121.576 78.0071 122.294 77.4352C122.947 76.9144 123.11 75.9626 122.67 75.24L116.787 65.5895Z" fill="white"/>
<path d="M113.229 64.0629C115.447 64.0629 117.245 62.1974 117.245 59.8962C117.245 57.5951 115.447 55.7296 113.229 55.7296C111.011 55.7296 109.212 57.5951 109.212 59.8962C109.212 62.1974 111.011 64.0629 113.229 64.0629Z" fill="white"/>
</svg>
