<svg width="200" height="200" viewBox="0 0 200 200" fill="none" xmlns="http://www.w3.org/2000/svg">
<rect y="16.6676" width="200" height="166.667" fill="#68696C"/>
<path d="M16.6666 109.124L22.069 108.124C22.3941 111.576 23.0507 114.111 24.0386 115.73C25.039 117.348 26.3834 118.158 28.0716 118.158C29.8599 118.158 31.2042 117.444 32.1046 116.015C33.0175 114.563 33.474 112.873 33.474 110.945C33.474 109.707 33.2801 108.66 32.8925 107.803C32.5173 106.922 31.8545 106.16 30.9041 105.518C30.2538 105.089 28.7719 104.327 26.4584 103.232C23.4821 101.828 21.3937 100.102 20.1932 98.0549C18.5049 95.1746 17.6608 91.6635 17.6608 87.5215C17.6608 84.8555 18.0547 82.3679 18.8426 80.0589C19.6429 77.7261 20.7872 75.9526 22.2753 74.7386C23.776 73.5246 25.583 72.9176 27.6965 72.9176C31.148 72.9176 33.7428 74.3578 35.4811 77.2381C37.2319 80.1184 38.151 83.9628 38.2386 88.7713L32.6861 89.2354C32.4485 86.5456 31.9358 84.6174 31.148 83.451C30.3726 82.2608 29.2034 81.6657 27.6402 81.6657C26.027 81.6657 24.7639 82.2965 23.851 83.5581C23.2633 84.3675 22.9694 85.4506 22.9694 86.8074C22.9694 88.0452 23.2445 89.1045 23.7947 89.9853C24.4951 91.1041 26.1958 92.2705 28.897 93.4845C31.5982 94.6985 33.5928 95.9602 34.8808 97.2694C36.1814 98.5548 37.1944 100.328 37.9197 102.59C38.6575 104.827 39.0264 107.6 39.0264 110.909C39.0264 113.909 38.5887 116.717 37.7133 119.336C36.8379 121.954 35.5999 123.906 33.9992 125.192C32.3985 126.453 30.4039 127.084 28.0153 127.084C24.5388 127.084 21.8689 125.561 20.0056 122.514C18.1423 119.443 17.0293 114.98 16.6666 109.124Z" fill="white"/>
<path d="M62.2528 106.91L67.6364 110.159C66.8111 115.872 65.4355 120.122 63.5096 122.907C61.5963 125.668 59.164 127.049 56.2127 127.049C52.5611 127.049 49.5598 124.68 47.2087 119.943C44.8577 115.182 43.6822 108.684 43.6822 100.447C43.6822 91.7349 44.864 84.9745 47.2275 80.166C49.591 75.3337 52.6986 72.9176 56.5503 72.9176C59.9143 72.9176 62.6467 74.81 64.7477 78.5949C65.9982 80.8325 66.9361 84.0461 67.5614 88.2357L62.0652 90.7351C61.7401 88.0214 61.0585 85.879 60.0206 84.308C58.9951 82.7369 57.7446 81.9513 56.2689 81.9513C54.2306 81.9513 52.5736 83.3439 51.298 86.129C50.035 88.9141 49.4034 93.425 49.4034 99.6617C49.4034 106.279 50.0287 110.993 51.2793 113.801C52.5298 116.61 54.1555 118.015 56.1564 118.015C57.632 118.015 58.9014 117.122 59.9643 115.337C61.0273 113.552 61.7901 110.743 62.2528 106.91Z" fill="white"/>
<path d="M73.3989 126.156V73.8103H78.9514V94.4129H89.8311V73.8103H95.3836V126.156H89.8311V103.268H78.9514V126.156H73.3989Z" fill="white"/>
<path d="M100.977 100.304C100.977 94.9723 101.396 90.4971 102.234 86.8788C102.859 84.2127 103.71 81.8204 104.785 79.7018C105.873 77.5832 107.061 76.0122 108.349 74.9886C110.062 73.6079 112.038 72.9176 114.277 72.9176C118.329 72.9176 121.568 75.3099 123.994 80.0946C126.432 84.8793 127.651 91.5326 127.651 100.054C127.651 108.505 126.445 115.123 124.031 119.907C121.618 124.668 118.391 127.049 114.352 127.049C110.263 127.049 107.011 124.68 104.598 119.943C102.184 115.182 100.977 108.636 100.977 100.304ZM106.699 99.9474C106.699 105.875 107.418 110.374 108.856 113.444C110.294 116.491 112.12 118.015 114.333 118.015C116.547 118.015 118.36 116.503 119.773 113.48C121.199 110.433 121.911 105.875 121.911 99.8046C121.911 93.8059 121.217 89.3307 119.829 86.3789C118.454 83.4272 116.622 81.9513 114.333 81.9513C112.045 81.9513 110.2 83.451 108.799 86.4503C107.399 89.4259 106.699 93.9249 106.699 99.9474Z" fill="white"/>
<path d="M131.838 100.304C131.838 94.9723 132.257 90.4971 133.095 86.8788C133.72 84.2127 134.571 81.8204 135.646 79.7018C136.734 77.5832 137.922 76.0122 139.21 74.9886C140.923 73.6079 142.899 72.9176 145.138 72.9176C149.19 72.9176 152.429 75.3099 154.855 80.0946C157.293 84.8793 158.512 91.5326 158.512 100.054C158.512 108.505 157.306 115.123 154.892 119.907C152.479 124.668 149.252 127.049 145.213 127.049C141.124 127.049 137.872 124.68 135.459 119.943C133.045 115.182 131.838 108.636 131.838 100.304ZM137.56 99.9474C137.56 105.875 138.279 110.374 139.717 113.444C141.155 116.491 142.981 118.015 145.194 118.015C147.408 118.015 149.221 116.503 150.634 113.48C152.06 110.433 152.772 105.875 152.772 99.8046C152.772 93.8059 152.078 89.3307 150.69 86.3789C149.315 83.4272 147.483 81.9513 145.194 81.9513C142.906 81.9513 141.061 83.451 139.66 86.4503C138.26 89.4259 137.56 93.9249 137.56 99.9474Z" fill="white"/>
<path d="M163.975 126.156V74.2387H169.527V117.336H183.333V126.156H163.975Z" fill="white"/>
</svg>
