<svg width="204" height="201" viewBox="0 0 204 201" fill="none" xmlns="http://www.w3.org/2000/svg">
<rect x="202.518" y="41.6264" width="117.707" height="201.039" rx="8.85404" transform="rotate(90 202.518 41.6264)" fill="white" stroke="#13141A" stroke-width="1.04165"/>
<rect x="197.83" y="46.3115" width="108.332" height="191.664" rx="4.16661" transform="rotate(90 197.83 46.3115)" fill="#1071AF"/>
<path d="M88.4571 79.6456L115.54 79.6456L101.999 56.7292L88.4571 79.6456Z" fill="white"/>
<path d="M101.998 79.646V154.645" stroke="white" stroke-width="10.4165"/>
<path d="M23.8747 121.311L50.9576 121.311L37.4162 144.228L23.8747 121.311Z" fill="white"/>
<path d="M37.4161 121.311V46.3123" stroke="white" stroke-width="10.4165"/>
<path d="M153.039 79.6456L180.122 79.6456L166.581 56.7292L153.039 79.6456Z" fill="white"/>
<path d="M166.581 79.646V154.645" stroke="white" stroke-width="10.4165"/>
<path fill-rule="evenodd" clip-rule="evenodd" d="M133.248 46.3115H135.331V58.3489H133.248V46.3115ZM135.331 62.3628H133.248V74.4002H135.331V62.3628ZM133.248 78.4092H135.331V90.4466H133.248V78.4092ZM133.248 94.4595H135.331V106.497H133.248V94.4595ZM135.331 110.508H133.248V122.545H135.331V110.508ZM133.248 126.556H135.331V138.593H133.248V126.556ZM135.331 142.608H133.248V154.646H135.331V142.608Z" fill="white"/>
<rect x="68.6657" y="46.3115" width="2.0833" height="108.332" fill="white"/>
</svg>
