<svg width="200" height="201" viewBox="0 0 200 201" fill="none" xmlns="http://www.w3.org/2000/svg">
<rect x="-0.520833" y="-0.520833" width="101.042" height="196.875" rx="8.85417" transform="matrix(4.37114e-08 1 1 -4.37114e-08 2.08337 50.332)" fill="white" stroke="#13141A" stroke-width="1.04167"/>
<rect x="0.520833" y="0.520833" width="90.625" height="186.458" rx="3.64583" transform="matrix(4.37114e-08 1 1 -4.37114e-08 6.25 54.4993)" stroke="black" stroke-width="1.04167"/>
<path fill-rule="evenodd" clip-rule="evenodd" d="M160.049 111.958L160.049 102.417L185.417 118.042L160.049 133.667L160.049 124.133L39.951 124.133L39.951 133.667L14.5834 118.042L39.951 102.417L39.951 111.958L160.049 111.958Z" fill="black"/>
<path d="M37.9705 93.6645H33.22V75.9792C31.4844 77.5824 29.4389 78.7681 27.0834 79.5363V75.2778C28.3231 74.877 29.6699 74.1199 31.1238 73.0065C32.5776 71.8821 33.5751 70.5739 34.116 69.082H37.9705V93.6645Z" fill="black"/>
<path d="M50.2325 69.082C52.6331 69.082 54.5096 69.9282 55.8621 71.6204C57.4737 73.6244 58.2795 76.9478 58.2795 81.5904C58.2795 86.2219 57.4681 89.5507 55.8451 91.577C54.504 93.247 52.6331 94.082 50.2325 94.082C47.8207 94.082 45.8766 93.1691 44.4002 91.3432C42.9238 89.5062 42.1856 86.2386 42.1856 81.5403C42.1856 76.9311 42.997 73.6133 44.6199 71.587C45.9611 69.917 47.832 69.082 50.2325 69.082ZM50.2325 72.9731C49.6578 72.9731 49.145 73.1568 48.6941 73.5242C48.2433 73.8805 47.894 74.5263 47.646 75.4615C47.3192 76.675 47.1558 78.718 47.1558 81.5904C47.1558 84.4628 47.3023 86.439 47.5953 87.5189C47.8883 88.5877 48.2546 89.3002 48.6941 89.6565C49.145 90.0128 49.6578 90.1909 50.2325 90.1909C50.8073 90.1909 51.3201 90.0128 51.7709 89.6565C52.2217 89.2891 52.5711 88.6378 52.8191 87.7026C53.1459 86.5002 53.3093 84.4628 53.3093 81.5904C53.3093 78.718 53.1628 76.7474 52.8698 75.6786C52.5768 74.5986 52.2048 73.8805 51.754 73.5242C51.3145 73.1568 50.8073 72.9731 50.2325 72.9731Z" fill="black"/>
<path d="M62.6242 75.9291H68.5073L72.9703 88.2871L77.4672 75.9291H83.3334V93.6645H79.293V81.9912L74.9145 93.6645H70.8572L66.6815 81.9912V93.6645H62.6242V75.9291Z" fill="black"/>
<path d="M127.554 93.6645H122.803V75.9792C121.068 77.5824 119.022 78.7681 116.667 79.5363V75.2778C117.906 74.877 119.253 74.1199 120.707 73.0065C122.161 71.8821 123.158 70.5739 123.699 69.082H127.554V93.6645Z" fill="black"/>
<path d="M139.816 69.082C142.216 69.082 144.093 69.9282 145.445 71.6204C147.057 73.6244 147.863 76.9478 147.863 81.5904C147.863 86.2219 147.051 89.5507 145.428 91.577C144.087 93.247 142.216 94.082 139.816 94.082C137.404 94.082 135.46 93.1691 133.983 91.3432C132.507 89.5062 131.769 86.2386 131.769 81.5403C131.769 76.9311 132.58 73.6133 134.203 71.587C135.544 69.917 137.415 69.082 139.816 69.082ZM139.816 72.9731C139.241 72.9731 138.728 73.1568 138.277 73.5242C137.827 73.8805 137.477 74.5263 137.229 75.4615C136.902 76.675 136.739 78.718 136.739 81.5904C136.739 84.4628 136.886 86.439 137.179 87.5189C137.472 88.5877 137.838 89.3002 138.277 89.6565C138.728 90.0128 139.241 90.1909 139.816 90.1909C140.391 90.1909 140.903 90.0128 141.354 89.6565C141.805 89.2891 142.154 88.6378 142.402 87.7026C142.729 86.5002 142.893 84.4628 142.893 81.5904C142.893 78.718 142.746 76.7474 142.453 75.6786C142.16 74.5986 141.788 73.8805 141.337 73.5242C140.898 73.1568 140.391 72.9731 139.816 72.9731Z" fill="black"/>
<path d="M152.207 75.9291H158.091L162.554 88.2871L167.05 75.9291H172.917V93.6645H168.876V81.9912L164.498 93.6645H160.44L156.265 81.9912V93.6645H152.207V75.9291Z" fill="black"/>
<path d="M100 55.5417V145.125" stroke="black" stroke-width="1.04167"/>
</svg>
