<svg width="200" height="201" viewBox="0 0 200 201" fill="none" xmlns="http://www.w3.org/2000/svg">
<rect x="0.520833" y="-0.520833" width="184.375" height="180.208" rx="8.85417" transform="matrix(-1 0 0 1 192.708 11.083)" fill="white" stroke="#13141A" stroke-width="1.04167"/>
<rect width="175" height="170.833" rx="4.16667" transform="matrix(-1 0 0 1 187.5 15.25)" fill="#00AC5A"/>
<path d="M27.0833 31.916V179.833" stroke="white" stroke-width="6.25"/>
<path d="M16.6667 38.0675L27.0834 27.75L37.5001 38.0675V46.5L27.0834 36.1825L16.6667 46.5V38.0675Z" fill="white"/>
<path d="M62.5993 131.916L72.9167 142.333L62.5993 152.749L54.1667 152.749L64.4842 142.333L54.1667 131.916L62.5993 131.916Z" fill="white"/>
<path d="M43.6507 96.5L33.3333 106.917L43.6507 117.333L52.0833 117.333L41.7658 106.917L52.0833 96.5L43.6507 96.5Z" fill="white"/>
<path d="M67.7083 142.333H41.6666C33.6124 142.333 27.0833 148.862 27.0833 156.916V167.333" stroke="white" stroke-width="6.25"/>
<path d="M27.0833 89.2083C27.0833 79.4283 35.0115 71.5 44.7916 71.5C54.5716 71.5 62.4999 79.4283 62.4999 89.2083C62.4999 98.9884 54.5716 106.917 44.7916 106.917H38.5416" stroke="white" stroke-width="6.25"/>
<path d="M56.25 25.6663C56.25 24.5157 57.1827 23.583 58.3333 23.583H93.75C94.9006 23.583 95.8333 24.5157 95.8333 25.6663V42.333H56.25V25.6663Z" fill="#FF0E00" stroke="white" stroke-width="1.04167"/>
<path d="M56.25 42.333H95.8333V58.9997C95.8333 60.1503 94.9006 61.083 93.75 61.083H58.3333C57.1827 61.083 56.25 60.1503 56.25 58.9997V42.333Z" stroke="white" stroke-width="1.04167"/>
<rect x="77.0833" y="71.5" width="93.75" height="41.6667" rx="4.16667" fill="#1071AF" stroke="white" stroke-width="1.04167"/>
<rect x="77.0833" y="123.583" width="104.167" height="37.5" rx="4.16667" fill="#1071AF" stroke="white" stroke-width="1.04167"/>
<path d="M62.5101 37.373V28.4253H65.214L66.8375 34.5288L68.4427 28.4253H71.1527V37.373H69.4742V30.3296L67.6981 37.373H65.9586L64.1886 30.3296V37.373H62.5101Z" fill="white"/>
<path d="M72.7396 34.9866V33.2715H76.1088V34.9866H72.7396Z" fill="white"/>
<path d="M79.6305 28.3887C80.4972 28.3887 81.1747 28.6979 81.663 29.3164C82.2448 30.0488 82.5358 31.2634 82.5358 32.9602C82.5358 34.6529 82.2428 35.8695 81.6569 36.6101C81.1726 37.2205 80.4972 37.5256 79.6305 37.5256C78.7597 37.5256 78.0578 37.192 77.5248 36.5247C76.9917 35.8533 76.7252 34.659 76.7252 32.9419C76.7252 31.2573 77.0182 30.0448 77.6041 29.3042C78.0883 28.6938 78.7638 28.3887 79.6305 28.3887ZM79.6305 29.8108C79.423 29.8108 79.2378 29.8779 79.0751 30.0122C78.9123 30.1424 78.7862 30.3784 78.6967 30.7202C78.5787 31.1637 78.5197 31.9104 78.5197 32.9602C78.5197 34.01 78.5725 34.7323 78.6783 35.127C78.7841 35.5176 78.9164 35.778 79.0751 35.9082C79.2378 36.0384 79.423 36.1035 79.6305 36.1035C79.838 36.1035 80.0232 36.0384 80.1859 35.9082C80.3487 35.7739 80.4748 35.5359 80.5643 35.1941C80.6823 34.7546 80.7413 34.01 80.7413 32.9602C80.7413 31.9104 80.6884 31.1902 80.5826 30.7996C80.4768 30.4049 80.3426 30.1424 80.1798 30.0122C80.0211 29.8779 79.838 29.8108 79.6305 29.8108Z" fill="white"/>
<path d="M83.6283 34.9988L85.2885 34.7974C85.3413 35.2205 85.4838 35.544 85.7157 35.7678C85.9476 35.9916 86.2284 36.1035 86.558 36.1035C86.912 36.1035 87.209 35.9692 87.4491 35.7007C87.6932 35.4321 87.8153 35.07 87.8153 34.6143C87.8153 34.1829 87.6993 33.8411 87.4674 33.5889C87.2355 33.3366 86.9527 33.2104 86.619 33.2104C86.3993 33.2104 86.1368 33.2532 85.8317 33.3386L86.0209 31.9409C86.4847 31.9531 86.8387 31.8534 87.0829 31.6418C87.327 31.4262 87.4491 31.1414 87.4491 30.7874C87.4491 30.4862 87.3596 30.2462 87.1805 30.0671C87.0015 29.8881 86.7635 29.7986 86.4664 29.7986C86.1735 29.7986 85.9232 29.9003 85.7157 30.1038C85.5082 30.3072 85.382 30.6042 85.3373 30.9949L83.7565 30.7263C83.8663 30.1851 84.0311 29.7538 84.2509 29.4324C84.4746 29.1069 84.7839 28.8525 85.1786 28.6694C85.5774 28.4823 86.0229 28.3887 86.5153 28.3887C87.3575 28.3887 88.033 28.6572 88.5416 29.1943C88.9607 29.6338 89.1703 30.1302 89.1703 30.6836C89.1703 31.4689 88.741 32.0955 87.8824 32.5635C88.3951 32.6733 88.8041 32.9195 89.1093 33.302C89.4185 33.6845 89.5731 34.1463 89.5731 34.6875C89.5731 35.4728 89.2863 36.1422 88.7125 36.6956C88.1388 37.2489 87.4247 37.5256 86.5702 37.5256C85.7605 37.5256 85.0891 37.2937 84.556 36.8298C84.023 36.3619 83.7137 35.7515 83.6283 34.9988Z" fill="white"/>
<path d="M63.9414 56.123V47.1753H70.5759V48.689H65.748V50.6726H70.2402V52.1802H65.748V54.6155H70.7468V56.123H63.9414Z" fill="white"/>
<path d="M78.7424 56.123V54.3225H75.0803V52.821L78.9622 47.1387H80.4026V52.8149H81.5134V54.3225H80.4026V56.123H78.7424ZM78.7424 52.8149V49.7571L76.6855 52.8149H78.7424Z" fill="white"/>
<path d="M85.2366 47.1387C86.1033 47.1387 86.7808 47.4479 87.269 48.0664C87.8509 48.7988 88.1418 50.0134 88.1418 51.7102C88.1418 53.4029 87.8489 54.6195 87.2629 55.3601C86.7787 55.9705 86.1033 56.2756 85.2366 56.2756C84.3658 56.2756 83.6639 55.942 83.1309 55.2747C82.5978 54.6033 82.3313 53.409 82.3313 51.6919C82.3313 50.0073 82.6243 48.7948 83.2102 48.0542C83.6944 47.4438 84.3699 47.1387 85.2366 47.1387ZM85.2366 48.5608C85.0291 48.5608 84.8439 48.6279 84.6812 48.7622C84.5184 48.8924 84.3923 49.1284 84.3027 49.4702C84.1847 49.9137 84.1257 50.6604 84.1257 51.7102C84.1257 52.76 84.1786 53.4823 84.2844 53.877C84.3902 54.2676 84.5225 54.528 84.6812 54.6582C84.8439 54.7884 85.0291 54.8535 85.2366 54.8535C85.4441 54.8535 85.6292 54.7884 85.792 54.6582C85.9548 54.5239 86.0809 54.2859 86.1704 53.9441C86.2884 53.5046 86.3474 52.76 86.3474 51.7102C86.3474 50.6604 86.2945 49.9402 86.1887 49.5496C86.0829 49.1549 85.9486 48.8924 85.7859 48.7622C85.6272 48.6279 85.4441 48.5608 85.2366 48.5608Z" fill="white"/>
<path d="M122.917 89.4536L125.975 84.7844L123.204 80.5059H125.315L127.11 83.3806L128.868 80.5059H130.961L128.178 84.8516L131.236 89.4536H129.057L127.073 86.3591L125.083 89.4536H122.917Z" fill="white"/>
<path d="M133.433 84.9492L131.877 84.6685C132.052 84.0418 132.353 83.578 132.78 83.2769C133.207 82.9757 133.842 82.8252 134.684 82.8252C135.449 82.8252 136.019 82.9167 136.393 83.0999C136.768 83.2789 137.03 83.5088 137.181 83.7896C137.335 84.0662 137.413 84.5769 137.413 85.3215L137.394 87.3235C137.394 87.8931 137.421 88.3143 137.474 88.5869C137.531 88.8555 137.634 89.1444 137.785 89.4536H136.088C136.043 89.3397 135.988 89.1708 135.923 88.947C135.895 88.8453 135.875 88.7782 135.862 88.7456C135.569 89.0304 135.256 89.2441 134.922 89.3865C134.589 89.5289 134.233 89.6001 133.854 89.6001C133.187 89.6001 132.66 89.419 132.273 89.0569C131.891 88.6947 131.7 88.237 131.7 87.6836C131.7 87.3174 131.787 86.9919 131.962 86.707C132.137 86.4181 132.381 86.1984 132.695 86.0479C133.012 85.8932 133.468 85.759 134.062 85.645C134.863 85.4945 135.419 85.3541 135.728 85.2239V85.053C135.728 84.7234 135.647 84.4894 135.484 84.3511C135.321 84.2087 135.014 84.1375 134.562 84.1375C134.257 84.1375 134.019 84.1985 133.848 84.3206C133.677 84.4386 133.539 84.6481 133.433 84.9492ZM135.728 86.3408C135.508 86.4141 135.16 86.5015 134.684 86.6033C134.208 86.705 133.897 86.8047 133.75 86.9023C133.527 87.061 133.415 87.2625 133.415 87.5066C133.415 87.7467 133.504 87.9542 133.683 88.1291C133.862 88.3041 134.09 88.3916 134.367 88.3916C134.676 88.3916 134.971 88.2899 135.252 88.0864C135.459 87.9318 135.596 87.7426 135.661 87.5188C135.706 87.3723 135.728 87.0936 135.728 86.6826V86.3408Z" fill="white"/>
<path d="M139.061 82.9717H140.66V83.9238C140.867 83.5983 141.148 83.3338 141.502 83.1304C141.856 82.9269 142.249 82.8252 142.68 82.8252C143.433 82.8252 144.072 83.1202 144.596 83.7102C145.121 84.3002 145.384 85.1222 145.384 86.176C145.384 87.2584 145.119 88.1007 144.59 88.7029C144.061 89.301 143.42 89.6001 142.668 89.6001C142.31 89.6001 141.984 89.5289 141.691 89.3865C141.402 89.2441 141.097 88.9999 140.776 88.6541V91.9194H139.061V82.9717ZM140.757 86.1028C140.757 86.8311 140.902 87.3703 141.191 87.7202C141.48 88.0661 141.832 88.239 142.247 88.239C142.645 88.239 142.977 88.0803 143.241 87.7629C143.506 87.4415 143.638 86.9166 143.638 86.1882C143.638 85.5087 143.502 85.0042 143.229 84.6746C142.957 84.345 142.619 84.1802 142.216 84.1802C141.797 84.1802 141.449 84.3429 141.172 84.6685C140.896 84.9899 140.757 85.468 140.757 86.1028Z" fill="white"/>
<path d="M146.684 82.9717H148.393V85.6206C148.678 85.5881 148.879 85.5006 148.997 85.3582C149.115 85.2157 149.257 84.9045 149.424 84.4243C149.644 83.7855 149.884 83.3765 150.145 83.1975C150.405 83.0185 150.747 82.929 151.17 82.929C151.3 82.929 151.526 82.9391 151.847 82.9595L151.854 84.0947C151.402 84.0947 151.113 84.1375 150.987 84.2229C150.861 84.3124 150.724 84.5789 150.578 85.0225C150.378 85.6206 150.092 85.9889 149.717 86.1272C150.258 86.2778 150.716 86.7477 151.091 87.5371C151.111 87.5778 151.133 87.6205 151.158 87.6653L152.116 89.4536H150.273L149.418 87.5798C149.243 87.2014 149.091 86.9593 148.96 86.8535C148.834 86.7437 148.645 86.6887 148.393 86.6887V89.4536H146.684V82.9717Z" fill="white"/>
<path d="M153.013 82.0928V80.5059H154.728V82.0928H153.013ZM153.013 89.4536V82.9717H154.728V89.4536H153.013Z" fill="white"/>
<path d="M156.51 82.9717H160.264C161.033 82.9717 161.609 83.1121 161.991 83.3928C162.374 83.6736 162.565 84.0968 162.565 84.6624C162.565 85.0245 162.459 85.3398 162.248 85.6084C162.04 85.877 161.778 86.056 161.46 86.1455C161.908 86.2554 162.242 86.4609 162.461 86.762C162.681 87.0631 162.791 87.3927 162.791 87.7507C162.791 88.2553 162.606 88.6663 162.236 88.9836C161.865 89.297 161.318 89.4536 160.594 89.4536H156.51V82.9717ZM158.238 85.6633H159.343C159.876 85.6633 160.26 85.5962 160.496 85.4619C160.736 85.3276 160.856 85.116 160.856 84.8271C160.856 84.5545 160.744 84.3612 160.521 84.2473C160.301 84.1293 159.908 84.0703 159.343 84.0703H158.238V85.6633ZM158.238 88.355H159.593C160.081 88.355 160.437 88.296 160.661 88.178C160.885 88.06 160.997 87.8484 160.997 87.5432C160.997 87.2258 160.868 87.0081 160.612 86.8901C160.356 86.7681 159.857 86.707 159.117 86.707H158.238V88.355Z" fill="white"/>
<path d="M123.694 104.038V96.5811H125.199V99.8922L128.241 96.5811H130.265L127.458 99.4853L130.418 104.038H128.47L126.42 100.538L125.199 101.784V104.038H123.694Z" fill="white"/>
<path d="M132.615 96.5811V99.3226C133.076 98.7834 133.627 98.5138 134.268 98.5138C134.597 98.5138 134.894 98.5749 135.158 98.6969C135.423 98.819 135.621 98.975 135.753 99.1649C135.889 99.3548 135.981 99.565 136.028 99.7956C136.079 100.026 136.104 100.384 136.104 100.869V104.038H134.675V101.184C134.675 100.618 134.648 100.258 134.594 100.106C134.539 99.9532 134.443 99.8329 134.304 99.7447C134.168 99.6532 133.997 99.6074 133.79 99.6074C133.553 99.6074 133.341 99.665 133.154 99.7803C132.968 99.8956 132.83 100.07 132.742 100.304C132.658 100.535 132.615 100.877 132.615 101.332V104.038H131.186V96.5811H132.615Z" fill="white"/>
<path d="M138.627 100.284L137.33 100.05C137.476 99.5277 137.727 99.1411 138.083 98.8902C138.439 98.6393 138.968 98.5138 139.67 98.5138C140.307 98.5138 140.782 98.5901 141.094 98.7427C141.406 98.8919 141.625 99.0835 141.75 99.3175C141.879 99.548 141.943 99.9736 141.943 100.594L141.928 102.262C141.928 102.737 141.95 103.088 141.994 103.315C142.042 103.539 142.128 103.78 142.254 104.038H140.84C140.802 103.943 140.757 103.802 140.702 103.615C140.679 103.531 140.662 103.475 140.651 103.448C140.407 103.685 140.146 103.863 139.868 103.982C139.59 104.1 139.293 104.16 138.978 104.16C138.422 104.16 137.983 104.009 137.661 103.707C137.342 103.405 137.183 103.024 137.183 102.563C137.183 102.257 137.256 101.986 137.401 101.749C137.547 101.508 137.751 101.325 138.012 101.199C138.276 101.071 138.656 100.959 139.151 100.864C139.819 100.738 140.282 100.621 140.54 100.513V100.37C140.54 100.096 140.472 99.9007 140.336 99.7854C140.2 99.6667 139.944 99.6074 139.568 99.6074C139.314 99.6074 139.115 99.6582 138.973 99.76C138.831 99.8583 138.715 100.033 138.627 100.284ZM140.54 101.444C140.356 101.505 140.067 101.577 139.67 101.662C139.273 101.747 139.014 101.83 138.892 101.911C138.705 102.044 138.612 102.212 138.612 102.415C138.612 102.615 138.686 102.788 138.836 102.934C138.985 103.08 139.175 103.153 139.405 103.153C139.663 103.153 139.909 103.068 140.143 102.898C140.316 102.769 140.429 102.612 140.484 102.425C140.521 102.303 140.54 102.071 140.54 101.728V101.444Z" fill="white"/>
<path d="M144.726 104.038H143.296V98.6359H144.624V99.4039C144.851 99.0411 145.054 98.8021 145.234 98.6868C145.417 98.5715 145.624 98.5138 145.855 98.5138C146.18 98.5138 146.494 98.6037 146.796 98.7834L146.353 100.03C146.112 99.8736 145.889 99.7956 145.682 99.7956C145.482 99.7956 145.312 99.8515 145.173 99.9634C145.034 100.072 144.924 100.27 144.843 100.559C144.765 100.847 144.726 101.45 144.726 102.369V104.038Z" fill="white"/>
<path d="M147.365 104.038V96.5811H148.795V100.538L150.468 98.6359H152.228L150.381 100.609L152.36 104.038H150.819L149.461 101.611L148.795 102.308V104.038H147.365Z" fill="white"/>
<path d="M153.215 97.9035V96.5811H154.644V97.9035H153.215ZM153.215 104.038V98.6359H154.644V104.038H153.215Z" fill="white"/>
<path d="M157.599 104.038L155.422 98.6359H156.922L157.94 101.393L158.235 102.313C158.313 102.079 158.362 101.925 158.382 101.85C158.43 101.698 158.48 101.545 158.535 101.393L159.562 98.6359H161.032L158.886 104.038H157.599Z" fill="white"/>
<path d="M123.68 130.504H125.486V132.64C125.486 133.332 125.511 133.792 125.559 134.02C125.612 134.243 125.765 134.439 126.017 134.605C126.269 134.772 126.64 134.856 127.128 134.856C127.515 134.856 127.858 134.815 128.16 134.734C128.461 134.648 128.721 134.524 128.941 134.361V130.504H130.747V139.452H128.941V135.851C128.575 136.013 128.214 136.137 127.86 136.223C127.506 136.304 127.159 136.345 126.817 136.345C125.926 136.345 125.179 136.135 124.577 135.716C123.979 135.293 123.68 134.563 123.68 133.525V130.504Z" fill="white"/>
<path d="M136.357 137.389L138.066 137.676C137.846 138.302 137.498 138.78 137.022 139.11C136.55 139.435 135.958 139.598 135.246 139.598C134.119 139.598 133.284 139.23 132.743 138.493C132.316 137.903 132.102 137.159 132.102 136.26C132.102 135.185 132.383 134.345 132.945 133.739C133.506 133.128 134.216 132.823 135.075 132.823C136.039 132.823 136.8 133.143 137.358 133.781C137.915 134.416 138.182 135.391 138.157 136.705H133.86C133.872 137.214 134.011 137.61 134.275 137.895C134.54 138.176 134.869 138.316 135.264 138.316C135.533 138.316 135.758 138.243 135.942 138.097C136.125 137.95 136.263 137.714 136.357 137.389ZM136.454 135.655C136.442 135.159 136.314 134.782 136.07 134.526C135.826 134.266 135.529 134.135 135.179 134.135C134.804 134.135 134.495 134.272 134.251 134.544C134.007 134.817 133.887 135.187 133.891 135.655H136.454Z" fill="white"/>
<path d="M139.512 132.97H141.111V133.922C141.319 133.596 141.599 133.332 141.953 133.128C142.307 132.925 142.7 132.823 143.131 132.823C143.884 132.823 144.523 133.118 145.048 133.708C145.573 134.298 145.835 135.12 145.835 136.174C145.835 137.256 145.571 138.099 145.042 138.701C144.513 139.299 143.872 139.598 143.119 139.598C142.761 139.598 142.436 139.527 142.143 139.385C141.854 139.242 141.549 138.998 141.227 138.652V141.917H139.512V132.97ZM141.209 136.101C141.209 136.829 141.353 137.368 141.642 137.718C141.931 138.064 142.283 138.237 142.698 138.237C143.097 138.237 143.429 138.078 143.693 137.761C143.957 137.44 144.09 136.915 144.09 136.186C144.09 135.507 143.953 135.002 143.681 134.673C143.408 134.343 143.07 134.178 142.668 134.178C142.248 134.178 141.901 134.341 141.624 134.667C141.347 134.988 141.209 135.466 141.209 136.101Z" fill="white"/>
<path d="M147.135 132.97H148.85V135.344H151.304V132.97H153.025V139.452H151.304V136.729H148.85V139.452H147.135V132.97Z" fill="white"/>
<path d="M154.759 132.091V130.504H156.474V132.091H154.759ZM154.759 139.452V132.97H156.474V139.452H154.759Z" fill="white"/>
<path d="M158.171 132.97H162.547V134.355H159.886V139.452H158.171V132.97Z" fill="white"/>
<path d="M163.45 132.091V130.504H165.165V132.091H163.45ZM163.45 139.452V132.97H165.165V139.452H163.45Z" fill="white"/>
<path d="M166.947 132.97H170.701C171.47 132.97 172.046 133.11 172.428 133.391C172.811 133.672 173.002 134.095 173.002 134.66C173.002 135.023 172.896 135.338 172.685 135.606C172.477 135.875 172.215 136.054 171.897 136.144C172.345 136.253 172.679 136.459 172.898 136.76C173.118 137.061 173.228 137.391 173.228 137.749C173.228 138.253 173.043 138.664 172.672 138.982C172.302 139.295 171.755 139.452 171.031 139.452H166.947V132.97ZM168.675 135.661H169.779C170.312 135.661 170.697 135.594 170.933 135.46C171.173 135.326 171.293 135.114 171.293 134.825C171.293 134.553 171.181 134.359 170.957 134.245C170.738 134.127 170.345 134.068 169.779 134.068H168.675V135.661ZM168.675 138.353H170.03C170.518 138.353 170.874 138.294 171.098 138.176C171.322 138.058 171.433 137.846 171.433 137.541C171.433 137.224 171.305 137.006 171.049 136.888C170.793 136.766 170.294 136.705 169.554 136.705H168.675V138.353Z" fill="white"/>
<path d="M128.444 151.292L129.904 151.755C129.68 152.569 129.307 153.174 128.785 153.571C128.266 153.964 127.607 154.161 126.807 154.161C125.817 154.161 125.003 153.824 124.365 153.149C123.728 152.471 123.409 151.545 123.409 150.372C123.409 149.131 123.729 148.168 124.37 147.483C125.011 146.794 125.854 146.45 126.898 146.45C127.81 146.45 128.551 146.72 129.121 147.259C129.46 147.578 129.714 148.035 129.884 148.632L128.394 148.988C128.305 148.602 128.121 148.297 127.839 148.073C127.561 147.849 127.222 147.737 126.822 147.737C126.269 147.737 125.82 147.935 125.474 148.332C125.132 148.729 124.96 149.371 124.96 150.26C124.96 151.202 125.13 151.874 125.469 152.274C125.808 152.674 126.249 152.874 126.791 152.874C127.192 152.874 127.536 152.747 127.824 152.493C128.112 152.238 128.319 151.838 128.444 151.292Z" fill="white"/>
<path d="M132.615 146.577V149.319C133.076 148.78 133.627 148.51 134.268 148.51C134.597 148.51 134.894 148.571 135.158 148.693C135.423 148.815 135.621 148.971 135.753 149.161C135.889 149.351 135.981 149.561 136.028 149.792C136.079 150.022 136.104 150.38 136.104 150.865V154.034H134.675V151.18C134.675 150.614 134.648 150.255 134.594 150.102C134.539 149.95 134.443 149.829 134.304 149.741C134.168 149.649 133.997 149.604 133.79 149.604C133.553 149.604 133.341 149.661 133.154 149.777C132.968 149.892 132.831 150.067 132.742 150.3C132.658 150.531 132.615 150.874 132.615 151.328V154.034H131.186V146.577H132.615Z" fill="white"/>
<path d="M140.687 152.315L142.111 152.554C141.928 153.076 141.638 153.474 141.241 153.749C140.848 154.02 140.355 154.156 139.761 154.156C138.822 154.156 138.127 153.849 137.676 153.235C137.32 152.744 137.142 152.123 137.142 151.374C137.142 150.479 137.376 149.778 137.844 149.273C138.312 148.764 138.904 148.51 139.619 148.51C140.423 148.51 141.057 148.776 141.521 149.309C141.986 149.838 142.208 150.65 142.188 151.745H138.607C138.617 152.169 138.732 152.499 138.953 152.737C139.173 152.971 139.448 153.088 139.777 153.088C140 153.088 140.189 153.027 140.341 152.905C140.494 152.783 140.609 152.586 140.687 152.315ZM140.768 150.87C140.758 150.456 140.651 150.143 140.448 149.929C140.245 149.712 139.997 149.604 139.705 149.604C139.393 149.604 139.136 149.717 138.932 149.944C138.729 150.172 138.629 150.48 138.632 150.87H140.768Z" fill="white"/>
<path d="M144.726 154.034H143.296V148.632H144.624V149.4C144.851 149.037 145.054 148.798 145.234 148.683C145.417 148.568 145.624 148.51 145.855 148.51C146.18 148.51 146.494 148.6 146.796 148.78L146.353 150.026C146.112 149.87 145.889 149.792 145.682 149.792C145.482 149.792 145.312 149.848 145.173 149.96C145.034 150.068 144.924 150.267 144.843 150.555C144.765 150.843 144.726 151.447 144.726 152.366V154.034Z" fill="white"/>
<path d="M152.33 154.034H150.9V151.277C150.9 150.694 150.87 150.317 150.809 150.148C150.748 149.975 150.648 149.841 150.509 149.746C150.373 149.651 150.209 149.604 150.015 149.604C149.768 149.604 149.546 149.671 149.349 149.807C149.152 149.943 149.017 150.122 148.942 150.346C148.871 150.57 148.835 150.984 148.835 151.587V154.034H147.406V148.632H148.734V149.426C149.205 148.815 149.798 148.51 150.514 148.51C150.829 148.51 151.117 148.568 151.378 148.683C151.64 148.795 151.836 148.939 151.968 149.115C152.104 149.292 152.197 149.492 152.248 149.716C152.302 149.939 152.33 150.26 152.33 150.677V154.034Z" fill="white"/>
<path d="M153.784 147.9V146.577H155.213V147.9H153.784ZM153.784 154.034V148.632H155.213V154.034H153.784Z" fill="white"/>
<path d="M158.108 146.577V149.319C158.569 148.78 159.12 148.51 159.761 148.51C160.089 148.51 160.386 148.571 160.651 148.693C160.915 148.815 161.114 148.971 161.246 149.161C161.381 149.351 161.473 149.561 161.52 149.792C161.571 150.022 161.597 150.38 161.597 150.865V154.034H160.167V151.18C160.167 150.614 160.14 150.255 160.086 150.102C160.032 149.95 159.935 149.829 159.796 149.741C159.661 149.649 159.489 149.604 159.282 149.604C159.045 149.604 158.833 149.661 158.647 149.777C158.46 149.892 158.323 150.067 158.235 150.3C158.15 150.531 158.108 150.874 158.108 151.328V154.034H156.678V146.577H158.108Z" fill="white"/>
<path d="M163.051 147.9V146.577H164.481V147.9H163.051ZM163.051 154.034V148.632H164.481V154.034H163.051Z" fill="white"/>
<path d="M167.436 154.034L165.259 148.632H166.759L167.777 151.389L168.072 152.31C168.15 152.076 168.199 151.921 168.219 151.847C168.267 151.694 168.317 151.542 168.372 151.389L169.399 148.632H170.869L168.723 154.034H167.436Z" fill="white"/>
<path d="M105.263 30.311H107.371V34.7543C107.841 34.7068 108.159 34.5858 108.325 34.3912C108.491 34.1965 108.748 33.6553 109.094 32.7676C109.531 31.6378 109.97 30.9352 110.412 30.6599C110.848 30.3845 111.553 30.2469 112.527 30.2469C112.574 30.2469 112.676 30.2445 112.833 30.2397V31.7992L112.534 31.7921C112.102 31.7921 111.786 31.8467 111.587 31.9559C111.387 32.0603 111.226 32.2217 111.102 32.4401C110.979 32.6584 110.796 33.107 110.554 33.7859C110.426 34.1467 110.286 34.4481 110.134 34.6902C109.987 34.9323 109.723 35.1602 109.344 35.3738C109.814 35.5067 110.2 35.775 110.504 36.1785C110.813 36.582 111.15 37.1516 111.515 37.8875L112.94 40.75H110.462L109.215 38.0512C109.196 38.0133 109.156 37.9397 109.094 37.8305C109.071 37.7925 108.983 37.6287 108.831 37.3392C108.56 36.8265 108.337 36.506 108.161 36.3778C107.991 36.2497 107.727 36.1832 107.371 36.1785V40.75H105.263V30.311ZM114.065 33.1877H115.987V37.9373L119.063 33.1877H121.029V40.75H119.106V35.915L115.987 40.75H114.065V33.1877ZM123.087 40.75V33.1877H125.088V40.75H123.087ZM121.698 31.849V30.1329H123.414V31.849H121.698ZM124.76 31.849V30.1329H126.483V31.849H124.76ZM127.21 33.1877H131.589C132.486 33.1877 133.158 33.3515 133.604 33.6791C134.05 34.0066 134.273 34.5003 134.273 35.1602C134.273 35.5827 134.15 35.9506 133.903 36.2639C133.661 36.5772 133.355 36.7861 132.984 36.8905C133.507 37.0187 133.896 37.2584 134.152 37.6097C134.409 37.961 134.537 38.3456 134.537 38.7633C134.537 39.352 134.321 39.8314 133.889 40.2017C133.457 40.5672 132.818 40.75 131.973 40.75H127.21V33.1877ZM129.225 36.328H130.514C131.135 36.328 131.584 36.2497 131.859 36.093C132.14 35.9364 132.28 35.6895 132.28 35.3525C132.28 35.0344 132.149 34.8089 131.888 34.676C131.632 34.5383 131.173 34.4695 130.514 34.4695H129.225V36.328ZM129.225 39.4683H130.806C131.375 39.4683 131.791 39.3994 132.052 39.2618C132.313 39.1241 132.443 38.8772 132.443 38.5212C132.443 38.1509 132.294 37.8969 131.995 37.7593C131.696 37.6169 131.114 37.5457 130.25 37.5457H129.225V39.4683Z" fill="white"/>
<path d="M104.945 52.333V44.8765H106.45V48.1877L109.492 44.8765H111.516L108.709 47.7808L111.669 52.333H109.721L107.671 48.8337L106.45 50.0798V52.333H104.945ZM111.766 46.9314H113.286L114.578 50.7664L115.84 46.9314H117.32L115.412 52.1296L115.072 53.0705C114.946 53.3859 114.826 53.6266 114.711 53.7928C114.599 53.9589 114.468 54.0929 114.319 54.1946C114.173 54.2997 113.992 54.3811 113.775 54.4387C113.561 54.4964 113.319 54.5252 113.047 54.5252C112.773 54.5252 112.503 54.4964 112.239 54.4387L112.111 53.3197C112.335 53.3638 112.537 53.3859 112.717 53.3859C113.049 53.3859 113.295 53.2875 113.454 53.0909C113.614 52.8976 113.736 52.6501 113.82 52.3483L111.766 46.9314ZM118.24 46.199V44.8765H119.67V46.199H118.24ZM118.24 52.333V46.9314H119.67V52.333H118.24ZM122.625 52.333L120.448 46.9314H121.948L122.966 49.6882L123.261 50.6088C123.339 50.3748 123.388 50.2205 123.408 50.1459C123.456 49.9933 123.506 49.8407 123.561 49.6882L124.588 46.9314H126.058L123.912 52.333H122.625Z" fill="white"/>
<path fill-rule="evenodd" clip-rule="evenodd" d="M153.26 32.7942L152.163 52.7506H144.151L150.181 32.7942H148.156L147.356 34.7113H146.154V32.7942H143.75V31.2591H150.645L152.965 23.583H153.766L153.344 31.2591H154.99L154.568 23.583H155.37L157.689 31.2591H164.583V32.7942H162.178V34.7113H160.976L160.176 32.7942H158.153L164.184 52.7506H156.171L155.075 32.7942H153.26Z" fill="white"/>
<rect x="143.229" y="23.0622" width="21.875" height="30.2083" rx="1.97921" stroke="white" stroke-width="1.04167"/>
<path d="M83.3333 79.4861C83.3333 78.5273 84.1105 77.75 85.0694 77.75H114.583C115.542 77.75 116.319 78.5273 116.319 79.4861V92.3333H83.3333V79.4861Z" fill="#FF0E00" stroke="white" stroke-width="1.04167"/>
<path d="M83.3333 135.736C83.3333 134.777 84.1105 134 85.0694 134H114.583C115.542 134 116.319 134.777 116.319 135.736V147.542C116.319 148.692 115.387 149.625 114.236 149.625H85.4166C84.266 149.625 83.3333 148.692 83.3333 147.542V135.736Z" stroke="white" stroke-width="1.04167"/>
<path d="M83.3333 92.333H116.319V105.18C116.319 106.139 115.542 106.916 114.583 106.916H85.0694C84.1105 106.916 83.3333 106.139 83.3333 105.18V92.333Z" fill="#00AC5A" stroke="white" stroke-width="1.04167"/>
<path d="M88.5498 88.7214V81.2649H90.803L92.156 86.3512L93.4937 81.2649H95.752V88.7214H94.3532V82.8518L92.8731 88.7214H91.4235L89.9485 82.8518V88.7214H88.5498Z" fill="white"/>
<path d="M97.0744 86.7326V85.3034H99.882V86.7326H97.0744Z" fill="white"/>
<path d="M102.817 81.2344C103.539 81.2344 104.104 81.4921 104.51 82.0075C104.995 82.6178 105.238 83.63 105.238 85.044C105.238 86.4546 104.994 87.4684 104.505 88.0856C104.102 88.5942 103.539 88.8485 102.817 88.8485C102.091 88.8485 101.506 88.5705 101.062 88.0144C100.618 87.4549 100.396 86.4597 100.396 85.0287C100.396 83.6249 100.64 82.6144 101.128 81.9973C101.532 81.4887 102.095 81.2344 102.817 81.2344ZM102.817 82.4195C102.644 82.4195 102.49 82.4754 102.354 82.5873C102.218 82.6958 102.113 82.8925 102.039 83.1773C101.94 83.5469 101.891 84.1691 101.891 85.044C101.891 85.9188 101.935 86.5207 102.023 86.8496C102.111 87.1751 102.222 87.3921 102.354 87.5007C102.49 87.6092 102.644 87.6634 102.817 87.6634C102.99 87.6634 103.144 87.6092 103.28 87.5007C103.415 87.3888 103.52 87.1904 103.595 86.9056C103.693 86.5393 103.742 85.9188 103.742 85.044C103.742 84.1691 103.698 83.569 103.61 83.2434C103.522 82.9145 103.41 82.6958 103.275 82.5873C103.142 82.4754 102.99 82.4195 102.817 82.4195Z" fill="white"/>
<path d="M106.148 86.7428L107.532 86.575C107.576 86.9276 107.694 87.1972 107.888 87.3837C108.081 87.5702 108.315 87.6634 108.59 87.6634C108.885 87.6634 109.132 87.5515 109.332 87.3277C109.536 87.1039 109.637 86.8021 109.637 86.4224C109.637 86.0629 109.541 85.7781 109.348 85.5679C109.154 85.3576 108.919 85.2525 108.641 85.2525C108.457 85.2525 108.239 85.2881 107.984 85.3593L108.142 84.1946C108.529 84.2048 108.824 84.1217 109.027 83.9454C109.231 83.7656 109.332 83.5283 109.332 83.2333C109.332 82.9824 109.258 82.7823 109.108 82.6331C108.959 82.4839 108.761 82.4093 108.513 82.4093C108.269 82.4093 108.061 82.4941 107.888 82.6636C107.715 82.8332 107.61 83.0807 107.572 83.4062L106.255 83.1824C106.347 82.7314 106.484 82.372 106.667 82.1041C106.854 81.8329 107.111 81.6209 107.44 81.4683C107.772 81.3124 108.144 81.2344 108.554 81.2344C109.256 81.2344 109.819 81.4582 110.243 81.9058C110.592 82.272 110.767 82.6857 110.767 83.1468C110.767 83.8012 110.409 84.3234 109.693 84.7134C110.121 84.8049 110.461 85.0101 110.716 85.3288C110.973 85.6476 111.102 86.0324 111.102 86.4834C111.102 87.1378 110.863 87.6956 110.385 88.1568C109.907 88.6179 109.312 88.8485 108.6 88.8485C107.925 88.8485 107.366 88.6552 106.921 88.2687C106.477 87.8787 106.219 87.3701 106.148 86.7428Z" fill="white"/>
<path d="M89.4237 145.491V138.034H91.8397C92.7552 138.034 93.352 138.072 93.63 138.146C94.0573 138.258 94.415 138.502 94.7032 138.879C94.9915 139.252 95.1356 139.735 95.1356 140.328C95.1356 140.786 95.0525 141.171 94.8864 141.483C94.7202 141.795 94.5083 142.041 94.2506 142.22C93.9963 142.397 93.7369 142.514 93.4724 142.571C93.1129 142.643 92.5924 142.678 91.9109 142.678H90.9292V145.491H89.4237ZM90.9292 139.296V141.412H91.7532C92.3466 141.412 92.7433 141.373 92.9434 141.295C93.1435 141.217 93.2994 141.095 93.4113 140.929C93.5266 140.762 93.5843 140.569 93.5843 140.349C93.5843 140.077 93.5046 139.854 93.3452 139.677C93.1858 139.501 92.9841 139.391 92.7399 139.347C92.5602 139.313 92.1991 139.296 91.6566 139.296H90.9292Z" fill="white"/>
<path d="M96.1986 143.502V142.073H99.0062V143.502H96.1986Z" fill="white"/>
<path d="M101.941 138.004C102.663 138.004 103.228 138.262 103.635 138.777C104.12 139.387 104.362 140.4 104.362 141.814C104.362 143.224 104.118 144.238 103.63 144.855C103.226 145.364 102.663 145.618 101.941 145.618C101.215 145.618 100.63 145.34 100.186 144.784C99.742 144.224 99.5199 143.229 99.5199 141.798C99.5199 140.394 99.7641 139.384 100.252 138.767C100.656 138.258 101.219 138.004 101.941 138.004ZM101.941 139.189C101.768 139.189 101.614 139.245 101.478 139.357C101.343 139.465 101.237 139.662 101.163 139.947C101.064 140.316 101.015 140.939 101.015 141.814C101.015 142.688 101.059 143.29 101.148 143.619C101.236 143.945 101.346 144.162 101.478 144.27C101.614 144.379 101.768 144.433 101.941 144.433C102.114 144.433 102.268 144.379 102.404 144.27C102.539 144.158 102.645 143.96 102.719 143.675C102.818 143.309 102.867 142.688 102.867 141.814C102.867 140.939 102.823 140.339 102.734 140.013C102.646 139.684 102.534 139.465 102.399 139.357C102.267 139.245 102.114 139.189 101.941 139.189Z" fill="white"/>
<path d="M105.273 143.512L106.656 143.344C106.7 143.697 106.819 143.967 107.012 144.153C107.205 144.34 107.439 144.433 107.714 144.433C108.009 144.433 108.256 144.321 108.457 144.097C108.66 143.873 108.762 143.572 108.762 143.192C108.762 142.832 108.665 142.548 108.472 142.337C108.278 142.127 108.043 142.022 107.765 142.022C107.582 142.022 107.363 142.058 107.109 142.129L107.266 140.964C107.653 140.974 107.948 140.891 108.151 140.715C108.355 140.535 108.457 140.298 108.457 140.003C108.457 139.752 108.382 139.552 108.233 139.403C108.084 139.253 107.885 139.179 107.638 139.179C107.393 139.179 107.185 139.264 107.012 139.433C106.839 139.603 106.734 139.85 106.697 140.176L105.379 139.952C105.471 139.501 105.608 139.142 105.791 138.874C105.978 138.602 106.236 138.39 106.564 138.238C106.897 138.082 107.268 138.004 107.678 138.004C108.38 138.004 108.943 138.228 109.367 138.675C109.716 139.042 109.891 139.455 109.891 139.916C109.891 140.571 109.533 141.093 108.818 141.483C109.245 141.574 109.586 141.78 109.84 142.098C110.098 142.417 110.227 142.802 110.227 143.253C110.227 143.907 109.987 144.465 109.509 144.926C109.031 145.387 108.436 145.618 107.724 145.618C107.049 145.618 106.49 145.425 106.046 145.038C105.601 144.648 105.344 144.14 105.273 143.512Z" fill="white"/>
<path d="M41.9179 174.009C41.4005 173.791 41.0231 173.492 40.7857 173.112C40.5531 172.728 40.4368 172.308 40.4368 171.852C40.4368 171.073 40.7074 170.43 41.2486 169.922C41.7945 169.414 42.5683 169.16 43.5699 169.16C44.5621 169.16 45.3311 169.414 45.8771 169.922C46.4277 170.43 46.7031 171.073 46.7031 171.852C46.7031 172.336 46.5773 172.768 46.3257 173.148C46.0741 173.523 45.7204 173.81 45.2647 174.009C45.8438 174.242 46.283 174.581 46.582 175.028C46.8859 175.474 47.0378 175.989 47.0378 176.573C47.0378 177.537 46.7292 178.32 46.1121 178.923C45.4997 179.526 44.6832 179.827 43.6625 179.827C42.7131 179.827 41.9227 179.578 41.2913 179.079C40.546 178.491 40.1733 177.684 40.1733 176.658C40.1733 176.093 40.3134 175.576 40.5935 175.106C40.8735 174.631 41.315 174.266 41.9179 174.009ZM42.3309 171.994C42.3309 172.393 42.4425 172.704 42.6656 172.927C42.8935 173.15 43.1949 173.262 43.5699 173.262C43.9497 173.262 44.2535 173.15 44.4814 172.927C44.7093 172.699 44.8232 172.386 44.8232 171.987C44.8232 171.612 44.7093 171.313 44.4814 171.09C44.2583 170.862 43.9616 170.748 43.5913 170.748C43.2068 170.748 42.9006 170.862 42.6727 171.09C42.4449 171.318 42.3309 171.619 42.3309 171.994ZM42.1458 176.466C42.1458 177.017 42.2858 177.446 42.5659 177.755C42.8507 178.063 43.2044 178.218 43.6269 178.218C44.0399 178.218 44.3817 178.071 44.6523 177.776C44.9229 177.477 45.0582 177.048 45.0582 176.487C45.0582 175.998 44.9205 175.607 44.6452 175.312C44.3698 175.013 44.0209 174.864 43.5984 174.864C43.1095 174.864 42.7439 175.032 42.5018 175.369C42.2645 175.707 42.1458 176.072 42.1458 176.466Z" fill="white"/>
<path d="M51.7019 169.16C52.713 169.16 53.5034 169.521 54.0731 170.243C54.7519 171.097 55.0913 172.514 55.0913 174.494C55.0913 176.468 54.7496 177.888 54.066 178.752C53.501 179.464 52.713 179.82 51.7019 179.82C50.686 179.82 49.8671 179.431 49.2452 178.652C48.6233 177.869 48.3124 176.476 48.3124 174.472C48.3124 172.507 48.6542 171.092 49.3378 170.228C49.9027 169.516 50.6907 169.16 51.7019 169.16ZM51.7019 170.819C51.4598 170.819 51.2438 170.898 51.0539 171.054C50.864 171.206 50.7168 171.482 50.6124 171.88C50.4747 172.398 50.4059 173.269 50.4059 174.494C50.4059 175.718 50.4676 176.561 50.591 177.021C50.7144 177.477 50.8687 177.781 51.0539 177.933C51.2438 178.085 51.4598 178.161 51.7019 178.161C51.944 178.161 52.16 178.085 52.3499 177.933C52.5397 177.776 52.6869 177.499 52.7913 177.1C52.929 176.587 52.9978 175.718 52.9978 174.494C52.9978 173.269 52.9361 172.429 52.8127 171.973C52.6893 171.512 52.5326 171.206 52.3427 171.054C52.1576 170.898 51.944 170.819 51.7019 170.819Z" fill="white"/>
<path d="M59.8195 169.16C60.8307 169.16 61.6211 169.521 62.1908 170.243C62.8696 171.097 63.209 172.514 63.209 174.494C63.209 176.468 62.8672 177.888 62.1836 178.752C61.6187 179.464 60.8307 179.82 59.8195 179.82C58.8036 179.82 57.9848 179.431 57.3629 178.652C56.741 177.869 56.4301 176.476 56.4301 174.472C56.4301 172.507 56.7719 171.092 57.4554 170.228C58.0204 169.516 58.8084 169.16 59.8195 169.16ZM59.8195 170.819C59.5774 170.819 59.3614 170.898 59.1715 171.054C58.9817 171.206 58.8345 171.482 58.7301 171.88C58.5924 172.398 58.5236 173.269 58.5236 174.494C58.5236 175.718 58.5853 176.561 58.7087 177.021C58.8321 177.477 58.9864 177.781 59.1715 177.933C59.3614 178.085 59.5774 178.161 59.8195 178.161C60.0616 178.161 60.2776 178.085 60.4675 177.933C60.6574 177.776 60.8046 177.499 60.909 177.1C61.0467 176.587 61.1155 175.718 61.1155 174.494C61.1155 173.269 61.0538 172.429 60.9304 171.973C60.807 171.512 60.6503 171.206 60.4604 171.054C60.2753 170.898 60.0616 170.819 59.8195 170.819Z" fill="white"/>
<path d="M69.0979 172.08H71.5759L73.4558 177.349L75.3499 172.08H77.8208V179.642H76.119V174.665L74.2747 179.642H72.5657L70.8069 174.665V179.642H69.0979V172.08Z" fill="white"/>
<path d="M89.7421 103.305V95.8489H95.2708V97.1103H91.2476V98.7633H94.9911V100.02H91.2476V102.049H95.4132V103.305H89.7421Z" fill="white"/>
<path d="M102.076 103.305V101.805H99.0245V100.554L102.259 95.8184H103.46V100.549H104.385V101.805H103.46V103.305H102.076ZM102.076 100.549V98.0004L100.362 100.549H102.076Z" fill="white"/>
<path d="M107.488 95.8184C108.21 95.8184 108.775 96.0761 109.182 96.5915C109.667 97.2018 109.909 98.214 109.909 99.628C109.909 101.039 109.665 102.052 109.177 102.67C108.773 103.178 108.21 103.432 107.488 103.432C106.762 103.432 106.177 103.154 105.733 102.598C105.289 102.039 105.067 101.044 105.067 99.6127C105.067 98.2089 105.311 97.1984 105.799 96.5813C106.203 96.0727 106.766 95.8184 107.488 95.8184ZM107.488 97.0035C107.315 97.0035 107.161 97.0594 107.025 97.1713C106.89 97.2798 106.784 97.4765 106.71 97.7613C106.612 98.1309 106.562 98.7531 106.562 99.628C106.562 100.503 106.606 101.105 106.695 101.434C106.783 101.759 106.893 101.976 107.025 102.085C107.161 102.193 107.315 102.247 107.488 102.247C107.661 102.247 107.815 102.193 107.951 102.085C108.087 101.973 108.192 101.774 108.266 101.49C108.365 101.123 108.414 100.503 108.414 99.628C108.414 98.7531 108.37 98.153 108.281 97.8274C108.193 97.4985 108.081 97.2798 107.946 97.1713C107.814 97.0594 107.661 97.0035 107.488 97.0035Z" fill="white"/>
</svg>
