<svg width="200" height="201" viewBox="0 0 200 201" fill="none" xmlns="http://www.w3.org/2000/svg">
<path d="M174.314 169.939H25.6864C18.3215 169.939 13.7368 161.966 17.4754 155.637L91.789 29.8245C95.4728 23.588 104.527 23.588 108.211 29.8246L182.525 155.637C186.263 161.966 181.679 169.939 174.314 169.939Z" fill="#FF0E00" stroke="black" stroke-width="1.04167"/>
<path d="M25.6864 167.335H174.314C179.681 167.335 182.986 161.538 180.283 156.961L105.969 31.149C103.293 26.6187 96.7071 26.6187 94.0313 31.149L19.7176 156.961C17.014 161.538 20.3189 167.335 25.6864 167.335Z" fill="#FF0E00" stroke="white" stroke-width="4.16667"/>
<path fill-rule="evenodd" clip-rule="evenodd" d="M35.9376 154.835L100 46.0977L164.063 154.835H35.9376Z" fill="white"/>
<path fill-rule="evenodd" clip-rule="evenodd" d="M99.9991 128.637L81.7593 146.877L72.9205 138.038L91.1603 119.798L72.9168 101.555L81.7556 92.7158L99.9991 110.959L118.246 92.7129L127.084 101.552L108.838 119.798L127.081 138.041L118.242 146.88L99.9991 128.637Z" fill="black"/>
</svg>
