<svg width="200" height="201" viewBox="0 0 200 201" fill="none" xmlns="http://www.w3.org/2000/svg">
<rect x="0.520833" y="-0.520833" width="126.042" height="176.042" rx="8.85417" transform="matrix(-1 0 0 1 163.542 13.1692)" fill="white" stroke="#13141A" stroke-width="1.04167"/>
<rect x="-1.04167" y="1.04167" width="114.583" height="164.583" rx="3.125" transform="matrix(-1 0 0 1 156.25 17.3367)" fill="white" stroke="#13141A" stroke-width="2.08333"/>
<path d="M59.1218 38.0138L54.5769 36.7248C55.5554 32.133 58.338 29.8372 62.925 29.8372C65.6393 29.8372 67.6855 30.5682 69.0637 32.0304C70.4525 33.4798 71.1468 35.1857 71.1468 37.1481C71.1468 38.4948 70.8312 39.7133 70.2 40.8035C69.5687 41.8809 68.6219 42.8301 67.3594 43.6509C68.8954 44.2922 70.0474 45.2029 70.8154 46.3829C71.5834 47.5501 71.9674 48.993 71.9674 50.7117C71.9674 53.1872 71.2205 55.188 69.7265 56.7144C68.2431 58.2407 66.018 59.0038 63.0512 59.0038C60.6315 59.0038 58.722 58.5164 57.3228 57.5416C55.9236 56.554 54.8715 54.7135 54.1666 52.02L58.4432 50.3077C58.8851 52.0007 59.469 53.0974 60.1949 53.5976C60.9314 54.0978 61.8361 54.3479 62.9092 54.3479C64.3821 54.3479 65.4552 53.9632 66.1285 53.1936C66.8018 52.4112 67.1385 51.5198 67.1385 50.5193C67.1385 49.365 66.7545 48.4351 65.9865 47.7296C65.229 47.0242 64.0823 46.6715 62.5463 46.6715H61.4889V42.4196H62.0255C63.4563 42.4196 64.5504 42.0284 65.3079 41.246C66.0654 40.4636 66.4441 39.4247 66.4441 38.1293C66.4441 37.1032 66.1338 36.2374 65.5131 35.532C64.9029 34.8265 64.0244 34.4738 62.8777 34.4738C60.9208 34.4738 59.6689 35.6538 59.1218 38.0138Z" fill="black"/>
<path d="M74.9697 44.5936C74.9697 41.7206 75.3221 39.3093 76.027 37.3597C76.553 35.9232 77.2684 34.6341 78.1732 33.4926C79.0884 32.3511 80.0879 31.5046 81.1715 30.953C82.6128 30.2091 84.2751 29.8372 86.1583 29.8372C89.5669 29.8372 92.2917 31.1262 94.3327 33.7042C96.3842 36.2823 97.41 39.8672 97.41 44.459C97.41 49.0123 96.3947 52.5779 94.3643 55.156C92.3338 57.7212 89.6195 59.0038 86.2214 59.0038C82.7812 59.0038 80.0458 57.7276 78.0154 55.1752C75.9849 52.61 74.9697 49.0828 74.9697 44.5936ZM79.7828 44.4013C79.7828 47.595 80.3877 50.0191 81.5976 51.6737C82.8075 53.3154 84.3435 54.1363 86.2056 54.1363C88.0677 54.1363 89.5932 53.3218 90.782 51.6929C91.9814 50.0512 92.5811 47.595 92.5811 44.3243C92.5811 41.0921 91.9972 38.6808 90.8294 37.0903C89.6721 35.4999 88.1309 34.7047 86.2056 34.7047C84.2803 34.7047 82.7286 35.5127 81.5503 37.1288C80.372 38.7321 79.7828 41.1562 79.7828 44.4013Z" fill="black"/>
<path d="M101.359 58.5228V30.3181H106.03V41.4192H115.183V30.3181H119.854V58.5228H115.183V46.1905H106.03V58.5228H101.359Z" fill="black"/>
<path d="M145.833 58.5228H140.752L138.732 52.1162H129.484L127.575 58.5228H122.62L131.631 30.3181H136.57L145.833 58.5228ZM137.233 47.3641L134.045 36.898L130.92 47.3641H137.233Z" fill="black"/>
<circle cx="100" cy="119.419" r="44.0833" stroke="#8F8F8F" stroke-width="7.66667"/>
<path d="M70.6119 90.0308L130.245 149.663" stroke="#8F8F8F" stroke-width="7.66667" stroke-linecap="square"/>
<mask id="path-6-inside-1_0_765" fill="white">
<path fill-rule="evenodd" clip-rule="evenodd" d="M131.042 145.04C136.794 138.08 140.25 129.152 140.25 119.417C140.25 97.188 122.229 79.1675 99.9999 79.1675C90.2652 79.1675 81.3376 82.6234 74.3771 88.3752L131.042 145.04ZM125.621 150.461C118.661 156.212 109.734 159.668 99.9999 159.668C77.7705 159.668 59.7499 141.647 59.7499 119.417C59.7499 109.684 63.2052 100.757 68.9561 93.7965L125.621 150.461Z"/>
</mask>
<path fill-rule="evenodd" clip-rule="evenodd" d="M131.042 145.04C136.794 138.08 140.25 129.152 140.25 119.417C140.25 97.188 122.229 79.1675 99.9999 79.1675C90.2652 79.1675 81.3376 82.6234 74.3771 88.3752L131.042 145.04ZM125.621 150.461C118.661 156.212 109.734 159.668 99.9999 159.668C77.7705 159.668 59.7499 141.647 59.7499 119.417C59.7499 109.684 63.2052 100.757 68.9561 93.7965L125.621 150.461Z" fill="#8F8F8F"/>
<path d="M131.042 145.04L129.235 146.847L131.222 148.834L133.012 146.668L131.042 145.04ZM74.3771 88.3752L72.7492 86.4052L70.583 88.1953L72.57 90.1823L74.3771 88.3752ZM125.621 150.461L127.249 152.431L129.415 150.641L127.428 148.654L125.621 150.461ZM68.9561 93.7965L70.7631 91.9895L68.776 90.0024L66.986 92.1688L68.9561 93.7965ZM137.694 119.417C137.694 128.536 134.46 136.893 129.072 143.412L133.012 146.668C139.129 139.267 142.805 129.768 142.805 119.417H137.694ZM99.9999 81.723C120.818 81.723 137.694 98.5994 137.694 119.417H142.805C142.805 95.7766 123.641 76.6119 99.9999 76.6119V81.723ZM76.005 90.3452C82.5244 84.9579 90.881 81.723 99.9999 81.723V76.6119C89.6493 76.6119 80.1508 80.2889 72.7492 86.4052L76.005 90.3452ZM72.57 90.1823L129.235 146.847L132.849 143.233L76.1841 86.5682L72.57 90.1823ZM123.993 148.491C117.474 153.878 109.118 157.112 99.9999 157.112V162.223C110.35 162.223 119.847 158.547 127.249 152.431L123.993 148.491ZM99.9999 157.112C79.1818 157.112 62.3055 140.236 62.3055 119.417H57.1944C57.1944 143.058 76.3591 162.223 99.9999 162.223V157.112ZM62.3055 119.417C62.3055 110.299 65.5397 101.943 70.9262 95.4243L66.986 92.1688C60.8706 99.5701 57.1944 109.068 57.1944 119.417H62.3055ZM127.428 148.654L70.7631 91.9895L67.149 95.6036L123.814 152.268L127.428 148.654Z" fill="white" mask="url(#path-6-inside-1_0_765)"/>
<path d="M156.25 19.4197H157.036L44.2056 182.961H43.75V181.92H42.7084V181.463L155.224 18.3781H156.25V19.4197Z" fill="black"/>
<path d="M56.8609 182.961L157.291 37.3936V33.725L54.3298 182.961H56.8609Z" fill="black"/>
<path d="M157.291 28.2221L50.5333 182.961H48.0022L157.291 24.5535V28.2221Z" fill="black"/>
<path d="M142.569 18.3781L42.7084 163.12V166.789L145.1 18.3781H142.569Z" fill="black"/>
<path d="M42.7084 172.292L148.896 18.3781H151.427L42.7084 175.96V172.292Z" fill="black"/>
</svg>
