<svg width="200" height="201" viewBox="0 0 200 201" fill="none" xmlns="http://www.w3.org/2000/svg">
<rect x="1.56254" y="147.02" width="92.7084" height="196.875" rx="8.85417" transform="rotate(-90 1.56254 147.02)" fill="white" stroke="#13141A" stroke-width="1.04167"/>
<rect x="6.77083" y="141.812" width="82.2917" height="186.458" rx="3.64583" transform="rotate(-90 6.77083 141.812)" stroke="black" stroke-width="1.04167"/>
<path d="M16.6666 125.804H183.113V131.917H16.6666V125.804Z" fill="#1F1A17"/>
<path fill-rule="evenodd" clip-rule="evenodd" d="M109.97 116.302C109.97 112.04 113.345 108.665 117.607 108.665C121.869 108.665 125.244 112.04 125.244 116.302C125.244 120.563 121.869 123.939 117.607 123.939C113.345 123.939 109.97 120.563 109.97 116.302ZM113.235 116.302C113.235 118.737 115.172 120.674 117.607 120.674C120.042 120.674 121.979 118.737 121.979 116.302C121.979 113.867 120.042 111.93 117.607 111.93C115.172 111.93 113.235 113.867 113.235 116.302Z" fill="#1F1A17"/>
<path fill-rule="evenodd" clip-rule="evenodd" d="M182.747 100.691L170.959 86.9112C170.906 86.8585 170.845 86.7959 170.776 86.7256C170.123 86.0571 168.794 84.6973 167.693 84.6973H140.519C138.36 84.6973 136.866 85.9154 136.146 86.9112L128.674 97.2609C128.01 98.1456 126.626 98.7549 125.52 98.866L105.596 102.131C104.821 102.241 103.161 103.404 103.437 105.396L104.489 111.926C104.655 113.144 106.094 114.14 106.703 114.14H109.193C110.134 110.322 113.565 107.554 117.661 107.554C122.531 107.554 126.294 111.428 126.294 116.299H159.059C159.059 111.428 162.933 107.554 167.803 107.554C171.955 107.554 175.331 110.322 176.216 114.14H178.596C179.426 114.14 180.699 112.424 180.81 111.926L183.024 104.898C183.522 103.846 183.411 101.355 182.747 100.691ZM164.815 99.9724H136.09C133.766 99.9724 133.324 97.1496 134.32 95.5999L137.529 90.7297C138.526 89.1806 140.131 87.9633 141.957 87.9633H163.819C163.999 87.9633 164.166 87.9601 164.322 87.9571C165.74 87.9295 166.208 87.9203 167.305 90.5641L168.799 94.2168C169.962 96.9285 169.187 99.9724 164.815 99.9724Z" fill="#1F1A17"/>
<path fill-rule="evenodd" clip-rule="evenodd" d="M160.114 116.302C160.114 112.04 163.489 108.665 167.752 108.665C172.013 108.665 175.389 112.04 175.389 116.302C175.389 120.563 172.013 123.939 167.752 123.939C163.489 123.939 160.114 120.563 160.114 116.302ZM163.379 116.302C163.379 118.737 165.316 120.674 167.752 120.674C170.186 120.674 172.124 118.737 172.124 116.302C172.124 113.867 170.186 111.93 167.752 111.93C165.316 111.93 163.379 113.867 163.379 116.302Z" fill="#1F1A17"/>
<path d="M106.524 76.7022L108.607 77.2384L103.995 95.1629L101.911 94.6267L106.524 76.7022Z" fill="#1F1A17"/>
<path d="M91.6954 77.4943L89.6737 78.3305L95.8655 95.4655L97.8872 94.6293L91.6954 77.4943Z" fill="#1F1A17"/>
<path d="M108.26 98.661L106.893 96.9528L120.587 84.9352L121.954 86.6435L108.26 98.661Z" fill="#1F1A17"/>
<path fill-rule="evenodd" clip-rule="evenodd" d="M23.2302 116.302C23.2302 112.04 26.6054 108.665 30.8676 108.665C35.129 108.665 38.5045 112.04 38.5045 116.302C38.5045 120.563 35.129 123.939 30.8676 123.939C26.6054 123.939 23.2302 120.563 23.2302 116.302ZM26.4952 116.302C26.4952 118.737 28.4323 120.674 30.8676 120.674C33.3026 120.674 35.2395 118.737 35.2395 116.302C35.2395 113.867 33.3026 111.93 30.8676 111.93C28.4323 111.93 26.4952 113.867 26.4952 116.302Z" fill="#1F1A17"/>
<path fill-rule="evenodd" clip-rule="evenodd" d="M96.0071 100.691L84.2187 86.9112C84.166 86.8585 84.1048 86.7959 84.0361 86.7256C83.383 86.0571 82.0547 84.6973 80.9532 84.6973H53.7787C51.6205 84.6973 50.1259 85.9154 49.4064 86.9112L41.9343 97.2609C41.2706 98.1456 39.8866 98.7549 38.7804 98.866L18.8564 102.131C18.0811 102.241 16.4209 103.404 16.6973 105.396L17.7489 111.926C17.9149 113.144 19.3539 114.14 19.963 114.14H22.4528C23.3938 110.322 26.8253 107.554 30.9208 107.554C35.7916 107.554 39.5546 111.428 39.5546 116.299H72.3189C72.3189 111.428 76.1935 107.554 81.0636 107.554C85.2151 107.554 88.5912 110.322 89.4759 114.14H91.8563C92.686 114.14 93.9593 112.424 94.0698 111.926L96.2837 104.898C96.7822 103.846 96.6713 101.355 96.0071 100.691ZM78.0752 99.9724H49.3506C47.0262 99.9724 46.5838 97.1496 47.58 95.5999L50.7894 90.7297C51.7859 89.1806 53.3911 87.9633 55.2173 87.9633H77.0788C77.2593 87.9633 77.4263 87.9601 77.5818 87.9571C79.0003 87.9295 79.4684 87.9203 80.5652 90.5641L82.0594 94.2168C83.222 96.9285 82.4476 99.9724 78.0752 99.9724Z" fill="#1F1A17"/>
<path fill-rule="evenodd" clip-rule="evenodd" d="M73.3739 116.302C73.3739 112.04 76.7492 108.665 81.0117 108.665C85.273 108.665 88.6491 112.04 88.6491 116.302C88.6491 120.563 85.273 123.939 81.0117 123.939C76.7492 123.939 73.3739 120.563 73.3739 116.302ZM76.6394 116.302C76.6394 118.737 78.5758 120.674 81.0117 120.674C83.4459 120.674 85.3841 118.737 85.3841 116.302C85.3841 113.867 83.4459 111.93 81.0117 111.93C78.5758 111.93 76.6394 113.867 76.6394 116.302Z" fill="#1F1A17"/>
</svg>
