<svg width="200" height="201" viewBox="0 0 200 201" fill="none" xmlns="http://www.w3.org/2000/svg">
<rect x="1.56254" y="146.687" width="92.7084" height="196.875" rx="8.85417" transform="rotate(-90 1.56254 146.687)" fill="white" stroke="#13141A" stroke-width="1.04167"/>
<rect x="6.77083" y="141.48" width="82.2917" height="186.458" rx="3.64583" transform="rotate(-90 6.77083 141.48)" stroke="black" stroke-width="1.04167"/>
<path d="M6.25 129.5H193.75V137.834C193.75 140.135 191.885 142 189.583 142H10.4167C8.11548 142 6.25 140.135 6.25 137.834V129.5Z" fill="black"/>
<path d="M104.167 117H193.75V129.5H104.167V117Z" fill="black"/>
<path fill-rule="evenodd" clip-rule="evenodd" d="M29.4526 88.0272C28.4255 88.4911 27.4774 89.503 27.1021 90.0692L23.3401 94.3853L15.2986 103.948C14.467 104.593 14.3983 107.408 14.8976 108.492L17.0103 115.479C17.1668 116.049 18.5605 117.69 19.2663 117.695L21.6515 117.906C22.3971 114.799 24.7341 112.109 27.9564 111.197C31.1787 110.285 34.4023 111.403 36.591 113.679C38.282 115.315 38.6396 117.394 39.0237 119.625L39.0664 119.873C39.0658 119.905 39.0785 119.934 39.0913 119.964C39.104 119.993 39.1168 120.022 39.1162 120.054L57.7732 120.192L71.7988 120.065C71.7683 116.075 74.4357 112.327 78.3866 111.209C83.0861 109.88 87.9197 112.725 89.2283 117.494C89.2515 117.579 89.2765 117.661 89.3012 117.742C89.3498 117.902 89.3976 118.058 89.4289 118.225L90.8687 117.818C91.5746 117.823 92.9271 116.883 93.0121 115.734L93.6841 108.649C94.0992 106.487 92.4571 105.467 91.5091 105.326L76.0394 102.317L72.7338 101.579C71.7365 101.247 69.9576 100.622 69.5618 99.9146L62.1443 90.1972C61.4313 89.0692 59.9831 87.6703 57.8236 87.8748L48.918 87.9335L30.4673 87.8347C30.1363 87.8275 29.7952 87.8736 29.4526 88.0272ZM32.7551 91.2301C33.3112 91.0114 33.9176 91.0173 34.6081 91.0239C34.8045 91.0258 35.0077 91.0278 35.2185 91.0247L49.7966 91.1351L56.3667 91.0472C58.2048 91.1416 59.6268 92.4219 60.7234 93.8509L64.0137 99.1242C64.9924 100.486 64.5732 103.324 62.24 103.268L53.1531 103.378L33.2544 103.295C28.8795 103.512 28.139 100.101 29.2507 97.5371L30.829 93.7443C31.4098 92.1967 32.0401 91.508 32.7551 91.2301Z" fill="black"/>
<path fill-rule="evenodd" clip-rule="evenodd" d="M78.7607 112.287C74.7321 113.427 72.2653 117.714 73.3878 121.804C74.5103 125.895 78.8028 128.272 82.8343 127.132C86.8629 125.992 89.231 121.73 88.1085 117.639C86.986 113.549 82.7893 111.147 78.7607 112.287ZM79.669 115.597C81.9122 114.962 84.1237 116.315 84.748 118.59C85.3722 120.865 84.1656 123.185 81.9252 123.819C79.6848 124.453 77.3726 123.128 76.7484 120.853C76.1242 118.579 77.4258 116.232 79.669 115.597Z" fill="black"/>
<path fill-rule="evenodd" clip-rule="evenodd" d="M22.7192 121.72C21.5967 117.63 24.0635 113.343 28.0921 112.203C32.1207 111.064 36.3174 113.465 37.4398 117.556C38.5623 121.646 36.1971 125.908 32.1656 127.048C28.1342 128.189 23.8417 125.811 22.7192 121.72ZM34.0793 118.506C33.4551 116.232 31.2407 114.879 29.0004 115.513C26.76 116.147 25.4555 118.495 26.0797 120.77C26.7039 123.044 29.0162 124.369 31.2566 123.735C33.4969 123.101 34.7043 120.784 34.0793 118.506Z" fill="black"/>
</svg>
