<svg width="200" height="201" viewBox="0 0 200 201" fill="none" xmlns="http://www.w3.org/2000/svg">
<circle cx="100" cy="100.669" r="82.8125" fill="white" stroke="#05081B" stroke-width="1.04167"/>
<path fill-rule="evenodd" clip-rule="evenodd" d="M113.644 94.3699L109.653 105.46H108.264C106.576 105.46 105.208 106.843 105.208 108.548V119.355C105.208 121.06 106.576 122.443 108.264 122.443H109.028V127.846C109.028 129.551 110.396 130.934 112.083 130.934H114.375C116.063 130.934 117.431 129.551 117.431 127.846V122.443H138.82V127.846C138.82 129.551 140.188 130.934 141.875 130.934H144.167C145.854 130.934 147.222 129.551 147.222 127.846V122.443H147.986C149.674 122.443 151.042 121.06 151.042 119.355V108.548C151.042 106.843 149.674 105.46 147.986 105.46H146.597L142.606 94.3699C142.167 93.1497 141.02 92.3374 139.735 92.3374H116.515C115.23 92.3374 114.083 93.1497 113.644 94.3699ZM117.05 96.1971L113.717 105.46H142.533L139.2 96.1971H117.05Z" fill="#8F8F8F"/>
<path fill-rule="evenodd" clip-rule="evenodd" d="M48.9585 116.151V105.344L48.9585 71.5051C48.9585 69.2039 50.824 67.3384 53.1252 67.3384L94.7918 67.3384C97.093 67.3384 98.9585 69.2039 98.9585 71.505L98.9585 105.344V116.151C98.9585 117.856 97.5905 119.239 95.903 119.239H95.1391V128.168C95.1391 129.873 93.771 131.255 92.0835 131.255H89.7918C88.1043 131.255 86.7363 129.873 86.7363 128.168V119.239H79.9138C79.1092 121.76 76.7471 123.587 73.9584 123.587C71.1697 123.587 68.8076 121.76 68.003 119.239H61.1807L61.1807 128.168C61.1807 129.873 59.8127 131.255 58.1252 131.255H55.8335C54.146 131.255 52.7779 129.873 52.7779 128.168V119.239H52.0141C50.3265 119.239 48.9585 117.856 48.9585 116.151Z" fill="#8F8F8F"/>
<circle cx="100" cy="100.67" r="77.0834" stroke="black" stroke-width="2.08333"/>
<path d="M37.4995 147.182L146.512 38.1699L147.985 39.6431L38.9726 148.655L37.4995 147.182Z" fill="black"/>
<path d="M41.1823 150.865L150.195 41.8528L151.668 43.3259L42.6555 152.338L41.1823 150.865Z" fill="black"/>
<path d="M153.877 45.5356L44.8652 154.548L46.3383 156.021L155.351 47.0088L153.877 45.5356Z" fill="black"/>
<path d="M48.548 158.231L157.56 49.2185L159.033 50.6916L50.0212 159.704L48.548 158.231Z" fill="black"/>
<path d="M161.243 52.9013L52.2309 161.914L53.704 163.387L162.716 54.3745L161.243 52.9013Z" fill="black"/>
</svg>
