<svg width="200" height="201" viewBox="0 0 200 201" fill="none" xmlns="http://www.w3.org/2000/svg">
<rect x="36.9792" y="12.3122" width="126.042" height="176.042" rx="8.85417" fill="white" stroke="#13141A" stroke-width="1.04167"/>
<rect x="41.6667" y="17" width="116.667" height="166.667" rx="4.16667" fill="#1071AF"/>
<rect x="50" y="33.666" width="100" height="100" rx="4.16667" fill="white"/>
<path d="M67.5369 63.2534V61.166H74.4875V63.2534H76.4871V59.3423H75.1687V50.5972H67.676L67.3098 56.5737C67.2219 58.002 67.0095 58.8296 66.2698 59.3423H65.53V63.2534H67.5369ZM69.3459 56.7349L69.6243 52.4209H72.9568V59.3423H68.6428V59.2837C69.1116 58.7344 69.2654 57.9214 69.3459 56.7349ZM81.5152 61.3271C83.8883 61.3271 85.4044 59.8037 85.4044 57.2402V57.2256C85.4044 54.6841 83.8663 53.1533 81.5152 53.1533C79.1641 53.1533 77.6261 54.6987 77.6261 57.2256V57.2402C77.6261 59.7964 79.1348 61.3271 81.5152 61.3271ZM81.5225 59.6499C80.4679 59.6499 79.8013 58.7783 79.8013 57.2402V57.2256C79.8013 55.7095 80.4825 54.8306 81.5152 54.8306C82.5553 54.8306 83.2291 55.7095 83.2291 57.2256V57.2402C83.2291 58.771 82.5699 59.6499 81.5225 59.6499ZM86.9535 63.7295H89.0922V59.8257H89.1361C89.5609 60.7559 90.4399 61.3271 91.5678 61.3271C93.5307 61.3271 94.7392 59.7891 94.7392 57.2402V57.2329C94.7392 54.6768 93.5307 53.1533 91.5385 53.1533C90.4179 53.1533 89.5683 53.7319 89.1361 54.6841H89.0922V53.3145H86.9535V63.7295ZM90.828 59.5547C89.7953 59.5547 89.0776 58.6611 89.0776 57.2476V57.2402C89.0776 55.8193 89.7953 54.9258 90.828 54.9258C91.8901 54.9258 92.5639 55.7974 92.5639 57.2329V57.2402C92.5639 58.6685 91.8974 59.5547 90.828 59.5547ZM99.8918 61.3271C102.265 61.3271 103.781 59.8037 103.781 57.2402V57.2256C103.781 54.6841 102.243 53.1533 99.8918 53.1533C97.5408 53.1533 96.0027 54.6987 96.0027 57.2256V57.2402C96.0027 59.7964 97.5115 61.3271 99.8918 61.3271ZM99.8992 59.6499C98.8445 59.6499 98.178 58.7783 98.178 57.2402V57.2256C98.178 55.7095 98.8591 54.8306 99.8918 54.8306C100.932 54.8306 101.606 55.7095 101.606 57.2256V57.2402C101.606 58.771 100.947 59.6499 99.8992 59.6499ZM106.817 61.166L109.168 57.8555H109.351V61.166H111.468V57.8555H111.651L113.995 61.166H116.536L113.519 56.9619L116.382 53.3145H113.951L111.651 56.4126H111.468V53.3145H109.351V56.4126H109.168L106.861 53.3145H104.415L107.293 56.9912L104.297 61.166H106.817ZM122.861 61.166H124.999V53.3145H122.861V56.332H119.858V53.3145H117.719V61.166H119.858V57.9507H122.861V61.166ZM131.463 61.166H133.558V53.3145H129.918C128.013 53.3145 126.776 54.3691 126.776 56.0317V56.0464C126.776 57.167 127.435 57.9727 128.504 58.3096L126.439 61.166H128.819L130.562 58.6318H131.463V61.166ZM130.13 57.123C129.383 57.123 128.914 56.6763 128.914 56.0537V56.0391C128.914 55.3506 129.376 54.9111 130.13 54.9111H131.463V57.123H130.13ZM76.2527 79.3271C78.3547 79.3271 79.7024 78.0234 79.8049 76.3096L79.8123 76.2656H77.8201L77.8054 76.3315C77.6663 77.1226 77.1316 77.6499 76.2747 77.6499C75.2126 77.6499 74.5535 76.7783 74.5535 75.2402V75.2329C74.5535 73.7314 75.2126 72.8306 76.2673 72.8306C77.1462 72.8306 77.6736 73.4019 77.8054 74.1489L77.8127 74.2148H79.8049L79.7976 74.1636C79.717 72.4644 78.3621 71.1533 76.238 71.1533C73.8796 71.1533 72.3782 72.7134 72.3782 75.2256V75.2329C72.3782 77.7671 73.865 79.3271 76.2527 79.3271ZM87.4845 71.3145H80.6729V72.9331H83.0094V79.166H85.148V72.9331H87.4845V71.3145ZM91.0844 79.2905C92.1098 79.2905 92.9447 78.7998 93.3988 77.9941H93.4428V79.166H95.5815V73.7827C95.5815 72.2007 94.2631 71.1533 92.2416 71.1533C90.1615 71.1533 88.9164 72.1934 88.7992 73.6436L88.7919 73.7314H90.7475L90.7621 73.6655C90.872 73.1602 91.3481 72.7866 92.1464 72.7866C92.9887 72.7866 93.4428 73.2187 93.4428 73.9146V74.3979L91.5019 74.5151C89.5463 74.6396 88.4403 75.4746 88.4403 76.9028V76.9175C88.4403 78.3018 89.5097 79.2905 91.0844 79.2905ZM90.557 76.8076V76.793C90.557 76.2363 90.9965 75.8848 91.8241 75.8335L93.4428 75.731V76.2949C93.4428 77.1152 92.7323 77.7305 91.7729 77.7305C91.0404 77.7305 90.557 77.3862 90.557 76.8076ZM102.558 79.166H104.697V71.3145H102.558V74.332H99.5549V71.3145H97.4163V79.166H99.5549V75.9507H102.558V79.166ZM113.021 81.2534H114.954V77.5547H113.775V71.3145H111.636V77.5547H108.707V71.3145H106.568V79.166H113.021V81.2534ZM117.338 70.3037C117.983 70.3037 118.481 69.7983 118.481 69.1904C118.481 68.5825 117.983 68.0771 117.338 68.0771C116.701 68.0771 116.196 68.5825 116.196 69.1904C116.196 69.7983 116.701 70.3037 117.338 70.3037ZM116.269 79.166H118.408V71.3145H116.269V79.166ZM124.893 79.166H126.988V71.3145H123.348C121.444 71.3145 120.206 72.3691 120.206 74.0317V74.0464C120.206 75.167 120.865 75.9727 121.934 76.3096L119.869 79.166H122.249L123.992 76.6318H124.893V79.166ZM123.56 75.123C122.813 75.123 122.344 74.6763 122.344 74.0537V74.0391C122.344 73.3506 122.806 72.9111 123.56 72.9111H124.893V75.123H123.56ZM59.6247 98.166H61.7634V91.9258H64.6931V98.166H66.8318V90.3145H59.6247V98.166ZM71.025 98.2905C72.0504 98.2905 72.8853 97.7998 73.3394 96.9941H73.3834V98.166H75.522V92.7827C75.522 91.2007 74.2037 90.1533 72.1822 90.1533C70.1021 90.1533 68.857 91.1934 68.7398 92.6436L68.7325 92.7314H70.6881L70.7027 92.6655C70.8126 92.1602 71.2886 91.7866 72.087 91.7866C72.9293 91.7866 73.3834 92.2187 73.3834 92.9146V93.3979L71.4425 93.5151C69.4869 93.6396 68.3809 94.4746 68.3809 95.9028V95.9175C68.3809 97.3018 69.4503 98.2905 71.025 98.2905ZM70.4976 95.8076V95.793C70.4976 95.2363 70.9371 94.8848 71.7647 94.8335L73.3834 94.731V95.2949C73.3834 96.1152 72.6729 96.7305 71.7135 96.7305C70.981 96.7305 70.4976 96.3862 70.4976 95.8076ZM83.6484 90.3145H76.8368V91.9331H79.1733V98.166H81.3119V91.9331H83.6484V90.3145ZM85.0583 100.729H87.197V96.8257H87.241C87.6658 97.7559 88.5447 98.3271 89.6726 98.3271C91.6355 98.3271 92.844 96.7891 92.844 94.2402V94.2329C92.844 91.6768 91.6355 90.1533 89.6433 90.1533C88.5227 90.1533 87.6731 90.7319 87.241 91.6841H87.197V90.3145H85.0583V100.729ZM88.9329 96.5547C87.9001 96.5547 87.1824 95.6611 87.1824 94.2476V94.2402C87.1824 92.8193 87.9001 91.9258 88.9329 91.9258C89.9949 91.9258 90.6687 92.7974 90.6687 94.2329V94.2402C90.6687 95.6685 90.0022 96.5547 88.9329 96.5547ZM95.4332 100.751C97.1837 100.751 98.2384 100.158 98.8536 98.3052L101.542 90.3145H99.2857L97.6304 96.4521H97.5645L95.9093 90.3145H93.5655L96.3341 98.166L96.2462 98.4224C96.0557 98.957 95.7042 99.1401 95.067 99.1401C94.7447 99.1401 94.4957 99.0962 94.3492 99.0669V100.656C94.5982 100.7 95.0157 100.751 95.4332 100.751ZM105.105 94.5259L105.266 91.9331H107.427V98.166H109.565V90.3145H103.428L103.193 94.3501C103.113 95.7563 102.856 96.3936 102.095 96.3936C101.897 96.3936 101.75 96.3716 101.663 96.3496V98.144C101.787 98.1807 102.065 98.2393 102.461 98.2393C104.387 98.2393 104.966 96.7964 105.105 94.5259ZM111.444 98.166H115.106C116.959 98.166 118.146 97.082 118.146 95.3828V95.3682C118.146 93.6689 116.959 92.585 115.106 92.585H113.583V90.3145H111.444V98.166ZM114.718 94.1963C115.487 94.1963 115.97 94.6504 115.97 95.3682V95.3828C115.97 96.0933 115.487 96.5547 114.718 96.5547H113.583V94.1963H114.718ZM124.815 98.166H126.953V90.3145H124.815V93.332H121.812V90.3145H119.673V98.166H121.812V94.9507H124.815V98.166ZM132.406 98.3271C134.779 98.3271 136.295 96.8037 136.295 94.2402V94.2256C136.295 91.6841 134.757 90.1533 132.406 90.1533C130.055 90.1533 128.517 91.6987 128.517 94.2256V94.2402C128.517 96.7964 130.026 98.3271 132.406 98.3271ZM132.413 96.6499C131.359 96.6499 130.692 95.7783 130.692 94.2402V94.2256C130.692 92.7095 131.373 91.8306 132.406 91.8306C133.446 91.8306 134.12 92.7095 134.12 94.2256V94.2402C134.12 95.771 133.461 96.6499 132.413 96.6499ZM138.76 87.9048C138.76 87.4434 138.394 87.0771 137.932 87.0771H137.918C137.456 87.0771 137.09 87.4434 137.09 87.9048V88.4834C137.09 88.9448 137.456 89.3037 137.918 89.3037H137.932C138.394 89.3037 138.76 88.9448 138.76 88.4834V87.9048ZM140.811 87.9048C140.811 87.4434 140.452 87.0771 139.99 87.0771H139.969C139.507 87.0771 139.148 87.4434 139.148 87.9048V88.4834C139.148 88.9448 139.507 89.3037 139.969 89.3037H139.99C140.452 89.3037 140.811 88.9448 140.811 88.4834V87.9048ZM137.881 98.166H140.02V90.3145H137.881V98.166ZM76.4706 117.166H78.6093V110.926H81.539V117.166H83.6776V109.314H76.4706V117.166ZM89.1306 117.327C91.5037 117.327 93.0198 115.804 93.0198 113.24V113.226C93.0198 110.684 91.4817 109.153 89.1306 109.153C86.7795 109.153 85.2415 110.699 85.2415 113.226V113.24C85.2415 115.796 86.7502 117.327 89.1306 117.327ZM89.1379 115.65C88.0832 115.65 87.4167 114.778 87.4167 113.24V113.226C87.4167 111.709 88.0979 110.831 89.1306 110.831C90.1707 110.831 90.8445 111.709 90.8445 113.226V113.24C90.8445 114.771 90.1853 115.65 89.1379 115.65ZM97.2203 113.526L97.3814 110.933H99.5421V117.166H101.681V109.314H95.543L95.3087 113.35C95.2281 114.756 94.9718 115.394 94.21 115.394C94.0123 115.394 93.8658 115.372 93.7779 115.35V117.144C93.9024 117.181 94.1807 117.239 94.5762 117.239C96.5025 117.239 97.0811 115.796 97.2203 113.526ZM104.651 108.304C105.295 108.304 105.793 107.798 105.793 107.19C105.793 106.583 105.295 106.077 104.651 106.077C104.014 106.077 103.508 106.583 103.508 107.19C103.508 107.798 104.014 108.304 104.651 108.304ZM103.581 117.166H105.72V109.314H103.581V117.166ZM114.066 119.253H116V115.555H114.821V109.314H112.682V115.555H109.752V109.314H107.614V117.166H114.066V119.253ZM118.384 108.304C119.028 108.304 119.526 107.798 119.526 107.19C119.526 106.583 119.028 106.077 118.384 106.077C117.747 106.077 117.241 106.583 117.241 107.19C117.241 107.798 117.747 108.304 118.384 108.304ZM117.315 117.166H119.453V109.314H117.315V117.166ZM122.247 106.905C122.247 106.443 121.881 106.077 121.42 106.077H121.405C120.944 106.077 120.578 106.443 120.578 106.905V107.483C120.578 107.945 120.944 108.304 121.405 108.304H121.42C121.881 108.304 122.247 107.945 122.247 107.483V106.905ZM124.298 106.905C124.298 106.443 123.939 106.077 123.478 106.077H123.456C122.995 106.077 122.636 106.443 122.636 106.905V107.483C122.636 107.945 122.995 108.304 123.456 108.304H123.478C123.939 108.304 124.298 107.945 124.298 107.483V106.905ZM121.369 117.166H123.507V109.314H121.369V117.166Z" fill="#05081B"/>
</svg>
