<svg width="200" height="200" viewBox="0 0 200 200" fill="none" xmlns="http://www.w3.org/2000/svg">
<rect y="16.6675" width="200" height="166.667" fill="#68696C"/>
<path d="M26.0823 119.792C18.8298 116.728 13.5417 108.612 13.5417 98.9579C13.5417 89.3063 18.8298 81.1902 26.0823 78.1257H173.918C181.17 81.1902 186.458 89.3063 186.458 98.9579C186.458 108.612 181.17 116.728 173.918 119.79L26.0823 119.792Z" fill="#FFE600" stroke="#13141A" stroke-width="2.08333"/>
<rect x="91.7969" y="77.084" width="16.4062" height="43.75" fill="#05081B"/>
<rect x="50.7812" y="77.084" width="16.4062" height="43.75" fill="#05081B"/>
<rect x="132.812" y="77.084" width="16.4062" height="43.75" fill="#05081B"/>
<path fill-rule="evenodd" clip-rule="evenodd" d="M173.828 120.832V77.084H174.125C181.918 80.2689 187.5 88.8604 187.5 98.9579C187.5 109.058 181.918 117.649 174.125 120.832L173.828 120.832Z" fill="#05081B"/>
<path fill-rule="evenodd" clip-rule="evenodd" d="M26.1719 120.832V77.084H25.8745C18.0823 80.2689 12.5 88.8604 12.5 98.9579C12.5 109.058 18.0823 117.649 25.8745 120.832L26.1719 120.832Z" fill="#05081B"/>
<path d="M16.6666 166.667V131.25H22.9166V166.667H16.6666Z" fill="white"/>
<path d="M32.7087 153.907L32.7087 131.25H38.9587V153.907H32.7087Z" fill="white"/>
<path d="M48.7498 131.25V166.667H54.9998V131.25H48.7498Z" fill="white"/>
<path d="M64.7918 153.907V131.25H71.0418V153.907H64.7918Z" fill="white"/>
<path d="M80.8329 131.25V166.667H87.0829V131.25H80.8329Z" fill="white"/>
<path d="M96.875 153.907V131.25H103.125V153.907H96.875Z" fill="white"/>
<path d="M112.917 131.25V166.667H119.167V131.25H112.917Z" fill="white"/>
<path d="M128.958 153.907V131.25H135.208V153.907H128.958Z" fill="white"/>
<path d="M145 131.25V166.667H151.25V131.25H145Z" fill="white"/>
<path d="M161.041 153.907V131.25H167.291V153.907H161.041Z" fill="white"/>
<path d="M177.083 131.25V166.667H183.333V131.25H177.083Z" fill="white"/>
<path d="M16.6666 33.334V68.7506H22.9166V33.334H16.6666Z" fill="white"/>
<path d="M32.7087 46.0944L32.7087 68.7506H38.9587V46.0944H32.7087Z" fill="white"/>
<path d="M48.7498 68.7506V33.334H54.9998V68.7506H48.7498Z" fill="white"/>
<path d="M64.7918 46.0944V68.7506H71.0418V46.0944H64.7918Z" fill="white"/>
<path d="M80.8329 68.7506V33.334H87.0829V68.7506H80.8329Z" fill="white"/>
<path d="M96.875 46.0944V68.7506H103.125V46.0944H96.875Z" fill="white"/>
<path d="M112.917 68.7506V33.334H119.167V68.7506H112.917Z" fill="white"/>
<path d="M128.958 46.0944V68.7506H135.208V46.0944H128.958Z" fill="white"/>
<path d="M145 68.7506V33.334H151.25V68.7506H145Z" fill="white"/>
<path d="M161.041 46.0944V68.7506H167.291V46.0944H161.041Z" fill="white"/>
<path d="M177.083 68.7506V33.334H183.333V68.7506H177.083Z" fill="white"/>
</svg>
