<svg width="200" height="201" viewBox="0 0 200 201" fill="none" xmlns="http://www.w3.org/2000/svg">
<rect x="36.9792" y="12.3129" width="126.042" height="176.042" rx="8.85417" fill="white" stroke="#13141A" stroke-width="1.04167"/>
<rect x="41.6667" y="17" width="116.667" height="166.667" rx="4.16667" fill="#00AC5A"/>
<path fill-rule="evenodd" clip-rule="evenodd" d="M94.9224 69.6319L88.7821 183.667H43.9103L77.6821 69.6319H66.347V69.6327L61.8598 80.5976H55.1291V69.6319H41.6667V60.8599H80.28L93.2692 17H97.7564L95.3947 60.8599H104.605L102.244 17H106.731L119.72 60.8599H158.333V69.6319H144.871V80.5976H138.14L133.653 69.6327V69.6319H122.318L156.09 183.667H111.218L105.078 69.6319H94.9224Z" fill="white"/>
<rect x="54.7397" y="130.073" width="90.5208" height="44.6875" rx="6.30208" fill="white" stroke="black" stroke-width="1.14583"/>
<circle cx="122.916" cy="151.885" r="16.6563" fill="#05081B"/>
<circle cx="122.914" cy="151.313" r="15.2463" fill="white"/>
<path d="M112.194 155.39L115.113 155.088C115.196 155.748 115.443 156.273 115.853 156.662C116.263 157.044 116.735 157.235 117.27 157.235C117.882 157.235 118.399 156.989 118.823 156.495C119.247 155.995 119.459 155.245 119.459 154.244C119.459 153.306 119.247 152.604 118.823 152.139C118.406 151.666 117.861 151.43 117.187 151.43C116.346 151.43 115.592 151.802 114.925 152.545L112.549 152.201L114.05 144.249H121.793V146.99H116.27L115.811 149.585C116.464 149.259 117.131 149.095 117.812 149.095C119.111 149.095 120.213 149.568 121.116 150.513C122.019 151.458 122.471 152.684 122.471 154.192C122.471 155.45 122.106 156.572 121.377 157.558C120.383 158.906 119.004 159.58 117.239 159.58C115.828 159.58 114.678 159.202 113.789 158.444C112.9 157.687 112.368 156.669 112.194 155.39Z" fill="black"/>
<path d="M128.558 143.978C130.038 143.978 131.195 144.506 132.029 145.562C133.022 146.813 133.519 148.887 133.519 151.784C133.519 154.675 133.019 156.752 132.018 158.017C131.191 159.059 130.038 159.58 128.558 159.58C127.071 159.58 125.872 159.01 124.962 157.871C124.052 156.725 123.597 154.685 123.597 151.753C123.597 148.877 124.097 146.806 125.098 145.541C125.925 144.499 127.078 143.978 128.558 143.978ZM128.558 146.406C128.204 146.406 127.887 146.521 127.609 146.75C127.332 146.973 127.116 147.376 126.963 147.959C126.762 148.717 126.661 149.992 126.661 151.784C126.661 153.577 126.751 154.81 126.932 155.484C127.113 156.151 127.338 156.596 127.609 156.818C127.887 157.041 128.204 157.152 128.558 157.152C128.912 157.152 129.228 157.041 129.506 156.818C129.784 156.589 130 156.183 130.152 155.599C130.354 154.848 130.455 153.577 130.455 151.784C130.455 149.992 130.364 148.762 130.184 148.095C130.003 147.421 129.774 146.973 129.496 146.75C129.225 146.521 128.912 146.406 128.558 146.406Z" fill="black"/>
<circle cx="95.4164" cy="152.056" r="14.4173" fill="#05081B"/>
<circle cx="95.4144" cy="151.457" r="13.2135" fill="white"/>
<path d="M94.6584 156.043V158.401H85.7612C85.8576 157.509 86.1466 156.666 86.6284 155.871C87.1101 155.071 88.0615 154.011 89.4827 152.692C90.6268 151.626 91.3284 150.903 91.5873 150.524C91.9366 150 92.1112 149.482 92.1112 148.97C92.1112 148.404 91.9576 147.971 91.6505 147.67C91.3494 147.363 90.9309 147.209 90.395 147.209C89.8651 147.209 89.4435 147.369 89.1304 147.688C88.8173 148.007 88.6366 148.537 88.5885 149.278L86.0593 149.025C86.2099 147.628 86.6826 146.625 87.4774 146.017C88.2723 145.409 89.2659 145.104 90.4582 145.104C91.7649 145.104 92.7917 145.457 93.5384 146.161C94.2851 146.866 94.6584 147.742 94.6584 148.79C94.6584 149.386 94.55 149.955 94.3332 150.497C94.1225 151.033 93.7852 151.596 93.3216 152.186C93.0145 152.578 92.4605 153.141 91.6596 153.875C90.8587 154.61 90.3498 155.098 90.133 155.338C89.9223 155.579 89.7507 155.814 89.6182 156.043H94.6584Z" fill="black"/>
<path d="M96.0498 154.995L98.5789 154.733C98.6512 155.305 98.865 155.76 99.2203 156.097C99.5755 156.428 99.985 156.594 100.449 156.594C100.979 156.594 101.427 156.38 101.795 155.953C102.162 155.519 102.346 154.869 102.346 154.002C102.346 153.189 102.162 152.581 101.795 152.177C101.433 151.768 100.961 151.563 100.376 151.563C99.6478 151.563 98.9944 151.885 98.4163 152.529L96.3569 152.231L97.6576 145.339H104.369V147.715H99.5816L99.1841 149.964C99.7502 149.681 100.328 149.54 100.918 149.54C102.044 149.54 102.999 149.949 103.782 150.768C104.565 151.587 104.956 152.65 104.956 153.957C104.956 155.046 104.64 156.019 104.008 156.874C103.146 158.042 101.951 158.626 100.422 158.626C99.1992 158.626 98.2026 158.298 97.4318 157.642C96.661 156.985 96.2003 156.103 96.0498 154.995Z" fill="black"/>
<circle cx="72.4999" cy="152.415" r="12.6042" fill="#05081B"/>
<circle cx="72.5001" cy="151.896" r="11.4583" fill="white"/>
<path d="M69.8467 157.479H67.699V149.385C66.9143 150.118 65.9895 150.661 64.9246 151.013V149.064C65.485 148.88 66.0939 148.534 66.7512 148.024C67.4085 147.51 67.8595 146.911 68.1041 146.228H69.8467V157.479Z" fill="black"/>
<path d="M75.5991 146.228C76.6844 146.228 77.5328 146.615 78.1442 147.39C78.8729 148.307 79.2372 149.828 79.2372 151.953C79.2372 154.072 78.8703 155.596 78.1366 156.523C77.5302 157.287 76.6844 157.67 75.5991 157.67C74.5087 157.67 73.6298 157.252 72.9623 156.416C72.2948 155.575 71.961 154.08 71.961 151.93C71.961 149.82 72.3279 148.302 73.0616 147.374C73.668 146.61 74.5138 146.228 75.5991 146.228ZM75.5991 148.009C75.3392 148.009 75.1074 148.093 74.9036 148.261C74.6998 148.424 74.5418 148.72 74.4297 149.148C74.282 149.703 74.2081 150.638 74.2081 151.953C74.2081 153.267 74.2743 154.172 74.4068 154.666C74.5393 155.155 74.7049 155.481 74.9036 155.644C75.1074 155.807 75.3392 155.889 75.5991 155.889C75.859 155.889 76.0908 155.807 76.2946 155.644C76.4984 155.476 76.6564 155.178 76.7685 154.75C76.9163 154.2 76.9901 153.267 76.9901 151.953C76.9901 150.638 76.9239 149.736 76.7914 149.247C76.6589 148.753 76.4908 148.424 76.287 148.261C76.0883 148.093 75.859 148.009 75.5991 148.009Z" fill="black"/>
<path fill-rule="evenodd" clip-rule="evenodd" d="M158.333 24.2606L46.7492 183.667H45.8334C43.5322 183.667 41.6667 181.801 41.6667 179.5V175.393L152.542 17H154.167C156.468 17 158.333 18.8655 158.333 21.1667V24.2606Z" fill="#FF0E00"/>
</svg>
