<svg width="200" height="200" viewBox="0 0 200 200" fill="none" xmlns="http://www.w3.org/2000/svg">
<path d="M0 16.6664H200V95.833H0V16.6664Z" fill="#68696C"/>
<path d="M0 104.166H200V183.333H0V104.166Z" fill="#68696C"/>
<path d="M54.1666 82.4284V29.3835H64.843L71.2537 65.5669L77.592 29.3835H88.2925V82.4284H81.665V40.6727L74.6518 82.4284H67.7832L60.7942 40.6727V82.4284H54.1666Z" fill="white"/>
<path d="M116.064 29.1664C119.486 29.1664 122.161 30.9996 124.089 34.6662C126.387 39.0083 127.536 46.2088 127.536 56.2678C127.536 66.3027 126.379 73.5152 124.065 77.9055C122.153 81.5238 119.486 83.333 116.064 83.333C112.626 83.333 109.854 81.355 107.75 77.3989C105.645 73.4187 104.592 66.3388 104.592 56.1592C104.592 46.1726 105.749 38.9841 108.063 34.5939C109.975 30.9755 112.642 29.1664 116.064 29.1664ZM116.064 37.5971C115.245 37.5971 114.514 37.9951 113.871 38.7912C113.228 39.5631 112.73 40.9622 112.377 42.9884C111.911 45.6178 111.678 50.0442 111.678 56.2678C111.678 62.4913 111.887 66.773 112.304 69.1129C112.722 71.4287 113.244 72.9725 113.871 73.7444C114.514 74.5163 115.245 74.9023 116.064 74.9023C116.884 74.9023 117.615 74.5163 118.257 73.7444C118.9 72.9484 119.398 71.5372 119.751 69.5109C120.217 66.9057 120.45 62.4913 120.45 56.2678C120.45 50.0442 120.241 45.7746 119.824 43.4588C119.406 41.119 118.876 39.5631 118.233 38.7912C117.607 37.9951 116.884 37.5971 116.064 37.5971Z" fill="white"/>
<path d="M147.917 82.4284H141.144V44.1101C138.67 47.5837 135.754 50.1528 132.396 51.8172V42.5904C134.163 41.722 136.083 40.0817 138.156 37.6695C140.229 35.2331 141.651 32.3987 142.422 29.1664H147.917V82.4284Z" fill="white"/>
<path d="M68.75 169.893V116.883H94.6611V125.851H75.8058V137.603H93.3501V146.534H75.8058V160.962H95.3286V169.893H68.75Z" fill="white"/>
<path d="M116.194 141.291C114.462 140.182 113.199 138.663 112.404 136.735C111.625 134.782 111.236 132.649 111.236 130.335C111.236 126.381 112.142 123.115 113.954 120.535C115.781 117.956 118.371 116.666 121.725 116.666C125.046 116.666 127.62 117.956 129.448 120.535C131.291 123.115 132.213 126.381 132.213 130.335C132.213 132.793 131.792 134.987 130.95 136.916C130.107 138.82 128.923 140.278 127.398 141.291C129.337 142.472 130.807 144.196 131.808 146.462C132.825 148.728 133.333 151.343 133.333 154.308C133.333 159.202 132.3 163.179 130.234 166.241C128.184 169.302 125.451 170.833 122.034 170.833C118.856 170.833 116.21 169.567 114.097 167.036C111.602 164.047 110.354 159.949 110.354 154.742C110.354 151.873 110.823 149.246 111.761 146.859C112.698 144.449 114.176 142.593 116.194 141.291ZM117.577 131.058C117.577 133.083 117.95 134.662 118.697 135.795C119.46 136.928 120.469 137.494 121.725 137.494C122.996 137.494 124.013 136.928 124.776 135.795C125.539 134.638 125.92 133.047 125.92 131.022C125.92 129.117 125.539 127.599 124.776 126.466C124.029 125.308 123.036 124.73 121.796 124.73C120.509 124.73 119.484 125.308 118.721 126.466C117.958 127.623 117.577 129.153 117.577 131.058ZM116.957 153.766C116.957 156.562 117.426 158.744 118.364 160.311C119.317 161.878 120.501 162.661 121.915 162.661C123.298 162.661 124.442 161.914 125.348 160.419C126.254 158.9 126.707 156.719 126.707 153.874C126.707 151.391 126.246 149.403 125.324 147.908C124.402 146.389 123.234 145.63 121.82 145.63C120.183 145.63 118.959 146.486 118.149 148.197C117.354 149.909 116.957 151.765 116.957 153.766Z" fill="white"/>
</svg>
