<svg width="200" height="200" viewBox="0 0 200 200" fill="none" xmlns="http://www.w3.org/2000/svg">
<rect x="1.56254" y="146.353" width="92.7084" height="196.875" rx="8.85417" transform="rotate(-90 1.56254 146.353)" fill="white" stroke="#13141A" stroke-width="1.04167"/>
<rect x="6.77083" y="141.146" width="82.2917" height="186.458" rx="3.64583" transform="rotate(-90 6.77083 141.146)" stroke="black" stroke-width="1.04167"/>
<path fill-rule="evenodd" clip-rule="evenodd" d="M123.881 92.8794C125.414 92.8794 126.855 94.0512 127.305 95.3125C121.989 99.8188 118.564 106.576 118.563 114.148C118.563 117.302 119.194 120.365 120.275 123.16H88.3743C86.1211 123.16 84.7684 122.979 84.4086 121.357L75.7577 89.365H74.2251C73.4152 89.365 72.784 89.2756 72.1539 89.0052L68.6395 96.5748C74.2262 100.358 77.8321 106.849 77.8321 114.148C77.8321 126.043 68.2787 135.415 56.5647 135.415C44.6687 135.415 35.2972 126.043 35.2972 114.148C35.2972 102.432 44.6687 92.8794 56.5647 92.8794C58.5465 92.8794 60.3494 93.0593 62.1514 93.5989L68.1893 80.6215C68.7363 79.2404 69.3213 78.2648 70.1722 77.0166H69.7219C66.298 77.0166 63.5031 74.2238 63.5031 70.7998C63.5031 67.3748 66.2969 64.582 69.7219 64.582C69.7595 64.582 69.8124 64.5974 69.8744 64.6154C69.9617 64.6408 70.0669 64.6714 70.1722 64.6714C70.2621 64.6714 70.3294 64.6491 70.3967 64.6267C70.464 64.6044 70.5314 64.582 70.6213 64.582H83.1485C85.1313 64.582 86.6629 66.1136 86.6629 68.0964V68.1858C86.6629 70.1687 85.1313 71.7003 83.1485 71.7003H78.3717L79.2732 75.2147H97.2966C100.271 75.2147 102.614 77.5573 102.614 80.5321V84.0454C102.614 87.0202 100.271 89.3639 97.2966 89.3639H82.877L86.5713 103.603C87.0215 105.134 88.4648 107.207 91.8877 107.207C95.4083 107.207 96.351 105.317 97.1484 103.718C97.1677 103.679 97.187 103.641 97.2061 103.603L100.811 96.4832C101.623 94.7718 103.335 92.8794 105.228 92.8794H123.881ZM56.5647 126.585C63.4115 126.585 68.8194 120.997 68.8194 114.148C68.8194 110.362 67.2878 107.117 64.7632 104.864L62.3301 110.092C63.1422 111.262 63.5914 112.616 63.5914 114.237C63.5914 118.022 60.3484 121.266 56.5636 121.266C52.5979 121.266 49.5348 118.023 49.5348 114.237C49.5348 110.543 52.2382 107.568 55.7526 107.208L58.1857 101.983C57.645 101.89 57.1043 101.89 56.5647 101.89C49.7157 101.89 44.128 107.299 44.128 114.148C44.128 120.997 49.7157 126.585 56.5647 126.585ZM142.895 92.8811H143.434C155.151 92.8811 164.702 102.433 164.702 114.149C164.702 126.043 155.151 135.416 143.434 135.416C131.539 135.416 122.167 126.043 122.167 114.149C122.167 104.956 127.846 97.2065 136.047 94.1423L135.235 89.4561H107.929C106.937 89.4561 106.036 88.1938 106.126 87.6531L107.929 82.3367C108.199 81.5246 108.831 80.5348 109.732 80.5348H145.148C145.778 80.5348 146.95 81.3448 146.95 82.3367V87.6531C146.95 88.645 146.138 89.4561 145.148 89.4561H142.353L142.895 92.8811ZM131 114.15C131 120.999 136.586 126.586 143.434 126.586C150.284 126.586 155.692 120.999 155.69 114.151C155.69 107.66 150.912 102.435 144.604 101.893L145.776 107.66C148.39 108.651 150.373 111.264 150.373 114.239C150.373 118.113 147.219 121.268 143.344 121.268C139.471 121.268 136.315 118.114 136.315 114.239C136.315 112.166 137.218 110.274 138.659 109.012L137.577 103.244C133.703 105.317 131 109.372 131 114.15Z" fill="black"/>
</svg>
