<svg width="200" height="201" viewBox="0 0 200 201" fill="none" xmlns="http://www.w3.org/2000/svg">
<rect x="0.520833" y="-0.520833" width="138.542" height="138.542" rx="8.85417" transform="matrix(-1 0 0 1 169.792 31.5835)" fill="white" stroke="#13141A" stroke-width="1.04167"/>
<rect width="129.167" height="129.167" rx="4.16667" transform="matrix(-1 0 0 1 164.583 35.75)" fill="#1071AF"/>
<path fill-rule="evenodd" clip-rule="evenodd" d="M43.2288 144.488C41.6169 144.488 40.6156 142.736 41.4339 141.347L98.2051 44.9857C99.0109 43.6179 100.989 43.6179 101.795 44.9857L158.566 141.347C159.385 142.736 158.383 144.488 156.771 144.488H43.2288Z" fill="white"/>
<path d="M68.8657 131.583L70.1765 127.136H61.2127L58.4397 131.583H68.8657Z" fill="#05081B"/>
<path d="M68.2516 133.667H57.1407L52.8442 140.557H66.2205L68.2516 133.667Z" fill="#05081B"/>
<path d="M94.2157 133.667H105.782L106.875 140.557H93.122L94.2157 133.667Z" fill="#05081B"/>
<path d="M105.451 131.583H94.5463L95.2522 127.136H104.745L105.451 131.583Z" fill="#05081B"/>
<path d="M129.781 133.667L131.812 140.557H145.188L140.892 133.667H129.781Z" fill="#05081B"/>
<path d="M139.593 131.583H129.167L127.856 127.136H136.82L139.593 131.583Z" fill="#05081B"/>
<path fill-rule="evenodd" clip-rule="evenodd" d="M113.63 89.0465C115.747 89.0465 117.543 90.6034 117.842 92.6995C118.133 94.735 116.926 96.6872 114.976 97.3375L113.039 97.983L118.396 107.358C120.055 106.644 121.883 106.248 123.804 106.248C131.368 106.248 137.5 112.38 137.5 119.945C137.5 127.509 131.368 133.641 123.804 133.641C116.239 133.641 110.107 127.509 110.107 119.945C110.107 115.407 112.315 111.384 115.714 108.892L114.41 106.61L98.428 121.085C98.2467 121.249 98.0306 121.366 97.7984 121.43C97.6493 121.471 97.4976 121.489 97.3479 121.484H89.807C89.0418 128.324 83.24 133.641 76.1963 133.641C68.632 133.641 62.5 127.509 62.5 119.945C62.5 112.38 68.632 106.248 76.1963 106.248C78.4523 106.248 80.5809 106.794 82.4574 107.76L87.0396 100.887V97.3531H83.369C82.5158 97.3531 81.8242 96.6615 81.8242 95.8083C81.8242 94.9551 82.5158 94.2635 83.369 94.2635L94.4565 94.2635C95.3096 94.2635 96.0013 94.9551 96.0013 95.8083C96.0013 96.6615 95.3096 97.3531 94.4565 97.3531H90.1292V99.807H110.523L109.421 97.8798C109.192 97.478 109.154 96.9944 109.32 96.562C109.485 96.1297 109.835 95.7942 110.274 95.6478L113.999 94.4064C114.533 94.2284 114.863 93.6938 114.783 93.1364C114.701 92.5624 114.21 92.1361 113.63 92.1361L109.37 92.1355C108.517 92.1355 107.825 91.4439 107.825 90.5907C107.825 89.7375 108.517 89.0459 109.37 89.0459L113.63 89.0465ZM85.0272 109.475L88.357 104.481L94.948 118.395H89.8059C89.404 114.827 87.6315 111.674 85.0272 109.475ZM86.6906 118.395C86.3248 115.897 85.0883 113.682 83.2991 112.067L79.0808 118.395H86.6906ZM86.692 121.484H76.1943C75.6246 121.484 75.1011 121.171 74.8323 120.669C74.5635 120.166 74.5929 119.557 74.909 119.083L80.7291 110.353C79.3546 109.702 77.818 109.338 76.1963 109.338C70.3384 109.338 65.5896 114.087 65.5896 119.945C65.5896 125.803 70.3384 130.551 76.1963 130.551C81.5313 130.551 85.9463 126.613 86.692 121.484ZM123.804 109.338C122.441 109.338 121.139 109.595 119.942 110.063L125.148 119.174C125.571 119.915 125.314 120.858 124.573 121.282C123.832 121.705 122.889 121.448 122.466 120.707L117.26 111.597C114.786 113.539 113.197 116.556 113.197 119.945C113.197 125.803 117.946 130.551 123.804 130.551C129.662 130.551 134.41 125.803 134.41 119.945C134.41 114.087 129.662 109.338 123.804 109.338ZM112.288 102.897L112.841 103.863L97.895 117.399L91.0254 102.897H112.288Z" fill="#05081B"/>
<path fill-rule="evenodd" clip-rule="evenodd" d="M101.119 69.7665C98.9771 70.5971 98.043 73.1102 99.2087 75.7276C100.374 78.345 103.056 79.7935 105.197 78.9631C107.339 78.1325 108.742 74.8865 107.577 72.2691C106.411 69.6517 103.261 68.9359 101.119 69.7665ZM95.6593 77.513L86.5993 91.9034C86.2257 92.6182 86.2144 93.4602 86.5683 94.1958L95.1234 102.082C95.6209 102.541 95.8647 103.212 95.7772 103.883L94.2754 115.401C94.0761 116.853 95.1697 118.201 96.7061 118.395C98.2304 118.588 99.6085 117.572 99.7814 116.128L101.801 103.278C102.004 101.986 101.588 100.673 100.678 99.7328L94.3652 93.2129L100.56 83.3681C101.14 82.4453 101.111 81.2644 100.486 80.3716L98.4347 77.4446C97.751 76.4689 96.2941 76.5048 95.6593 77.513ZM99.3175 87.9006L102.136 83.4804L105.433 89.4723L110.078 87.6091C110.811 87.3148 111.651 87.532 112.15 88.1452C112.845 88.9983 112.622 90.2688 111.678 90.8343L105.998 94.2386C105.076 95.056 103.649 94.8983 102.927 93.8993L99.3175 87.9006Z" fill="#13141A"/>
</svg>
