<svg width="200" height="200" viewBox="0 0 200 200" fill="none" xmlns="http://www.w3.org/2000/svg">
<rect x="1.56254" y="146.353" width="92.7084" height="196.875" rx="8.85417" transform="rotate(-90 1.56254 146.353)" fill="white" stroke="#13141A" stroke-width="1.04167"/>
<rect x="6.77083" y="141.146" width="82.2917" height="186.458" rx="3.64583" transform="rotate(-90 6.77083 141.146)" stroke="black" stroke-width="1.04167"/>
<path d="M41.1919 118.165V83.9161H50.1028L55.4534 107.278L60.7437 83.9161H69.6748V118.165H64.1431V91.205L58.2897 118.165H52.5569L46.7235 91.205V118.165H41.1919Z" fill="black"/>
<path d="M75.5886 118.165V83.9161H97.4537V89.7098H81.5426V97.3025H96.3474V103.073H81.5426V112.394H98.0169V118.165H75.5886Z" fill="black"/>
<path d="M109.704 118.165V89.7098H100.954V83.9161H124.388V89.7098H115.658V118.165H109.704Z" fill="black"/>
<path d="M128.27 118.165V83.9161H140.802C143.953 83.9161 146.239 84.2276 147.661 84.8506C149.096 85.458 150.242 86.5482 151.1 88.1212C151.959 89.6943 152.388 91.4931 152.388 93.5178C152.388 96.0876 151.737 98.2136 150.437 99.8956C149.136 101.562 147.191 102.613 144.603 103.049C145.891 103.922 146.95 104.88 147.781 105.923C148.626 106.967 149.759 108.82 151.181 111.483L154.781 118.165H147.661L143.356 110.712C141.827 108.049 140.781 106.375 140.218 105.689C139.655 104.989 139.058 104.514 138.428 104.264C137.798 104 136.799 103.867 135.431 103.867H134.224V118.165H128.27ZM134.224 98.4005H138.629C141.485 98.4005 143.269 98.2603 143.98 97.98C144.69 97.6996 145.247 97.2168 145.649 96.5315C146.052 95.8462 146.253 94.9896 146.253 93.9617C146.253 92.8092 145.985 91.8825 145.448 91.1816C144.925 90.4652 144.181 90.0135 143.215 89.8266C142.733 89.7488 141.284 89.7098 138.871 89.7098H134.224V98.4005Z" fill="black"/>
<path d="M156.813 101.251C156.813 97.7619 157.262 94.8339 158.161 92.4665C158.831 90.7222 159.743 89.1569 160.896 87.7708C162.063 86.3847 163.337 85.3567 164.718 84.687C166.555 83.7837 168.674 83.332 171.075 83.332C175.419 83.332 178.893 84.8973 181.494 88.0278C184.109 91.1583 185.417 95.5114 185.417 101.087C185.417 106.616 184.123 110.946 181.534 114.076C178.946 117.191 175.487 118.749 171.155 118.749C166.77 118.749 163.283 117.199 160.695 114.1C158.107 110.985 156.813 106.702 156.813 101.251ZM162.948 101.017C162.948 104.895 163.719 107.839 165.261 109.848C166.804 111.841 168.761 112.838 171.135 112.838C173.509 112.838 175.453 111.849 176.968 109.871C178.497 107.878 179.261 104.895 179.261 100.924C179.261 96.9988 178.517 94.0707 177.029 92.1395C175.554 90.2082 173.589 89.2426 171.135 89.2426C168.681 89.2426 166.703 90.2238 165.201 92.1862C163.699 94.133 162.948 97.0766 162.948 101.017Z" fill="black"/>
<path fill-rule="evenodd" clip-rule="evenodd" d="M28.1249 90.625H21.8749V97.9173L14.5833 97.9173V104.167H21.8749V111.458H28.1249V104.167H35.4166V97.9173L28.1249 97.9173V90.625Z" fill="black"/>
</svg>
