<svg width="200" height="200" viewBox="0 0 200 200" fill="none" xmlns="http://www.w3.org/2000/svg">
<path d="M28.5208 166.832V30.5208H83.4792V168.408C79.0583 166.821 74.9325 166.072 70.964 165.9C64.8915 165.637 59.4627 166.756 54.8018 167.717L54.7823 167.721L54.5133 167.777C49.654 168.778 45.5051 169.606 40.826 169.463C37.2871 169.354 33.2831 168.675 28.5208 166.832Z" fill="white" stroke="#1A1A2C" stroke-width="1.04167"/>
<path d="M84.0002 76.5273L28.0002 44.9648V88.2391L84.0002 119.802V76.5273Z" fill="#05081B"/>
<path d="M171.479 166.832V30.5208H116.521V168.408C120.942 166.821 125.067 166.072 129.036 165.9C135.108 165.637 140.537 166.756 145.198 167.717L145.218 167.721L145.487 167.777C150.346 168.778 154.495 169.606 159.174 169.463C162.713 169.354 166.717 168.675 171.479 166.832Z" fill="white" stroke="#1A1A2C" stroke-width="1.04167"/>
<path d="M116 76.5273L172 44.9648V88.2391L116 119.802V76.5273Z" fill="#05081B"/>
</svg>
