<svg width="200" height="200" viewBox="0 0 200 200" fill="none" xmlns="http://www.w3.org/2000/svg">
<rect x="36.9792" y="11.9792" width="126.042" height="176.042" rx="8.85417" fill="white" stroke="#13141A" stroke-width="1.04167"/>
<rect x="41.6667" y="16.6663" width="116.667" height="166.667" rx="4.16667" fill="#1071AF"/>
<rect x="50" y="33.3337" width="100" height="100" rx="4.16667" fill="white"/>
<path d="M98.4497 43.75C99.3251 56.8537 93.75 68.4402 93.75 68.4402C97.4452 68.5717 102.603 66.1771 102.603 66.1771C104.796 77.0405 95.0374 93.8489 95.0374 93.8489C99.865 93.9368 105.495 92.8804 105.495 92.8804C105.938 102.717 93.75 114.583 93.75 114.583C100 115.625 107.168 114.583 112.328 112.741L112.5 122.917H122.726L122.793 111.458C131.25 111.458 137.5 109.375 143.75 104.407C143.75 104.407 125.175 96.3434 120.306 87.675C120.306 87.675 129.053 85.509 133.153 83.065C133.153 83.065 115.184 73.9239 111.271 63.5145C111.271 63.5145 115.799 61.5965 118.903 59.6707C118.903 59.6707 110.23 56.4337 98.4497 43.75Z" fill="black"/>
<path d="M60.4167 102.084L60.4167 109.518H63.3816L60.4167 122.918H64.6269L69.374 109.518H74.3327L79.1233 122.918H83.2899L80.3244 109.518H83.2899V102.084H60.4167Z" fill="black"/>
</svg>
