<svg width="200" height="201" viewBox="0 0 200 201" fill="none" xmlns="http://www.w3.org/2000/svg">
<rect x="1.56254" y="146.687" width="92.7084" height="196.875" rx="8.85417" transform="rotate(-90 1.56254 146.687)" fill="white" stroke="#13141A" stroke-width="1.04167"/>
<rect x="6.77083" y="141.479" width="82.2917" height="186.458" rx="3.64583" transform="rotate(-90 6.77083 141.479)" stroke="black" stroke-width="1.04167"/>
<path d="M6.25 124.62H32.3161C32.2746 124.161 32.2533 123.697 32.2533 123.227C32.2533 119.525 33.573 116.13 35.7676 113.489H6.25V124.62Z" fill="black"/>
<path d="M6.25 107.923H73.9364V67.6994C73.9364 66.1625 72.6905 64.9166 71.1537 64.9166H6.25V107.923Z" fill="black"/>
<path d="M93.5349 90.2146C91.998 90.2146 90.7521 91.4605 90.7521 92.9974V107.923H168.283V92.9974C168.283 91.4605 167.037 90.2146 165.5 90.2146H93.5349Z" fill="black"/>
<path d="M62.6847 124.62H73.9374V119.561H87.3971C87.9537 117.297 89.0139 115.231 90.452 113.489H59.2333C61.4279 116.13 62.7475 119.525 62.7475 123.227C62.7475 123.697 62.7263 124.161 62.6847 124.62Z" fill="black"/>
<path fill-rule="evenodd" clip-rule="evenodd" d="M47.5001 135.75C40.5841 135.75 34.9776 130.143 34.9776 123.227C34.9776 116.311 40.5841 110.705 47.5001 110.705C54.416 110.705 60.0225 116.311 60.0225 123.227C60.0225 130.143 54.416 135.75 47.5001 135.75ZM47.502 130.185C43.6598 130.185 40.5451 127.07 40.5451 123.228C40.5451 119.386 43.6598 116.271 47.502 116.271C51.3442 116.271 54.459 119.386 54.459 123.228C54.459 127.07 51.3442 130.185 47.502 130.185Z" fill="black"/>
<path fill-rule="evenodd" clip-rule="evenodd" d="M157.025 135.75C150.109 135.75 144.503 130.143 144.503 123.227C144.503 116.311 150.109 110.705 157.025 110.705C163.941 110.705 169.548 116.311 169.548 123.227C169.548 130.143 163.941 135.75 157.025 135.75ZM157.027 130.185C153.185 130.185 150.07 127.07 150.07 123.228C150.07 119.386 153.185 116.271 157.027 116.271C160.869 116.271 163.984 119.386 163.984 123.228C163.984 127.07 160.869 130.185 157.027 130.185Z" fill="black"/>
<path d="M117.127 119.561H142.158C142.715 117.297 143.774 115.231 145.212 113.489H114.072C115.511 115.231 116.571 117.297 117.127 119.561Z" fill="black"/>
<path fill-rule="evenodd" clip-rule="evenodd" d="M102.263 135.75C95.3467 135.75 89.7402 130.143 89.7402 123.227C89.7402 116.311 95.3467 110.705 102.263 110.705C109.179 110.705 114.785 116.311 114.785 123.227C114.785 130.143 109.179 135.75 102.263 135.75ZM102.265 130.185C98.4224 130.185 95.3077 127.07 95.3077 123.228C95.3077 119.386 98.4224 116.271 102.265 116.271C106.107 116.271 109.222 119.386 109.222 123.228C109.222 127.07 106.107 130.185 102.265 130.185Z" fill="black"/>
</svg>
