<svg width="200" height="200" viewBox="0 0 200 200" fill="none" xmlns="http://www.w3.org/2000/svg">
<path d="M174.314 169.271H25.6864C18.3215 169.271 13.7368 161.298 17.4754 154.969L91.789 29.1566C95.4728 22.92 104.527 22.92 108.211 29.1566L182.525 154.969C186.263 161.298 181.679 169.271 174.314 169.271Z" fill="#FF0E00" stroke="black" stroke-width="1.04167"/>
<path d="M25.6864 166.667H174.314C179.681 166.667 182.986 160.87 180.283 156.293L105.969 30.481C103.293 25.9508 96.7071 25.9508 94.0313 30.481L19.7176 156.293C17.014 160.87 20.3189 166.667 25.6864 166.667Z" fill="#FF0E00" stroke="white" stroke-width="4.16667"/>
<path fill-rule="evenodd" clip-rule="evenodd" d="M35.9376 154.168L100 45.4307L164.063 154.168H35.9376Z" fill="white"/>
<path fill-rule="evenodd" clip-rule="evenodd" d="M103.43 80.8135C101.247 80.8135 100.08 82.9331 100.08 85.2937C100.08 87.3842 101.348 88.8471 103.259 89.3189C103.604 89.4166 104.356 89.3729 104.9 89.3413C105.109 89.3292 105.286 89.3189 105.4 89.3189C107.292 88.5426 107.962 87.7894 107.962 85.2937C107.962 83.2032 106.133 81.2831 104.086 80.8779C103.983 80.8779 103.87 80.8617 103.757 80.8456L103.757 80.8456C103.644 80.8295 103.532 80.8135 103.43 80.8135ZM118.604 84.2209C114.583 85.4172 112.473 88.6308 111.458 90.6256C109.287 94.897 109.056 98.8301 108.854 102.285C108.792 103.345 108.733 104.36 108.621 105.325C108.484 106.674 108.181 108.064 107.635 109.482C106.271 112.788 104.356 114.427 102.446 115.911C101.559 116.586 100.699 117.243 99.9507 118.053C98.2326 119.813 97.3912 122.434 96.5781 124.967C95.6148 127.968 94.6913 130.845 92.3968 132.016C90.5563 133.141 88.656 134.186 86.7574 135.231L86.7571 135.231L86.7566 135.231L86.7563 135.231L86.756 135.231L86.7556 135.232L86.7553 135.232L86.7553 135.232L86.7552 135.232C85.875 135.716 84.9952 136.2 84.122 136.691C82.6062 137.652 81.2016 138.765 79.7993 139.876C79.5547 140.07 79.3101 140.264 79.0651 140.457C76.2676 142.952 75.2713 145.236 74.8615 147.665C74.7249 148.744 74.727 149.895 74.7963 151.042H74.8615H157.292L118.604 84.2209ZM97.6021 100.318C97.6021 98.3098 99.0191 96.5503 101.312 96.5503C101.339 96.5503 101.377 96.5627 101.414 96.5751C101.451 96.5873 101.487 96.5994 101.513 96.5994C103.702 96.6518 105.475 97.4911 105.475 100.22C105.475 102.898 102.814 103.636 101.513 103.739H101.312C100.062 103.739 97.6021 102.276 97.6021 100.318ZM91.2985 102.074C91.2302 102.074 91.1824 102.091 91.1345 102.107C91.0867 102.123 91.0389 102.139 90.9706 102.139C88.377 102.274 86.1112 104.263 86.1112 106.49C86.1112 108.919 88.3791 111.486 90.9706 111.621H91.2985C94.096 111.621 95.6997 109.117 95.6997 106.621C95.6976 104.258 94.096 102.074 91.2985 102.074ZM79.2775 122.989C80.0588 122.515 80.9412 122.228 82.0355 122.228C82.1161 122.228 82.2313 122.241 82.3455 122.255L82.3455 122.255L82.3457 122.255C82.454 122.267 82.5614 122.279 82.6371 122.28C85.2427 122.491 87.8017 123.899 87.8017 126.691C87.8017 129.746 86.5439 132.622 82.6371 132.622C82.6371 132.674 82.5874 132.622 82.5874 132.622C81.1803 132.622 80.1118 132.388 79.2775 131.861C77.8191 130.914 77.373 129.197 77.373 127.197C77.373 125.301 78.079 123.833 79.2775 122.989ZM73.0794 113.944C72.4283 114.263 71.9869 114.691 71.6599 115.2C71.1924 116.051 71.1999 117.13 71.7521 118.259C72.3346 119.449 73.0998 120.34 74.2435 120.479C74.8934 120.55 75.5972 120.378 76.4345 119.968C76.4345 119.968 76.4792 119.984 76.4641 119.953C78.7886 118.816 78.6995 116.738 77.81 114.921C76.997 113.259 75.0643 113.167 73.4525 113.8C73.4073 113.822 73.3399 113.845 73.272 113.87L73.2719 113.87L73.2717 113.87L73.2717 113.87L73.2716 113.87C73.1998 113.895 73.1274 113.921 73.0794 113.944ZM74.0263 138.196L74.0941 138.129C74.0941 138.196 74.0263 138.196 74.0263 138.196ZM72.8389 137.172V137.115C72.8389 132.867 68.6598 128.269 64.3049 128.269C59.8902 128.269 57.0056 132.867 57.0056 137.115C57.0056 141.304 60.7731 144.913 65.2459 144.913C69.5427 144.913 72.8389 141.362 72.8389 137.172Z" fill="black"/>
</svg>
