<svg width="200" height="200" viewBox="0 0 200 200" fill="none" xmlns="http://www.w3.org/2000/svg">
<rect y="16.667" width="200" height="166.667" fill="#68696C"/>
<rect x="10.4167" y="60.4173" width="179.167" height="79.1667" rx="39.5833" fill="#68696C" stroke="white" stroke-width="4.16667"/>
<path fill-rule="evenodd" clip-rule="evenodd" d="M160.377 59.6365C176.211 63.6953 188.41 76.8256 191.108 93.161L160.377 59.6365ZM32.4461 137.8L10.8172 114.205C9.20987 109.772 8.33337 104.989 8.33337 100.001C8.33337 98.7401 8.38935 97.4926 8.49896 96.2605L50.1219 141.667H50C43.7286 141.667 37.7808 140.282 32.4461 137.8ZM64.5028 141.667L11.5554 83.9065C12.9762 80.5165 14.8323 77.3542 17.0539 74.4894L78.6337 141.667H64.5028ZM93.0142 141.667L24.565 66.9955C27.3697 64.8309 30.4579 63.0159 33.7644 61.6156L107.145 141.667H93.0142ZM121.526 141.667L45.3701 58.5883C46.8903 58.4203 48.4351 58.334 50 58.334H59.2679L135.657 141.667H121.526ZM150.037 141.667L73.6485 58.334L87.7794 58.334L162.438 139.779C158.521 141.003 154.356 141.664 150.037 141.667ZM172.504 135.073L102.16 58.334H116.291L180.504 128.384C178.132 130.932 175.445 133.183 172.504 135.073ZM186.798 119.563L130.672 58.334H144.803L190.797 108.51C189.985 112.423 188.624 116.136 186.798 119.563Z" fill="white"/>
</svg>
