<svg width="200" height="200" viewBox="0 0 200 200" fill="none" xmlns="http://www.w3.org/2000/svg">
<rect x="36.9792" y="11.9792" width="126.042" height="176.042" rx="8.85417" fill="white" stroke="#13141A" stroke-width="1.04167"/>
<rect x="41.6667" y="16.667" width="116.667" height="166.667" rx="4.16667" fill="#1071AF"/>
<rect x="50" y="33.333" width="100" height="100" rx="4.16667" fill="white"/>
<path fill-rule="evenodd" clip-rule="evenodd" d="M139.583 61.9496L126.555 68.629C127.633 70.3629 128.547 72.2101 129.273 74.1487L139.583 73.2343V61.9496ZM139.583 75.3258L129.955 76.1797C130.633 78.4576 131.059 80.8444 131.199 83.3075H139.583V75.3258ZM139.583 85.3908H131.25V93.4696H139.583V85.3908ZM139.583 95.553H131.25V103.632H139.583V95.553ZM139.583 105.716H131.25V113.794H139.583V105.716ZM139.583 115.878H131.25V122.916V122.917H139.583V115.878ZM125.388 66.8861L138.864 59.9771L131.754 52.1736L121.288 62.2341C122.803 63.6439 124.177 65.2023 125.388 66.8861ZM119.711 60.8607C117.997 59.4656 116.132 58.2488 114.144 57.2382L120.692 43.7503H124.08L130.351 50.633L119.711 60.8607ZM118.347 43.7503H107.247L106.315 54.5C108.368 54.9213 110.347 55.5439 112.232 56.3462L118.347 43.7503ZM104.255 54.1488L105.156 43.7503H94.8564L95.7577 54.1471C97.1449 53.9588 98.5611 53.8616 100 53.8616C101.443 53.8616 102.863 53.9594 104.255 54.1488ZM92.7652 43.7503L93.6969 54.4975C91.6435 54.9181 89.6634 55.5401 87.7783 56.3419L81.6654 43.7503H92.7652ZM79.3202 43.7503L85.8658 57.2332C83.8772 58.2434 82.0111 59.4602 80.2959 60.8552L69.6551 50.6266L75.9201 43.7503H79.3202ZM68.2515 52.1672L78.718 62.2283C77.2025 63.6383 75.8273 65.1972 74.6155 66.8815L61.1397 59.9728L68.2515 52.1672ZM60.4166 61.9432L73.4483 68.6242C72.3687 70.3592 71.4544 72.2076 70.7274 74.1476L60.4166 73.2332V61.9432ZM60.4166 75.3247L70.0454 76.1787C69.367 78.4569 68.9414 80.844 68.8012 83.3075H60.4166V75.3247ZM60.4166 85.3908H68.75V93.4696H60.4166V85.3908ZM60.4166 95.553H68.75V103.632H60.4166V95.553ZM60.4166 105.716H68.75V113.794H60.4166V105.716ZM60.4166 115.878H68.75V122.916V122.917H60.4166V115.878ZM125 41.667H74.9999L58.3333 59.9597V122.917V125H60.4166H139.583H141.667V122.917V59.9597L125 41.667ZM129.167 122.916V85.1116C129.167 69.0033 116.108 55.9449 100 55.9449C83.8917 55.9449 70.8333 69.0033 70.8333 85.1116V122.916H72.9167V85.0097C72.9167 70.052 85.0423 57.9263 100 57.9263C114.958 57.9263 127.083 70.052 127.083 85.0097V122.916H129.167Z" fill="black"/>
<path fill-rule="evenodd" clip-rule="evenodd" d="M158.333 23.9294L46.7504 183.334H45.8334C43.5322 183.334 41.6667 181.468 41.6667 179.167V175.062L152.543 16.667H154.167C156.468 16.667 158.333 18.5325 158.333 20.8337V23.9294Z" fill="#FF0E00"/>
</svg>
