<svg width="200" height="201" viewBox="0 0 200 201" fill="none" xmlns="http://www.w3.org/2000/svg">
<rect x="30.7292" y="31.3957" width="138.542" height="138.542" rx="8.85417" fill="white" stroke="#13141A" stroke-width="1.04167"/>
<rect x="35.4167" y="36.0835" width="129.167" height="129.167" rx="4.16667" fill="#1071AF"/>
<path fill-rule="evenodd" clip-rule="evenodd" d="M81.8265 71.5C79.0034 71.5 76.6099 73.5759 76.2107 76.3706C75.823 79.0846 77.4317 81.6876 80.0326 82.5546L82.6149 83.4153L75.4724 95.9146C73.2603 94.963 70.8226 94.4359 68.2617 94.4359C58.1761 94.4359 50 102.612 50 112.698C50 122.783 58.1761 130.959 68.2617 130.959C78.3474 130.959 86.5234 122.783 86.5234 112.698C86.5234 106.647 83.5806 101.283 79.0481 97.9602L80.7864 94.9182L102.096 114.218C102.338 114.436 102.626 114.593 102.935 114.678C103.134 114.732 103.337 114.756 103.536 114.751H113.591C114.611 123.87 122.347 130.959 131.738 130.959C141.824 130.959 150 122.783 150 112.698C150 102.612 141.824 94.4359 131.738 94.4359C128.73 94.4359 125.892 95.1631 123.39 96.4514L117.28 87.287V82.5754H122.175C123.312 82.5754 124.234 81.6533 124.234 80.5157C124.234 79.3781 123.312 78.456 122.175 78.456L107.391 78.456C106.254 78.456 105.332 79.3781 105.332 80.5157C105.332 81.6533 106.254 82.5754 107.391 82.5754H113.161V85.8473H85.9697L87.4381 83.2777C87.7443 82.7419 87.7941 82.0971 87.5738 81.5207C87.3536 80.9442 86.8865 80.4969 86.3011 80.3018L81.3353 78.6465C80.6231 78.4091 80.1826 77.6963 80.2888 76.9532C80.3981 76.1879 81.0535 75.6195 81.8265 75.6195H90.4326C91.5701 75.6195 92.4923 74.6973 92.4923 73.5597C92.4923 72.4222 91.5701 71.5 90.4326 71.5H81.8265ZM119.964 98.7382L115.524 92.0787L106.736 110.631H113.592C114.128 105.874 116.491 101.67 119.964 98.7382ZM117.746 110.631C118.234 107.3 119.882 104.347 122.268 102.194L127.892 110.631H117.746ZM117.744 114.751H131.741C132.501 114.751 133.198 114.332 133.557 113.663C133.915 112.993 133.876 112.18 133.455 111.548L125.695 99.9081C127.527 99.0406 129.576 98.5553 131.738 98.5553C139.549 98.5553 145.881 104.887 145.881 112.698C145.881 120.508 139.549 126.84 131.738 126.84C124.625 126.84 118.738 121.588 117.744 114.751ZM68.2617 98.5553C70.0785 98.5553 71.8153 98.8979 73.411 99.522L66.4693 111.67C65.9049 112.658 66.248 113.916 67.2357 114.48C68.2234 115.045 69.4816 114.702 70.046 113.714L76.987 101.567C80.2852 104.156 82.404 108.179 82.404 112.698C82.404 120.508 76.0723 126.84 68.2617 126.84C60.4512 126.84 54.1195 120.508 54.1195 112.698C54.1195 104.887 60.4512 98.5553 68.2617 98.5553ZM83.6158 89.9668L82.8792 91.2558L102.807 109.303L111.966 89.9668H83.6158Z" fill="white"/>
<path fill-rule="evenodd" clip-rule="evenodd" d="M164.583 43.1098L42.443 165.25H39.5834C37.2822 165.25 35.4167 163.385 35.4167 161.083V158.225L157.558 36.0835H160.417C162.718 36.0835 164.583 37.949 164.583 40.2502V43.1098Z" fill="#FF0E00"/>
</svg>
