<svg width="200" height="200" viewBox="0 0 200 200" fill="none" xmlns="http://www.w3.org/2000/svg">
<rect x="30.7292" y="30.7292" width="138.542" height="138.542" rx="8.85417" fill="white" stroke="#13141A" stroke-width="1.04167"/>
<rect x="35.4167" y="35.4167" width="129.167" height="129.167" rx="4.16667" fill="#1071AF"/>
<path fill-rule="evenodd" clip-rule="evenodd" d="M56.8226 56.25C55.2934 56.25 53.997 57.3744 53.7807 58.8882C53.5707 60.3583 54.4421 61.7683 55.8509 62.2379L57.2496 62.7041L53.3808 69.4746C52.1826 68.9591 50.8622 68.6736 49.475 68.6736C44.0119 68.6736 39.5833 73.1023 39.5833 78.5654C39.5833 84.0284 44.0119 88.4571 49.475 88.4571C54.9381 88.4571 59.3668 84.0284 59.3668 78.5654C59.3668 75.2878 57.7727 72.3826 55.3176 70.5826L56.2592 68.9349L67.802 79.3887C67.9329 79.5072 68.0889 79.592 68.2566 79.6379C68.3643 79.6676 68.4739 79.6804 68.582 79.6774H74.0282C74.5808 84.617 78.771 88.4571 83.8582 88.4571C89.3212 88.4571 93.7499 84.0284 93.7499 78.5654C93.7499 73.1023 89.3212 68.6736 83.8582 68.6736C82.2288 68.6736 80.6915 69.0675 79.3362 69.7653L76.0269 64.8013V62.2492H78.6779C79.294 62.2492 79.7936 61.7497 79.7936 61.1335C79.7936 60.5173 79.294 60.0178 78.6779 60.0178L70.6702 60.0178C70.0541 60.0178 69.5546 60.5173 69.5546 61.1335C69.5546 61.7497 70.0541 62.2492 70.6702 62.2492H73.7955V64.0215H59.0669L59.8622 62.6296C60.0281 62.3394 60.055 61.9901 59.9357 61.6779C59.8164 61.3656 59.5634 61.1233 59.2463 61.0176L56.5565 60.121C56.1708 59.9924 55.9322 59.6063 55.9897 59.2038C56.0489 58.7893 56.4039 58.4814 56.8226 58.4814H61.4842C62.1004 58.4814 62.5999 57.9819 62.5999 57.3657C62.5999 56.7495 62.1004 56.25 61.4842 56.25H56.8226ZM77.4802 71.004L75.0754 67.3968L70.3153 77.446H74.029C74.3192 74.8692 75.5994 72.5921 77.4802 71.004ZM76.279 77.446C76.5431 75.6419 77.4361 74.042 78.7283 72.8761L81.7749 77.446H76.279ZM76.2779 79.6774H83.8596C84.271 79.6774 84.6491 79.4509 84.8433 79.0881C85.0374 78.7254 85.0161 78.2852 84.7879 77.9428L80.5845 71.6377C81.5771 71.1678 82.687 70.905 83.8582 70.905C88.0889 70.905 91.5185 74.3346 91.5185 78.5654C91.5185 82.7961 88.0889 86.2257 83.8582 86.2257C80.0051 86.2257 76.8165 83.3811 76.2779 79.6774ZM49.475 70.905C50.4591 70.905 51.3999 71.0905 52.2642 71.4286L48.5041 78.0088C48.1984 78.5438 48.3843 79.2253 48.9193 79.531C49.4543 79.8367 50.1358 79.6509 50.4415 79.1159L54.2012 72.5363C55.9877 73.9387 57.1354 76.118 57.1354 78.5654C57.1354 82.7961 53.7057 86.2257 49.475 86.2257C45.2443 86.2257 41.8146 82.7961 41.8146 78.5654C41.8146 74.3346 45.2443 70.905 49.475 70.905ZM57.7918 66.2528L57.3928 66.951L68.1869 76.7268L73.1482 66.2528H57.7918Z" fill="white"/>
<path d="M100 35.4167V164.583" stroke="white" stroke-width="2.08333"/>
<path d="M158.333 120.313L132.292 81.25L106.25 120.313H121.131V164.509H143.452V120.313H158.333Z" fill="white"/>
<path fill-rule="evenodd" clip-rule="evenodd" d="M66.6667 152.084L50 136.258V124.391L62.595 136.35L62.595 106.251H70.7384L70.7384 136.35L83.3333 124.391V136.258L66.6667 152.084Z" fill="white"/>
</svg>
