<svg width="200" height="201" viewBox="0 0 200 201" fill="none" xmlns="http://www.w3.org/2000/svg">
<rect x="30.7287" y="31.6037" width="138.54" height="138.54" rx="8.85404" fill="white" stroke="#13141A" stroke-width="1.04165"/>
<rect x="35.4161" y="36.2891" width="129.165" height="129.165" rx="4.16661" fill="#1071AF"/>
<path d="M74.9989 140.71V134.205C74.9989 120.398 86.1916 109.205 99.9985 109.205V109.205C113.805 109.205 124.998 120.398 124.998 134.205V163.371" stroke="white" stroke-width="10.4165"/>
<path d="M124.998 165.454V82.1222C124.998 68.3153 113.805 57.1226 99.9985 57.1226C93.6583 57.1226 87.8694 59.4828 83.4623 63.3725" stroke="white" stroke-width="10.4165"/>
<path d="M61.4574 134.207L88.5403 134.207L74.9989 157.124L61.4574 134.207Z" fill="white"/>
<path d="M75.2976 52.9563L93.5047 73.006L67.4361 78.3871L75.2976 52.9563Z" fill="white"/>
<path d="M50.8374 102.731H47.6064V90.1696L43.7493 91.3762V88.7262L50.4908 86.2905H50.8374V102.731Z" fill="white"/>
<path d="M54.1686 94.6576L55.1077 86.3131H64.2304V89.0307H57.7573L57.3548 92.5602C58.1225 92.1467 58.9386 91.94 59.8032 91.94C61.3535 91.94 62.5684 92.4249 63.4478 93.3946C64.3273 94.3644 64.7671 95.7213 64.7671 97.4654C64.7671 98.5253 64.5435 99.4763 64.0963 100.318C63.6565 101.153 63.023 101.803 62.1957 102.269C61.3684 102.728 60.392 102.957 59.2666 102.957C58.2827 102.957 57.3697 102.758 56.5275 102.359C55.6853 101.953 55.0182 101.386 54.5263 100.657C54.0419 99.9274 53.7847 99.0967 53.7549 98.1645H56.9523C57.0194 98.8486 57.2542 99.3824 57.6567 99.7657C58.0666 100.142 58.5995 100.33 59.2554 100.33C59.9858 100.33 60.5485 100.066 60.9435 99.5402C61.3386 99.0065 61.5361 98.2547 61.5361 97.285C61.5361 96.3528 61.3088 95.6386 60.8541 95.1424C60.3995 94.6463 59.7548 94.3982 58.92 94.3982C58.1523 94.3982 57.53 94.6012 57.053 95.0071L56.7399 95.3003L54.1686 94.6576Z" fill="white"/>
<path d="M74.0378 98.8862L77.2017 90.5304H81.2488V102.731H78.0178V95.2439L75.1222 102.731H72.9533L70.1136 95.368V102.731H66.8827V90.5304H70.8962L74.0378 98.8862Z" fill="white"/>
</svg>
