<svg width="200" height="201" viewBox="0 0 200 201" fill="none" xmlns="http://www.w3.org/2000/svg">
<rect x="36.9786" y="12.4855" width="126.04" height="176.039" rx="8.85404" fill="white" stroke="#13141A" stroke-width="1.04165"/>
<rect x="41.6661" y="17.1765" width="116.665" height="166.664" rx="4.16661" fill="#1071AF"/>
<rect x="49.9993" y="33.8418" width="99.9985" height="99.9985" rx="4.16661" fill="white"/>
<path fill-rule="evenodd" clip-rule="evenodd" d="M69.2313 65.0913H130.766C132.619 65.0913 134.361 65.9715 135.461 67.4628L142.61 77.1585C143.349 78.1612 143.748 79.3744 143.748 80.6202V96.202C143.748 98.3497 142.007 100.091 139.859 100.091H134.121C134.15 99.7706 134.165 99.4463 134.165 99.1186C134.165 93.2123 129.377 88.4243 123.47 88.4243C117.564 88.4243 112.776 93.2123 112.776 99.1186C112.776 99.4463 112.791 99.7706 112.82 100.091H83.2885C83.3173 99.7706 83.3321 99.4463 83.3321 99.1186C83.3321 93.2123 78.5441 88.4243 72.6378 88.4243C66.7315 88.4243 61.9435 93.2123 61.9435 99.1186C61.9435 99.4463 61.9582 99.7706 61.9871 100.091H60.138C57.9902 100.091 56.2491 98.3497 56.2491 96.202V80.6202C56.2491 79.3744 56.648 78.1612 57.3874 77.1585L64.5363 67.4628C65.6358 65.9715 67.3785 65.0913 69.2313 65.0913ZM60.6797 79.1093L67.9148 68.9801H77.6369V80.6466L61.4708 80.6466C60.68 80.6466 60.22 79.7528 60.6797 79.1093ZM137.371 79.1093L130.136 68.9801H120.414V80.6466L136.58 80.6466C137.371 80.6466 137.831 79.7528 137.371 79.1093ZM100.97 68.9801H116.525V80.6466H100.97V68.9801ZM97.0811 68.9801H81.5257V80.6466H97.0811V68.9801Z" fill="black"/>
<path fill-rule="evenodd" clip-rule="evenodd" d="M72.6378 107.868C77.4702 107.868 81.3877 103.951 81.3877 99.1186C81.3877 94.2862 77.4702 90.3687 72.6378 90.3687C67.8054 90.3687 63.8879 94.2862 63.8879 99.1186C63.8879 103.951 67.8054 107.868 72.6378 107.868ZM72.6378 103.98C75.3225 103.98 77.4988 101.803 77.4988 99.1186C77.4988 96.4339 75.3225 94.2575 72.6378 94.2575C69.9531 94.2575 67.7768 96.4339 67.7768 99.1186C67.7768 101.803 69.9531 103.98 72.6378 103.98Z" fill="black"/>
<path fill-rule="evenodd" clip-rule="evenodd" d="M123.47 107.868C128.303 107.868 132.22 103.951 132.22 99.1186C132.22 94.2862 128.303 90.3687 123.47 90.3687C118.638 90.3687 114.721 94.2862 114.721 99.1186C114.721 103.951 118.638 107.868 123.47 107.868ZM123.47 103.98C126.155 103.98 128.331 101.803 128.331 99.1186C128.331 96.4339 126.155 94.2575 123.47 94.2575C120.786 94.2575 118.609 96.4339 118.609 99.1186C118.609 101.803 120.786 103.98 123.47 103.98Z" fill="black"/>
<path d="M74.9991 67.1739L102.08 48.4224" stroke="black" stroke-width="3.12495" stroke-linecap="round"/>
</svg>
