<svg width="200" height="201" viewBox="0 0 200 201" fill="none" xmlns="http://www.w3.org/2000/svg">
<circle cx="100" cy="100.667" r="82.8125" fill="white" stroke="#05081B" stroke-width="1.04167"/>
<circle cx="100" cy="100.668" r="71.875" stroke="#FF0E00" stroke-width="12.5"/>
<rect x="43.75" y="96.501" width="112.5" height="8.33333" rx="4.16667" fill="black"/>
<path d="M47.9166 113.407H50.6899V119.41C51.3083 119.346 51.7268 119.182 51.9454 118.92C52.164 118.657 52.5013 117.925 52.9573 116.726C53.5319 115.2 54.1097 114.251 54.6906 113.879C55.2652 113.507 56.1927 113.321 57.4732 113.321C57.5357 113.321 57.67 113.318 57.8761 113.311V115.418L57.4826 115.408C56.9142 115.408 56.4988 115.482 56.2365 115.63C55.9741 115.771 55.7618 115.989 55.5994 116.284C55.437 116.579 55.1965 117.185 54.8779 118.102C54.7093 118.589 54.525 118.996 54.3252 119.324C54.1315 119.651 53.7849 119.958 53.2852 120.247C53.9035 120.427 54.4126 120.789 54.8124 121.334C55.2184 121.879 55.6618 122.649 56.1428 123.643L58.0166 127.51H54.7561L53.1165 123.864C53.0915 123.813 53.0385 123.713 52.9573 123.566C52.926 123.514 52.8105 123.293 52.6106 122.902C52.2546 122.209 51.961 121.777 51.7299 121.603C51.505 121.43 51.1584 121.34 50.6899 121.334V127.51H47.9166V113.407Z" fill="black"/>
<path d="M59.0191 120.545C59.0191 119.109 59.2284 117.903 59.6469 116.928C59.9592 116.21 60.3839 115.565 60.9211 114.995C61.4645 114.424 62.0579 114.001 62.7012 113.725C63.5569 113.353 64.5438 113.167 65.6619 113.167C67.6856 113.167 69.3034 113.812 70.5151 115.101C71.7331 116.39 72.3421 118.182 72.3421 120.478C72.3421 122.755 71.7394 124.537 70.5339 125.826C69.3284 127.109 67.7169 127.75 65.6994 127.75C63.6569 127.75 62.0329 127.112 60.8274 125.836C59.6219 124.553 59.0191 122.79 59.0191 120.545ZM61.8767 120.449C61.8767 122.046 62.2359 123.258 62.9542 124.085C63.6725 124.906 64.5844 125.317 65.69 125.317C66.7955 125.317 67.7012 124.909 68.4071 124.095C69.1191 123.274 69.4751 122.046 69.4751 120.411C69.4751 118.794 69.1285 117.589 68.4352 116.794C67.7481 115.998 66.833 115.601 65.69 115.601C64.5469 115.601 63.6256 116.005 62.9261 116.813C62.2265 117.614 61.8767 118.827 61.8767 120.449Z" fill="black"/>
<path d="M74.5251 127.51V113.407H77.2984V118.958H82.7325V113.407H85.5058V127.51H82.7325V121.344H77.2984V127.51H74.5251Z" fill="black"/>
<path d="M91.474 127.51V115.793H87.3984V113.407H98.3135V115.793H94.2473V127.51H91.474Z" fill="black"/>
<path d="M100.112 127.51V113.407H104.563C106.249 113.407 107.349 113.478 107.861 113.619C108.648 113.831 109.307 114.292 109.838 115.004C110.369 115.71 110.634 116.624 110.634 117.746C110.634 118.612 110.481 119.34 110.175 119.93C109.869 120.52 109.478 120.985 109.004 121.324C108.535 121.658 108.057 121.879 107.57 121.988C106.908 122.123 105.949 122.19 104.694 122.19H102.886V127.51H100.112ZM102.886 115.793V119.795H104.403C105.497 119.795 106.227 119.721 106.596 119.574C106.964 119.426 107.252 119.195 107.458 118.881C107.67 118.567 107.776 118.201 107.776 117.784C107.776 117.271 107.63 116.848 107.336 116.515C107.042 116.181 106.671 115.973 106.221 115.889C105.89 115.825 105.225 115.793 104.225 115.793H102.886Z" fill="black"/>
<path d="M112.086 120.545C112.086 119.109 112.295 117.903 112.714 116.928C113.026 116.21 113.451 115.565 113.988 114.995C114.532 114.424 115.125 114.001 115.768 113.725C116.624 113.353 117.611 113.167 118.729 113.167C120.753 113.167 122.37 113.812 123.582 115.101C124.8 116.39 125.409 118.182 125.409 120.478C125.409 122.755 124.806 124.537 123.601 125.826C122.395 127.109 120.784 127.75 118.766 127.75C116.724 127.75 115.1 127.112 113.894 125.836C112.689 124.553 112.086 122.79 112.086 120.545ZM114.944 120.449C114.944 122.046 115.303 123.258 116.021 124.085C116.74 124.906 117.652 125.317 118.757 125.317C119.863 125.317 120.768 124.909 121.474 124.095C122.186 123.274 122.542 122.046 122.542 120.411C122.542 118.794 122.196 117.589 121.502 116.794C120.815 115.998 119.9 115.601 118.757 115.601C117.614 115.601 116.693 116.005 115.993 116.813C115.294 117.614 114.944 118.827 114.944 120.449Z" fill="black"/>
<path d="M128.079 113.407H137.702V127.51H134.928V115.793H130.797V121.815C130.797 123.54 130.74 124.746 130.628 125.432C130.515 126.112 130.241 126.644 129.803 127.029C129.372 127.407 128.695 127.596 127.77 127.596C127.445 127.596 126.855 127.564 125.999 127.5V125.297L126.618 125.307C127.199 125.307 127.589 125.227 127.789 125.066C127.989 124.906 128.089 124.512 128.089 123.883L128.079 121.459V113.407Z" fill="black"/>
<path d="M140.625 113.407H143.398V119.045H147.108C148.857 119.045 150.122 119.465 150.903 120.305C151.69 121.145 152.083 122.152 152.083 123.325C152.083 124.287 151.846 125.105 151.371 125.778C150.897 126.452 150.353 126.91 149.741 127.154C149.135 127.391 148.258 127.51 147.108 127.51H140.625V113.407ZM143.398 125.143H146.096C146.971 125.143 147.577 125.102 147.914 125.018C148.251 124.929 148.551 124.73 148.813 124.422C149.082 124.114 149.216 123.736 149.216 123.287C149.216 122.639 148.988 122.165 148.532 121.863C148.083 121.562 147.311 121.411 146.218 121.411H143.398V125.143Z" fill="black"/>
<path d="M60.4167 79.8776L64.6609 79.4162C64.9163 81.0092 65.4321 82.1793 66.2083 82.9264C66.9942 83.6735 68.0504 84.047 69.3767 84.047C70.7816 84.047 71.8378 83.7174 72.5451 83.0582C73.2623 82.388 73.6209 81.608 73.6209 80.7181C73.6209 80.1468 73.4686 79.6634 73.1641 79.2679C72.8693 78.8613 72.3486 78.5098 71.602 78.2131C71.0911 78.0154 69.9269 77.6638 68.1093 77.1584C65.7711 76.5102 64.1304 75.7137 63.1872 74.7688C61.8609 73.4395 61.1977 71.8189 61.1977 69.9073C61.1977 68.6768 61.5072 67.5287 62.1261 66.463C62.7549 65.3863 63.6539 64.5678 64.823 64.0075C66.0019 63.4472 67.4216 63.167 69.082 63.167C71.7936 63.167 73.8322 63.8317 75.1978 65.1611C76.5732 66.4904 77.2953 68.2648 77.3641 70.4841L73.002 70.6983C72.8153 69.4568 72.4125 68.5669 71.7936 68.0286C71.1844 67.4792 70.2658 67.2046 69.0377 67.2046C67.7704 67.2046 66.7781 67.4957 66.0609 68.078C65.5991 68.4515 65.3683 68.9514 65.3683 69.5777C65.3683 70.149 65.5844 70.6379 66.0167 71.0444C66.5669 71.5608 67.903 72.0991 70.0251 72.6594C72.1472 73.2197 73.7143 73.802 74.7262 74.4063C75.748 74.9996 76.5437 75.8181 77.1136 76.8618C77.6932 77.8945 77.9831 79.1745 77.9831 80.7016C77.9831 82.0859 77.6392 83.3823 76.9515 84.5909C76.2637 85.7994 75.2911 86.7003 74.0336 87.2936C72.776 87.8759 71.209 88.167 69.3325 88.167C66.6012 88.167 64.5037 87.4639 63.0398 86.0576C61.576 84.6403 60.7016 82.5803 60.4167 79.8776Z" fill="black"/>
<path d="M86.5157 87.7385V67.666H80.1052V63.579H97.2737V67.666H90.8778V87.7385H86.5157Z" fill="black"/>
<path d="M98.6589 75.8071C98.6589 73.3461 98.9881 71.2806 99.6463 69.6106C100.138 68.3801 100.806 67.276 101.651 66.2982C102.505 65.3204 103.439 64.5953 104.451 64.1228C105.797 63.4856 107.349 63.167 109.107 63.167C112.291 63.167 114.835 64.2711 116.741 66.4795C118.657 68.6878 119.615 71.7585 119.615 75.6917C119.615 79.592 118.667 82.6462 116.771 84.8545C114.874 87.0519 112.34 88.1505 109.166 88.1505C105.954 88.1505 103.399 87.0574 101.503 84.871C99.607 82.6737 98.6589 79.6524 98.6589 75.8071ZM103.154 75.6423C103.154 78.3779 103.719 80.4544 104.848 81.8717C105.978 83.278 107.413 83.9811 109.152 83.9811C110.891 83.9811 112.315 83.2835 113.425 81.8882C114.545 80.4819 115.105 78.3779 115.105 75.5764C115.105 72.8077 114.56 70.7423 113.47 69.3799C112.389 68.0176 110.95 67.3364 109.152 67.3364C107.354 67.3364 105.905 68.0286 104.804 69.4129C103.704 70.7862 103.154 72.8627 103.154 75.6423Z" fill="black"/>
<path d="M123.034 87.7385V63.579H130.034C132.686 63.579 134.416 63.6998 135.221 63.9415C136.459 64.3041 137.496 65.0951 138.331 66.3147C139.166 67.5232 139.583 69.0888 139.583 71.0114C139.583 72.4946 139.343 73.7416 138.861 74.7524C138.38 75.7631 137.766 76.5597 137.019 77.1419C136.282 77.7132 135.531 78.0923 134.764 78.2791C133.723 78.5098 132.215 78.6251 130.24 78.6251H127.396V87.7385H123.034ZM127.396 67.666V74.5216H129.783C131.503 74.5216 132.652 74.3953 133.232 74.1426C133.811 73.8899 134.263 73.4944 134.588 72.9561C134.922 72.4177 135.089 71.7915 135.089 71.0773C135.089 70.1984 134.858 69.4733 134.396 68.902C133.934 68.3307 133.35 67.9736 132.642 67.8308C132.122 67.7209 131.075 67.666 129.503 67.666H127.396Z" fill="black"/>
</svg>
