<svg width="200" height="201" viewBox="0 0 200 201" fill="none" xmlns="http://www.w3.org/2000/svg">
<rect x="0.520826" y="-0.520826" width="138.54" height="138.54" rx="8.85404" transform="matrix(-1 0 0 1 169.789 31.7725)" fill="white" stroke="#13141A" stroke-width="1.04165"/>
<rect width="129.165" height="129.165" rx="4.16661" transform="matrix(-1 0 0 1 164.581 35.9385)" fill="#1071AF"/>
<path fill-rule="evenodd" clip-rule="evenodd" d="M106.508 60.3637C102.709 57.061 102.141 52.2934 104.701 49.2926C107.262 46.2917 112.546 44.9938 116.344 48.2965C120.143 51.5993 120.583 57.9099 118.022 60.9108C115.462 63.9112 110.306 63.6665 106.508 60.3637ZM101.632 96.3399V74.2269L90.3839 80.2576L88.6818 95.5906C88.5232 96.9511 87.4509 98.0187 86.1009 98.1596C84.3158 98.3459 82.7935 96.8671 82.9095 95.0595L83.9557 78.0368C84.0271 76.9252 84.6064 75.9102 85.5231 75.29L102.611 63.7313C103.468 62.8579 104.877 62.7186 105.897 63.5107L111.638 67.3076C113.581 68.816 114.719 71.1496 114.719 73.6232V97.4264L122.353 112.038C123.582 114.389 123.33 117.241 121.707 119.341L108.228 136.784C106.922 138.474 104.52 138.843 102.767 137.624C101.018 136.407 100.527 134.036 101.647 132.224L111.26 116.679C111.967 115.536 111.956 114.09 111.232 112.958L103.382 100.686C101.822 98.513 101.632 97.7798 101.632 96.3399ZM118.074 89.4238V79.0654L133.111 93.1966C134.301 94.3151 134.402 96.1838 133.339 97.4264C132.3 98.6407 130.507 98.836 129.235 97.8735L118.074 89.4238ZM123.554 122.417L117.035 131.11L123.039 144.834C123.91 146.825 126.271 147.68 128.215 146.708C129.905 145.863 130.716 143.904 130.119 142.112L123.554 122.417Z" fill="white"/>
<rect width="27.0829" height="8.33321" transform="matrix(-1 0 0 1 62.4991 123.439)" fill="white"/>
<rect width="33.3328" height="8.33321" transform="matrix(-1 0 0 1 87.4987 131.77)" fill="white"/>
<rect width="33.3328" height="8.33321" transform="matrix(-1 0 0 1 112.498 140.103)" fill="white"/>
<rect width="33.3328" height="8.33321" transform="matrix(-1 0 0 1 137.498 148.437)" fill="white"/>
<rect width="33.3328" height="8.33321" transform="matrix(-1 0 0 1 164.581 156.77)" fill="white"/>
</svg>
