<svg width="200" height="200" viewBox="0 0 200 200" fill="none" xmlns="http://www.w3.org/2000/svg">
<g clip-path="url(#clip0_0_3105)">
<rect x="72.9166" y="8.33325" width="54.1667" height="83.3334" fill="#FF0E00"/>
<path d="M112.314 8.33325H100.359L127.083 30.0996V20.3624L112.314 8.33325Z" fill="white"/>
<path d="M127.083 44.1719L83.0814 8.33325H72.9166V9.79146L127.083 53.9091V44.1719Z" fill="white"/>
<path d="M127.083 67.9814L72.9166 23.8638V33.601L127.083 77.7187V67.9814Z" fill="white"/>
<path d="M127.083 91.7909L72.9166 47.6733V57.4105L127.083 101.528V91.7909Z" fill="white"/>
<path d="M127.083 115.6L72.9166 71.4828V81.22L127.083 125.338V115.6Z" fill="white"/>
<path d="M127.083 139.41L72.9166 95.2923V105.03L117.899 141.667H127.083V139.41Z" fill="white"/>
<path d="M100.621 141.667L72.9166 119.102V128.839L88.666 141.667H100.621Z" fill="white"/>
<rect x="73.4375" y="8.85409" width="53.125" height="82.2917" stroke="#05081B" stroke-width="1.04167"/>
</g>
<path fill-rule="evenodd" clip-rule="evenodd" d="M55.1629 116.667H45.8334V191.667H55.1629C68.1107 191.667 79.0051 182.832 82.2016 170.834H147.421C144.223 165.325 146.865 160.827 149.488 156.36C152.817 150.692 156.117 145.074 147.421 137.501H82.2019C79.0059 125.502 68.1112 116.667 55.1629 116.667Z" fill="#FF0E00"/>
<path d="M128.763 170.834V137.501H147.422C156.118 145.074 152.818 150.692 149.489 156.36C146.865 160.827 144.224 165.325 147.422 170.834H128.763Z" fill="white"/>
<path fill-rule="evenodd" clip-rule="evenodd" d="M45.833 144.071V155.399L73.6033 184.7C75.5664 182.971 77.2869 180.97 78.7065 178.756L45.833 144.071ZM95.1871 170.834H84.4508L45.833 130.088V118.76L95.1871 170.834ZM119.177 170.834H108.441L57.1704 116.738C69.2261 117.597 79.1722 126.128 82.2016 137.501H87.585L119.177 170.834ZM143.167 170.834H132.431L100.839 137.501H111.575L143.167 170.834ZM65.1884 189.809L45.833 169.387V180.715L56.1954 191.648C59.3547 191.533 62.3804 190.892 65.1884 189.809Z" fill="white"/>
<mask id="path-7-inside-1_0_3105" fill="white">
<path fill-rule="evenodd" clip-rule="evenodd" d="M55.1629 116.667H45.8334V191.667H55.1629C68.1107 191.667 79.0051 182.832 82.2016 170.834H147.421C144.223 165.325 146.865 160.827 149.488 156.36C152.817 150.692 156.117 145.074 147.421 137.501H82.2019C79.0059 125.502 68.1112 116.667 55.1629 116.667Z"/>
</mask>
<path d="M45.8334 116.667V115.625H44.7917V116.667H45.8334ZM45.8334 191.667H44.7917V192.708H45.8334V191.667ZM82.2016 170.834V169.792H81.4011L81.195 170.566L82.2016 170.834ZM147.421 170.834V171.876H149.231L148.322 170.311L147.421 170.834ZM149.488 156.36L148.59 155.833L149.488 156.36ZM147.421 137.501L148.106 136.715L147.811 136.459H147.421V137.501ZM82.2019 137.501L81.1954 137.769L81.4014 138.542H82.2019V137.501ZM45.8334 117.708H55.1629V115.625H45.8334V117.708ZM46.875 191.667V116.667H44.7917V191.667H46.875ZM55.1629 190.625H45.8334V192.708H55.1629V190.625ZM81.195 170.566C78.1162 182.122 67.6239 190.625 55.1629 190.625V192.708C68.5976 192.708 79.894 183.542 83.2081 171.102L81.195 170.566ZM147.421 169.792H82.2016V171.876H147.421V169.792ZM148.59 155.833C147.295 158.037 145.892 160.411 145.261 162.955C144.613 165.567 144.775 168.35 146.521 171.357L148.322 170.311C146.87 167.809 146.754 165.588 147.283 163.457C147.828 161.259 149.058 159.15 150.387 156.888L148.59 155.833ZM146.737 138.286C150.934 141.941 152.057 144.954 151.924 147.593C151.785 150.35 150.286 152.945 148.59 155.833L150.387 156.888C152.02 154.108 153.835 151.059 154.005 147.697C154.18 144.216 152.605 140.634 148.106 136.715L146.737 138.286ZM82.2019 138.542H147.421V136.459H82.2019V138.542ZM55.1629 117.708C67.6244 117.708 78.117 126.212 81.1954 137.769L83.2085 137.233C79.8948 124.793 68.5981 115.625 55.1629 115.625V117.708Z" fill="#05081B" mask="url(#path-7-inside-1_0_3105)"/>
<defs>
<clipPath id="clip0_0_3105">
<rect width="54.1667" height="83.3334" fill="white" transform="translate(72.9166 8.33325)"/>
</clipPath>
</defs>
</svg>
