<svg width="200" height="204" viewBox="0 0 200 204" fill="none" xmlns="http://www.w3.org/2000/svg">
<rect x="36.9792" y="1.47917" width="126.042" height="201.042" rx="8.85417" fill="white" stroke="#13141A" stroke-width="1.04167"/>
<rect x="41.6667" y="6.16635" width="116.667" height="191.667" rx="4.16667" fill="#1071AF"/>
<rect x="45.8333" y="43.6664" width="108.333" height="33.3333" fill="white"/>
<rect x="45.8333" y="81.1663" width="108.333" height="33.3333" fill="white"/>
<rect x="45.8333" y="118.666" width="108.333" height="33.3333" fill="white"/>
<rect x="45.8333" y="156.166" width="108.333" height="35.4167" fill="white"/>
<path fill-rule="evenodd" clip-rule="evenodd" d="M143.512 64.6475V59.4146L147.717 51.3202L152.083 59.4146V64.6475V68.2692V74.9167H106.25V64.0133L109.169 61.5893L112.078 63.6204H113.209V51.356L119.254 45.75L125.3 51.356V63.6204H127.254V60.5896V57.7249H132.966V60.5896V62.7457C133.96 61.9375 135.637 61.5609 137.447 61.8593C139.529 62.2025 141.184 63.339 141.723 64.6475H143.512Z" fill="black"/>
<path fill-rule="evenodd" clip-rule="evenodd" d="M143.512 102.147V96.9146L147.717 88.8202L152.083 96.9146V102.147V105.769V112.417H106.25V101.513L109.169 99.0893L112.078 101.12H113.209V88.856L119.254 83.25L125.3 88.856V101.12H127.254V98.0896V95.2249H132.966V98.0896V100.246C133.96 99.4375 135.637 99.0609 137.447 99.3593C139.529 99.7025 141.184 100.839 141.723 102.147H143.512Z" fill="black"/>
<path fill-rule="evenodd" clip-rule="evenodd" d="M77.0996 184.248V180.51L80.1576 174.729L83.3333 180.51V184.248V186.835V191.583H50V183.795L52.1228 182.064L54.2386 183.515H55.0613V174.754L59.4576 170.75L63.8545 174.754V183.515H65.276V181.35V179.304H69.4297V181.35V182.891C70.1527 182.314 71.3719 182.045 72.6883 182.258C74.2018 182.503 75.4045 183.314 75.7973 184.248H77.0996Z" fill="black"/>
<circle cx="62.5001" cy="60.3333" r="13.0208" fill="white" stroke="#FF0E00" stroke-width="3.125"/>
<path d="M57.885 66.5836C60.153 66.5836 61.72 64.8673 61.72 62.3388V62.3221C61.72 60.0448 60.3592 58.3954 58.476 58.3954C57.4726 58.3954 56.6547 58.8894 56.2423 59.7015H56.2011L56.4417 56.3023H61.1221V54.293H54.7922L54.3386 61.3844H56.1461C56.263 61.1332 56.421 60.8988 56.6204 60.7146C56.9571 60.3881 57.3901 60.2039 57.8987 60.2039C58.9709 60.2039 59.7338 61.0997 59.7406 62.3723V62.3891C59.7406 63.6784 58.9777 64.5826 57.8918 64.5826C56.9365 64.5826 56.2423 63.8794 56.098 62.9668L56.0843 62.9082H54.1667L54.1736 63.0337C54.2973 65.0515 55.7269 66.5836 57.885 66.5836Z" fill="black"/>
<path d="M66.7922 66.5836C69.3076 66.5836 70.8334 64.1808 70.8334 60.3378V60.3211C70.8334 56.4782 69.3076 54.0836 66.7922 54.0836C64.2767 54.0836 62.7509 56.4782 62.7509 60.3211V60.3378C62.7509 64.1808 64.2767 66.5836 66.7922 66.5836ZM66.7922 64.5575C65.5551 64.5575 64.8472 62.9919 64.8472 60.3378V60.3211C64.8472 57.667 65.5551 56.1098 66.7922 56.1098C68.0293 56.1098 68.7372 57.667 68.7372 60.3211V60.3378C68.7372 62.9919 68.0293 64.5575 66.7922 64.5575Z" fill="black"/>
<circle cx="62.5001" cy="97.8333" r="13.0208" fill="white" stroke="#FF0E00" stroke-width="3.125"/>
<path d="M57.8734 91.5836C55.7334 91.5836 54.1667 93.3335 54.1667 95.8033V95.8201C54.1667 98.089 55.4401 99.7384 57.3001 99.7384C58.6001 99.7384 59.5467 98.9179 59.9267 97.796H59.9601C59.9667 97.9299 59.9601 98.0974 59.9534 98.2565C59.8801 100.391 59.2667 102.074 57.8601 102.074C57.0734 102.074 56.5401 101.58 56.3001 100.852L56.2801 100.785H54.2934L54.3067 100.86C54.5934 102.727 55.9934 104.084 57.8534 104.084C60.3601 104.084 61.8867 101.698 61.8867 97.7374V97.7206C61.8867 93.6265 60.1934 91.5836 57.8734 91.5836ZM57.8801 97.8713C56.8801 97.8713 56.1267 96.9922 56.1267 95.7364V95.7196C56.1267 94.5224 56.9201 93.593 57.9001 93.593C58.8867 93.593 59.6601 94.5307 59.6601 95.7531V95.7615C59.6601 96.9922 58.8867 97.8713 57.8801 97.8713Z" fill="black"/>
<path d="M66.9134 104.084C69.3534 104.084 70.8334 101.681 70.8334 97.8378V97.8211C70.8334 93.9782 69.3534 91.5836 66.9134 91.5836C64.4734 91.5836 62.9934 93.9782 62.9934 97.8211V97.8378C62.9934 101.681 64.4734 104.084 66.9134 104.084ZM66.9134 102.058C65.7134 102.058 65.0267 100.492 65.0267 97.8378V97.8211C65.0267 95.167 65.7134 93.6098 66.9134 93.6098C68.1134 93.6098 68.8001 95.167 68.8001 97.8211V97.8378C68.8001 100.492 68.1134 102.058 66.9134 102.058Z" fill="black"/>
<circle cx="62.5001" cy="135.333" r="13.0208" fill="white" stroke="#FF0E00" stroke-width="3.125"/>
<path d="M55.1641 141.374H56.7943V129.293H55.1587L53.125 131.461V133.705L55.1314 131.612H55.1641V141.374Z" fill="black"/>
<path d="M61.4886 141.584C63.326 141.584 64.5473 140.127 64.5473 137.967V137.95C64.5473 136.309 63.784 135.271 62.6172 135.103V135.053C63.5386 134.76 64.2583 133.781 64.2583 132.274V132.257C64.2583 130.356 63.1679 129.084 61.4723 129.084C59.8203 129.084 58.7135 130.457 58.6044 132.55L58.599 132.65H60.1092L60.1147 132.575C60.1801 131.637 60.7035 131.026 61.4723 131.026C62.2465 131.026 62.699 131.612 62.699 132.592V132.608C62.699 133.588 62.1647 134.258 61.3414 134.258H60.4636V136.058H61.3632C62.3119 136.058 62.8735 136.694 62.8735 137.85V137.866C62.8735 138.854 62.3283 139.549 61.4832 139.549C60.6326 139.549 60.0765 138.904 60.0056 138.042L59.9947 137.95H58.4245L58.43 138.059C58.539 140.144 59.7058 141.584 61.4886 141.584Z" fill="black"/>
<path d="M68.6691 141.584C70.6646 141.584 71.875 139.181 71.875 135.338V135.321C71.875 131.478 70.6646 129.084 68.6691 129.084C66.6736 129.084 65.4633 131.478 65.4633 135.321V135.338C65.4633 139.181 66.6736 141.584 68.6691 141.584ZM68.6691 139.558C67.6877 139.558 67.1262 137.992 67.1262 135.338V135.321C67.1262 132.667 67.6877 131.11 68.6691 131.11C69.6505 131.11 70.2121 132.667 70.2121 135.321V135.338C70.2121 137.992 69.6505 139.558 68.6691 139.558Z" fill="black"/>
<path d="M53.5622 35.3376C58.3146 35.3376 61.2784 32.5909 61.2784 28.5029V16.5836H57.4203V28.1579C57.4203 30.5469 56.0406 32.0671 53.5622 32.0671C51.0838 32.0671 49.6913 30.5469 49.6913 28.1579V16.5836H45.8333V28.5029C45.8333 32.6037 48.8354 35.3376 53.5622 35.3376Z" fill="white"/>
<path d="M64.3572 35.0182H68.2153V29.3716L69.94 27.2381L75.2161 35.0182H79.8279L72.7505 24.7214L79.3553 16.5836H75.0628L68.3048 25.0153H68.2153V16.5836H64.3572V35.0182Z" fill="white"/>
<path d="M81.4504 35.0182H85.3085V28.3368H88.4001L91.8366 35.0182H96.2057L92.322 27.7619C94.3661 26.9571 95.6564 24.9386 95.6564 22.5113V22.4858C95.6564 18.781 93.2035 16.5836 89.0644 16.5836H81.4504V35.0182ZM85.3085 25.4113V19.5986H88.5917C90.4952 19.5986 91.7088 20.7228 91.7088 22.4858V22.5113C91.7088 24.3254 90.5591 25.4113 88.6428 25.4113H85.3085Z" fill="white"/>
<path d="M97.0361 35.0182H101.086L102.478 30.5469H108.994L110.386 35.0182H114.436L108.01 16.5836H103.475L97.0361 35.0182ZM105.698 20.1607H105.774L108.099 27.6597H103.373L105.698 20.1607Z" fill="white"/>
<path d="M116.327 35.0182H120.185V16.5836H116.327V35.0182Z" fill="white"/>
<path d="M123.251 35.0182H127.096V22.9457H127.173L135.528 35.0182H138.875V16.5836H135.029V28.5667H134.953L126.623 16.5836H123.251V35.0182Z" fill="white"/>
<path d="M141.954 35.0182H154.167V31.8372H145.812V27.1998H153.694V24.1849H145.812V19.7647H154.167V16.5836H141.954V35.0182Z" fill="white"/>
<path d="M143.553 83.25L106.25 112.417H114.766L152.083 83.25H143.553Z" fill="#FF0E00"/>
<path d="M77.1297 170.75L50 191.583H56.1936L83.3333 170.75H77.1297Z" fill="#FF0E00"/>
<rect x="127.083" y="120.75" width="20.8333" height="29.1667" rx="1.45838" fill="#00AC5A"/>
<path fill-rule="evenodd" clip-rule="evenodd" d="M136.593 129.963L135.497 149.918H127.484L133.514 129.963H131.489L130.689 131.878H129.487V129.963H127.083V128.428H133.978L136.298 120.75H137.099L136.677 128.428H138.324L137.902 120.75H138.703L141.023 128.428H147.917V129.963H145.512V131.878H144.31L143.51 129.963H141.487L147.517 149.918H139.504L138.408 129.963H136.593Z" fill="white"/>
<rect x="127.604" y="121.271" width="19.7917" height="28.125" rx="0.937545" stroke="#00AC5A" stroke-width="1.04167"/>
<path d="M154.167 170.775L150.36 170.76C149.336 170.663 148.65 171.326 148.312 171.86L144.797 176.466C144.609 176.801 143.766 177.097 143.294 177.254L141.727 177.604L134.395 179.03C133.946 179.097 133.168 179.58 133.365 180.605L133.683 183.963C133.723 184.507 134.364 184.953 134.699 184.95L135.381 185.144C135.396 185.065 135.419 184.99 135.442 184.914C135.453 184.876 135.465 184.837 135.476 184.797C136.096 182.537 138.387 181.188 140.615 181.819C142.487 182.348 143.751 184.125 143.737 186.016L150.384 186.076L154.167 186.058V178.106L153.977 178.107L148.267 178.055C147.161 178.081 146.962 176.736 147.426 176.091L148.986 173.592C149.505 172.915 150.179 172.308 151.05 172.263L154.167 172.286V170.775Z" fill="black"/>
<path fill-rule="evenodd" clip-rule="evenodd" d="M140.437 182.329C142.346 182.869 143.516 184.901 142.984 186.84C142.452 188.778 140.417 189.905 138.507 189.365C136.597 188.825 135.475 186.805 136.007 184.866C136.539 182.927 138.528 181.789 140.437 182.329ZM140.007 183.898C138.944 183.597 137.895 184.238 137.6 185.317C137.304 186.395 137.876 187.494 138.937 187.795C139.999 188.095 141.095 187.467 141.391 186.389C141.687 185.311 141.07 184.199 140.007 183.898Z" fill="black"/>
<rect x="108.333" y="189.5" width="45.8333" height="2.08333" fill="#8F8F8F"/>
<path d="M131.25 183.25V181.166L108.333 189.5H122.917L131.25 183.25Z" fill="#FFE600"/>
<path d="M75.9817 166.583C77.8895 166.583 79.0467 164.981 79.0467 162.419V162.408C79.0467 159.846 77.8895 158.25 75.9817 158.25C74.0739 158.25 72.9167 159.846 72.9167 162.408V162.419C72.9167 164.981 74.0739 166.583 75.9817 166.583ZM75.9817 165.233C75.0435 165.233 74.5066 164.189 74.5066 162.419V162.408C74.5066 160.639 75.0435 159.601 75.9817 159.601C76.92 159.601 77.4569 160.639 77.4569 162.408V162.419C77.4569 164.189 76.92 165.233 75.9817 165.233Z" fill="black"/>
<path d="M81.8459 166.444H83.4044V158.39H81.8407L79.8964 159.835V161.331L81.8146 159.936H81.8459V166.444Z" fill="black"/>
<path d="M85.7136 166.539C86.1827 166.539 86.558 166.137 86.558 165.634C86.558 165.127 86.1827 164.73 85.7136 164.73C85.2393 164.73 84.8692 165.127 84.8692 165.634C84.8692 166.137 85.2393 166.539 85.7136 166.539Z" fill="black"/>
<path d="M88.9975 166.444H90.5561V158.39H88.9923L87.048 159.835V161.331L88.9662 159.936H88.9975V166.444Z" fill="black"/>
<path d="M95.2161 166.583C97.1239 166.583 98.2811 164.981 98.2811 162.419V162.408C98.2811 159.846 97.1239 158.25 95.2161 158.25C93.3083 158.25 92.1511 159.846 92.1511 162.408V162.419C92.1511 164.981 93.3083 166.583 95.2161 166.583ZM95.2161 165.233C94.2779 165.233 93.741 164.189 93.741 162.419V162.408C93.741 160.639 94.2779 159.601 95.2161 159.601C96.1544 159.601 96.6913 160.639 96.6913 162.408V162.419C96.6913 164.189 96.1544 165.233 95.2161 165.233Z" fill="black"/>
<path d="M101.502 163.882H104.88V162.459H101.502V163.882Z" fill="black"/>
<path d="M111.167 166.583C113.074 166.583 114.232 164.981 114.232 162.419V162.408C114.232 159.846 113.074 158.25 111.167 158.25C109.259 158.25 108.102 159.846 108.102 162.408V162.419C108.102 164.981 109.259 166.583 111.167 166.583ZM111.167 165.233C110.228 165.233 109.691 164.189 109.691 162.419V162.408C109.691 160.639 110.228 159.601 111.167 159.601C112.105 159.601 112.642 160.639 112.642 162.408V162.419C112.642 164.189 112.105 165.233 111.167 165.233Z" fill="black"/>
<path d="M117.031 166.444H118.589V158.39H117.026L115.081 159.835V161.331L116.999 159.936H117.031V166.444Z" fill="black"/>
<path d="M120.898 166.539C121.368 166.539 121.743 166.137 121.743 165.634C121.743 165.127 121.368 164.73 120.898 164.73C120.424 164.73 120.054 165.127 120.054 165.634C120.054 166.137 120.424 166.539 120.898 166.539Z" fill="black"/>
<path d="M125.564 166.583C127.284 166.583 128.472 165.439 128.472 163.753V163.742C128.472 162.224 127.44 161.125 126.012 161.125C125.251 161.125 124.631 161.454 124.318 161.995H124.287L124.469 159.729H128.019V158.39H123.218L122.874 163.117H124.245C124.334 162.95 124.453 162.793 124.605 162.671C124.86 162.453 125.188 162.33 125.574 162.33C126.387 162.33 126.966 162.927 126.971 163.776V163.787C126.971 164.647 126.392 165.249 125.569 165.249C124.844 165.249 124.318 164.78 124.208 164.172L124.198 164.133H122.744L122.749 164.217C122.843 165.562 123.927 166.583 125.564 166.583Z" fill="black"/>
<path d="M109.375 182.417C109.282 182.417 109.167 182.335 109.167 182.176V173.908C109.167 173.749 109.282 173.667 109.375 173.667C111.849 173.667 114.048 174.226 115.599 175.088C117.178 175.965 117.917 177.044 117.917 178.042C117.917 179.04 117.178 180.119 115.599 180.996C114.048 181.858 111.849 182.417 109.375 182.417Z" stroke="black" stroke-width="1.66667"/>
<path d="M103.125 176.739L107.292 174.916V176.218L103.125 178.041V176.739Z" fill="black"/>
<path d="M103.125 179.343L107.292 177.52V178.823L103.125 180.645V179.343Z" fill="black"/>
<path d="M107.292 180.125L103.125 181.948V183.25L107.292 181.427V180.125Z" fill="black"/>
</svg>
