<svg width="200" height="201" viewBox="0 0 200 201" fill="none" xmlns="http://www.w3.org/2000/svg">
<rect x="36.9792" y="12.3122" width="126.042" height="176.042" rx="8.85417" fill="white" stroke="#13141A" stroke-width="1.04167"/>
<rect x="41.6667" y="17" width="116.667" height="166.667" rx="4.16667" fill="#1071AF"/>
<rect x="50" y="33.667" width="100" height="100" rx="4.16667" fill="white"/>
<path fill-rule="evenodd" clip-rule="evenodd" d="M106.25 47.8223C106.25 45.7572 107.924 44.083 109.989 44.083H139.904C141.969 44.083 143.643 45.7572 143.643 47.8223V109.094C143.643 111.159 141.969 112.833 139.904 112.833H120.833V70.259H136.163V51.5625H113.728V58.6683H106.25V47.8223Z" fill="#269E48"/>
<path fill-rule="evenodd" clip-rule="evenodd" d="M87.6078 58.2393C87.6078 56.1741 89.2819 54.5 91.3471 54.5H121.262C123.327 54.5 125.001 56.1741 125.001 58.2393V119.511C125.001 121.576 123.327 123.25 121.262 123.25H91.3471C89.2819 123.25 87.6078 121.576 87.6078 119.511V58.2393ZM95.0854 61.9788H117.521V80.6754H95.0854V61.9788ZM80.1281 61.9759C78.063 61.9759 76.3888 63.65 76.3888 65.7152V81.7235L57.2865 99.3564C53.9697 102.418 52.0833 106.727 52.0833 111.241V111.522C52.0833 120.299 59.1984 127.414 67.9753 127.414H68.9102C77.1708 127.414 83.8674 120.717 83.8674 112.457V90.0208H87.6068V86.2815H83.8674C81.8023 86.2815 80.1281 87.9556 80.1281 90.0208V112.457C80.1281 118.652 75.1057 123.675 68.9102 123.675H67.9753C61.2636 123.675 55.8226 118.234 55.8226 111.522V111.241C55.8226 107.77 57.2728 104.458 59.8228 102.104L79.5266 83.916L80.1281 83.3607V82.5421V65.7152H87.6068V61.9759H80.1281Z" fill="black"/>
<path d="M70.0746 157.721C69.064 157.294 68.3272 156.71 67.8634 155.969C67.4092 155.217 67.1822 154.398 67.1822 153.508C67.1822 151.988 67.7098 150.732 68.7668 149.739C69.8327 148.748 71.3447 148.252 73.3005 148.252C75.2386 148.252 76.7397 148.748 77.8058 149.739C78.8818 150.731 79.4193 151.988 79.4193 153.508C79.4193 154.454 79.174 155.297 78.682 156.039C78.1904 156.771 77.4998 157.332 76.6099 157.721C77.7409 158.176 78.5986 158.839 79.1826 159.71C79.7761 160.581 80.0733 161.586 80.0733 162.728C80.0733 164.61 79.4706 166.139 78.2654 167.317C77.0698 168.494 75.4742 169.083 73.4808 169.083C71.6265 169.083 70.0829 168.597 68.8501 167.624C67.3945 166.473 66.6667 164.897 66.6667 162.895C66.6667 161.791 66.9403 160.781 67.4874 159.863C68.035 158.935 68.8974 158.221 70.0746 157.721ZM70.8809 153.785C70.8809 154.564 71.0992 155.171 71.5349 155.607C71.98 156.043 72.5683 156.261 73.3012 156.261C74.0424 156.261 74.6367 156.043 75.0811 155.607C75.5261 155.161 75.7485 154.55 75.7485 153.771C75.7485 153.04 75.5261 152.455 75.0811 152.02C74.645 151.575 74.0658 151.352 73.3428 151.352C72.5917 151.352 71.9943 151.575 71.5487 152.02C71.1038 152.464 70.8809 153.052 70.8809 153.785ZM70.5196 162.519C70.5196 163.595 70.7937 164.433 71.3403 165.035C71.8972 165.638 72.5873 165.939 73.4118 165.939C74.2181 165.939 74.8864 165.652 75.4145 165.077C75.9432 164.493 76.2076 163.654 76.2076 162.56C76.2076 161.605 75.9385 160.84 75.4013 160.265C74.8638 159.681 74.1823 159.389 73.3573 159.389C72.4017 159.389 71.6878 159.719 71.2157 160.377C70.7511 161.036 70.5196 161.749 70.5196 162.519ZM89.1821 148.25C91.157 148.25 92.7007 148.955 93.8133 150.364C95.1387 152.033 95.8017 154.8 95.8017 158.666C95.8017 162.523 95.1348 165.295 93.7993 166.982C92.696 168.372 91.157 169.068 89.1821 169.068C87.1982 169.068 85.5991 168.308 84.3845 166.787C83.1699 165.258 82.5626 162.537 82.5626 158.625C82.5626 154.787 83.2299 152.023 84.5654 150.336C85.6684 148.946 87.2076 148.25 89.1821 148.25ZM89.1821 151.491C88.7095 151.491 88.2877 151.644 87.9169 151.95C87.5458 152.247 87.2585 152.785 87.0547 153.564C86.7859 154.574 86.6512 156.275 86.6512 158.667C86.6512 161.059 86.7719 162.705 87.0129 163.604C87.2546 164.494 87.5559 165.087 87.9169 165.383C88.2877 165.68 88.7095 165.829 89.1821 165.829C89.6552 165.829 90.0769 165.68 90.4478 165.383C90.8189 165.077 91.1059 164.535 91.3099 163.756C91.5788 162.755 91.7132 161.058 91.7132 158.666C91.7132 156.275 91.5925 154.634 91.3517 153.743C91.1098 152.844 90.8046 152.246 90.4337 151.949C90.0725 151.644 89.6552 151.491 89.1821 151.491ZM105.036 148.25C107.01 148.25 108.554 148.955 109.667 150.364C110.992 152.033 111.655 154.8 111.655 158.666C111.655 162.523 110.988 165.295 109.653 166.982C108.549 168.372 107.01 169.068 105.036 169.068C103.052 169.068 101.452 168.308 100.238 166.787C99.0235 165.258 98.4162 162.537 98.4162 158.625C98.4162 154.787 99.0832 152.023 100.419 150.336C101.522 148.946 103.06 148.25 105.036 148.25ZM105.036 151.491C104.563 151.491 104.141 151.644 103.77 151.95C103.399 152.247 103.112 152.785 102.908 153.564C102.639 154.574 102.504 156.275 102.504 158.667C102.504 161.059 102.625 162.705 102.866 163.604C103.108 164.494 103.409 165.087 103.77 165.383C104.141 165.68 104.563 165.829 105.036 165.829C105.508 165.829 105.93 165.68 106.301 165.383C106.672 165.077 106.959 164.535 107.163 163.756C107.432 162.755 107.567 161.058 107.567 158.666C107.567 156.275 107.446 154.634 107.205 153.743C106.964 152.844 106.658 152.246 106.287 151.949C105.926 151.644 105.508 151.491 105.036 151.491ZM115.229 153.952H120.068L123.74 164.243L127.439 153.952H132.264V168.721H128.941V159L125.338 168.721H122.002L118.567 159V168.721H115.23L115.229 153.952Z" fill="white"/>
</svg>
