<svg width="200" height="200" viewBox="0 0 200 200" fill="none" xmlns="http://www.w3.org/2000/svg">
<rect x="36.9792" y="11.9792" width="126.042" height="176.042" rx="8.85417" fill="white" stroke="#13141A" stroke-width="1.04167"/>
<rect x="41.6667" y="16.667" width="116.667" height="166.667" rx="4.16667" fill="#1071AF"/>
<rect x="50" y="33.333" width="100" height="100" rx="4.16667" fill="white"/>
<path d="M106.962 80.3174C112.883 76.2435 114.758 71.1305 114.758 64.9956C114.758 54.4976 108.384 50 100.136 50C90.9987 49.9998 85.9925 56.5738 85.9925 64.6758C85.9925 65.3396 85.0519 66.5652 84.0996 67.806C83.1608 69.0291 82.2107 70.267 82.1391 70.9961C82.0104 72.3078 85.5153 72.8708 85.5153 72.8708C85.5153 72.8708 84.7654 78.9411 85.8902 80.7443C86.4626 81.6618 88.5147 82.9939 94.0933 82.4774V84.4931C94.0933 85.779 93.2781 86.9401 92.0355 87.2707C91.6446 87.3747 91.2727 87.4608 90.9987 87.4978C89.5764 87.69 88.0725 87.5638 86.4249 87.4254C84.1225 87.2322 81.5394 87.0153 78.5058 87.6111C73.2911 88.6357 68.2685 90.4925 66.82 96.4044C67.4364 96.4257 68.0057 96.4319 68.5344 96.4252L69.2154 96.2143C72.9029 95.0702 76.7843 93.8659 80.2526 93.8158C83.6317 93.7682 86.9099 94.8455 90.0094 95.864L90.5109 96.0286C93.7573 97.0919 96.8288 98.0187 98.9579 97.9994C101.091 97.9788 104.245 96.9851 107.526 95.8664L108.015 95.6992C111.144 94.6293 114.378 93.5233 117.623 93.4927C120.92 93.4616 124.212 94.5613 127.307 95.5955L127.637 95.7055C130.832 96.7701 133.867 97.6905 135.361 97.6763L135.461 97.6749L135.522 97.6736C136.427 92.4239 130.296 88.9772 126.384 88.0178C122.499 87.064 117.364 86.8503 109.784 87.5622C109.398 87.5983 108.84 87.3889 108.321 87.1334C107.436 86.6973 106.962 85.7486 106.962 84.7618V80.3174Z" fill="black"/>
<path d="M108.017 98.9667C111.145 97.8968 114.379 96.7908 117.625 96.7602C120.921 96.7291 124.213 97.8288 127.309 98.863L127.638 98.973C130.833 100.038 133.869 100.958 135.362 100.944C139.14 100.909 147.672 98.6911 147.672 98.6911C147.755 98.6759 147.837 98.6649 147.917 98.6578V103.951C145.486 104.603 139.62 106.053 135.406 106.093C132.695 106.119 129.967 105.19 127.222 104.256C126.813 104.116 126.403 103.977 125.993 103.84C122.832 102.787 119.714 101.889 117.666 101.908C115.619 101.929 112.463 102.921 109.178 104.041L108.772 104.18C105.611 105.261 102.326 106.384 99.0006 106.415C95.7323 106.445 92.5358 105.395 89.4735 104.389L88.9032 104.202C85.6683 103.144 82.5943 102.199 80.3352 102.231C78.0799 102.263 74.1743 103.366 70.4387 104.525C69.8881 104.696 69.3441 104.869 68.807 105.039C65.7016 106.026 62.8259 106.939 60.2217 106.979C57.0361 107.027 53.9899 106.146 52.0833 105.443V99.8884C52.1403 99.9018 52.1979 99.9184 52.256 99.9385C52.256 99.9385 56.6623 101.884 60.1405 101.829C61.4548 101.81 65.1313 100.748 68.9107 99.5767L69.2169 99.4818C72.9043 98.3377 76.7858 97.1334 80.2541 97.0833C83.6331 97.0357 86.9114 98.113 90.0108 99.1315L90.5123 99.2961C93.7588 100.359 96.8302 101.286 98.9594 101.267C101.092 101.246 104.246 100.253 107.527 99.1339L108.017 98.9667Z" fill="black"/>
<path d="M147.917 106.444C145.414 107.041 138.434 108.639 135.362 108.668C133.869 108.681 130.833 107.761 127.638 106.698L127.319 106.591C124.22 105.554 120.925 104.452 117.625 104.483C114.379 104.514 111.145 105.62 108.017 106.69L107.527 106.857C104.246 107.975 101.092 108.97 98.9593 108.99C96.8302 109.01 93.7588 108.083 90.5123 107.019L89.9932 106.849C86.8989 105.833 83.6267 104.759 80.2541 104.807C76.7853 104.855 72.9033 106.061 69.2154 107.207L68.9107 107.301C65.1313 108.473 61.4548 109.533 60.1405 109.554C57.5626 109.594 53.8384 108.324 52.0833 107.664V113.182C54.3047 113.936 57.3771 114.746 60.2216 114.702C62.8219 114.663 65.6926 113.751 68.7926 112.766L68.7948 112.765C69.3358 112.593 69.8839 112.419 70.4386 112.247C74.1743 111.09 78.0799 109.987 80.3352 109.954C82.5943 109.922 85.6683 110.866 88.9032 111.925L89.4558 112.107C92.5235 113.115 95.7259 114.168 99.0005 114.138C102.319 114.108 105.598 112.988 108.753 111.911L109.178 111.766C112.463 110.646 115.619 109.652 117.666 109.633C119.714 109.613 122.832 110.51 125.993 111.563C126.402 111.699 126.81 111.839 127.218 111.977L127.221 111.978C129.966 112.913 132.695 113.842 135.406 113.816C139.168 113.781 144.799 112.529 147.917 111.76V106.444Z" fill="black"/>
</svg>
