<svg width="200" height="201" viewBox="0 0 200 201" fill="none" xmlns="http://www.w3.org/2000/svg">
<circle cx="100" cy="100.336" r="82.8125" fill="white" stroke="#05081B" stroke-width="1.04167"/>
<path d="M33.3333 133.354L49.2631 133.236C49.2622 133.189 49.281 133.146 49.2997 133.102C49.3185 133.059 49.3373 133.016 49.3364 132.969L49.3994 132.603C49.9653 129.315 50.4924 126.253 52.9844 123.841C56.2099 120.486 60.9604 118.84 65.709 120.183C70.4577 121.527 73.9017 125.492 75.0005 130.07L78.5155 129.759C79.5557 129.752 81.6096 127.333 81.8401 126.493L84.9536 116.197C85.6894 114.599 85.5881 110.452 84.3626 109.501L72.5121 95.4082L66.968 89.0476C66.4149 88.2132 65.0177 86.7221 63.5041 86.0385C62.9992 85.812 62.4965 85.7441 62.0088 85.7547L34.8183 85.9002L33.3333 85.8905V90.616L33.5235 90.6185L55.007 90.4557C55.3176 90.4603 55.6171 90.4574 55.9065 90.4546C56.9241 90.4448 57.8178 90.4362 58.6373 90.7584C59.691 91.168 60.6198 92.183 61.4757 94.4636L63.8017 100.053C65.44 103.832 64.3487 108.859 57.9014 108.539L33.3333 108.641V133.354Z" fill="black"/>
<path fill-rule="evenodd" clip-rule="evenodd" d="M65.5091 121.666C71.4459 123.346 75.0812 129.663 73.427 135.692C71.7728 141.72 65.4471 145.224 59.506 143.543C53.5649 141.862 50.0793 135.582 51.7334 129.554C53.3876 123.526 59.5722 119.987 65.5091 121.666ZM64.1706 126.544C60.869 125.61 57.6057 127.603 56.6858 130.955C55.7647 134.312 57.5441 137.727 60.8456 138.661C64.1472 139.595 67.5548 137.643 68.4747 134.291C69.3946 130.938 67.4721 127.478 64.1706 126.544Z" fill="black"/>
<path d="M168.75 85.8637L161.278 85.8145C158.095 85.5131 155.961 87.5747 154.91 89.237L143.979 103.557C143.396 104.6 140.774 105.52 139.305 106.01L134.433 107.097L111.636 111.532C110.239 111.74 107.819 113.243 108.431 116.429L109.421 126.87C109.546 128.563 111.539 129.948 112.58 129.941L114.701 130.541C114.748 130.296 114.818 130.064 114.89 129.829C114.926 129.71 114.963 129.588 114.997 129.464C116.925 122.436 124.049 118.243 130.974 120.202C136.797 121.85 140.728 127.373 140.683 133.253L161.352 133.44L168.75 133.385V108.659L168.16 108.662L154.769 108.5C151.331 108.581 150.713 104.399 152.155 102.393L157.004 94.6214C158.62 92.5154 160.716 90.6287 163.425 90.4896L168.75 90.5609V85.8637Z" fill="black"/>
<path fill-rule="evenodd" clip-rule="evenodd" d="M130.423 121.79C136.36 123.47 139.995 129.787 138.341 135.816C136.687 141.844 130.361 145.348 124.42 143.667C118.483 141.987 114.993 135.706 116.647 129.678C118.301 123.65 124.486 120.111 130.423 121.79ZM129.084 126.668C125.779 125.733 122.52 127.727 121.6 131.079C120.68 134.432 122.458 137.851 125.759 138.785C129.061 139.719 132.469 137.767 133.388 134.415C134.308 131.062 132.39 127.603 129.084 126.668Z" fill="black"/>
<path d="M70.8334 61.3801V57.0214H86.9876V60.4282C85.654 61.7308 84.2981 63.6012 82.9197 66.0394C81.5413 68.4776 80.4878 71.0717 79.7594 73.8216C79.0422 76.5604 78.6892 79.0098 78.7004 81.1697H74.145C74.2234 77.7851 74.9238 74.3338 76.2462 70.8156C77.5798 67.2975 79.356 64.1523 81.5749 61.3801H70.8334Z" fill="black"/>
<path d="M96.0756 56.5872C98.4626 56.5872 100.328 57.4333 101.673 59.1256C103.276 61.1296 104.077 64.4529 104.077 69.0955C104.077 73.727 103.27 77.0559 101.656 79.0822C100.323 80.7522 98.4626 81.5872 96.0756 81.5872C93.6774 81.5872 91.7442 80.6742 90.2762 78.8484C88.8081 77.0113 88.0741 73.7437 88.0741 69.0454C88.0741 64.4362 88.881 61.1184 90.4947 59.0922C91.8283 57.4222 93.6886 56.5872 96.0756 56.5872ZM96.0756 60.4783C95.504 60.4783 94.9941 60.662 94.5459 61.0294C94.0976 61.3856 93.7502 62.0314 93.5037 62.9666C93.1787 64.1801 93.0162 66.2231 93.0162 69.0955C93.0162 71.9679 93.1619 73.9441 93.4532 75.024C93.7446 76.0928 94.1088 76.8054 94.5459 77.1616C94.9941 77.5179 95.504 77.696 96.0756 77.696C96.6471 77.696 97.157 77.5179 97.6053 77.1616C98.0535 76.7942 98.4009 76.1429 98.6475 75.2077C98.9725 74.0053 99.1349 71.9679 99.1349 69.0955C99.1349 66.2231 98.9893 64.2525 98.6979 63.1837C98.4065 62.1037 98.0367 61.3856 97.5884 61.0294C97.1514 60.662 96.6471 60.4783 96.0756 60.4783Z" fill="black"/>
<path d="M108.575 63.4342H114.425L118.862 75.7922L123.334 63.4342H129.167V81.1697H125.149V69.4963L120.796 81.1697H116.761L112.609 69.4963V81.1697H108.575V63.4342Z" fill="black"/>
<circle cx="100" cy="100.337" r="71.875" stroke="#FF0E00" stroke-width="12.5"/>
</svg>
