<svg width="200" height="201" viewBox="0 0 200 201" fill="none" xmlns="http://www.w3.org/2000/svg">
<circle cx="99.9995" cy="100.666" r="82.8125" fill="white" stroke="#05081B" stroke-width="1.04167"/>
<circle cx="99.9993" cy="100.665" r="78.125" fill="#1071AF"/>
<path d="M94.2752 40.3234C94.2752 43.8163 91.6189 46.6478 88.3423 46.6478C85.0656 46.6478 82.4093 43.8163 82.4093 40.3234C82.4093 36.8306 85.0656 33.999 88.3423 33.999C91.6189 33.999 94.2752 36.8306 94.2752 40.3234Z" fill="white"/>
<path d="M83.486 101.842L88.4315 80.4913L93.3769 101.842C93.8371 103.828 95.7415 105.021 97.5933 104.483C99.3553 103.971 100.428 102.072 100.028 100.172L93.0295 66.8859L94.2161 59.2966L98.8886 72.6663C99.412 74.1637 101.008 74.8849 102.381 74.2444C103.632 73.661 104.25 72.149 103.799 70.7753L96.7098 49.1832C96.4599 48.4223 95.7862 47.9127 95.0298 47.9127H81.8331C81.0768 47.9127 80.4031 48.4223 80.1532 49.1832L73.0638 70.7753C72.6127 72.149 73.2307 73.661 74.4815 74.2444C75.8549 74.8849 77.451 74.1637 77.9743 72.6663L82.6469 59.2966L83.8335 66.8859L76.8345 100.172C76.4351 102.072 77.5077 103.971 79.2697 104.483C81.1215 105.021 83.0259 103.828 83.486 101.842Z" fill="white"/>
<path d="M119.839 73.1667C119.622 72.8001 119.243 72.5779 118.836 72.5779L112.227 72.5779C111.621 72.5779 111.02 72.6878 110.449 72.9029L101.229 76.3746C100.28 76.7301 99.7482 77.8056 100.01 78.8412C100.284 79.9261 101.326 80.5737 102.347 80.2931L111.312 77.828V86.5041L106.838 101.62C106.459 102.901 107.143 104.257 108.389 104.694C109.655 105.139 111.038 104.474 111.502 103.2L115.337 92.6443L119.172 103.2C119.635 104.474 121.018 105.139 122.284 104.694C123.53 104.257 124.214 102.901 123.835 101.62L119.361 86.5041V80.6436L123.662 87.1188C124.28 88.049 125.499 88.2452 126.347 87.5508C127.119 86.9183 127.312 85.7626 126.792 84.8852L119.839 73.1667Z" fill="white"/>
<path d="M115.634 71.313C118.255 71.313 120.38 69.0478 120.38 66.2535C120.38 63.4592 118.255 61.194 115.634 61.194C113.012 61.194 110.887 63.4592 110.887 66.2535C110.887 69.0478 113.012 71.313 115.634 71.313Z" fill="white"/>
<path fill-rule="evenodd" clip-rule="evenodd" d="M85.614 113.188C83.4979 113.188 81.7038 114.744 81.4045 116.839C81.1139 118.874 82.3198 120.825 84.2693 121.475L86.5897 122.248L80.8018 132.377C78.9928 131.563 76.986 131.109 74.8734 131.109C66.8891 131.109 60.4166 137.582 60.4166 145.566C60.4166 153.55 66.8891 160.023 74.8734 160.023C82.8576 160.023 89.3301 153.55 89.3301 145.566C89.3301 140.69 86.9161 136.378 83.2181 133.76L84.73 131.114L101.78 146.555C101.888 146.66 102.014 146.75 102.158 146.818C102.374 146.92 102.602 146.962 102.825 146.95H110.733C111.43 154.285 117.607 160.023 125.125 160.023C133.109 160.023 139.581 153.55 139.581 145.566C139.581 137.582 133.109 131.109 125.125 131.109C122.658 131.109 120.337 131.727 118.305 132.816L113.439 125.517V121.48H117.554C118.323 121.48 118.946 120.857 118.946 120.089C118.946 119.32 118.323 118.697 117.554 118.697L112.049 118.697L112.047 118.697L112.046 118.697L105.851 118.697C105.083 118.697 104.459 119.32 104.459 120.089C104.459 120.857 105.083 121.48 105.851 121.48L110.656 121.48V124.546L88.4829 124.546L89.8491 122.155C90.056 121.793 90.0897 121.357 89.9409 120.968C89.792 120.578 89.4764 120.276 89.0808 120.144L85.1497 118.834C84.4764 118.609 84.06 117.936 84.1604 117.233C84.2637 116.51 84.8833 115.972 85.614 115.972H92.4269C93.1956 115.972 93.8188 115.349 93.8188 114.58C93.8188 113.812 93.1956 113.188 92.4269 113.188H85.614ZM115.989 134.361L112.253 128.757L104.954 144.167H110.735C111.114 140.219 113.081 136.735 115.989 134.361ZM113.535 144.167C113.891 141.184 115.373 138.546 117.543 136.691L122.527 144.167H113.535ZM113.533 146.95H125.127C125.641 146.95 126.112 146.668 126.355 146.215C126.597 145.763 126.57 145.213 126.285 144.786L119.858 135.146C121.441 134.345 123.23 133.893 125.125 133.893C131.571 133.893 136.797 139.119 136.797 145.566C136.797 152.013 131.571 157.239 125.125 157.239C119.146 157.239 114.217 152.745 113.533 146.95ZM74.8734 133.893C76.4833 133.893 78.017 134.219 79.4123 134.809L73.6638 144.869C73.2824 145.536 73.5143 146.386 74.1817 146.768C74.8492 147.149 75.6994 146.917 76.0808 146.25L81.8287 136.191C84.6914 138.318 86.5463 141.726 86.5463 145.566C86.5463 152.013 81.3201 157.239 74.8734 157.239C68.4266 157.239 63.2004 152.013 63.2004 145.566C63.2004 139.119 68.4266 133.893 74.8734 133.893ZM86.8921 127.33L86.1443 128.639L102.299 143.269L109.849 127.33H86.8921Z" fill="white"/>
</svg>
