<svg width="200" height="201" viewBox="0 0 200 201" fill="none" xmlns="http://www.w3.org/2000/svg">
<rect x="36.9786" y="12.0788" width="126.04" height="176.039" rx="8.85404" fill="white" stroke="#13141A" stroke-width="1.04165"/>
<rect x="41.6661" y="16.7678" width="116.665" height="166.664" rx="4.16661" fill="#1071AF"/>
<path d="M70.8323 31.35H105.401C109.91 31.35 113.897 32.1601 117.362 33.7804C120.827 35.4007 123.729 37.5246 126.067 40.1521C128.447 42.7358 130.242 45.6479 131.453 48.8885C132.705 52.1291 133.331 55.3916 133.331 58.676C133.331 62.1355 132.705 65.5293 131.453 68.8575C130.242 72.1419 128.447 75.0759 126.067 77.6596C123.687 80.1995 120.765 82.2577 117.3 83.8342C113.834 85.367 109.868 86.1333 105.401 86.1333H85.6116V114.682H70.8323V31.35ZM85.6116 73.1272H102.27C105.317 73.1272 107.864 72.755 109.91 72.0105C111.997 71.2223 113.667 70.1713 114.92 68.8575C116.214 67.5438 117.133 66.0111 117.675 64.2594C118.26 62.4639 118.552 60.5371 118.552 58.4789C118.552 56.4645 118.197 54.6033 117.487 52.8955C116.778 51.1438 115.734 49.6549 114.356 48.4287C112.978 47.1588 111.267 46.1734 109.221 45.4728C107.217 44.7721 104.9 44.4218 102.27 44.4218H85.6116V73.1272Z" fill="white"/>
<path d="M70.4147 139.891H58.3704C56.8004 139.891 55.3508 140.732 54.5719 142.095L50.5747 149.09C50.197 149.751 49.9983 150.5 49.9983 151.261V163.224C49.9983 164.835 51.3041 166.14 52.9149 166.14H70.4147V139.891Z" fill="white"/>
<circle r="7.29185" transform="matrix(-1 0 0 1 60.9366 165.411)" fill="white" stroke="#1071AF" stroke-width="1.45831"/>
<circle r="3.64594" transform="matrix(-1 0 0 1 60.936 165.413)" fill="#1071AF"/>
<path d="M52.9143 150.467C52.6365 150.953 52.9875 151.558 53.5474 151.558H67.4996V142.808H57.2911L52.9143 150.467Z" fill="#1071AF"/>
<rect x="70.4147" y="160.307" width="37.9161" height="5.83325" fill="white"/>
<path d="M73.332 136.972C73.332 136.167 73.9849 135.514 74.7903 135.514H106.873C107.679 135.514 108.332 136.167 108.332 136.972V157.388H73.332V136.972Z" fill="white"/>
<circle r="7.29185" transform="matrix(-1 0 0 1 94.477 165.411)" fill="white" stroke="#1071AF" stroke-width="1.45831"/>
<circle r="3.64594" transform="matrix(-1 0 0 1 94.4786 165.413)" fill="#1071AF"/>
<path d="M106.251 164.079L131.256 169.865V171.948L106.251 166.162V164.079Z" fill="white"/>
<path d="M110.427 136.972C110.427 136.167 111.08 135.514 111.886 135.514H118.761V157.397H110.427V136.972Z" fill="white"/>
<rect x="121.415" y="163.473" width="13.0944" height="6.25018" transform="rotate(-36.6591 121.415 163.473)" fill="white"/>
</svg>
