<svg width="200" height="201" viewBox="0 0 200 201" fill="none" xmlns="http://www.w3.org/2000/svg">
<path d="M176.251 75.9214L176.466 75.7955L176.502 75.5493L179.682 54.3725L179.743 53.9634L179.358 53.811L159.692 46.0158L159.456 45.9222L159.237 46.0506L99.9998 80.7484L40.7632 46.0508L40.5441 45.9225L40.308 46.0161L20.6417 53.8113L20.2571 53.9637L20.3185 54.3728L23.4976 75.5495L23.5346 75.7958L23.7494 75.9216L65.9948 100.667L23.7492 125.412L23.5344 125.538L23.4974 125.784L20.3183 146.961L20.2569 147.37L20.6415 147.522L40.3078 155.317L40.5438 155.411L40.7629 155.283L99.9998 120.585L159.237 155.283L159.456 155.411L159.692 155.318L179.359 147.522L179.743 147.37L179.682 146.961L176.503 125.784L176.466 125.538L176.251 125.412L134.005 100.667L176.251 75.9214Z" fill="white" stroke="black" stroke-width="1.04167"/>
<mask id="path-2-inside-1_0_3427" fill="white">
<path fill-rule="evenodd" clip-rule="evenodd" d="M125.471 100.666L172.551 73.0897L175.006 56.73L159.814 50.708L99.9971 85.7452L40.1853 50.7108L24.9925 56.7328L27.4484 73.0925L74.5233 100.666L27.448 128.24L24.9921 144.6L40.1849 150.622L99.9971 115.587L159.814 150.625L175.007 144.603L172.551 128.243L125.471 100.666Z"/>
</mask>
<path fill-rule="evenodd" clip-rule="evenodd" d="M125.471 100.666L172.551 73.0897L175.006 56.73L159.814 50.708L99.9971 85.7452L40.1853 50.7108L24.9925 56.7328L27.4484 73.0925L74.5233 100.666L27.448 128.24L24.9921 144.6L40.1849 150.622L99.9971 115.587L159.814 150.625L175.007 144.603L172.551 128.243L125.471 100.666Z" fill="white"/>
<path d="M172.551 73.0897L176.762 80.2803L180.2 78.2667L180.792 74.3268L172.551 73.0897ZM125.471 100.666L121.259 93.4757L108.983 100.666L121.259 107.857L125.471 100.666ZM175.006 56.73L183.247 57.9672L184.23 51.4219L178.077 48.9831L175.006 56.73ZM159.814 50.708L162.884 42.961L159.107 41.464L155.602 43.5174L159.814 50.708ZM99.9971 85.7452L95.7852 92.9358L99.9971 95.4029L104.209 92.9358L99.9971 85.7452ZM40.1853 50.7108L44.3972 43.5202L40.8915 41.4668L37.1146 42.9638L40.1853 50.7108ZM24.9925 56.7328L21.9218 48.9859L15.7689 51.4247L16.7515 57.97L24.9925 56.7328ZM27.4484 73.0925L19.2074 74.3296L19.7989 78.2695L23.2366 80.2831L27.4484 73.0925ZM74.5233 100.666L78.7352 107.857L91.0112 100.666L78.7352 93.4757L74.5233 100.666ZM27.448 128.24L23.2361 121.05L19.7985 123.063L19.207 127.003L27.448 128.24ZM24.9921 144.6L16.7511 143.363L15.7685 149.908L21.9214 152.347L24.9921 144.6ZM40.1849 150.622L37.1142 158.369L40.8911 159.866L44.3967 157.813L40.1849 150.622ZM99.9971 115.587L104.209 108.397L99.9971 105.93L95.7852 108.397L99.9971 115.587ZM159.814 150.625L155.602 157.816L159.108 159.869L162.885 158.372L159.814 150.625ZM175.007 144.603L178.078 152.35L184.23 149.911L183.248 143.366L175.007 144.603ZM172.551 128.243L180.792 127.006L180.2 123.066L176.763 121.053L172.551 128.243ZM168.339 65.8991L121.259 93.4757L129.683 107.857L176.762 80.2803L168.339 65.8991ZM166.765 55.4929L164.31 71.8525L180.792 74.3268L183.247 57.9672L166.765 55.4929ZM156.743 58.455L171.936 64.477L178.077 48.9831L162.884 42.961L156.743 58.455ZM104.209 92.9358L164.026 57.8986L155.602 43.5174L95.7852 78.5546L104.209 92.9358ZM35.9734 57.9014L95.7852 92.9358L104.209 78.5546L44.3972 43.5202L35.9734 57.9014ZM28.0632 64.4798L43.256 58.4578L37.1146 42.9638L21.9218 48.9859L28.0632 64.4798ZM35.6894 71.8553L33.2335 55.4957L16.7515 57.97L19.2074 74.3296L35.6894 71.8553ZM78.7352 93.4757L31.6603 65.9019L23.2366 80.2831L70.3114 107.857L78.7352 93.4757ZM31.6598 135.431L78.7352 107.857L70.3114 93.4757L23.2361 121.05L31.6598 135.431ZM33.2331 145.837L35.689 129.478L19.207 127.003L16.7511 143.363L33.2331 145.837ZM43.2556 142.875L28.0627 136.853L21.9214 152.347L37.1142 158.369L43.2556 142.875ZM95.7852 108.397L35.973 143.432L44.3967 157.813L104.209 122.778L95.7852 108.397ZM164.026 143.434L104.209 108.397L95.7852 122.778L155.602 157.816L164.026 143.434ZM171.936 136.856L156.743 142.878L162.885 158.372L178.078 152.35L171.936 136.856ZM164.31 129.48L166.766 145.84L183.248 143.366L180.792 127.006L164.31 129.48ZM121.259 107.857L168.339 135.434L176.763 121.053L129.683 93.4757L121.259 107.857Z" fill="#FF0E00" mask="url(#path-2-inside-1_0_3427)"/>
</svg>
