<svg width="200" height="201" viewBox="0 0 200 201" fill="none" xmlns="http://www.w3.org/2000/svg">
<path d="M25.6863 169.938H174.314C181.678 169.938 186.263 161.965 182.525 155.636L108.211 29.8236C104.527 23.587 95.4727 23.587 91.7889 29.8236L17.4753 155.636C13.7367 161.965 18.3214 169.938 25.6863 169.938Z" fill="#FF0E00" stroke="black" stroke-width="1.04167"/>
<path d="M174.314 167.334H25.6863C20.3188 167.334 17.0139 161.537 19.7175 156.96L94.0312 31.148C96.707 26.6178 103.293 26.6178 105.969 31.148L180.282 156.96C182.986 161.537 179.681 167.334 174.314 167.334Z" fill="#FF0E00" stroke="white" stroke-width="4.16667"/>
<path fill-rule="evenodd" clip-rule="evenodd" d="M164.062 154.835L99.9999 46.0977L35.9374 154.835H164.062Z" fill="white"/>
<path d="M99.0424 90.251C82.375 90.251 68.7499 104.192 68.7499 121.387V148.216L96.9465 132.955V123.418V122.126C96.9465 115.899 102.104 110.804 108.441 110.804C114.777 110.804 119.935 115.899 119.935 122.126V123.418V132.955V133.14L131.25 147.785V121.387C131.25 105.151 119.078 91.7807 103.591 90.3744C102.72 90.311 101.827 90.251 100.957 90.251H99.0424ZM98.7826 134.062L73.6388 148.584H128.472L118.361 134.062H98.7826Z" fill="black"/>
</svg>
