<svg width="200" height="201" viewBox="0 0 200 201" fill="none" xmlns="http://www.w3.org/2000/svg">
<rect x="1.56253" y="146.688" width="92.7084" height="196.875" rx="8.85417" transform="rotate(-90 1.56253 146.688)" fill="white" stroke="#1A1A2C" stroke-width="1.04167"/>
<rect x="6.77083" y="141.479" width="82.2917" height="186.458" rx="3.64583" transform="rotate(-90 6.77083 141.479)" stroke="black" stroke-width="1.04167"/>
<path fill-rule="evenodd" clip-rule="evenodd" d="M112.166 85.5351C117.633 74.5664 128.97 67 142.02 67C160.381 67 175.356 81.9723 175.356 100.332C175.356 118.693 160.382 133.667 142.021 133.667C129.053 133.667 117.776 126.195 112.27 115.336C107.508 122.325 99.4863 126.928 90.4245 126.928C79.4177 126.928 69.947 120.137 65.9861 110.531C62.1449 117.145 54.9802 121.61 46.8071 121.61C34.5988 121.61 24.6429 111.655 24.6429 99.4465C24.6429 87.239 34.5988 77.2832 46.8071 77.2832C55.3656 77.2832 62.8177 82.1772 66.5057 89.3111C70.7323 80.3328 79.8711 74.093 90.4227 74.093C99.4201 74.093 107.391 78.6316 112.166 85.5351ZM26.7703 99.0928C26.7703 110.128 35.7704 119.128 46.8062 119.128C57.8411 119.128 66.8421 110.128 66.8412 99.0928C66.8412 88.057 57.8411 79.056 46.8062 79.056C35.7704 79.056 26.7703 88.057 26.7703 99.0928ZM66.931 108.715C70.3487 117.886 79.201 124.447 89.5377 124.447C102.819 124.447 113.65 113.615 113.65 100.333C113.65 87.0513 102.818 76.2195 89.5368 76.2195C79.5537 76.2195 70.9545 82.3396 67.3001 91.0204C68.3746 93.6211 68.9695 96.4658 68.9695 99.4465C68.9695 102.752 68.2377 105.893 66.931 108.715ZM113.461 113.417C118.346 123.497 128.684 130.475 140.602 130.475C157.204 130.475 170.744 116.935 170.744 100.333C170.744 83.7324 157.205 70.1911 140.602 70.1911C128.61 70.1911 118.217 77.2569 113.369 87.4394C115.578 91.2979 116.843 95.7612 116.843 100.511C116.843 105.194 115.611 109.595 113.461 113.417Z" fill="black" stroke="black" stroke-width="0.000973438"/>
<path d="M41.6576 108.559H38.0271V94.5651L33.6931 95.9093V92.9571L41.2682 90.2437H41.6576V108.559Z" fill="black"/>
<path d="M57.9231 100.997C57.9231 103.526 57.3997 105.461 56.3528 106.801C55.306 108.141 53.7734 108.811 51.755 108.811C49.7618 108.811 48.2376 108.153 47.1824 106.838C46.1272 105.524 45.587 103.639 45.5619 101.185V97.8187C45.5619 95.2644 46.0895 93.3256 47.1447 92.0024C48.2083 90.6792 49.7367 90.0176 51.7299 90.0176C53.7231 90.0176 55.2474 90.675 56.3026 91.9899C57.3578 93.2963 57.898 95.1765 57.9231 97.6303V100.997ZM54.2926 97.3037C54.2926 95.7878 54.0833 94.6866 53.6645 93.9998C53.2541 93.3047 52.6093 92.9571 51.7299 92.9571C50.8757 92.9571 50.2434 93.288 49.833 93.9496C49.431 94.6028 49.2175 95.6287 49.1923 97.0273V101.474C49.1923 102.965 49.3933 104.075 49.7953 104.803C50.2057 105.524 50.8589 105.884 51.755 105.884C52.6428 105.884 53.2835 105.536 53.6771 104.841C54.0707 104.146 54.2759 103.082 54.2926 101.65V97.3037Z" fill="black"/>
<path d="M88.8659 109.874H74.5258V107.029L81.2935 99.8163C82.2227 98.8009 82.9076 97.9148 83.3482 97.158C83.7985 96.4013 84.0236 95.6828 84.0236 95.0027C84.0236 94.0735 83.7889 93.3455 83.3195 92.8186C82.8501 92.2822 82.1796 92.014 81.3079 92.014C80.3691 92.014 79.6267 92.3397 79.0807 92.991C78.5443 93.6329 78.276 94.4806 78.276 95.5343H74.1091C74.1091 94.2603 74.4108 93.0964 75.0143 92.0427C75.6274 90.989 76.4895 90.1652 77.6007 89.5713C78.7119 88.9678 79.9716 88.666 81.3797 88.666C83.535 88.666 85.2066 89.1833 86.3944 90.2179C87.5919 91.2524 88.1906 92.7132 88.1906 94.6004C88.1906 95.6349 87.9223 96.6886 87.3859 97.7615C86.8495 98.8344 85.9299 100.084 84.6271 101.512L79.871 106.527H88.8659V109.874Z" fill="black"/>
<path d="M92.0414 99.5864L93.2484 88.9534H104.973V92.4163H96.6538L96.1365 96.9137C97.1232 96.3869 98.1721 96.1235 99.2833 96.1235C101.276 96.1235 102.837 96.7413 103.968 97.977C105.098 99.2128 105.663 100.942 105.663 103.164C105.663 104.515 105.376 105.727 104.801 106.8C104.236 107.863 103.422 108.691 102.358 109.285C101.295 109.87 100.04 110.162 98.5936 110.162C97.3292 110.162 96.1557 109.908 95.0732 109.4C93.9908 108.883 93.1334 108.16 92.5012 107.231C91.8786 106.301 91.5481 105.243 91.5098 104.055H95.6193C95.7055 104.927 96.0072 105.607 96.5245 106.095C97.0514 106.574 97.7363 106.814 98.5792 106.814C99.518 106.814 100.241 106.479 100.749 105.808C101.257 105.128 101.51 104.17 101.51 102.934C101.51 101.746 101.218 100.836 100.634 100.204C100.05 99.572 99.2211 99.2559 98.1482 99.2559C97.1615 99.2559 96.3617 99.5145 95.7486 100.032L95.3463 100.405L92.0414 99.5864Z" fill="black"/>
<path d="M123.524 99.6271L125.012 86.5222H139.462V90.7901H129.209L128.571 96.3332C129.787 95.6838 131.08 95.3592 132.449 95.3592C134.905 95.3592 136.83 96.1207 138.223 97.6437C139.616 99.1667 140.312 101.298 140.312 104.037C140.312 105.701 139.958 107.195 139.25 108.517C138.553 109.828 137.55 110.849 136.239 111.581C134.929 112.301 133.382 112.661 131.599 112.661C130.041 112.661 128.595 112.348 127.261 111.723C125.927 111.085 124.87 110.194 124.091 109.049C123.323 107.903 122.916 106.599 122.869 105.135H127.934C128.04 106.209 128.412 107.047 129.049 107.649C129.699 108.24 130.543 108.535 131.582 108.535C132.739 108.535 133.63 108.122 134.256 107.295C134.882 106.457 135.194 105.276 135.194 103.753C135.194 102.289 134.834 101.168 134.114 100.389C133.394 99.6094 132.373 99.2198 131.05 99.2198C129.834 99.2198 128.849 99.5386 128.093 100.176L127.597 100.637L123.524 99.6271Z" fill="black"/>
<path d="M160.944 101.646C160.944 105.211 160.206 107.939 158.73 109.828C157.254 111.717 155.094 112.661 152.249 112.661C149.439 112.661 147.29 111.734 145.802 109.881C144.315 108.027 143.553 105.371 143.518 101.912V97.1655C143.518 93.5646 144.262 90.8314 145.749 88.9661C147.249 87.1007 149.403 86.168 152.213 86.168C155.023 86.168 157.172 87.0948 158.659 88.9483C160.147 90.7901 160.909 93.4406 160.944 96.8999V101.646ZM155.826 96.4394C155.826 94.3025 155.531 92.75 154.94 91.7819C154.362 90.8019 153.453 90.312 152.213 90.312C151.009 90.312 150.118 90.7783 149.539 91.711C148.972 92.6319 148.671 94.0782 148.636 96.0498V102.319C148.636 104.42 148.919 105.985 149.486 107.012C150.064 108.027 150.985 108.535 152.249 108.535C153.5 108.535 154.403 108.045 154.958 107.065C155.513 106.085 155.802 104.586 155.826 102.567V96.4394Z" fill="black"/>
</svg>
