<svg width="200" height="201" viewBox="0 0 200 201" fill="none" xmlns="http://www.w3.org/2000/svg">
<rect x="198.438" y="72.7292" width="55.2083" height="196.875" rx="8.85417" transform="rotate(90 198.438 72.7292)" fill="white" stroke="#13141A" stroke-width="1.04167"/>
<rect x="193.75" y="77.417" width="45.8333" height="187.5" rx="4.16667" transform="rotate(90 193.75 77.417)" fill="#1071AF"/>
<path d="M38.9721 97.3438V93.5389H39.2823L42.4584 97.3438H44.7847L40.8703 92.6556L44.4931 88.4307H42.3778L39.2823 92.1121H38.9721V88.4307H37.0987V97.3438H38.9721Z" fill="white"/>
<path d="M49.6389 97.4982C52.3001 97.4982 53.9564 95.7255 53.9564 92.8903V92.878C53.9564 90.049 52.2939 88.2763 49.6389 88.2763C46.99 88.2763 45.3213 90.0428 45.3213 92.878V92.8903C45.3213 95.7255 46.9838 97.4982 49.6389 97.4982ZM49.6389 95.9169C48.1687 95.9169 47.232 94.7557 47.232 92.8903V92.878C47.232 91.0126 48.1749 89.8575 49.6389 89.8575C51.1091 89.8575 52.0458 91.0188 52.0458 92.878V92.8903C52.0458 94.7372 51.1277 95.9169 49.6389 95.9169Z" fill="white"/>
<path d="M55.5415 97.3438H57.4149V93.5883H61.4471V97.3438H63.3205V88.4307H61.4471V92.0503H57.4149V88.4307H55.5415V97.3438Z" fill="white"/>
<path d="M67.3311 97.3438H69.2045V89.9687H71.7913V88.4307H64.7381V89.9687H67.3311V97.3438Z" fill="white"/>
<path d="M73.2151 97.3438H75.0885V94.5334H76.8068C78.6989 94.5334 79.9519 93.3227 79.9519 91.4882V91.4759C79.9519 89.6414 78.6989 88.4307 76.8068 88.4307H73.2151V97.3438ZM76.354 89.907C77.4272 89.907 78.0537 90.469 78.0537 91.482V91.4944C78.0537 92.5074 77.4272 93.0756 76.354 93.0756H75.0885V89.907H76.354Z" fill="white"/>
<path d="M85.4699 97.4982C88.1312 97.4982 89.7875 95.7255 89.7875 92.8903V92.878C89.7875 90.049 88.125 88.2763 85.4699 88.2763C82.8211 88.2763 81.1524 90.0428 81.1524 92.878V92.8903C81.1524 95.7255 82.8149 97.4982 85.4699 97.4982ZM85.4699 95.9169C83.9997 95.9169 83.063 94.7557 83.063 92.8903V92.878C83.063 91.0126 84.0059 89.8575 85.4699 89.8575C86.9401 89.8575 87.8768 91.0188 87.8768 92.878V92.8903C87.8768 94.7372 86.9587 95.9169 85.4699 95.9169Z" fill="white"/>
<path d="M91.0996 97.4241C92.8861 97.4241 93.6243 96.1331 93.7484 93.823L93.9655 89.9687H96.6206V97.3438H98.494V88.4307H92.2906L92.0239 93.6995C91.9556 95.0398 91.6703 95.7564 90.839 95.7564C90.6777 95.7564 90.5102 95.7316 90.4234 95.7131V97.3438C90.5475 97.3808 90.7956 97.4241 91.0996 97.4241Z" fill="white"/>
<path d="M100.389 97.3438H104.093C105.935 97.3438 107.194 96.1578 107.194 94.3851V94.3728C107.194 92.6124 105.885 91.4203 104 91.4203H102.263V88.4307H100.389V97.3438ZM103.59 92.8903C104.657 92.8903 105.284 93.4154 105.284 94.3728V94.3851C105.284 95.3363 104.663 95.8552 103.596 95.8552H102.263V92.8903H103.59Z" fill="white"/>
<path d="M112.719 97.4982C115.38 97.4982 117.036 95.7255 117.036 92.8903V92.878C117.036 90.049 115.374 88.2763 112.719 88.2763C110.07 88.2763 108.401 90.0428 108.401 92.878V92.8903C108.401 95.7255 110.063 97.4982 112.719 97.4982ZM112.719 95.9169C111.248 95.9169 110.312 94.7557 110.312 92.8903V92.878C110.312 91.0126 111.255 89.8575 112.719 89.8575C114.189 89.8575 115.125 91.0188 115.125 92.878V92.8903C115.125 94.7372 114.207 95.9169 112.719 95.9169Z" fill="white"/>
<path d="M118.621 97.3438H122.585C124.496 97.3438 125.681 96.3679 125.681 94.8051V94.7928C125.681 93.6254 124.775 92.7483 123.534 92.6556V92.6186C124.514 92.4888 125.265 91.655 125.265 90.6791V90.6667C125.265 89.2955 124.204 88.4307 122.517 88.4307H118.621V97.3438ZM122.033 89.8143C122.908 89.8143 123.423 90.222 123.423 90.9323V90.9447C123.423 91.7168 122.852 92.1553 121.803 92.1553H120.495V89.8143H122.033ZM122.021 93.4215C123.168 93.4215 123.764 93.8601 123.764 94.6754V94.6878C123.764 95.5155 123.174 95.954 122.101 95.954H120.495V93.4215H122.021Z" fill="white"/>
<path d="M126.391 97.3438H128.364L129.034 95.1819H132.203L132.873 97.3438H134.846L131.72 88.4307H129.517L126.391 97.3438ZM130.603 90.1602H130.64L131.763 93.786H129.468L130.603 90.1602Z" fill="white"/>
<path d="M136.146 97.3438H138.019V93.5883H142.051V97.3438H143.925V88.4307H142.051V92.0503H138.019V88.4307H136.146V97.3438Z" fill="white"/>
<path d="M145.808 97.3438H147.433L151.509 91.4635H151.527V97.3438H153.394V88.4307H151.757L147.693 94.2801H147.675V88.4307H145.808V97.3438Z" fill="white"/>
<path d="M159.161 87.7574C160.569 87.7574 161.456 87.0162 161.456 85.8179V85.75H160.103V85.8056C160.103 86.2936 159.744 86.7074 159.161 86.7074C158.565 86.7074 158.218 86.2936 158.218 85.8056V85.75H156.865V85.8179C156.865 87.0162 157.752 87.7574 159.161 87.7574ZM155.296 97.3438H156.921L160.997 91.4635H161.015V97.3438H162.883V88.4307H161.245L157.182 94.2801H157.163V88.4307H155.296V97.3438Z" fill="white"/>
<path d="M28.5813 113.156V104.243H20.8333V113.156H22.7067V105.781H26.7079V113.156H28.5813Z" fill="white"/>
<path d="M30.4703 113.156H32.3437V110.346H34.062C35.9541 110.346 37.2072 109.135 37.2072 107.301V107.288C37.2072 105.454 35.9541 104.243 34.062 104.243H30.4703V113.156ZM33.6092 105.719C34.6824 105.719 35.3089 106.282 35.3089 107.295V107.307C35.3089 108.32 34.6824 108.888 33.6092 108.888H32.3437V105.719H33.6092Z" fill="white"/>
<path d="M38.7053 113.156H40.3306L44.4063 107.276H44.4249V113.156H46.2921V104.243H44.6544L40.5912 110.093H40.5726V104.243H38.7053V113.156Z" fill="white"/>
<path d="M50.0669 113.156V109.351H50.3771L53.5532 113.156H55.8795L51.9652 108.468L55.5879 104.243H53.4726L50.3771 107.925H50.0669V104.243H48.1935V113.156H50.0669Z" fill="white"/>
<path d="M60.7337 113.311C63.395 113.311 65.0513 111.538 65.0513 108.703V108.69C65.0513 105.862 63.3888 104.089 60.7337 104.089C58.0849 104.089 56.4162 105.855 56.4162 108.69V108.703C56.4162 111.538 58.0787 113.311 60.7337 113.311ZM60.7337 111.729C59.2635 111.729 58.3268 110.568 58.3268 108.703V108.69C58.3268 106.825 59.2697 105.67 60.7337 105.67C62.2039 105.67 63.1406 106.831 63.1406 108.69V108.703C63.1406 110.55 62.2225 111.729 60.7337 111.729Z" fill="white"/>
<path d="M66.6363 113.156H68.5097V110.346H70.2281C72.1201 110.346 73.3732 109.135 73.3732 107.301V107.288C73.3732 105.454 72.1201 104.243 70.2281 104.243H66.6363V113.156ZM69.7752 105.719C70.8484 105.719 71.4749 106.282 71.4749 107.295V107.307C71.4749 108.32 70.8484 108.888 69.7752 108.888H68.5097V105.719H69.7752Z" fill="white"/>
<path d="M75.4483 114.917V113.156H81.3353V114.917H83.0288V111.618H81.9122V104.243H75.5662L75.256 109.283C75.1815 110.488 75.0016 111.186 74.3751 111.618H73.7486V114.917H75.4483ZM76.9805 109.419L77.2162 105.781H80.0388V111.618H76.385V111.569C76.782 111.106 76.9123 110.42 76.9805 109.419Z" fill="white"/>
<path d="M88.3917 113.311C91.053 113.311 92.7093 111.538 92.7093 108.703V108.69C92.7093 105.862 91.0468 104.089 88.3917 104.089C85.7429 104.089 84.0742 105.855 84.0742 108.69V108.703C84.0742 111.538 85.7367 113.311 88.3917 113.311ZM88.3917 111.729C86.9215 111.729 85.9848 110.568 85.9848 108.703V108.69C85.9848 106.825 86.9277 105.67 88.3917 105.67C89.8619 105.67 90.7986 106.831 90.7986 108.69V108.703C90.7986 110.55 89.8805 111.729 88.3917 111.729Z" fill="white"/>
<path d="M94.2943 113.156H96.1677V109.401H100.2V113.156H102.073V104.243H100.2V107.863H96.1677V104.243H94.2943V113.156Z" fill="white"/>
<path d="M103.944 113.156H105.817V109.401H109.849V113.156H111.723V104.243H109.849V107.863H105.817V104.243H103.944V113.156Z" fill="white"/>
<path d="M113.606 113.156H115.231L119.307 107.276H119.325V113.156H121.192V104.243H119.555L115.491 110.093H115.473V104.243H113.606V113.156Z" fill="white"/>
<path d="M126.958 103.57C128.367 103.57 129.254 102.829 129.254 101.63V101.563H127.901V101.618C127.901 102.106 127.542 102.52 126.958 102.52C126.363 102.52 126.016 102.106 126.016 101.618V101.563H124.663V101.63C124.663 102.829 125.55 103.57 126.958 103.57ZM123.094 113.156H124.719L128.795 107.276H128.813V113.156H130.68V104.243H129.043L124.98 110.093H124.961V104.243H123.094V113.156Z" fill="white"/>
<path d="M135.37 113.156H137.244V110.346H138.962C140.854 110.346 142.107 109.135 142.107 107.301V107.288C142.107 105.454 140.854 104.243 138.962 104.243H135.37V113.156ZM138.509 105.719C139.582 105.719 140.209 106.282 140.209 107.295V107.307C140.209 108.32 139.582 108.888 138.509 108.888H137.244V105.719H138.509Z" fill="white"/>
<path d="M142.21 113.156H144.182L144.852 110.994H148.022L148.692 113.156H150.665L147.538 104.243H145.336L142.21 113.156ZM146.422 105.973H146.459L147.582 109.598H145.287L146.422 105.973Z" fill="white"/>
<path d="M155.842 103.57C157.25 103.57 158.137 102.829 158.137 101.63V101.563H156.785V101.618C156.785 102.106 156.425 102.52 155.842 102.52C155.246 102.52 154.899 102.106 154.899 101.618V101.563H153.546V101.63C153.546 102.829 154.434 103.57 155.842 103.57ZM151.977 113.156H153.602L157.678 107.276H157.697V113.156H159.564V104.243H157.926L153.863 110.093H153.844V104.243H151.977V113.156Z" fill="white"/>
<path d="M165.485 113.311C168.146 113.311 169.802 111.538 169.802 108.703V108.69C169.802 105.862 168.14 104.089 165.485 104.089C162.836 104.089 161.167 105.855 161.167 108.69V108.703C161.167 111.538 162.83 113.311 165.485 113.311ZM165.485 111.729C164.015 111.729 163.078 110.568 163.078 108.703V108.69C163.078 106.825 164.021 105.67 165.485 105.67C166.955 105.67 167.892 106.831 167.892 108.69V108.703C167.892 110.55 166.974 111.729 165.485 111.729Z" fill="white"/>
<path d="M171.388 113.156H173.261V109.401H177.293V113.156H179.167V104.243H177.293V107.863H173.261V104.243H171.388V113.156Z" fill="white"/>
</svg>
