<svg width="200" height="200" viewBox="0 0 200 200" fill="none" xmlns="http://www.w3.org/2000/svg">
<path d="M25.6863 169.272H174.314C181.678 169.272 186.263 161.299 182.525 154.97L108.211 29.1575C104.527 22.9209 95.4727 22.9209 91.7889 29.1575L17.4753 154.97C13.7367 161.299 18.3214 169.272 25.6863 169.272Z" fill="#FF0E00" stroke="black" stroke-width="1.04167"/>
<path d="M174.314 166.668H25.6863C20.3188 166.668 17.0139 160.871 19.7175 156.294L94.0312 30.4819C96.707 25.9517 103.293 25.9517 105.969 30.4819L180.282 156.294C182.986 160.871 179.681 166.668 174.314 166.668Z" fill="#FF0E00" stroke="white" stroke-width="4.16667"/>
<path fill-rule="evenodd" clip-rule="evenodd" d="M164.062 154.168L99.9999 45.4309L35.9374 154.168H164.062Z" fill="white"/>
<path d="M52.1515 133.334L41.6666 151.042H158.333L147.992 133.334H52.1515Z" fill="black"/>
<path d="M132.92 145.833C133.192 144.63 133.333 143.397 133.333 142.14C133.333 129.222 118.409 118.75 100 118.75C81.5905 118.75 66.6666 129.222 66.6666 142.14C66.6666 143.397 66.8079 144.63 67.0798 145.833H132.92Z" fill="black"/>
</svg>
