<svg width="200" height="200" viewBox="0 0 200 200" fill="none" xmlns="http://www.w3.org/2000/svg">
<rect y="16.667" width="200" height="166.667" fill="#68696C"/>
<path d="M0 66.667L183.333 100L0 133.334V100V66.667Z" fill="#68696C"/>
<path d="M0 134.61L1.86745 134.286L193.75 100L1.86745 65.7145L0 65.3906V68.5623L1.33346 68.7935L175.984 100L1.33346 131.207L1.31777 131.21L0 131.438V134.61Z" fill="white"/>
<path fill-rule="evenodd" clip-rule="evenodd" d="M19.9598 71.2631L0.15342 67.7344L36.8982 99.9981L0.151611 132.263L19.958 128.735L52.6858 99.9981L19.9598 71.2631ZM78.7654 118.258L58.9589 121.786L83.7732 99.9981L58.9607 78.2115L78.7672 81.7403L99.5608 99.9981L78.7654 118.258ZM137.573 107.78L117.766 111.309L130.648 99.9981L117.768 88.6887L137.574 92.2174L146.436 99.9981L137.573 107.78Z" fill="white"/>
</svg>
