<svg width="200" height="201" viewBox="0 0 200 201" fill="none" xmlns="http://www.w3.org/2000/svg">
<circle cx="100" cy="100.667" r="82.8125" fill="white" stroke="#05081B" stroke-width="1.04167"/>
<circle cx="100" cy="100.668" r="71.875" stroke="#FF0E00" stroke-width="12.5"/>
<path fill-rule="evenodd" clip-rule="evenodd" d="M120.761 91.9344C122.093 91.9344 123.346 92.9531 123.738 94.0496C119.116 97.9672 116.138 103.842 116.137 110.424C116.137 113.166 116.686 115.829 117.626 118.259H89.8927C87.9339 118.259 86.7579 118.101 86.4451 116.691L78.9245 88.8791H77.592C76.8879 88.8791 76.3392 88.8014 75.7915 88.5664L72.7362 95.147C77.593 98.4363 80.7278 104.079 80.7278 110.424C80.7278 120.765 72.4225 128.913 62.2389 128.913C51.8971 128.913 43.75 120.765 43.75 110.424C43.75 100.239 51.8971 91.9344 62.2389 91.9344C63.9618 91.9344 65.5292 92.0908 67.0957 92.5599L72.3448 81.2779C72.8203 80.0773 73.3289 79.2291 74.0686 78.144H73.6772C70.7006 78.144 68.2708 75.7161 68.2708 72.7395C68.2708 69.7619 70.6997 67.334 73.6772 67.334C73.7099 67.334 73.7559 67.3474 73.8097 67.363C73.8856 67.3851 73.9771 67.4117 74.0686 67.4117C74.1468 67.4117 74.2053 67.3923 74.2638 67.3728C74.3224 67.3534 74.3809 67.334 74.4591 67.334H85.3496C87.0734 67.334 88.4049 68.6655 88.4049 70.3893V70.467C88.4049 72.1908 87.0734 73.5222 85.3496 73.5222H81.1969L81.9807 76.5775H97.6493C100.236 76.5775 102.272 78.6141 102.272 81.2002V84.2546C102.272 86.8407 100.236 88.8782 97.6493 88.8782H85.1136L88.3253 101.257C88.7167 102.588 89.9714 104.39 92.9471 104.39C96.0078 104.39 96.8272 102.747 97.5205 101.357C97.5373 101.323 97.554 101.29 97.5707 101.257L100.705 95.0674C101.411 93.5795 102.898 91.9344 104.545 91.9344H120.761ZM62.2389 121.236C68.1912 121.236 72.8926 116.378 72.8926 110.424C72.8926 107.133 71.5611 104.312 69.3663 102.353L67.2511 106.898C67.9571 107.916 68.3476 109.093 68.3476 110.502C68.3476 113.792 65.5283 116.613 62.238 116.613C58.7904 116.613 56.1274 113.793 56.1274 110.502C56.1274 107.29 58.4776 104.704 61.5329 104.391L63.6481 99.8483C63.1781 99.7678 62.708 99.7678 62.2389 99.7678C56.2847 99.7678 51.427 104.47 51.427 110.424C51.427 116.378 56.2847 121.236 62.2389 121.236ZM137.291 91.9336H137.76C147.946 91.9336 156.249 100.238 156.249 110.423C156.249 120.763 147.946 128.911 137.76 128.911C127.419 128.911 119.271 120.763 119.271 110.423C119.271 102.431 124.209 95.6939 131.338 93.03L130.632 88.956H106.894C106.032 88.956 105.248 87.8586 105.327 87.3886L106.894 82.7668C107.128 82.0608 107.678 81.2003 108.461 81.2003H139.25C139.798 81.2003 140.817 81.9045 140.817 82.7668V87.3886C140.817 88.251 140.111 88.956 139.25 88.956H136.82L137.291 91.9336ZM126.95 110.423C126.95 116.378 131.807 121.235 137.76 121.235C143.715 121.235 148.417 116.378 148.415 110.424C148.415 104.782 144.261 100.239 138.777 99.7679L139.796 104.782C142.068 105.643 143.792 107.915 143.792 110.501C143.792 113.869 141.051 116.612 137.682 116.612C134.315 116.612 131.571 113.87 131.571 110.501C131.571 108.699 132.356 107.055 133.609 105.957L132.669 100.943C129.301 102.745 126.95 106.27 126.95 110.423Z" fill="black"/>
</svg>
