<svg width="200" height="200" viewBox="0 0 200 200" fill="none" xmlns="http://www.w3.org/2000/svg">
<rect y="16.667" width="200" height="166.667" fill="#68696C"/>
<path fill-rule="evenodd" clip-rule="evenodd" d="M19.7912 89.1899L19.7912 58.333H15.6245L15.6245 89.1899H19.7912ZM19.7912 109.767L19.7912 138.541H45.1378V142.708H17.7078H15.6245L15.6245 140.624L15.6245 109.767H19.7912ZM90.8552 138.538H63.4252V142.704H90.8552V138.538ZM109.143 138.538H136.573V142.704H109.143V138.538ZM184.372 58.333V89.1899H180.206V58.333H184.372ZM180.207 109.767V138.541H154.86V142.708H182.29H184.373V140.624V109.767H180.207Z" fill="#FFE600"/>
<path d="M0 58.333H200" stroke="#939498" stroke-width="6.25"/>
<path d="M72.8002 93.06H65.793V110.416H61.0796V93.06H54.1666V89.583H72.8002V93.06Z" fill="#FFE600"/>
<path d="M94.8979 106.124H86.6337L85.0626 110.416H80.0507L88.5662 89.583H92.934L101.497 110.416H96.4847L94.8979 106.124ZM87.9063 102.647H93.6253L90.7501 94.8486L87.9063 102.647Z" fill="#FFE600"/>
<path d="M120.185 96.7659L124.474 89.583H129.894L123.233 99.9138L130.067 110.416H124.584L120.185 103.119L115.786 110.416H110.302L117.137 99.9138L110.475 89.583H115.896L120.185 96.7659Z" fill="#FFE600"/>
<path d="M145.833 110.416H141.12V89.583H145.833V110.416Z" fill="#FFE600"/>
</svg>
