<svg width="200" height="201" viewBox="0 0 200 201" fill="none" xmlns="http://www.w3.org/2000/svg">
<rect x="36.9792" y="12.3112" width="126.042" height="176.042" rx="8.85417" fill="white" stroke="#13141A" stroke-width="1.04167"/>
<rect x="41.6667" y="16.999" width="116.667" height="166.667" rx="4.16667" fill="#1071AF"/>
<rect x="50" y="33.666" width="100" height="100" rx="4.16667" fill="white"/>
<path d="M131.44 79.648C131.007 80.9414 130.778 82.3039 130.764 83.6787C130.749 85.1544 130.981 86.621 131.448 88.0082L133.181 93.1439C133.682 94.6278 132.652 96.1934 131.185 96.1792L128.874 96.1568C128.239 96.1507 127.641 95.8362 127.246 95.3011L121.962 88.1403L106.32 88.2359L126.507 121.841C127.417 123.355 126.396 125.349 124.721 125.332L122.344 125.308C120.558 125.289 118.863 124.457 117.679 123.018L88.9606 88.1018L61.0926 88.1346C58.8099 88.1615 56.8916 86.0574 56.9455 83.5808C56.9376 81.2171 58.7778 79.2415 61.0379 79.1243L88.8442 79.2045L117.617 44.2844C118.829 42.814 120.573 41.9806 122.399 41.9993L124.785 42.0239C126.445 42.0409 127.433 44.0219 126.529 45.5194L106.212 79.1925L121.983 79.2525L127.244 72.154C127.651 71.6047 128.272 71.29 128.925 71.3022L131.265 71.3458C132.706 71.3726 133.696 72.9169 133.207 74.3763L131.44 79.648Z" fill="black"/>
</svg>
