<svg width="200" height="201" viewBox="0 0 200 201" fill="none" xmlns="http://www.w3.org/2000/svg">
<path d="M25.6863 169.935H174.314C181.678 169.935 186.263 161.962 182.525 155.633L108.211 29.8206C104.527 23.5841 95.4727 23.5841 91.7889 29.8206L17.4753 155.633C13.7367 161.962 18.3214 169.935 25.6863 169.935Z" fill="#FF0E00" stroke="black" stroke-width="1.04167"/>
<path d="M174.314 167.331H25.6863C20.3188 167.331 17.0139 161.535 19.7175 156.957L94.0312 31.1451C96.707 26.6148 103.293 26.6148 105.969 31.1451L180.282 156.957C182.986 161.535 179.681 167.331 174.314 167.331Z" fill="#FF0E00" stroke="white" stroke-width="4.16667"/>
<path fill-rule="evenodd" clip-rule="evenodd" d="M164.062 154.834L99.9999 46.0969L35.9374 154.834H164.062Z" fill="#FFE600"/>
<path d="M41.6666 151.708H158.333L147.525 133.2H144.614C136.265 133.2 133.581 122.541 122.399 122.541C111.292 122.541 111.217 133.2 99.9616 133.2C88.9301 133.2 88.9301 122.541 77.7468 122.541C66.7143 122.541 63.5841 133.2 55.384 133.2H52.6246L41.6666 151.708Z" fill="black"/>
</svg>
