<svg width="200" height="200" viewBox="0 0 200 200" fill="none" xmlns="http://www.w3.org/2000/svg">
<rect y="16.667" width="200" height="166.667" fill="#68696C"/>
<rect x="18.75" y="116.667" width="16.6667" height="33.3333" fill="white"/>
<rect x="18.75" y="50" width="16.6667" height="33.3333" fill="white"/>
<rect x="55.2084" y="116.667" width="16.6667" height="33.3333" fill="white"/>
<rect x="55.2084" y="50" width="16.6667" height="33.3333" fill="white"/>
<rect x="91.6666" y="116.667" width="16.6667" height="33.3333" fill="white"/>
<rect x="91.6666" y="50" width="16.6667" height="33.3333" fill="white"/>
<rect x="128.125" y="116.667" width="16.6667" height="33.3333" fill="white"/>
<rect x="128.125" y="50" width="16.6667" height="33.3333" fill="white"/>
<rect x="164.583" y="116.667" width="16.6667" height="33.3333" fill="white"/>
<rect x="164.583" y="50" width="16.6667" height="33.3333" fill="white"/>
<rect x="18.75" y="116.667" width="16.6667" height="33.3333" fill="white"/>
<rect x="18.75" y="50" width="16.6667" height="33.3333" fill="white"/>
<rect x="55.2084" y="116.667" width="16.6667" height="33.3333" fill="white"/>
<rect x="55.2084" y="50" width="16.6667" height="33.3333" fill="white"/>
<rect x="91.6666" y="116.667" width="16.6667" height="33.3333" fill="white"/>
<rect x="91.6666" y="50" width="16.6667" height="33.3333" fill="white"/>
<rect x="128.125" y="116.667" width="16.6667" height="33.3333" fill="white"/>
<rect x="128.125" y="50" width="16.6667" height="33.3333" fill="white"/>
<rect x="164.583" y="116.667" width="16.6667" height="33.3333" fill="white"/>
<rect x="164.583" y="50" width="16.6667" height="33.3333" fill="white"/>
<path d="M18.75 83.333H181.25" stroke="#FF0E00" stroke-width="3.125"/>
<path d="M18.75 116.667H181.25" stroke="#FF0E00" stroke-width="3.125"/>
</svg>
