<svg width="200" height="201" viewBox="0 0 200 201" fill="none" xmlns="http://www.w3.org/2000/svg">
<rect x="1.56254" y="146.687" width="92.7084" height="196.875" rx="8.85417" transform="rotate(-90 1.56254 146.687)" fill="white" stroke="#13141A" stroke-width="1.04167"/>
<rect x="6.77083" y="141.479" width="82.2917" height="186.458" rx="3.64583" transform="rotate(-90 6.77083 141.479)" stroke="black" stroke-width="1.04167"/>
<path fill-rule="evenodd" clip-rule="evenodd" d="M27.4347 120.23C27.4347 113.895 32.452 108.877 38.7876 108.877C45.1223 108.877 50.1399 113.895 50.1399 120.23C50.1399 126.565 45.1223 131.583 38.7876 131.583C32.452 131.583 27.4347 126.565 27.4347 120.23ZM32.2882 120.23C32.2882 123.849 35.1676 126.73 38.7876 126.73C42.4073 126.73 45.2864 123.849 45.2864 120.23C45.2864 116.61 42.4073 113.731 38.7876 113.731C35.1676 113.731 32.2882 116.61 32.2882 120.23Z" fill="#1F1A17"/>
<path fill-rule="evenodd" clip-rule="evenodd" d="M135.617 97.0249L118.094 76.541C118.015 76.4627 117.924 76.3696 117.822 76.2651C116.852 75.2713 114.877 73.25 113.24 73.25H72.8449C69.6368 73.25 67.415 75.0608 66.3454 76.541L55.2383 91.9258C54.2516 93.2408 52.1943 94.1465 50.55 94.3117L20.9331 99.165C19.7806 99.3289 17.3128 101.057 17.7237 104.019L19.2868 113.726C19.5335 115.536 21.6727 117.016 22.5781 117.016H26.2791C27.678 111.341 32.7789 107.227 38.8667 107.227C46.1071 107.227 51.7008 112.986 51.7008 120.226H100.405C100.405 112.986 106.164 107.227 113.404 107.227C119.575 107.227 124.594 111.341 125.909 117.016H129.447C130.68 117.016 132.573 114.466 132.737 113.726L136.028 103.278C136.769 101.715 136.604 98.0122 135.617 97.0249ZM108.962 95.9563H66.2625C62.8073 95.9563 62.1497 91.7603 63.6305 89.4567L68.4014 82.2171C69.8825 79.9145 72.2688 78.105 74.9834 78.105H107.48C107.749 78.105 107.997 78.1002 108.228 78.0957C110.337 78.0546 111.032 78.0411 112.663 81.971L114.884 87.4008C116.612 91.4317 115.461 95.9563 108.962 95.9563Z" fill="#1F1A17"/>
<path fill-rule="evenodd" clip-rule="evenodd" d="M101.973 120.23C101.973 113.895 106.99 108.877 113.327 108.877C119.661 108.877 124.68 113.895 124.68 120.23C124.68 126.565 119.661 131.583 113.327 131.583C106.99 131.583 101.973 126.565 101.973 120.23ZM106.827 120.23C106.827 123.849 109.706 126.73 113.327 126.73C116.945 126.73 119.826 123.849 119.826 120.23C119.826 116.61 116.945 113.731 113.327 113.731C109.706 113.731 106.827 116.61 106.827 120.23Z" fill="#1F1A17"/>
<path fill-rule="evenodd" clip-rule="evenodd" d="M177.604 89.9173C178.467 89.9173 179.167 90.6169 179.167 91.4798C179.167 92.3428 178.467 93.0423 177.604 93.0423L168.75 93.0423L168.75 99.2923L177.604 99.2923C178.467 99.2923 179.167 99.9919 179.167 100.855C179.167 101.718 178.467 102.417 177.604 102.417L168.75 102.417L168.75 104.5C168.75 105.651 167.817 106.583 166.667 106.583L162.76 106.583C162.077 106.583 161.403 106.415 160.8 106.093L151.103 100.922C150.424 100.559 150 99.8527 150 99.0833L150 93.25C150 92.4806 150.424 91.7738 151.103 91.4118L160.8 86.2402C161.403 85.9184 162.077 85.75 162.76 85.75L166.667 85.75C167.817 85.75 168.75 86.6827 168.75 87.8333L168.75 89.9173L177.604 89.9173Z" fill="black"/>
<path d="M154.167 96.1665H145.833C144.683 96.1665 143.75 97.0992 143.75 98.2498V110.75C143.75 111.9 142.817 112.833 141.667 112.833H131.25" stroke="black" stroke-width="3.125"/>
</svg>
