<svg width="200" height="201" viewBox="0 0 200 201" fill="none" xmlns="http://www.w3.org/2000/svg">
<rect x="1.56254" y="146.688" width="92.7084" height="196.875" rx="8.85417" transform="rotate(-90 1.56254 146.688)" fill="white" stroke="#13141A" stroke-width="1.04167"/>
<rect x="6.77083" y="141.479" width="82.2917" height="186.458" rx="3.64583" transform="rotate(-90 6.77083 141.479)" stroke="black" stroke-width="1.04167"/>
<path fill-rule="evenodd" clip-rule="evenodd" d="M89.5859 72.2915C89.5859 75.2133 87.2672 77.5819 84.4069 77.5819C81.5466 77.5819 79.2279 75.2133 79.2279 72.2915C79.2279 69.3696 81.5466 67.001 84.4069 67.001C87.2672 67.001 89.5859 69.3696 89.5859 72.2915ZM80.1301 85.202C77.7957 82.9111 75.4605 80.6203 73.1252 78.3297C71.1657 76.4306 67.125 79.8189 69.1608 81.8543C70.1934 82.8859 71.2598 84.0504 72.3531 85.2443L72.3531 85.2443C74.5946 87.6921 76.9491 90.2633 79.3576 92.0658C79.4034 92.1001 79.4565 92.1425 79.5146 92.189C79.7689 92.3924 80.1189 92.6724 80.3717 92.6763C80.523 92.6789 80.8202 92.5443 81.1533 92.3429C82.814 91.3351 84.1757 89.91 85.5272 88.4956C86.0996 87.8966 86.6701 87.2996 87.2608 86.7369C87.2969 86.7024 87.3286 86.6714 87.3567 86.6438L87.3568 86.6438C87.4672 86.5355 87.5237 86.4802 87.5782 86.482C87.6353 86.484 87.6902 86.5484 87.8025 86.6803C87.8219 86.703 87.8429 86.7277 87.866 86.7544L89.4294 88.5691L89.4406 88.5822C91.3943 90.8499 93.3476 93.1172 95.301 95.3853C95.3596 95.4532 95.4103 95.5084 95.4528 95.5547L95.4529 95.5547C95.5563 95.6673 95.611 95.7268 95.6113 95.7865C95.6115 95.8533 95.5436 95.9204 95.3996 96.0627C95.3698 96.0922 95.3367 96.1249 95.3003 96.1615C93.8092 97.6615 88.1587 103.373 87.585 104.349C86.9243 105.474 87.5114 106.992 87.5114 106.992C87.5114 106.992 91.7991 126.177 91.989 127.068C92.6742 130.292 99.2303 128.219 98.375 125.344C97.3431 120.259 96.3106 115.173 95.2784 110.089C95.2697 110.046 95.2613 110.005 95.2532 109.966L95.2351 109.879C95.0722 109.096 95.068 109.076 95.7315 108.433C97.3263 106.89 98.921 105.346 100.516 103.801L102.905 101.488C102.994 101.402 103.067 101.327 103.13 101.263C103.295 101.093 103.386 101 103.481 100.995C103.599 100.989 103.723 101.119 104 101.41L104.002 101.412C106.611 104.144 109.221 106.877 111.83 109.609C112.251 110.049 112.32 110.049 112.863 110.045L112.971 110.044C114.955 110.036 116.938 110.031 118.921 110.026H118.921H118.922H118.922H118.922C122.766 110.017 126.609 110.007 130.453 109.972C133.439 109.944 133.546 103.603 130.453 103.598C127.457 103.593 124.462 103.616 121.466 103.639H121.466H121.466H121.466H121.466C120.02 103.651 118.574 103.662 117.128 103.67L117.059 103.67C116.532 103.674 116.507 103.674 116.138 103.232C112.474 98.8406 108.81 94.4487 105.146 90.0569L98.3023 81.8538L102.192 81.7964C102.309 81.7945 102.414 81.7914 102.508 81.7886L102.508 81.7886L102.508 81.7886H102.508C103.206 81.7678 103.354 81.7633 103.912 82.4261C104.829 83.5134 105.745 84.6022 106.66 85.6911L106.661 85.6923C108.446 87.8154 110.232 89.9387 112.029 92.0516C113.659 93.9682 117.837 90.876 115.918 88.6773L105.817 77.1041C105.735 77.0099 105.664 76.925 105.6 76.8487L105.6 76.8485C105.202 76.3746 105.081 76.2301 104.321 76.2266L97.7801 76.1935L91.2551 76.1605C91.1719 76.1601 91.0957 76.159 91.0254 76.1581C90.3939 76.1494 90.2362 76.1473 89.7008 76.6696C86.7535 79.5437 83.8048 82.4189 80.8566 85.293C80.5257 85.6158 80.5132 85.6026 80.2892 85.3655C80.2456 85.3192 80.1938 85.2644 80.1301 85.202ZM138.749 90.5523H118.123V92.3519H138.749V90.5523ZM125.095 133.593V131.793V131.793H71.7562C71.4214 131.793 70.7294 131.648 70.4198 131.482C70.2718 131.402 69.9214 131.107 69.7868 130.986C69.096 130.365 68.7217 128.644 68.7217 128.644L66.6666 128.719C66.7064 128.817 66.7454 128.913 66.7837 129.008L66.7837 129.008C67.3952 130.516 67.8463 131.628 69.0694 132.815C69.2417 132.983 69.4367 133.14 69.6475 133.26C70.3833 133.683 71.5842 133.668 71.5842 133.668L125.095 133.593ZM87.0446 127.807L67.2542 85.9559L68.8029 85.0041L88.5933 126.855L87.0446 127.807ZM120.095 127.081L141.667 104.982C141.672 104.976 141.523 104.83 141.325 104.637C140.948 104.269 140.396 103.73 140.417 103.671L140.422 103.667C140.419 103.668 140.418 103.669 140.417 103.671L118.919 125.632C118.682 125.874 118.093 126.272 117.759 126.377C117.599 126.428 117.147 126.472 116.967 126.484C116.049 126.544 114.593 125.597 114.593 125.597L113.191 127.135C113.286 127.175 113.38 127.214 113.472 127.253C114.95 127.878 116.038 128.339 117.725 128.295C117.964 128.288 118.211 128.259 118.443 128.193C119.256 127.959 120.095 127.081 120.095 127.081Z" fill="#1F1A17"/>
</svg>
