<svg width="200" height="201" viewBox="0 0 200 201" fill="none" xmlns="http://www.w3.org/2000/svg">
<rect x="198.438" y="49.8132" width="101.042" height="196.875" rx="8.85417" transform="rotate(90 198.438 49.8132)" fill="white" stroke="#13141A" stroke-width="1.04167"/>
<rect x="193.229" y="55.0208" width="90.625" height="186.458" rx="3.64583" transform="rotate(90 193.229 55.0208)" stroke="black" stroke-width="1.04167"/>
<path fill-rule="evenodd" clip-rule="evenodd" d="M161.458 93.1928V83.667L187.5 100.334L161.458 117V107.479L135.417 107.479V93.1928H161.458Z" fill="black"/>
<path d="M18.75 109.644L26.7163 108.725C26.9701 110.655 27.6535 112.13 28.7664 113.151C29.8793 114.171 31.2266 114.681 32.8081 114.681C34.5068 114.681 35.9321 114.069 37.0841 112.844C38.2556 111.62 38.8414 109.968 38.8414 107.89C38.8414 105.923 38.2849 104.365 37.172 103.214C36.059 102.064 34.702 101.488 33.101 101.488C32.0466 101.488 30.7873 101.683 29.3229 102.073L30.2308 95.6991C32.4567 95.7547 34.1553 95.3001 35.3269 94.3352C36.4984 93.3518 37.0841 92.0529 37.0841 90.4385C37.0841 89.0654 36.6546 87.9706 35.7955 87.1542C34.9363 86.3377 33.7941 85.9295 32.3688 85.9295C30.963 85.9295 29.7622 86.3934 28.7664 87.3212C27.7706 88.249 27.1653 89.6035 26.9506 91.3849L19.365 90.1602C19.8922 87.6923 20.683 85.7254 21.7373 84.2595C22.8112 82.7751 24.2951 81.6153 26.1891 80.7803C28.1025 79.9268 30.2406 79.5 32.6031 79.5C36.6448 79.5 39.886 80.7247 42.3266 83.174C44.3377 85.178 45.3433 87.4418 45.3433 89.9654C45.3433 93.5466 43.2833 96.4042 39.1635 98.5381C41.6237 99.0391 43.586 100.162 45.0504 101.906C46.5343 103.65 47.2762 105.756 47.2762 108.224C47.2762 111.805 45.8997 114.858 43.1467 117.381C40.3936 119.905 36.967 121.167 32.8667 121.167C28.9812 121.167 25.7595 120.109 23.2017 117.994C20.6439 115.86 19.16 113.076 18.75 109.644Z" fill="black"/>
<path d="M64.9153 79.5C69.0741 79.5 72.3251 80.9102 74.6681 83.7307C77.4602 87.0707 78.8562 92.6096 78.8562 100.347C78.8562 108.066 77.4504 113.615 74.6388 116.992C72.3153 119.775 69.0741 121.167 64.9153 121.167C60.7369 121.167 57.3688 119.645 54.811 116.602C52.2532 113.54 50.9743 108.094 50.9743 100.264C50.9743 92.5817 52.3801 87.0521 55.1917 83.675C57.5152 80.8917 60.7564 79.5 64.9153 79.5ZM64.9153 85.9852C63.9195 85.9852 63.0311 86.2914 62.2501 86.9037C61.4691 87.4975 60.8638 88.5737 60.4342 90.1324C59.868 92.1549 59.5849 95.5599 59.5849 100.347C59.5849 105.135 59.8387 108.428 60.3464 110.228C60.854 112.009 61.4886 113.197 62.2501 113.791C63.0311 114.385 63.9195 114.681 64.9153 114.681C65.911 114.681 66.7994 114.385 67.5804 113.791C68.3615 113.178 68.9667 112.093 69.3963 110.534C69.9625 108.53 70.2456 105.135 70.2456 100.347C70.2456 95.5599 69.9918 92.2756 69.4841 90.4942C68.9765 88.6943 68.3322 87.4975 67.5512 86.9037C66.7897 86.2914 65.911 85.9852 64.9153 85.9852Z" fill="black"/>
<path d="M87.0392 90.9117H97.2313L104.963 111.508L112.754 90.9117H122.917V120.471H115.917V101.015L108.331 120.471H101.302L94.0683 101.015V120.471H87.0392V90.9117Z" fill="black"/>
</svg>
