<svg width="200" height="201" viewBox="0 0 200 201" fill="none" xmlns="http://www.w3.org/2000/svg">
<path d="M126.68 66.656L126.604 66.6202L126.519 66.6202L8.15979 66.6202C4.59415 66.6202 1.70363 69.5107 1.70363 73.0764L1.70363 127.764C1.70363 131.33 4.59414 134.22 8.15979 134.22L126.519 134.22L126.604 134.22L126.68 134.184L198.078 100.764L198.813 100.42L198.078 100.076L126.68 66.656Z" fill="white" stroke="#13141A" stroke-width="0.759549"/>
<path d="M127.718 71.3409L175 100.508L127.718 129.674L9.28821 129.674C7.61026 129.674 6.25 128.314 6.25 126.636L6.25 74.379C6.25 72.7011 7.61026 71.3408 9.28821 71.3408L127.718 71.3409Z" fill="#269E48"/>
<rect width="20.8333" height="45.8333" transform="matrix(-1 0 0 1 125 77.416)" fill="white"/>
<path d="M33.499 87.0956C32.4822 85.056 33.0736 82.9649 34.6688 82.1554C36.2641 81.3459 38.704 81.7207 39.7208 83.7602C40.7376 85.7998 39.8237 88.5133 38.2284 89.3229C36.6333 90.1323 34.5157 89.1351 33.499 87.0956Z" fill="white"/>
<path d="M29.0433 92.0426L22.798 92.0303L18.237 97.1254C17.9338 97.6664 17.2987 97.9264 16.7085 97.7509C15.9281 97.5189 15.5476 96.6367 15.9108 95.9015L20.4911 89.9864C20.7144 89.5343 21.1338 89.2106 21.6259 89.1106L30.7115 88.0932C31.7823 87.9376 32.7075 88.5701 33.2066 89.2129L34.4401 90.8878C34.9915 91.8554 35.0623 93.0282 34.6317 94.0619L30.328 102.367L36.2823 107.158C37.5041 108.141 38.1826 109.648 38.109 111.214L37.6051 121.95C37.5787 122.513 37.2468 123.018 36.7394 123.266C35.7518 123.748 34.5909 123.077 34.5198 121.982L33.8225 111.239C33.7967 110.841 33.5905 110.475 33.2623 110.247L26.1201 105.28C24.4929 104.148 23.9536 101.989 24.857 100.224L29.0433 92.0426Z" fill="white"/>
<path d="M35.854 95.8379L33.9241 99.5619L36.4155 103.277C37.0696 104.253 38.4488 104.402 39.2971 103.588L43.3704 99.6829C43.8348 99.2377 43.8786 98.5116 43.4713 98.014C43.0642 97.5166 42.3425 97.4141 41.8123 97.7782L38.3543 100.153L35.854 95.8379Z" fill="white"/>
<path d="M24.2047 105.932L28.1329 108.663L24.4728 113.396C23.4727 114.689 21.6168 114.934 20.316 113.944L13.1158 108.463C12.4386 107.948 12.3018 106.983 12.8091 106.3C13.2808 105.664 14.155 105.485 14.8391 105.883L21.5484 109.788L24.2047 105.932Z" fill="white"/>
<path d="M88.4408 100.333V98.25L95.8333 102.417L88.4408 106.583V104.5H54.1666V100.333H88.4408Z" fill="white"/>
<path d="M62.9617 123.076H60.9421V115.707C60.2043 116.375 59.3346 116.869 58.3333 117.189V115.415C58.8603 115.248 59.4329 114.932 60.0509 114.468C60.669 114 61.0931 113.455 61.323 112.833H62.9617V123.076Z" fill="white"/>
<path d="M66.0162 120.452L68.0285 120.251C68.086 120.691 68.2561 121.042 68.5388 121.301C68.8215 121.556 69.1473 121.684 69.5162 121.684C69.9379 121.684 70.2948 121.519 70.5871 121.19C70.8794 120.856 71.0255 120.355 71.0255 119.687C71.0255 119.061 70.8794 118.592 70.5871 118.281C70.2996 117.966 69.9235 117.808 69.4587 117.808C68.879 117.808 68.3591 118.056 67.8992 118.553L66.2605 118.323L67.2954 113.014H72.6354V114.844H68.8263L68.5101 116.577C68.9604 116.359 69.4204 116.25 69.89 116.25C70.7859 116.25 71.5454 116.565 72.1682 117.196C72.7911 117.827 73.1026 118.646 73.1026 119.652C73.1026 120.492 72.851 121.241 72.3479 121.9C71.6628 122.8 70.7117 123.25 69.4947 123.25C68.522 123.25 67.7291 122.997 67.1158 122.491C66.5025 121.986 66.1359 121.306 66.0162 120.452Z" fill="white"/>
<path d="M77.5944 112.833C78.615 112.833 79.4127 113.186 79.9877 113.891C80.6729 114.726 81.0154 116.11 81.0154 118.045C81.0154 119.975 80.6705 121.362 79.9805 122.206C79.4103 122.902 78.615 123.25 77.5944 123.25C76.5691 123.25 75.7426 122.869 75.1149 122.109C74.4872 121.343 74.1734 119.982 74.1734 118.024C74.1734 116.103 74.5184 114.721 75.2083 113.877C75.7785 113.181 76.5739 112.833 77.5944 112.833ZM77.5944 114.454C77.3501 114.454 77.1321 114.531 76.9404 114.684C76.7488 114.832 76.6002 115.101 76.4948 115.491C76.3559 115.997 76.2864 116.848 76.2864 118.045C76.2864 119.242 76.3487 120.065 76.4733 120.515C76.5978 120.96 76.7535 121.257 76.9404 121.406C77.1321 121.554 77.3501 121.628 77.5944 121.628C77.8388 121.628 78.0568 121.554 78.2484 121.406C78.4401 121.253 78.5886 120.981 78.694 120.592C78.833 120.091 78.9025 119.242 78.9025 118.045C78.9025 116.848 78.8402 116.027 78.7156 115.582C78.591 115.132 78.4329 114.832 78.2413 114.684C78.0544 114.531 77.8388 114.454 77.5944 114.454Z" fill="white"/>
<path d="M82.8625 115.686H85.3636L87.261 120.835L89.1727 115.686H91.6666V123.076H89.9489V118.212L88.0875 123.076H86.3626L84.5874 118.212V123.076H82.8625V115.686Z" fill="white"/>
</svg>
