<svg width="200" height="201" viewBox="0 0 200 201" fill="none" xmlns="http://www.w3.org/2000/svg">
<rect x="36.9792" y="12.6455" width="126.042" height="176.042" rx="8.85417" fill="white" stroke="#13141A" stroke-width="1.04167"/>
<rect x="41.6667" y="17.3336" width="116.667" height="166.667" rx="4.16667" fill="#1071AF"/>
<rect x="50" y="34" width="100" height="100" rx="4.16667" fill="white"/>
<path d="M112.41 51.3996C112.41 49.6959 113.792 48.3147 115.495 48.3147H140.175C141.879 48.3147 143.26 49.6959 143.26 51.3996V101.949C143.26 103.652 141.879 105.033 140.175 105.033H124.441V69.9094H137.088V54.4847H118.578V60.3459H112.41V51.3996Z" fill="#269E48"/>
<path fill-rule="evenodd" clip-rule="evenodd" d="M96.7712 60.0013C96.7712 58.2976 98.1524 56.9164 99.8562 56.9164H124.536C126.239 56.9164 127.621 58.2976 127.621 60.0013V110.55C127.621 112.254 126.239 113.635 124.536 113.635H108.802V78.5099H121.449V63.0852H102.939V68.9495H96.7712V60.0013Z" fill="#5CC1EC"/>
<path fill-rule="evenodd" clip-rule="evenodd" d="M81.3913 68.5963C81.3913 66.8925 82.7724 65.5114 84.4762 65.5114H109.156C110.859 65.5114 112.241 66.8925 112.241 68.5963V119.145C112.241 120.849 110.859 122.23 109.156 122.23H84.4762C82.7724 122.23 81.3913 120.849 81.3913 119.145V68.5963ZM87.5604 71.6802H106.07V87.1049H87.5604V71.6802ZM75.2204 71.6793C73.5166 71.6793 72.1355 73.0605 72.1355 74.7642V87.9711L56.3761 102.518C53.6397 105.044 52.0834 108.599 52.0834 112.323V112.555C52.0834 119.796 57.9534 125.666 65.1944 125.666H65.9656C72.7806 125.666 78.3053 120.141 78.3053 113.326V94.8163L81.3903 94.8163V91.7314H78.3053C76.6016 91.7314 75.2204 93.1126 75.2204 94.8163V113.326C75.2204 118.437 71.0769 122.581 65.9656 122.581H65.1944C59.6571 122.581 55.1683 118.092 55.1683 112.555V112.323C55.1683 109.46 56.3648 106.727 58.4685 104.785L74.7242 89.7799L75.2204 89.3218V88.6465V74.7642H81.3903V71.6793H75.2204Z" fill="black"/>
<path d="M70.0746 158.055C69.064 157.628 68.3272 157.044 67.8634 156.303C67.4092 155.551 67.1822 154.731 67.1822 153.841C67.1822 152.321 67.7098 151.065 68.7668 150.073C69.8327 149.081 71.3447 148.585 73.3005 148.585C75.2386 148.585 76.7397 149.081 77.8058 150.073C78.8818 151.065 79.4193 152.321 79.4193 153.841C79.4193 154.787 79.174 155.631 78.682 156.372C78.1904 157.105 77.4998 157.666 76.6099 158.055C77.7409 158.509 78.5986 159.172 79.1826 160.043C79.7761 160.914 80.0733 161.92 80.0733 163.061C80.0733 164.944 79.4706 166.473 78.2654 167.65C77.0698 168.828 75.4742 169.417 73.4808 169.417C71.6265 169.417 70.0829 168.93 68.8501 167.957C67.3945 166.807 66.6667 165.231 66.6667 163.228C66.6667 162.125 66.9403 161.114 67.4874 160.197C68.035 159.269 68.8974 158.555 70.0746 158.055ZM70.8809 154.119C70.8809 154.897 71.0992 155.505 71.5349 155.941C71.98 156.377 72.5683 156.594 73.3012 156.594C74.0424 156.594 74.6367 156.377 75.0811 155.941C75.5261 155.495 75.7485 154.884 75.7485 154.105C75.7485 153.373 75.5261 152.789 75.0811 152.353C74.645 151.908 74.0658 151.686 73.3428 151.686C72.5917 151.686 71.9943 151.908 71.5487 152.353C71.1038 152.798 70.8809 153.386 70.8809 154.119ZM70.5196 162.853C70.5196 163.928 70.7937 164.767 71.3403 165.369C71.8972 165.971 72.5873 166.273 73.4118 166.273C74.2181 166.273 74.8864 165.986 75.4145 165.411C75.9432 164.827 76.2076 163.988 76.2076 162.894C76.2076 161.938 75.9385 161.174 75.4013 160.599C74.8638 160.015 74.1823 159.722 73.3573 159.722C72.4017 159.722 71.6878 160.052 71.2157 160.711C70.7511 161.369 70.5196 162.083 70.5196 162.853ZM89.1821 148.584C91.157 148.584 92.7007 149.288 93.8133 150.698C95.1387 152.367 95.8017 155.134 95.8017 158.999C95.8017 162.856 95.1348 165.628 93.7993 167.316C92.696 168.706 91.157 169.402 89.1821 169.402C87.1982 169.402 85.5991 168.641 84.3845 167.121C83.1699 165.591 82.5626 162.87 82.5626 158.958C82.5626 155.12 83.2299 152.357 84.5654 150.669C85.6684 149.279 87.2076 148.584 89.1821 148.584ZM89.1821 151.825C88.7095 151.825 88.2877 151.977 87.9169 152.284C87.5458 152.581 87.2585 153.119 87.0547 153.897C86.7859 154.908 86.6512 156.609 86.6512 159C86.6512 161.393 86.7719 163.038 87.0129 163.937C87.2546 164.828 87.5559 165.421 87.9169 165.717C88.2877 166.014 88.7095 166.163 89.1821 166.163C89.6552 166.163 90.0769 166.014 90.4478 165.717C90.8189 165.411 91.1059 164.868 91.3099 164.089C91.5788 163.088 91.7132 161.392 91.7132 159C91.7132 156.608 91.5925 154.967 91.3517 154.076C91.1098 153.178 90.8046 152.58 90.4337 152.283C90.0725 151.977 89.6552 151.825 89.1821 151.825ZM105.036 148.584C107.01 148.584 108.554 149.288 109.667 150.698C110.992 152.367 111.655 155.134 111.655 158.999C111.655 162.857 110.988 165.628 109.653 167.316C108.549 168.706 107.01 169.402 105.036 169.402C103.052 169.402 101.452 168.641 100.238 167.121C99.0235 165.591 98.4162 162.87 98.4162 158.958C98.4162 155.12 99.0832 152.357 100.419 150.669C101.522 149.279 103.06 148.584 105.036 148.584ZM105.036 151.825C104.563 151.825 104.141 151.977 103.77 152.284C103.399 152.581 103.112 153.119 102.908 153.897C102.639 154.908 102.504 156.609 102.504 159C102.504 161.393 102.625 163.038 102.866 163.937C103.108 164.828 103.409 165.421 103.77 165.717C104.141 166.014 104.563 166.163 105.036 166.163C105.508 166.163 105.93 166.014 106.301 165.717C106.672 165.411 106.959 164.868 107.163 164.089C107.432 163.088 107.567 161.392 107.567 159C107.567 156.608 107.446 154.967 107.205 154.076C106.964 153.178 106.658 152.58 106.287 152.283C105.926 151.977 105.508 151.825 105.036 151.825ZM115.229 154.286H120.068L123.74 164.576L127.439 154.286H132.264V169.054H128.941V159.334L125.338 169.054H122.002L118.567 159.334V169.054H115.23L115.229 154.286Z" fill="white"/>
</svg>
