<svg width="200" height="201" viewBox="0 0 200 201" fill="none" xmlns="http://www.w3.org/2000/svg">
<rect x="1.56254" y="147.02" width="92.7084" height="196.875" rx="8.85417" transform="rotate(-90 1.56254 147.02)" fill="white" stroke="#13141A" stroke-width="1.04167"/>
<rect x="6.77083" y="141.811" width="82.2917" height="186.458" rx="3.64583" transform="rotate(-90 6.77083 141.811)" stroke="black" stroke-width="1.04167"/>
<path fill-rule="evenodd" clip-rule="evenodd" d="M44.5789 84H34.5789V95.6618L22.9166 95.6618V105.662H34.5789V117.333H44.5789V105.662H56.25V95.6618L44.5789 95.6618V84Z" fill="black"/>
<path fill-rule="evenodd" clip-rule="evenodd" d="M163.003 86.3511H91.3431C89.1854 86.3511 87.156 87.3761 85.8755 89.1128L77.5503 100.404C76.6893 101.572 76.2247 102.984 76.2247 104.435V120.317C76.2247 122.818 78.2523 124.845 80.7535 124.845H85.2822L89.1387 117.928C89.5587 117.298 90.2657 116.92 91.0228 116.92H163.323C164.08 116.92 164.787 117.298 165.207 117.928L169.064 124.845H173.593C176.094 124.845 178.121 122.818 178.121 120.317V104.435C178.121 102.984 177.657 101.572 176.796 100.404L168.471 89.1128C167.19 87.3761 165.161 86.3511 163.003 86.3511ZM172.961 102.676L165.212 91.828C164.787 91.233 164.101 90.8798 163.37 90.8798L162.271 90.8798C161.02 90.8798 160.006 91.8936 160.006 93.1442V102.202C160.006 103.452 161.02 104.466 162.271 104.466H172.04C172.96 104.466 173.496 103.425 172.961 102.676ZM90.9762 90.8798C90.245 90.8798 89.5587 91.233 89.1336 91.828L81.3853 102.676C80.85 103.425 81.3857 104.466 82.3066 104.466H92.0753C93.3259 104.466 94.3397 103.452 94.3397 102.202V93.1442C94.3397 91.8936 93.3259 90.8798 92.0753 90.8798L90.9762 90.8798ZM135.098 93.1442C135.098 91.8936 134.085 90.8798 132.834 90.8798H121.512C120.262 90.8798 119.248 91.8936 119.248 93.1442V102.202C119.248 103.452 120.262 104.466 121.512 104.466H132.834C134.085 104.466 135.098 103.452 135.098 102.202V93.1442ZM139.627 93.1442C139.627 91.8936 140.641 90.8798 141.891 90.8798H153.213C154.464 90.8798 155.478 91.8936 155.478 93.1442V102.202C155.478 103.452 154.464 104.466 153.213 104.466H141.891C140.641 104.466 139.627 103.452 139.627 102.202V93.1442ZM114.719 93.1442C114.719 91.8936 113.705 90.8798 112.455 90.8798H101.133C99.8822 90.8798 98.8684 91.8936 98.8684 93.1442V102.202C98.8684 103.452 99.8822 104.466 101.133 104.466H112.455C113.705 104.466 114.719 103.452 114.719 102.202V93.1442Z" fill="black"/>
<path d="M101.128 125.981C101.128 129.107 98.5938 131.642 95.4673 131.642C92.3409 131.642 89.8064 129.107 89.8064 125.981C89.8064 122.854 92.3409 120.32 95.4673 120.32C98.5938 120.32 101.128 122.854 101.128 125.981Z" fill="black"/>
<path d="M150.95 125.981C150.95 129.107 148.416 131.642 145.29 131.642C142.163 131.642 139.629 129.107 139.629 125.981C139.629 122.854 142.163 120.32 145.29 120.32C148.416 120.32 150.95 122.854 150.95 125.981Z" fill="black"/>
<path d="M109.059 131.642C112.185 131.642 114.72 129.107 114.72 125.981C114.72 122.854 112.185 120.32 109.059 120.32C105.932 120.32 103.398 122.854 103.398 125.981C103.398 129.107 105.932 131.642 109.059 131.642Z" fill="black"/>
<path d="M164.532 125.981C164.532 129.107 161.998 131.642 158.871 131.642C155.745 131.642 153.21 129.107 153.21 125.981C153.21 122.854 155.745 120.32 158.871 120.32C161.998 120.32 164.532 122.854 164.532 125.981Z" fill="black"/>
<path d="M116.98 120.32H137.359L135.765 123.507C135.354 124.329 134.514 124.849 133.595 124.849H120.743C119.824 124.849 118.984 124.329 118.573 123.507L116.98 120.32Z" fill="black"/>
<path fill-rule="evenodd" clip-rule="evenodd" d="M128.502 63.259V66.1902L141.536 77.2928L134.821 84.0924H119.525L112.809 77.2928L125.842 66.1914V63.259H128.502ZM116.713 77.4609L120.636 81.4328H133.709L137.632 77.4609L127.173 68.5517L116.713 77.4609Z" fill="black"/>
</svg>
