<svg width="200" height="200" viewBox="0 0 200 200" fill="none" xmlns="http://www.w3.org/2000/svg">
<rect x="1.56254" y="146.353" width="92.7084" height="196.875" rx="8.85417" transform="rotate(-90 1.56254 146.353)" fill="white" stroke="#13141A" stroke-width="1.04167"/>
<rect x="6.77083" y="141.146" width="82.2917" height="186.458" rx="3.64583" transform="rotate(-90 6.77083 141.146)" stroke="black" stroke-width="1.04167"/>
<path d="M16.6666 125.137H183.113V131.25H16.6666V125.137Z" fill="#1F1A17"/>
<path fill-rule="evenodd" clip-rule="evenodd" d="M32.4197 107.998C28.1578 107.998 24.7819 111.373 24.7819 115.635C24.7819 119.897 28.1578 123.273 32.4197 123.273C36.6816 123.273 40.0571 119.897 40.0571 115.635C40.0571 111.374 36.6816 107.998 32.4197 107.998ZM32.4197 120.008C29.9849 120.008 28.047 118.07 28.047 115.635C28.047 113.2 29.9849 111.263 32.4197 111.263C34.855 111.263 36.7919 113.2 36.7919 115.635C36.7919 118.07 34.855 120.008 32.4197 120.008Z" fill="#1F1A17"/>
<path fill-rule="evenodd" clip-rule="evenodd" d="M74.647 98.198L94.571 101.463C95.3466 101.573 97.0065 102.735 96.7299 104.728L95.6781 111.259C95.5121 112.476 94.073 113.472 93.4642 113.472H90.9742C90.0336 109.654 86.6021 106.886 82.5062 106.886C77.6354 106.886 73.8724 110.761 73.8724 115.631H41.1083C41.1083 110.761 37.2339 106.886 32.3636 106.886C28.2126 106.886 24.8362 109.654 23.9513 113.472H21.5709C20.7414 113.472 19.4679 111.756 19.3574 111.259L17.1435 104.23C16.6457 103.178 16.7566 100.687 17.4199 100.023L29.2088 86.2427C29.2616 86.1899 29.3231 86.127 29.3921 86.0564C30.0453 85.3878 31.373 84.0288 32.474 84.0288H59.6489C61.8073 84.0288 63.3017 85.2474 64.0211 86.2427L71.4931 96.5925C72.1571 97.4778 73.5406 98.0868 74.647 98.198ZM35.3524 99.3041H64.0764C66.4008 99.3041 66.8434 96.4814 65.8468 94.9319L62.6373 90.0617C61.6404 88.5128 60.0356 87.2953 58.2092 87.2953H36.3477C36.1674 87.2953 36.0005 87.2921 35.8451 87.2891C34.4272 87.2614 33.9586 87.2523 32.8616 89.8961L31.3672 93.5488C30.2054 96.2605 30.9796 99.3041 35.3524 99.3041Z" fill="#1F1A17"/>
<path fill-rule="evenodd" clip-rule="evenodd" d="M82.5605 107.998C78.2991 107.998 74.9236 111.373 74.9236 115.635C74.9236 119.897 78.2991 123.273 82.5605 123.273C86.8227 123.273 90.1979 119.897 90.1979 115.635C90.1979 111.374 86.8222 107.998 82.5605 107.998ZM82.5605 120.008C80.1257 120.008 78.1886 118.07 78.1886 115.635C78.1886 113.2 80.1257 111.263 82.5605 111.263C84.9958 111.263 86.9329 113.2 86.9329 115.635C86.9329 118.07 84.9958 120.008 82.5605 120.008Z" fill="#1F1A17"/>
<path fill-rule="evenodd" clip-rule="evenodd" d="M109.97 115.635C109.97 111.373 113.345 107.998 117.607 107.998C121.869 107.998 125.244 111.374 125.244 115.635C125.244 119.897 121.869 123.273 117.607 123.273C113.345 123.273 109.97 119.897 109.97 115.635ZM113.235 115.635C113.235 118.07 115.172 120.008 117.607 120.008C120.042 120.008 121.979 118.07 121.979 115.635C121.979 113.2 120.042 111.263 117.607 111.263C115.172 111.263 113.235 113.2 113.235 115.635Z" fill="#1F1A17"/>
<path fill-rule="evenodd" clip-rule="evenodd" d="M182.747 100.025L170.959 86.2448C170.906 86.1922 170.845 86.1295 170.776 86.0592C170.123 85.3907 168.794 84.0309 167.693 84.0309H140.519C138.36 84.0309 136.866 85.249 136.146 86.2448L128.674 96.5945C128.01 97.4792 126.626 98.0885 125.52 98.1996L105.596 101.465C104.821 101.575 103.161 102.737 103.437 104.73L104.489 111.26C104.655 112.478 106.094 113.474 106.703 113.474H109.193C110.134 109.655 113.565 106.888 117.661 106.888C122.531 106.888 126.294 110.762 126.294 115.633H159.059C159.059 110.762 162.933 106.888 167.803 106.888C171.955 106.888 175.331 109.656 176.216 113.474H178.596C179.426 113.474 180.699 111.758 180.81 111.26L183.024 104.232C183.522 103.18 183.411 100.689 182.747 100.025ZM164.815 99.306H136.09C133.766 99.306 133.324 96.4832 134.32 94.9335L137.529 90.0633C138.526 88.5142 140.131 87.297 141.957 87.297H163.819C163.999 87.297 164.166 87.2937 164.322 87.2907C165.74 87.2631 166.208 87.254 167.305 89.8977L168.799 93.5505C169.962 96.2621 169.187 99.306 164.815 99.306Z" fill="#1F1A17"/>
<path fill-rule="evenodd" clip-rule="evenodd" d="M160.114 115.635C160.114 111.373 163.489 107.998 167.752 107.998C172.013 107.998 175.389 111.374 175.389 115.635C175.389 119.897 172.013 123.273 167.752 123.273C163.489 123.273 160.114 119.897 160.114 115.635ZM163.379 115.635C163.379 118.07 165.316 120.008 167.752 120.008C170.186 120.008 172.124 118.07 172.124 115.635C172.124 113.2 170.186 111.263 167.752 111.263C165.316 111.263 163.379 113.2 163.379 115.635Z" fill="#1F1A17"/>
<path d="M99.2459 77.082H101.397V95.5906H99.2459V77.082Z" fill="#1F1A17"/>
<path d="M85.0829 81.5448L83.3334 82.8585L93.6003 97.9096L95.3497 96.5959L85.0829 81.5448Z" fill="#1F1A17"/>
<path d="M106.4 97.9154L104.65 96.6017L114.917 81.5504L116.667 82.8641L106.4 97.9154Z" fill="#1F1A17"/>
</svg>
