<svg width="200" height="200" viewBox="0 0 200 200" fill="none" xmlns="http://www.w3.org/2000/svg">
<rect x="36.9792" y="11.9792" width="126.042" height="176.042" rx="8.85417" fill="white" stroke="#13141A" stroke-width="1.04167"/>
<rect x="41.6667" y="16.6664" width="116.667" height="166.667" rx="4.16667" fill="#1071AF"/>
<rect x="50" y="33.3336" width="100" height="100" rx="4.16667" fill="white"/>
<path fill-rule="evenodd" clip-rule="evenodd" d="M99.9999 43.75C97.6987 43.75 95.8333 45.6155 95.8333 47.9167V116.667C95.8333 118.968 97.6987 120.833 99.9999 120.833H133.333C135.634 120.833 137.5 118.968 137.5 116.667V47.9167C137.5 45.6155 135.634 43.75 133.333 43.75H99.9999ZM129.167 52.0837H104.167V72.917H129.167V52.0837Z" fill="#269E48"/>
<path d="M70.0746 157.388C69.064 156.961 68.3272 156.377 67.8634 155.635C67.4092 154.884 67.1822 154.064 67.1822 153.174C67.1822 151.654 67.7098 150.398 68.7668 149.406C69.8327 148.414 71.3447 147.918 73.3005 147.918C75.2386 147.918 76.7397 148.414 77.8058 149.406C78.8818 150.397 79.4193 151.654 79.4193 153.174C79.4193 154.12 79.174 154.964 78.682 155.705C78.1904 156.437 77.4998 156.998 76.6099 157.388C77.7409 157.842 78.5986 158.505 79.1826 159.376C79.7761 160.247 80.0733 161.253 80.0733 162.394C80.0733 164.276 79.4706 165.806 78.2654 166.983C77.0698 168.161 75.4742 168.75 73.4808 168.75C71.6265 168.75 70.0829 168.263 68.8501 167.29C67.3945 166.14 66.6667 164.563 66.6667 162.561C66.6667 161.458 66.9403 160.447 67.4874 159.529C68.035 158.602 68.8974 157.887 70.0746 157.388ZM70.8809 153.452C70.8809 154.23 71.0992 154.837 71.5349 155.274C71.98 155.71 72.5683 155.927 73.3012 155.927C74.0424 155.927 74.6367 155.71 75.0811 155.274C75.5261 154.828 75.7485 154.217 75.7485 153.438C75.7485 152.706 75.5261 152.121 75.0811 151.686C74.645 151.241 74.0658 151.018 73.3428 151.018C72.5917 151.018 71.9943 151.241 71.5487 151.686C71.1038 152.131 70.8809 152.719 70.8809 153.452ZM70.5196 162.185C70.5196 163.261 70.7937 164.1 71.3403 164.701C71.8972 165.304 72.5873 165.606 73.4118 165.606C74.2181 165.606 74.8864 165.318 75.4145 164.743C75.9432 164.16 76.2076 163.321 76.2076 162.227C76.2076 161.271 75.9385 160.506 75.4013 159.932C74.8638 159.348 74.1823 159.055 73.3573 159.055C72.4017 159.055 71.6878 159.385 71.2157 160.044C70.7511 160.702 70.5196 161.416 70.5196 162.185ZM89.1821 147.916C91.157 147.916 92.7007 148.621 93.8133 150.03C95.1387 151.7 95.8017 154.467 95.8017 158.332C95.8017 162.189 95.1348 164.961 93.7993 166.649C92.696 168.039 91.157 168.734 89.1821 168.734C87.1982 168.734 85.5991 167.974 84.3845 166.453C83.1699 164.924 82.5626 162.203 82.5626 158.291C82.5626 154.453 83.2299 151.689 84.5654 150.002C85.6684 148.612 87.2076 147.916 89.1821 147.916ZM89.1821 151.158C88.7095 151.158 88.2877 151.31 87.9169 151.616C87.5458 151.914 87.2585 152.451 87.0547 153.23C86.7859 154.241 86.6512 155.942 86.6512 158.333C86.6512 160.726 86.7719 162.371 87.0129 163.27C87.2546 164.16 87.5559 164.753 87.9169 165.05C88.2877 165.347 88.7095 165.495 89.1821 165.495C89.6552 165.495 90.0769 165.347 90.4478 165.05C90.8189 164.743 91.1059 164.201 91.3099 163.422C91.5788 162.421 91.7132 160.724 91.7132 158.333C91.7132 155.941 91.5925 154.3 91.3517 153.409C91.1098 152.51 90.8046 151.912 90.4337 151.615C90.0725 151.31 89.6552 151.158 89.1821 151.158ZM105.036 147.916C107.01 147.916 108.554 148.621 109.667 150.03C110.992 151.7 111.655 154.467 111.655 158.332C111.655 162.189 110.988 164.961 109.653 166.649C108.549 168.039 107.01 168.734 105.036 168.734C103.052 168.734 101.452 167.974 100.238 166.453C99.0235 164.924 98.4162 162.203 98.4162 158.291C98.4162 154.453 99.0832 151.689 100.419 150.002C101.522 148.612 103.06 147.916 105.036 147.916ZM105.036 151.158C104.563 151.158 104.141 151.31 103.77 151.616C103.399 151.914 103.112 152.451 102.908 153.23C102.639 154.241 102.504 155.942 102.504 158.333C102.504 160.726 102.625 162.371 102.866 163.27C103.108 164.16 103.409 164.753 103.77 165.05C104.141 165.347 104.563 165.495 105.036 165.495C105.508 165.495 105.93 165.347 106.301 165.05C106.672 164.743 106.959 164.201 107.163 163.422C107.432 162.421 107.567 160.724 107.567 158.333C107.567 155.941 107.446 154.3 107.205 153.409C106.964 152.51 106.658 151.912 106.287 151.615C105.926 151.31 105.508 151.158 105.036 151.158ZM115.229 153.618H120.068L123.74 163.909L127.439 153.618H132.264V168.387H128.941V158.666L125.338 168.387H122.002L118.567 158.666V168.387H115.23L115.229 153.618Z" fill="white"/>
<path d="M81.2501 72.9164V110.416C81.2501 116.169 76.5864 120.833 70.8334 120.833V120.833C65.0804 120.833 60.4167 116.169 60.4167 110.416V104.961C60.4167 100.42 62.0652 96.0324 65.0559 92.6145L66.9073 90.4986C72.0502 84.6211 79.4798 81.2497 87.2896 81.2497H95.8334" stroke="#269E48" stroke-width="4.16667"/>
<path fill-rule="evenodd" clip-rule="evenodd" d="M75 45.3125C75 44.4496 75.6995 43.75 76.5625 43.75C77.4254 43.75 78.125 44.4496 78.125 45.3125V54.1663H84.375V45.3125C84.375 44.4496 85.0745 43.75 85.9375 43.75C86.8004 43.75 87.5 44.4496 87.5 45.3125V54.1663H89.5832C90.7338 54.1663 91.6666 55.0991 91.6666 56.2497V60.1559C91.6666 60.8398 91.4982 61.5132 91.1764 62.1167L86.0048 71.8134C85.6427 72.4923 84.936 72.9163 84.1666 72.9163H78.3333C77.5639 72.9163 76.8571 72.4923 76.495 71.8134L71.3234 62.1167C71.0016 61.5132 70.8333 60.8398 70.8333 60.1559V56.2497C70.8333 55.0991 71.766 54.1663 72.9166 54.1663H75V45.3125Z" fill="#269E48"/>
</svg>
