<svg width="200" height="201" viewBox="0 0 200 201" fill="none" xmlns="http://www.w3.org/2000/svg">
<rect x="-0.520833" y="0.520833" width="198.958" height="44.7917" rx="7.8125" transform="matrix(-1 0 0 1 198.958 75.667)" fill="white" stroke="#13141A" stroke-width="1.04167"/>
<rect width="191.667" height="37.5" rx="4.16667" transform="matrix(-1 0 0 1 195.833 79.832)" fill="#FF0E00"/>
<path d="M187.5 79.832H170.562L152.083 98.582L170.562 117.332H187.5L169.022 98.582L187.5 79.832Z" fill="white"/>
<path d="M43.75 79.832H26.8116L8.33334 98.582L26.8116 117.332H43.75L25.2717 98.582L43.75 79.832Z" fill="white"/>
<path d="M91.6667 79.832H74.7283L56.2501 98.582L74.7283 117.332H91.6667L73.1885 98.582L91.6667 79.832Z" fill="white"/>
<path d="M139.583 79.832H122.645L104.167 98.582L122.645 117.332H139.583L121.105 98.582L139.583 79.832Z" fill="white"/>
</svg>
