<svg width="200" height="200" viewBox="0 0 200 200" fill="none" xmlns="http://www.w3.org/2000/svg">
<rect x="1.56254" y="146.355" width="92.7084" height="196.875" rx="8.85417" transform="rotate(-90 1.56254 146.355)" fill="white" stroke="#13141A" stroke-width="1.04167"/>
<rect x="6.77083" y="141.146" width="82.2917" height="186.458" rx="3.64583" transform="rotate(-90 6.77083 141.146)" stroke="black" stroke-width="1.04167"/>
<path d="M12.5 70.834H187.5" stroke="black" stroke-width="2.08333"/>
<path fill-rule="evenodd" clip-rule="evenodd" d="M54.1658 132.699L18.7491 71.3551L20.5534 70.3135L55.97 131.657L54.1658 132.699ZM54.7469 75.8191C55.5298 75.3671 56.5309 75.6353 56.983 76.4183L81.5365 118.946C81.9885 119.729 81.7203 120.73 80.9374 121.182L63.9262 131.004C63.1432 131.456 62.1421 131.188 61.6901 130.405L37.1365 87.8766C36.6845 87.0937 36.9528 86.0925 37.7357 85.6405L54.7469 75.8191ZM44.2833 96.9813L48.2659 102.243L63.8595 93.2395L61.2945 87.1599L44.2833 96.9813ZM54.8135 113.583L57.3785 119.663L74.3898 109.842L70.4072 104.58L54.8135 113.583ZM96.4136 75.8191C97.1965 75.3671 98.1976 75.6353 98.6496 76.4183L123.203 118.946C123.655 119.729 123.387 120.73 122.604 121.182L105.593 131.004C104.81 131.456 103.809 131.188 103.357 130.405L78.8032 87.8766C78.3512 87.0937 78.6194 86.0925 79.4023 85.6405L96.4136 75.8191ZM85.95 96.9813L89.9326 102.243L105.526 93.2395L102.961 87.1599L85.95 96.9813ZM96.4802 113.583L99.0452 119.663L116.056 109.842L112.074 104.58L96.4802 113.583ZM140.316 76.4183C139.864 75.6353 138.863 75.3671 138.08 75.8191L121.069 85.6405C120.286 86.0925 120.018 87.0937 120.47 87.8766L145.023 130.405C145.475 131.188 146.477 131.456 147.26 131.004L164.271 121.182C165.054 120.73 165.322 119.729 164.87 118.946L140.316 76.4183ZM131.599 102.243L127.617 96.9813L144.628 87.1599L147.193 93.2395L131.599 102.243ZM140.712 119.663L138.147 113.583L153.741 104.58L157.723 109.842L140.712 119.663ZM60.4158 71.3551L95.8325 132.699L97.6367 131.657L62.22 70.3135L60.4158 71.3551ZM137.499 132.699L102.083 71.3551L103.887 70.3135L139.303 131.657L137.499 132.699ZM143.749 71.3551L179.166 132.699L180.97 131.657L145.553 70.3135L143.749 71.3551Z" fill="black"/>
</svg>
