<svg width="200" height="201" viewBox="0 0 200 201" fill="none" xmlns="http://www.w3.org/2000/svg">
<rect x="1.56254" y="146.688" width="92.7084" height="196.875" rx="8.85417" transform="rotate(-90 1.56254 146.688)" fill="white" stroke="#13141A" stroke-width="1.04167"/>
<rect x="6.77083" y="141.479" width="82.2917" height="186.458" rx="3.64583" transform="rotate(-90 6.77083 141.479)" stroke="black" stroke-width="1.04167"/>
<path d="M54.7208 89.5756C64.6887 89.5756 72.8172 97.7049 72.8172 107.672C72.8172 117.639 64.6878 125.768 54.7208 125.768C44.7537 125.768 36.6244 117.639 36.6244 107.672C36.6252 97.704 44.7537 89.5756 54.7208 89.5756Z" fill="black"/>
<path d="M117.457 90.2328C127.424 90.2328 135.553 98.3621 135.553 108.329C135.553 118.296 127.424 126.426 117.457 126.426C107.489 126.426 99.36 118.296 99.36 108.329C99.36 98.3621 107.489 90.2328 117.457 90.2328Z" fill="black"/>
<path fill-rule="evenodd" clip-rule="evenodd" d="M153.044 74.5428C155.321 69.8593 160.957 67.7849 165.743 69.9261C170.539 72.0717 172.746 77.6693 170.754 82.4927L168.669 81.5585C170.146 77.8831 168.457 73.642 164.811 72.0102C161.172 70.3827 156.895 71.9389 155.134 75.4744L155.198 75.5035L141.454 106.23C141.874 106.767 142.133 107.51 142.133 108.328C142.133 109.813 141.277 111.051 140.164 111.257C138.65 122.7 128.815 131.582 116.97 131.582C104.081 131.582 93.5698 121.068 93.5698 108.18C93.5698 106.269 93.8038 104.406 94.2402 102.626C92.1306 101.491 89.2127 100.786 85.9956 100.786C82.8621 100.786 80.0109 101.455 77.9164 102.539C78.2463 104.097 78.4204 105.714 78.4204 107.369C78.4204 120.258 67.908 130.77 55.0203 130.77C43.446 130.77 33.7912 122.29 31.9421 111.227C31.7899 111.268 31.6316 111.29 31.4697 111.29C30.2012 111.29 29.1666 109.959 29.1666 108.328C29.1666 106.699 30.2012 105.369 31.4697 105.369C31.5489 105.369 31.6289 105.374 31.7063 105.384C32.2086 99.4719 34.9234 94.1743 39.0176 90.3274L45.9839 74.7548L46.0007 74.7619C48.2773 70.0783 53.9118 68.004 58.6983 70.1461C63.4936 72.2908 65.7025 77.8884 63.7109 82.7135L61.6225 81.7793C63.1012 78.1039 61.4113 73.8628 57.765 72.231C54.1274 70.6035 49.8503 72.1597 48.0882 75.6953L48.1533 75.7243L42.9622 87.3337C46.488 85.2005 50.6165 83.9715 55.0229 83.9715C65.2275 83.9715 73.9401 90.5605 77.1264 99.7015C79.2632 98.3538 82.4486 97.497 85.9973 97.497C89.6807 97.497 92.9734 98.4216 95.1076 99.8572C98.4751 91.0593 107.013 84.7835 116.972 84.7835C128.351 84.7835 137.88 92.9797 139.951 103.772L153.027 74.5358L153.044 74.5428ZM34.6507 107.453C34.6507 118.628 43.7653 127.741 54.9411 127.741C66.116 127.741 75.2315 118.628 75.2315 107.453C75.2315 96.2768 66.1169 87.1622 54.9411 87.1622C43.7653 87.1622 34.6507 96.2768 34.6507 107.453ZM97.1661 108.33C97.1661 119.505 106.281 128.619 117.457 128.619C128.632 128.619 137.747 119.505 137.747 108.33C137.747 97.1539 128.632 88.0393 117.457 88.0393C106.281 88.0393 97.1661 97.1539 97.1661 108.33Z" fill="black"/>
<path d="M54.7208 89.5756C64.6887 89.5756 72.8172 97.7049 72.8172 107.672C72.8172 117.639 64.6878 125.768 54.7208 125.768C44.7537 125.768 36.6244 117.639 36.6244 107.672C36.6252 97.704 44.7537 89.5756 54.7208 89.5756Z" stroke="black" stroke-width="0.000947417"/>
<path d="M117.457 90.2328C127.424 90.2328 135.553 98.3621 135.553 108.329C135.553 118.296 127.424 126.426 117.457 126.426C107.489 126.426 99.36 118.296 99.36 108.329C99.36 98.3621 107.489 90.2328 117.457 90.2328Z" stroke="black" stroke-width="0.000947417"/>
<path fill-rule="evenodd" clip-rule="evenodd" d="M153.044 74.5428C155.321 69.8593 160.957 67.7849 165.743 69.9261C170.539 72.0717 172.746 77.6693 170.754 82.4927L168.669 81.5585C170.146 77.8831 168.457 73.642 164.811 72.0102C161.172 70.3827 156.895 71.9389 155.134 75.4744L155.198 75.5035L141.454 106.23C141.874 106.767 142.133 107.51 142.133 108.328C142.133 109.813 141.277 111.051 140.164 111.257C138.65 122.7 128.815 131.582 116.97 131.582C104.081 131.582 93.5698 121.068 93.5698 108.18C93.5698 106.269 93.8038 104.406 94.2402 102.626C92.1306 101.491 89.2127 100.786 85.9956 100.786C82.8621 100.786 80.0109 101.455 77.9164 102.539C78.2463 104.097 78.4204 105.714 78.4204 107.369C78.4204 120.258 67.908 130.77 55.0203 130.77C43.446 130.77 33.7912 122.29 31.9421 111.227C31.7899 111.268 31.6316 111.29 31.4697 111.29C30.2012 111.29 29.1666 109.959 29.1666 108.328C29.1666 106.699 30.2012 105.369 31.4697 105.369C31.5489 105.369 31.6289 105.374 31.7063 105.384C32.2086 99.4719 34.9234 94.1743 39.0176 90.3274L45.9839 74.7548L46.0007 74.7619C48.2773 70.0783 53.9118 68.004 58.6983 70.1461C63.4936 72.2908 65.7025 77.8884 63.7109 82.7135L61.6225 81.7793C63.1012 78.1039 61.4113 73.8628 57.765 72.231C54.1274 70.6035 49.8503 72.1597 48.0882 75.6953L48.1533 75.7243L42.9622 87.3337C46.488 85.2005 50.6165 83.9715 55.0229 83.9715C65.2275 83.9715 73.9401 90.5605 77.1264 99.7015C79.2632 98.3538 82.4486 97.497 85.9973 97.497C89.6807 97.497 92.9734 98.4216 95.1076 99.8572C98.4751 91.0593 107.013 84.7835 116.972 84.7835C128.351 84.7835 137.88 92.9797 139.951 103.772L153.027 74.5358L153.044 74.5428ZM34.6507 107.453C34.6507 118.628 43.7653 127.741 54.9411 127.741C66.116 127.741 75.2315 118.628 75.2315 107.453C75.2315 96.2768 66.1169 87.1622 54.9411 87.1622C43.7653 87.1622 34.6507 96.2768 34.6507 107.453ZM97.1661 108.33C97.1661 119.505 106.281 128.619 117.457 128.619C128.632 128.619 137.747 119.505 137.747 108.33C137.747 97.1539 128.632 88.0393 117.457 88.0393C106.281 88.0393 97.1661 97.1539 97.1661 108.33Z" stroke="black" stroke-width="0.000947417"/>
</svg>
