<svg width="200" height="201" viewBox="0 0 200 201" fill="none" xmlns="http://www.w3.org/2000/svg">
<rect x="0.520833" y="-0.520833" width="196.875" height="76.0417" rx="8.85417" transform="matrix(-1 0 0 1 198.958 63.084)" fill="white" stroke="#13141A" stroke-width="1.04167"/>
<rect x="0.520833" y="-0.520833" width="188.542" height="67.7083" rx="4.6875" transform="matrix(-1 0 0 1 194.792 67.25)" stroke="black" stroke-width="1.04167"/>
<path d="M22.0397 83.2414H30.018C31.6525 83.2414 32.8763 83.5403 33.6893 84.138C34.5022 84.7358 34.9087 85.6367 34.9087 86.8408C34.9087 87.6118 34.6839 88.2831 34.2341 88.8549C33.7931 89.4266 33.2352 89.8078 32.5606 89.9984C33.512 90.2323 34.2212 90.6697 34.6882 91.3108C35.1552 91.9518 35.3887 92.6535 35.3887 93.4158C35.3887 94.49 34.9952 95.3649 34.2082 96.0406C33.4212 96.7076 32.2579 97.0411 30.7185 97.0411H22.0397V83.2414ZM25.711 88.9718H28.0591C29.192 88.9718 30.0093 88.8289 30.5109 88.543C31.0212 88.2572 31.2763 87.8067 31.2763 87.1916C31.2763 86.6112 31.0385 86.1998 30.5628 85.9572C30.0958 85.706 29.2612 85.5804 28.0591 85.5804H25.711V88.9718ZM25.711 94.7022H28.5909C29.6288 94.7022 30.3855 94.5766 30.8612 94.3254C31.3369 94.0742 31.5747 93.6237 31.5747 92.974C31.5747 92.2983 31.3023 91.8349 30.7574 91.5836C30.2126 91.3238 29.1531 91.1938 27.5791 91.1938H25.711V94.7022Z" fill="black"/>
<path d="M35.9465 83.2414H39.8254L43.1205 93.039L46.3378 83.2414H50.1129L45.2481 96.5214L44.3789 98.9253C44.0589 99.7309 43.7519 100.346 43.4578 100.77C43.1724 101.195 42.8394 101.537 42.4589 101.797C42.087 102.066 41.6243 102.273 41.0708 102.421C40.526 102.568 39.9076 102.642 39.2157 102.642C38.5152 102.642 37.8276 102.568 37.153 102.421L36.8287 99.562C37.3995 99.6746 37.9141 99.7309 38.3725 99.7309C39.22 99.7309 39.847 99.4797 40.2535 98.9773C40.66 98.4835 40.9714 97.8511 41.1876 97.0801L35.9465 83.2414Z" fill="black"/>
<path d="M53.0836 83.2414H65.2911V97.0411H61.6587V86.2041H56.6901V92.4023C56.6901 93.9789 56.5085 95.0877 56.1452 95.7287C55.782 96.3611 55.3798 96.7769 54.9388 96.9762C54.4977 97.1754 53.7885 97.275 52.8112 97.275C52.2318 97.275 51.4664 97.1971 50.515 97.0411V94.3514C50.5929 94.3514 50.7961 94.36 51.1248 94.3774C51.5053 94.4033 51.7993 94.4163 52.0069 94.4163C52.4999 94.4163 52.8026 94.2561 52.915 93.9356C53.0274 93.6064 53.0836 92.7011 53.0836 91.2198V83.2414Z" fill="black"/>
<path d="M68.9883 97.0411V93.3898H72.6337V97.0411H68.9883Z" fill="black"/>
<path d="M95.9718 90.0373L99.695 91.2198C99.1242 93.2989 98.1729 94.8451 96.841 95.8587C95.5178 96.8636 93.8356 97.366 91.7946 97.366C89.2692 97.366 87.1936 96.5041 85.5676 94.7802C83.9417 93.0476 83.1287 90.6827 83.1287 87.6854C83.1287 84.5149 83.946 82.0547 85.5806 80.3048C87.2152 78.5463 89.3643 77.667 92.0281 77.667C94.3545 77.667 96.2443 78.3557 97.6972 79.733C98.5621 80.5473 99.2107 81.7168 99.6431 83.2414L95.8421 84.151C95.6172 83.1635 95.1459 82.3838 94.4281 81.8121C93.7189 81.2404 92.854 80.9545 91.8335 80.9545C90.4238 80.9545 89.2778 81.4613 88.3957 82.4748C87.5222 83.4883 87.0854 85.1299 87.0854 87.3995C87.0854 89.8078 87.5179 91.523 88.3827 92.5452C89.2476 93.5674 90.3719 94.0785 91.7557 94.0785C92.7762 94.0785 93.654 93.7536 94.3891 93.1039C95.1243 92.4542 95.6518 91.432 95.9718 90.0373Z" fill="black"/>
<path d="M106.039 87.4515L102.731 86.8538C103.103 85.5197 103.743 84.5322 104.651 83.8911C105.559 83.2501 106.908 82.9296 108.698 82.9296C110.324 82.9296 111.535 83.1245 112.331 83.5143C113.126 83.8955 113.684 84.3849 114.004 84.9826C114.333 85.5717 114.497 86.6589 114.497 88.2442L114.458 92.5062C114.458 93.719 114.514 94.6156 114.627 95.196C114.748 95.7677 114.968 96.3828 115.288 97.0411H111.682C111.587 96.7986 111.47 96.4391 111.332 95.9626C111.271 95.7461 111.228 95.6031 111.202 95.5338C110.579 96.1402 109.913 96.595 109.204 96.8982C108.495 97.2014 107.738 97.353 106.934 97.353C105.516 97.353 104.396 96.9675 103.574 96.1965C102.761 95.4255 102.354 94.451 102.354 93.2729C102.354 92.4932 102.54 91.8002 102.912 91.1938C103.284 90.5788 103.803 90.111 104.469 89.7905C105.144 89.4613 106.112 89.1754 107.375 88.9328C109.079 88.6123 110.259 88.3135 110.917 88.0363V87.6724C110.917 86.9707 110.744 86.4726 110.398 86.1781C110.052 85.8749 109.399 85.7233 108.439 85.7233C107.79 85.7233 107.284 85.8533 106.921 86.1131C106.558 86.3644 106.264 86.8105 106.039 87.4515ZM110.917 90.4142C110.45 90.5701 109.71 90.7563 108.698 90.9729C107.686 91.1895 107.025 91.4017 106.713 91.6096C106.238 91.9475 106 92.3763 106 92.896C106 93.4071 106.19 93.8489 106.571 94.2214C106.951 94.5939 107.435 94.7802 108.024 94.7802C108.681 94.7802 109.308 94.5636 109.905 94.1305C110.346 93.8013 110.635 93.3985 110.774 92.922C110.869 92.6102 110.917 92.0168 110.917 91.1418V90.4142Z" fill="black"/>
<path d="M129.494 97.0411H119.063V100.679H116.106V94.0525H117.598C118.22 93.3595 118.735 92.2767 119.141 90.804C119.548 89.3313 119.79 86.8105 119.868 83.2414H130.985V94.0525H132.464V100.679H129.494V97.0411ZM127.379 94.0525L127.392 86.2431H122.981C122.834 90.0547 122.229 92.6578 121.165 94.0525H127.379Z" fill="black"/>
<path d="M134.125 89.9464C134.125 88.7336 134.423 87.5598 135.02 86.425C135.617 85.2902 136.46 84.4239 137.55 83.8262C138.648 83.2285 139.872 82.9296 141.221 82.9296C143.305 82.9296 145.013 83.6096 146.345 84.9697C147.677 86.321 148.343 88.0319 148.343 90.1023C148.343 92.19 147.669 93.9226 146.319 95.2999C144.979 96.6686 143.288 97.353 141.247 97.353C139.984 97.353 138.778 97.0671 137.628 96.4954C136.486 95.9236 135.617 95.0877 135.02 93.9875C134.423 92.8787 134.125 91.5317 134.125 89.9464ZM137.861 90.1413C137.861 91.51 138.185 92.5582 138.834 93.2859C139.483 94.0135 140.283 94.3774 141.234 94.3774C142.185 94.3774 142.981 94.0135 143.621 93.2859C144.27 92.5582 144.594 91.5013 144.594 90.1153C144.594 88.7639 144.27 87.7244 143.621 86.9967C142.981 86.2691 142.185 85.9052 141.234 85.9052C140.283 85.9052 139.483 86.2691 138.834 86.9967C138.185 87.7244 137.861 88.7726 137.861 90.1413Z" fill="black"/>
<path d="M151.249 83.2414H159.227C160.862 83.2414 162.086 83.5403 162.899 84.138C163.712 84.7358 164.118 85.6367 164.118 86.8408C164.118 87.6118 163.893 88.2831 163.444 88.8549C163.002 89.4266 162.445 89.8078 161.77 89.9984C162.721 90.2323 163.431 90.6697 163.898 91.3108C164.365 91.9518 164.598 92.6535 164.598 93.4158C164.598 94.49 164.205 95.3649 163.418 96.0406C162.631 96.7076 161.467 97.0411 159.928 97.0411H151.249V83.2414ZM154.92 88.9718H157.268C158.401 88.9718 159.219 88.8289 159.72 88.543C160.231 88.2572 160.486 87.8067 160.486 87.1916C160.486 86.6112 160.248 86.1998 159.772 85.9572C159.305 85.706 158.471 85.5804 157.268 85.5804H154.92V88.9718ZM154.92 94.7022H157.8C158.838 94.7022 159.595 94.5766 160.071 94.3254C160.546 94.0742 160.784 93.6237 160.784 92.974C160.784 92.2983 160.512 91.8349 159.967 91.5836C159.422 91.3238 158.362 91.1938 156.788 91.1938H154.92V94.7022Z" fill="black"/>
<path d="M169.917 87.4515L166.609 86.8538C166.981 85.5197 167.621 84.5322 168.529 83.8911C169.437 83.2501 170.786 82.9296 172.576 82.9296C174.202 82.9296 175.413 83.1245 176.209 83.5143C177.004 83.8955 177.562 84.3849 177.882 84.9826C178.211 85.5717 178.375 86.6589 178.375 88.2442L178.336 92.5062C178.336 93.719 178.393 94.6156 178.505 95.196C178.626 95.7677 178.847 96.3828 179.167 97.0411H175.56C175.465 96.7986 175.348 96.4391 175.21 95.9626C175.149 95.7461 175.106 95.6031 175.08 95.5338C174.457 96.1402 173.792 96.595 173.082 96.8982C172.373 97.2014 171.616 97.353 170.812 97.353C169.394 97.353 168.274 96.9675 167.452 96.1965C166.639 95.4255 166.233 94.451 166.233 93.2729C166.233 92.4932 166.419 91.8002 166.791 91.1938C167.162 90.5788 167.681 90.111 168.347 89.7905C169.022 89.4613 169.99 89.1754 171.253 88.9328C172.957 88.6123 174.137 88.3135 174.795 88.0363V87.6724C174.795 86.9707 174.622 86.4726 174.276 86.1781C173.93 85.8749 173.277 85.7233 172.317 85.7233C171.668 85.7233 171.162 85.8533 170.799 86.1131C170.436 86.3644 170.142 86.8105 169.917 87.4515ZM174.795 90.4142C174.328 90.5701 173.588 90.7563 172.576 90.9729C171.565 91.1895 170.903 91.4017 170.592 91.6096C170.116 91.9475 169.878 92.3763 169.878 92.896C169.878 93.4071 170.068 93.8489 170.449 94.2214C170.829 94.5939 171.314 94.7802 171.902 94.7802C172.559 94.7802 173.186 94.5636 173.783 94.1305C174.224 93.8013 174.514 93.3985 174.652 92.922C174.747 92.6102 174.795 92.0168 174.795 91.1418V90.4142Z" fill="black"/>
<path d="M20.8333 118.465L23.7113 118.185C23.8846 119.153 24.2343 119.863 24.7606 120.317C25.2936 120.771 26.0098 120.998 26.9092 120.998C27.8619 120.998 28.5781 120.798 29.0578 120.397C29.5441 119.99 29.7873 119.516 29.7873 118.976C29.7873 118.629 29.684 118.335 29.4775 118.095C29.2776 117.848 28.9245 117.635 28.4182 117.454C28.0718 117.334 27.2823 117.121 26.0498 116.814C24.4642 116.42 23.3516 115.936 22.712 115.362C21.8126 114.555 21.3629 113.571 21.3629 112.41C21.3629 111.662 21.5728 110.965 21.9925 110.318C22.4189 109.664 23.0285 109.166 23.8213 108.826C24.6207 108.486 25.5834 108.316 26.7093 108.316C28.5481 108.316 29.9305 108.719 30.8566 109.527C31.7893 110.334 32.279 111.412 32.3256 112.76L29.3676 112.89C29.241 112.136 28.9678 111.595 28.5481 111.268C28.135 110.935 27.5121 110.768 26.6794 110.768C25.8199 110.768 25.147 110.945 24.6607 111.299C24.3476 111.525 24.191 111.829 24.191 112.209C24.191 112.556 24.3376 112.853 24.6307 113.1C25.0038 113.414 25.9099 113.741 27.3489 114.081C28.7879 114.422 29.8506 114.775 30.5368 115.142C31.2297 115.503 31.7693 116 32.1557 116.634C32.5488 117.261 32.7453 118.038 32.7453 118.966C32.7453 119.807 32.5121 120.594 32.0458 121.328C31.5794 122.062 30.9199 122.609 30.0671 122.97C29.2143 123.323 28.1517 123.5 26.8792 123.5C25.0271 123.5 23.6047 123.073 22.6121 122.219C21.6194 121.358 21.0265 120.107 20.8333 118.465Z" fill="black"/>
<path d="M37.3123 115.853L34.764 115.392C35.0504 114.365 35.5434 113.604 36.243 113.11C36.9425 112.616 37.9818 112.37 39.3609 112.37C40.6134 112.37 41.5461 112.52 42.159 112.82C42.772 113.114 43.2017 113.491 43.4482 113.951C43.7013 114.405 43.8279 115.242 43.8279 116.464L43.7979 119.747C43.7979 120.681 43.8412 121.372 43.9279 121.819C44.0211 122.259 44.191 122.733 44.4375 123.24H41.6594C41.5861 123.053 41.4961 122.776 41.3895 122.409C41.3429 122.242 41.3096 122.132 41.2896 122.079C40.8099 122.546 40.2969 122.896 39.7506 123.13C39.2043 123.364 38.6214 123.48 38.0018 123.48C36.9092 123.48 36.0464 123.183 35.4135 122.589C34.7873 121.996 34.4742 121.245 34.4742 120.337C34.4742 119.737 34.6174 119.203 34.9039 118.736C35.1903 118.262 35.5901 117.902 36.1031 117.655C36.6227 117.401 37.3689 117.181 38.3416 116.994C39.654 116.747 40.5634 116.517 41.0698 116.303V116.023C41.0698 115.483 40.9365 115.099 40.67 114.872C40.4035 114.638 39.9005 114.522 39.161 114.522C38.6614 114.522 38.2716 114.622 37.9918 114.822C37.712 115.015 37.4855 115.359 37.3123 115.853ZM41.0698 118.135C40.71 118.255 40.1404 118.399 39.3609 118.566C38.5814 118.732 38.0718 118.896 37.8319 119.056C37.4655 119.316 37.2823 119.647 37.2823 120.047C37.2823 120.441 37.4289 120.781 37.722 121.068C38.0151 121.355 38.3882 121.498 38.8412 121.498C39.3476 121.498 39.8306 121.332 40.2903 120.998C40.6301 120.744 40.8532 120.434 40.9598 120.067C41.0331 119.827 41.0698 119.37 41.0698 118.696V118.135Z" fill="black"/>
<path d="M56.3396 123.24H53.7313V121.679C53.2983 122.286 52.7853 122.74 52.1923 123.04C51.6061 123.333 51.0131 123.48 50.4135 123.48C49.1943 123.48 48.1484 122.99 47.2756 122.009C46.4095 121.021 45.9765 119.647 45.9765 117.885C45.9765 116.083 46.3995 114.715 47.2456 113.781C48.0917 112.84 49.161 112.37 50.4535 112.37C51.6394 112.37 52.6654 112.863 53.5314 113.851V108.566H56.3396V123.24ZM48.8446 117.695C48.8446 118.829 49.0011 119.65 49.3143 120.157C49.7673 120.891 50.4002 121.258 51.213 121.258C51.8592 121.258 52.4089 120.985 52.8619 120.437C53.3149 119.883 53.5414 119.059 53.5414 117.965C53.5414 116.744 53.3216 115.866 52.8819 115.332C52.4422 114.792 51.8792 114.522 51.193 114.522C50.5268 114.522 49.9672 114.789 49.5141 115.322C49.0678 115.85 48.8446 116.64 48.8446 117.695Z" fill="black"/>
<path d="M58.4682 117.775C58.4682 116.841 58.698 115.936 59.1577 115.062C59.6174 114.188 60.267 113.521 61.1064 113.06C61.9525 112.6 62.8952 112.37 63.9345 112.37C65.5401 112.37 66.8559 112.893 67.8819 113.941C68.9079 114.982 69.4209 116.3 69.4209 117.895C69.4209 119.503 68.9012 120.838 67.8619 121.899C66.8292 122.953 65.5268 123.48 63.9545 123.48C62.9818 123.48 62.0524 123.26 61.1664 122.82C60.2869 122.379 59.6174 121.735 59.1577 120.888C58.698 120.034 58.4682 118.996 58.4682 117.775ZM61.3462 117.925C61.3462 118.979 61.5961 119.787 62.0957 120.347C62.5954 120.908 63.2117 121.188 63.9445 121.188C64.6773 121.188 65.2903 120.908 65.7833 120.347C66.2829 119.787 66.5328 118.973 66.5328 117.905C66.5328 116.864 66.2829 116.063 65.7833 115.503C65.2903 114.942 64.6773 114.662 63.9445 114.662C63.2117 114.662 62.5954 114.942 62.0957 115.503C61.5961 116.063 61.3462 116.871 61.3462 117.925Z" fill="black"/>
<path d="M74.5474 123.24L70.2703 112.61H73.2183L75.217 118.035L75.7966 119.847C75.9498 119.386 76.0464 119.083 76.0864 118.936C76.1797 118.636 76.2796 118.335 76.3862 118.035L78.4049 112.61H81.2929L77.0757 123.24H74.5474Z" fill="black"/>
<path d="M85.1204 115.853L82.5721 115.392C82.8586 114.365 83.3516 113.604 84.0511 113.11C84.7506 112.616 85.7899 112.37 87.169 112.37C88.4215 112.37 89.3542 112.52 89.9672 112.82C90.5801 113.114 91.0098 113.491 91.2563 113.951C91.5095 114.405 91.636 115.242 91.636 116.464L91.6061 119.747C91.6061 120.681 91.6494 121.372 91.736 121.819C91.8292 122.259 91.9991 122.733 92.2456 123.24H89.4675C89.3942 123.053 89.3043 122.776 89.1977 122.409C89.151 122.242 89.1177 122.132 89.0977 122.079C88.618 122.546 88.1051 122.896 87.5588 123.13C87.0125 123.364 86.4295 123.48 85.8099 123.48C84.7173 123.48 83.8546 123.183 83.2216 122.589C82.5954 121.996 82.2823 121.245 82.2823 120.337C82.2823 119.737 82.4255 119.203 82.712 118.736C82.9985 118.262 83.3982 117.902 83.9112 117.655C84.4308 117.401 85.177 117.181 86.1497 116.994C87.4622 116.747 88.3715 116.517 88.8779 116.303V116.023C88.8779 115.483 88.7446 115.099 88.4781 114.872C88.2117 114.638 87.7087 114.522 86.9691 114.522C86.4695 114.522 86.0797 114.622 85.7999 114.822C85.5201 115.015 85.2936 115.359 85.1204 115.853ZM88.8779 118.135C88.5181 118.255 87.9485 118.399 87.169 118.566C86.3895 118.732 85.8799 118.896 85.64 119.056C85.2736 119.316 85.0904 119.647 85.0904 120.047C85.0904 120.441 85.237 120.781 85.5301 121.068C85.8232 121.355 86.1963 121.498 86.6494 121.498C87.1557 121.498 87.6387 121.332 88.0984 120.998C88.4382 120.744 88.6614 120.434 88.768 120.067C88.8412 119.827 88.8779 119.37 88.8779 118.696V118.135Z" fill="black"/>
<path d="M99.121 120.207L101.939 119.777C102.059 120.324 102.302 120.741 102.669 121.028C103.035 121.308 103.548 121.448 104.208 121.448C104.934 121.448 105.48 121.315 105.847 121.048C106.093 120.861 106.216 120.611 106.216 120.297C106.216 120.084 106.15 119.907 106.016 119.767C105.877 119.633 105.563 119.51 105.077 119.396C102.812 118.896 101.376 118.439 100.77 118.025C99.9305 117.451 99.5108 116.654 99.5108 115.633C99.5108 114.712 99.8739 113.938 100.6 113.31C101.326 112.683 102.452 112.37 103.978 112.37C105.43 112.37 106.509 112.606 107.216 113.08C107.922 113.554 108.408 114.255 108.675 115.182L106.026 115.673C105.913 115.259 105.697 114.942 105.377 114.722C105.064 114.502 104.614 114.392 104.028 114.392C103.288 114.392 102.759 114.495 102.439 114.702C102.226 114.849 102.119 115.039 102.119 115.272C102.119 115.473 102.212 115.643 102.399 115.783C102.652 115.97 103.525 116.233 105.017 116.574C106.516 116.914 107.562 117.331 108.155 117.825C108.741 118.325 109.034 119.023 109.034 119.917C109.034 120.891 108.628 121.729 107.815 122.429C107.002 123.13 105.8 123.48 104.208 123.48C102.762 123.48 101.616 123.187 100.77 122.599C99.9305 122.012 99.3809 121.215 99.121 120.207Z" fill="black"/>
<path d="M116.37 112.61V114.852H114.451V119.136C114.451 120.004 114.467 120.511 114.501 120.658C114.541 120.798 114.624 120.914 114.751 121.008C114.884 121.101 115.044 121.148 115.23 121.148C115.49 121.148 115.867 121.058 116.36 120.878L116.599 123.06C115.946 123.34 115.207 123.48 114.381 123.48C113.875 123.48 113.418 123.397 113.012 123.23C112.605 123.057 112.306 122.836 112.112 122.569C111.926 122.296 111.796 121.929 111.723 121.468C111.663 121.141 111.633 120.481 111.633 119.486V114.852H110.344V112.61H111.633V110.498L114.451 108.856V112.61H116.37Z" fill="black"/>
<path d="M121.006 123.24H118.198V112.61H120.807V114.121C121.253 113.407 121.653 112.937 122.006 112.71C122.366 112.483 122.772 112.37 123.225 112.37C123.865 112.37 124.481 112.546 125.074 112.9L124.204 115.352C123.731 115.045 123.292 114.892 122.885 114.892C122.492 114.892 122.159 115.002 121.886 115.222C121.613 115.436 121.396 115.826 121.236 116.393C121.083 116.961 121.006 118.148 121.006 119.957V123.24Z" fill="black"/>
<path d="M125.154 123.24V120.427H127.962V123.24H125.154Z" fill="black"/>
</svg>
