<svg width="200" height="201" viewBox="0 0 200 201" fill="none" xmlns="http://www.w3.org/2000/svg">
<path d="M25.6863 169.269H174.314C181.678 169.269 186.263 161.296 182.525 154.967L108.211 29.1546C104.527 22.9181 95.4727 22.9181 91.7889 29.1546L17.4753 154.967C13.7367 161.296 18.3214 169.269 25.6863 169.269Z" fill="#FF0E00" stroke="black" stroke-width="1.04167"/>
<path d="M174.314 166.665H25.6863C20.3188 166.665 17.0139 160.869 19.7175 156.291L94.0312 30.479C96.707 25.9488 103.293 25.9488 105.969 30.479L180.282 156.291C182.986 160.869 179.681 166.665 174.314 166.665Z" fill="#FF0E00" stroke="white" stroke-width="4.16667"/>
<path fill-rule="evenodd" clip-rule="evenodd" d="M164.062 154.168L99.9999 45.4312L35.9374 154.168H164.062Z" fill="white"/>
<path fill-rule="evenodd" clip-rule="evenodd" d="M120.833 95.8333V120.963C120.833 131.534 108.528 137.333 100.376 130.604L83.3333 116.537V143.75L77.0833 137.5L70.8333 143.75V116.537C70.8333 105.966 83.1381 100.167 91.2903 106.896L108.333 120.963V95.8333L114.583 87.5L120.833 95.8333Z" fill="black"/>
</svg>
