<svg width="200" height="201" viewBox="0 0 200 201" fill="none" xmlns="http://www.w3.org/2000/svg">
<path d="M25.6863 169.604H174.314C181.678 169.604 186.263 161.632 182.525 155.303L108.211 29.4902C104.527 23.2536 95.4727 23.2536 91.7889 29.4902L17.4753 155.303C13.7367 161.632 18.3214 169.604 25.6863 169.604Z" fill="#FF0E00" stroke="black" stroke-width="1.04167"/>
<path d="M174.314 167H25.6863C20.3188 167 17.0139 161.204 19.7175 156.627L94.0312 30.8146C96.707 26.2844 103.293 26.2844 105.969 30.8146L180.282 156.627C182.986 161.204 179.681 167 174.314 167Z" fill="#FF0E00" stroke="white" stroke-width="4.16667"/>
<path fill-rule="evenodd" clip-rule="evenodd" d="M164.062 154.503L99.9999 45.7662L35.9374 154.503H164.062Z" fill="white"/>
<path d="M99.62 66.9999C98.9244 66.9999 98.3755 67.0478 97.7488 67.1875C95.173 67.8142 93.4444 70.2783 93.4444 72.6455C93.4444 74.7353 94.3616 76.0187 95.129 76.856C96.1031 77.6914 94.8825 79.3201 94.2558 79.3201C89.1032 80.0167 86.8737 84.9148 84.9934 89.5804C83.9495 91.9477 82.8477 93.6842 81.5943 95.0075C79.7839 97.0973 77.765 98.3787 75.6063 99.8418C73.0994 101.443 72.269 103.336 72.269 106.609C72.269 108.175 72.775 110.807 74.0475 110.813C75.3179 110.819 76.9576 110.813 78.4127 110.813C79.8678 110.813 79.8777 109.021 80.7829 107.421C80.9226 106.934 81.246 106.373 81.5943 105.954C82.4995 104.978 83.74 104.283 84.9934 103.865C88.7549 102.68 93.3257 103.844 96.8755 102.243C97.154 102.102 97.4713 101.922 97.7488 101.713C99.9773 100.25 101.231 97.7021 102.833 95.4756C104.086 93.3169 110.411 93.4996 110.411 87.9278C110.411 81.1734 105.783 82.4019 105.297 77.6674C105.228 75.8571 107.106 74.4569 107.106 72.6465C107.105 68.3272 102.684 67.0687 99.62 66.9999ZM111.222 109.82V132.836H128.218V114.186L129.84 112.377V109.819L111.222 109.82ZM73.1413 112.378V116.588H72.4547C69.6144 116.588 65.3559 122.019 65.4378 124.875C65.5286 128.021 69.7611 132.837 72.4547 132.837H110.16V116.589H79.8468V112.379L73.1413 112.378ZM116.304 114.934H123.259V121.765H116.304V114.934ZM70.5216 134.178V135.987H67.2471C63.6953 136.754 63.6953 143.509 67.2471 145.249H75.0754C75.772 148.175 78.3907 150.333 81.5933 150.333C84.727 150.333 87.3697 148.175 88.205 145.249H91.1051C91.9405 148.175 94.4524 150.333 97.655 150.333H97.7488C100.884 150.333 103.4 148.175 104.236 145.249H107.385C108.012 148.175 110.614 150.333 113.748 150.333C117.004 150.238 119.191 148.123 120.265 145.249H128.218V134.178H70.5216ZM81.5933 139.199C84.0833 139.199 85.8038 141.148 85.8038 143.503C85.8038 145.858 83.9605 147.651 81.5933 147.651C79.226 147.651 77.4137 145.844 77.4137 143.503C77.4137 141.162 79.1043 139.199 81.5933 139.199ZM97.655 139.199C100.113 139.199 101.896 141.173 101.896 143.503C101.896 145.833 100.172 147.651 97.7488 147.651C95.3256 147.651 93.4444 145.977 93.4444 143.503C93.4444 141.15 95.2069 139.199 97.655 139.199ZM113.748 139.199C116.263 139.199 117.989 141.149 117.989 143.503C117.989 145.872 116.117 147.651 113.748 147.651C111.38 147.651 109.6 145.835 109.6 143.503C109.6 141.171 111.234 139.199 113.748 139.199ZM113.748 140.602C112.198 140.602 110.94 141.859 110.94 143.409C110.94 144.959 112.198 146.216 113.748 146.216C115.297 146.216 116.555 144.959 116.555 143.409C116.555 141.859 115.296 140.602 113.748 140.602ZM81.6242 140.696C80.0743 140.696 78.8169 141.953 78.8169 143.503C78.8169 145.053 80.0743 146.31 81.6242 146.31C83.1741 146.31 84.4316 145.053 84.4316 143.503C84.4316 141.953 83.1741 140.696 81.6242 140.696ZM97.5921 140.696C96.0422 140.696 94.7847 141.953 94.7847 143.503C94.7847 145.053 96.0422 146.31 97.5921 146.31C99.142 146.31 100.399 145.053 100.399 143.503C100.399 141.953 99.142 140.696 97.5921 140.696Z" fill="black"/>
</svg>
