<svg width="200" height="201" viewBox="0 0 200 201" fill="none" xmlns="http://www.w3.org/2000/svg">
<rect x="30.7287" y="31.0524" width="138.54" height="138.54" rx="8.85404" fill="white" stroke="#13141A" stroke-width="1.04165"/>
<rect x="35.4161" y="35.7402" width="129.165" height="129.165" rx="4.16661" fill="#1071AF"/>
<rect x="97.9152" y="35.7402" width="4.16661" height="129.165" fill="white"/>
<rect x="45.8326" y="46.1562" width="43.7494" height="43.7494" rx="4.16661" fill="white"/>
<rect x="49.9993" y="50.3232" width="35.4161" height="16.6664" fill="#1071AF"/>
<path d="M47.916 91.9883H54.1661V96.1552C54.1661 97.3057 53.2334 98.2385 52.0828 98.2385H49.9993C48.8487 98.2385 47.916 97.3057 47.916 96.1552V91.9883Z" fill="white"/>
<path d="M81.2488 91.9883H87.499V96.1552C87.499 97.3057 86.5662 98.2385 85.4157 98.2385H83.3321C82.1815 98.2385 81.2488 97.3057 81.2488 96.1552V91.9883Z" fill="white"/>
<circle cx="54.1659" cy="79.4889" r="4.16661" fill="#1071AF"/>
<circle cx="81.2488" cy="79.4889" r="4.16661" fill="#1071AF"/>
<path d="M54.1658 131.572L81.2488 131.572L67.7073 154.488L54.1658 131.572Z" fill="white"/>
<rect x="62.4991" y="110.738" width="10.417" height="20.8339" fill="white"/>
<path d="M114.582 77.4058L149.998 77.4058L132.29 46.1563L114.582 77.4058Z" fill="white"/>
<rect x="127.081" y="77.4062" width="10.4165" height="87.4987" fill="white"/>
</svg>
