<svg width="200" height="200" viewBox="0 0 200 200" fill="none" xmlns="http://www.w3.org/2000/svg">
<circle cx="100" cy="100.002" r="82.8125" fill="white" stroke="#05081B" stroke-width="1.04167"/>
<circle cx="100" cy="100.001" r="71.875" fill="#FFE600" stroke="#FF0E00" stroke-width="12.5"/>
<rect x="43.75" y="95.8354" width="112.5" height="8.33333" rx="4.16667" fill="black"/>
<path d="M47.9166 126.844V112.742H50.4078V118.292H55.2892V112.742H57.7804V126.844H55.2892V120.678H50.4078V126.844H47.9166Z" fill="black"/>
<path d="M60.3641 126.844V112.742H69.5125V115.128H62.8553V118.254H69.0496V120.63H62.8553V124.468H69.7481V126.844H60.3641Z" fill="black"/>
<path d="M71.9111 112.742H81.1352V115.108H74.4022V118.379H77.735C78.6552 118.379 79.4183 118.507 80.0242 118.764C80.6302 119.02 81.1464 119.495 81.5728 120.188C82.0048 120.88 82.2209 121.691 82.2209 122.621C82.2209 123.577 82.0048 124.395 81.5728 125.074C81.1408 125.754 80.647 126.219 80.0916 126.469C79.5417 126.719 78.7562 126.844 77.735 126.844H71.9111V112.742ZM74.4022 124.478H76.8261C77.6004 124.478 78.1446 124.436 78.4588 124.353C78.773 124.263 79.0452 124.064 79.2752 123.756C79.5109 123.449 79.6287 123.07 79.6287 122.621C79.6287 121.967 79.4239 121.493 79.0143 121.198C78.6103 120.896 77.9174 120.745 76.9355 120.745H74.4022V124.478Z" fill="black"/>
<path d="M84.2491 126.844V112.742H93.3975V115.128H86.7403V118.254H92.9346V120.63H86.7403V124.468H93.6332V126.844H84.2491Z" fill="black"/>
<path d="M97.5046 116.59L95.0807 115.945C95.6025 113.649 97.0866 112.501 99.5329 112.501C100.98 112.501 102.072 112.867 102.807 113.598C103.547 114.323 103.918 115.176 103.918 116.157C103.918 116.83 103.749 117.44 103.413 117.985C103.076 118.523 102.571 118.998 101.898 119.408C102.717 119.729 103.331 120.184 103.741 120.774C104.151 121.358 104.355 122.079 104.355 122.939C104.355 124.176 103.957 125.177 103.16 125.94C102.369 126.703 101.182 127.085 99.6002 127.085C98.3097 127.085 97.2914 126.841 96.5451 126.354C95.7989 125.86 95.2378 124.94 94.8619 123.593L97.1427 122.737C97.3783 123.583 97.6897 124.132 98.0769 124.382C98.4696 124.632 98.9522 124.757 99.5245 124.757C100.31 124.757 100.882 124.564 101.241 124.18C101.6 123.788 101.78 123.343 101.78 122.843C101.78 122.265 101.575 121.8 101.166 121.448C100.762 121.095 100.15 120.919 99.3309 120.919H98.767V118.793H99.0532C99.8162 118.793 100.4 118.597 100.804 118.206C101.208 117.815 101.41 117.295 101.41 116.648C101.41 116.134 101.244 115.702 100.913 115.349C100.588 114.996 100.119 114.82 99.5076 114.82C98.464 114.82 97.7963 115.41 97.5046 116.59Z" fill="black"/>
<path d="M106.586 112.742H116.399V126.844H113.908V115.108H109.077V126.844H106.586V112.742Z" fill="black"/>
<path d="M118.941 126.844V112.742H128.089V115.128H121.432V118.254H127.626V120.63H121.432V124.468H128.325V126.844H118.941Z" fill="black"/>
<path d="M130.479 112.742H132.97V118.745C133.526 118.68 133.902 118.517 134.098 118.254C134.294 117.991 134.597 117.26 135.007 116.061C135.523 114.534 136.042 113.585 136.564 113.213C137.08 112.841 137.913 112.655 139.064 112.655C139.12 112.655 139.24 112.652 139.425 112.646V114.752L139.072 114.743C138.561 114.743 138.188 114.817 137.953 114.964C137.717 115.105 137.526 115.323 137.38 115.618C137.234 115.913 137.018 116.519 136.732 117.436C136.581 117.924 136.415 118.331 136.236 118.658C136.062 118.985 135.75 119.293 135.302 119.582C135.857 119.761 136.314 120.123 136.673 120.669C137.038 121.214 137.436 121.983 137.868 122.977L139.552 126.844H136.623L135.15 123.198C135.128 123.147 135.08 123.048 135.007 122.9C134.979 122.849 134.875 122.628 134.696 122.237C134.376 121.544 134.112 121.111 133.904 120.938C133.702 120.765 133.391 120.675 132.97 120.669V126.844H130.479V112.742Z" fill="black"/>
<path d="M152.083 126.844H149.373L148.296 123.641H143.364L142.346 126.844H139.703L144.509 112.742H147.143L152.083 126.844ZM147.497 121.265L145.796 116.032L144.13 121.265H147.497Z" fill="black"/>
<path d="M52.0834 67.0105H58.029C59.3698 67.0105 60.3919 67.1388 61.0952 67.3953C62.0404 67.7435 62.85 68.3619 63.524 69.2505C64.1981 70.1392 64.711 71.2294 65.0626 72.5212C65.4143 73.8038 65.5902 75.3888 65.5902 77.2761C65.5902 78.9343 65.4253 80.3635 65.0956 81.5637C64.6926 83.0295 64.1175 84.2159 63.3702 85.1229C62.806 85.81 62.044 86.346 61.0842 86.7308C60.3662 87.0148 59.4064 87.1568 58.2048 87.1568H52.0834V67.0105ZM55.3364 70.4186V83.7624H57.7652C58.6737 83.7624 59.3295 83.6983 59.7325 83.57C60.26 83.4051 60.6959 83.1257 61.0403 82.7318C61.392 82.3378 61.6777 81.6919 61.8975 80.7941C62.1173 79.8871 62.2272 78.6549 62.2272 77.0974C62.2272 75.5399 62.1173 74.3444 61.8975 73.5107C61.6777 72.677 61.37 72.0265 60.9743 71.5593C60.5787 71.092 60.0768 70.7759 59.4687 70.611C59.0144 70.4828 58.1242 70.4186 56.7981 70.4186H55.3364Z" fill="black"/>
<path d="M82.8885 87.1568H79.3497L77.943 82.5806H71.5028L70.173 87.1568H66.7221L72.9975 67.0105H76.4374L82.8885 87.1568ZM76.8989 79.1862L74.6789 71.7104L72.5029 79.1862H76.8989Z" fill="black"/>
<path d="M84.6579 87.1568V67.0105H87.8231L94.4171 80.4643V67.0105H97.4394V87.1568H94.1753L87.6802 74.0191V87.1568H84.6579Z" fill="black"/>
<path d="M108.385 79.7497V76.3553H115.397V84.3808C114.716 85.2054 113.727 85.9337 112.43 86.5659C111.14 87.1888 109.832 87.5003 108.506 87.5003C106.821 87.5003 105.352 87.0606 104.099 86.1811C102.846 85.2924 101.905 84.0281 101.275 82.3882C100.645 80.7391 100.33 78.948 100.33 77.015C100.33 74.917 100.681 73.0526 101.385 71.4218C102.088 69.7911 103.118 68.5405 104.473 67.6702C105.506 67.0014 106.792 66.667 108.331 66.667C110.331 66.667 111.891 67.1938 113.012 68.2474C114.141 69.2918 114.866 70.7393 115.188 72.5899L111.957 73.3458C111.73 72.3563 111.302 71.5776 110.671 71.0096C110.049 70.4324 109.268 70.1438 108.331 70.1438C106.909 70.1438 105.777 70.7072 104.935 71.8341C104.099 72.961 103.682 74.633 103.682 76.85C103.682 79.2412 104.107 81.0369 104.957 82.237C105.806 83.428 106.92 84.0235 108.298 84.0235C108.979 84.0235 109.66 83.8586 110.342 83.5288C111.03 83.1898 111.62 82.7821 112.111 82.3057V79.7497H108.385Z" fill="black"/>
<path d="M118.408 87.1568V67.0105H130.355V70.4186H121.661V74.8849H129.75V78.2792H121.661V83.7624H130.662V87.1568H118.408Z" fill="black"/>
<path d="M133.432 87.1568V67.0105H140.279C142 67.0105 143.25 67.1938 144.026 67.5602C144.81 67.9175 145.437 68.5589 145.906 69.4842C146.374 70.4095 146.609 71.4676 146.609 72.6586C146.609 74.1703 146.254 75.4208 145.543 76.4103C144.832 77.3906 143.77 78.009 142.356 78.2655C143.059 78.7785 143.638 79.342 144.092 79.9558C144.554 80.5696 145.173 81.6599 145.95 83.2265L147.917 87.1568H144.026L141.674 82.773C140.839 81.2064 140.268 80.2215 139.96 79.8184C139.652 79.4061 139.326 79.1267 138.982 78.9801C138.637 78.8244 138.092 78.7465 137.344 78.7465H136.685V87.1568H133.432ZM136.685 75.5308H139.092C140.652 75.5308 141.627 75.4483 142.015 75.2834C142.403 75.1185 142.707 74.8345 142.927 74.4314C143.147 74.0283 143.257 73.5244 143.257 72.9197C143.257 72.2418 143.11 71.6967 142.817 71.2844C142.532 70.863 142.125 70.5973 141.597 70.4874C141.334 70.4415 140.542 70.4186 139.224 70.4186H136.685V75.5308Z" fill="black"/>
</svg>
