<svg width="200" height="201" viewBox="0 0 200 201" fill="none" xmlns="http://www.w3.org/2000/svg">
<rect x="1.56254" y="147.02" width="92.7084" height="196.875" rx="8.85417" transform="rotate(-90 1.56254 147.02)" fill="white" stroke="#13141A" stroke-width="1.04167"/>
<rect x="6.77083" y="141.811" width="82.2917" height="186.458" rx="3.64583" transform="rotate(-90 6.77083 141.811)" stroke="black" stroke-width="1.04167"/>
<path d="M25.0032 100.427L25.0018 100.423H25V100.427H25.0032Z" fill="black"/>
<path d="M47.2364 113.807C47.5102 113.697 47.8088 113.7 48.1488 113.704C48.2455 113.705 48.3455 113.705 48.4493 113.704L55.6273 113.759L58.8624 113.715C59.7675 113.762 60.4676 114.404 61.0075 115.119L62.6277 117.76C63.1096 118.442 62.9032 119.863 61.7543 119.836L57.2801 119.891L47.4822 119.849C45.3281 119.958 44.9634 118.25 45.5108 116.965L46.288 115.066C46.574 114.291 46.8843 113.946 47.2364 113.807Z" fill="black"/>
<path d="M70.3361 126.01C71.4407 125.692 72.5296 126.37 72.8369 127.509C73.1443 128.648 72.5502 129.81 71.4471 130.128C70.3439 130.445 69.2054 129.782 68.8981 128.643C68.5907 127.503 69.2316 126.328 70.3361 126.01Z" fill="black"/>
<path d="M45.3876 125.968C46.4907 125.651 47.581 126.328 47.8884 127.467C48.1961 128.608 47.6016 129.768 46.4985 130.086C45.3954 130.403 44.2568 129.74 43.9495 128.601C43.6421 127.461 44.2845 126.286 45.3876 125.968Z" fill="black"/>
<path d="M88.8747 113.807C89.1485 113.697 89.4471 113.7 89.7871 113.704C89.8838 113.705 89.9839 113.705 90.0877 113.704L97.2657 113.759L100.501 113.715C101.406 113.762 102.106 114.404 102.646 115.119L104.266 117.76C104.748 118.442 104.542 119.863 103.393 119.836L98.9184 119.891L89.1206 119.849C86.9664 119.958 86.6018 118.25 87.1492 116.965L87.9264 115.066C88.2123 114.291 88.5227 113.946 88.8747 113.807Z" fill="black"/>
<path d="M111.975 126.01C113.079 125.692 114.168 126.37 114.475 127.509C114.783 128.648 114.189 129.81 113.085 130.128C111.982 130.445 110.844 129.782 110.536 128.643C110.229 127.503 110.87 126.328 111.975 126.01Z" fill="black"/>
<path d="M87.0259 125.968C88.1291 125.651 89.2194 126.328 89.5267 127.467C89.8345 128.608 89.24 129.768 88.1369 130.086C87.0338 130.403 85.8952 129.74 85.5879 128.601C85.2805 127.461 85.9228 126.286 87.0259 125.968Z" fill="black"/>
<path d="M131.426 113.704C131.086 113.7 130.787 113.697 130.513 113.807C130.161 113.946 129.851 114.291 129.565 115.066L128.788 116.965C128.24 118.25 128.605 119.958 130.759 119.849L140.557 119.891L145.031 119.836C146.18 119.863 146.386 118.442 145.904 117.76L144.284 115.119C143.744 114.404 143.044 113.762 142.139 113.715L138.904 113.759L131.726 113.704C131.622 113.705 131.522 113.705 131.426 113.704Z" fill="black"/>
<path d="M156.114 127.509C155.806 126.37 154.717 125.692 153.613 126.01C152.508 126.328 151.867 127.503 152.175 128.643C152.482 129.782 153.621 130.445 154.724 130.128C155.827 129.81 156.421 128.648 156.114 127.509Z" fill="black"/>
<path d="M131.165 127.467C130.858 126.328 129.767 125.651 128.664 125.968C127.561 126.286 126.919 127.461 127.226 128.601C127.534 129.74 128.672 130.403 129.775 130.086C130.878 129.768 131.473 128.608 131.165 127.467Z" fill="black"/>
<path fill-rule="evenodd" clip-rule="evenodd" d="M25.0032 100.427L38.1539 136.083H162.559L176.786 100.079H166.373V92.5599H157.893L154.381 77.0964H131.328L122.986 82.0995H98.1395L94.1058 72.9501L89.741 65.2495H73.9742L79.8025 73.0673L79.0419 77.1682L74.4614 75.3675L44.4639 75.1575V84.1273H46.6956L47.0211 91.5176H38.6225L27.9346 79.4665L35.2545 94.4344V100.427H25.0032ZM45.6103 112.203C45.1045 112.435 44.6377 112.942 44.4529 113.225L42.6005 115.387L38.641 120.176C38.2316 120.499 38.1977 121.909 38.4436 122.452L39.4838 125.951C39.5609 126.236 40.2471 127.058 40.5946 127.061L41.7691 127.166C42.1362 125.61 43.2869 124.263 44.8735 123.807C46.4602 123.35 48.0474 123.909 49.1251 125.05C49.9577 125.869 50.1338 126.91 50.3229 128.027L50.344 128.152C50.3437 128.167 50.3499 128.182 50.3562 128.197C50.3625 128.212 50.3688 128.226 50.3685 128.242L59.5549 128.311L66.4609 128.248C66.4459 126.25 67.7593 124.373 69.7047 123.813C72.0187 123.147 74.3987 124.572 75.043 126.96C75.0544 127.002 75.0667 127.043 75.0788 127.084C75.1028 127.164 75.1264 127.243 75.1418 127.326L75.8507 127.122C76.1983 127.125 76.8642 126.654 76.9061 126.079L77.237 122.531C77.4414 121.448 76.6328 120.937 76.166 120.866L68.549 119.359L66.9213 118.99C66.4302 118.823 65.5544 118.51 65.3595 118.156L61.7072 113.29C61.3561 112.725 60.6431 112.024 59.5797 112.126L55.1947 112.156L46.1099 112.106C45.9469 112.103 45.779 112.126 45.6103 112.203ZM69.8889 124.352C67.9053 124.923 66.6907 127.07 67.2434 129.119C67.7961 131.167 69.9096 132.358 71.8947 131.787C73.8783 131.216 75.0443 129.082 74.4916 127.033C73.9389 124.984 71.8725 123.782 69.8889 124.352ZM44.9404 124.311C42.9567 124.881 41.7421 127.028 42.2948 129.077C42.8475 131.125 44.9611 132.316 46.9461 131.745C48.9312 131.174 50.0958 129.04 49.5431 126.991C48.9904 124.942 46.924 123.74 44.9404 124.311ZM87.2486 112.203C86.7429 112.435 86.2761 112.942 86.0913 113.225L84.2389 115.387L80.2794 120.176C79.8699 120.499 79.8361 121.909 80.082 122.452L81.1222 125.951C81.1992 126.236 81.8855 127.058 82.233 127.061L83.4074 127.166C83.7746 125.61 84.9253 124.263 86.5119 123.807C88.0985 123.35 89.6858 123.909 90.7635 125.05C91.5961 125.869 91.7722 126.91 91.9613 128.027L91.9823 128.152C91.982 128.167 91.9883 128.182 91.9946 128.197C92.0009 128.212 92.0071 128.226 92.0068 128.242L101.193 128.311L108.099 128.248C108.084 126.25 109.398 124.373 111.343 123.813C113.657 123.147 116.037 124.572 116.681 126.96C116.693 127.002 116.705 127.043 116.717 127.084C116.741 127.164 116.765 127.243 116.78 127.326L117.489 127.122C117.837 127.125 118.503 126.654 118.544 126.079L118.875 122.531C119.08 121.448 118.271 120.937 117.804 120.866L110.187 119.359L108.56 118.99C108.069 118.823 107.193 118.51 106.998 118.156L103.346 113.29C102.995 112.725 102.281 112.024 101.218 112.126L96.8331 112.156L87.7482 112.106C87.5853 112.103 87.4173 112.126 87.2486 112.203ZM111.527 124.352C109.544 124.923 108.329 127.07 108.882 129.119C109.434 131.167 111.548 132.358 113.533 131.787C115.517 131.216 116.683 129.082 116.13 127.033C115.577 124.984 113.511 123.782 111.527 124.352ZM86.5787 124.311C84.5951 124.881 83.3805 127.028 83.9332 129.077C84.4859 131.125 86.5994 132.316 88.5845 131.745C90.5695 131.174 91.7341 129.04 91.1814 126.991C90.6287 124.942 88.5624 123.74 86.5787 124.311ZM127.73 113.225C127.914 112.942 128.381 112.435 128.887 112.203C129.056 112.126 129.224 112.103 129.387 112.106L138.471 112.156L142.856 112.126C143.92 112.024 144.633 112.725 144.984 113.29L148.636 118.156C148.831 118.51 149.707 118.823 150.198 118.99L151.826 119.359L159.443 120.866C159.91 120.937 160.718 121.448 160.514 122.531L160.183 126.079C160.141 126.654 159.475 127.125 159.127 127.122L158.419 127.326C158.403 127.243 158.38 127.164 158.356 127.084C158.343 127.044 158.331 127.003 158.32 126.96C157.675 124.572 155.295 123.147 152.981 123.813C151.036 124.373 149.723 126.25 149.738 128.248L142.832 128.311L133.645 128.242C133.646 128.226 133.639 128.212 133.633 128.197C133.627 128.182 133.62 128.167 133.621 128.152L133.6 128.027C133.411 126.91 133.234 125.869 132.402 125.05C131.324 123.909 129.737 123.35 128.15 123.807C126.564 124.263 125.413 125.61 125.046 127.166L123.871 127.061C123.524 127.058 122.838 126.236 122.761 125.951L121.72 122.452C121.474 121.909 121.508 120.499 121.918 120.176L125.877 115.387L127.73 113.225ZM150.52 129.119C149.967 127.07 151.182 124.923 153.166 124.352C155.149 123.782 157.216 124.984 157.768 127.033C158.321 129.082 157.155 131.216 155.171 131.787C153.186 132.358 151.073 131.167 150.52 129.119ZM125.572 129.077C125.019 127.028 126.233 124.881 128.217 124.311C130.201 123.74 132.267 124.942 132.82 126.991C133.373 129.04 132.208 131.174 130.223 131.745C128.238 132.316 126.124 131.125 125.572 129.077Z" fill="black"/>
</svg>
