<svg width="200" height="200" viewBox="0 0 200 200" fill="none" xmlns="http://www.w3.org/2000/svg">
<rect x="0.520833" y="-0.520833" width="196.875" height="71.875" rx="8.85417" transform="matrix(-1 0 0 1 198.958 64.583)" fill="white" stroke="#13141A" stroke-width="1.04167"/>
<rect x="0.520833" y="-0.520833" width="188.542" height="63.5417" rx="4.6875" transform="matrix(-1 0 0 1 194.792 68.75)" stroke="black" stroke-width="1.04167"/>
<path d="M25 107.018L32.1398 106.249C32.5695 108.904 33.4372 110.854 34.7429 112.099C36.0651 113.344 37.8418 113.967 40.073 113.967C42.4364 113.967 44.2131 113.418 45.403 112.319C46.6095 111.202 47.2128 109.902 47.2128 108.419C47.2128 107.467 46.9566 106.661 46.4443 106.002C45.9484 105.324 45.0725 104.738 43.8164 104.244C42.957 103.914 40.9985 103.328 37.9409 102.486C34.0074 101.406 31.2473 100.078 29.6607 98.5034C27.4295 96.2878 26.3139 93.5869 26.3139 90.4008C26.3139 88.35 26.8345 86.4365 27.8758 84.6603C28.9335 82.8658 30.4458 81.5016 32.4125 80.5678C34.3958 79.6339 36.784 79.167 39.5771 79.167C44.1387 79.167 47.5681 80.2748 49.8654 82.4904C52.1793 84.7061 53.394 87.6633 53.5097 91.3621L46.1716 91.7192C45.8575 89.65 45.1799 88.1668 44.1387 87.2696C43.114 86.3541 41.5687 85.8963 39.5028 85.8963C37.3707 85.8963 35.7015 86.3815 34.495 87.352C33.7182 87.9746 33.3298 88.8077 33.3298 89.8515C33.3298 90.8036 33.6934 91.6185 34.4206 92.296C35.3461 93.1566 37.5939 94.0538 41.1638 94.9877C44.7337 95.9216 47.3698 96.892 49.0721 97.8991C50.791 98.8879 52.1297 100.252 53.0883 101.992C54.0634 103.713 54.5509 105.846 54.5509 108.391C54.5509 110.699 53.9725 112.859 52.8156 114.873C51.6587 116.888 50.0224 118.389 47.9069 119.378C45.7914 120.348 43.1553 120.834 39.9986 120.834C35.404 120.834 31.8754 119.662 29.4128 117.318C26.9502 114.956 25.4793 111.523 25 107.018Z" fill="black"/>
<path d="M74.5124 120.12V86.6653H63.7283V79.8537H92.6099V86.6653H81.8506V120.12H74.5124Z" fill="black"/>
<path d="M100.548 100.234C100.548 96.1321 101.101 92.6897 102.209 89.9064C103.035 87.8556 104.159 86.0153 105.58 84.3856C107.018 82.7559 108.588 81.5474 110.291 80.76C112.555 79.698 115.166 79.167 118.125 79.167C123.479 79.167 127.76 81.0072 130.966 84.6878C134.189 88.3683 135.801 93.4862 135.801 100.042C135.801 106.542 134.206 111.632 131.016 115.313C127.826 118.975 123.562 120.806 118.224 120.806C112.819 120.806 108.522 118.984 105.332 115.34C102.143 111.678 100.548 106.643 100.548 100.234ZM108.109 99.9591C108.109 104.519 109.059 107.979 110.96 110.341C112.861 112.685 115.274 113.857 118.199 113.857C121.124 113.857 123.521 112.694 125.388 110.369C127.273 108.025 128.215 104.519 128.215 99.8493C128.215 95.2349 127.297 91.7924 125.463 89.5219C123.645 87.2513 121.223 86.116 118.199 86.116C115.174 86.116 112.737 87.2696 110.886 89.5768C109.035 91.8657 108.109 95.3264 108.109 99.9591Z" fill="black"/>
<path d="M147.16 120.12V79.8537H158.935C163.398 79.8537 166.307 80.0551 167.662 80.4579C169.744 81.0622 171.488 82.3806 172.893 84.4131C174.298 86.4273 175 89.0366 175 92.241C175 94.713 174.595 96.7913 173.785 98.4759C172.975 100.161 171.942 101.488 170.686 102.459C169.447 103.411 168.182 104.042 166.893 104.354C165.141 104.738 162.604 104.931 159.282 104.931H154.498V120.12H147.16ZM154.498 86.6653V98.0914H158.514C161.406 98.0914 163.34 97.8808 164.315 97.4597C165.29 97.0385 166.05 96.3793 166.596 95.4821C167.158 94.5848 167.439 93.5411 167.439 92.3509C167.439 90.886 167.05 89.6775 166.274 88.7253C165.497 87.7732 164.513 87.1781 163.323 86.94C162.447 86.7569 160.687 86.6653 158.043 86.6653H154.498Z" fill="black"/>
</svg>
