<svg width="200" height="200" viewBox="0 0 200 200" fill="none" xmlns="http://www.w3.org/2000/svg">
<rect x="36.9792" y="11.9792" width="126.042" height="176.042" rx="8.85417" fill="white" stroke="#13141A" stroke-width="1.04167"/>
<rect x="41.6667" y="16.6675" width="116.667" height="166.667" rx="4.16667" fill="#1071AF"/>
<rect x="50" y="33.3325" width="100" height="100" rx="4.16667" fill="white"/>
<path fill-rule="evenodd" clip-rule="evenodd" d="M62.4999 60.4175C60.1987 60.4175 58.3333 62.283 58.3333 64.5841V106.251H66.6666V95.8322L133.333 95.8322V106.25H141.667V72.9162C141.667 70.615 139.801 68.7495 137.5 68.7495C135.199 68.7495 133.333 70.615 133.333 72.9162V83.3322L66.6666 83.3322V64.5841C66.6666 62.283 64.8011 60.4175 62.4999 60.4175ZM89.5833 72.9168C91.8845 72.9168 93.75 74.7823 93.75 77.0835C93.75 79.3847 91.8845 81.2502 89.5833 81.2502H75C72.6988 81.2502 70.8333 79.3847 70.8333 77.0835C70.8333 74.7823 72.6988 72.9168 75 72.9168L89.5833 72.9168Z" fill="black"/>
</svg>
