<svg width="200" height="201" viewBox="0 0 200 201" fill="none" xmlns="http://www.w3.org/2000/svg">
<rect x="1.56254" y="146.687" width="92.7084" height="196.875" rx="8.85417" transform="rotate(-90 1.56254 146.687)" fill="white" stroke="#13141A" stroke-width="1.04167"/>
<rect x="6.77083" y="141.48" width="82.2917" height="186.458" rx="3.64583" transform="rotate(-90 6.77083 141.48)" stroke="black" stroke-width="1.04167"/>
<path fill-rule="evenodd" clip-rule="evenodd" d="M89.612 64.9175C88.3463 64.9175 87.3203 65.9435 87.3203 67.2092V108.033H158.333V67.2091C158.333 65.9435 157.307 64.9175 156.042 64.9175H89.612ZM50.0278 123.378C50.0278 130.311 55.6484 135.932 62.5819 135.932C69.5153 135.932 75.136 130.311 75.136 123.378C75.136 116.444 69.5153 110.823 62.5819 110.823C55.6484 110.823 50.0278 116.444 50.0278 123.378ZM55.6062 123.373C55.6062 127.225 58.7288 130.347 62.5807 130.347C66.4326 130.347 69.5552 127.225 69.5552 123.373C69.5552 119.521 66.4326 116.398 62.5807 116.398C58.7288 116.398 55.6062 119.521 55.6062 123.373ZM80.724 74.5545H57.6829C54.6795 74.5545 51.9064 76.1639 50.4162 78.7716L42.7695 92.1534C42.0469 93.418 41.6667 94.8493 41.6667 96.3058V119.191C41.6667 122.273 44.1648 124.771 47.2464 124.771H47.3104C47.2689 124.311 47.2476 123.845 47.2476 123.373C47.2476 114.9 54.1169 108.031 62.5906 108.031C71.0642 108.031 77.9335 114.9 77.9335 123.373C77.9335 123.845 77.9122 124.311 77.8707 124.771L116.532 124.772C116.49 124.311 116.469 123.845 116.469 123.374C116.469 119.667 117.782 116.266 119.97 113.613H80.724V74.5545ZM143.68 113.613C145.867 116.266 147.181 119.667 147.181 123.374C147.181 123.845 147.159 124.311 147.118 124.772L158.332 124.772V113.613H143.68ZM47.2397 94.7865C46.7083 95.7164 47.3798 96.8735 48.4508 96.8735H75.1407V80.1346H55.6122L47.2397 94.7865ZM119.272 123.378C119.272 130.311 124.892 135.932 131.826 135.932C138.759 135.932 144.38 130.311 144.38 123.378C144.38 116.444 138.759 110.823 131.826 110.823C124.892 110.823 119.272 116.444 119.272 123.378ZM124.85 123.373C124.85 127.225 127.973 130.347 131.825 130.347C135.677 130.347 138.799 127.225 138.799 123.373C138.799 119.521 135.677 116.398 131.825 116.398C127.973 116.398 124.85 119.521 124.85 123.373Z" fill="black"/>
</svg>
