<svg width="200" height="201" viewBox="0 0 200 201" fill="none" xmlns="http://www.w3.org/2000/svg">
<rect x="0.520833" y="-0.520833" width="196.875" height="96.875" rx="8.85417" transform="matrix(-1 0 0 1 198.958 52.4164)" fill="white" stroke="#13141A" stroke-width="1.04167"/>
<path d="M193.75 60.7503C193.75 58.4491 191.885 56.5836 189.583 56.5836H10.4167C8.11549 56.5836 6.25 58.4491 6.25 60.7503V139.917C6.25 142.218 8.11549 144.084 10.4167 144.084H189.583C191.885 144.084 193.75 142.218 193.75 139.917V60.7503Z" fill="#FFE600"/>
<path fill-rule="evenodd" clip-rule="evenodd" d="M164.583 105.542L164.583 114.916L185.417 100.333L164.583 85.7496L164.583 95.1252L143.75 95.1252L143.75 105.542L164.583 105.542Z" fill="#05081B"/>
<path d="M22.1475 84.4869C22.1475 80.6858 23.2041 77.8704 25.3173 76.0407C27.0826 74.5202 29.2344 73.76 31.7728 73.76C34.5946 73.76 36.9011 74.6877 38.6921 76.5432C40.4832 78.3858 41.3787 80.9371 41.3787 84.197C41.3787 86.8385 40.9793 88.9194 40.1804 90.4399C39.3944 91.9475 38.2412 93.12 36.7207 93.9576C35.2131 94.7951 33.5638 95.2139 31.7728 95.2139C28.8994 95.2139 26.5736 94.2926 24.7955 92.45C23.0302 90.6074 22.1475 87.9531 22.1475 84.4869ZM25.7232 84.4869C25.7232 87.1155 26.2966 89.087 27.4434 90.4012C28.5901 91.7027 30.0333 92.3534 31.7728 92.3534C33.4994 92.3534 34.9361 91.6962 36.0829 90.3819C37.2297 89.0676 37.8031 87.064 37.8031 84.371C37.8031 81.8326 37.2232 79.9127 36.0636 78.6113C34.9168 77.297 33.4865 76.6399 31.7728 76.6399C30.0333 76.6399 28.5901 77.2906 27.4434 78.592C26.2966 79.8934 25.7232 81.8584 25.7232 84.4869ZM60.5132 65.739L63.5863 65.7776C63.4446 67.1563 63.1354 68.1163 62.6586 68.6575C62.1947 69.1986 61.5891 69.5465 60.8418 69.7012C60.1073 69.8558 58.6578 69.9331 56.493 69.9331C53.6196 69.9331 51.6611 70.2101 50.6174 70.7642C49.5737 71.3183 48.8199 72.2073 48.356 73.4314C47.9051 74.6426 47.6538 76.2082 47.6023 78.1281C48.4785 76.8267 49.5028 75.8539 50.6754 75.2096C51.8479 74.5524 53.1687 74.2239 54.6376 74.2239C57.3306 74.2239 59.5597 75.1516 61.325 77.0071C63.0903 78.8497 63.9729 81.3494 63.9729 84.5063C63.9729 86.9029 63.5284 88.8679 62.6393 90.4012C61.7502 91.9346 60.6936 93.12 59.4695 93.9576C58.2583 94.7951 56.6026 95.2139 54.5023 95.2139C52.067 95.2139 50.1729 94.6598 48.8199 93.5517C47.467 92.4307 46.4297 91.0004 45.7081 89.2609C44.9866 87.5214 44.6258 84.4934 44.6258 80.1768C44.6258 74.7522 45.5406 71.0992 47.3703 69.218C49.2129 67.3367 52.0412 66.3961 55.8552 66.3961C58.2261 66.3961 59.5726 66.3575 59.8947 66.2801C60.2169 66.2028 60.423 66.0224 60.5132 65.739ZM60.3393 84.4096C60.3393 82.2707 59.8303 80.5183 58.8124 79.1525C57.8073 77.7866 56.3835 77.1037 54.5409 77.1037C52.621 77.1037 51.1392 77.8253 50.0955 79.2684C49.0518 80.7116 48.53 82.6379 48.53 85.0474C48.53 87.4312 49.1034 89.2545 50.2502 90.5172C51.4098 91.78 52.8336 92.4113 54.5216 92.4113C56.2482 92.4113 57.6463 91.6833 58.7157 90.2273C59.7981 88.7584 60.3393 86.8192 60.3393 84.4096ZM67.9544 70.165V66.1255H71.6847V69.3146C71.6847 71.0412 71.485 72.2847 71.0855 73.0449C70.5315 74.0886 69.6682 74.8746 68.4956 75.4029L67.6452 74.0306C68.341 73.7471 68.8564 73.3026 69.1914 72.697C69.5393 72.0785 69.7326 71.2345 69.7712 70.165H67.9544ZM78.1982 94.75V74.2239H81.6772V94.75H78.1982ZM74.5452 70.2037V66.2415H78.1788V70.2037H74.5452ZM81.7545 70.2037V66.2415H85.3881V70.2037H81.7545ZM92.5394 85.4727V82.7474C94.0083 82.7346 95.0069 82.6766 95.5352 82.5735C96.0764 82.4704 96.5853 82.1612 97.0621 81.6458C97.5389 81.1303 97.7772 80.4861 97.7772 79.713C97.7772 78.7724 97.4615 78.025 96.8302 77.4709C96.2117 76.904 95.4064 76.6205 94.4142 76.6205C92.4556 76.6205 91.0834 77.7737 90.2974 80.0802L86.9923 79.539C88.0231 75.6863 90.51 73.76 94.4528 73.76C96.6433 73.76 98.3571 74.3592 99.594 75.5575C100.844 76.7558 101.469 78.1861 101.469 79.8483C101.469 81.5233 100.657 82.857 99.0335 83.8491C100.064 84.4032 100.837 85.1119 101.353 85.9752C101.868 86.8256 102.126 87.8371 102.126 89.0096C102.126 90.8522 101.456 92.3469 100.116 93.4937C98.7758 94.6405 96.901 95.2139 94.4915 95.2139C89.8142 95.2139 87.1018 93.1329 86.3545 88.971L89.6209 88.2752C89.9173 89.5895 90.5164 90.6074 91.4184 91.329C92.3332 92.0506 93.3769 92.4113 94.5495 92.4113C95.722 92.4113 96.6949 92.0828 97.468 91.4256C98.254 90.7556 98.647 89.9052 98.647 88.8743C98.647 88.0755 98.4022 87.3797 97.9125 86.7869C97.4229 86.1942 96.901 85.827 96.347 85.6853C95.7929 85.5306 94.7879 85.4533 93.3318 85.4533C93.2159 85.4533 92.9517 85.4598 92.5394 85.4727ZM108.021 74.2239H122.324V91.8895H124.546V100.568H121.686V94.75H105.528V100.568H102.667V91.8895H104.503C106.951 88.5651 108.124 82.6766 108.021 74.2239ZM110.92 77.1037C110.662 83.7654 109.632 88.694 107.828 91.8895H118.864V77.1037H110.92Z" fill="black"/>
<path d="M36.7594 134.334V131.744C35.458 133.78 33.5445 134.798 31.019 134.798C29.3826 134.798 27.875 134.347 26.4963 133.445C25.1305 132.543 24.0674 131.286 23.3072 129.676C22.5599 128.052 22.1862 126.19 22.1862 124.09C22.1862 122.041 22.5277 120.186 23.2106 118.524C23.8935 116.849 24.9179 115.566 26.2837 114.677C27.6495 113.788 29.1764 113.344 30.8644 113.344C32.1014 113.344 33.203 113.608 34.1694 114.136C35.1358 114.652 35.9218 115.328 36.5274 116.166V105.999H39.9871V134.334H36.7594ZM25.7618 124.09C25.7618 126.719 26.3159 128.684 27.424 129.985C28.5322 131.286 29.84 131.937 31.3476 131.937C32.868 131.937 34.1565 131.319 35.2131 130.082C36.2826 128.832 36.8173 126.931 36.8173 124.38C36.8173 121.571 36.2762 119.509 35.1938 118.195C34.1115 116.881 32.7778 116.224 31.193 116.224C29.6467 116.224 28.3518 116.855 27.3081 118.118C26.2772 119.38 25.7618 121.371 25.7618 124.09ZM59.5275 127.724L63.1225 128.168C62.5555 130.268 61.5054 131.898 59.972 133.058C58.4387 134.218 56.4802 134.798 54.0964 134.798C51.0941 134.798 48.7104 133.876 46.9451 132.034C45.1927 130.178 44.3165 127.582 44.3165 124.245C44.3165 120.791 45.2056 118.111 46.9838 116.204C48.7619 114.297 51.0684 113.344 53.9031 113.344C56.6477 113.344 58.8897 114.278 60.6292 116.146C62.3687 118.015 63.2384 120.643 63.2384 124.032C63.2384 124.238 63.232 124.547 63.2191 124.96H47.9115C48.0404 127.215 48.6782 128.941 49.825 130.14C50.9717 131.338 52.402 131.937 54.1157 131.937C55.3914 131.937 56.4802 131.602 57.3821 130.932C58.2841 130.262 58.9992 129.193 59.5275 127.724ZM48.1048 122.099H59.5662C59.4115 120.373 58.9734 119.078 58.2519 118.214C57.1437 116.874 55.707 116.204 53.9418 116.204C52.344 116.204 50.9975 116.739 49.9023 117.808C48.8199 118.878 48.2207 120.308 48.1048 122.099ZM75.1057 131.222L75.6082 134.295C74.629 134.501 73.7528 134.604 72.9797 134.604C71.7169 134.604 70.7376 134.405 70.0418 134.005C69.346 133.606 68.8564 133.084 68.5729 132.44C68.2894 131.782 68.1477 130.41 68.1477 128.323V116.514H65.5964V113.808H68.1477V108.724L71.6074 106.637V113.808H75.1057V116.514H71.6074V128.516C71.6074 129.508 71.6654 130.146 71.7813 130.43C71.9102 130.713 72.1099 130.938 72.3805 131.106C72.664 131.274 73.0634 131.357 73.5788 131.357C73.9654 131.357 74.4743 131.312 75.1057 131.222ZM77.2318 124.071C77.2318 120.27 78.2884 117.454 80.4015 115.624C82.1668 114.104 84.3186 113.344 86.857 113.344C89.6789 113.344 91.9853 114.271 93.7764 116.127C95.5674 117.97 96.4629 120.521 96.4629 123.781C96.4629 126.422 96.0635 128.503 95.2646 130.024C94.4786 131.531 93.3254 132.704 91.8049 133.541C90.2974 134.379 88.6481 134.798 86.857 134.798C83.9836 134.798 81.6578 133.876 79.8797 132.034C78.1144 130.191 77.2318 127.537 77.2318 124.071ZM80.8074 124.071C80.8074 126.699 81.3808 128.671 82.5276 129.985C83.6744 131.286 85.1175 131.937 86.857 131.937C88.5836 131.937 90.0203 131.28 91.1671 129.966C92.3139 128.651 92.8873 126.648 92.8873 123.955C92.8873 121.416 92.3075 119.496 91.1478 118.195C90.001 116.881 88.5708 116.224 86.857 116.224C85.1175 116.224 83.6744 116.874 82.5276 118.176C81.3808 119.477 80.8074 121.442 80.8074 124.071ZM114.013 134.334V131.319C112.415 133.638 110.244 134.798 107.499 134.798C106.288 134.798 105.154 134.566 104.097 134.102C103.054 133.638 102.274 133.058 101.759 132.362C101.256 131.654 100.902 130.79 100.696 129.772C100.554 129.089 100.483 128.007 100.483 126.525V113.808H103.962V125.192C103.962 127.009 104.033 128.233 104.175 128.864C104.394 129.779 104.858 130.5 105.566 131.029C106.275 131.544 107.151 131.802 108.195 131.802C109.239 131.802 110.218 131.538 111.133 131.009C112.048 130.468 112.692 129.74 113.066 128.825C113.452 127.898 113.645 126.558 113.645 124.805V113.808H117.124V134.334H114.013ZM122.555 134.334V113.808H125.687V116.919C126.485 115.463 127.22 114.503 127.89 114.04C128.573 113.576 129.32 113.344 130.132 113.344C131.305 113.344 132.496 113.717 133.708 114.465L132.509 117.693C131.659 117.19 130.808 116.939 129.958 116.939C129.198 116.939 128.515 117.171 127.909 117.635C127.304 118.086 126.872 118.717 126.614 119.529C126.228 120.766 126.034 122.119 126.034 123.587V134.334H122.555Z" fill="black"/>
</svg>
