<svg width="200" height="201" viewBox="0 0 200 201" fill="none" xmlns="http://www.w3.org/2000/svg">
<rect x="30.7287" y="31.631" width="138.54" height="138.54" rx="8.85404" fill="white" stroke="#13141A" stroke-width="1.04165"/>
<rect x="35.4161" y="36.3193" width="129.165" height="129.165" rx="4.16661" fill="#1071AF"/>
<rect x="77.0822" y="98.8179" width="45.8327" height="45.8327" rx="2.0833" fill="white"/>
<rect x="81.2497" y="102.985" width="37.4994" height="18.7497" fill="#1071AF"/>
<path d="M79.1655 146.734H85.4156V150.901C85.4156 152.051 84.4829 152.984 83.3323 152.984H81.2488C80.0982 152.984 79.1655 152.051 79.1655 150.901V146.734Z" fill="white"/>
<path d="M114.582 146.734H120.832V150.901C120.832 152.051 119.899 152.984 118.748 152.984H116.665C115.514 152.984 114.582 152.051 114.582 150.901V146.734Z" fill="white"/>
<circle cx="85.4154" cy="134.234" r="4.16661" fill="#1071AF"/>
<circle cx="114.582" cy="134.234" r="4.16661" fill="#1071AF"/>
<path d="M85.4154 73.8175L114.582 73.8175L99.9985 48.8179L85.4154 73.8175Z" fill="white"/>
<rect width="12.5004" height="18.7505" transform="matrix(1 0 0 -1 93.7487 90.4844)" fill="white"/>
<path fill-rule="evenodd" clip-rule="evenodd" d="M164.581 43.3417L42.4385 165.484H39.5827C37.2816 165.484 35.4161 163.619 35.4161 161.317V158.455L157.552 36.3193H160.414C162.715 36.3193 164.581 38.1848 164.581 40.4859V43.3417Z" fill="#FF0E00"/>
</svg>
