<svg width="200" height="200" viewBox="0 0 200 200" fill="none" xmlns="http://www.w3.org/2000/svg">
<rect x="1.56254" y="146.354" width="92.7084" height="196.875" rx="8.85417" transform="rotate(-90 1.56254 146.354)" fill="white" stroke="#13141A" stroke-width="1.04167"/>
<rect x="6.77083" y="141.147" width="82.2917" height="186.458" rx="3.64583" transform="rotate(-90 6.77083 141.147)" stroke="black" stroke-width="1.04167"/>
<path d="M6.25 121.639L39.4729 121.432C39.4719 121.38 39.4927 121.332 39.5135 121.283C39.5344 121.235 39.5552 121.187 39.5542 121.135L39.6241 120.73C40.252 117.082 40.8368 113.684 43.6016 111.008C47.1802 107.286 52.4509 105.459 57.7195 106.95C62.988 108.44 66.8091 112.839 68.0283 117.919L71.9281 117.574C73.0822 117.566 75.3609 114.883 75.6168 113.95L79.0711 102.527C79.8874 100.754 79.7751 96.1525 78.4154 95.0981L65.2674 79.4621L59.1162 72.4051C58.5026 71.4793 56.9524 69.8249 55.2731 69.0665C54.7129 68.8152 54.1552 68.7399 53.6141 68.7517L23.4465 68.9131L6.25 68.8342V74.0067L22.01 74.148L45.8457 73.9674C46.1903 73.9725 46.5225 73.9693 46.8435 73.9662C47.9726 73.9553 48.9642 73.9457 49.8734 74.3032C51.0426 74.7576 52.073 75.8837 53.0226 78.4141L55.6033 84.6154C57.4209 88.8081 56.2102 94.3851 49.057 94.0305L16.522 94.1662L6.25 94.1049V121.639Z" fill="black"/>
<path fill-rule="evenodd" clip-rule="evenodd" d="M57.4976 108.595C64.0845 110.459 68.1178 117.468 66.2825 124.156C64.4472 130.844 57.4289 134.732 50.8372 132.867C44.2456 131.002 40.3784 124.035 42.2137 117.347C44.049 110.658 50.9107 106.732 57.4976 108.595ZM56.0126 114.007C52.3495 112.971 48.729 115.182 47.7083 118.901C46.6864 122.625 48.6605 126.414 52.3236 127.45C55.9866 128.487 59.7673 126.321 60.788 122.602C61.8086 118.882 59.6756 115.043 56.0126 114.007Z" fill="black"/>
<path fill-rule="evenodd" clip-rule="evenodd" d="M132.845 92.5375C136.48 83.0353 145.684 76.292 156.459 76.292C170.418 76.292 181.733 87.6076 181.733 101.566C181.733 115.524 170.418 126.84 156.459 126.84C148.239 126.84 140.936 122.917 136.317 116.836L135.168 115.321L133.905 116.743C131.061 119.945 126.917 121.958 122.301 121.958C118.009 121.958 114.127 120.217 111.316 117.4L110.024 116.104L108.947 117.583C107.01 120.241 103.879 121.963 100.344 121.963C94.4703 121.963 89.7084 117.201 89.7084 111.327C89.7084 105.453 94.4703 100.691 100.344 100.691C102.209 100.691 103.958 101.17 105.478 102.01L107.082 102.896L107.704 101.173C109.862 95.196 115.585 90.9277 122.301 90.9277C125.337 90.9277 128.164 91.7978 130.553 93.3015L132.165 94.3157L132.845 92.5375ZM156.459 73.167C144.985 73.167 135.104 79.9709 130.624 89.7594C128.118 88.5071 125.29 87.8027 122.301 87.8027C114.833 87.8027 108.393 92.1945 105.418 98.5325C103.847 97.9089 102.134 97.5663 100.344 97.5663C92.7444 97.5663 86.5834 103.727 86.5834 111.327C86.5834 112.655 86.7713 113.938 87.122 115.152L79.2257 117.126L79.9836 120.158L88.3445 118.068C90.7033 122.258 95.1933 125.088 100.344 125.088C104.295 125.088 107.856 123.423 110.364 120.76C113.597 123.458 117.76 125.083 122.301 125.083C127.189 125.083 131.639 123.2 134.962 120.124C140.168 126.149 147.868 129.965 156.459 129.965C172.144 129.965 184.858 117.25 184.858 101.566C184.858 85.8817 172.144 73.167 156.459 73.167Z" fill="black"/>
<path fill-rule="evenodd" clip-rule="evenodd" d="M168.899 58.333L85.5657 141.666H66.6676L150.001 58.333H168.899Z" fill="#FF0E00"/>
</svg>
