<svg width="200" height="201" viewBox="0 0 200 201" fill="none" xmlns="http://www.w3.org/2000/svg">
<rect x="36.9792" y="12.3129" width="126.042" height="176.042" rx="8.85417" fill="white" stroke="#13141A" stroke-width="1.04167"/>
<rect x="41.6667" y="17" width="116.667" height="166.667" rx="4.16667" fill="#1071AF"/>
<rect x="50" y="33.6663" width="100" height="100" rx="4.16667" fill="white"/>
<path d="M55.4878 42.0653C53.5858 42.5161 53.7985 47.8935 55.7006 48.3807C56.0369 48.4669 84.0272 51.4694 107.821 54.4682C119.672 55.9618 135.684 57.4547 144.614 58.5855C144.718 58.5975 144.813 58.6092 144.899 58.6199C145.322 58.6723 145.542 58.6996 145.656 58.6026C145.779 58.498 145.779 58.2488 145.778 57.7308C145.778 57.6064 145.778 57.4664 145.779 57.3092C145.783 56.4523 145.786 55.5954 145.789 54.7384C145.794 53.2022 145.799 51.6658 145.807 50.1293L145.814 47.9872C145.819 46.3079 145.824 44.6283 145.832 42.9495C145.83 42.8104 145.831 42.6914 145.832 42.5898C145.835 42.3054 145.837 42.1565 145.763 42.0796C145.683 41.9951 145.511 41.9972 145.152 42.0018L145.139 42.0019L55.4878 42.0653Z" fill="#1F1A17"/>
<path d="M65.3279 61.0386L65.3356 66.3619C64.1359 65.4879 62.9347 64.6125 61.7349 63.7378C61.2953 63.4198 60.5922 64.2541 60.936 64.5806C61.4748 65.0933 62.0176 65.6023 62.5605 66.1113C63.6359 67.1198 64.7117 68.1286 65.7576 69.1674C66.0909 69.4974 67.2807 68.9825 67.2399 68.3238C67.1423 66.7028 67.1444 65.0779 67.1465 63.4533C67.1476 62.6511 67.1487 61.8486 67.1377 61.0471C67.1089 60.1794 65.3279 60.2028 65.3279 61.0386Z" fill="#1F1A17"/>
<path fill-rule="evenodd" clip-rule="evenodd" d="M66.0053 79.1872C72.5482 79.1872 77.8523 73.8941 77.8523 67.3647C77.8523 60.8354 72.5482 55.5423 66.0053 55.5423C59.4625 55.5423 54.1584 60.8354 54.1584 67.3647C54.1584 73.8941 59.4625 79.1872 66.0053 79.1872ZM66.0109 76.2927C70.9476 76.2927 74.9496 72.2994 74.9496 67.3734C74.9496 62.4474 70.9476 58.4542 66.0109 58.4542C61.0743 58.4542 57.0723 62.4474 57.0723 67.3734C57.0723 72.2994 61.0743 76.2927 66.0109 76.2927Z" fill="#1F1A17"/>
<path fill-rule="evenodd" clip-rule="evenodd" d="M54.1632 123.075H105.789C104.548 121.912 103.772 120.254 103.772 118.414C103.772 118.379 103.773 118.343 103.773 118.308L100.345 118.299L98.4353 121.686L67.7661 121.573C67.6527 121.461 69.5626 118.976 69.5626 118.976C69.5626 118.976 58.3329 112.203 59.4566 108.138C60.5782 104.073 76.5266 84.8806 79.6708 84.8806H111.014L96.9756 75.6221L112.925 66.591L118.313 66.7043L102.254 75.7355L116.964 84.9947L145.163 84.8813L145.276 118.412L134.46 118.394L134.46 118.414C134.46 120.254 133.684 121.912 132.443 123.075H145.832V125.333H54.1632V123.075ZM121.784 118.358L116.449 118.344L116.449 118.414C116.449 120.254 115.673 121.912 114.432 123.075H123.8C122.559 121.912 121.783 120.254 121.783 118.414L121.784 118.358ZM69.1337 100.282C71.7868 100.299 74.4378 100.317 77.0895 100.336L77.0932 100.336C77.156 100.336 77.1645 100.336 77.2219 100.304C77.8383 99.9368 83.4743 96.4981 83.7645 93.2826C84.0717 89.8836 82.0871 87.5229 82.0871 87.5229C82.0871 87.5229 81.8906 86.736 80.2695 86.792C78.6485 86.8479 73.505 92.0467 73.505 92.0467L68.2777 98.3134C68.2777 98.3134 67.9142 98.9034 68.1114 99.3249C68.2446 99.6153 68.5532 99.9574 68.7307 100.143C68.8661 100.285 68.8978 100.284 69.0492 100.282C69.0735 100.282 69.1023 100.282 69.1337 100.282ZM139.058 94.6954C139.058 97.0021 137.198 98.8721 134.904 98.8721C132.61 98.8721 130.75 97.0021 130.75 94.6954C130.75 92.3887 132.61 90.5188 134.904 90.5188C137.198 90.5188 139.058 92.3887 139.058 94.6954ZM123.323 98.8721C125.617 98.8721 127.477 97.0021 127.477 94.6954C127.477 92.3887 125.617 90.5188 123.323 90.5188C121.028 90.5188 119.168 92.3887 119.168 94.6954C119.168 97.0021 121.028 98.8721 123.323 98.8721ZM111.73 98.8721C114.024 98.8721 115.884 97.0021 115.884 94.6954C115.884 92.3887 114.024 90.5188 111.73 90.5188C109.435 90.5188 107.575 92.3887 107.575 94.6954C107.575 97.0021 109.435 98.8721 111.73 98.8721Z" fill="#1F1A17"/>
</svg>
