<svg width="200" height="201" viewBox="0 0 200 201" fill="none" xmlns="http://www.w3.org/2000/svg">
<rect x="0.520833" y="-0.520833" width="196.875" height="109.375" rx="8.85417" transform="matrix(-1 0 0 1 198.958 46.416)" fill="white" stroke="#13141A" stroke-width="1.04167"/>
<path d="M193.75 54.7487C193.75 52.4475 191.885 50.582 189.583 50.582H10.4167C8.11549 50.582 6.25 52.4475 6.25 54.7487V146.415C6.25 148.717 8.11549 150.582 10.4167 150.582H189.583C191.885 150.582 193.75 148.717 193.75 146.415V54.7487Z" fill="#1071AF"/>
<path d="M31.1761 70.4801H34.9635V72.7351C35.455 71.9642 36.1199 71.3378 36.9584 70.8559C37.7968 70.374 38.7268 70.1331 39.7483 70.1331C41.5312 70.1331 43.0442 70.8318 44.2874 72.2292C45.5306 73.6266 46.1522 75.5733 46.1522 78.0693C46.1522 80.6328 45.5258 82.6277 44.273 84.054C43.0201 85.4706 41.5023 86.179 39.7194 86.179C38.8714 86.179 38.1004 86.0103 37.4065 85.673C36.7223 85.3357 35.9995 84.7575 35.2382 83.9383V91.6721H31.1761V70.4801ZM35.1948 77.8958C35.1948 79.6209 35.5369 80.8978 36.2211 81.7266C36.9054 82.5458 37.739 82.9553 38.722 82.9553C39.6664 82.9553 40.4518 82.5795 41.0783 81.8278C41.7047 81.0665 42.0179 79.8233 42.0179 78.0982C42.0179 76.4888 41.695 75.2938 41.0494 74.5132C40.4037 73.7326 39.6038 73.3423 38.6497 73.3423C37.6571 73.3423 36.8331 73.7278 36.1778 74.4987C35.5224 75.2601 35.1948 76.3924 35.1948 77.8958ZM49.3903 85.832V81.77H53.4524V85.832H49.3903ZM67.6045 64.6399H82.2482V82.2759H84.1129V90.4579H80.5568V85.832H67.2142V90.4579H63.6581V82.2759H65.4506C66.3276 80.4641 66.9058 78.3632 67.1853 75.9732C67.4648 73.5736 67.6045 70.5427 67.6045 66.8806V64.6399ZM71.681 68.1961C71.681 74.6337 71.098 79.327 69.9319 82.2759H77.9837V68.1961H71.681ZM86.8162 70.4801H90.8782V76.1033H96.6894V70.4801H100.766V85.832H96.6894V79.3848H90.8782V85.832H86.8162V70.4801ZM104.871 68.3984V64.6399H108.933V68.3984H104.871ZM104.871 85.832V70.4801H108.933V85.832H104.871ZM112.952 70.4801H126.584V85.832H122.522V73.7615H117.014V85.832H112.952V70.4801ZM130.892 70.4801H134.679V72.7351C135.171 71.9642 135.836 71.3378 136.674 70.8559C137.512 70.374 138.442 70.1331 139.464 70.1331C141.247 70.1331 142.76 70.8318 144.003 72.2292C145.246 73.6266 145.868 75.5733 145.868 78.0693C145.868 80.6328 145.241 82.6277 143.989 84.054C142.736 85.4706 141.218 86.179 139.435 86.179C138.587 86.179 137.816 86.0103 137.122 85.673C136.438 85.3357 135.715 84.7575 134.954 83.9383V91.6721H130.892V70.4801ZM134.91 77.8958C134.91 79.6209 135.252 80.8978 135.937 81.7266C136.621 82.5458 137.455 82.9553 138.438 82.9553C139.382 82.9553 140.167 82.5795 140.794 81.8278C141.42 81.0665 141.733 79.8233 141.733 78.0982C141.733 76.4888 141.411 75.2938 140.765 74.5132C140.119 73.7326 139.319 73.3423 138.365 73.3423C137.373 73.3423 136.549 73.7278 135.893 74.4987C135.238 75.2601 134.91 76.3924 134.91 77.8958ZM148.166 77.9392C148.166 76.59 148.499 75.2842 149.164 74.0217C149.829 72.7592 150.768 71.7955 151.983 71.1306C153.206 70.4656 154.57 70.1331 156.074 70.1331C158.396 70.1331 160.299 70.8896 161.784 72.4027C163.268 73.9061 164.01 75.8094 164.01 78.1127C164.01 80.4352 163.258 82.3627 161.755 83.895C160.261 85.4176 158.377 86.179 156.102 86.179C154.695 86.179 153.351 85.8609 152.069 85.2249C150.797 84.5888 149.829 83.6589 149.164 82.4349C148.499 81.2014 148.166 79.7028 148.166 77.9392ZM152.329 78.156C152.329 79.6787 152.691 80.8448 153.414 81.6543C154.136 82.4638 155.028 82.8686 156.088 82.8686C157.148 82.8686 158.035 82.4638 158.748 81.6543C159.471 80.8448 159.832 79.6691 159.832 78.1271C159.832 76.6237 159.471 75.4673 158.748 74.6578C158.035 73.8482 157.148 73.4435 156.088 73.4435C155.028 73.4435 154.136 73.8482 153.414 74.6578C152.691 75.4673 152.329 76.6334 152.329 78.156Z" fill="white"/>
<path d="M30.8783 98.2822H37.1347C38.5456 98.2822 39.6211 98.3901 40.3613 98.606C41.3558 98.8989 42.2077 99.4194 42.917 100.167C43.6263 100.915 44.166 101.832 44.5361 102.92C44.9061 103.999 45.0912 105.333 45.0912 106.921C45.0912 108.316 44.9177 109.519 44.5708 110.529C44.1467 111.763 43.5415 112.761 42.7551 113.524C42.1615 114.103 41.3597 114.554 40.3497 114.877C39.5941 115.116 38.5842 115.236 37.3198 115.236H30.8783V98.2822ZM34.3014 101.15V112.379H36.8572C37.8132 112.379 38.5032 112.325 38.9273 112.217C39.4824 112.079 39.9411 111.844 40.3034 111.512C40.6735 111.181 40.9742 110.637 41.2055 109.881C41.4368 109.118 41.5524 108.081 41.5524 106.771C41.5524 105.46 41.4368 104.454 41.2055 103.752C40.9742 103.051 40.6504 102.503 40.234 102.11C39.8177 101.717 39.2896 101.451 38.6497 101.312C38.1717 101.204 37.235 101.15 35.8395 101.15H34.3014ZM59.1537 115.236H55.904V108.968C55.904 107.642 55.8347 106.786 55.6959 106.401C55.5571 106.007 55.3297 105.703 55.0136 105.487C54.7052 105.271 54.3313 105.163 53.8918 105.163C53.329 105.163 52.824 105.317 52.3769 105.626C51.9297 105.934 51.6213 106.343 51.4517 106.852C51.2898 107.36 51.2088 108.301 51.2088 109.673V115.236H47.9592V102.954H50.9775V104.758C52.0492 103.371 53.3984 102.677 55.0251 102.677C55.7421 102.677 56.3975 102.808 56.9911 103.07C57.5848 103.324 58.0319 103.652 58.3326 104.053C58.641 104.454 58.853 104.909 58.9687 105.418C59.092 105.926 59.1537 106.655 59.1537 107.603V115.236ZM62.4612 101.289V98.2822H65.7108V101.289H62.4612ZM62.4612 115.236V102.954H65.7108V115.236H62.4612ZM68.9605 102.954H71.9904V104.758C72.3836 104.142 72.9155 103.64 73.5863 103.255C74.257 102.869 75.001 102.677 75.8183 102.677C77.2445 102.677 78.455 103.236 79.4495 104.354C80.4441 105.471 80.9414 107.029 80.9414 109.026C80.9414 111.076 80.4402 112.672 79.438 113.813C78.4357 114.947 77.2214 115.513 75.7951 115.513C75.1167 115.513 74.4999 115.378 73.9448 115.109C73.3974 114.839 72.8192 114.376 72.2101 113.721V119.908H68.9605V102.954ZM72.1754 108.887C72.1754 110.267 72.4491 111.288 72.9965 111.951C73.5439 112.607 74.2108 112.934 74.9972 112.934C75.7527 112.934 76.3811 112.634 76.8822 112.032C77.3833 111.423 77.6339 110.429 77.6339 109.049C77.6339 107.761 77.3756 106.805 76.8591 106.181C76.3425 105.556 75.7026 105.244 74.9393 105.244C74.1452 105.244 73.4861 105.552 72.9618 106.169C72.4375 106.778 72.1754 107.684 72.1754 108.887ZM86.6427 115.236H83.3931V102.954H86.4114V104.701C86.928 103.876 87.3905 103.332 87.7992 103.07C88.2155 102.808 88.6858 102.677 89.21 102.677C89.9502 102.677 90.6633 102.881 91.3495 103.29L90.3434 106.123C89.796 105.768 89.2871 105.591 88.8168 105.591C88.362 105.591 87.9765 105.718 87.6604 105.973C87.3443 106.219 87.0937 106.67 86.9087 107.326C86.7314 107.981 86.6427 109.353 86.6427 111.443V115.236ZM92.0087 108.922C92.0087 107.842 92.2746 106.798 92.8066 105.788C93.3386 104.778 94.0903 104.007 95.0617 103.475C96.0408 102.943 97.1318 102.677 98.3345 102.677C100.193 102.677 101.715 103.282 102.902 104.492C104.09 105.695 104.683 107.218 104.683 109.06C104.683 110.918 104.082 112.46 102.879 113.686C101.684 114.904 100.177 115.513 98.3576 115.513C97.232 115.513 96.1565 115.259 95.1311 114.75C94.1134 114.241 93.3386 113.497 92.8066 112.518C92.2746 111.531 92.0087 110.332 92.0087 108.922ZM95.3393 109.095C95.3393 110.313 95.6284 111.246 96.2066 111.894C96.7848 112.541 97.498 112.865 98.346 112.865C99.1941 112.865 99.9034 112.541 100.474 111.894C101.052 111.246 101.341 110.305 101.341 109.072C101.341 107.869 101.052 106.944 100.474 106.296C99.9034 105.649 99.1941 105.325 98.346 105.325C97.498 105.325 96.7848 105.649 96.2066 106.296C95.6284 106.944 95.3393 107.877 95.3393 109.095ZM116.942 115.236H113.692V102.954H116.711V104.701C117.227 103.876 117.69 103.332 118.098 103.07C118.515 102.808 118.985 102.677 119.509 102.677C120.249 102.677 120.963 102.881 121.649 103.29L120.643 106.123C120.095 105.768 119.586 105.591 119.116 105.591C118.661 105.591 118.276 105.718 117.96 105.973C117.643 106.219 117.393 106.67 117.208 107.326C117.031 107.981 116.942 109.353 116.942 111.443V115.236ZM123.06 101.289V98.2822H126.309V101.289H123.06ZM123.06 115.236V102.954H126.309V115.236H123.06ZM133.028 115.236L128.079 102.954H131.49L133.803 109.222L134.474 111.315C134.651 110.783 134.763 110.433 134.809 110.263C134.917 109.916 135.033 109.569 135.156 109.222L137.492 102.954H140.834L135.954 115.236H133.028Z" fill="white"/>
<path fill-rule="evenodd" clip-rule="evenodd" d="M20.8333 141.217C28.452 141.217 34.5833 135.125 34.5833 127.665H38.7499C38.7499 135.125 44.8812 141.217 52.5 141.217C60.1187 141.217 66.25 135.125 66.25 127.665H66.2516H70.4167H70.4183C70.4183 135.125 76.5496 141.217 84.1683 141.217C91.7245 141.217 97.8176 135.225 97.9171 127.848C97.9165 127.787 97.9162 127.726 97.9162 127.665H97.9184H102.083H102.085C102.085 127.726 102.085 127.787 102.084 127.848C102.183 135.224 108.277 141.217 115.833 141.217C123.452 141.217 129.583 135.125 129.583 127.665H129.585H133.75H133.751C133.751 135.125 139.883 141.217 147.501 141.217C155.054 141.217 161.145 135.23 161.25 127.859C161.249 127.794 161.249 127.73 161.249 127.665H161.252H165.416H165.418C165.418 127.73 165.418 127.795 165.417 127.859C165.523 135.23 171.613 141.217 179.166 141.217V145.384C172.318 145.384 166.348 141.577 163.334 135.969C160.32 141.577 154.35 145.384 147.501 145.384C140.652 145.384 134.68 141.575 131.667 135.965C128.654 141.575 122.683 145.384 115.833 145.384C108.985 145.384 103.015 141.577 100.001 135.969C96.9867 141.577 91.0165 145.384 84.1683 145.384C77.3187 145.384 71.3475 141.575 68.3342 135.966C65.3208 141.575 59.3496 145.384 52.5 145.384C45.651 145.384 39.6802 141.576 36.6666 135.967C33.653 141.576 27.6822 145.384 20.8333 145.384V141.217Z" fill="white"/>
</svg>
