<svg width="200" height="201" viewBox="0 0 200 201" fill="none" xmlns="http://www.w3.org/2000/svg">
<rect x="0.520826" y="-0.520826" width="138.54" height="138.54" rx="8.85404" transform="matrix(-1 0 0 1 169.789 32.1934)" fill="white" stroke="#13141A" stroke-width="1.04165"/>
<rect x="-1.04165" y="1.04165" width="127.081" height="127.081" rx="3.12495" transform="matrix(-1 0 0 1 162.498 36.3604)" fill="white" stroke="#13141A" stroke-width="2.0833"/>
<path d="M62.8371 140.7L58.7055 139.687C59.5949 136.079 62.1246 134.275 66.2945 134.275C68.762 134.275 70.6222 134.85 71.8751 135.999C73.1375 137.137 73.7687 138.478 73.7687 140.02C73.7687 141.078 73.4818 142.035 72.908 142.892C72.3341 143.738 71.4734 144.484 70.3257 145.129C71.722 145.633 72.7693 146.348 73.4675 147.275C74.1657 148.192 74.5147 149.326 74.5147 150.677C74.5147 152.622 73.8357 154.194 72.4776 155.393C71.1291 156.592 69.1063 157.192 66.4093 157.192C64.2095 157.192 62.4737 156.809 61.2017 156.043C59.9296 155.267 58.9732 153.821 58.3325 151.705L62.2202 150.359C62.6219 151.689 63.1527 152.551 63.8126 152.944C64.4821 153.337 65.3046 153.534 66.2801 153.534C67.6191 153.534 68.5946 153.231 69.2067 152.627C69.8188 152.012 70.1249 151.311 70.1249 150.525C70.1249 149.618 69.7758 148.888 69.0776 148.334C68.389 147.779 67.3465 147.502 65.9502 147.502H64.989V144.161H65.4768C66.7775 144.161 67.7721 143.854 68.4607 143.239C69.1493 142.625 69.4936 141.808 69.4936 140.791C69.4936 139.984 69.2115 139.304 68.6472 138.75C68.0925 138.196 67.2939 137.918 66.2514 137.918C64.4725 137.918 63.3344 138.846 62.8371 140.7Z" fill="black"/>
<path d="M77.244 145.87C77.244 143.612 77.5644 141.718 78.2052 140.186C78.6834 139.057 79.3337 138.044 80.1562 137.147C80.9883 136.251 81.8969 135.585 82.882 135.152C84.1922 134.568 85.7034 134.275 87.4153 134.275C90.514 134.275 92.9911 135.288 94.8465 137.314C96.7115 139.339 97.644 142.156 97.644 145.764C97.644 149.341 96.7211 152.143 94.8752 154.168C93.0294 156.184 90.5619 157.192 87.4727 157.192C84.3453 157.192 81.8586 156.189 80.0128 154.184C78.1669 152.168 77.244 149.397 77.244 145.87ZM81.6195 145.718C81.6195 148.228 82.1695 150.132 83.2693 151.432C84.3692 152.722 85.7655 153.367 87.4584 153.367C89.1512 153.367 90.538 152.727 91.6187 151.448C92.709 150.158 93.2541 148.228 93.2541 145.658C93.2541 143.118 92.7233 141.224 91.6617 139.974C90.6097 138.725 89.2086 138.1 87.4584 138.1C85.7081 138.1 84.2975 138.735 83.2263 140.004C82.1551 141.264 81.6195 143.169 81.6195 145.718Z" fill="black"/>
<path d="M101.234 156.814V134.653H105.48V143.375H113.801V134.653H118.048V156.814H113.801V147.124H105.48V156.814H101.234Z" fill="black"/>
<path d="M141.665 156.814H137.045L135.209 151.78H126.802L125.066 156.814H120.562L128.753 134.653H133.243L141.665 156.814ZM133.846 148.046L130.948 139.823L128.108 148.046H133.846Z" fill="black"/>
<circle cx="99.9985" cy="86.3594" r="41.6661" fill="#8F8F8F"/>
<path d="M95.4983 62.0296C95.4983 64.7006 93.467 66.8658 90.9614 66.8658C88.4558 66.8658 86.4245 64.7006 86.4245 62.0296C86.4245 59.3586 88.4558 57.1934 90.9614 57.1934C93.467 57.1934 95.4983 59.3586 95.4983 62.0296Z" fill="white"/>
<path d="M87.2479 109.073L91.0296 92.7458L94.8114 109.073C95.1633 110.592 96.6195 111.504 98.0356 111.092C99.383 110.7 100.203 109.248 99.8977 107.796L94.5457 82.3418L95.4531 76.5383L99.0261 86.762C99.4263 87.9071 100.647 88.4585 101.697 87.9688C102.654 87.5227 103.126 86.3664 102.781 85.316L97.36 68.8047C97.1689 68.2227 96.6537 67.8331 96.0753 67.8331H85.9839C85.4055 67.8331 84.8903 68.2227 84.6993 68.8047L79.278 85.316C78.9331 86.3664 79.4057 87.5227 80.3621 87.9688C81.4124 88.4585 82.6329 87.9071 83.0331 86.762L86.6062 76.5383L87.5136 82.3418L82.1615 107.796C81.8561 109.248 82.6763 110.7 84.0237 111.092C85.4397 111.504 86.896 110.592 87.2479 109.073Z" fill="white"/>
<path d="M115.047 87.1447C114.88 86.8644 114.591 86.6944 114.28 86.6944L109.226 86.6944C108.763 86.6944 108.303 86.7785 107.866 86.9429L100.816 89.5977C100.09 89.8696 99.6835 90.692 99.8835 91.484C100.093 92.3136 100.89 92.8088 101.671 92.5942L108.526 90.7092V97.3437L105.105 108.903C104.815 109.882 105.339 110.919 106.291 111.254C107.259 111.594 108.317 111.085 108.671 110.111L111.604 102.039L114.537 110.111C114.891 111.085 115.949 111.594 116.916 111.254C117.869 110.919 118.392 109.882 118.103 108.903L114.682 97.3437V92.8622L117.97 97.8138C118.443 98.5251 119.375 98.6751 120.024 98.1441C120.614 97.6605 120.761 96.7767 120.363 96.1057L115.047 87.1447Z" fill="white"/>
<path d="M111.831 85.7272C113.836 85.7272 115.461 83.995 115.461 81.8582C115.461 79.7214 113.836 77.9892 111.831 77.9892C109.827 77.9892 108.202 79.7214 108.202 81.8582C108.202 83.995 109.827 85.7272 111.831 85.7272Z" fill="white"/>
<path d="M162.498 38.444H163.539V38.7775L37.4994 164.346V163.442H36.4578V162.443L161.968 37.4023H162.498V38.444Z" fill="black"/>
<path d="M36.4578 155.091V158.032L157.54 37.4023H154.588L36.4578 155.091Z" fill="black"/>
<path d="M36.4578 147.739V150.68L150.161 37.4023H147.209L36.4578 147.739Z" fill="black"/>
<path d="M49.168 164.484H52.1198L163.539 53.4811V50.5404L49.168 164.484Z" fill="black"/>
<path d="M41.7886 164.484H44.7404L163.539 46.1293V43.1886L41.7886 164.484Z" fill="black"/>
</svg>
